<?xml version="1.0" encoding="UTF-8" standalone="no"?>
<!DOCTYPE svg PUBLIC "-//W3C//DTD SVG 1.1//EN"
 "http://www.w3.org/Graphics/SVG/1.1/DTD/svg11.dtd">
<!-- Generated by graphviz version 2.38.0 (20140413.2041)
 -->
<!-- Title: a_graph Pages: 1 -->
<svg width="622pt" height="443pt"
 viewBox="0.00 0.00 622.00 443.00" xmlns="http://www.w3.org/2000/svg" xmlns:xlink="http://www.w3.org/1999/xlink">
<g id="graph0" class="graph" transform="scale(1 1) rotate(0) translate(4 439)">
<title>a_graph</title>
<polygon fill="white" stroke="none" points="-4,4 -4,-439 618,-439 618,4 -4,4"/>
<!-- T8472 -->
<g id="node1" class="node"><title>T8472</title>
<polygon fill="none" stroke="#0058ad" points="400,-405.5 400,-434.5 611,-434.5 611,-405.5 400,-405.5"/>
<text text-anchor="middle" x="428.5" y="-416.3" font-family="Times,serif" font-size="14.00" fill="#0058ad">a 586 4</text>
<polyline fill="none" stroke="#0058ad" points="457,-405.5 457,-434.5 "/>
<text text-anchor="middle" x="505" y="-416.3" font-family="Times,serif" font-size="14.00" fill="#0058ad">r 586 [1 2 3 4]</text>
<polyline fill="none" stroke="#0058ad" points="553,-405.5 553,-434.5 "/>
<text text-anchor="middle" x="582" y="-416.3" font-family="Times,serif" font-size="14.00" fill="#0058ad">r 591 []</text>
</g>
<!-- T8483 -->
<g id="node4" class="node"><title>T8483</title>
<polygon fill="none" stroke="#0058ad" points="0,-324.5 0,-353.5 367,-353.5 367,-324.5 0,-324.5"/>
<text text-anchor="middle" x="53.5" y="-335.3" font-family="Times,serif" font-size="14.00" fill="#0058ad">r 585 [2 3 4 8 1]</text>
<polyline fill="none" stroke="#0058ad" points="107,-324.5 107,-353.5 "/>
<text text-anchor="middle" x="155" y="-335.3" font-family="Times,serif" font-size="14.00" fill="#0058ad">r 586 [1 2 3 4]</text>
<polyline fill="none" stroke="#0058ad" points="203,-324.5 203,-353.5 "/>
<text text-anchor="middle" x="256.5" y="-335.3" font-family="Times,serif" font-size="14.00" fill="#0058ad">r 585 [2 3 4 8 1]</text>
<polyline fill="none" stroke="#0058ad" points="310,-324.5 310,-353.5 "/>
<text text-anchor="middle" x="338.5" y="-335.3" font-family="Times,serif" font-size="14.00" fill="#0058ad">a 586 1</text>
</g>
<!-- T8472&#45;&gt;T8483 -->
<g id="edge1" class="edge"><title>T8472:f0&#45;&gt;T8483:f1</title>
<path fill="none" stroke="#c000a5" d="M398.5,-420C345.84,-420 177.464,-411.361 156.623,-363.998"/>
<polygon fill="#c000a5" stroke="#c000a5" points="160.001,-363.055 154.5,-354 153.154,-364.509 160.001,-363.055"/>
<text text-anchor="middle" x="191" y="-375.8" font-family="Times,serif" font-size="14.00" fill="#c000a5">wr</text>
</g>
<!-- T8488 -->
<g id="node2" class="node"><title>T8488</title>
<polygon fill="none" stroke="#0058ad" points="347,-0.5 347,-29.5 614,-29.5 614,-0.5 347,-0.5"/>
<text text-anchor="middle" x="379.5" y="-11.3" font-family="Times,serif" font-size="14.00" fill="#0058ad">r 589 [1]</text>
<polyline fill="none" stroke="#0058ad" points="412,-0.5 412,-29.5 "/>
<text text-anchor="middle" x="455" y="-11.3" font-family="Times,serif" font-size="14.00" fill="#0058ad">r 586 [1 2 3]</text>
<polyline fill="none" stroke="#0058ad" points="498,-0.5 498,-29.5 "/>
<text text-anchor="middle" x="527" y="-11.3" font-family="Times,serif" font-size="14.00" fill="#0058ad">r 592 []</text>
<polyline fill="none" stroke="#0058ad" points="556,-0.5 556,-29.5 "/>
<text text-anchor="middle" x="585" y="-11.3" font-family="Times,serif" font-size="14.00" fill="#0058ad">r 592 []</text>
</g>
<!-- T8488&#45;&gt;T8472 -->
<g id="edge2" class="edge"><title>T8488:f1&#45;&gt;T8472:f0</title>
<path fill="none" stroke="#5b00c0" d="M454.5,-30C454.5,-38.7545 459.466,-39.7879 462.5,-48 470.053,-68.4455 476.5,-73.2041 476.5,-95 476.5,-340 476.5,-340 476.5,-340 476.5,-365.782 457.972,-366.377 442.5,-387 439.269,-391.307 435.52,-393.257 432.715,-395.659"/>
<polygon fill="#5b00c0" stroke="#5b00c0" points="429.423,-394.445 428.5,-405 435.803,-397.324 429.423,-394.445"/>
<text text-anchor="middle" x="484" y="-213.8" font-family="Times,serif" font-size="14.00" fill="#5b00c0">rw</text>
</g>
<!-- T8442 -->
<g id="node3" class="node"><title>T8442</title>
<polygon fill="none" stroke="#0058ad" points="252.5,-162.5 252.5,-191.5 366.5,-191.5 366.5,-162.5 252.5,-162.5"/>
<text text-anchor="middle" x="281" y="-173.3" font-family="Times,serif" font-size="14.00" fill="#0058ad">a 579 2</text>
<polyline fill="none" stroke="#0058ad" points="309.5,-162.5 309.5,-191.5 "/>
<text text-anchor="middle" x="338" y="-173.3" font-family="Times,serif" font-size="14.00" fill="#0058ad">a 586 2</text>
</g>
<!-- T8465 -->
<g id="node6" class="node"><title>T8465</title>
<polygon fill="none" stroke="#0058ad" points="276.5,-81.5 276.5,-110.5 448.5,-110.5 448.5,-81.5 276.5,-81.5"/>
<text text-anchor="middle" x="305" y="-92.3" font-family="Times,serif" font-size="14.00" fill="#0058ad">a 587 7</text>
<polyline fill="none" stroke="#0058ad" points="333.5,-81.5 333.5,-110.5 "/>
<text text-anchor="middle" x="362.5" y="-92.3" font-family="Times,serif" font-size="14.00" fill="#0058ad">r 588 []</text>
<polyline fill="none" stroke="#0058ad" points="391.5,-81.5 391.5,-110.5 "/>
<text text-anchor="middle" x="420" y="-92.3" font-family="Times,serif" font-size="14.00" fill="#0058ad">a 586 3</text>
</g>
<!-- T8442&#45;&gt;T8465 -->
<g id="edge3" class="edge"><title>T8442:f1&#45;&gt;T8465:f2</title>
<path fill="none" stroke="#c02700" d="M338.5,-162C338.5,-157.662 392.114,-130.502 412.637,-117.427"/>
<polygon fill="#c02700" stroke="#c02700" points="414.973,-120.039 420.5,-111 410.543,-114.619 414.973,-120.039"/>
<text text-anchor="middle" x="402.5" y="-132.8" font-family="Times,serif" font-size="14.00" fill="#c02700">ww</text>
</g>
<!-- T8483&#45;&gt;T8442 -->
<g id="edge4" class="edge"><title>T8483:f3&#45;&gt;T8442:f1</title>
<path fill="none" stroke="#c02700" d="M338.5,-324C338.5,-290.68 216.639,-300.275 197.5,-273 189.841,-262.086 189.841,-253.914 197.5,-243 214.546,-218.708 313.072,-223.662 334.42,-201.497"/>
<polygon fill="#c02700" stroke="#c02700" points="337.769,-202.57 338.5,-192 331.337,-199.807 337.769,-202.57"/>
<text text-anchor="middle" x="207.5" y="-254.3" font-family="Times,serif" font-size="14.00" fill="#c02700">ww</text>
</g>
<!-- T8501 -->
<g id="node5" class="node"><title>T8501</title>
<polygon fill="none" stroke="#0058ad" points="227,-243.5 227,-272.5 392,-272.5 392,-243.5 227,-243.5"/>
<text text-anchor="middle" x="256" y="-254.3" font-family="Times,serif" font-size="14.00" fill="#0058ad">r 593 []</text>
<polyline fill="none" stroke="#0058ad" points="285,-243.5 285,-272.5 "/>
<text text-anchor="middle" x="338.5" y="-254.3" font-family="Times,serif" font-size="14.00" fill="#0058ad">r 586 [1 2 3 4 1]</text>
</g>
<!-- T8483&#45;&gt;T8501 -->
<g id="edge5" class="edge"><title>T8483:f3&#45;&gt;T8501:f1</title>
<path fill="none" stroke="#c000a5" d="M338.5,-324C338.5,-305.229 338.5,-298.117 338.5,-283.354"/>
<polygon fill="#c000a5" stroke="#c000a5" points="342,-283 338.5,-273 335,-283 342,-283"/>
<text text-anchor="middle" x="346" y="-294.8" font-family="Times,serif" font-size="14.00" fill="#c000a5">wr</text>
</g>
<!-- T8501&#45;&gt;T8442 -->
<g id="edge6" class="edge"><title>T8501:f1&#45;&gt;T8442:f1</title>
<path fill="none" stroke="#5b00c0" d="M338.5,-243C338.5,-224.229 338.5,-217.117 338.5,-202.354"/>
<polygon fill="#5b00c0" stroke="#5b00c0" points="342,-202 338.5,-192 335,-202 342,-202"/>
<text text-anchor="middle" x="346" y="-213.8" font-family="Times,serif" font-size="14.00" fill="#5b00c0">rw</text>
</g>
<!-- T8465&#45;&gt;T8472 -->
<g id="edge8" class="edge"><title>T8465:f2&#45;&gt;T8472:f0</title>
<path fill="none" stroke="#c02700" d="M420.5,-111C420.5,-140.107 428.5,-146.893 428.5,-176 428.5,-340 428.5,-340 428.5,-340 428.5,-365.165 428.5,-373.889 428.5,-394.815"/>
<polygon fill="#c02700" stroke="#c02700" points="425,-395 428.5,-405 432,-395 425,-395"/>
<text text-anchor="middle" x="438.5" y="-254.3" font-family="Times,serif" font-size="14.00" fill="#c02700">ww</text>
</g>
<!-- T8465&#45;&gt;T8488 -->
<g id="edge7" class="edge"><title>T8465:f2&#45;&gt;T8488:f1</title>
<path fill="none" stroke="#c000a5" d="M420.5,-81C420.5,-57.589 445.61,-56.8697 452.672,-39.8407"/>
<polygon fill="#c000a5" stroke="#c000a5" points="456.115,-40.4711 454.5,-30 449.232,-39.1926 456.115,-40.4711"/>
<text text-anchor="middle" x="454" y="-51.8" font-family="Times,serif" font-size="14.00" fill="#c000a5">wr</text>
</g>
</g>
</svg>
