<?xml version="1.0" encoding="UTF-8" standalone="no"?>
<!DOCTYPE svg PUBLIC "-//W3C//DTD SVG 1.1//EN"
 "http://www.w3.org/Graphics/SVG/1.1/DTD/svg11.dtd">
<!-- Generated by graphviz version 2.38.0 (20140413.2041)
 -->
<!-- Title: a_graph Pages: 1 -->
<svg width="525pt" height="281pt"
 viewBox="0.00 0.00 525.00 281.00" xmlns="http://www.w3.org/2000/svg" xmlns:xlink="http://www.w3.org/1999/xlink">
<g id="graph0" class="graph" transform="scale(1 1) rotate(0) translate(4 277)">
<title>a_graph</title>
<polygon fill="white" stroke="none" points="-4,4 -4,-277 521,-277 521,4 -4,4"/>
<!-- T8472 -->
<g id="node1" class="node"><title>T8472</title>
<polygon fill="none" stroke="#0058ad" points="306,-243.5 306,-272.5 517,-272.5 517,-243.5 306,-243.5"/>
<text text-anchor="middle" x="334.5" y="-254.3" font-family="Times,serif" font-size="14.00" fill="#0058ad">a 586 4</text>
<polyline fill="none" stroke="#0058ad" points="363,-243.5 363,-272.5 "/>
<text text-anchor="middle" x="411" y="-254.3" font-family="Times,serif" font-size="14.00" fill="#0058ad">r 586 [1 2 3 4]</text>
<polyline fill="none" stroke="#0058ad" points="459,-243.5 459,-272.5 "/>
<text text-anchor="middle" x="488" y="-254.3" font-family="Times,serif" font-size="14.00" fill="#0058ad">r 591 []</text>
</g>
<!-- T8483 -->
<g id="node3" class="node"><title>T8483</title>
<polygon fill="none" stroke="#0058ad" points="0,-162.5 0,-191.5 367,-191.5 367,-162.5 0,-162.5"/>
<text text-anchor="middle" x="53.5" y="-173.3" font-family="Times,serif" font-size="14.00" fill="#0058ad">r 585 [2 3 4 8 1]</text>
<polyline fill="none" stroke="#0058ad" points="107,-162.5 107,-191.5 "/>
<text text-anchor="middle" x="155" y="-173.3" font-family="Times,serif" font-size="14.00" fill="#0058ad">r 586 [1 2 3 4]</text>
<polyline fill="none" stroke="#0058ad" points="203,-162.5 203,-191.5 "/>
<text text-anchor="middle" x="256.5" y="-173.3" font-family="Times,serif" font-size="14.00" fill="#0058ad">r 585 [2 3 4 8 1]</text>
<polyline fill="none" stroke="#0058ad" points="310,-162.5 310,-191.5 "/>
<text text-anchor="middle" x="338.5" y="-173.3" font-family="Times,serif" font-size="14.00" fill="#0058ad">a 586 1</text>
</g>
<!-- T8472&#45;&gt;T8483 -->
<g id="edge1" class="edge"><title>T8472:f0&#45;&gt;T8483:f1</title>
<path fill="none" stroke="#c000a5" d="M304.5,-258C271.497,-258 175.119,-233.704 157.338,-202.043"/>
<polygon fill="#c000a5" stroke="#c000a5" points="160.587,-200.672 154.5,-192 153.851,-202.575 160.587,-200.672"/>
<text text-anchor="middle" x="191" y="-213.8" font-family="Times,serif" font-size="14.00" fill="#c000a5">wr</text>
</g>
<!-- T8442 -->
<g id="node2" class="node"><title>T8442</title>
<polygon fill="none" stroke="#0058ad" points="253.5,-81.5 253.5,-110.5 367.5,-110.5 367.5,-81.5 253.5,-81.5"/>
<text text-anchor="middle" x="282" y="-92.3" font-family="Times,serif" font-size="14.00" fill="#0058ad">a 579 2</text>
<polyline fill="none" stroke="#0058ad" points="310.5,-81.5 310.5,-110.5 "/>
<text text-anchor="middle" x="339" y="-92.3" font-family="Times,serif" font-size="14.00" fill="#0058ad">a 586 2</text>
</g>
<!-- T8465 -->
<g id="node4" class="node"><title>T8465</title>
<polygon fill="none" stroke="#0058ad" points="228.5,-0.5 228.5,-29.5 400.5,-29.5 400.5,-0.5 228.5,-0.5"/>
<text text-anchor="middle" x="257" y="-11.3" font-family="Times,serif" font-size="14.00" fill="#0058ad">a 587 7</text>
<polyline fill="none" stroke="#0058ad" points="285.5,-0.5 285.5,-29.5 "/>
<text text-anchor="middle" x="314.5" y="-11.3" font-family="Times,serif" font-size="14.00" fill="#0058ad">r 588 []</text>
<polyline fill="none" stroke="#0058ad" points="343.5,-0.5 343.5,-29.5 "/>
<text text-anchor="middle" x="372" y="-11.3" font-family="Times,serif" font-size="14.00" fill="#0058ad">a 586 3</text>
</g>
<!-- T8442&#45;&gt;T8465 -->
<g id="edge2" class="edge"><title>T8442:f1&#45;&gt;T8465:f2</title>
<path fill="none" stroke="#c02700" d="M339.5,-81C339.5,-78.4689 358.062,-52.9453 367.344,-38.9179"/>
<polygon fill="#c02700" stroke="#c02700" points="370.524,-40.409 372.5,-30 364.465,-36.9052 370.524,-40.409"/>
<text text-anchor="middle" x="371.5" y="-51.8" font-family="Times,serif" font-size="14.00" fill="#c02700">ww</text>
</g>
<!-- T8483&#45;&gt;T8442 -->
<g id="edge3" class="edge"><title>T8483:f3&#45;&gt;T8442:f1</title>
<path fill="none" stroke="#c02700" d="M338.5,-162C338.5,-143.226 339.186,-136.119 339.422,-121.355"/>
<polygon fill="#c02700" stroke="#c02700" points="342.924,-121.026 339.5,-111 335.924,-120.973 342.924,-121.026"/>
<text text-anchor="middle" x="349.5" y="-132.8" font-family="Times,serif" font-size="14.00" fill="#c02700">ww</text>
</g>
<!-- T8465&#45;&gt;T8472 -->
<g id="edge4" class="edge"><title>T8465:f2&#45;&gt;T8472:f0</title>
<path fill="none" stroke="#c02700" d="M372.5,-30C372.5,-38.9443 379.445,-39.295 381.5,-48 383.032,-54.4883 381.655,-56.3351 381.5,-63 380.166,-120.38 395.816,-138.32 375.5,-192 366.573,-215.588 342.296,-214.747 336.005,-233.074"/>
<polygon fill="#c02700" stroke="#c02700" points="332.539,-232.588 334.5,-243 339.46,-233.638 332.539,-232.588"/>
<text text-anchor="middle" x="396.5" y="-132.8" font-family="Times,serif" font-size="14.00" fill="#c02700">ww</text>
</g>
</g>
</svg>
