<?xml version="1.0" encoding="UTF-8" standalone="no"?>
<!DOCTYPE svg PUBLIC "-//W3C//DTD SVG 1.1//EN"
 "http://www.w3.org/Graphics/SVG/1.1/DTD/svg11.dtd">
<!-- Generated by graphviz version 2.43.0 (0)
 -->
<!-- Title: a_graph Pages: 1 -->
<svg width="394pt" height="119pt"
 viewBox="0.00 0.00 394.00 119.00" xmlns="http://www.w3.org/2000/svg" xmlns:xlink="http://www.w3.org/1999/xlink">
<g id="graph0" class="graph" transform="scale(1 1) rotate(0) translate(4 115)">
<title>a_graph</title>
<polygon fill="white" stroke="transparent" points="-4,4 -4,-115 390,-115 390,4 -4,4"/>
<!-- T993 -->
<g id="node1" class="node">
<title>T993</title>
<polygon fill="none" stroke="#0058ad" points="142,-81.5 142,-110.5 268,-110.5 268,-81.5 142,-81.5"/>
<text text-anchor="middle" x="180.5" y="-92.3" font-family="Times,serif" font-size="14.00" fill="#0058ad">r 59 [1 3 5]</text>
<polyline fill="none" stroke="#0058ad" points="219,-81.5 219,-110.5 "/>
<text text-anchor="middle" x="243.5" y="-92.3" font-family="Times,serif" font-size="14.00" fill="#0058ad">a 68 3</text>
</g>
<!-- T1030 -->
<g id="node2" class="node">
<title>T1030</title>
<polygon fill="none" stroke="#0058ad" points="0,-0.5 0,-29.5 386,-29.5 386,-0.5 0,-0.5"/>
<text text-anchor="middle" x="62.5" y="-11.3" font-family="Times,serif" font-size="14.00" fill="#0058ad">r 68 [2 4 5 6 1 8 7 3]</text>
<polyline fill="none" stroke="#0058ad" points="125,-0.5 125,-29.5 "/>
<text text-anchor="middle" x="178" y="-11.3" font-family="Times,serif" font-size="14.00" fill="#0058ad">r 66 [2 5 7 4 8 6]</text>
<polyline fill="none" stroke="#0058ad" points="231,-0.5 231,-29.5 "/>
<text text-anchor="middle" x="284" y="-11.3" font-family="Times,serif" font-size="14.00" fill="#0058ad">r 66 [2 5 7 4 8 6]</text>
<polyline fill="none" stroke="#0058ad" points="337,-0.5 337,-29.5 "/>
<text text-anchor="middle" x="361.5" y="-11.3" font-family="Times,serif" font-size="14.00" fill="#0058ad">a 59 5</text>
</g>
<!-- T993&#45;&gt;T1030 -->
<g id="edge1" class="edge">
<title>T993:f1&#45;&gt;T1030:f0</title>
<path fill="none" stroke="#c000a5" d="M244,-81C244,-58.63 226.43,-57.12 206,-48 180,-36.4 87.68,-56.39 66.4,-39.04"/>
<polygon fill="#c000a5" stroke="#c000a5" points="69.52,-37.46 62,-30 63.23,-40.52 69.52,-37.46"/>
<text text-anchor="middle" x="244.5" y="-51.8" font-family="Times,serif" font-size="14.00" fill="#c000a5">wr</text>
</g>
<!-- T1030&#45;&gt;T993 -->
<g id="edge2" class="edge">
<title>T1030:f3&#45;&gt;T993:f0</title>
<path fill="none" stroke="#c000a5" d="M362,-30C362,-69.09 216.08,-21.87 187,-48 178.64,-55.52 178.88,-61.89 179.53,-70.93"/>
<polygon fill="#c000a5" stroke="#c000a5" points="176.03,-71.18 180,-81 183.03,-70.85 176.03,-71.18"/>
<text text-anchor="middle" x="194.5" y="-51.8" font-family="Times,serif" font-size="14.00" fill="#c000a5">wr</text>
</g>
</g>
</svg>
