<?xml version="1.0" encoding="UTF-8" standalone="no"?>
<!DOCTYPE svg PUBLIC "-//W3C//DTD SVG 1.1//EN"
 "http://www.w3.org/Graphics/SVG/1.1/DTD/svg11.dtd">
<!-- Generated by graphviz version 2.38.0 (20140413.2041)
 -->
<!-- Title: a_graph Pages: 1 -->
<svg width="517pt" height="200pt"
 viewBox="0.00 0.00 516.50 200.00" xmlns="http://www.w3.org/2000/svg" xmlns:xlink="http://www.w3.org/1999/xlink">
<g id="graph0" class="graph" transform="scale(1 1) rotate(0) translate(4 196)">
<title>a_graph</title>
<polygon fill="white" stroke="none" points="-4,4 -4,-196 512.5,-196 512.5,4 -4,4"/>
<!-- T9767 -->
<g id="node1" class="node"><title>T9767</title>
<polygon fill="none" stroke="#0058ad" points="290.5,-162.5 290.5,-191.5 508.5,-191.5 508.5,-162.5 290.5,-162.5"/>
<text text-anchor="middle" x="319" y="-173.3" font-family="Times,serif" font-size="14.00" fill="#0058ad">a 679 6</text>
<polyline fill="none" stroke="#0058ad" points="347.5,-162.5 347.5,-191.5 "/>
<text text-anchor="middle" x="380" y="-173.3" font-family="Times,serif" font-size="14.00" fill="#0058ad">r 680 [1]</text>
<polyline fill="none" stroke="#0058ad" points="412.5,-162.5 412.5,-191.5 "/>
<text text-anchor="middle" x="460.5" y="-173.3" font-family="Times,serif" font-size="14.00" fill="#0058ad">r 676 [2 5 7 6]</text>
</g>
<!-- T9765 -->
<g id="node2" class="node"><title>T9765</title>
<polygon fill="none" stroke="#0058ad" points="0,-81.5 0,-110.5 143,-110.5 143,-81.5 0,-81.5"/>
<text text-anchor="middle" x="28.5" y="-92.3" font-family="Times,serif" font-size="14.00" fill="#0058ad">a 676 8</text>
<polyline fill="none" stroke="#0058ad" points="57,-81.5 57,-110.5 "/>
<text text-anchor="middle" x="100" y="-92.3" font-family="Times,serif" font-size="14.00" fill="#0058ad">r 679 [2 3 4]</text>
</g>
<!-- T9767&#45;&gt;T9765 -->
<g id="edge1" class="edge"><title>T9767:f2&#45;&gt;T9765:f0</title>
<path fill="none" stroke="#5b00c0" d="M460.5,-162C460.5,-105.4 393.376,-138.026 337.5,-129 322.315,-126.547 87.0393,-127.839 37.5798,-115.83"/>
<polygon fill="#5b00c0" stroke="#5b00c0" points="38.9723,-112.607 28.5,-111 35.6847,-118.787 38.9723,-112.607"/>
<text text-anchor="middle" x="464" y="-132.8" font-family="Times,serif" font-size="14.00" fill="#5b00c0">rw</text>
</g>
<!-- T9771 -->
<g id="node4" class="node"><title>T9771</title>
<polygon fill="none" stroke="#0058ad" points="161,-81.5 161,-110.5 418,-110.5 418,-81.5 161,-81.5"/>
<text text-anchor="middle" x="189.5" y="-92.3" font-family="Times,serif" font-size="14.00" fill="#0058ad">a 664 1</text>
<polyline fill="none" stroke="#0058ad" points="218,-81.5 218,-110.5 "/>
<text text-anchor="middle" x="246.5" y="-92.3" font-family="Times,serif" font-size="14.00" fill="#0058ad">a 680 2</text>
<polyline fill="none" stroke="#0058ad" points="275,-81.5 275,-110.5 "/>
<text text-anchor="middle" x="318" y="-92.3" font-family="Times,serif" font-size="14.00" fill="#0058ad">r 679 [2 3 4]</text>
<polyline fill="none" stroke="#0058ad" points="361,-81.5 361,-110.5 "/>
<text text-anchor="middle" x="389.5" y="-92.3" font-family="Times,serif" font-size="14.00" fill="#0058ad">a 674 1</text>
</g>
<!-- T9767&#45;&gt;T9771 -->
<g id="edge2" class="edge"><title>T9767:f1&#45;&gt;T9771:f1</title>
<path fill="none" stroke="#5b00c0" d="M379.5,-162C379.5,-139.858 301.253,-154.005 281.5,-144 266.003,-136.151 252.583,-133.385 248.096,-121.157"/>
<polygon fill="#5b00c0" stroke="#5b00c0" points="251.51,-120.336 246.5,-111 244.594,-121.422 251.51,-120.336"/>
<text text-anchor="middle" x="289" y="-132.8" font-family="Times,serif" font-size="14.00" fill="#5b00c0">rw</text>
</g>
<!-- T9765&#45;&gt;T9767 -->
<g id="edge3" class="edge"><title>T9765:f1&#45;&gt;T9767:f0</title>
<path fill="none" stroke="#5b00c0" d="M144.5,-96C151.857,-96 146.323,-105.773 151.5,-111 196.916,-156.849 219.195,-175.124 279.488,-176.861"/>
<polygon fill="#5b00c0" stroke="#5b00c0" points="279.452,-180.361 289.5,-177 279.549,-173.362 279.452,-180.361"/>
<text text-anchor="middle" x="193" y="-132.8" font-family="Times,serif" font-size="14.00" fill="#5b00c0">rw</text>
</g>
<!-- T9772 -->
<g id="node3" class="node"><title>T9772</title>
<polygon fill="none" stroke="#0058ad" points="53.5,-0.5 53.5,-29.5 303.5,-29.5 303.5,-0.5 53.5,-0.5"/>
<text text-anchor="middle" x="107" y="-11.3" font-family="Times,serif" font-size="14.00" fill="#0058ad">r 676 [2 5 7 6 8]</text>
<polyline fill="none" stroke="#0058ad" points="160.5,-0.5 160.5,-29.5 "/>
<text text-anchor="middle" x="189" y="-11.3" font-family="Times,serif" font-size="14.00" fill="#0058ad">a 664 2</text>
<polyline fill="none" stroke="#0058ad" points="217.5,-0.5 217.5,-29.5 "/>
<text text-anchor="middle" x="260.5" y="-11.3" font-family="Times,serif" font-size="14.00" fill="#0058ad">r 679 [2 3 4]</text>
</g>
<!-- T9765&#45;&gt;T9772 -->
<g id="edge4" class="edge"><title>T9765:f0&#45;&gt;T9772:f0</title>
<path fill="none" stroke="#c000a5" d="M28.5,-81C28.5,-53.689 22.9779,-23.641 42.5073,-16.5557"/>
<polygon fill="#c000a5" stroke="#c000a5" points="43.1575,-19.9968 52.5,-15 42.0806,-13.0801 43.1575,-19.9968"/>
<text text-anchor="middle" x="36" y="-51.8" font-family="Times,serif" font-size="14.00" fill="#c000a5">wr</text>
</g>
<!-- T9772&#45;&gt;T9767 -->
<g id="edge5" class="edge"><title>T9772:f2&#45;&gt;T9767:f0</title>
<path fill="none" stroke="#5b00c0" d="M304.5,-15C366.539,-15 395.648,-27.7613 427.5,-81 434.345,-92.4419 434.657,-99.7501 427.5,-111 414.996,-130.655 341.567,-134.474 322.843,-152.809"/>
<polygon fill="#5b00c0" stroke="#5b00c0" points="319.608,-151.463 318.5,-162 325.937,-154.454 319.608,-151.463"/>
<text text-anchor="middle" x="440" y="-92.3" font-family="Times,serif" font-size="14.00" fill="#5b00c0">rw</text>
</g>
<!-- T9771&#45;&gt;T9767 -->
<g id="edge6" class="edge"><title>T9771:f2&#45;&gt;T9767:f0</title>
<path fill="none" stroke="#5b00c0" d="M318.5,-111C318.5,-129.771 318.5,-136.883 318.5,-151.646"/>
<polygon fill="#5b00c0" stroke="#5b00c0" points="315,-152 318.5,-162 322,-152 315,-152"/>
<text text-anchor="middle" x="326" y="-132.8" font-family="Times,serif" font-size="14.00" fill="#5b00c0">rw</text>
</g>
<!-- T9771&#45;&gt;T9772 -->
<g id="edge7" class="edge"><title>T9771:f0&#45;&gt;T9772:f1</title>
<path fill="none" stroke="#c02700" d="M189.5,-81C189.5,-62.2292 189.5,-55.1168 189.5,-40.3535"/>
<polygon fill="#c02700" stroke="#c02700" points="193,-40 189.5,-30 186,-40 193,-40"/>
<text text-anchor="middle" x="199.5" y="-51.8" font-family="Times,serif" font-size="14.00" fill="#c02700">ww</text>
</g>
</g>
</svg>
