<?xml version="1.0" encoding="UTF-8" standalone="no"?>
<!DOCTYPE svg PUBLIC "-//W3C//DTD SVG 1.1//EN"
 "http://www.w3.org/Graphics/SVG/1.1/DTD/svg11.dtd">
<!-- Generated by graphviz version 2.38.0 (20140413.2041)
 -->
<!-- Title: a_graph Pages: 1 -->
<svg width="377pt" height="119pt"
 viewBox="0.00 0.00 377.00 119.00" xmlns="http://www.w3.org/2000/svg" xmlns:xlink="http://www.w3.org/1999/xlink">
<g id="graph0" class="graph" transform="scale(1 1) rotate(0) translate(4 115)">
<title>a_graph</title>
<polygon fill="white" stroke="none" points="-4,4 -4,-115 373,-115 373,4 -4,4"/>
<!-- T2157 -->
<g id="node1" class="node"><title>T2157</title>
<polygon fill="none" stroke="#0058ad" points="119,-81.5 119,-110.5 369,-110.5 369,-81.5 119,-81.5"/>
<text text-anchor="middle" x="151.5" y="-92.3" font-family="Times,serif" font-size="14.00" fill="#0058ad">r 146 [6]</text>
<polyline fill="none" stroke="#0058ad" points="184,-81.5 184,-110.5 "/>
<text text-anchor="middle" x="212.5" y="-92.3" font-family="Times,serif" font-size="14.00" fill="#0058ad">a 150 2</text>
<polyline fill="none" stroke="#0058ad" points="241,-81.5 241,-110.5 "/>
<text text-anchor="middle" x="305" y="-92.3" font-family="Times,serif" font-size="14.00" fill="#0058ad">r 150 [3 4 5 6 7 1 2]</text>
</g>
<!-- T2164 -->
<g id="node2" class="node"><title>T2164</title>
<polygon fill="none" stroke="#0058ad" points="0,-0.5 0,-29.5 288,-29.5 288,-0.5 0,-0.5"/>
<text text-anchor="middle" x="28.5" y="-11.3" font-family="Times,serif" font-size="14.00" fill="#0058ad">a 149 1</text>
<polyline fill="none" stroke="#0058ad" points="57,-0.5 57,-29.5 "/>
<text text-anchor="middle" x="115.5" y="-11.3" font-family="Times,serif" font-size="14.00" fill="#0058ad">r 150 [3 4 5 6 7 1]</text>
<polyline fill="none" stroke="#0058ad" points="174,-0.5 174,-29.5 "/>
<text text-anchor="middle" x="202.5" y="-11.3" font-family="Times,serif" font-size="14.00" fill="#0058ad">a 149 2</text>
<polyline fill="none" stroke="#0058ad" points="231,-0.5 231,-29.5 "/>
<text text-anchor="middle" x="259.5" y="-11.3" font-family="Times,serif" font-size="14.00" fill="#0058ad">a 146 3</text>
</g>
<!-- T2157&#45;&gt;T2164 -->
<g id="edge1" class="edge"><title>T2157:f0&#45;&gt;T2164:f3</title>
<path fill="none" stroke="#5b00c0" d="M151,-81C151,-64.2934 155.534,-57.888 169,-48 198.856,-26.077 248.519,-62.2963 258.299,-39.9805"/>
<polygon fill="#5b00c0" stroke="#5b00c0" points="261.77,-40.446 260,-30 254.869,-39.2696 261.77,-40.446"/>
<text text-anchor="middle" x="176.5" y="-51.8" font-family="Times,serif" font-size="14.00" fill="#5b00c0">rw</text>
</g>
<!-- T2164&#45;&gt;T2157 -->
<g id="edge2" class="edge"><title>T2164:f1&#45;&gt;T2157:f1</title>
<path fill="none" stroke="#5b00c0" d="M115,-30C115,-61.693 157.168,-31.1334 184,-48 196.977,-56.1572 207.052,-60.0549 210.61,-71.0351"/>
<polygon fill="#5b00c0" stroke="#5b00c0" points="207.152,-71.5796 212,-81 214.085,-70.6123 207.152,-71.5796"/>
<text text-anchor="middle" x="212.5" y="-51.8" font-family="Times,serif" font-size="14.00" fill="#5b00c0">rw</text>
</g>
</g>
</svg>
