<?xml version="1.0" encoding="UTF-8" standalone="no"?>
<!DOCTYPE svg PUBLIC "-//W3C//DTD SVG 1.1//EN"
 "http://www.w3.org/Graphics/SVG/1.1/DTD/svg11.dtd">
<!-- Generated by graphviz version 2.38.0 (20140413.2041)
 -->
<!-- Title: a_graph Pages: 1 -->
<svg width="367pt" height="443pt"
 viewBox="0.00 0.00 367.00 443.00" xmlns="http://www.w3.org/2000/svg" xmlns:xlink="http://www.w3.org/1999/xlink">
<g id="graph0" class="graph" transform="scale(1 1) rotate(0) translate(4 439)">
<title>a_graph</title>
<polygon fill="white" stroke="none" points="-4,4 -4,-439 363,-439 363,4 -4,4"/>
<!-- T585 -->
<g id="node1" class="node"><title>T585</title>
<polygon fill="none" stroke="#0058ad" points="223,-405.5 223,-434.5 359,-434.5 359,-405.5 223,-405.5"/>
<text text-anchor="middle" x="257" y="-416.3" font-family="Times,serif" font-size="14.00" fill="#0058ad">r 45 [2 5]</text>
<polyline fill="none" stroke="#0058ad" points="291,-405.5 291,-434.5 "/>
<text text-anchor="middle" x="325" y="-416.3" font-family="Times,serif" font-size="14.00" fill="#0058ad">r 44 [1 2]</text>
</g>
<!-- T581 -->
<g id="node4" class="node"><title>T581</title>
<polygon fill="none" stroke="#0058ad" points="28,-324.5 28,-353.5 282,-353.5 282,-324.5 28,-324.5"/>
<text text-anchor="middle" x="62" y="-335.3" font-family="Times,serif" font-size="14.00" fill="#0058ad">r 45 [2 5]</text>
<polyline fill="none" stroke="#0058ad" points="96,-324.5 96,-353.5 "/>
<text text-anchor="middle" x="130" y="-335.3" font-family="Times,serif" font-size="14.00" fill="#0058ad">r 45 [2 5]</text>
<polyline fill="none" stroke="#0058ad" points="164,-324.5 164,-353.5 "/>
<text text-anchor="middle" x="198" y="-335.3" font-family="Times,serif" font-size="14.00" fill="#0058ad">r 45 [2 5]</text>
<polyline fill="none" stroke="#0058ad" points="232,-324.5 232,-353.5 "/>
<text text-anchor="middle" x="257" y="-335.3" font-family="Times,serif" font-size="14.00" fill="#0058ad">a 45 6</text>
</g>
<!-- T585&#45;&gt;T581 -->
<g id="edge2" class="edge"><title>T585:f0&#45;&gt;T581:f3</title>
<path fill="none" stroke="#5b00c0" d="M257,-405C257,-386.229 257,-379.117 257,-364.354"/>
<polygon fill="#5b00c0" stroke="#5b00c0" points="260.5,-364 257,-354 253.5,-364 260.5,-364"/>
<text text-anchor="middle" x="264.5" y="-375.8" font-family="Times,serif" font-size="14.00" fill="#5b00c0">rw</text>
</g>
<!-- T591 -->
<g id="node5" class="node"><title>T591</title>
<polygon fill="none" stroke="#0058ad" points="121,-162.5 121,-191.5 273,-191.5 273,-162.5 121,-162.5"/>
<text text-anchor="middle" x="146.5" y="-173.3" font-family="Times,serif" font-size="14.00" fill="#0058ad">r 45 []</text>
<polyline fill="none" stroke="#0058ad" points="172,-162.5 172,-191.5 "/>
<text text-anchor="middle" x="197.5" y="-173.3" font-family="Times,serif" font-size="14.00" fill="#0058ad">r 45 []</text>
<polyline fill="none" stroke="#0058ad" points="223,-162.5 223,-191.5 "/>
<text text-anchor="middle" x="248" y="-173.3" font-family="Times,serif" font-size="14.00" fill="#0058ad">a 44 5</text>
</g>
<!-- T585&#45;&gt;T591 -->
<g id="edge1" class="edge"><title>T585:f1&#45;&gt;T591:f2</title>
<path fill="none" stroke="#5b00c0" d="M325,-405C325,-304.712 374.287,-185.464 284.107,-177.429"/>
<polygon fill="#5b00c0" stroke="#5b00c0" points="284.14,-173.928 274,-177 283.842,-180.921 284.14,-173.928"/>
<text text-anchor="middle" x="343.5" y="-294.8" font-family="Times,serif" font-size="14.00" fill="#5b00c0">rw</text>
</g>
<!-- T594 -->
<g id="node2" class="node"><title>T594</title>
<polygon fill="none" stroke="#0058ad" points="149.5,-243.5 149.5,-272.5 296.5,-272.5 296.5,-243.5 149.5,-243.5"/>
<text text-anchor="middle" x="183.5" y="-254.3" font-family="Times,serif" font-size="14.00" fill="#0058ad">r 44 [1 2]</text>
<polyline fill="none" stroke="#0058ad" points="217.5,-243.5 217.5,-272.5 "/>
<text text-anchor="middle" x="257" y="-254.3" font-family="Times,serif" font-size="14.00" fill="#0058ad">r 45 [2 5 6]</text>
</g>
<!-- T594&#45;&gt;T591 -->
<g id="edge3" class="edge"><title>T594:f0&#45;&gt;T591:f2</title>
<path fill="none" stroke="#5b00c0" d="M183,-243C183,-210.296 234.559,-224.519 245.837,-202.08"/>
<polygon fill="#5b00c0" stroke="#5b00c0" points="249.324,-202.512 248,-192 242.48,-201.043 249.324,-202.512"/>
<text text-anchor="middle" x="245.5" y="-213.8" font-family="Times,serif" font-size="14.00" fill="#5b00c0">rw</text>
</g>
<!-- T565 -->
<g id="node3" class="node"><title>T565</title>
<polygon fill="none" stroke="#0058ad" points="113,-81.5 113,-110.5 167,-110.5 167,-81.5 113,-81.5"/>
<text text-anchor="middle" x="140" y="-92.3" font-family="Times,serif" font-size="14.00" fill="#0058ad">a 45 2</text>
</g>
<!-- T577 -->
<g id="node6" class="node"><title>T577</title>
<polygon fill="none" stroke="#0058ad" points="56,-0.5 56,-29.5 110,-29.5 110,-0.5 56,-0.5"/>
<text text-anchor="middle" x="83" y="-11.3" font-family="Times,serif" font-size="14.00" fill="#0058ad">a 45 5</text>
</g>
<!-- T565&#45;&gt;T577 -->
<g id="edge4" class="edge"><title>T565:f0&#45;&gt;T577:f0</title>
<path fill="none" stroke="#c02700" d="M129.545,-81.1434C121.109,-69.1545 109.088,-52.0727 99.3763,-38.2715"/>
<polygon fill="#c02700" stroke="#c02700" points="102.006,-35.9263 93.3884,-29.7625 96.281,-39.9548 102.006,-35.9263"/>
<text text-anchor="middle" x="127" y="-51.8" font-family="Times,serif" font-size="14.00" fill="#c02700">ww</text>
</g>
<!-- T581&#45;&gt;T594 -->
<g id="edge5" class="edge"><title>T581:f3&#45;&gt;T594:f1</title>
<path fill="none" stroke="#c000a5" d="M257,-324C257,-305.229 257,-298.117 257,-283.354"/>
<polygon fill="#c000a5" stroke="#c000a5" points="260.5,-283 257,-273 253.5,-283 260.5,-283"/>
<text text-anchor="middle" x="264.5" y="-294.8" font-family="Times,serif" font-size="14.00" fill="#c000a5">wr</text>
</g>
<!-- T591&#45;&gt;T565 -->
<g id="edge6" class="edge"><title>T591:f0&#45;&gt;T565:f0</title>
<path fill="none" stroke="#5b00c0" d="M146,-162C146,-148.296 144.701,-133.056 143.312,-120.677"/>
<polygon fill="#5b00c0" stroke="#5b00c0" points="146.774,-120.152 142.099,-110.645 139.825,-120.993 146.774,-120.152"/>
<text text-anchor="middle" x="153.5" y="-132.8" font-family="Times,serif" font-size="14.00" fill="#5b00c0">rw</text>
</g>
<!-- T577&#45;&gt;T585 -->
<g id="edge7" class="edge"><title>T577:f0&#45;&gt;T585:f0</title>
<path fill="none" stroke="#c000a5" d="M62.0556,-29.6281C37.4675,-47.5916 0,-77.7884 0,-95 0,-340 0,-340 0,-340 0,-389.366 150.273,-416.685 211.634,-419.717"/>
<polygon fill="#c000a5" stroke="#c000a5" points="211.908,-423.225 222,-420 212.099,-416.228 211.908,-423.225"/>
<text text-anchor="middle" x="7.5" y="-213.8" font-family="Times,serif" font-size="14.00" fill="#c000a5">wr</text>
</g>
<!-- T577&#45;&gt;T581 -->
<g id="edge8" class="edge"><title>T577:f0&#45;&gt;T581:f3</title>
<path fill="none" stroke="#c02700" d="M83,-29.7447C83,-45.7964 83,-72.2222 83,-95 83,-259 83,-259 83,-259 83,-296.729 228.379,-285.306 253.366,-314.587"/>
<polygon fill="#c02700" stroke="#c02700" points="250.133,-315.932 257,-324 256.663,-313.411 250.133,-315.932"/>
<text text-anchor="middle" x="93" y="-173.3" font-family="Times,serif" font-size="14.00" fill="#c02700">ww</text>
</g>
</g>
</svg>
