<?xml version="1.0" encoding="UTF-8" standalone="no"?>
<!DOCTYPE svg PUBLIC "-//W3C//DTD SVG 1.1//EN"
 "http://www.w3.org/Graphics/SVG/1.1/DTD/svg11.dtd">
<!-- Generated by graphviz version 2.38.0 (20140413.2041)
 -->
<!-- Title: a_graph Pages: 1 -->
<svg width="347pt" height="119pt"
 viewBox="0.00 0.00 347.00 119.00" xmlns="http://www.w3.org/2000/svg" xmlns:xlink="http://www.w3.org/1999/xlink">
<g id="graph0" class="graph" transform="scale(1 1) rotate(0) translate(4 115)">
<title>a_graph</title>
<polygon fill="white" stroke="none" points="-4,4 -4,-115 343,-115 343,4 -4,4"/>
<!-- T9331 -->
<g id="node1" class="node"><title>T9331</title>
<polygon fill="none" stroke="#0058ad" points="53,-81.5 53,-110.5 339,-110.5 339,-81.5 53,-81.5"/>
<text text-anchor="middle" x="81.5" y="-92.3" font-family="Times,serif" font-size="14.00" fill="#0058ad">a 643 6</text>
<polyline fill="none" stroke="#0058ad" points="110,-81.5 110,-110.5 "/>
<text text-anchor="middle" x="153" y="-92.3" font-family="Times,serif" font-size="14.00" fill="#0058ad">r 645 [1 3 2]</text>
<polyline fill="none" stroke="#0058ad" points="196,-81.5 196,-110.5 "/>
<text text-anchor="middle" x="224.5" y="-92.3" font-family="Times,serif" font-size="14.00" fill="#0058ad">a 621 4</text>
<polyline fill="none" stroke="#0058ad" points="253,-81.5 253,-110.5 "/>
<text text-anchor="middle" x="296" y="-92.3" font-family="Times,serif" font-size="14.00" fill="#0058ad">r 645 [1 3 2]</text>
</g>
<!-- T9325 -->
<g id="node2" class="node"><title>T9325</title>
<polygon fill="none" stroke="#0058ad" points="0,-0.5 0,-29.5 260,-29.5 260,-0.5 0,-0.5"/>
<text text-anchor="middle" x="28.5" y="-11.3" font-family="Times,serif" font-size="14.00" fill="#0058ad">a 645 7</text>
<polyline fill="none" stroke="#0058ad" points="57,-0.5 57,-29.5 "/>
<text text-anchor="middle" x="105" y="-11.3" font-family="Times,serif" font-size="14.00" fill="#0058ad">r 645 [1 3 2 7]</text>
<polyline fill="none" stroke="#0058ad" points="153,-0.5 153,-29.5 "/>
<text text-anchor="middle" x="206.5" y="-11.3" font-family="Times,serif" font-size="14.00" fill="#0058ad">r 643 [1 3 2 4 5]</text>
</g>
<!-- T9331&#45;&gt;T9325 -->
<g id="edge1" class="edge"><title>T9331:f1&#45;&gt;T9325:f0</title>
<path fill="none" stroke="#5b00c0" d="M153,-81C153,-56.5556 131.208,-58.2143 109,-48 79.2911,-34.3358 38.5812,-59.7476 29.7391,-39.9688"/>
<polygon fill="#5b00c0" stroke="#5b00c0" points="33.1666,-39.2497 28,-30 26.2708,-40.4528 33.1666,-39.2497"/>
<text text-anchor="middle" x="153.5" y="-51.8" font-family="Times,serif" font-size="14.00" fill="#5b00c0">rw</text>
</g>
<!-- T9325&#45;&gt;T9331 -->
<g id="edge2" class="edge"><title>T9325:f2&#45;&gt;T9331:f0</title>
<path fill="none" stroke="#5b00c0" d="M207,-30C207,-56.3059 109.627,-30.4849 90,-48 81.493,-55.5916 80.684,-61.807 80.8112,-70.8537"/>
<polygon fill="#5b00c0" stroke="#5b00c0" points="77.3145,-71.0669 81,-81 84.3132,-70.9366 77.3145,-71.0669"/>
<text text-anchor="middle" x="97.5" y="-51.8" font-family="Times,serif" font-size="14.00" fill="#5b00c0">rw</text>
</g>
</g>
</svg>
