<?xml version="1.0" encoding="UTF-8" standalone="no"?>
<!DOCTYPE svg PUBLIC "-//W3C//DTD SVG 1.1//EN"
 "http://www.w3.org/Graphics/SVG/1.1/DTD/svg11.dtd">
<!-- Generated by graphviz version 2.38.0 (20140413.2041)
 -->
<!-- Title: a_graph Pages: 1 -->
<svg width="561pt" height="200pt"
 viewBox="0.00 0.00 561.00 200.00" xmlns="http://www.w3.org/2000/svg" xmlns:xlink="http://www.w3.org/1999/xlink">
<g id="graph0" class="graph" transform="scale(1 1) rotate(0) translate(4 196)">
<title>a_graph</title>
<polygon fill="white" stroke="none" points="-4,4 -4,-196 557,-196 557,4 -4,4"/>
<!-- T5188 -->
<g id="node1" class="node"><title>T5188</title>
<polygon fill="none" stroke="#0058ad" points="216,-162.5 216,-191.5 512,-191.5 512,-162.5 216,-162.5"/>
<text text-anchor="middle" x="244.5" y="-173.3" font-family="Times,serif" font-size="14.00" fill="#0058ad">a 363 2</text>
<polyline fill="none" stroke="#0058ad" points="273,-162.5 273,-191.5 "/>
<text text-anchor="middle" x="321" y="-173.3" font-family="Times,serif" font-size="14.00" fill="#0058ad">r 362 [2 3 4 1]</text>
<polyline fill="none" stroke="#0058ad" points="369,-162.5 369,-191.5 "/>
<text text-anchor="middle" x="397.5" y="-173.3" font-family="Times,serif" font-size="14.00" fill="#0058ad">a 342 5</text>
<polyline fill="none" stroke="#0058ad" points="426,-162.5 426,-191.5 "/>
<text text-anchor="middle" x="469" y="-173.3" font-family="Times,serif" font-size="14.00" fill="#0058ad">r 363 [4 5 2]</text>
</g>
<!-- T5166 -->
<g id="node2" class="node"><title>T5166</title>
<polygon fill="none" stroke="#0058ad" points="293,-81.5 293,-110.5 553,-110.5 553,-81.5 293,-81.5"/>
<text text-anchor="middle" x="321.5" y="-92.3" font-family="Times,serif" font-size="14.00" fill="#0058ad">a 362 7</text>
<polyline fill="none" stroke="#0058ad" points="350,-81.5 350,-110.5 "/>
<text text-anchor="middle" x="398" y="-92.3" font-family="Times,serif" font-size="14.00" fill="#0058ad">r 342 [1 2 3 4]</text>
<polyline fill="none" stroke="#0058ad" points="446,-81.5 446,-110.5 "/>
<text text-anchor="middle" x="499.5" y="-92.3" font-family="Times,serif" font-size="14.00" fill="#0058ad">r 362 [2 3 4 1 7]</text>
</g>
<!-- T5188&#45;&gt;T5166 -->
<g id="edge1" class="edge"><title>T5188:f1&#45;&gt;T5166:f0</title>
<path fill="none" stroke="#5b00c0" d="M321,-162C321,-143.229 321,-136.117 321,-121.354"/>
<polygon fill="#5b00c0" stroke="#5b00c0" points="324.5,-121 321,-111 317.5,-121 324.5,-121"/>
<text text-anchor="middle" x="328.5" y="-132.8" font-family="Times,serif" font-size="14.00" fill="#5b00c0">rw</text>
</g>
<!-- T5166&#45;&gt;T5188 -->
<g id="edge2" class="edge"><title>T5166:f1&#45;&gt;T5188:f2</title>
<path fill="none" stroke="#5b00c0" d="M398,-111C398,-129.771 398,-136.883 398,-151.646"/>
<polygon fill="#5b00c0" stroke="#5b00c0" points="394.5,-152 398,-162 401.5,-152 394.5,-152"/>
<text text-anchor="middle" x="405.5" y="-132.8" font-family="Times,serif" font-size="14.00" fill="#5b00c0">rw</text>
</g>
<!-- T5259 -->
<g id="node3" class="node"><title>T5259</title>
<polygon fill="none" stroke="#0058ad" points="0,-0.5 0,-29.5 346,-29.5 346,-0.5 0,-0.5"/>
<text text-anchor="middle" x="53.5" y="-11.3" font-family="Times,serif" font-size="14.00" fill="#0058ad">r 362 [2 3 4 1 7]</text>
<polyline fill="none" stroke="#0058ad" points="107,-0.5 107,-29.5 "/>
<text text-anchor="middle" x="160.5" y="-11.3" font-family="Times,serif" font-size="14.00" fill="#0058ad">r 362 [2 3 4 1 7]</text>
<polyline fill="none" stroke="#0058ad" points="214,-0.5 214,-29.5 "/>
<text text-anchor="middle" x="242.5" y="-11.3" font-family="Times,serif" font-size="14.00" fill="#0058ad">a 361 7</text>
<polyline fill="none" stroke="#0058ad" points="271,-0.5 271,-29.5 "/>
<text text-anchor="middle" x="308.5" y="-11.3" font-family="Times,serif" font-size="14.00" fill="#0058ad">r 363 [4 5]</text>
</g>
<!-- T5166&#45;&gt;T5259 -->
<g id="edge3" class="edge"><title>T5166:f0&#45;&gt;T5259:f0</title>
<path fill="none" stroke="#c000a5" d="M292,-96C280.53,-96 281.449,-85.7295 271,-81 183.624,-41.4518 62.155,-123.205 53.4911,-40.0608"/>
<polygon fill="#c000a5" stroke="#c000a5" points="56.9834,-39.8175 53,-30 49.9918,-40.1588 56.9834,-39.8175"/>
<text text-anchor="middle" x="68.5" y="-51.8" font-family="Times,serif" font-size="14.00" fill="#c000a5">wr</text>
</g>
<!-- T5259&#45;&gt;T5188 -->
<g id="edge4" class="edge"><title>T5259:f3&#45;&gt;T5188:f0</title>
<path fill="none" stroke="#5b00c0" d="M309,-30C309,-58.8067 282.359,-55.4784 269,-81 253.234,-111.119 245.565,-122.158 244.218,-151.708"/>
<polygon fill="#5b00c0" stroke="#5b00c0" points="240.712,-151.928 244,-162 247.711,-152.076 240.712,-151.928"/>
<text text-anchor="middle" x="276.5" y="-92.3" font-family="Times,serif" font-size="14.00" fill="#5b00c0">rw</text>
</g>
</g>
</svg>
