<?xml version="1.0" encoding="UTF-8" standalone="no"?>
<!DOCTYPE svg PUBLIC "-//W3C//DTD SVG 1.1//EN"
 "http://www.w3.org/Graphics/SVG/1.1/DTD/svg11.dtd">
<!-- Generated by graphviz version 2.38.0 (20140413.2041)
 -->
<!-- Title: a_graph Pages: 1 -->
<svg width="638pt" height="200pt"
 viewBox="0.00 0.00 637.50 200.00" xmlns="http://www.w3.org/2000/svg" xmlns:xlink="http://www.w3.org/1999/xlink">
<g id="graph0" class="graph" transform="scale(1 1) rotate(0) translate(4 196)">
<title>a_graph</title>
<polygon fill="white" stroke="none" points="-4,4 -4,-196 633.5,-196 633.5,4 -4,4"/>
<!-- T2859 -->
<g id="node1" class="node"><title>T2859</title>
<polygon fill="none" stroke="#0058ad" points="0,-162.5 0,-191.5 264,-191.5 264,-162.5 0,-162.5"/>
<text text-anchor="middle" x="28.5" y="-173.3" font-family="Times,serif" font-size="14.00" fill="#0058ad">a 193 2</text>
<polyline fill="none" stroke="#0058ad" points="57,-162.5 57,-191.5 "/>
<text text-anchor="middle" x="94.5" y="-173.3" font-family="Times,serif" font-size="14.00" fill="#0058ad">r 193 [1 2]</text>
<polyline fill="none" stroke="#0058ad" points="132,-162.5 132,-191.5 "/>
<text text-anchor="middle" x="169.5" y="-173.3" font-family="Times,serif" font-size="14.00" fill="#0058ad">r 197 [1 2]</text>
<polyline fill="none" stroke="#0058ad" points="207,-162.5 207,-191.5 "/>
<text text-anchor="middle" x="235.5" y="-173.3" font-family="Times,serif" font-size="14.00" fill="#0058ad">a 199 8</text>
</g>
<!-- T2905 -->
<g id="node3" class="node"><title>T2905</title>
<polygon fill="none" stroke="#0058ad" points="210.5,-81.5 210.5,-110.5 629.5,-110.5 629.5,-81.5 210.5,-81.5"/>
<text text-anchor="middle" x="264" y="-92.3" font-family="Times,serif" font-size="14.00" fill="#0058ad">r 198 [1 2 6 8 3]</text>
<polyline fill="none" stroke="#0058ad" points="317.5,-81.5 317.5,-110.5 "/>
<text text-anchor="middle" x="376" y="-92.3" font-family="Times,serif" font-size="14.00" fill="#0058ad">r 199 [1 2 3 4 6 8]</text>
<polyline fill="none" stroke="#0058ad" points="434.5,-81.5 434.5,-110.5 "/>
<text text-anchor="middle" x="463" y="-92.3" font-family="Times,serif" font-size="14.00" fill="#0058ad">a 200 1</text>
<polyline fill="none" stroke="#0058ad" points="491.5,-81.5 491.5,-110.5 "/>
<text text-anchor="middle" x="560.5" y="-92.3" font-family="Times,serif" font-size="14.00" fill="#0058ad">r 200 [2 4 3 7 8 5 6 1]</text>
</g>
<!-- T2859&#45;&gt;T2905 -->
<g id="edge1" class="edge"><title>T2859:f3&#45;&gt;T2905:f1</title>
<path fill="none" stroke="#c000a5" d="M265,-177C318.808,-177 369.285,-169.437 375.384,-121.2"/>
<polygon fill="#c000a5" stroke="#c000a5" points="378.891,-121.193 376,-111 371.903,-120.771 378.891,-121.193"/>
<text text-anchor="middle" x="380.5" y="-132.8" font-family="Times,serif" font-size="14.00" fill="#c000a5">wr</text>
</g>
<!-- T2877 -->
<g id="node2" class="node"><title>T2877</title>
<polygon fill="none" stroke="#0058ad" points="126,-0.5 126,-29.5 290,-29.5 290,-0.5 126,-0.5"/>
<text text-anchor="middle" x="179.5" y="-11.3" font-family="Times,serif" font-size="14.00" fill="#0058ad">r 199 [1 2 3 4 6]</text>
<polyline fill="none" stroke="#0058ad" points="233,-0.5 233,-29.5 "/>
<text text-anchor="middle" x="261.5" y="-11.3" font-family="Times,serif" font-size="14.00" fill="#0058ad">a 198 4</text>
</g>
<!-- T2877&#45;&gt;T2859 -->
<g id="edge2" class="edge"><title>T2877:f0&#45;&gt;T2859:f3</title>
<path fill="none" stroke="#5b00c0" d="M179,-30C179,-66.1752 171.856,-78.1471 187,-111 198.514,-135.978 227.394,-132.225 234.434,-151.955"/>
<polygon fill="#5b00c0" stroke="#5b00c0" points="231.002,-152.658 236,-162 237.918,-151.58 231.002,-152.658"/>
<text text-anchor="middle" x="194.5" y="-92.3" font-family="Times,serif" font-size="14.00" fill="#5b00c0">rw</text>
</g>
<!-- T2905&#45;&gt;T2877 -->
<g id="edge3" class="edge"><title>T2905:f0&#45;&gt;T2877:f1</title>
<path fill="none" stroke="#5b00c0" d="M264,-81C264,-62.2147 262.628,-55.1238 262.157,-40.3584"/>
<polygon fill="#5b00c0" stroke="#5b00c0" points="265.651,-39.9458 262,-30 258.652,-40.0519 265.651,-39.9458"/>
<text text-anchor="middle" x="270.5" y="-51.8" font-family="Times,serif" font-size="14.00" fill="#5b00c0">rw</text>
</g>
</g>
</svg>
