<?xml version="1.0" encoding="UTF-8" standalone="no"?>
<!DOCTYPE svg PUBLIC "-//W3C//DTD SVG 1.1//EN"
 "http://www.w3.org/Graphics/SVG/1.1/DTD/svg11.dtd">
<!-- Generated by graphviz version 2.38.0 (20140413.2041)
 -->
<!-- Title: a_graph Pages: 1 -->
<svg width="400pt" height="200pt"
 viewBox="0.00 0.00 400.00 200.00" xmlns="http://www.w3.org/2000/svg" xmlns:xlink="http://www.w3.org/1999/xlink">
<g id="graph0" class="graph" transform="scale(1 1) rotate(0) translate(4 196)">
<title>a_graph</title>
<polygon fill="white" stroke="none" points="-4,4 -4,-196 396,-196 396,4 -4,4"/>
<!-- T10301 -->
<g id="node1" class="node"><title>T10301</title>
<polygon fill="none" stroke="#0058ad" points="96,-162.5 96,-191.5 392,-191.5 392,-162.5 96,-162.5"/>
<text text-anchor="middle" x="128.5" y="-173.3" font-family="Times,serif" font-size="14.00" fill="#0058ad">r 717 [2]</text>
<polyline fill="none" stroke="#0058ad" points="161,-162.5 161,-191.5 "/>
<text text-anchor="middle" x="189.5" y="-173.3" font-family="Times,serif" font-size="14.00" fill="#0058ad">a 716 7</text>
<polyline fill="none" stroke="#0058ad" points="218,-162.5 218,-191.5 "/>
<text text-anchor="middle" x="246.5" y="-173.3" font-family="Times,serif" font-size="14.00" fill="#0058ad">a 716 8</text>
<polyline fill="none" stroke="#0058ad" points="275,-162.5 275,-191.5 "/>
<text text-anchor="middle" x="333.5" y="-173.3" font-family="Times,serif" font-size="14.00" fill="#0058ad">r 716 [1 2 3 4 7 8]</text>
</g>
<!-- T10307 -->
<g id="node3" class="node"><title>T10307</title>
<polygon fill="none" stroke="#0058ad" points="0,-81.5 0,-110.5 246,-110.5 246,-81.5 0,-81.5"/>
<text text-anchor="middle" x="28.5" y="-92.3" font-family="Times,serif" font-size="14.00" fill="#0058ad">a 717 3</text>
<polyline fill="none" stroke="#0058ad" points="57,-81.5 57,-110.5 "/>
<text text-anchor="middle" x="85.5" y="-92.3" font-family="Times,serif" font-size="14.00" fill="#0058ad">a 714 3</text>
<polyline fill="none" stroke="#0058ad" points="114,-81.5 114,-110.5 "/>
<text text-anchor="middle" x="151.5" y="-92.3" font-family="Times,serif" font-size="14.00" fill="#0058ad">r 716 [1 2]</text>
<polyline fill="none" stroke="#0058ad" points="189,-81.5 189,-110.5 "/>
<text text-anchor="middle" x="217.5" y="-92.3" font-family="Times,serif" font-size="14.00" fill="#0058ad">a 711 5</text>
</g>
<!-- T10301&#45;&gt;T10307 -->
<g id="edge1" class="edge"><title>T10301:f0&#45;&gt;T10307:f0</title>
<path fill="none" stroke="#5b00c0" d="M95,-177C56.7931,-177 32.454,-156.78 28.5529,-121.382"/>
<polygon fill="#5b00c0" stroke="#5b00c0" points="32.0269,-120.8 28,-111 25.0368,-121.172 32.0269,-120.8"/>
<text text-anchor="middle" x="42.5" y="-132.8" font-family="Times,serif" font-size="14.00" fill="#5b00c0">rw</text>
</g>
<!-- T10289 -->
<g id="node2" class="node"><title>T10289</title>
<polygon fill="none" stroke="#0058ad" points="113,-0.5 113,-29.5 323,-29.5 323,-0.5 113,-0.5"/>
<text text-anchor="middle" x="141.5" y="-11.3" font-family="Times,serif" font-size="14.00" fill="#0058ad">a 716 3</text>
<polyline fill="none" stroke="#0058ad" points="170,-0.5 170,-29.5 "/>
<text text-anchor="middle" x="218" y="-11.3" font-family="Times,serif" font-size="14.00" fill="#0058ad">r 711 [2 3 1 4]</text>
<polyline fill="none" stroke="#0058ad" points="266,-0.5 266,-29.5 "/>
<text text-anchor="middle" x="294.5" y="-11.3" font-family="Times,serif" font-size="14.00" fill="#0058ad">a 716 4</text>
</g>
<!-- T10289&#45;&gt;T10301 -->
<g id="edge3" class="edge"><title>T10289:f2&#45;&gt;T10301:f1</title>
<path fill="none" stroke="#c02700" d="M295,-30C295,-70.1503 280.427,-79.9272 255,-111 234,-136.663 197.758,-127.56 190.347,-151.889"/>
<polygon fill="#c02700" stroke="#c02700" points="186.851,-151.625 189,-162 193.79,-152.55 186.851,-151.625"/>
<text text-anchor="middle" x="289" y="-92.3" font-family="Times,serif" font-size="14.00" fill="#c02700">ww</text>
</g>
<!-- T10289&#45;&gt;T10307 -->
<g id="edge2" class="edge"><title>T10289:f1&#45;&gt;T10307:f3</title>
<path fill="none" stroke="#5b00c0" d="M218,-30C218,-48.7708 218,-55.8832 218,-70.6465"/>
<polygon fill="#5b00c0" stroke="#5b00c0" points="214.5,-71 218,-81 221.5,-71 214.5,-71"/>
<text text-anchor="middle" x="225.5" y="-51.8" font-family="Times,serif" font-size="14.00" fill="#5b00c0">rw</text>
</g>
<!-- T10307&#45;&gt;T10289 -->
<g id="edge4" class="edge"><title>T10307:f2&#45;&gt;T10289:f0</title>
<path fill="none" stroke="#5b00c0" d="M152,-81C152,-61.6164 144.313,-55.2049 141.791,-40.0777"/>
<polygon fill="#5b00c0" stroke="#5b00c0" points="145.272,-39.6954 141,-30 138.293,-40.2433 145.272,-39.6954"/>
<text text-anchor="middle" x="157.5" y="-51.8" font-family="Times,serif" font-size="14.00" fill="#5b00c0">rw</text>
</g>
</g>
</svg>
