<?xml version="1.0" encoding="UTF-8" standalone="no"?>
<!DOCTYPE svg PUBLIC "-//W3C//DTD SVG 1.1//EN"
 "http://www.w3.org/Graphics/SVG/1.1/DTD/svg11.dtd">
<!-- Generated by graphviz version 2.38.0 (20140413.2041)
 -->
<!-- Title: a_graph Pages: 1 -->
<svg width="260pt" height="200pt"
 viewBox="0.00 0.00 259.50 200.00" xmlns="http://www.w3.org/2000/svg" xmlns:xlink="http://www.w3.org/1999/xlink">
<g id="graph0" class="graph" transform="scale(1 1) rotate(0) translate(4 196)">
<title>a_graph</title>
<polygon fill="white" stroke="none" points="-4,4 -4,-196 255.5,-196 255.5,4 -4,4"/>
<!-- T4245 -->
<g id="node1" class="node"><title>T4245</title>
<polygon fill="none" stroke="#0058ad" points="71,-162.5 71,-191.5 224,-191.5 224,-162.5 71,-162.5"/>
<text text-anchor="middle" x="119" y="-173.3" font-family="Times,serif" font-size="14.00" fill="#0058ad">r 293 [2 1 4 5]</text>
<polyline fill="none" stroke="#0058ad" points="167,-162.5 167,-191.5 "/>
<text text-anchor="middle" x="195.5" y="-173.3" font-family="Times,serif" font-size="14.00" fill="#0058ad">a 296 6</text>
</g>
<!-- T4239 -->
<g id="node3" class="node"><title>T4239</title>
<polygon fill="none" stroke="#0058ad" points="0,-81.5 0,-110.5 189,-110.5 189,-81.5 0,-81.5"/>
<text text-anchor="middle" x="28.5" y="-92.3" font-family="Times,serif" font-size="14.00" fill="#0058ad">a 293 6</text>
<polyline fill="none" stroke="#0058ad" points="57,-81.5 57,-110.5 "/>
<text text-anchor="middle" x="94.5" y="-92.3" font-family="Times,serif" font-size="14.00" fill="#0058ad">r 295 [1 2]</text>
<polyline fill="none" stroke="#0058ad" points="132,-81.5 132,-110.5 "/>
<text text-anchor="middle" x="160.5" y="-92.3" font-family="Times,serif" font-size="14.00" fill="#0058ad">a 293 7</text>
</g>
<!-- T4245&#45;&gt;T4239 -->
<g id="edge1" class="edge"><title>T4245:f0&#45;&gt;T4239:f0</title>
<path fill="none" stroke="#5b00c0" d="M118.5,-162C118.5,-119.975 43.3041,-150.579 30.3798,-121.038"/>
<polygon fill="#5b00c0" stroke="#5b00c0" points="33.781,-120.185 28.5,-111 26.9006,-121.473 33.781,-120.185"/>
<text text-anchor="middle" x="117" y="-132.8" font-family="Times,serif" font-size="14.00" fill="#5b00c0">rw</text>
</g>
<!-- T4247 -->
<g id="node2" class="node"><title>T4247</title>
<polygon fill="none" stroke="#0058ad" points="15.5,-0.5 15.5,-29.5 251.5,-29.5 251.5,-0.5 15.5,-0.5"/>
<text text-anchor="middle" x="44" y="-11.3" font-family="Times,serif" font-size="14.00" fill="#0058ad">a 296 2</text>
<polyline fill="none" stroke="#0058ad" points="72.5,-0.5 72.5,-29.5 "/>
<text text-anchor="middle" x="101" y="-11.3" font-family="Times,serif" font-size="14.00" fill="#0058ad">a 295 5</text>
<polyline fill="none" stroke="#0058ad" points="129.5,-0.5 129.5,-29.5 "/>
<text text-anchor="middle" x="162" y="-11.3" font-family="Times,serif" font-size="14.00" fill="#0058ad">r 296 [2]</text>
<polyline fill="none" stroke="#0058ad" points="194.5,-0.5 194.5,-29.5 "/>
<text text-anchor="middle" x="223" y="-11.3" font-family="Times,serif" font-size="14.00" fill="#0058ad">a 296 3</text>
</g>
<!-- T4247&#45;&gt;T4245 -->
<g id="edge2" class="edge"><title>T4247:f3&#45;&gt;T4245:f1</title>
<path fill="none" stroke="#c02700" d="M223.5,-30C223.5,-86.458 198.685,-100.451 195.777,-151.932"/>
<polygon fill="#c02700" stroke="#c02700" points="192.277,-151.907 195.5,-162 199.274,-152.1 192.277,-151.907"/>
<text text-anchor="middle" x="225.5" y="-92.3" font-family="Times,serif" font-size="14.00" fill="#c02700">ww</text>
</g>
<!-- T4239&#45;&gt;T4247 -->
<g id="edge3" class="edge"><title>T4239:f1&#45;&gt;T4247:f1</title>
<path fill="none" stroke="#5b00c0" d="M94.5,-81C94.5,-62.0997 98.6147,-55.1795 100.029,-40.3973"/>
<polygon fill="#5b00c0" stroke="#5b00c0" points="103.544,-40.1481 100.5,-30 96.5511,-39.8314 103.544,-40.1481"/>
<text text-anchor="middle" x="107" y="-51.8" font-family="Times,serif" font-size="14.00" fill="#5b00c0">rw</text>
</g>
</g>
</svg>
