<?xml version="1.0" encoding="UTF-8" standalone="no"?>
<!DOCTYPE svg PUBLIC "-//W3C//DTD SVG 1.1//EN"
 "http://www.w3.org/Graphics/SVG/1.1/DTD/svg11.dtd">
<!-- Generated by graphviz version 2.38.0 (20140413.2041)
 -->
<!-- Title: a_graph Pages: 1 -->
<svg width="491pt" height="362pt"
 viewBox="0.00 0.00 491.00 362.00" xmlns="http://www.w3.org/2000/svg" xmlns:xlink="http://www.w3.org/1999/xlink">
<g id="graph0" class="graph" transform="scale(1 1) rotate(0) translate(4 358)">
<title>a_graph</title>
<polygon fill="white" stroke="none" points="-4,4 -4,-358 487,-358 487,4 -4,4"/>
<!-- T7044 -->
<g id="node1" class="node"><title>T7044</title>
<polygon fill="none" stroke="#0058ad" points="171.5,-324.5 171.5,-353.5 381.5,-353.5 381.5,-324.5 171.5,-324.5"/>
<text text-anchor="middle" x="200" y="-335.3" font-family="Times,serif" font-size="14.00" fill="#0058ad">a 488 8</text>
<polyline fill="none" stroke="#0058ad" points="228.5,-324.5 228.5,-353.5 "/>
<text text-anchor="middle" x="276.5" y="-335.3" font-family="Times,serif" font-size="14.00" fill="#0058ad">r 483 [1 2 4 3]</text>
<polyline fill="none" stroke="#0058ad" points="324.5,-324.5 324.5,-353.5 "/>
<text text-anchor="middle" x="353" y="-335.3" font-family="Times,serif" font-size="14.00" fill="#0058ad">a 490 1</text>
</g>
<!-- T7015 -->
<g id="node5" class="node"><title>T7015</title>
<polygon fill="none" stroke="#0058ad" points="111.5,-243.5 111.5,-272.5 349.5,-272.5 349.5,-243.5 111.5,-243.5"/>
<text text-anchor="middle" x="144" y="-254.3" font-family="Times,serif" font-size="14.00" fill="#0058ad">r 491 [3]</text>
<polyline fill="none" stroke="#0058ad" points="176.5,-243.5 176.5,-272.5 "/>
<text text-anchor="middle" x="205" y="-254.3" font-family="Times,serif" font-size="14.00" fill="#0058ad">a 483 6</text>
<polyline fill="none" stroke="#0058ad" points="233.5,-243.5 233.5,-272.5 "/>
<text text-anchor="middle" x="262.5" y="-254.3" font-family="Times,serif" font-size="14.00" fill="#0058ad">r 492 []</text>
<polyline fill="none" stroke="#0058ad" points="291.5,-243.5 291.5,-272.5 "/>
<text text-anchor="middle" x="320.5" y="-254.3" font-family="Times,serif" font-size="14.00" fill="#0058ad">r 492 []</text>
</g>
<!-- T7044&#45;&gt;T7015 -->
<g id="edge1" class="edge"><title>T7044:f1&#45;&gt;T7015:f1</title>
<path fill="none" stroke="#5b00c0" d="M276.5,-324C276.5,-288.768 218.382,-307.33 206.577,-283.026"/>
<polygon fill="#5b00c0" stroke="#5b00c0" points="209.956,-282.082 204.5,-273 203.102,-283.502 209.956,-282.082"/>
<text text-anchor="middle" x="274" y="-294.8" font-family="Times,serif" font-size="14.00" fill="#5b00c0">rw</text>
</g>
<!-- T7051 -->
<g id="node2" class="node"><title>T7051</title>
<polygon fill="none" stroke="#0058ad" points="57,-81.5 57,-110.5 312,-110.5 312,-81.5 57,-81.5"/>
<text text-anchor="middle" x="89.5" y="-92.3" font-family="Times,serif" font-size="14.00" fill="#0058ad">r 492 [1]</text>
<polyline fill="none" stroke="#0058ad" points="122,-81.5 122,-110.5 "/>
<text text-anchor="middle" x="159.5" y="-92.3" font-family="Times,serif" font-size="14.00" fill="#0058ad">r 486 [1 2]</text>
<polyline fill="none" stroke="#0058ad" points="197,-81.5 197,-110.5 "/>
<text text-anchor="middle" x="226" y="-92.3" font-family="Times,serif" font-size="14.00" fill="#0058ad">r 493 []</text>
<polyline fill="none" stroke="#0058ad" points="255,-81.5 255,-110.5 "/>
<text text-anchor="middle" x="283.5" y="-92.3" font-family="Times,serif" font-size="14.00" fill="#0058ad">a 494 1</text>
</g>
<!-- T7025 -->
<g id="node4" class="node"><title>T7025</title>
<polygon fill="none" stroke="#0058ad" points="0,-0.5 0,-29.5 173,-29.5 173,-0.5 0,-0.5"/>
<text text-anchor="middle" x="29" y="-11.3" font-family="Times,serif" font-size="14.00" fill="#0058ad">r 492 []</text>
<polyline fill="none" stroke="#0058ad" points="58,-0.5 58,-29.5 "/>
<text text-anchor="middle" x="87" y="-11.3" font-family="Times,serif" font-size="14.00" fill="#0058ad">r 492 []</text>
<polyline fill="none" stroke="#0058ad" points="116,-0.5 116,-29.5 "/>
<text text-anchor="middle" x="144.5" y="-11.3" font-family="Times,serif" font-size="14.00" fill="#0058ad">a 486 5</text>
</g>
<!-- T7051&#45;&gt;T7025 -->
<g id="edge2" class="edge"><title>T7051:f1&#45;&gt;T7025:f2</title>
<path fill="none" stroke="#5b00c0" d="M159.5,-81C159.5,-61.2495 149.018,-55.3912 145.579,-40.199"/>
<polygon fill="#5b00c0" stroke="#5b00c0" points="149.033,-39.5764 144.5,-30 142.071,-40.3127 149.033,-39.5764"/>
<text text-anchor="middle" x="163" y="-51.8" font-family="Times,serif" font-size="14.00" fill="#5b00c0">rw</text>
</g>
<!-- T7019 -->
<g id="node3" class="node"><title>T7019</title>
<polygon fill="none" stroke="#0058ad" points="330,-81.5 330,-110.5 483,-110.5 483,-81.5 330,-81.5"/>
<text text-anchor="middle" x="378" y="-92.3" font-family="Times,serif" font-size="14.00" fill="#0058ad">r 490 [2 7 5 4]</text>
<polyline fill="none" stroke="#0058ad" points="426,-81.5 426,-110.5 "/>
<text text-anchor="middle" x="454.5" y="-92.3" font-family="Times,serif" font-size="14.00" fill="#0058ad">a 491 2</text>
</g>
<!-- T7019&#45;&gt;T7044 -->
<g id="edge3" class="edge"><title>T7019:f0&#45;&gt;T7044:f2</title>
<path fill="none" stroke="#5b00c0" d="M377.5,-111C377.5,-132.584 357.789,-270.421 354.093,-313.803"/>
<polygon fill="#5b00c0" stroke="#5b00c0" points="350.587,-313.814 353.5,-324 357.575,-314.22 350.587,-313.814"/>
<text text-anchor="middle" x="373" y="-213.8" font-family="Times,serif" font-size="14.00" fill="#5b00c0">rw</text>
</g>
<!-- T7041 -->
<g id="node6" class="node"><title>T7041</title>
<polygon fill="none" stroke="#0058ad" points="126,-162.5 126,-191.5 305,-191.5 305,-162.5 126,-162.5"/>
<text text-anchor="middle" x="154.5" y="-173.3" font-family="Times,serif" font-size="14.00" fill="#0058ad">a 492 1</text>
<polyline fill="none" stroke="#0058ad" points="183,-162.5 183,-191.5 "/>
<text text-anchor="middle" x="211.5" y="-173.3" font-family="Times,serif" font-size="14.00" fill="#0058ad">a 475 2</text>
<polyline fill="none" stroke="#0058ad" points="240,-162.5 240,-191.5 "/>
<text text-anchor="middle" x="272.5" y="-173.3" font-family="Times,serif" font-size="14.00" fill="#0058ad">r 491 [3]</text>
</g>
<!-- T7025&#45;&gt;T7041 -->
<g id="edge4" class="edge"><title>T7025:f0&#45;&gt;T7041:f0</title>
<path fill="none" stroke="#5b00c0" d="M28.5,-30C28.5,-66.0439 15.2539,-79.3499 32.5,-111 54.8851,-152.081 71.6706,-173.822 114.357,-176.676"/>
<polygon fill="#5b00c0" stroke="#5b00c0" points="114.393,-180.179 124.5,-177 114.617,-173.183 114.393,-180.179"/>
<text text-anchor="middle" x="40" y="-92.3" font-family="Times,serif" font-size="14.00" fill="#5b00c0">rw</text>
</g>
<!-- T7015&#45;&gt;T7019 -->
<g id="edge6" class="edge"><title>T7015:f0&#45;&gt;T7019:f1</title>
<path fill="none" stroke="#5b00c0" d="M143.5,-243C143.5,-214.818 373.013,-240.576 396.5,-225 440.915,-195.545 453.028,-171.086 454.369,-121.303"/>
<polygon fill="#5b00c0" stroke="#5b00c0" points="457.873,-121.044 454.5,-111 450.873,-120.955 457.873,-121.044"/>
<text text-anchor="middle" x="456" y="-173.3" font-family="Times,serif" font-size="14.00" fill="#5b00c0">rw</text>
</g>
<!-- T7015&#45;&gt;T7041 -->
<g id="edge5" class="edge"><title>T7015:f2&#45;&gt;T7041:f0</title>
<path fill="none" stroke="#5b00c0" d="M262.5,-243C262.5,-193.857 169.936,-237.49 156.196,-202.119"/>
<polygon fill="#5b00c0" stroke="#5b00c0" points="159.605,-201.284 154.5,-192 152.702,-202.441 159.605,-201.284"/>
<text text-anchor="middle" x="263" y="-213.8" font-family="Times,serif" font-size="14.00" fill="#5b00c0">rw</text>
</g>
<!-- T7041&#45;&gt;T7051 -->
<g id="edge7" class="edge"><title>T7041:f0&#45;&gt;T7051:f0</title>
<path fill="none" stroke="#c000a5" d="M154.5,-162C154.5,-129.296 102.941,-143.519 91.6627,-121.08"/>
<polygon fill="#c000a5" stroke="#c000a5" points="95.0199,-120.043 89.5,-111 88.1756,-121.512 95.0199,-120.043"/>
<text text-anchor="middle" x="152" y="-132.8" font-family="Times,serif" font-size="14.00" fill="#c000a5">wr</text>
</g>
<!-- T7041&#45;&gt;T7019 -->
<g id="edge8" class="edge"><title>T7041:f2&#45;&gt;T7019:f1</title>
<path fill="none" stroke="#5b00c0" d="M306.5,-177C310.333,-177 414.961,-132.404 445.939,-116.385"/>
<polygon fill="#5b00c0" stroke="#5b00c0" points="447.898,-119.287 454.5,-111 444.172,-113.361 447.898,-119.287"/>
<text text-anchor="middle" x="423" y="-132.8" font-family="Times,serif" font-size="14.00" fill="#5b00c0">rw</text>
</g>
</g>
</svg>
