<?xml version="1.0" encoding="UTF-8" standalone="no"?>
<!DOCTYPE svg PUBLIC "-//W3C//DTD SVG 1.1//EN"
 "http://www.w3.org/Graphics/SVG/1.1/DTD/svg11.dtd">
<!-- Generated by graphviz version 2.38.0 (20140413.2041)
 -->
<!-- Title: a_graph Pages: 1 -->
<svg width="269pt" height="119pt"
 viewBox="0.00 0.00 269.00 119.00" xmlns="http://www.w3.org/2000/svg" xmlns:xlink="http://www.w3.org/1999/xlink">
<g id="graph0" class="graph" transform="scale(1 1) rotate(0) translate(4 115)">
<title>a_graph</title>
<polygon fill="white" stroke="none" points="-4,4 -4,-115 265,-115 265,4 -4,4"/>
<!-- T6130 -->
<g id="node1" class="node"><title>T6130</title>
<polygon fill="none" stroke="#0058ad" points="0,-81.5 0,-110.5 218,-110.5 218,-81.5 0,-81.5"/>
<text text-anchor="middle" x="28.5" y="-92.3" font-family="Times,serif" font-size="14.00" fill="#0058ad">a 420 4</text>
<polyline fill="none" stroke="#0058ad" points="57,-81.5 57,-110.5 "/>
<text text-anchor="middle" x="105" y="-92.3" font-family="Times,serif" font-size="14.00" fill="#0058ad">r 420 [1 2 3 4]</text>
<polyline fill="none" stroke="#0058ad" points="153,-81.5 153,-110.5 "/>
<text text-anchor="middle" x="185.5" y="-92.3" font-family="Times,serif" font-size="14.00" fill="#0058ad">r 428 [2]</text>
</g>
<!-- T6129 -->
<g id="node2" class="node"><title>T6129</title>
<polygon fill="none" stroke="#0058ad" points="43,-0.5 43,-29.5 261,-29.5 261,-0.5 43,-0.5"/>
<text text-anchor="middle" x="71.5" y="-11.3" font-family="Times,serif" font-size="14.00" fill="#0058ad">a 428 3</text>
<polyline fill="none" stroke="#0058ad" points="100,-0.5 100,-29.5 "/>
<text text-anchor="middle" x="143" y="-11.3" font-family="Times,serif" font-size="14.00" fill="#0058ad">r 420 [1 2 3]</text>
<polyline fill="none" stroke="#0058ad" points="186,-0.5 186,-29.5 "/>
<text text-anchor="middle" x="223.5" y="-11.3" font-family="Times,serif" font-size="14.00" fill="#0058ad">r 428 [2 3]</text>
</g>
<!-- T6130&#45;&gt;T6129 -->
<g id="edge1" class="edge"><title>T6130:f2&#45;&gt;T6129:f0</title>
<path fill="none" stroke="#5b00c0" d="M186,-81C186,-29.0195 86.6033,-77.9356 72.6257,-40.1437"/>
<polygon fill="#5b00c0" stroke="#5b00c0" points="76.0384,-39.3201 71,-30 69.1266,-40.4279 76.0384,-39.3201"/>
<text text-anchor="middle" x="185.5" y="-51.8" font-family="Times,serif" font-size="14.00" fill="#5b00c0">rw</text>
</g>
<!-- T6129&#45;&gt;T6130 -->
<g id="edge2" class="edge"><title>T6129:f1&#45;&gt;T6130:f0</title>
<path fill="none" stroke="#5b00c0" d="M143,-30C143,-68.1809 92.2498,-29.2323 59,-48 44.8985,-55.9595 33.4184,-59.4473 29.4719,-70.9912"/>
<polygon fill="#5b00c0" stroke="#5b00c0" points="25.9923,-70.5971 28,-81 32.9178,-71.6157 25.9923,-70.5971"/>
<text text-anchor="middle" x="66.5" y="-51.8" font-family="Times,serif" font-size="14.00" fill="#5b00c0">rw</text>
</g>
</g>
</svg>
