<?xml version="1.0" encoding="UTF-8" standalone="no"?>
<!DOCTYPE svg PUBLIC "-//W3C//DTD SVG 1.1//EN"
 "http://www.w3.org/Graphics/SVG/1.1/DTD/svg11.dtd">
<!-- Generated by graphviz version 2.38.0 (20140413.2041)
 -->
<!-- Title: a_graph Pages: 1 -->
<svg width="398pt" height="605pt"
 viewBox="0.00 0.00 398.00 605.00" xmlns="http://www.w3.org/2000/svg" xmlns:xlink="http://www.w3.org/1999/xlink">
<g id="graph0" class="graph" transform="scale(1 1) rotate(0) translate(4 601)">
<title>a_graph</title>
<polygon fill="white" stroke="none" points="-4,4 -4,-601 394,-601 394,4 -4,4"/>
<!-- T2381 -->
<g id="node1" class="node"><title>T2381</title>
<polygon fill="none" stroke="#0058ad" points="0,-567.5 0,-596.5 246,-596.5 246,-567.5 0,-567.5"/>
<text text-anchor="middle" x="28.5" y="-578.3" font-family="Times,serif" font-size="14.00" fill="#0058ad">a 163 1</text>
<polyline fill="none" stroke="#0058ad" points="57,-567.5 57,-596.5 "/>
<text text-anchor="middle" x="85.5" y="-578.3" font-family="Times,serif" font-size="14.00" fill="#0058ad">a 162 3</text>
<polyline fill="none" stroke="#0058ad" points="114,-567.5 114,-596.5 "/>
<text text-anchor="middle" x="142.5" y="-578.3" font-family="Times,serif" font-size="14.00" fill="#0058ad">a 162 4</text>
<polyline fill="none" stroke="#0058ad" points="171,-567.5 171,-596.5 "/>
<text text-anchor="middle" x="208.5" y="-578.3" font-family="Times,serif" font-size="14.00" fill="#0058ad">r 160 [1 2]</text>
</g>
<!-- T2377 -->
<g id="node3" class="node"><title>T2377</title>
<polygon fill="none" stroke="#0058ad" points="42,-486.5 42,-515.5 390,-515.5 390,-486.5 42,-486.5"/>
<text text-anchor="middle" x="70.5" y="-497.3" font-family="Times,serif" font-size="14.00" fill="#0058ad">a 161 2</text>
<polyline fill="none" stroke="#0058ad" points="99,-486.5 99,-515.5 "/>
<text text-anchor="middle" x="147" y="-497.3" font-family="Times,serif" font-size="14.00" fill="#0058ad">r 159 [1 4 5 2]</text>
<polyline fill="none" stroke="#0058ad" points="195,-486.5 195,-515.5 "/>
<text text-anchor="middle" x="223.5" y="-497.3" font-family="Times,serif" font-size="14.00" fill="#0058ad">a 160 4</text>
<polyline fill="none" stroke="#0058ad" points="252,-486.5 252,-515.5 "/>
<text text-anchor="middle" x="321" y="-497.3" font-family="Times,serif" font-size="14.00" fill="#0058ad">r 149 [3 1 2 4 6 5 7 8]</text>
</g>
<!-- T2381&#45;&gt;T2377 -->
<g id="edge1" class="edge"><title>T2381:f3&#45;&gt;T2377:f2</title>
<path fill="none" stroke="#5b00c0" d="M209,-567C209,-547.25 219.482,-541.391 222.921,-526.199"/>
<polygon fill="#5b00c0" stroke="#5b00c0" points="226.429,-526.313 224,-516 219.467,-525.576 226.429,-526.313"/>
<text text-anchor="middle" x="227.5" y="-537.8" font-family="Times,serif" font-size="14.00" fill="#5b00c0">rw</text>
</g>
<!-- T2321 -->
<g id="node2" class="node"><title>T2321</title>
<polygon fill="none" stroke="#0058ad" points="183.5,-243.5 183.5,-272.5 248.5,-272.5 248.5,-243.5 183.5,-243.5"/>
<text text-anchor="middle" x="216" y="-254.3" font-family="Times,serif" font-size="14.00" fill="#0058ad">r 164 [1]</text>
</g>
<!-- T2339 -->
<g id="node4" class="node"><title>T2339</title>
<polygon fill="none" stroke="#0058ad" points="116,-162.5 116,-191.5 238,-191.5 238,-162.5 116,-162.5"/>
<text text-anchor="middle" x="148.5" y="-173.3" font-family="Times,serif" font-size="14.00" fill="#0058ad">r 163 [2]</text>
<polyline fill="none" stroke="#0058ad" points="181,-162.5 181,-191.5 "/>
<text text-anchor="middle" x="209.5" y="-173.3" font-family="Times,serif" font-size="14.00" fill="#0058ad">a 164 2</text>
</g>
<!-- T2321&#45;&gt;T2339 -->
<g id="edge2" class="edge"><title>T2321:f0&#45;&gt;T2339:f1</title>
<path fill="none" stroke="#5b00c0" d="M213.901,-243.355C212.496,-232.507 210.799,-217.082 210.212,-202.175"/>
<polygon fill="#5b00c0" stroke="#5b00c0" points="213.707,-201.925 210,-192 206.709,-202.071 213.707,-201.925"/>
<text text-anchor="middle" x="219.5" y="-213.8" font-family="Times,serif" font-size="14.00" fill="#5b00c0">rw</text>
</g>
<!-- T2329 -->
<g id="node8" class="node"><title>T2329</title>
<polygon fill="none" stroke="#0058ad" points="42,-405.5 42,-434.5 252,-434.5 252,-405.5 42,-405.5"/>
<text text-anchor="middle" x="70.5" y="-416.3" font-family="Times,serif" font-size="14.00" fill="#0058ad">a 159 7</text>
<polyline fill="none" stroke="#0058ad" points="99,-405.5 99,-434.5 "/>
<text text-anchor="middle" x="127.5" y="-416.3" font-family="Times,serif" font-size="14.00" fill="#0058ad">a 159 8</text>
<polyline fill="none" stroke="#0058ad" points="156,-405.5 156,-434.5 "/>
<text text-anchor="middle" x="204" y="-416.3" font-family="Times,serif" font-size="14.00" fill="#0058ad">r 152 [2 1 3 5]</text>
</g>
<!-- T2377&#45;&gt;T2329 -->
<g id="edge3" class="edge"><title>T2377:f1&#45;&gt;T2329:f0</title>
<path fill="none" stroke="#5b00c0" d="M147,-486C147,-448.961 84.3047,-470.663 72.0596,-445.096"/>
<polygon fill="#5b00c0" stroke="#5b00c0" points="75.4282,-444.099 70,-435 68.5695,-445.498 75.4282,-444.099"/>
<text text-anchor="middle" x="145.5" y="-456.8" font-family="Times,serif" font-size="14.00" fill="#5b00c0">rw</text>
</g>
<!-- T2351 -->
<g id="node5" class="node"><title>T2351</title>
<polygon fill="none" stroke="#0058ad" points="55,-81.5 55,-110.5 317,-110.5 317,-81.5 55,-81.5"/>
<text text-anchor="middle" x="87.5" y="-92.3" font-family="Times,serif" font-size="14.00" fill="#0058ad">r 164 [1]</text>
<polyline fill="none" stroke="#0058ad" points="120,-81.5 120,-110.5 "/>
<text text-anchor="middle" x="152.5" y="-92.3" font-family="Times,serif" font-size="14.00" fill="#0058ad">r 163 [2]</text>
<polyline fill="none" stroke="#0058ad" points="185,-81.5 185,-110.5 "/>
<text text-anchor="middle" x="213.5" y="-92.3" font-family="Times,serif" font-size="14.00" fill="#0058ad">a 163 5</text>
<polyline fill="none" stroke="#0058ad" points="242,-81.5 242,-110.5 "/>
<text text-anchor="middle" x="279.5" y="-92.3" font-family="Times,serif" font-size="14.00" fill="#0058ad">r 160 [1 2]</text>
</g>
<!-- T2339&#45;&gt;T2351 -->
<g id="edge4" class="edge"><title>T2339:f0&#45;&gt;T2351:f2</title>
<path fill="none" stroke="#5b00c0" d="M148,-162C148,-146.236 149.59,-139.877 161,-129 175.63,-115.054 201.475,-128.31 210.652,-120.428"/>
<polygon fill="#5b00c0" stroke="#5b00c0" points="213.952,-121.595 214,-111 207.355,-119.252 213.952,-121.595"/>
<text text-anchor="middle" x="168.5" y="-132.8" font-family="Times,serif" font-size="14.00" fill="#5b00c0">rw</text>
</g>
<!-- T2351&#45;&gt;T2377 -->
<g id="edge6" class="edge"><title>T2351:f3&#45;&gt;T2377:f2</title>
<path fill="none" stroke="#5b00c0" d="M280,-111C280,-139.889 280,-147.111 280,-176 280,-421 280,-421 280,-421 280,-455.259 234.797,-449.647 225.616,-475.807"/>
<polygon fill="#5b00c0" stroke="#5b00c0" points="222.109,-475.575 224,-486 229.022,-476.671 222.109,-475.575"/>
<text text-anchor="middle" x="287.5" y="-294.8" font-family="Times,serif" font-size="14.00" fill="#5b00c0">rw</text>
</g>
<!-- T2351&#45;&gt;T2339 -->
<g id="edge5" class="edge"><title>T2351:f0&#45;&gt;T2339:f1</title>
<path fill="none" stroke="#5b00c0" d="M87,-111C87,-131.178 158.149,-119.592 176,-129 191.137,-136.977 204.122,-139.875 208.459,-151.976"/>
<polygon fill="#5b00c0" stroke="#5b00c0" points="205.021,-152.648 210,-162 211.94,-151.584 205.021,-152.648"/>
<text text-anchor="middle" x="210.5" y="-132.8" font-family="Times,serif" font-size="14.00" fill="#5b00c0">rw</text>
</g>
<!-- T2349 -->
<g id="node6" class="node"><title>T2349</title>
<polygon fill="none" stroke="#0058ad" points="43.5,-0.5 43.5,-29.5 100.5,-29.5 100.5,-0.5 43.5,-0.5"/>
<text text-anchor="middle" x="72" y="-11.3" font-family="Times,serif" font-size="14.00" fill="#0058ad">a 163 6</text>
</g>
<!-- T2351&#45;&gt;T2349 -->
<g id="edge7" class="edge"><title>T2351:f2&#45;&gt;T2349:f0</title>
<path fill="none" stroke="#c02700" d="M214,-81C214,-28.8549 157.364,-51.2571 108.449,-33.5191"/>
<polygon fill="#c02700" stroke="#c02700" points="109.678,-30.2386 99.1047,-29.5586 106.946,-36.6836 109.678,-30.2386"/>
<text text-anchor="middle" x="221" y="-51.8" font-family="Times,serif" font-size="14.00" fill="#c02700">ww</text>
</g>
<!-- T2349&#45;&gt;T2381 -->
<g id="edge8" class="edge"><title>T2349:f0&#45;&gt;T2381:f0</title>
<path fill="none" stroke="#c02700" d="M52.6868,-29.5551C35.8146,-44.0796 14,-68.0666 14,-95 14,-502 14,-502 14,-502 14,-527.857 24.7188,-535.605 27.3984,-556.935"/>
<polygon fill="#c02700" stroke="#c02700" points="23.9096,-557.227 28,-567 30.8971,-556.809 23.9096,-557.227"/>
<text text-anchor="middle" x="24" y="-294.8" font-family="Times,serif" font-size="14.00" fill="#c02700">ww</text>
</g>
<!-- T2318 -->
<g id="node7" class="node"><title>T2318</title>
<polygon fill="none" stroke="#0058ad" points="117,-324.5 117,-353.5 231,-353.5 231,-324.5 117,-324.5"/>
<text text-anchor="middle" x="145.5" y="-335.3" font-family="Times,serif" font-size="14.00" fill="#0058ad">a 164 1</text>
<polyline fill="none" stroke="#0058ad" points="174,-324.5 174,-353.5 "/>
<text text-anchor="middle" x="202.5" y="-335.3" font-family="Times,serif" font-size="14.00" fill="#0058ad">a 152 6</text>
</g>
<!-- T2318&#45;&gt;T2321 -->
<g id="edge10" class="edge"><title>T2318:f0&#45;&gt;T2321:f0</title>
<path fill="none" stroke="#c000a5" d="M145,-324C145,-317.648 169.689,-295.837 189.95,-279.008"/>
<polygon fill="#c000a5" stroke="#c000a5" points="192.218,-281.674 197.716,-272.617 187.77,-276.269 192.218,-281.674"/>
<text text-anchor="middle" x="182.5" y="-294.8" font-family="Times,serif" font-size="14.00" fill="#c000a5">wr</text>
</g>
<!-- T2318&#45;&gt;T2339 -->
<g id="edge9" class="edge"><title>T2318:f0&#45;&gt;T2339:f1</title>
<path fill="none" stroke="#c02700" d="M145,-324C145,-287.778 137.551,-275.271 154,-243 167.496,-216.522 200.807,-223.283 208.429,-202.07"/>
<polygon fill="#c02700" stroke="#c02700" points="211.917,-202.42 210,-192 205,-201.341 211.917,-202.42"/>
<text text-anchor="middle" x="164" y="-254.3" font-family="Times,serif" font-size="14.00" fill="#c02700">ww</text>
</g>
<!-- T2318&#45;&gt;T2351 -->
<g id="edge11" class="edge"><title>T2318:f0&#45;&gt;T2351:f0</title>
<path fill="none" stroke="#c000a5" d="M116,-339C17.242,-339 82.3357,-221.368 86.7672,-121.248"/>
<polygon fill="#c000a5" stroke="#c000a5" points="90.2719,-121.077 87,-111 83.2737,-120.918 90.2719,-121.077"/>
<text text-anchor="middle" x="80.5" y="-213.8" font-family="Times,serif" font-size="14.00" fill="#c000a5">wr</text>
</g>
<!-- T2329&#45;&gt;T2318 -->
<g id="edge12" class="edge"><title>T2329:f2&#45;&gt;T2318:f1</title>
<path fill="none" stroke="#5b00c0" d="M204,-405C204,-386.226 203.314,-379.119 203.078,-364.355"/>
<polygon fill="#5b00c0" stroke="#5b00c0" points="206.576,-363.973 203,-354 199.576,-364.026 206.576,-363.973"/>
<text text-anchor="middle" x="211.5" y="-375.8" font-family="Times,serif" font-size="14.00" fill="#5b00c0">rw</text>
</g>
</g>
</svg>
