<?xml version="1.0" encoding="UTF-8" standalone="no"?>
<!DOCTYPE svg PUBLIC "-//W3C//DTD SVG 1.1//EN"
 "http://www.w3.org/Graphics/SVG/1.1/DTD/svg11.dtd">
<!-- Generated by graphviz version 2.38.0 (20140413.2041)
 -->
<!-- Title: a_graph Pages: 1 -->
<svg width="259pt" height="119pt"
 viewBox="0.00 0.00 259.00 119.00" xmlns="http://www.w3.org/2000/svg" xmlns:xlink="http://www.w3.org/1999/xlink">
<g id="graph0" class="graph" transform="scale(1 1) rotate(0) translate(4 115)">
<title>a_graph</title>
<polygon fill="white" stroke="none" points="-4,4 -4,-115 255,-115 255,4 -4,4"/>
<!-- T362 -->
<g id="node1" class="node"><title>T362</title>
<polygon fill="none" stroke="#0058ad" points="-1.42109e-14,-81.5 -1.42109e-14,-110.5 251,-110.5 251,-81.5 -1.42109e-14,-81.5"/>
<text text-anchor="middle" x="25" y="-92.3" font-family="Times,serif" font-size="14.00" fill="#0058ad">a 28 3</text>
<polyline fill="none" stroke="#0058ad" points="50,-81.5 50,-110.5 "/>
<text text-anchor="middle" x="89.5" y="-92.3" font-family="Times,serif" font-size="14.00" fill="#0058ad">r 24 [1 2 3]</text>
<polyline fill="none" stroke="#0058ad" points="129,-81.5 129,-110.5 "/>
<text text-anchor="middle" x="165" y="-92.3" font-family="Times,serif" font-size="14.00" fill="#0058ad">r 5 [1 2 3]</text>
<polyline fill="none" stroke="#0058ad" points="201,-81.5 201,-110.5 "/>
<text text-anchor="middle" x="226" y="-92.3" font-family="Times,serif" font-size="14.00" fill="#0058ad">a 28 4</text>
</g>
<!-- T359 -->
<g id="node2" class="node"><title>T359</title>
<polygon fill="none" stroke="#0058ad" points="3,-0.5 3,-29.5 200,-29.5 200,-0.5 3,-0.5"/>
<text text-anchor="middle" x="32" y="-11.3" font-family="Times,serif" font-size="14.00" fill="#0058ad">r 28 [1]</text>
<polyline fill="none" stroke="#0058ad" points="61,-0.5 61,-29.5 "/>
<text text-anchor="middle" x="86" y="-11.3" font-family="Times,serif" font-size="14.00" fill="#0058ad">a 24 4</text>
<polyline fill="none" stroke="#0058ad" points="111,-0.5 111,-29.5 "/>
<text text-anchor="middle" x="155.5" y="-11.3" font-family="Times,serif" font-size="14.00" fill="#0058ad">r 24 [1 2 3 4]</text>
</g>
<!-- T362&#45;&gt;T359 -->
<g id="edge1" class="edge"><title>T362:f1&#45;&gt;T359:f1</title>
<path fill="none" stroke="#5b00c0" d="M89.5,-81C89.5,-62.1715 86.7568,-55.1447 85.8139,-40.373"/>
<polygon fill="#5b00c0" stroke="#5b00c0" points="89.3009,-39.8895 85.5,-30 82.3041,-40.1013 89.3009,-39.8895"/>
<text text-anchor="middle" x="96" y="-51.8" font-family="Times,serif" font-size="14.00" fill="#5b00c0">rw</text>
</g>
<!-- T359&#45;&gt;T362 -->
<g id="edge2" class="edge"><title>T359:f0&#45;&gt;T362:f0</title>
<path fill="none" stroke="#5b00c0" d="M31.5,-30C31.5,-49.1256 26.6085,-55.9262 25.0034,-71.0076"/>
<polygon fill="#5b00c0" stroke="#5b00c0" points="21.5077,-70.8365 24.5,-81 28.4988,-71.1888 21.5077,-70.8365"/>
<text text-anchor="middle" x="38" y="-51.8" font-family="Times,serif" font-size="14.00" fill="#5b00c0">rw</text>
</g>
</g>
</svg>
