<?xml version="1.0" encoding="UTF-8" standalone="no"?>
<!DOCTYPE svg PUBLIC "-//W3C//DTD SVG 1.1//EN"
 "http://www.w3.org/Graphics/SVG/1.1/DTD/svg11.dtd">
<!-- Generated by graphviz version 2.38.0 (20140413.2041)
 -->
<!-- Title: a_graph Pages: 1 -->
<svg width="542pt" height="443pt"
 viewBox="0.00 0.00 541.50 443.00" xmlns="http://www.w3.org/2000/svg" xmlns:xlink="http://www.w3.org/1999/xlink">
<g id="graph0" class="graph" transform="scale(1 1) rotate(0) translate(4 439)">
<title>a_graph</title>
<polygon fill="white" stroke="none" points="-4,4 -4,-439 537.5,-439 537.5,4 -4,4"/>
<!-- T4345 -->
<g id="node1" class="node"><title>T4345</title>
<polygon fill="none" stroke="#0058ad" points="0,-405.5 0,-434.5 211,-434.5 211,-405.5 0,-405.5"/>
<text text-anchor="middle" x="29" y="-416.3" font-family="Times,serif" font-size="14.00" fill="#0058ad">r 302 []</text>
<polyline fill="none" stroke="#0058ad" points="58,-405.5 58,-434.5 "/>
<text text-anchor="middle" x="106" y="-416.3" font-family="Times,serif" font-size="14.00" fill="#0058ad">r 277 [1 2 3 5]</text>
<polyline fill="none" stroke="#0058ad" points="154,-405.5 154,-434.5 "/>
<text text-anchor="middle" x="182.5" y="-416.3" font-family="Times,serif" font-size="14.00" fill="#0058ad">a 302 1</text>
</g>
<!-- T4393 -->
<g id="node2" class="node"><title>T4393</title>
<polygon fill="none" stroke="#0058ad" points="108.5,-81.5 108.5,-110.5 352.5,-110.5 352.5,-81.5 108.5,-81.5"/>
<text text-anchor="middle" x="137" y="-92.3" font-family="Times,serif" font-size="14.00" fill="#0058ad">a 302 3</text>
<polyline fill="none" stroke="#0058ad" points="165.5,-81.5 165.5,-110.5 "/>
<text text-anchor="middle" x="198" y="-92.3" font-family="Times,serif" font-size="14.00" fill="#0058ad">r 305 [2]</text>
<polyline fill="none" stroke="#0058ad" points="230.5,-81.5 230.5,-110.5 "/>
<text text-anchor="middle" x="263" y="-92.3" font-family="Times,serif" font-size="14.00" fill="#0058ad">r 305 [2]</text>
<polyline fill="none" stroke="#0058ad" points="295.5,-81.5 295.5,-110.5 "/>
<text text-anchor="middle" x="324" y="-92.3" font-family="Times,serif" font-size="14.00" fill="#0058ad">a 285 5</text>
</g>
<!-- T4345&#45;&gt;T4393 -->
<g id="edge2" class="edge"><title>T4345:f2&#45;&gt;T4393:f0</title>
<path fill="none" stroke="#c02700" d="M182.5,-405C182.5,-369.609 136.5,-375.391 136.5,-340 136.5,-340 136.5,-340 136.5,-176 136.5,-150.835 136.5,-142.111 136.5,-121.185"/>
<polygon fill="#c02700" stroke="#c02700" points="140,-121 136.5,-111 133,-121 140,-121"/>
<text text-anchor="middle" x="146.5" y="-254.3" font-family="Times,serif" font-size="14.00" fill="#c02700">ww</text>
</g>
<!-- T4353 -->
<g id="node3" class="node"><title>T4353</title>
<polygon fill="none" stroke="#0058ad" points="164,-324.5 164,-353.5 491,-353.5 491,-324.5 164,-324.5"/>
<text text-anchor="middle" x="212" y="-335.3" font-family="Times,serif" font-size="14.00" fill="#0058ad">r 299 [1 2 4 5]</text>
<polyline fill="none" stroke="#0058ad" points="260,-324.5 260,-353.5 "/>
<text text-anchor="middle" x="318.5" y="-335.3" font-family="Times,serif" font-size="14.00" fill="#0058ad">r 291 [1 2 3 4 6 7]</text>
<polyline fill="none" stroke="#0058ad" points="377,-324.5 377,-353.5 "/>
<text text-anchor="middle" x="405.5" y="-335.3" font-family="Times,serif" font-size="14.00" fill="#0058ad">a 277 4</text>
<polyline fill="none" stroke="#0058ad" points="434,-324.5 434,-353.5 "/>
<text text-anchor="middle" x="462.5" y="-335.3" font-family="Times,serif" font-size="14.00" fill="#0058ad">a 299 6</text>
</g>
<!-- T4345&#45;&gt;T4353 -->
<g id="edge1" class="edge"><title>T4345:f1&#45;&gt;T4353:f2</title>
<path fill="none" stroke="#5b00c0" d="M106.5,-405C106.5,-273.878 389.372,-477.117 404.842,-364.28"/>
<polygon fill="#5b00c0" stroke="#5b00c0" points="408.354,-364.203 405.5,-354 401.368,-363.756 408.354,-364.203"/>
<text text-anchor="middle" x="410" y="-375.8" font-family="Times,serif" font-size="14.00" fill="#5b00c0">rw</text>
</g>
<!-- T4355 -->
<g id="node4" class="node"><title>T4355</title>
<polygon fill="none" stroke="#0058ad" points="263,-0.5 263,-29.5 510,-29.5 510,-0.5 263,-0.5"/>
<text text-anchor="middle" x="291.5" y="-11.3" font-family="Times,serif" font-size="14.00" fill="#0058ad">a 305 3</text>
<polyline fill="none" stroke="#0058ad" points="320,-0.5 320,-29.5 "/>
<text text-anchor="middle" x="357.5" y="-11.3" font-family="Times,serif" font-size="14.00" fill="#0058ad">r 305 [2 3]</text>
<polyline fill="none" stroke="#0058ad" points="395,-0.5 395,-29.5 "/>
<text text-anchor="middle" x="424" y="-11.3" font-family="Times,serif" font-size="14.00" fill="#0058ad">r 302 []</text>
<polyline fill="none" stroke="#0058ad" points="453,-0.5 453,-29.5 "/>
<text text-anchor="middle" x="481.5" y="-11.3" font-family="Times,serif" font-size="14.00" fill="#0058ad">a 305 4</text>
</g>
<!-- T4393&#45;&gt;T4355 -->
<g id="edge3" class="edge"><title>T4393:f1&#45;&gt;T4355:f0</title>
<path fill="none" stroke="#5b00c0" d="M197.5,-81C197.5,-43.6515 216.834,-19.4371 251.362,-15.551"/>
<polygon fill="#5b00c0" stroke="#5b00c0" points="251.705,-19.0376 261.5,-15 251.325,-12.048 251.705,-19.0376"/>
<text text-anchor="middle" x="212" y="-51.8" font-family="Times,serif" font-size="14.00" fill="#5b00c0">rw</text>
</g>
<!-- T4365 -->
<g id="node5" class="node"><title>T4365</title>
<polygon fill="none" stroke="#0058ad" points="221,-162.5 221,-191.5 490,-191.5 490,-162.5 221,-162.5"/>
<text text-anchor="middle" x="269" y="-173.3" font-family="Times,serif" font-size="14.00" fill="#0058ad">r 285 [1 2 3 4]</text>
<polyline fill="none" stroke="#0058ad" points="317,-162.5 317,-191.5 "/>
<text text-anchor="middle" x="345.5" y="-173.3" font-family="Times,serif" font-size="14.00" fill="#0058ad">a 277 6</text>
<polyline fill="none" stroke="#0058ad" points="374,-162.5 374,-191.5 "/>
<text text-anchor="middle" x="403" y="-173.3" font-family="Times,serif" font-size="14.00" fill="#0058ad">r 306 []</text>
<polyline fill="none" stroke="#0058ad" points="432,-162.5 432,-191.5 "/>
<text text-anchor="middle" x="461" y="-173.3" font-family="Times,serif" font-size="14.00" fill="#0058ad">r 306 []</text>
</g>
<!-- T4353&#45;&gt;T4365 -->
<g id="edge4" class="edge"><title>T4353:f2&#45;&gt;T4365:f1</title>
<path fill="none" stroke="#c02700" d="M405.5,-324C405.5,-263.998 313.968,-322.801 280.5,-273 273.063,-261.933 274.667,-254.99 280.5,-243 294.869,-213.462 335.543,-225.343 343.963,-201.893"/>
<polygon fill="#c02700" stroke="#c02700" points="347.423,-202.419 345.5,-192 340.506,-201.344 347.423,-202.419"/>
<text text-anchor="middle" x="290.5" y="-254.3" font-family="Times,serif" font-size="14.00" fill="#c02700">ww</text>
</g>
<!-- T4363 -->
<g id="node6" class="node"><title>T4363</title>
<polygon fill="none" stroke="#0058ad" points="310,-243.5 310,-272.5 475,-272.5 475,-243.5 310,-243.5"/>
<text text-anchor="middle" x="339" y="-254.3" font-family="Times,serif" font-size="14.00" fill="#0058ad">r 306 []</text>
<polyline fill="none" stroke="#0058ad" points="368,-243.5 368,-272.5 "/>
<text text-anchor="middle" x="421.5" y="-254.3" font-family="Times,serif" font-size="14.00" fill="#0058ad">r 277 [1 2 3 5 4]</text>
</g>
<!-- T4353&#45;&gt;T4363 -->
<g id="edge5" class="edge"><title>T4353:f2&#45;&gt;T4363:f1</title>
<path fill="none" stroke="#c000a5" d="M405.5,-324C405.5,-304.142 416.681,-298.446 420.349,-283.235"/>
<polygon fill="#c000a5" stroke="#c000a5" points="423.861,-283.328 421.5,-273 416.905,-282.546 423.861,-283.328"/>
<text text-anchor="middle" x="425" y="-294.8" font-family="Times,serif" font-size="14.00" fill="#c000a5">wr</text>
</g>
<!-- T4355&#45;&gt;T4345 -->
<g id="edge6" class="edge"><title>T4355:f2&#45;&gt;T4345:f2</title>
<path fill="none" stroke="#5b00c0" d="M424.5,-30C424.5,-80.7932 518.5,-44.2068 518.5,-95 518.5,-340 518.5,-340 518.5,-340 518.5,-407.128 303.487,-419.005 222.937,-419.937"/>
<polygon fill="#5b00c0" stroke="#5b00c0" points="222.479,-416.439 212.5,-420 222.521,-423.439 222.479,-416.439"/>
<text text-anchor="middle" x="526" y="-213.8" font-family="Times,serif" font-size="14.00" fill="#5b00c0">rw</text>
</g>
<!-- T4365&#45;&gt;T4393 -->
<g id="edge7" class="edge"><title>T4365:f0&#45;&gt;T4393:f3</title>
<path fill="none" stroke="#5b00c0" d="M268.5,-162C268.5,-132.281 312.144,-141.523 322.373,-120.936"/>
<polygon fill="#5b00c0" stroke="#5b00c0" points="325.829,-121.511 324.5,-111 318.984,-120.046 325.829,-121.511"/>
<text text-anchor="middle" x="322" y="-132.8" font-family="Times,serif" font-size="14.00" fill="#5b00c0">rw</text>
</g>
<!-- T4363&#45;&gt;T4365 -->
<g id="edge8" class="edge"><title>T4363:f1&#45;&gt;T4365:f1</title>
<path fill="none" stroke="#5b00c0" d="M421.5,-243C421.5,-206.294 359.619,-227.427 347.533,-202.017"/>
<polygon fill="#5b00c0" stroke="#5b00c0" points="350.919,-201.104 345.5,-192 344.059,-202.496 350.919,-201.104"/>
<text text-anchor="middle" x="420" y="-213.8" font-family="Times,serif" font-size="14.00" fill="#5b00c0">rw</text>
</g>
</g>
</svg>
