<?xml version="1.0" encoding="UTF-8" standalone="no"?>
<!DOCTYPE svg PUBLIC "-//W3C//DTD SVG 1.1//EN"
 "http://www.w3.org/Graphics/SVG/1.1/DTD/svg11.dtd">
<!-- Generated by graphviz version 2.38.0 (20140413.2041)
 -->
<!-- Title: a_graph Pages: 1 -->
<svg width="279pt" height="200pt"
 viewBox="0.00 0.00 279.00 200.00" xmlns="http://www.w3.org/2000/svg" xmlns:xlink="http://www.w3.org/1999/xlink">
<g id="graph0" class="graph" transform="scale(1 1) rotate(0) translate(4 196)">
<title>a_graph</title>
<polygon fill="white" stroke="none" points="-4,4 -4,-196 275,-196 275,4 -4,4"/>
<!-- T7747 -->
<g id="node1" class="node"><title>T7747</title>
<polygon fill="none" stroke="#0058ad" points="18,-162.5 18,-191.5 161,-191.5 161,-162.5 18,-162.5"/>
<text text-anchor="middle" x="46.5" y="-173.3" font-family="Times,serif" font-size="14.00" fill="#0058ad">a 539 1</text>
<polyline fill="none" stroke="#0058ad" points="75,-162.5 75,-191.5 "/>
<text text-anchor="middle" x="118" y="-173.3" font-family="Times,serif" font-size="14.00" fill="#0058ad">r 536 [1 2 4]</text>
</g>
<!-- T7737 -->
<g id="node3" class="node"><title>T7737</title>
<polygon fill="none" stroke="#0058ad" points="64,-81.5 64,-110.5 271,-110.5 271,-81.5 64,-81.5"/>
<text text-anchor="middle" x="101.5" y="-92.3" font-family="Times,serif" font-size="14.00" fill="#0058ad">r 538 [1 3]</text>
<polyline fill="none" stroke="#0058ad" points="139,-81.5 139,-110.5 "/>
<text text-anchor="middle" x="167.5" y="-92.3" font-family="Times,serif" font-size="14.00" fill="#0058ad">a 536 5</text>
<polyline fill="none" stroke="#0058ad" points="196,-81.5 196,-110.5 "/>
<text text-anchor="middle" x="233.5" y="-92.3" font-family="Times,serif" font-size="14.00" fill="#0058ad">r 538 [1 3]</text>
</g>
<!-- T7747&#45;&gt;T7737 -->
<g id="edge1" class="edge"><title>T7747:f1&#45;&gt;T7737:f1</title>
<path fill="none" stroke="#5b00c0" d="M162.5,-177C188.585,-177 172.341,-148.236 168.326,-121.21"/>
<polygon fill="#5b00c0" stroke="#5b00c0" points="171.795,-120.685 167.5,-111 164.818,-121.25 171.795,-120.685"/>
<text text-anchor="middle" x="180" y="-132.8" font-family="Times,serif" font-size="14.00" fill="#5b00c0">rw</text>
</g>
<!-- T7751 -->
<g id="node2" class="node"><title>T7751</title>
<polygon fill="none" stroke="#0058ad" points="0,-0.5 0,-29.5 201,-29.5 201,-0.5 0,-0.5"/>
<text text-anchor="middle" x="28.5" y="-11.3" font-family="Times,serif" font-size="14.00" fill="#0058ad">a 538 5</text>
<polyline fill="none" stroke="#0058ad" points="57,-0.5 57,-29.5 "/>
<text text-anchor="middle" x="86" y="-11.3" font-family="Times,serif" font-size="14.00" fill="#0058ad">r 539 []</text>
<polyline fill="none" stroke="#0058ad" points="115,-0.5 115,-29.5 "/>
<text text-anchor="middle" x="158" y="-11.3" font-family="Times,serif" font-size="14.00" fill="#0058ad">r 538 [1 3 5]</text>
</g>
<!-- T7751&#45;&gt;T7747 -->
<g id="edge2" class="edge"><title>T7751:f1&#45;&gt;T7747:f0</title>
<path fill="none" stroke="#5b00c0" d="M85.5,-30C85.5,-49.0904 58.4103,-33.0805 46.5,-48 17.0506,-84.89 42.4737,-108.014 46.0871,-151.973"/>
<polygon fill="#5b00c0" stroke="#5b00c0" points="42.5915,-152.152 46.5,-162 49.5855,-151.864 42.5915,-152.152"/>
<text text-anchor="middle" x="45" y="-92.3" font-family="Times,serif" font-size="14.00" fill="#5b00c0">rw</text>
</g>
<!-- T7737&#45;&gt;T7751 -->
<g id="edge3" class="edge"><title>T7737:f0&#45;&gt;T7751:f0</title>
<path fill="none" stroke="#5b00c0" d="M101.5,-81C101.5,-64.4576 50.4882,-53.7621 33.75,-39.1382"/>
<polygon fill="#5b00c0" stroke="#5b00c0" points="36.5164,-36.9274 28.5,-30 30.4468,-40.4145 36.5164,-36.9274"/>
<text text-anchor="middle" x="87" y="-51.8" font-family="Times,serif" font-size="14.00" fill="#5b00c0">rw</text>
</g>
</g>
</svg>
