<?xml version="1.0" encoding="UTF-8" standalone="no"?>
<!DOCTYPE svg PUBLIC "-//W3C//DTD SVG 1.1//EN"
 "http://www.w3.org/Graphics/SVG/1.1/DTD/svg11.dtd">
<!-- Generated by graphviz version 2.38.0 (20140413.2041)
 -->
<!-- Title: a_graph Pages: 1 -->
<svg width="1011pt" height="605pt"
 viewBox="0.00 0.00 1011.00 605.00" xmlns="http://www.w3.org/2000/svg" xmlns:xlink="http://www.w3.org/1999/xlink">
<g id="graph0" class="graph" transform="scale(1 1) rotate(0) translate(4 601)">
<title>a_graph</title>
<polygon fill="white" stroke="none" points="-4,4 -4,-601 1007,-601 1007,4 -4,4"/>
<!-- T5842 -->
<g id="node1" class="node"><title>T5842</title>
<polygon fill="none" stroke="#0058ad" points="777,-567.5 777,-596.5 1003,-596.5 1003,-567.5 777,-567.5"/>
<text text-anchor="middle" x="809.5" y="-578.3" font-family="Times,serif" font-size="14.00" fill="#0058ad">r 402 [1]</text>
<polyline fill="none" stroke="#0058ad" points="842,-567.5 842,-596.5 "/>
<text text-anchor="middle" x="885" y="-578.3" font-family="Times,serif" font-size="14.00" fill="#0058ad">r 407 [1 2 3]</text>
<polyline fill="none" stroke="#0058ad" points="928,-567.5 928,-596.5 "/>
<text text-anchor="middle" x="965.5" y="-578.3" font-family="Times,serif" font-size="14.00" fill="#0058ad">r 400 [2 1]</text>
</g>
<!-- T5839 -->
<g id="node4" class="node"><title>T5839</title>
<polygon fill="none" stroke="#0058ad" points="564,-486.5 564,-515.5 736,-515.5 736,-486.5 564,-486.5"/>
<text text-anchor="middle" x="592.5" y="-497.3" font-family="Times,serif" font-size="14.00" fill="#0058ad">a 405 8</text>
<polyline fill="none" stroke="#0058ad" points="621,-486.5 621,-515.5 "/>
<text text-anchor="middle" x="649.5" y="-497.3" font-family="Times,serif" font-size="14.00" fill="#0058ad">a 402 2</text>
<polyline fill="none" stroke="#0058ad" points="678,-486.5 678,-515.5 "/>
<text text-anchor="middle" x="707" y="-497.3" font-family="Times,serif" font-size="14.00" fill="#0058ad">r 406 []</text>
</g>
<!-- T5842&#45;&gt;T5839 -->
<g id="edge1" class="edge"><title>T5842:f0&#45;&gt;T5839:f1</title>
<path fill="none" stroke="#5b00c0" d="M776,-582C715.992,-582 656.181,-579.874 649.599,-526.23"/>
<polygon fill="#5b00c0" stroke="#5b00c0" points="653.078,-525.778 649,-516 646.09,-526.187 653.078,-525.778"/>
<text text-anchor="middle" x="664.5" y="-537.8" font-family="Times,serif" font-size="14.00" fill="#5b00c0">rw</text>
</g>
<!-- T5841 -->
<g id="node7" class="node"><title>T5841</title>
<polygon fill="none" stroke="#0058ad" points="788.5,-0.5 788.5,-29.5 903.5,-29.5 903.5,-0.5 788.5,-0.5"/>
<text text-anchor="middle" x="817" y="-11.3" font-family="Times,serif" font-size="14.00" fill="#0058ad">a 407 4</text>
<polyline fill="none" stroke="#0058ad" points="845.5,-0.5 845.5,-29.5 "/>
<text text-anchor="middle" x="874.5" y="-11.3" font-family="Times,serif" font-size="14.00" fill="#0058ad">r 406 []</text>
</g>
<!-- T5842&#45;&gt;T5841 -->
<g id="edge2" class="edge"><title>T5842:f1&#45;&gt;T5841:f0</title>
<path fill="none" stroke="#5b00c0" d="M885,-567C885,-556.304 956,-512.696 956,-502 956,-502 956,-502 956,-135.5 956,-134.463 854.276,-58.8795 824.872,-36.294"/>
<polygon fill="#5b00c0" stroke="#5b00c0" points="826.996,-33.5114 817,-30 822.625,-38.9786 826.996,-33.5114"/>
<text text-anchor="middle" x="963.5" y="-294.8" font-family="Times,serif" font-size="14.00" fill="#5b00c0">rw</text>
</g>
<!-- T5843 -->
<g id="node2" class="node"><title>T5843</title>
<polygon fill="none" stroke="#0058ad" points="662,-81.5 662,-110.5 834,-110.5 834,-81.5 662,-81.5"/>
<text text-anchor="middle" x="705" y="-92.3" font-family="Times,serif" font-size="14.00" fill="#0058ad">r 407 [1 2 3]</text>
<polyline fill="none" stroke="#0058ad" points="748,-81.5 748,-110.5 "/>
<text text-anchor="middle" x="791" y="-92.3" font-family="Times,serif" font-size="14.00" fill="#0058ad">r 407 [1 2 3]</text>
</g>
<!-- T5843&#45;&gt;T5841 -->
<g id="edge3" class="edge"><title>T5843:f0&#45;&gt;T5841:f0</title>
<path fill="none" stroke="#5b00c0" d="M705,-81C705,-37.6892 735.184,-18.0044 776.784,-15.321"/>
<polygon fill="#5b00c0" stroke="#5b00c0" points="777.115,-18.8124 787,-15 776.895,-11.8159 777.115,-18.8124"/>
<text text-anchor="middle" x="720.5" y="-51.8" font-family="Times,serif" font-size="14.00" fill="#5b00c0">rw</text>
</g>
<!-- T5893 -->
<g id="node3" class="node"><title>T5893</title>
<polygon fill="none" stroke="#0058ad" points="676,-405.5 676,-434.5 848,-434.5 848,-405.5 676,-405.5"/>
<text text-anchor="middle" x="705" y="-416.3" font-family="Times,serif" font-size="14.00" fill="#0058ad">r 407 []</text>
<polyline fill="none" stroke="#0058ad" points="734,-405.5 734,-434.5 "/>
<text text-anchor="middle" x="762.5" y="-416.3" font-family="Times,serif" font-size="14.00" fill="#0058ad">a 406 2</text>
<polyline fill="none" stroke="#0058ad" points="791,-405.5 791,-434.5 "/>
<text text-anchor="middle" x="819.5" y="-416.3" font-family="Times,serif" font-size="14.00" fill="#0058ad">a 393 4</text>
</g>
<!-- T5832 -->
<g id="node9" class="node"><title>T5832</title>
<polygon fill="none" stroke="#0058ad" points="676.5,-324.5 676.5,-353.5 733.5,-353.5 733.5,-324.5 676.5,-324.5"/>
<text text-anchor="middle" x="705" y="-335.3" font-family="Times,serif" font-size="14.00" fill="#0058ad">a 407 1</text>
</g>
<!-- T5893&#45;&gt;T5832 -->
<g id="edge4" class="edge"><title>T5893:f0&#45;&gt;T5832:f0</title>
<path fill="none" stroke="#5b00c0" d="M705,-405C705,-391.352 705,-376.117 705,-363.725"/>
<polygon fill="#5b00c0" stroke="#5b00c0" points="708.5,-363.68 705,-353.68 701.5,-363.68 708.5,-363.68"/>
<text text-anchor="middle" x="712.5" y="-375.8" font-family="Times,serif" font-size="14.00" fill="#5b00c0">rw</text>
</g>
<!-- T5839&#45;&gt;T5893 -->
<g id="edge5" class="edge"><title>T5839:f2&#45;&gt;T5893:f1</title>
<path fill="none" stroke="#5b00c0" d="M707,-486C707,-456.281 750.644,-465.523 760.873,-444.936"/>
<polygon fill="#5b00c0" stroke="#5b00c0" points="764.329,-445.511 763,-435 757.484,-444.046 764.329,-445.511"/>
<text text-anchor="middle" x="760.5" y="-456.8" font-family="Times,serif" font-size="14.00" fill="#5b00c0">rw</text>
</g>
<!-- T5835 -->
<g id="node5" class="node"><title>T5835</title>
<polygon fill="none" stroke="#0058ad" points="676.5,-162.5 676.5,-191.5 733.5,-191.5 733.5,-162.5 676.5,-162.5"/>
<text text-anchor="middle" x="705" y="-173.3" font-family="Times,serif" font-size="14.00" fill="#0058ad">a 407 3</text>
</g>
<!-- T5835&#45;&gt;T5842 -->
<g id="edge9" class="edge"><title>T5835:f0&#45;&gt;T5842:f1</title>
<path fill="none" stroke="#c000a5" d="M732.101,-191.566C732.402,-191.712 732.702,-191.857 733,-192 799.224,-223.823 885,-183.527 885,-257 885,-502 885,-502 885,-502 885,-527.165 885,-535.889 885,-556.815"/>
<polygon fill="#c000a5" stroke="#c000a5" points="881.5,-557 885,-567 888.5,-557 881.5,-557"/>
<text text-anchor="middle" x="892.5" y="-375.8" font-family="Times,serif" font-size="14.00" fill="#c000a5">wr</text>
</g>
<!-- T5835&#45;&gt;T5843 -->
<g id="edge6" class="edge"><title>T5835:f0&#45;&gt;T5843:f0</title>
<path fill="none" stroke="#c000a5" d="M705,-162.32C705,-151.453 705,-136.015 705,-121.143"/>
<polygon fill="#c000a5" stroke="#c000a5" points="708.5,-121 705,-111 701.5,-121 708.5,-121"/>
<text text-anchor="middle" x="712.5" y="-132.8" font-family="Times,serif" font-size="14.00" fill="#c000a5">wr</text>
</g>
<!-- T5835&#45;&gt;T5841 -->
<g id="edge10" class="edge"><title>T5835:f0&#45;&gt;T5841:f0</title>
<path fill="none" stroke="#c02700" d="M732.108,-162.447C732.406,-162.297 732.704,-162.148 733,-162 781.215,-137.933 813.996,-156.417 843,-111 861.442,-82.1218 825.104,-70.1132 818.129,-39.9743"/>
<polygon fill="#c02700" stroke="#c02700" points="821.603,-39.5429 817,-30 814.647,-40.3302 821.603,-39.5429"/>
<text text-anchor="middle" x="859" y="-92.3" font-family="Times,serif" font-size="14.00" fill="#c02700">ww</text>
</g>
<!-- T5877 -->
<g id="node8" class="node"><title>T5877</title>
<polygon fill="none" stroke="#0058ad" points="0,-81.5 0,-110.5 302,-110.5 302,-81.5 0,-81.5"/>
<text text-anchor="middle" x="43" y="-92.3" font-family="Times,serif" font-size="14.00" fill="#0058ad">r 407 [1 2 3]</text>
<polyline fill="none" stroke="#0058ad" points="86,-81.5 86,-110.5 "/>
<text text-anchor="middle" x="118.5" y="-92.3" font-family="Times,serif" font-size="14.00" fill="#0058ad">r 402 [1]</text>
<polyline fill="none" stroke="#0058ad" points="151,-81.5 151,-110.5 "/>
<text text-anchor="middle" x="194" y="-92.3" font-family="Times,serif" font-size="14.00" fill="#0058ad">r 386 [1 2 3]</text>
<polyline fill="none" stroke="#0058ad" points="237,-81.5 237,-110.5 "/>
<text text-anchor="middle" x="269.5" y="-92.3" font-family="Times,serif" font-size="14.00" fill="#0058ad">r 402 [1]</text>
</g>
<!-- T5835&#45;&gt;T5877 -->
<g id="edge8" class="edge"><title>T5835:f0&#45;&gt;T5877:f0</title>
<path fill="none" stroke="#c000a5" d="M678.593,-162.49C678.061,-162.316 677.53,-162.153 677,-162 565.694,-129.937 532.475,-153.091 417,-144 407.618,-143.261 110.648,-125.478 52.7352,-114.349"/>
<polygon fill="#c000a5" stroke="#c000a5" points="53.5947,-110.944 43,-111 51.3173,-117.563 53.5947,-110.944"/>
<text text-anchor="middle" x="424.5" y="-132.8" font-family="Times,serif" font-size="14.00" fill="#c000a5">wr</text>
</g>
<!-- T5851 -->
<g id="node10" class="node"><title>T5851</title>
<polygon fill="none" stroke="#0058ad" points="320.5,-81.5 320.5,-110.5 643.5,-110.5 643.5,-81.5 320.5,-81.5"/>
<text text-anchor="middle" x="363.5" y="-92.3" font-family="Times,serif" font-size="14.00" fill="#0058ad">r 407 [1 2 3]</text>
<polyline fill="none" stroke="#0058ad" points="406.5,-81.5 406.5,-110.5 "/>
<text text-anchor="middle" x="439" y="-92.3" font-family="Times,serif" font-size="14.00" fill="#0058ad">r 402 [1]</text>
<polyline fill="none" stroke="#0058ad" points="471.5,-81.5 471.5,-110.5 "/>
<text text-anchor="middle" x="514.5" y="-92.3" font-family="Times,serif" font-size="14.00" fill="#0058ad">r 407 [1 2 3]</text>
<polyline fill="none" stroke="#0058ad" points="557.5,-81.5 557.5,-110.5 "/>
<text text-anchor="middle" x="600.5" y="-92.3" font-family="Times,serif" font-size="14.00" fill="#0058ad">r 407 [1 2 3]</text>
</g>
<!-- T5835&#45;&gt;T5851 -->
<g id="edge7" class="edge"><title>T5835:f0&#45;&gt;T5851:f0</title>
<path fill="none" stroke="#c000a5" d="M678.257,-162.441C677.837,-162.289 677.418,-162.141 677,-162 661.96,-156.909 420.487,-134.065 371.593,-116.66"/>
<polygon fill="#c000a5" stroke="#c000a5" points="373.276,-113.578 363,-111 369.426,-119.424 373.276,-113.578"/>
<text text-anchor="middle" x="540.5" y="-132.8" font-family="Times,serif" font-size="14.00" fill="#c000a5">wr</text>
</g>
<!-- T5831 -->
<g id="node6" class="node"><title>T5831</title>
<polygon fill="none" stroke="#0058ad" points="676.5,-243.5 676.5,-272.5 733.5,-272.5 733.5,-243.5 676.5,-243.5"/>
<text text-anchor="middle" x="705" y="-254.3" font-family="Times,serif" font-size="14.00" fill="#0058ad">a 407 2</text>
</g>
<!-- T5831&#45;&gt;T5835 -->
<g id="edge11" class="edge"><title>T5831:f0&#45;&gt;T5835:f0</title>
<path fill="none" stroke="#c02700" d="M705,-243.143C705,-231.611 705,-215.367 705,-201.863"/>
<polygon fill="#c02700" stroke="#c02700" points="708.5,-201.762 705,-191.762 701.5,-201.762 708.5,-201.762"/>
<text text-anchor="middle" x="715" y="-213.8" font-family="Times,serif" font-size="14.00" fill="#c02700">ww</text>
</g>
<!-- T5841&#45;&gt;T5893 -->
<g id="edge12" class="edge"><title>T5841:f1&#45;&gt;T5893:f1</title>
<path fill="none" stroke="#5b00c0" d="M905,-15C1086.13,-15 774.629,-213.175 763.315,-394.983"/>
<polygon fill="#5b00c0" stroke="#5b00c0" points="759.816,-394.895 763,-405 766.812,-395.115 759.816,-394.895"/>
<text text-anchor="middle" x="855.5" y="-213.8" font-family="Times,serif" font-size="14.00" fill="#5b00c0">rw</text>
</g>
<!-- T5877&#45;&gt;T5839 -->
<g id="edge13" class="edge"><title>T5877:f1&#45;&gt;T5839:f1</title>
<path fill="none" stroke="#5b00c0" d="M118,-111C118,-142.282 145,-144.718 145,-176 145,-421 145,-421 145,-421 145,-474.155 591.668,-434.794 644.012,-477.108"/>
<polygon fill="#5b00c0" stroke="#5b00c0" points="641.055,-478.991 649,-486 647.16,-475.566 641.055,-478.991"/>
<text text-anchor="middle" x="152.5" y="-294.8" font-family="Times,serif" font-size="14.00" fill="#5b00c0">rw</text>
</g>
<!-- T5877&#45;&gt;T5841 -->
<g id="edge14" class="edge"><title>T5877:f0&#45;&gt;T5841:f0</title>
<path fill="none" stroke="#5b00c0" d="M43,-81C43,-60.6573 649.734,-17.6186 776.833,-15.1142"/>
<polygon fill="#5b00c0" stroke="#5b00c0" points="777.04,-18.6122 787,-15 776.961,-11.6127 777.04,-18.6122"/>
<text text-anchor="middle" x="284.5" y="-51.8" font-family="Times,serif" font-size="14.00" fill="#5b00c0">rw</text>
</g>
<!-- T5832&#45;&gt;T5831 -->
<g id="edge15" class="edge"><title>T5832:f0&#45;&gt;T5831:f0</title>
<path fill="none" stroke="#c02700" d="M705,-324.143C705,-312.611 705,-296.367 705,-282.863"/>
<polygon fill="#c02700" stroke="#c02700" points="708.5,-282.762 705,-272.762 701.5,-282.762 708.5,-282.762"/>
<text text-anchor="middle" x="715" y="-294.8" font-family="Times,serif" font-size="14.00" fill="#c02700">ww</text>
</g>
<!-- T5851&#45;&gt;T5839 -->
<g id="edge16" class="edge"><title>T5851:f1&#45;&gt;T5839:f1</title>
<path fill="none" stroke="#5b00c0" d="M439,-111C439,-136.428 528.367,-119.616 552,-129 586.486,-142.693 621,-138.895 621,-176 621,-421 621,-421 621,-421 621,-448.646 642.629,-453.608 647.868,-475.76"/>
<polygon fill="#5b00c0" stroke="#5b00c0" points="644.422,-476.445 649,-486 651.38,-475.676 644.422,-476.445"/>
<text text-anchor="middle" x="628.5" y="-294.8" font-family="Times,serif" font-size="14.00" fill="#5b00c0">rw</text>
</g>
<!-- T5851&#45;&gt;T5841 -->
<g id="edge17" class="edge"><title>T5851:f0&#45;&gt;T5841:f0</title>
<path fill="none" stroke="#5b00c0" d="M363,-81C363,-35.8358 700.678,-17.014 776.819,-15.1545"/>
<polygon fill="#5b00c0" stroke="#5b00c0" points="777.054,-18.6514 787,-15 776.948,-11.6522 777.054,-18.6514"/>
<text text-anchor="middle" x="434.5" y="-51.8" font-family="Times,serif" font-size="14.00" fill="#5b00c0">rw</text>
</g>
</g>
</svg>
