<?xml version="1.0" encoding="UTF-8" standalone="no"?>
<!DOCTYPE svg PUBLIC "-//W3C//DTD SVG 1.1//EN"
 "http://www.w3.org/Graphics/SVG/1.1/DTD/svg11.dtd">
<!-- Generated by graphviz version 2.38.0 (20140413.2041)
 -->
<!-- Title: a_graph Pages: 1 -->
<svg width="436pt" height="200pt"
 viewBox="0.00 0.00 435.50 200.00" xmlns="http://www.w3.org/2000/svg" xmlns:xlink="http://www.w3.org/1999/xlink">
<g id="graph0" class="graph" transform="scale(1 1) rotate(0) translate(4 196)">
<title>a_graph</title>
<polygon fill="white" stroke="none" points="-4,4 -4,-196 431.5,-196 431.5,4 -4,4"/>
<!-- T5059 -->
<g id="node1" class="node"><title>T5059</title>
<polygon fill="none" stroke="#0058ad" points="80,-162.5 80,-191.5 344,-191.5 344,-162.5 80,-162.5"/>
<text text-anchor="middle" x="108.5" y="-173.3" font-family="Times,serif" font-size="14.00" fill="#0058ad">a 357 4</text>
<polyline fill="none" stroke="#0058ad" points="137,-162.5 137,-191.5 "/>
<text text-anchor="middle" x="174.5" y="-173.3" font-family="Times,serif" font-size="14.00" fill="#0058ad">r 357 [3 4]</text>
<polyline fill="none" stroke="#0058ad" points="212,-162.5 212,-191.5 "/>
<text text-anchor="middle" x="249.5" y="-173.3" font-family="Times,serif" font-size="14.00" fill="#0058ad">r 357 [3 4]</text>
<polyline fill="none" stroke="#0058ad" points="287,-162.5 287,-191.5 "/>
<text text-anchor="middle" x="315.5" y="-173.3" font-family="Times,serif" font-size="14.00" fill="#0058ad">a 355 3</text>
</g>
<!-- T5053 -->
<g id="node3" class="node"><title>T5053</title>
<polygon fill="none" stroke="#0058ad" points="106.5,-81.5 106.5,-110.5 427.5,-110.5 427.5,-81.5 106.5,-81.5"/>
<text text-anchor="middle" x="144" y="-92.3" font-family="Times,serif" font-size="14.00" fill="#0058ad">r 358 [1 2]</text>
<polyline fill="none" stroke="#0058ad" points="181.5,-81.5 181.5,-110.5 "/>
<text text-anchor="middle" x="229.5" y="-92.3" font-family="Times,serif" font-size="14.00" fill="#0058ad">r 345 [2 4 1 5]</text>
<polyline fill="none" stroke="#0058ad" points="277.5,-81.5 277.5,-110.5 "/>
<text text-anchor="middle" x="315" y="-92.3" font-family="Times,serif" font-size="14.00" fill="#0058ad">r 357 [3 4]</text>
<polyline fill="none" stroke="#0058ad" points="352.5,-81.5 352.5,-110.5 "/>
<text text-anchor="middle" x="390" y="-92.3" font-family="Times,serif" font-size="14.00" fill="#0058ad">r 355 [1 3]</text>
</g>
<!-- T5059&#45;&gt;T5053 -->
<g id="edge1" class="edge"><title>T5059:f0&#45;&gt;T5053:f2</title>
<path fill="none" stroke="#c000a5" d="M108,-162C108,-70.9501 299.144,-195.287 314.077,-121.064"/>
<polygon fill="#c000a5" stroke="#c000a5" points="317.572,-121.278 315,-111 310.601,-120.639 317.572,-121.278"/>
<text text-anchor="middle" x="318.5" y="-132.8" font-family="Times,serif" font-size="14.00" fill="#c000a5">wr</text>
</g>
<!-- T5051 -->
<g id="node2" class="node"><title>T5051</title>
<polygon fill="none" stroke="#0058ad" points="0,-0.5 0,-29.5 304,-29.5 304,-0.5 0,-0.5"/>
<text text-anchor="middle" x="32.5" y="-11.3" font-family="Times,serif" font-size="14.00" fill="#0058ad">r 357 [3]</text>
<polyline fill="none" stroke="#0058ad" points="65,-0.5 65,-29.5 "/>
<text text-anchor="middle" x="102.5" y="-11.3" font-family="Times,serif" font-size="14.00" fill="#0058ad">r 358 [1 2]</text>
<polyline fill="none" stroke="#0058ad" points="140,-0.5 140,-29.5 "/>
<text text-anchor="middle" x="168.5" y="-11.3" font-family="Times,serif" font-size="14.00" fill="#0058ad">a 358 6</text>
<polyline fill="none" stroke="#0058ad" points="197,-0.5 197,-29.5 "/>
<text text-anchor="middle" x="250.5" y="-11.3" font-family="Times,serif" font-size="14.00" fill="#0058ad">r 322 [1 2 4 3 5]</text>
</g>
<!-- T5051&#45;&gt;T5059 -->
<g id="edge2" class="edge"><title>T5051:f0&#45;&gt;T5059:f0</title>
<path fill="none" stroke="#5b00c0" d="M32,-30C32,-94.9743 12.6257,-168.758 68.8846,-176.359"/>
<polygon fill="#5b00c0" stroke="#5b00c0" points="68.7986,-179.86 79,-177 69.2415,-172.874 68.7986,-179.86"/>
<text text-anchor="middle" x="37.5" y="-92.3" font-family="Times,serif" font-size="14.00" fill="#5b00c0">rw</text>
</g>
<!-- T5053&#45;&gt;T5051 -->
<g id="edge3" class="edge"><title>T5053:f0&#45;&gt;T5051:f2</title>
<path fill="none" stroke="#5b00c0" d="M144,-81C144,-59.7008 161.798,-56.0076 167.36,-40.2103"/>
<polygon fill="#5b00c0" stroke="#5b00c0" points="170.869,-40.4286 169,-30 163.958,-39.3182 170.869,-40.4286"/>
<text text-anchor="middle" x="169.5" y="-51.8" font-family="Times,serif" font-size="14.00" fill="#5b00c0">rw</text>
</g>
</g>
</svg>
