<?xml version="1.0" encoding="UTF-8" standalone="no"?>
<!DOCTYPE svg PUBLIC "-//W3C//DTD SVG 1.1//EN"
 "http://www.w3.org/Graphics/SVG/1.1/DTD/svg11.dtd">
<!-- Generated by graphviz version 2.38.0 (20140413.2041)
 -->
<!-- Title: a_graph Pages: 1 -->
<svg width="356pt" height="119pt"
 viewBox="0.00 0.00 356.00 119.00" xmlns="http://www.w3.org/2000/svg" xmlns:xlink="http://www.w3.org/1999/xlink">
<g id="graph0" class="graph" transform="scale(1 1) rotate(0) translate(4 115)">
<title>a_graph</title>
<polygon fill="white" stroke="none" points="-4,4 -4,-115 352,-115 352,4 -4,4"/>
<!-- T7514 -->
<g id="node1" class="node"><title>T7514</title>
<polygon fill="none" stroke="#0058ad" points="0,-81.5 0,-110.5 348,-110.5 348,-81.5 0,-81.5"/>
<text text-anchor="middle" x="28.5" y="-92.3" font-family="Times,serif" font-size="14.00" fill="#0058ad">a 518 1</text>
<polyline fill="none" stroke="#0058ad" points="57,-81.5 57,-110.5 "/>
<text text-anchor="middle" x="85.5" y="-92.3" font-family="Times,serif" font-size="14.00" fill="#0058ad">a 518 2</text>
<polyline fill="none" stroke="#0058ad" points="114,-81.5 114,-110.5 "/>
<text text-anchor="middle" x="172.5" y="-92.3" font-family="Times,serif" font-size="14.00" fill="#0058ad">r 517 [1 3 2 4 8 7]</text>
<polyline fill="none" stroke="#0058ad" points="231,-81.5 231,-110.5 "/>
<text text-anchor="middle" x="289.5" y="-92.3" font-family="Times,serif" font-size="14.00" fill="#0058ad">r 517 [1 3 2 4 8 7]</text>
</g>
<!-- T7519 -->
<g id="node2" class="node"><title>T7519</title>
<polygon fill="none" stroke="#0058ad" points="6,-0.5 6,-29.5 216,-29.5 216,-0.5 6,-0.5"/>
<text text-anchor="middle" x="34.5" y="-11.3" font-family="Times,serif" font-size="14.00" fill="#0058ad">a 517 5</text>
<polyline fill="none" stroke="#0058ad" points="63,-0.5 63,-29.5 "/>
<text text-anchor="middle" x="91.5" y="-11.3" font-family="Times,serif" font-size="14.00" fill="#0058ad">a 514 6</text>
<polyline fill="none" stroke="#0058ad" points="120,-0.5 120,-29.5 "/>
<text text-anchor="middle" x="168" y="-11.3" font-family="Times,serif" font-size="14.00" fill="#0058ad">r 518 [5 6 3 4]</text>
</g>
<!-- T7514&#45;&gt;T7519 -->
<g id="edge1" class="edge"><title>T7514:f2&#45;&gt;T7519:f0</title>
<path fill="none" stroke="#5b00c0" d="M172,-81C172,-74.0717 72.8441,-48.1173 42.6325,-35.3919"/>
<polygon fill="#5b00c0" stroke="#5b00c0" points="44.3357,-32.3291 34,-30 40.6273,-38.2662 44.3357,-32.3291"/>
<text text-anchor="middle" x="131.5" y="-51.8" font-family="Times,serif" font-size="14.00" fill="#5b00c0">rw</text>
</g>
<!-- T7519&#45;&gt;T7514 -->
<g id="edge2" class="edge"><title>T7519:f2&#45;&gt;T7514:f0</title>
<path fill="none" stroke="#5b00c0" d="M168,-30C168,-53.4547 85.0513,-37.6575 64,-48 48.0195,-55.8512 34.0322,-58.422 29.5214,-71.0736"/>
<polygon fill="#5b00c0" stroke="#5b00c0" points="26.0555,-70.5851 28,-81 32.9747,-71.6457 26.0555,-70.5851"/>
<text text-anchor="middle" x="71.5" y="-51.8" font-family="Times,serif" font-size="14.00" fill="#5b00c0">rw</text>
</g>
</g>
</svg>
