<?xml version="1.0" encoding="UTF-8" standalone="no"?>
<!DOCTYPE svg PUBLIC "-//W3C//DTD SVG 1.1//EN"
 "http://www.w3.org/Graphics/SVG/1.1/DTD/svg11.dtd">
<!-- Generated by graphviz version 2.38.0 (20140413.2041)
 -->
<!-- Title: a_graph Pages: 1 -->
<svg width="350pt" height="119pt"
 viewBox="0.00 0.00 349.50 119.00" xmlns="http://www.w3.org/2000/svg" xmlns:xlink="http://www.w3.org/1999/xlink">
<g id="graph0" class="graph" transform="scale(1 1) rotate(0) translate(4 115)">
<title>a_graph</title>
<polygon fill="white" stroke="none" points="-4,4 -4,-115 345.5,-115 345.5,4 -4,4"/>
<!-- T2693 -->
<g id="node1" class="node"><title>T2693</title>
<polygon fill="none" stroke="#0058ad" points="59.5,-81.5 59.5,-110.5 341.5,-110.5 341.5,-81.5 59.5,-81.5"/>
<text text-anchor="middle" x="88" y="-92.3" font-family="Times,serif" font-size="14.00" fill="#0058ad">a 189 3</text>
<polyline fill="none" stroke="#0058ad" points="116.5,-81.5 116.5,-110.5 "/>
<text text-anchor="middle" x="154" y="-92.3" font-family="Times,serif" font-size="14.00" fill="#0058ad">r 188 [3 4]</text>
<polyline fill="none" stroke="#0058ad" points="191.5,-81.5 191.5,-110.5 "/>
<text text-anchor="middle" x="229" y="-92.3" font-family="Times,serif" font-size="14.00" fill="#0058ad">r 189 [2 3]</text>
<polyline fill="none" stroke="#0058ad" points="266.5,-81.5 266.5,-110.5 "/>
<text text-anchor="middle" x="304" y="-92.3" font-family="Times,serif" font-size="14.00" fill="#0058ad">r 189 [2 3]</text>
</g>
<!-- T2681 -->
<g id="node2" class="node"><title>T2681</title>
<polygon fill="none" stroke="#0058ad" points="0,-0.5 0,-29.5 245,-29.5 245,-0.5 0,-0.5"/>
<text text-anchor="middle" x="29" y="-11.3" font-family="Times,serif" font-size="14.00" fill="#0058ad">r 190 []</text>
<polyline fill="none" stroke="#0058ad" points="58,-0.5 58,-29.5 "/>
<text text-anchor="middle" x="90.5" y="-11.3" font-family="Times,serif" font-size="14.00" fill="#0058ad">r 189 [2]</text>
<polyline fill="none" stroke="#0058ad" points="123,-0.5 123,-29.5 "/>
<text text-anchor="middle" x="151.5" y="-11.3" font-family="Times,serif" font-size="14.00" fill="#0058ad">a 188 5</text>
<polyline fill="none" stroke="#0058ad" points="180,-0.5 180,-29.5 "/>
<text text-anchor="middle" x="212.5" y="-11.3" font-family="Times,serif" font-size="14.00" fill="#0058ad">r 189 [2]</text>
</g>
<!-- T2693&#45;&gt;T2681 -->
<g id="edge1" class="edge"><title>T2693:f1&#45;&gt;T2681:f2</title>
<path fill="none" stroke="#5b00c0" d="M153.5,-81C153.5,-62.2147 152.128,-55.1238 151.657,-40.3584"/>
<polygon fill="#5b00c0" stroke="#5b00c0" points="155.151,-39.9458 151.5,-30 148.152,-40.0519 155.151,-39.9458"/>
<text text-anchor="middle" x="161" y="-51.8" font-family="Times,serif" font-size="14.00" fill="#5b00c0">rw</text>
</g>
<!-- T2681&#45;&gt;T2693 -->
<g id="edge2" class="edge"><title>T2681:f1&#45;&gt;T2693:f0</title>
<path fill="none" stroke="#5b00c0" d="M90.5,-30C90.5,-48.8033 88.4426,-55.8675 87.7354,-70.6355"/>
<polygon fill="#5b00c0" stroke="#5b00c0" points="84.2281,-70.9231 87.5,-81 91.2263,-71.0821 84.2281,-70.9231"/>
<text text-anchor="middle" x="98" y="-51.8" font-family="Times,serif" font-size="14.00" fill="#5b00c0">rw</text>
</g>
</g>
</svg>
