<?xml version="1.0" encoding="UTF-8" standalone="no"?>
<!DOCTYPE svg PUBLIC "-//W3C//DTD SVG 1.1//EN"
 "http://www.w3.org/Graphics/SVG/1.1/DTD/svg11.dtd">
<!-- Generated by graphviz version 2.38.0 (20140413.2041)
 -->
<!-- Title: a_graph Pages: 1 -->
<svg width="336pt" height="200pt"
 viewBox="0.00 0.00 336.00 200.00" xmlns="http://www.w3.org/2000/svg" xmlns:xlink="http://www.w3.org/1999/xlink">
<g id="graph0" class="graph" transform="scale(1 1) rotate(0) translate(4 196)">
<title>a_graph</title>
<polygon fill="white" stroke="none" points="-4,4 -4,-196 332,-196 332,4 -4,4"/>
<!-- T2181 -->
<g id="node1" class="node"><title>T2181</title>
<polygon fill="none" stroke="#0058ad" points="89.5,-162.5 89.5,-191.5 204.5,-191.5 204.5,-162.5 89.5,-162.5"/>
<text text-anchor="middle" x="118.5" y="-173.3" font-family="Times,serif" font-size="14.00" fill="#0058ad">r 155 []</text>
<polyline fill="none" stroke="#0058ad" points="147.5,-162.5 147.5,-191.5 "/>
<text text-anchor="middle" x="176" y="-173.3" font-family="Times,serif" font-size="14.00" fill="#0058ad">a 154 3</text>
</g>
<!-- T2175 -->
<g id="node3" class="node"><title>T2175</title>
<polygon fill="none" stroke="#0058ad" points="0,-81.5 0,-110.5 208,-110.5 208,-81.5 0,-81.5"/>
<text text-anchor="middle" x="43" y="-92.3" font-family="Times,serif" font-size="14.00" fill="#0058ad">r 149 [3 1 2]</text>
<polyline fill="none" stroke="#0058ad" points="86,-81.5 86,-110.5 "/>
<text text-anchor="middle" x="114.5" y="-92.3" font-family="Times,serif" font-size="14.00" fill="#0058ad">a 155 1</text>
<polyline fill="none" stroke="#0058ad" points="143,-81.5 143,-110.5 "/>
<text text-anchor="middle" x="175.5" y="-92.3" font-family="Times,serif" font-size="14.00" fill="#0058ad">r 154 [2]</text>
</g>
<!-- T2181&#45;&gt;T2175 -->
<g id="edge1" class="edge"><title>T2181:f0&#45;&gt;T2175:f1</title>
<path fill="none" stroke="#5b00c0" d="M118,-162C118,-143.197 115.943,-136.132 115.235,-121.365"/>
<polygon fill="#5b00c0" stroke="#5b00c0" points="118.726,-120.918 115,-111 111.728,-121.077 118.726,-120.918"/>
<text text-anchor="middle" x="125.5" y="-132.8" font-family="Times,serif" font-size="14.00" fill="#5b00c0">rw</text>
</g>
<!-- T2191 -->
<g id="node2" class="node"><title>T2191</title>
<polygon fill="none" stroke="#0058ad" points="92,-0.5 92,-29.5 328,-29.5 328,-0.5 92,-0.5"/>
<text text-anchor="middle" x="120.5" y="-11.3" font-family="Times,serif" font-size="14.00" fill="#0058ad">a 155 4</text>
<polyline fill="none" stroke="#0058ad" points="149,-0.5 149,-29.5 "/>
<text text-anchor="middle" x="177.5" y="-11.3" font-family="Times,serif" font-size="14.00" fill="#0058ad">a 155 5</text>
<polyline fill="none" stroke="#0058ad" points="206,-0.5 206,-29.5 "/>
<text text-anchor="middle" x="238.5" y="-11.3" font-family="Times,serif" font-size="14.00" fill="#0058ad">r 154 [2]</text>
<polyline fill="none" stroke="#0058ad" points="271,-0.5 271,-29.5 "/>
<text text-anchor="middle" x="299.5" y="-11.3" font-family="Times,serif" font-size="14.00" fill="#0058ad">a 149 4</text>
</g>
<!-- T2191&#45;&gt;T2181 -->
<g id="edge2" class="edge"><title>T2191:f2&#45;&gt;T2181:f1</title>
<path fill="none" stroke="#5b00c0" d="M239,-30C239,-93.2975 269.347,-168.285 216.102,-176.297"/>
<polygon fill="#5b00c0" stroke="#5b00c0" points="215.733,-172.814 206,-177 216.219,-179.797 215.733,-172.814"/>
<text text-anchor="middle" x="253.5" y="-92.3" font-family="Times,serif" font-size="14.00" fill="#5b00c0">rw</text>
</g>
<!-- T2175&#45;&gt;T2181 -->
<g id="edge3" class="edge"><title>T2175:f2&#45;&gt;T2181:f1</title>
<path fill="none" stroke="#5b00c0" d="M176,-111C176,-129.771 176,-136.883 176,-151.646"/>
<polygon fill="#5b00c0" stroke="#5b00c0" points="172.5,-152 176,-162 179.5,-152 172.5,-152"/>
<text text-anchor="middle" x="183.5" y="-132.8" font-family="Times,serif" font-size="14.00" fill="#5b00c0">rw</text>
</g>
<!-- T2175&#45;&gt;T2191 -->
<g id="edge4" class="edge"><title>T2175:f1&#45;&gt;T2191:f0</title>
<path fill="none" stroke="#c02700" d="M115,-81C115,-62.1392 118.429,-55.1604 119.608,-40.384"/>
<polygon fill="#c02700" stroke="#c02700" points="123.12,-40.125 120,-30 116.125,-39.8607 123.12,-40.125"/>
<text text-anchor="middle" x="129" y="-51.8" font-family="Times,serif" font-size="14.00" fill="#c02700">ww</text>
</g>
</g>
</svg>
