<?xml version="1.0" encoding="UTF-8" standalone="no"?>
<!DOCTYPE svg PUBLIC "-//W3C//DTD SVG 1.1//EN"
 "http://www.w3.org/Graphics/SVG/1.1/DTD/svg11.dtd">
<!-- Generated by graphviz version 2.38.0 (20140413.2041)
 -->
<!-- Title: a_graph Pages: 1 -->
<svg width="225pt" height="200pt"
 viewBox="0.00 0.00 225.00 200.00" xmlns="http://www.w3.org/2000/svg" xmlns:xlink="http://www.w3.org/1999/xlink">
<g id="graph0" class="graph" transform="scale(1 1) rotate(0) translate(4 196)">
<title>a_graph</title>
<polygon fill="white" stroke="none" points="-4,4 -4,-196 221,-196 221,4 -4,4"/>
<!-- T409 -->
<g id="node1" class="node"><title>T409</title>
<polygon fill="none" stroke="#0058ad" points="0,-162.5 0,-191.5 217,-191.5 217,-162.5 0,-162.5"/>
<text text-anchor="middle" x="25" y="-173.3" font-family="Times,serif" font-size="14.00" fill="#0058ad">a 32 2</text>
<polyline fill="none" stroke="#0058ad" points="50,-162.5 50,-191.5 "/>
<text text-anchor="middle" x="79" y="-173.3" font-family="Times,serif" font-size="14.00" fill="#0058ad">r 32 [2]</text>
<polyline fill="none" stroke="#0058ad" points="108,-162.5 108,-191.5 "/>
<text text-anchor="middle" x="133.5" y="-173.3" font-family="Times,serif" font-size="14.00" fill="#0058ad">r 33 []</text>
<polyline fill="none" stroke="#0058ad" points="159,-162.5 159,-191.5 "/>
<text text-anchor="middle" x="188" y="-173.3" font-family="Times,serif" font-size="14.00" fill="#0058ad">r 32 [2]</text>
</g>
<!-- T401 -->
<g id="node3" class="node"><title>T401</title>
<polygon fill="none" stroke="#0058ad" points="70.5,-81.5 70.5,-110.5 124.5,-110.5 124.5,-81.5 70.5,-81.5"/>
<text text-anchor="middle" x="97.5" y="-92.3" font-family="Times,serif" font-size="14.00" fill="#0058ad">a 33 1</text>
</g>
<!-- T409&#45;&gt;T401 -->
<g id="edge1" class="edge"><title>T409:f2&#45;&gt;T401:f0</title>
<path fill="none" stroke="#5b00c0" d="M133.5,-162C133.5,-146.246 125.497,-130.675 117.038,-118.618"/>
<polygon fill="#5b00c0" stroke="#5b00c0" points="119.728,-116.372 110.905,-110.506 114.144,-120.594 119.728,-116.372"/>
<text text-anchor="middle" x="137" y="-132.8" font-family="Times,serif" font-size="14.00" fill="#5b00c0">rw</text>
</g>
<!-- T405 -->
<g id="node2" class="node"><title>T405</title>
<polygon fill="none" stroke="#0058ad" points="6,-0.5 6,-29.5 175,-29.5 175,-0.5 6,-0.5"/>
<text text-anchor="middle" x="31" y="-11.3" font-family="Times,serif" font-size="14.00" fill="#0058ad">a 33 2</text>
<polyline fill="none" stroke="#0058ad" points="56,-0.5 56,-29.5 "/>
<text text-anchor="middle" x="81.5" y="-11.3" font-family="Times,serif" font-size="14.00" fill="#0058ad">r 32 []</text>
<polyline fill="none" stroke="#0058ad" points="107,-0.5 107,-29.5 "/>
<text text-anchor="middle" x="141" y="-11.3" font-family="Times,serif" font-size="14.00" fill="#0058ad">r 33 [1 2]</text>
</g>
<!-- T405&#45;&gt;T409 -->
<g id="edge2" class="edge"><title>T405:f1&#45;&gt;T409:f0</title>
<path fill="none" stroke="#5b00c0" d="M81.5,-30C81.5,-47.8885 56.2497,-33.7016 45.5,-48 16.6572,-86.3645 23.3296,-107.476 24.3766,-151.842"/>
<polygon fill="#5b00c0" stroke="#5b00c0" points="20.8787,-152.043 24.5,-162 27.8782,-151.958 20.8787,-152.043"/>
<text text-anchor="middle" x="35" y="-92.3" font-family="Times,serif" font-size="14.00" fill="#5b00c0">rw</text>
</g>
<!-- T401&#45;&gt;T405 -->
<g id="edge3" class="edge"><title>T401:f0&#45;&gt;T405:f0</title>
<path fill="none" stroke="#c02700" d="M81.6219,-81.4316C67.2267,-68.114 46.7626,-48.8836 36.6476,-37.9928"/>
<polygon fill="#c02700" stroke="#c02700" points="39.371,-35.7927 30.5,-30 33.8224,-40.0604 39.371,-35.7927"/>
<text text-anchor="middle" x="69.5" y="-51.8" font-family="Times,serif" font-size="14.00" fill="#c02700">ww</text>
</g>
</g>
</svg>
