<?xml version="1.0" encoding="UTF-8" standalone="no"?>
<!DOCTYPE svg PUBLIC "-//W3C//DTD SVG 1.1//EN"
 "http://www.w3.org/Graphics/SVG/1.1/DTD/svg11.dtd">
<!-- Generated by graphviz version 2.38.0 (20140413.2041)
 -->
<!-- Title: a_graph Pages: 1 -->
<svg width="653pt" height="524pt"
 viewBox="0.00 0.00 653.00 524.00" xmlns="http://www.w3.org/2000/svg" xmlns:xlink="http://www.w3.org/1999/xlink">
<g id="graph0" class="graph" transform="scale(1 1) rotate(0) translate(4 520)">
<title>a_graph</title>
<polygon fill="white" stroke="none" points="-4,4 -4,-520 649,-520 649,4 -4,4"/>
<!-- T2973 -->
<g id="node1" class="node"><title>T2973</title>
<polygon fill="none" stroke="#0058ad" points="222.5,-486.5 222.5,-515.5 484.5,-515.5 484.5,-486.5 222.5,-486.5"/>
<text text-anchor="middle" x="251" y="-497.3" font-family="Times,serif" font-size="14.00" fill="#0058ad">a 197 8</text>
<polyline fill="none" stroke="#0058ad" points="279.5,-486.5 279.5,-515.5 "/>
<text text-anchor="middle" x="317" y="-497.3" font-family="Times,serif" font-size="14.00" fill="#0058ad">r 206 [1 2]</text>
<polyline fill="none" stroke="#0058ad" points="354.5,-486.5 354.5,-515.5 "/>
<text text-anchor="middle" x="387" y="-497.3" font-family="Times,serif" font-size="14.00" fill="#0058ad">r 208 [1]</text>
<polyline fill="none" stroke="#0058ad" points="419.5,-486.5 419.5,-515.5 "/>
<text text-anchor="middle" x="452" y="-497.3" font-family="Times,serif" font-size="14.00" fill="#0058ad">r 208 [1]</text>
</g>
<!-- T2963 -->
<g id="node5" class="node"><title>T2963</title>
<polygon fill="none" stroke="#0058ad" points="288,-405.5 288,-434.5 517,-434.5 517,-405.5 288,-405.5"/>
<text text-anchor="middle" x="316.5" y="-416.3" font-family="Times,serif" font-size="14.00" fill="#0058ad">a 206 3</text>
<polyline fill="none" stroke="#0058ad" points="345,-405.5 345,-434.5 "/>
<text text-anchor="middle" x="388" y="-416.3" font-family="Times,serif" font-size="14.00" fill="#0058ad">r 206 [1 2 3]</text>
<polyline fill="none" stroke="#0058ad" points="431,-405.5 431,-434.5 "/>
<text text-anchor="middle" x="474" y="-416.3" font-family="Times,serif" font-size="14.00" fill="#0058ad">r 193 [1 2 3]</text>
</g>
<!-- T2973&#45;&gt;T2963 -->
<g id="edge1" class="edge"><title>T2973:f1&#45;&gt;T2963:f0</title>
<path fill="none" stroke="#5b00c0" d="M316.5,-486C316.5,-467.229 316.5,-460.117 316.5,-445.354"/>
<polygon fill="#5b00c0" stroke="#5b00c0" points="320,-445 316.5,-435 313,-445 320,-445"/>
<text text-anchor="middle" x="324" y="-456.8" font-family="Times,serif" font-size="14.00" fill="#5b00c0">rw</text>
</g>
<!-- T2993 -->
<g id="node2" class="node"><title>T2993</title>
<polygon fill="none" stroke="#0058ad" points="0,-0.5 0,-29.5 349,-29.5 349,-0.5 0,-0.5"/>
<text text-anchor="middle" x="28.5" y="-11.3" font-family="Times,serif" font-size="14.00" fill="#0058ad">a 203 4</text>
<polyline fill="none" stroke="#0058ad" points="57,-0.5 57,-29.5 "/>
<text text-anchor="middle" x="121" y="-11.3" font-family="Times,serif" font-size="14.00" fill="#0058ad">r 204 [2 7 8 1 6 3 4]</text>
<polyline fill="none" stroke="#0058ad" points="185,-0.5 185,-29.5 "/>
<text text-anchor="middle" x="238.5" y="-11.3" font-family="Times,serif" font-size="14.00" fill="#0058ad">r 197 [1 2 3 4 5]</text>
<polyline fill="none" stroke="#0058ad" points="292,-0.5 292,-29.5 "/>
<text text-anchor="middle" x="320.5" y="-11.3" font-family="Times,serif" font-size="14.00" fill="#0058ad">a 204 5</text>
</g>
<!-- T2993&#45;&gt;T2973 -->
<g id="edge2" class="edge"><title>T2993:f2&#45;&gt;T2973:f0</title>
<path fill="none" stroke="#5b00c0" d="M238.5,-30C238.5,-60.4987 216.5,-64.5013 216.5,-95 216.5,-421 216.5,-421 216.5,-421 216.5,-452.45 192.632,-490.72 211.549,-499.257"/>
<polygon fill="#5b00c0" stroke="#5b00c0" points="211.046,-502.722 221.5,-501 212.254,-495.827 211.046,-502.722"/>
<text text-anchor="middle" x="224" y="-254.3" font-family="Times,serif" font-size="14.00" fill="#5b00c0">rw</text>
</g>
<!-- T2943 -->
<g id="node3" class="node"><title>T2943</title>
<polygon fill="none" stroke="#0058ad" points="303.5,-162.5 303.5,-191.5 571.5,-191.5 571.5,-162.5 303.5,-162.5"/>
<text text-anchor="middle" x="346.5" y="-173.3" font-family="Times,serif" font-size="14.00" fill="#0058ad">r 193 [1 2 3]</text>
<polyline fill="none" stroke="#0058ad" points="389.5,-162.5 389.5,-191.5 "/>
<text text-anchor="middle" x="432.5" y="-173.3" font-family="Times,serif" font-size="14.00" fill="#0058ad">r 207 [5 6 7]</text>
<polyline fill="none" stroke="#0058ad" points="475.5,-162.5 475.5,-191.5 "/>
<text text-anchor="middle" x="523.5" y="-173.3" font-family="Times,serif" font-size="14.00" fill="#0058ad">r 197 [1 2 3 4]</text>
</g>
<!-- T2971 -->
<g id="node6" class="node"><title>T2971</title>
<polygon fill="none" stroke="#0058ad" points="320.5,-324.5 320.5,-353.5 586.5,-353.5 586.5,-324.5 320.5,-324.5"/>
<text text-anchor="middle" x="363.5" y="-335.3" font-family="Times,serif" font-size="14.00" fill="#0058ad">r 193 [1 2 3]</text>
<polyline fill="none" stroke="#0058ad" points="406.5,-324.5 406.5,-353.5 "/>
<text text-anchor="middle" x="435" y="-335.3" font-family="Times,serif" font-size="14.00" fill="#0058ad">a 193 4</text>
<polyline fill="none" stroke="#0058ad" points="463.5,-324.5 463.5,-353.5 "/>
<text text-anchor="middle" x="492.5" y="-335.3" font-family="Times,serif" font-size="14.00" fill="#0058ad">r 202 []</text>
<polyline fill="none" stroke="#0058ad" points="521.5,-324.5 521.5,-353.5 "/>
<text text-anchor="middle" x="554" y="-335.3" font-family="Times,serif" font-size="14.00" fill="#0058ad">r 207 [5]</text>
</g>
<!-- T2943&#45;&gt;T2971 -->
<g id="edge3" class="edge"><title>T2943:f0&#45;&gt;T2971:f1</title>
<path fill="none" stroke="#5b00c0" d="M346.5,-192C346.5,-228.273 337.316,-242.215 356.5,-273 376.352,-304.857 424.283,-286.842 433.095,-314.012"/>
<polygon fill="#5b00c0" stroke="#5b00c0" points="429.641,-314.585 434.5,-324 436.573,-313.61 429.641,-314.585"/>
<text text-anchor="middle" x="364" y="-254.3" font-family="Times,serif" font-size="14.00" fill="#5b00c0">rw</text>
</g>
<!-- T2935 -->
<g id="node7" class="node"><title>T2935</title>
<polygon fill="none" stroke="#0058ad" points="245,-81.5 245,-110.5 302,-110.5 302,-81.5 245,-81.5"/>
<text text-anchor="middle" x="273.5" y="-92.3" font-family="Times,serif" font-size="14.00" fill="#0058ad">a 197 5</text>
</g>
<!-- T2943&#45;&gt;T2935 -->
<g id="edge4" class="edge"><title>T2943:f2&#45;&gt;T2935:f0</title>
<path fill="none" stroke="#5b00c0" d="M523.5,-162C523.5,-114.348 368.757,-126.97 310.043,-113.383"/>
<polygon fill="#5b00c0" stroke="#5b00c0" points="310.837,-109.969 300.257,-110.521 308.872,-116.687 310.837,-109.969"/>
<text text-anchor="middle" x="518" y="-132.8" font-family="Times,serif" font-size="14.00" fill="#5b00c0">rw</text>
</g>
<!-- T2923 -->
<g id="node4" class="node"><title>T2923</title>
<polygon fill="none" stroke="#0058ad" points="380,-243.5 380,-272.5 645,-272.5 645,-243.5 380,-243.5"/>
<text text-anchor="middle" x="412.5" y="-254.3" font-family="Times,serif" font-size="14.00" fill="#0058ad">r 207 [5]</text>
<polyline fill="none" stroke="#0058ad" points="445,-243.5 445,-272.5 "/>
<text text-anchor="middle" x="473.5" y="-254.3" font-family="Times,serif" font-size="14.00" fill="#0058ad">a 207 6</text>
<polyline fill="none" stroke="#0058ad" points="502,-243.5 502,-272.5 "/>
<text text-anchor="middle" x="530.5" y="-254.3" font-family="Times,serif" font-size="14.00" fill="#0058ad">a 207 7</text>
<polyline fill="none" stroke="#0058ad" points="559,-243.5 559,-272.5 "/>
<text text-anchor="middle" x="602" y="-254.3" font-family="Times,serif" font-size="14.00" fill="#0058ad">r 193 [1 2 3]</text>
</g>
<!-- T2923&#45;&gt;T2943 -->
<g id="edge6" class="edge"><title>T2923:f2&#45;&gt;T2943:f1</title>
<path fill="none" stroke="#c000a5" d="M530.5,-243C530.5,-197.927 447.919,-234.005 434.37,-202.246"/>
<polygon fill="#c000a5" stroke="#c000a5" points="437.739,-201.209 432.5,-192 430.853,-202.466 437.739,-201.209"/>
<text text-anchor="middle" x="529" y="-213.8" font-family="Times,serif" font-size="14.00" fill="#c000a5">wr</text>
</g>
<!-- T2923&#45;&gt;T2971 -->
<g id="edge5" class="edge"><title>T2923:f3&#45;&gt;T2971:f1</title>
<path fill="none" stroke="#5b00c0" d="M602.5,-273C602.5,-303.045 495.528,-277.877 468.5,-291 453.108,-298.473 440.283,-301.686 436.014,-313.923"/>
<polygon fill="#5b00c0" stroke="#5b00c0" points="432.525,-313.591 434.5,-324 439.447,-314.631 432.525,-313.591"/>
<text text-anchor="middle" x="476" y="-294.8" font-family="Times,serif" font-size="14.00" fill="#5b00c0">rw</text>
</g>
<!-- T2963&#45;&gt;T2971 -->
<g id="edge7" class="edge"><title>T2963:f2&#45;&gt;T2971:f1</title>
<path fill="none" stroke="#5b00c0" d="M474.5,-405C474.5,-380.244 444.959,-381.647 436.651,-364.248"/>
<polygon fill="#5b00c0" stroke="#5b00c0" points="439.979,-363.068 434.5,-354 433.128,-364.506 439.979,-363.068"/>
<text text-anchor="middle" x="473" y="-375.8" font-family="Times,serif" font-size="14.00" fill="#5b00c0">rw</text>
</g>
<!-- T2971&#45;&gt;T2923 -->
<g id="edge8" class="edge"><title>T2971:f3&#45;&gt;T2923:f1</title>
<path fill="none" stroke="#5b00c0" d="M554.5,-324C554.5,-306.053 496.835,-297.227 478.815,-282.13"/>
<polygon fill="#5b00c0" stroke="#5b00c0" points="481.556,-279.882 473.5,-273 475.506,-283.403 481.556,-279.882"/>
<text text-anchor="middle" x="540" y="-294.8" font-family="Times,serif" font-size="14.00" fill="#5b00c0">rw</text>
</g>
<!-- T2935&#45;&gt;T2973 -->
<g id="edge9" class="edge"><title>T2935:f0&#45;&gt;T2973:f0</title>
<path fill="none" stroke="#c02700" d="M269.375,-110.611C265.246,-126.548 259.5,-152.876 259.5,-176 259.5,-421 259.5,-421 259.5,-421 259.5,-446.405 252.671,-454.742 250.91,-475.746"/>
<polygon fill="#c02700" stroke="#c02700" points="247.403,-475.868 250.5,-486 254.397,-476.148 247.403,-475.868"/>
<text text-anchor="middle" x="269.5" y="-294.8" font-family="Times,serif" font-size="14.00" fill="#c02700">ww</text>
</g>
<!-- T2935&#45;&gt;T2993 -->
<g id="edge10" class="edge"><title>T2935:f0&#45;&gt;T2993:f2</title>
<path fill="none" stroke="#c000a5" d="M260.467,-81.4304C252.227,-70.9462 242.57,-55.8978 239.493,-39.9859"/>
<polygon fill="#c000a5" stroke="#c000a5" points="242.973,-39.6044 238.5,-30 236.007,-40.2974 242.973,-39.6044"/>
<text text-anchor="middle" x="256" y="-51.8" font-family="Times,serif" font-size="14.00" fill="#c000a5">wr</text>
</g>
</g>
</svg>
