<?xml version="1.0" encoding="UTF-8" standalone="no"?>
<!DOCTYPE svg PUBLIC "-//W3C//DTD SVG 1.1//EN"
 "http://www.w3.org/Graphics/SVG/1.1/DTD/svg11.dtd">
<!-- Generated by graphviz version 2.38.0 (20140413.2041)
 -->
<!-- Title: a_graph Pages: 1 -->
<svg width="485pt" height="362pt"
 viewBox="0.00 0.00 485.00 362.00" xmlns="http://www.w3.org/2000/svg" xmlns:xlink="http://www.w3.org/1999/xlink">
<g id="graph0" class="graph" transform="scale(1 1) rotate(0) translate(4 358)">
<title>a_graph</title>
<polygon fill="white" stroke="none" points="-4,4 -4,-358 481,-358 481,4 -4,4"/>
<!-- T1332 -->
<g id="node1" class="node"><title>T1332</title>
<polygon fill="none" stroke="#0058ad" points="99.5,-324.5 99.5,-353.5 153.5,-353.5 153.5,-324.5 99.5,-324.5"/>
<text text-anchor="middle" x="126.5" y="-335.3" font-family="Times,serif" font-size="14.00" fill="#0058ad">a 96 5</text>
</g>
<!-- T1357 -->
<g id="node3" class="node"><title>T1357</title>
<polygon fill="none" stroke="#0058ad" points="164.5,-243.5 164.5,-272.5 392.5,-272.5 392.5,-243.5 164.5,-243.5"/>
<text text-anchor="middle" x="209" y="-254.3" font-family="Times,serif" font-size="14.00" fill="#0058ad">r 96 [1 2 3 5]</text>
<polyline fill="none" stroke="#0058ad" points="253.5,-243.5 253.5,-272.5 "/>
<text text-anchor="middle" x="298" y="-254.3" font-family="Times,serif" font-size="14.00" fill="#0058ad">r 96 [1 2 3 5]</text>
<polyline fill="none" stroke="#0058ad" points="342.5,-243.5 342.5,-272.5 "/>
<text text-anchor="middle" x="367.5" y="-254.3" font-family="Times,serif" font-size="14.00" fill="#0058ad">a 95 2</text>
</g>
<!-- T1332&#45;&gt;T1357 -->
<g id="edge1" class="edge"><title>T1332:f0&#45;&gt;T1357:f0</title>
<path fill="none" stroke="#c000a5" d="M152.445,-324.285C171.589,-312.699 195.818,-296.295 204.871,-282.712"/>
<polygon fill="#c000a5" stroke="#c000a5" points="208.278,-283.593 208.5,-273 201.721,-281.142 208.278,-283.593"/>
<text text-anchor="middle" x="205" y="-294.8" font-family="Times,serif" font-size="14.00" fill="#c000a5">wr</text>
</g>
<!-- T1351 -->
<g id="node6" class="node"><title>T1351</title>
<polygon fill="none" stroke="#0058ad" points="125,-162.5 125,-191.5 276,-191.5 276,-162.5 125,-162.5"/>
<text text-anchor="middle" x="150.5" y="-173.3" font-family="Times,serif" font-size="14.00" fill="#0058ad">r 95 []</text>
<polyline fill="none" stroke="#0058ad" points="176,-162.5 176,-191.5 "/>
<text text-anchor="middle" x="201" y="-173.3" font-family="Times,serif" font-size="14.00" fill="#0058ad">a 96 6</text>
<polyline fill="none" stroke="#0058ad" points="226,-162.5 226,-191.5 "/>
<text text-anchor="middle" x="251" y="-173.3" font-family="Times,serif" font-size="14.00" fill="#0058ad">a 96 7</text>
</g>
<!-- T1332&#45;&gt;T1351 -->
<g id="edge2" class="edge"><title>T1332:f0&#45;&gt;T1351:f1</title>
<path fill="none" stroke="#c02700" d="M124.425,-324.296C122.367,-304.506 121.293,-268.81 135.5,-243 151.491,-213.95 191.685,-225.726 199.986,-201.998"/>
<polygon fill="#c02700" stroke="#c02700" points="203.463,-202.411 201.5,-192 196.542,-201.363 203.463,-202.411"/>
<text text-anchor="middle" x="145.5" y="-254.3" font-family="Times,serif" font-size="14.00" fill="#c02700">ww</text>
</g>
<!-- T1339 -->
<g id="node2" class="node"><title>T1339</title>
<polygon fill="none" stroke="#0058ad" points="110.5,-81.5 110.5,-110.5 296.5,-110.5 296.5,-81.5 110.5,-81.5"/>
<text text-anchor="middle" x="144.5" y="-92.3" font-family="Times,serif" font-size="14.00" fill="#0058ad">r 96 [1 2]</text>
<polyline fill="none" stroke="#0058ad" points="178.5,-81.5 178.5,-110.5 "/>
<text text-anchor="middle" x="212.5" y="-92.3" font-family="Times,serif" font-size="14.00" fill="#0058ad">r 96 [1 2]</text>
<polyline fill="none" stroke="#0058ad" points="246.5,-81.5 246.5,-110.5 "/>
<text text-anchor="middle" x="271.5" y="-92.3" font-family="Times,serif" font-size="14.00" fill="#0058ad">a 95 1</text>
</g>
<!-- T1339&#45;&gt;T1357 -->
<g id="edge4" class="edge"><title>T1339:f2&#45;&gt;T1357:f2</title>
<path fill="none" stroke="#c02700" d="M297.5,-96C342.071,-96 308.362,-151.287 326.5,-192 333.479,-207.666 335.406,-211.922 346.5,-225 351.346,-230.712 358.084,-231.582 362.609,-234.172"/>
<polygon fill="#c02700" stroke="#c02700" points="359.592,-235.949 367.5,-243 365.715,-232.557 359.592,-235.949"/>
<text text-anchor="middle" x="336.5" y="-173.3" font-family="Times,serif" font-size="14.00" fill="#c02700">ww</text>
</g>
<!-- T1329 -->
<g id="node4" class="node"><title>T1329</title>
<polygon fill="none" stroke="#0058ad" points="0,-0.5 0,-29.5 169,-29.5 169,-0.5 0,-0.5"/>
<text text-anchor="middle" x="25.5" y="-11.3" font-family="Times,serif" font-size="14.00" fill="#0058ad">r 95 []</text>
<polyline fill="none" stroke="#0058ad" points="51,-0.5 51,-29.5 "/>
<text text-anchor="middle" x="85" y="-11.3" font-family="Times,serif" font-size="14.00" fill="#0058ad">r 96 [1 2]</text>
<polyline fill="none" stroke="#0058ad" points="119,-0.5 119,-29.5 "/>
<text text-anchor="middle" x="144" y="-11.3" font-family="Times,serif" font-size="14.00" fill="#0058ad">a 96 3</text>
</g>
<!-- T1339&#45;&gt;T1329 -->
<g id="edge6" class="edge"><title>T1339:f0&#45;&gt;T1329:f2</title>
<path fill="none" stroke="#5b00c0" d="M144.5,-81C144.5,-62.2292 144.5,-55.1168 144.5,-40.3535"/>
<polygon fill="#5b00c0" stroke="#5b00c0" points="148,-40 144.5,-30 141,-40 148,-40"/>
<text text-anchor="middle" x="152" y="-51.8" font-family="Times,serif" font-size="14.00" fill="#5b00c0">rw</text>
</g>
<!-- T1361 -->
<g id="node5" class="node"><title>T1361</title>
<polygon fill="none" stroke="#0058ad" points="318,-0.5 318,-29.5 477,-29.5 477,-0.5 318,-0.5"/>
<text text-anchor="middle" x="343.5" y="-11.3" font-family="Times,serif" font-size="14.00" fill="#0058ad">r 97 []</text>
<polyline fill="none" stroke="#0058ad" points="369,-0.5 369,-29.5 "/>
<text text-anchor="middle" x="398" y="-11.3" font-family="Times,serif" font-size="14.00" fill="#0058ad">r 95 [1]</text>
<polyline fill="none" stroke="#0058ad" points="427,-0.5 427,-29.5 "/>
<text text-anchor="middle" x="452" y="-11.3" font-family="Times,serif" font-size="14.00" fill="#0058ad">a 97 2</text>
</g>
<!-- T1339&#45;&gt;T1361 -->
<g id="edge3" class="edge"><title>T1339:f2&#45;&gt;T1361:f1</title>
<path fill="none" stroke="#c000a5" d="M297.5,-96C335.959,-96 337.157,-68.8104 369.5,-48 378.271,-42.3567 388.689,-43.1352 394.343,-39.2435"/>
<polygon fill="#c000a5" stroke="#c000a5" points="397.591,-40.5558 398.5,-30 391.207,-37.6849 397.591,-40.5558"/>
<text text-anchor="middle" x="377" y="-51.8" font-family="Times,serif" font-size="14.00" fill="#c000a5">wr</text>
</g>
<!-- T1343 -->
<g id="node7" class="node"><title>T1343</title>
<polygon fill="none" stroke="#0058ad" points="242.5,-0.5 242.5,-29.5 300.5,-29.5 300.5,-0.5 242.5,-0.5"/>
<text text-anchor="middle" x="271.5" y="-11.3" font-family="Times,serif" font-size="14.00" fill="#0058ad">r 95 [1]</text>
</g>
<!-- T1339&#45;&gt;T1343 -->
<g id="edge5" class="edge"><title>T1339:f2&#45;&gt;T1343:f0</title>
<path fill="none" stroke="#c000a5" d="M271.5,-81C271.5,-67.3521 271.5,-52.1166 271.5,-39.7254"/>
<polygon fill="#c000a5" stroke="#c000a5" points="275,-39.6796 271.5,-29.6796 268,-39.6797 275,-39.6796"/>
<text text-anchor="middle" x="279" y="-51.8" font-family="Times,serif" font-size="14.00" fill="#c000a5">wr</text>
</g>
<!-- T1357&#45;&gt;T1351 -->
<g id="edge7" class="edge"><title>T1357:f0&#45;&gt;T1351:f1</title>
<path fill="none" stroke="#5b00c0" d="M208.5,-243C208.5,-223.874 203.608,-217.074 202.003,-201.992"/>
<polygon fill="#5b00c0" stroke="#5b00c0" points="205.499,-201.811 201.5,-192 198.508,-202.163 205.499,-201.811"/>
<text text-anchor="middle" x="215" y="-213.8" font-family="Times,serif" font-size="14.00" fill="#5b00c0">rw</text>
</g>
<!-- T1329&#45;&gt;T1332 -->
<g id="edge9" class="edge"><title>T1329:f2&#45;&gt;T1332:f0</title>
<path fill="none" stroke="#c02700" d="M144.5,-30C144.5,-70.542 80.5,-54.458 80.5,-95 80.5,-259 80.5,-259 80.5,-259 80.5,-280.493 93.1328,-301.43 105.158,-316.49"/>
<polygon fill="#c02700" stroke="#c02700" points="102.563,-318.842 111.692,-324.219 107.909,-314.323 102.563,-318.842"/>
<text text-anchor="middle" x="90.5" y="-173.3" font-family="Times,serif" font-size="14.00" fill="#c02700">ww</text>
</g>
<!-- T1329&#45;&gt;T1339 -->
<g id="edge8" class="edge"><title>T1329:f0&#45;&gt;T1339:f2</title>
<path fill="none" stroke="#5b00c0" d="M25.5,-30C25.5,-45.4632 148.387,-44.7293 163.5,-48 184.578,-52.5616 249.189,-55.1207 266.944,-71.6775"/>
<polygon fill="#5b00c0" stroke="#5b00c0" points="263.965,-73.5524 271.5,-81 270.254,-70.4787 263.965,-73.5524"/>
<text text-anchor="middle" x="259" y="-51.8" font-family="Times,serif" font-size="14.00" fill="#5b00c0">rw</text>
</g>
<!-- T1361&#45;&gt;T1357 -->
<g id="edge10" class="edge"><title>T1361:f1&#45;&gt;T1357:f2</title>
<path fill="none" stroke="#5b00c0" d="M398.5,-30C398.5,-127.695 488.02,-248.881 403.726,-257.511"/>
<polygon fill="#5b00c0" stroke="#5b00c0" points="403.321,-254.026 393.5,-258 403.656,-261.018 403.321,-254.026"/>
<text text-anchor="middle" x="430" y="-132.8" font-family="Times,serif" font-size="14.00" fill="#5b00c0">rw</text>
</g>
<!-- T1351&#45;&gt;T1339 -->
<g id="edge11" class="edge"><title>T1351:f0&#45;&gt;T1339:f2</title>
<path fill="none" stroke="#5b00c0" d="M150.5,-162C150.5,-107.516 255.963,-161.178 269.97,-121.057"/>
<polygon fill="#5b00c0" stroke="#5b00c0" points="273.456,-121.413 271.5,-111 266.536,-120.36 273.456,-121.413"/>
<text text-anchor="middle" x="271" y="-132.8" font-family="Times,serif" font-size="14.00" fill="#5b00c0">rw</text>
</g>
<!-- T1343&#45;&gt;T1357 -->
<g id="edge12" class="edge"><title>T1343:f0&#45;&gt;T1357:f2</title>
<path fill="none" stroke="#5b00c0" d="M299.567,-29.5743C299.879,-29.7178 300.19,-29.8597 300.5,-30 320.499,-39.0554 333.169,-30.5567 346.5,-48 352.341,-55.6428 364.235,-193.274 366.943,-232.923"/>
<polygon fill="#5b00c0" stroke="#5b00c0" points="363.453,-233.208 367.5,-243 370.443,-232.822 363.453,-233.208"/>
<text text-anchor="middle" x="367" y="-132.8" font-family="Times,serif" font-size="14.00" fill="#5b00c0">rw</text>
</g>
</g>
</svg>
