<?xml version="1.0" encoding="UTF-8" standalone="no"?>
<!DOCTYPE svg PUBLIC "-//W3C//DTD SVG 1.1//EN"
 "http://www.w3.org/Graphics/SVG/1.1/DTD/svg11.dtd">
<!-- Generated by graphviz version 2.38.0 (20140413.2041)
 -->
<!-- Title: a_graph Pages: 1 -->
<svg width="338pt" height="281pt"
 viewBox="0.00 0.00 338.00 281.00" xmlns="http://www.w3.org/2000/svg" xmlns:xlink="http://www.w3.org/1999/xlink">
<g id="graph0" class="graph" transform="scale(1 1) rotate(0) translate(4 277)">
<title>a_graph</title>
<polygon fill="white" stroke="none" points="-4,4 -4,-277 334,-277 334,4 -4,4"/>
<!-- T6630 -->
<g id="node1" class="node"><title>T6630</title>
<polygon fill="none" stroke="#0058ad" points="0,-243.5 0,-272.5 260,-272.5 260,-243.5 0,-243.5"/>
<text text-anchor="middle" x="28.5" y="-254.3" font-family="Times,serif" font-size="14.00" fill="#0058ad">a 461 3</text>
<polyline fill="none" stroke="#0058ad" points="57,-243.5 57,-272.5 "/>
<text text-anchor="middle" x="100" y="-254.3" font-family="Times,serif" font-size="14.00" fill="#0058ad">r 457 [1 2 3]</text>
<polyline fill="none" stroke="#0058ad" points="143,-243.5 143,-272.5 "/>
<text text-anchor="middle" x="201.5" y="-254.3" font-family="Times,serif" font-size="14.00" fill="#0058ad">r 455 [1 2 3 4 6 7]</text>
</g>
<!-- T6616 -->
<g id="node4" class="node"><title>T6616</title>
<polygon fill="none" stroke="#0058ad" points="114.5,-162.5 114.5,-191.5 287.5,-191.5 287.5,-162.5 114.5,-162.5"/>
<text text-anchor="middle" x="143" y="-173.3" font-family="Times,serif" font-size="14.00" fill="#0058ad">a 455 8</text>
<polyline fill="none" stroke="#0058ad" points="171.5,-162.5 171.5,-191.5 "/>
<text text-anchor="middle" x="200.5" y="-173.3" font-family="Times,serif" font-size="14.00" fill="#0058ad">r 461 []</text>
<polyline fill="none" stroke="#0058ad" points="229.5,-162.5 229.5,-191.5 "/>
<text text-anchor="middle" x="258.5" y="-173.3" font-family="Times,serif" font-size="14.00" fill="#0058ad">r 461 []</text>
</g>
<!-- T6630&#45;&gt;T6616 -->
<g id="edge1" class="edge"><title>T6630:f2&#45;&gt;T6616:f0</title>
<path fill="none" stroke="#5b00c0" d="M202,-243C202,-212.265 155.61,-223.19 145.1,-201.894"/>
<polygon fill="#5b00c0" stroke="#5b00c0" points="148.5,-201.055 143,-192 141.653,-202.509 148.5,-201.055"/>
<text text-anchor="middle" x="199.5" y="-213.8" font-family="Times,serif" font-size="14.00" fill="#5b00c0">rw</text>
</g>
<!-- T6614 -->
<g id="node2" class="node"><title>T6614</title>
<polygon fill="none" stroke="#0058ad" points="96.5,-0.5 96.5,-29.5 153.5,-29.5 153.5,-0.5 96.5,-0.5"/>
<text text-anchor="middle" x="125" y="-11.3" font-family="Times,serif" font-size="14.00" fill="#0058ad">a 461 4</text>
</g>
<!-- T6614&#45;&gt;T6630 -->
<g id="edge2" class="edge"><title>T6614:f0&#45;&gt;T6630:f0</title>
<path fill="none" stroke="#c02700" d="M112.205,-29.5324C101.511,-42.3219 86.5219,-61.8418 77,-81 45.0901,-145.203 29.4945,-165.853 28.1026,-232.779"/>
<polygon fill="#c02700" stroke="#c02700" points="24.6006,-232.965 28,-243 31.6003,-233.036 24.6006,-232.965"/>
<text text-anchor="middle" x="63" y="-132.8" font-family="Times,serif" font-size="14.00" fill="#c02700">ww</text>
</g>
<!-- T6610 -->
<g id="node3" class="node"><title>T6610</title>
<polygon fill="none" stroke="#0058ad" points="86,-81.5 86,-110.5 330,-110.5 330,-81.5 86,-81.5"/>
<text text-anchor="middle" x="118.5" y="-92.3" font-family="Times,serif" font-size="14.00" fill="#0058ad">r 459 [1]</text>
<polyline fill="none" stroke="#0058ad" points="151,-81.5 151,-110.5 "/>
<text text-anchor="middle" x="179.5" y="-92.3" font-family="Times,serif" font-size="14.00" fill="#0058ad">a 461 1</text>
<polyline fill="none" stroke="#0058ad" points="208,-81.5 208,-110.5 "/>
<text text-anchor="middle" x="240.5" y="-92.3" font-family="Times,serif" font-size="14.00" fill="#0058ad">r 461 [1]</text>
<polyline fill="none" stroke="#0058ad" points="273,-81.5 273,-110.5 "/>
<text text-anchor="middle" x="301.5" y="-92.3" font-family="Times,serif" font-size="14.00" fill="#0058ad">a 461 2</text>
</g>
<!-- T6610&#45;&gt;T6614 -->
<g id="edge3" class="edge"><title>T6610:f3&#45;&gt;T6614:f0</title>
<path fill="none" stroke="#c02700" d="M302,-81C302,-14.4237 225.253,-53.6456 161.75,-33.2348"/>
<polygon fill="#c02700" stroke="#c02700" points="162.679,-29.8448 152.087,-29.5976 160.213,-36.3961 162.679,-29.8448"/>
<text text-anchor="middle" x="308" y="-51.8" font-family="Times,serif" font-size="14.00" fill="#c02700">ww</text>
</g>
<!-- T6616&#45;&gt;T6610 -->
<g id="edge4" class="edge"><title>T6616:f1&#45;&gt;T6610:f1</title>
<path fill="none" stroke="#5b00c0" d="M200,-162C200,-141.317 185.05,-136.68 180.378,-121.012"/>
<polygon fill="#5b00c0" stroke="#5b00c0" points="183.831,-120.429 179,-111 176.896,-121.384 183.831,-120.429"/>
<text text-anchor="middle" x="201.5" y="-132.8" font-family="Times,serif" font-size="14.00" fill="#5b00c0">rw</text>
</g>
</g>
</svg>
