<?xml version="1.0" encoding="UTF-8" standalone="no"?>
<!DOCTYPE svg PUBLIC "-//W3C//DTD SVG 1.1//EN"
 "http://www.w3.org/Graphics/SVG/1.1/DTD/svg11.dtd">
<!-- Generated by graphviz version 2.38.0 (20140413.2041)
 -->
<!-- Title: a_graph Pages: 1 -->
<svg width="241pt" height="119pt"
 viewBox="0.00 0.00 240.50 119.00" xmlns="http://www.w3.org/2000/svg" xmlns:xlink="http://www.w3.org/1999/xlink">
<g id="graph0" class="graph" transform="scale(1 1) rotate(0) translate(4 115)">
<title>a_graph</title>
<polygon fill="white" stroke="none" points="-4,4 -4,-115 236.5,-115 236.5,4 -4,4"/>
<!-- T3545 -->
<g id="node1" class="node"><title>T3545</title>
<polygon fill="none" stroke="#0058ad" points="0,-81.5 0,-110.5 180,-110.5 180,-81.5 0,-81.5"/>
<text text-anchor="middle" x="29" y="-92.3" font-family="Times,serif" font-size="14.00" fill="#0058ad">r 255 []</text>
<polyline fill="none" stroke="#0058ad" points="58,-81.5 58,-110.5 "/>
<text text-anchor="middle" x="86.5" y="-92.3" font-family="Times,serif" font-size="14.00" fill="#0058ad">a 255 1</text>
<polyline fill="none" stroke="#0058ad" points="115,-81.5 115,-110.5 "/>
<text text-anchor="middle" x="147.5" y="-92.3" font-family="Times,serif" font-size="14.00" fill="#0058ad">r 253 [1]</text>
</g>
<!-- T3541 -->
<g id="node2" class="node"><title>T3541</title>
<polygon fill="none" stroke="#0058ad" points="59.5,-0.5 59.5,-29.5 232.5,-29.5 232.5,-0.5 59.5,-0.5"/>
<text text-anchor="middle" x="88" y="-11.3" font-family="Times,serif" font-size="14.00" fill="#0058ad">a 253 2</text>
<polyline fill="none" stroke="#0058ad" points="116.5,-0.5 116.5,-29.5 "/>
<text text-anchor="middle" x="145.5" y="-11.3" font-family="Times,serif" font-size="14.00" fill="#0058ad">r 255 []</text>
<polyline fill="none" stroke="#0058ad" points="174.5,-0.5 174.5,-29.5 "/>
<text text-anchor="middle" x="203.5" y="-11.3" font-family="Times,serif" font-size="14.00" fill="#0058ad">r 255 []</text>
</g>
<!-- T3545&#45;&gt;T3541 -->
<g id="edge1" class="edge"><title>T3545:f2&#45;&gt;T3541:f0</title>
<path fill="none" stroke="#5b00c0" d="M148,-81C148,-58.9652 127.907,-62.1307 111,-48 104.775,-42.7973 97.3469,-42.1372 92.6512,-39.2048"/>
<polygon fill="#5b00c0" stroke="#5b00c0" points="95.6339,-37.3468 88,-30 89.3862,-40.5038 95.6339,-37.3468"/>
<text text-anchor="middle" x="145.5" y="-51.8" font-family="Times,serif" font-size="14.00" fill="#5b00c0">rw</text>
</g>
<!-- T3541&#45;&gt;T3545 -->
<g id="edge2" class="edge"><title>T3541:f1&#45;&gt;T3545:f1</title>
<path fill="none" stroke="#5b00c0" d="M145,-30C145,-54.877 108.246,-29.1606 92,-48 84.7746,-56.3787 84.9693,-62.2866 85.55,-70.8704"/>
<polygon fill="#5b00c0" stroke="#5b00c0" points="82.0596,-71.1652 86,-81 89.0527,-70.8545 82.0596,-71.1652"/>
<text text-anchor="middle" x="99.5" y="-51.8" font-family="Times,serif" font-size="14.00" fill="#5b00c0">rw</text>
</g>
</g>
</svg>
