<?xml version="1.0" encoding="UTF-8" standalone="no"?>
<!DOCTYPE svg PUBLIC "-//W3C//DTD SVG 1.1//EN"
 "http://www.w3.org/Graphics/SVG/1.1/DTD/svg11.dtd">
<!-- Generated by graphviz version 2.38.0 (20140413.2041)
 -->
<!-- Title: a_graph Pages: 1 -->
<svg width="391pt" height="200pt"
 viewBox="0.00 0.00 391.00 200.00" xmlns="http://www.w3.org/2000/svg" xmlns:xlink="http://www.w3.org/1999/xlink">
<g id="graph0" class="graph" transform="scale(1 1) rotate(0) translate(4 196)">
<title>a_graph</title>
<polygon fill="white" stroke="none" points="-4,4 -4,-196 387,-196 387,4 -4,4"/>
<!-- T9507 -->
<g id="node1" class="node"><title>T9507</title>
<polygon fill="none" stroke="#0058ad" points="154,-162.5 154,-191.5 383,-191.5 383,-162.5 154,-162.5"/>
<text text-anchor="middle" x="197" y="-173.3" font-family="Times,serif" font-size="14.00" fill="#0058ad">r 657 [1 3 4]</text>
<polyline fill="none" stroke="#0058ad" points="240,-162.5 240,-191.5 "/>
<text text-anchor="middle" x="268.5" y="-173.3" font-family="Times,serif" font-size="14.00" fill="#0058ad">a 659 4</text>
<polyline fill="none" stroke="#0058ad" points="297,-162.5 297,-191.5 "/>
<text text-anchor="middle" x="340" y="-173.3" font-family="Times,serif" font-size="14.00" fill="#0058ad">r 657 [1 3 4]</text>
</g>
<!-- T9505 -->
<g id="node3" class="node"><title>T9505</title>
<polygon fill="none" stroke="#0058ad" points="0,-81.5 0,-110.5 143,-110.5 143,-81.5 0,-81.5"/>
<text text-anchor="middle" x="43" y="-92.3" font-family="Times,serif" font-size="14.00" fill="#0058ad">r 657 [1 3 4]</text>
<polyline fill="none" stroke="#0058ad" points="86,-81.5 86,-110.5 "/>
<text text-anchor="middle" x="114.5" y="-92.3" font-family="Times,serif" font-size="14.00" fill="#0058ad">a 657 7</text>
</g>
<!-- T9507&#45;&gt;T9505 -->
<g id="edge1" class="edge"><title>T9507:f0&#45;&gt;T9505:f1</title>
<path fill="none" stroke="#5b00c0" d="M152.5,-177C122.09,-177 115.65,-151.047 114.655,-121.229"/>
<polygon fill="#5b00c0" stroke="#5b00c0" points="118.151,-120.946 114.5,-111 111.152,-121.052 118.151,-120.946"/>
<text text-anchor="middle" x="125" y="-132.8" font-family="Times,serif" font-size="14.00" fill="#5b00c0">rw</text>
</g>
<!-- T9509 -->
<g id="node2" class="node"><title>T9509</title>
<polygon fill="none" stroke="#0058ad" points="46,-0.5 46,-29.5 313,-29.5 313,-0.5 46,-0.5"/>
<text text-anchor="middle" x="94" y="-11.3" font-family="Times,serif" font-size="14.00" fill="#0058ad">r 657 [1 3 4 7]</text>
<polyline fill="none" stroke="#0058ad" points="142,-0.5 142,-29.5 "/>
<text text-anchor="middle" x="190" y="-11.3" font-family="Times,serif" font-size="14.00" fill="#0058ad">r 657 [1 3 4 7]</text>
<polyline fill="none" stroke="#0058ad" points="238,-0.5 238,-29.5 "/>
<text text-anchor="middle" x="275.5" y="-11.3" font-family="Times,serif" font-size="14.00" fill="#0058ad">r 659 [1 2]</text>
</g>
<!-- T9509&#45;&gt;T9507 -->
<g id="edge2" class="edge"><title>T9509:f2&#45;&gt;T9507:f1</title>
<path fill="none" stroke="#5b00c0" d="M275.5,-30C275.5,-85.192 269.322,-101.333 268.574,-151.796"/>
<polygon fill="#5b00c0" stroke="#5b00c0" points="265.073,-151.975 268.5,-162 272.072,-152.026 265.073,-151.975"/>
<text text-anchor="middle" x="280" y="-92.3" font-family="Times,serif" font-size="14.00" fill="#5b00c0">rw</text>
</g>
<!-- T9505&#45;&gt;T9509 -->
<g id="edge3" class="edge"><title>T9505:f1&#45;&gt;T9509:f0</title>
<path fill="none" stroke="#c000a5" d="M114.5,-81C114.5,-60.3171 99.5498,-55.6802 94.8779,-40.0116"/>
<polygon fill="#c000a5" stroke="#c000a5" points="98.3308,-39.4294 93.5,-30 91.3962,-40.3838 98.3308,-39.4294"/>
<text text-anchor="middle" x="117" y="-51.8" font-family="Times,serif" font-size="14.00" fill="#c000a5">wr</text>
</g>
</g>
</svg>
