<?xml version="1.0" encoding="UTF-8" standalone="no"?>
<!DOCTYPE svg PUBLIC "-//W3C//DTD SVG 1.1//EN"
 "http://www.w3.org/Graphics/SVG/1.1/DTD/svg11.dtd">
<!-- Generated by graphviz version 2.38.0 (20140413.2041)
 -->
<!-- Title: a_graph Pages: 1 -->
<svg width="457pt" height="362pt"
 viewBox="0.00 0.00 456.50 362.00" xmlns="http://www.w3.org/2000/svg" xmlns:xlink="http://www.w3.org/1999/xlink">
<g id="graph0" class="graph" transform="scale(1 1) rotate(0) translate(4 358)">
<title>a_graph</title>
<polygon fill="white" stroke="none" points="-4,4 -4,-358 452.5,-358 452.5,4 -4,4"/>
<!-- T10525 -->
<g id="node1" class="node"><title>T10525</title>
<polygon fill="none" stroke="#0058ad" points="85,-324.5 85,-353.5 374,-353.5 374,-324.5 85,-324.5"/>
<text text-anchor="middle" x="117.5" y="-335.3" font-family="Times,serif" font-size="14.00" fill="#0058ad">r 734 [1]</text>
<polyline fill="none" stroke="#0058ad" points="150,-324.5 150,-353.5 "/>
<text text-anchor="middle" x="214" y="-335.3" font-family="Times,serif" font-size="14.00" fill="#0058ad">r 730 [3 2 1 5 4 7 6]</text>
<polyline fill="none" stroke="#0058ad" points="278,-324.5 278,-353.5 "/>
<text text-anchor="middle" x="326" y="-335.3" font-family="Times,serif" font-size="14.00" fill="#0058ad">r 733 [2 3 1 4]</text>
</g>
<!-- T10529 -->
<g id="node2" class="node"><title>T10529</title>
<polygon fill="none" stroke="#0058ad" points="120,-243.5 120,-272.5 359,-272.5 359,-243.5 120,-243.5"/>
<text text-anchor="middle" x="152.5" y="-254.3" font-family="Times,serif" font-size="14.00" fill="#0058ad">r 734 [1]</text>
<polyline fill="none" stroke="#0058ad" points="185,-243.5 185,-272.5 "/>
<text text-anchor="middle" x="243.5" y="-254.3" font-family="Times,serif" font-size="14.00" fill="#0058ad">r 730 [3 2 1 5 4 7]</text>
<polyline fill="none" stroke="#0058ad" points="302,-243.5 302,-272.5 "/>
<text text-anchor="middle" x="330.5" y="-254.3" font-family="Times,serif" font-size="14.00" fill="#0058ad">a 734 2</text>
</g>
<!-- T10525&#45;&gt;T10529 -->
<g id="edge2" class="edge"><title>T10525:f0&#45;&gt;T10529:f2</title>
<path fill="none" stroke="#5b00c0" d="M83.5,-339C76.8185,-339 80.1121,-329.039 84.5,-324 155.466,-242.509 319.474,-375.559 329.971,-283.012"/>
<polygon fill="#5b00c0" stroke="#5b00c0" points="333.468,-283.171 330.5,-273 326.477,-282.801 333.468,-283.171"/>
<text text-anchor="middle" x="335" y="-294.8" font-family="Times,serif" font-size="14.00" fill="#5b00c0">rw</text>
</g>
<!-- T10535 -->
<g id="node5" class="node"><title>T10535</title>
<polygon fill="none" stroke="#0058ad" points="305.5,-0.5 305.5,-29.5 427.5,-29.5 427.5,-0.5 305.5,-0.5"/>
<text text-anchor="middle" x="334" y="-11.3" font-family="Times,serif" font-size="14.00" fill="#0058ad">a 733 7</text>
<polyline fill="none" stroke="#0058ad" points="362.5,-0.5 362.5,-29.5 "/>
<text text-anchor="middle" x="395" y="-11.3" font-family="Times,serif" font-size="14.00" fill="#0058ad">r 734 [1]</text>
</g>
<!-- T10525&#45;&gt;T10535 -->
<g id="edge1" class="edge"><title>T10525:f2&#45;&gt;T10535:f0</title>
<path fill="none" stroke="#5b00c0" d="M375.5,-339C419.417,-339 433.5,-302.917 433.5,-259 433.5,-259 433.5,-259 433.5,-135.5 433.5,-74.5538 344.507,-92.2029 334.426,-40.16"/>
<polygon fill="#5b00c0" stroke="#5b00c0" points="337.893,-39.641 333.5,-30 330.922,-40.2765 337.893,-39.641"/>
<text text-anchor="middle" x="441" y="-173.3" font-family="Times,serif" font-size="14.00" fill="#5b00c0">rw</text>
</g>
<!-- T10517 -->
<g id="node4" class="node"><title>T10517</title>
<polygon fill="none" stroke="#0058ad" points="58.5,-162.5 58.5,-191.5 310.5,-191.5 310.5,-162.5 58.5,-162.5"/>
<text text-anchor="middle" x="87" y="-173.3" font-family="Times,serif" font-size="14.00" fill="#0058ad">a 730 6</text>
<polyline fill="none" stroke="#0058ad" points="115.5,-162.5 115.5,-191.5 "/>
<text text-anchor="middle" x="184.5" y="-173.3" font-family="Times,serif" font-size="14.00" fill="#0058ad">r 732 [1 2 3 5 6 7 4 8]</text>
<polyline fill="none" stroke="#0058ad" points="253.5,-162.5 253.5,-191.5 "/>
<text text-anchor="middle" x="282" y="-173.3" font-family="Times,serif" font-size="14.00" fill="#0058ad">a 733 1</text>
</g>
<!-- T10529&#45;&gt;T10517 -->
<g id="edge3" class="edge"><title>T10529:f1&#45;&gt;T10517:f0</title>
<path fill="none" stroke="#5b00c0" d="M243.5,-243C243.5,-209.899 115.667,-224.878 90.6994,-201.168"/>
<polygon fill="#5b00c0" stroke="#5b00c0" points="93.8466,-199.634 86.5,-192 87.4825,-202.549 93.8466,-199.634"/>
<text text-anchor="middle" x="225" y="-213.8" font-family="Times,serif" font-size="14.00" fill="#5b00c0">rw</text>
</g>
<!-- T10523 -->
<g id="node3" class="node"><title>T10523</title>
<polygon fill="none" stroke="#0058ad" points="0,-81.5 0,-110.5 367,-110.5 367,-81.5 0,-81.5"/>
<text text-anchor="middle" x="43" y="-92.3" font-family="Times,serif" font-size="14.00" fill="#0058ad">r 733 [2 3 1]</text>
<polyline fill="none" stroke="#0058ad" points="86,-81.5 86,-110.5 "/>
<text text-anchor="middle" x="150" y="-92.3" font-family="Times,serif" font-size="14.00" fill="#0058ad">r 730 [3 2 1 5 4 7 6]</text>
<polyline fill="none" stroke="#0058ad" points="214,-81.5 214,-110.5 "/>
<text text-anchor="middle" x="242.5" y="-92.3" font-family="Times,serif" font-size="14.00" fill="#0058ad">a 733 4</text>
<polyline fill="none" stroke="#0058ad" points="271,-81.5 271,-110.5 "/>
<text text-anchor="middle" x="319" y="-92.3" font-family="Times,serif" font-size="14.00" fill="#0058ad">r 733 [2 3 1 4]</text>
</g>
<!-- T10523&#45;&gt;T10525 -->
<g id="edge5" class="edge"><title>T10523:f2&#45;&gt;T10525:f2</title>
<path fill="none" stroke="#c000a5" d="M242.5,-111C242.5,-140.164 353.187,-107.146 372.5,-129 400.991,-161.24 419.165,-312.507 385.266,-335.945"/>
<polygon fill="#c000a5" stroke="#c000a5" points="383.999,-332.674 375.5,-339 386.089,-339.355 383.999,-332.674"/>
<text text-anchor="middle" x="409" y="-213.8" font-family="Times,serif" font-size="14.00" fill="#c000a5">wr</text>
</g>
<!-- T10523&#45;&gt;T10535 -->
<g id="edge4" class="edge"><title>T10523:f2&#45;&gt;T10535:f0</title>
<path fill="none" stroke="#c02700" d="M242.5,-81C242.5,-44.3697 260.521,-19.7446 294.103,-15.6155"/>
<polygon fill="#c02700" stroke="#c02700" points="294.724,-19.0849 304.5,-15 294.311,-12.0971 294.724,-19.0849"/>
<text text-anchor="middle" x="258.5" y="-51.8" font-family="Times,serif" font-size="14.00" fill="#c02700">ww</text>
</g>
<!-- T10517&#45;&gt;T10525 -->
<g id="edge7" class="edge"><title>T10517:f0&#45;&gt;T10525:f1</title>
<path fill="none" stroke="#c000a5" d="M86.5,-192C86.5,-228.222 73.9632,-243.877 95.5,-273 127.215,-315.886 202.561,-273.35 212.428,-314.002"/>
<polygon fill="#c000a5" stroke="#c000a5" points="208.953,-314.43 213.5,-324 215.913,-313.684 208.953,-314.43"/>
<text text-anchor="middle" x="103" y="-254.3" font-family="Times,serif" font-size="14.00" fill="#c000a5">wr</text>
</g>
<!-- T10517&#45;&gt;T10523 -->
<g id="edge6" class="edge"><title>T10517:f2&#45;&gt;T10523:f2</title>
<path fill="none" stroke="#c02700" d="M282.5,-162C282.5,-137.244 252.959,-138.647 244.651,-121.248"/>
<polygon fill="#c02700" stroke="#c02700" points="247.979,-120.068 242.5,-111 241.128,-121.506 247.979,-120.068"/>
<text text-anchor="middle" x="284.5" y="-132.8" font-family="Times,serif" font-size="14.00" fill="#c02700">ww</text>
</g>
<!-- T10535&#45;&gt;T10529 -->
<g id="edge8" class="edge"><title>T10535:f1&#45;&gt;T10529:f2</title>
<path fill="none" stroke="#5b00c0" d="M395.5,-30C395.5,-125.497 334.99,-142.862 330.735,-232.865"/>
<polygon fill="#5b00c0" stroke="#5b00c0" points="327.233,-232.921 330.5,-243 334.231,-233.084 327.233,-232.921"/>
<text text-anchor="middle" x="375" y="-132.8" font-family="Times,serif" font-size="14.00" fill="#5b00c0">rw</text>
</g>
</g>
</svg>
