<?xml version="1.0" encoding="UTF-8" standalone="no"?>
<!DOCTYPE svg PUBLIC "-//W3C//DTD SVG 1.1//EN"
 "http://www.w3.org/Graphics/SVG/1.1/DTD/svg11.dtd">
<!-- Generated by graphviz version 2.38.0 (20140413.2041)
 -->
<!-- Title: a_graph Pages: 1 -->
<svg width="346pt" height="200pt"
 viewBox="0.00 0.00 346.00 200.00" xmlns="http://www.w3.org/2000/svg" xmlns:xlink="http://www.w3.org/1999/xlink">
<g id="graph0" class="graph" transform="scale(1 1) rotate(0) translate(4 196)">
<title>a_graph</title>
<polygon fill="white" stroke="none" points="-4,4 -4,-196 342,-196 342,4 -4,4"/>
<!-- T1744 -->
<g id="node1" class="node"><title>T1744</title>
<polygon fill="none" stroke="#0058ad" points="0,-162.5 0,-191.5 308,-191.5 308,-162.5 0,-162.5"/>
<text text-anchor="middle" x="29" y="-173.3" font-family="Times,serif" font-size="14.00" fill="#0058ad">r 125 []</text>
<polyline fill="none" stroke="#0058ad" points="58,-162.5 58,-191.5 "/>
<text text-anchor="middle" x="101" y="-173.3" font-family="Times,serif" font-size="14.00" fill="#0058ad">r 124 [1 2 3]</text>
<polyline fill="none" stroke="#0058ad" points="144,-162.5 144,-191.5 "/>
<text text-anchor="middle" x="197.5" y="-173.3" font-family="Times,serif" font-size="14.00" fill="#0058ad">r 117 [1 3 4 5 7]</text>
<polyline fill="none" stroke="#0058ad" points="251,-162.5 251,-191.5 "/>
<text text-anchor="middle" x="279.5" y="-173.3" font-family="Times,serif" font-size="14.00" fill="#0058ad">a 125 1</text>
</g>
<!-- T1750 -->
<g id="node2" class="node"><title>T1750</title>
<polygon fill="none" stroke="#0058ad" points="38.5,-81.5 38.5,-110.5 291.5,-110.5 291.5,-81.5 38.5,-81.5"/>
<text text-anchor="middle" x="71" y="-92.3" font-family="Times,serif" font-size="14.00" fill="#0058ad">r 126 [1]</text>
<polyline fill="none" stroke="#0058ad" points="103.5,-81.5 103.5,-110.5 "/>
<text text-anchor="middle" x="136" y="-92.3" font-family="Times,serif" font-size="14.00" fill="#0058ad">r 125 [1]</text>
<polyline fill="none" stroke="#0058ad" points="168.5,-81.5 168.5,-110.5 "/>
<text text-anchor="middle" x="201" y="-92.3" font-family="Times,serif" font-size="14.00" fill="#0058ad">r 126 [1]</text>
<polyline fill="none" stroke="#0058ad" points="233.5,-81.5 233.5,-110.5 "/>
<text text-anchor="middle" x="262.5" y="-92.3" font-family="Times,serif" font-size="14.00" fill="#0058ad">r 127 []</text>
</g>
<!-- T1744&#45;&gt;T1750 -->
<g id="edge1" class="edge"><title>T1744:f3&#45;&gt;T1750:f1</title>
<path fill="none" stroke="#c000a5" d="M280,-162C280,-97.9503 151.851,-169.78 137.334,-121.123"/>
<polygon fill="#c000a5" stroke="#c000a5" points="140.776,-120.457 136,-111 133.836,-121.372 140.776,-120.457"/>
<text text-anchor="middle" x="282.5" y="-132.8" font-family="Times,serif" font-size="14.00" fill="#c000a5">wr</text>
</g>
<!-- T1753 -->
<g id="node3" class="node"><title>T1753</title>
<polygon fill="none" stroke="#0058ad" points="71,-0.5 71,-29.5 329,-29.5 329,-0.5 71,-0.5"/>
<text text-anchor="middle" x="99.5" y="-11.3" font-family="Times,serif" font-size="14.00" fill="#0058ad">a 126 4</text>
<polyline fill="none" stroke="#0058ad" points="128,-0.5 128,-29.5 "/>
<text text-anchor="middle" x="156.5" y="-11.3" font-family="Times,serif" font-size="14.00" fill="#0058ad">a 126 5</text>
<polyline fill="none" stroke="#0058ad" points="185,-0.5 185,-29.5 "/>
<text text-anchor="middle" x="228" y="-11.3" font-family="Times,serif" font-size="14.00" fill="#0058ad">r 126 [1 4 5]</text>
<polyline fill="none" stroke="#0058ad" points="271,-0.5 271,-29.5 "/>
<text text-anchor="middle" x="300" y="-11.3" font-family="Times,serif" font-size="14.00" fill="#0058ad">r 125 []</text>
</g>
<!-- T1750&#45;&gt;T1753 -->
<g id="edge2" class="edge"><title>T1750:f0&#45;&gt;T1753:f0</title>
<path fill="none" stroke="#5b00c0" d="M71,-81C71,-58.9802 91.3044,-56.231 97.3323,-39.9322"/>
<polygon fill="#5b00c0" stroke="#5b00c0" points="100.796,-40.4415 99,-30 93.8924,-39.2824 100.796,-40.4415"/>
<text text-anchor="middle" x="100.5" y="-51.8" font-family="Times,serif" font-size="14.00" fill="#5b00c0">rw</text>
</g>
<!-- T1753&#45;&gt;T1744 -->
<g id="edge3" class="edge"><title>T1753:f3&#45;&gt;T1744:f3</title>
<path fill="none" stroke="#5b00c0" d="M300,-30C300,-91.6204 365.986,-167.499 319.108,-176.18"/>
<polygon fill="#5b00c0" stroke="#5b00c0" points="318.684,-172.703 309,-177 319.25,-179.68 318.684,-172.703"/>
<text text-anchor="middle" x="330.5" y="-92.3" font-family="Times,serif" font-size="14.00" fill="#5b00c0">rw</text>
</g>
</g>
</svg>
