<?xml version="1.0" encoding="UTF-8" standalone="no"?>
<!DOCTYPE svg PUBLIC "-//W3C//DTD SVG 1.1//EN"
 "http://www.w3.org/Graphics/SVG/1.1/DTD/svg11.dtd">
<!-- Generated by graphviz version 2.38.0 (20140413.2041)
 -->
<!-- Title: a_graph Pages: 1 -->
<svg width="361pt" height="362pt"
 viewBox="0.00 0.00 360.50 362.00" xmlns="http://www.w3.org/2000/svg" xmlns:xlink="http://www.w3.org/1999/xlink">
<g id="graph0" class="graph" transform="scale(1 1) rotate(0) translate(4 358)">
<title>a_graph</title>
<polygon fill="white" stroke="none" points="-4,4 -4,-358 356.5,-358 356.5,4 -4,4"/>
<!-- T2763 -->
<g id="node1" class="node"><title>T2763</title>
<polygon fill="none" stroke="#0058ad" points="246.5,-324.5 246.5,-353.5 332.5,-353.5 332.5,-324.5 246.5,-324.5"/>
<text text-anchor="middle" x="289.5" y="-335.3" font-family="Times,serif" font-size="14.00" fill="#0058ad">r 196 [1 2 3]</text>
</g>
<!-- T2782 -->
<g id="node5" class="node"><title>T2782</title>
<polygon fill="none" stroke="#0058ad" points="0,-243.5 0,-272.5 297,-272.5 297,-243.5 0,-243.5"/>
<text text-anchor="middle" x="43" y="-254.3" font-family="Times,serif" font-size="14.00" fill="#0058ad">r 196 [1 2 3]</text>
<polyline fill="none" stroke="#0058ad" points="86,-243.5 86,-272.5 "/>
<text text-anchor="middle" x="114.5" y="-254.3" font-family="Times,serif" font-size="14.00" fill="#0058ad">a 196 6</text>
<polyline fill="none" stroke="#0058ad" points="143,-243.5 143,-272.5 "/>
<text text-anchor="middle" x="172" y="-254.3" font-family="Times,serif" font-size="14.00" fill="#0058ad">r 195 []</text>
<polyline fill="none" stroke="#0058ad" points="201,-243.5 201,-272.5 "/>
<text text-anchor="middle" x="249" y="-254.3" font-family="Times,serif" font-size="14.00" fill="#0058ad">r 196 [1 2 3 6]</text>
</g>
<!-- T2763&#45;&gt;T2782 -->
<g id="edge1" class="edge"><title>T2763:f0&#45;&gt;T2782:f1</title>
<path fill="none" stroke="#5b00c0" d="M248.027,-324.426C206.587,-309.742 145.892,-287.876 123.353,-277.923"/>
<polygon fill="#5b00c0" stroke="#5b00c0" points="124.941,-274.801 114.5,-273 121.539,-280.919 124.941,-274.801"/>
<text text-anchor="middle" x="199" y="-294.8" font-family="Times,serif" font-size="14.00" fill="#5b00c0">rw</text>
</g>
<!-- T2778 -->
<g id="node2" class="node"><title>T2778</title>
<polygon fill="none" stroke="#0058ad" points="150.5,-162.5 150.5,-191.5 330.5,-191.5 330.5,-162.5 150.5,-162.5"/>
<text text-anchor="middle" x="179" y="-173.3" font-family="Times,serif" font-size="14.00" fill="#0058ad">a 195 2</text>
<polyline fill="none" stroke="#0058ad" points="207.5,-162.5 207.5,-191.5 "/>
<text text-anchor="middle" x="236.5" y="-173.3" font-family="Times,serif" font-size="14.00" fill="#0058ad">r 196 []</text>
<polyline fill="none" stroke="#0058ad" points="265.5,-162.5 265.5,-191.5 "/>
<text text-anchor="middle" x="298" y="-173.3" font-family="Times,serif" font-size="14.00" fill="#0058ad">r 195 [2]</text>
</g>
<!-- T2759 -->
<g id="node4" class="node"><title>T2759</title>
<polygon fill="none" stroke="#0058ad" points="129,-81.5 129,-110.5 300,-110.5 300,-81.5 129,-81.5"/>
<text text-anchor="middle" x="157.5" y="-92.3" font-family="Times,serif" font-size="14.00" fill="#0058ad">a 196 1</text>
<polyline fill="none" stroke="#0058ad" points="186,-81.5 186,-110.5 "/>
<text text-anchor="middle" x="214.5" y="-92.3" font-family="Times,serif" font-size="14.00" fill="#0058ad">a 196 2</text>
<polyline fill="none" stroke="#0058ad" points="243,-81.5 243,-110.5 "/>
<text text-anchor="middle" x="271.5" y="-92.3" font-family="Times,serif" font-size="14.00" fill="#0058ad">a 196 3</text>
</g>
<!-- T2778&#45;&gt;T2759 -->
<g id="edge2" class="edge"><title>T2778:f1&#45;&gt;T2759:f0</title>
<path fill="none" stroke="#5b00c0" d="M236.5,-162C236.5,-124.126 171.618,-147.336 159.453,-120.915"/>
<polygon fill="#5b00c0" stroke="#5b00c0" points="162.866,-120.135 157.5,-111 155.998,-121.488 162.866,-120.135"/>
<text text-anchor="middle" x="234" y="-132.8" font-family="Times,serif" font-size="14.00" fill="#5b00c0">rw</text>
</g>
<!-- T2765 -->
<g id="node3" class="node"><title>T2765</title>
<polygon fill="none" stroke="#0058ad" points="82.5,-0.5 82.5,-29.5 168.5,-29.5 168.5,-0.5 82.5,-0.5"/>
<text text-anchor="middle" x="125.5" y="-11.3" font-family="Times,serif" font-size="14.00" fill="#0058ad">r 196 [1 2 3]</text>
</g>
<!-- T2765&#45;&gt;T2782 -->
<g id="edge3" class="edge"><title>T2765:f0&#45;&gt;T2782:f1</title>
<path fill="none" stroke="#5b00c0" d="M121.911,-29.6088C114.005,-63.9198 96.6939,-152.248 108.5,-225 109.091,-228.642 110.313,-230.928 111.501,-233.054"/>
<polygon fill="#5b00c0" stroke="#5b00c0" points="108.262,-234.436 114.5,-243 114.964,-232.415 108.262,-234.436"/>
<text text-anchor="middle" x="114" y="-132.8" font-family="Times,serif" font-size="14.00" fill="#5b00c0">rw</text>
</g>
<!-- T2759&#45;&gt;T2763 -->
<g id="edge4" class="edge"><title>T2759:f2&#45;&gt;T2763:f0</title>
<path fill="none" stroke="#c000a5" d="M301.5,-96C388.525,-96 327.701,-253.394 300.64,-314.839"/>
<polygon fill="#c000a5" stroke="#c000a5" points="297.357,-313.608 296.466,-324.165 303.746,-316.467 297.357,-313.608"/>
<text text-anchor="middle" x="345" y="-213.8" font-family="Times,serif" font-size="14.00" fill="#c000a5">wr</text>
</g>
<!-- T2759&#45;&gt;T2765 -->
<g id="edge5" class="edge"><title>T2759:f2&#45;&gt;T2765:f0</title>
<path fill="none" stroke="#c000a5" d="M271.5,-81C271.5,-70.3225 218.981,-48.7116 176.941,-33.1231"/>
<polygon fill="#c000a5" stroke="#c000a5" points="177.931,-29.7582 167.338,-29.5979 175.519,-36.3295 177.931,-29.7582"/>
<text text-anchor="middle" x="254" y="-51.8" font-family="Times,serif" font-size="14.00" fill="#c000a5">wr</text>
</g>
<!-- T2759&#45;&gt;T2782 -->
<g id="edge6" class="edge"><title>T2759:f2&#45;&gt;T2782:f1</title>
<path fill="none" stroke="#c02700" d="M271.5,-111C271.5,-135.331 185.76,-119.178 163.5,-129 141.781,-138.584 132.788,-141.116 121.5,-162 106.064,-190.56 112.714,-204.016 114.224,-232.66"/>
<polygon fill="#c02700" stroke="#c02700" points="110.735,-233.097 114.5,-243 117.732,-232.91 110.735,-233.097"/>
<text text-anchor="middle" x="131.5" y="-173.3" font-family="Times,serif" font-size="14.00" fill="#c02700">ww</text>
</g>
<!-- T2782&#45;&gt;T2778 -->
<g id="edge7" class="edge"><title>T2782:f2&#45;&gt;T2778:f0</title>
<path fill="none" stroke="#5b00c0" d="M172.5,-243C172.5,-224.1 176.615,-217.179 178.029,-202.397"/>
<polygon fill="#5b00c0" stroke="#5b00c0" points="181.544,-202.148 178.5,-192 174.551,-201.831 181.544,-202.148"/>
<text text-anchor="middle" x="185" y="-213.8" font-family="Times,serif" font-size="14.00" fill="#5b00c0">rw</text>
</g>
</g>
</svg>
