<?xml version="1.0" encoding="UTF-8" standalone="no"?>
<!DOCTYPE svg PUBLIC "-//W3C//DTD SVG 1.1//EN"
 "http://www.w3.org/Graphics/SVG/1.1/DTD/svg11.dtd">
<!-- Generated by graphviz version 2.38.0 (20140413.2041)
 -->
<!-- Title: a_graph Pages: 1 -->
<svg width="250pt" height="200pt"
 viewBox="0.00 0.00 249.50 200.00" xmlns="http://www.w3.org/2000/svg" xmlns:xlink="http://www.w3.org/1999/xlink">
<g id="graph0" class="graph" transform="scale(1 1) rotate(0) translate(4 196)">
<title>a_graph</title>
<polygon fill="white" stroke="none" points="-4,4 -4,-196 245.5,-196 245.5,4 -4,4"/>
<!-- T7787 -->
<g id="node1" class="node"><title>T7787</title>
<polygon fill="none" stroke="#0058ad" points="0,-162.5 0,-191.5 188,-191.5 188,-162.5 0,-162.5"/>
<text text-anchor="middle" x="32.5" y="-173.3" font-family="Times,serif" font-size="14.00" fill="#0058ad">r 542 [2]</text>
<polyline fill="none" stroke="#0058ad" points="65,-162.5 65,-191.5 "/>
<text text-anchor="middle" x="97.5" y="-173.3" font-family="Times,serif" font-size="14.00" fill="#0058ad">r 542 [2]</text>
<polyline fill="none" stroke="#0058ad" points="130,-162.5 130,-191.5 "/>
<text text-anchor="middle" x="159" y="-173.3" font-family="Times,serif" font-size="14.00" fill="#0058ad">r 543 []</text>
</g>
<!-- T7781 -->
<g id="node2" class="node"><title>T7781</title>
<polygon fill="none" stroke="#0058ad" points="68.5,-81.5 68.5,-110.5 241.5,-110.5 241.5,-81.5 68.5,-81.5"/>
<text text-anchor="middle" x="97.5" y="-92.3" font-family="Times,serif" font-size="14.00" fill="#0058ad">r 543 []</text>
<polyline fill="none" stroke="#0058ad" points="126.5,-81.5 126.5,-110.5 "/>
<text text-anchor="middle" x="155" y="-92.3" font-family="Times,serif" font-size="14.00" fill="#0058ad">a 543 1</text>
<polyline fill="none" stroke="#0058ad" points="183.5,-81.5 183.5,-110.5 "/>
<text text-anchor="middle" x="212.5" y="-92.3" font-family="Times,serif" font-size="14.00" fill="#0058ad">r 542 []</text>
</g>
<!-- T7787&#45;&gt;T7781 -->
<g id="edge1" class="edge"><title>T7787:f2&#45;&gt;T7781:f1</title>
<path fill="none" stroke="#5b00c0" d="M159,-162C159,-143.172 156.257,-136.145 155.314,-121.373"/>
<polygon fill="#5b00c0" stroke="#5b00c0" points="158.801,-120.89 155,-111 151.804,-121.101 158.801,-120.89"/>
<text text-anchor="middle" x="164.5" y="-132.8" font-family="Times,serif" font-size="14.00" fill="#5b00c0">rw</text>
</g>
<!-- T7775 -->
<g id="node3" class="node"><title>T7775</title>
<polygon fill="none" stroke="#0058ad" points="58.5,-0.5 58.5,-29.5 115.5,-29.5 115.5,-0.5 58.5,-0.5"/>
<text text-anchor="middle" x="87" y="-11.3" font-family="Times,serif" font-size="14.00" fill="#0058ad">a 542 2</text>
</g>
<!-- T7781&#45;&gt;T7775 -->
<g id="edge2" class="edge"><title>T7781:f2&#45;&gt;T7775:f0</title>
<path fill="none" stroke="#5b00c0" d="M213,-81C213,-35.2559 165.626,-50.3798 123.326,-33.7449"/>
<polygon fill="#5b00c0" stroke="#5b00c0" points="124.667,-30.5097 114.117,-29.5336 121.756,-36.8756 124.667,-30.5097"/>
<text text-anchor="middle" x="216.5" y="-51.8" font-family="Times,serif" font-size="14.00" fill="#5b00c0">rw</text>
</g>
<!-- T7775&#45;&gt;T7787 -->
<g id="edge3" class="edge"><title>T7775:f0&#45;&gt;T7787:f0</title>
<path fill="none" stroke="#c000a5" d="M74.7275,-29.7098C64.7831,-42.4555 51.2697,-61.8179 44,-81 32.4127,-111.575 31.96,-123.217 31.9876,-151.659"/>
<polygon fill="#c000a5" stroke="#c000a5" points="28.4879,-152.004 32,-162 35.4879,-151.996 28.4879,-152.004"/>
<text text-anchor="middle" x="51.5" y="-92.3" font-family="Times,serif" font-size="14.00" fill="#c000a5">wr</text>
</g>
</g>
</svg>
