<?xml version="1.0" encoding="UTF-8" standalone="no"?>
<!DOCTYPE svg PUBLIC "-//W3C//DTD SVG 1.1//EN"
 "http://www.w3.org/Graphics/SVG/1.1/DTD/svg11.dtd">
<!-- Generated by graphviz version 2.38.0 (20140413.2041)
 -->
<!-- Title: a_graph Pages: 1 -->
<svg width="332pt" height="119pt"
 viewBox="0.00 0.00 332.00 119.00" xmlns="http://www.w3.org/2000/svg" xmlns:xlink="http://www.w3.org/1999/xlink">
<g id="graph0" class="graph" transform="scale(1 1) rotate(0) translate(4 115)">
<title>a_graph</title>
<polygon fill="white" stroke="none" points="-4,4 -4,-115 328,-115 328,4 -4,4"/>
<!-- T4785 -->
<g id="node1" class="node"><title>T4785</title>
<polygon fill="none" stroke="#0058ad" points="5,-81.5 5,-110.5 169,-110.5 169,-81.5 5,-81.5"/>
<text text-anchor="middle" x="58.5" y="-92.3" font-family="Times,serif" font-size="14.00" fill="#0058ad">r 333 [2 4 6 3 5]</text>
<polyline fill="none" stroke="#0058ad" points="112,-81.5 112,-110.5 "/>
<text text-anchor="middle" x="140.5" y="-92.3" font-family="Times,serif" font-size="14.00" fill="#0058ad">a 335 8</text>
</g>
<!-- T4798 -->
<g id="node2" class="node"><title>T4798</title>
<polygon fill="none" stroke="#0058ad" points="0,-0.5 0,-29.5 324,-29.5 324,-0.5 0,-0.5"/>
<text text-anchor="middle" x="28.5" y="-11.3" font-family="Times,serif" font-size="14.00" fill="#0058ad">a 333 8</text>
<polyline fill="none" stroke="#0058ad" points="57,-0.5 57,-29.5 "/>
<text text-anchor="middle" x="94.5" y="-11.3" font-family="Times,serif" font-size="14.00" fill="#0058ad">r 337 [2 3]</text>
<polyline fill="none" stroke="#0058ad" points="132,-0.5 132,-29.5 "/>
<text text-anchor="middle" x="190.5" y="-11.3" font-family="Times,serif" font-size="14.00" fill="#0058ad">r 335 [1 2 5 6 4 3]</text>
<polyline fill="none" stroke="#0058ad" points="249,-0.5 249,-29.5 "/>
<text text-anchor="middle" x="286.5" y="-11.3" font-family="Times,serif" font-size="14.00" fill="#0058ad">r 337 [2 3]</text>
</g>
<!-- T4785&#45;&gt;T4798 -->
<g id="edge1" class="edge"><title>T4785:f0&#45;&gt;T4798:f0</title>
<path fill="none" stroke="#5b00c0" d="M58,-81C58,-58.6061 36.2452,-56.4385 29.7868,-40.0493"/>
<polygon fill="#5b00c0" stroke="#5b00c0" points="33.1966,-39.2329 28,-30 26.3047,-40.4583 33.1966,-39.2329"/>
<text text-anchor="middle" x="58.5" y="-51.8" font-family="Times,serif" font-size="14.00" fill="#5b00c0">rw</text>
</g>
<!-- T4798&#45;&gt;T4785 -->
<g id="edge2" class="edge"><title>T4798:f2&#45;&gt;T4785:f1</title>
<path fill="none" stroke="#5b00c0" d="M191,-30C191,-56.6941 198.356,-86.7236 180.236,-94.2293"/>
<polygon fill="#5b00c0" stroke="#5b00c0" points="179.257,-90.8466 170,-96 180.45,-97.7441 179.257,-90.8466"/>
<text text-anchor="middle" x="199.5" y="-51.8" font-family="Times,serif" font-size="14.00" fill="#5b00c0">rw</text>
</g>
</g>
</svg>
