<?xml version="1.0" encoding="UTF-8" standalone="no"?>
<!DOCTYPE svg PUBLIC "-//W3C//DTD SVG 1.1//EN"
 "http://www.w3.org/Graphics/SVG/1.1/DTD/svg11.dtd">
<!-- Generated by graphviz version 2.38.0 (20140413.2041)
 -->
<!-- Title: a_graph Pages: 1 -->
<svg width="219pt" height="119pt"
 viewBox="0.00 0.00 219.00 119.00" xmlns="http://www.w3.org/2000/svg" xmlns:xlink="http://www.w3.org/1999/xlink">
<g id="graph0" class="graph" transform="scale(1 1) rotate(0) translate(4 115)">
<title>a_graph</title>
<polygon fill="white" stroke="none" points="-4,4 -4,-115 215,-115 215,4 -4,4"/>
<!-- T8149 -->
<g id="node1" class="node"><title>T8149</title>
<polygon fill="none" stroke="#0058ad" points="0,-81.5 0,-110.5 211,-110.5 211,-81.5 0,-81.5"/>
<text text-anchor="middle" x="48" y="-92.3" font-family="Times,serif" font-size="14.00" fill="#0058ad">r 563 [1 2 3 6]</text>
<polyline fill="none" stroke="#0058ad" points="96,-81.5 96,-110.5 "/>
<text text-anchor="middle" x="125" y="-92.3" font-family="Times,serif" font-size="14.00" fill="#0058ad">r 561 []</text>
<polyline fill="none" stroke="#0058ad" points="154,-81.5 154,-110.5 "/>
<text text-anchor="middle" x="182.5" y="-92.3" font-family="Times,serif" font-size="14.00" fill="#0058ad">a 565 2</text>
</g>
<!-- T8139 -->
<g id="node2" class="node"><title>T8139</title>
<polygon fill="none" stroke="#0058ad" points="34,-0.5 34,-29.5 149,-29.5 149,-0.5 34,-0.5"/>
<text text-anchor="middle" x="63" y="-11.3" font-family="Times,serif" font-size="14.00" fill="#0058ad">r 565 []</text>
<polyline fill="none" stroke="#0058ad" points="92,-0.5 92,-29.5 "/>
<text text-anchor="middle" x="120.5" y="-11.3" font-family="Times,serif" font-size="14.00" fill="#0058ad">a 563 7</text>
</g>
<!-- T8149&#45;&gt;T8139 -->
<g id="edge1" class="edge"><title>T8149:f0&#45;&gt;T8139:f1</title>
<path fill="none" stroke="#5b00c0" d="M47.5,-81C47.5,-45.4416 106.425,-64.5575 118.394,-40.1048"/>
<polygon fill="#5b00c0" stroke="#5b00c0" points="121.886,-40.5038 120.5,-30 115.033,-39.0755 121.886,-40.5038"/>
<text text-anchor="middle" x="117" y="-51.8" font-family="Times,serif" font-size="14.00" fill="#5b00c0">rw</text>
</g>
<!-- T8139&#45;&gt;T8149 -->
<g id="edge2" class="edge"><title>T8139:f0&#45;&gt;T8149:f2</title>
<path fill="none" stroke="#5b00c0" d="M62.5,-30C62.5,-60.4047 100.584,-35.9529 128.5,-48 150.693,-57.5773 174.622,-54.2927 180.913,-71.0307"/>
<polygon fill="#5b00c0" stroke="#5b00c0" points="177.472,-71.6744 182.5,-81 184.385,-70.5742 177.472,-71.6744"/>
<text text-anchor="middle" x="182" y="-51.8" font-family="Times,serif" font-size="14.00" fill="#5b00c0">rw</text>
</g>
</g>
</svg>
