<?xml version="1.0" encoding="UTF-8" standalone="no"?>
<!DOCTYPE svg PUBLIC "-//W3C//DTD SVG 1.1//EN"
 "http://www.w3.org/Graphics/SVG/1.1/DTD/svg11.dtd">
<!-- Generated by graphviz version 2.38.0 (20140413.2041)
 -->
<!-- Title: a_graph Pages: 1 -->
<svg width="239pt" height="119pt"
 viewBox="0.00 0.00 239.00 119.00" xmlns="http://www.w3.org/2000/svg" xmlns:xlink="http://www.w3.org/1999/xlink">
<g id="graph0" class="graph" transform="scale(1 1) rotate(0) translate(4 115)">
<title>a_graph</title>
<polygon fill="white" stroke="none" points="-4,4 -4,-115 235,-115 235,4 -4,4"/>
<!-- T6453 -->
<g id="node1" class="node"><title>T6453</title>
<polygon fill="none" stroke="#0058ad" points="49,-81.5 49,-110.5 192,-110.5 192,-81.5 49,-81.5"/>
<text text-anchor="middle" x="92" y="-92.3" font-family="Times,serif" font-size="14.00" fill="#0058ad">r 445 [2 3 6]</text>
<polyline fill="none" stroke="#0058ad" points="135,-81.5 135,-110.5 "/>
<text text-anchor="middle" x="163.5" y="-92.3" font-family="Times,serif" font-size="14.00" fill="#0058ad">a 449 8</text>
</g>
<!-- T6481 -->
<g id="node2" class="node"><title>T6481</title>
<polygon fill="none" stroke="#0058ad" points="-1.42109e-14,-0.5 -1.42109e-14,-29.5 231,-29.5 231,-0.5 -1.42109e-14,-0.5"/>
<text text-anchor="middle" x="28.5" y="-11.3" font-family="Times,serif" font-size="14.00" fill="#0058ad">a 447 1</text>
<polyline fill="none" stroke="#0058ad" points="57,-0.5 57,-29.5 "/>
<text text-anchor="middle" x="85.5" y="-11.3" font-family="Times,serif" font-size="14.00" fill="#0058ad">a 445 5</text>
<polyline fill="none" stroke="#0058ad" points="114,-0.5 114,-29.5 "/>
<text text-anchor="middle" x="172.5" y="-11.3" font-family="Times,serif" font-size="14.00" fill="#0058ad">r 449 [1 2 4 5 3 6]</text>
</g>
<!-- T6453&#45;&gt;T6481 -->
<g id="edge1" class="edge"><title>T6453:f0&#45;&gt;T6481:f1</title>
<path fill="none" stroke="#5b00c0" d="M91.5,-81C91.5,-62.0997 87.3853,-55.1795 85.9708,-40.3973"/>
<polygon fill="#5b00c0" stroke="#5b00c0" points="89.4489,-39.8314 85.5,-30 82.456,-40.1481 89.4489,-39.8314"/>
<text text-anchor="middle" x="98" y="-51.8" font-family="Times,serif" font-size="14.00" fill="#5b00c0">rw</text>
</g>
<!-- T6481&#45;&gt;T6453 -->
<g id="edge2" class="edge"><title>T6481:f2&#45;&gt;T6453:f1</title>
<path fill="none" stroke="#5b00c0" d="M172.5,-30C172.5,-49.2407 166.211,-55.8677 164.147,-70.9695"/>
<polygon fill="#5b00c0" stroke="#5b00c0" points="160.651,-70.7953 163.5,-81 167.637,-71.2462 160.651,-70.7953"/>
<text text-anchor="middle" x="177" y="-51.8" font-family="Times,serif" font-size="14.00" fill="#5b00c0">rw</text>
</g>
</g>
</svg>
