<?xml version="1.0" encoding="UTF-8" standalone="no"?>
<!DOCTYPE svg PUBLIC "-//W3C//DTD SVG 1.1//EN"
 "http://www.w3.org/Graphics/SVG/1.1/DTD/svg11.dtd">
<!-- Generated by graphviz version 2.38.0 (20140413.2041)
 -->
<!-- Title: a_graph Pages: 1 -->
<svg width="547pt" height="200pt"
 viewBox="0.00 0.00 546.50 200.00" xmlns="http://www.w3.org/2000/svg" xmlns:xlink="http://www.w3.org/1999/xlink">
<g id="graph0" class="graph" transform="scale(1 1) rotate(0) translate(4 196)">
<title>a_graph</title>
<polygon fill="white" stroke="none" points="-4,4 -4,-196 542.5,-196 542.5,4 -4,4"/>
<!-- T8555 -->
<g id="node1" class="node"><title>T8555</title>
<polygon fill="none" stroke="#0058ad" points="327.5,-162.5 327.5,-191.5 538.5,-191.5 538.5,-162.5 327.5,-162.5"/>
<text text-anchor="middle" x="356" y="-173.3" font-family="Times,serif" font-size="14.00" fill="#0058ad">a 596 4</text>
<polyline fill="none" stroke="#0058ad" points="384.5,-162.5 384.5,-191.5 "/>
<text text-anchor="middle" x="432.5" y="-173.3" font-family="Times,serif" font-size="14.00" fill="#0058ad">r 596 [1 5 8 4]</text>
<polyline fill="none" stroke="#0058ad" points="480.5,-162.5 480.5,-191.5 "/>
<text text-anchor="middle" x="509.5" y="-173.3" font-family="Times,serif" font-size="14.00" fill="#0058ad">r 594 []</text>
</g>
<!-- T8602 -->
<g id="node3" class="node"><title>T8602</title>
<polygon fill="none" stroke="#0058ad" points="0,-81.5 0,-110.5 338,-110.5 338,-81.5 0,-81.5"/>
<text text-anchor="middle" x="64" y="-92.3" font-family="Times,serif" font-size="14.00" fill="#0058ad">r 586 [1 2 3 4 1 5 8]</text>
<polyline fill="none" stroke="#0058ad" points="128,-81.5 128,-110.5 "/>
<text text-anchor="middle" x="176" y="-92.3" font-family="Times,serif" font-size="14.00" fill="#0058ad">r 593 [2 3 5 1]</text>
<polyline fill="none" stroke="#0058ad" points="224,-81.5 224,-110.5 "/>
<text text-anchor="middle" x="252.5" y="-92.3" font-family="Times,serif" font-size="14.00" fill="#0058ad">a 586 6</text>
<polyline fill="none" stroke="#0058ad" points="281,-81.5 281,-110.5 "/>
<text text-anchor="middle" x="309.5" y="-92.3" font-family="Times,serif" font-size="14.00" fill="#0058ad">a 596 6</text>
</g>
<!-- T8555&#45;&gt;T8602 -->
<g id="edge1" class="edge"><title>T8555:f0&#45;&gt;T8602:f3</title>
<path fill="none" stroke="#c02700" d="M326,-177C299.118,-177 307.428,-148.589 309.568,-121.052"/>
<polygon fill="#c02700" stroke="#c02700" points="313.067,-121.141 310,-111 306.073,-120.84 313.067,-121.141"/>
<text text-anchor="middle" x="319" y="-132.8" font-family="Times,serif" font-size="14.00" fill="#c02700">ww</text>
</g>
<!-- T8569 -->
<g id="node2" class="node"><title>T8569</title>
<polygon fill="none" stroke="#0058ad" points="145.5,-0.5 145.5,-29.5 410.5,-29.5 410.5,-0.5 145.5,-0.5"/>
<text text-anchor="middle" x="178" y="-11.3" font-family="Times,serif" font-size="14.00" fill="#0058ad">r 589 [1]</text>
<polyline fill="none" stroke="#0058ad" points="210.5,-0.5 210.5,-29.5 "/>
<text text-anchor="middle" x="239" y="-11.3" font-family="Times,serif" font-size="14.00" fill="#0058ad">a 593 7</text>
<polyline fill="none" stroke="#0058ad" points="267.5,-0.5 267.5,-29.5 "/>
<text text-anchor="middle" x="310.5" y="-11.3" font-family="Times,serif" font-size="14.00" fill="#0058ad">r 596 [1 5 8]</text>
<polyline fill="none" stroke="#0058ad" points="353.5,-0.5 353.5,-29.5 "/>
<text text-anchor="middle" x="382" y="-11.3" font-family="Times,serif" font-size="14.00" fill="#0058ad">a 593 8</text>
</g>
<!-- T8569&#45;&gt;T8555 -->
<g id="edge2" class="edge"><title>T8569:f2&#45;&gt;T8555:f0</title>
<path fill="none" stroke="#5b00c0" d="M311,-30C311,-57.7449 337.157,-55.0598 347,-81 358.545,-111.426 356.61,-123.325 356.098,-151.696"/>
<polygon fill="#5b00c0" stroke="#5b00c0" points="352.595,-151.967 356,-162 359.595,-152.034 352.595,-151.967"/>
<text text-anchor="middle" x="363.5" y="-92.3" font-family="Times,serif" font-size="14.00" fill="#5b00c0">rw</text>
</g>
<!-- T8602&#45;&gt;T8569 -->
<g id="edge3" class="edge"><title>T8602:f1&#45;&gt;T8569:f1</title>
<path fill="none" stroke="#5b00c0" d="M176,-81C176,-48.9155 225.972,-62.1029 236.904,-39.9216"/>
<polygon fill="#5b00c0" stroke="#5b00c0" points="240.357,-40.5075 239,-30 233.508,-39.0605 240.357,-40.5075"/>
<text text-anchor="middle" x="236.5" y="-51.8" font-family="Times,serif" font-size="14.00" fill="#5b00c0">rw</text>
</g>
</g>
</svg>
