<?xml version="1.0" encoding="UTF-8" standalone="no"?>
<!DOCTYPE svg PUBLIC "-//W3C//DTD SVG 1.1//EN"
 "http://www.w3.org/Graphics/SVG/1.1/DTD/svg11.dtd">
<!-- Generated by graphviz version 2.38.0 (20140413.2041)
 -->
<!-- Title: a_graph Pages: 1 -->
<svg width="365pt" height="281pt"
 viewBox="0.00 0.00 364.50 281.00" xmlns="http://www.w3.org/2000/svg" xmlns:xlink="http://www.w3.org/1999/xlink">
<g id="graph0" class="graph" transform="scale(1 1) rotate(0) translate(4 277)">
<title>a_graph</title>
<polygon fill="white" stroke="none" points="-4,4 -4,-277 360.5,-277 360.5,4 -4,4"/>
<!-- T6837 -->
<g id="node1" class="node"><title>T6837</title>
<polygon fill="none" stroke="#0058ad" points="66,-243.5 66,-272.5 188,-272.5 188,-243.5 66,-243.5"/>
<text text-anchor="middle" x="94.5" y="-254.3" font-family="Times,serif" font-size="14.00" fill="#0058ad">a 477 8</text>
<polyline fill="none" stroke="#0058ad" points="123,-243.5 123,-272.5 "/>
<text text-anchor="middle" x="155.5" y="-254.3" font-family="Times,serif" font-size="14.00" fill="#0058ad">r 478 [1]</text>
</g>
<!-- T6827 -->
<g id="node2" class="node"><title>T6827</title>
<polygon fill="none" stroke="#0058ad" points="127.5,-162.5 127.5,-191.5 356.5,-191.5 356.5,-162.5 127.5,-162.5"/>
<text text-anchor="middle" x="156.5" y="-173.3" font-family="Times,serif" font-size="14.00" fill="#0058ad">r 479 []</text>
<polyline fill="none" stroke="#0058ad" points="185.5,-162.5 185.5,-191.5 "/>
<text text-anchor="middle" x="214" y="-173.3" font-family="Times,serif" font-size="14.00" fill="#0058ad">a 466 2</text>
<polyline fill="none" stroke="#0058ad" points="242.5,-162.5 242.5,-191.5 "/>
<text text-anchor="middle" x="271" y="-173.3" font-family="Times,serif" font-size="14.00" fill="#0058ad">a 459 6</text>
<polyline fill="none" stroke="#0058ad" points="299.5,-162.5 299.5,-191.5 "/>
<text text-anchor="middle" x="328" y="-173.3" font-family="Times,serif" font-size="14.00" fill="#0058ad">a 478 2</text>
</g>
<!-- T6837&#45;&gt;T6827 -->
<g id="edge1" class="edge"><title>T6837:f1&#45;&gt;T6827:f3</title>
<path fill="none" stroke="#5b00c0" d="M189,-258C219.855,-258 308.203,-232.103 325.165,-201.922"/>
<polygon fill="#5b00c0" stroke="#5b00c0" points="328.618,-202.577 328,-192 321.887,-200.654 328.618,-202.577"/>
<text text-anchor="middle" x="325.5" y="-213.8" font-family="Times,serif" font-size="14.00" fill="#5b00c0">rw</text>
</g>
<!-- T6825 -->
<g id="node4" class="node"><title>T6825</title>
<polygon fill="none" stroke="#0058ad" points="96.5,-81.5 96.5,-110.5 249.5,-110.5 249.5,-81.5 96.5,-81.5"/>
<text text-anchor="middle" x="125" y="-92.3" font-family="Times,serif" font-size="14.00" fill="#0058ad">a 479 1</text>
<polyline fill="none" stroke="#0058ad" points="153.5,-81.5 153.5,-110.5 "/>
<text text-anchor="middle" x="201.5" y="-92.3" font-family="Times,serif" font-size="14.00" fill="#0058ad">r 477 [1 3 5 6]</text>
</g>
<!-- T6827&#45;&gt;T6825 -->
<g id="edge2" class="edge"><title>T6827:f0&#45;&gt;T6825:f0</title>
<path fill="none" stroke="#5b00c0" d="M156,-162C156,-139.412 133.52,-137.546 126.846,-121.11"/>
<polygon fill="#5b00c0" stroke="#5b00c0" points="130.24,-120.208 125,-111 123.354,-121.466 130.24,-120.208"/>
<text text-anchor="middle" x="155.5" y="-132.8" font-family="Times,serif" font-size="14.00" fill="#5b00c0">rw</text>
</g>
<!-- T6835 -->
<g id="node3" class="node"><title>T6835</title>
<polygon fill="none" stroke="#0058ad" points="0,-0.5 0,-29.5 210,-29.5 210,-0.5 0,-0.5"/>
<text text-anchor="middle" x="48" y="-11.3" font-family="Times,serif" font-size="14.00" fill="#0058ad">r 477 [1 3 5 6]</text>
<polyline fill="none" stroke="#0058ad" points="96,-0.5 96,-29.5 "/>
<text text-anchor="middle" x="124.5" y="-11.3" font-family="Times,serif" font-size="14.00" fill="#0058ad">a 479 2</text>
<polyline fill="none" stroke="#0058ad" points="153,-0.5 153,-29.5 "/>
<text text-anchor="middle" x="181.5" y="-11.3" font-family="Times,serif" font-size="14.00" fill="#0058ad">a 479 3</text>
</g>
<!-- T6835&#45;&gt;T6837 -->
<g id="edge3" class="edge"><title>T6835:f0&#45;&gt;T6837:f0</title>
<path fill="none" stroke="#5b00c0" d="M48,-30C48,-128.042 -30.7697,-249.144 54.9616,-257.538"/>
<polygon fill="#5b00c0" stroke="#5b00c0" points="54.8496,-261.036 65,-258 55.1715,-254.044 54.8496,-261.036"/>
<text text-anchor="middle" x="38.5" y="-132.8" font-family="Times,serif" font-size="14.00" fill="#5b00c0">rw</text>
</g>
<!-- T6825&#45;&gt;T6837 -->
<g id="edge4" class="edge"><title>T6825:f1&#45;&gt;T6837:f0</title>
<path fill="none" stroke="#5b00c0" d="M202,-111C202,-144.848 156.12,-110.16 128,-129 86.9923,-156.475 92.9194,-185.928 93.8874,-232.741"/>
<polygon fill="#5b00c0" stroke="#5b00c0" points="90.3903,-233.039 94,-243 97.3899,-232.962 90.3903,-233.039"/>
<text text-anchor="middle" x="105.5" y="-173.3" font-family="Times,serif" font-size="14.00" fill="#5b00c0">rw</text>
</g>
<!-- T6825&#45;&gt;T6835 -->
<g id="edge5" class="edge"><title>T6825:f0&#45;&gt;T6835:f1</title>
<path fill="none" stroke="#c02700" d="M125,-81C125,-62.2292 125,-55.1168 125,-40.3535"/>
<polygon fill="#c02700" stroke="#c02700" points="128.5,-40 125,-30 121.5,-40 128.5,-40"/>
<text text-anchor="middle" x="135" y="-51.8" font-family="Times,serif" font-size="14.00" fill="#c02700">ww</text>
</g>
</g>
</svg>
