<?xml version="1.0" encoding="UTF-8" standalone="no"?>
<!DOCTYPE svg PUBLIC "-//W3C//DTD SVG 1.1//EN"
 "http://www.w3.org/Graphics/SVG/1.1/DTD/svg11.dtd">
<!-- Generated by graphviz version 2.38.0 (20140413.2041)
 -->
<!-- Title: a_graph Pages: 1 -->
<svg width="236pt" height="200pt"
 viewBox="0.00 0.00 235.77 200.00" xmlns="http://www.w3.org/2000/svg" xmlns:xlink="http://www.w3.org/1999/xlink">
<g id="graph0" class="graph" transform="scale(1 1) rotate(0) translate(4 196)">
<title>a_graph</title>
<polygon fill="white" stroke="none" points="-4,4 -4,-196 231.768,-196 231.768,4 -4,4"/>
<!-- T4177 -->
<g id="node1" class="node"><title>T4177</title>
<polygon fill="none" stroke="#0058ad" points="55.2676,-162.5 55.2676,-191.5 170.268,-191.5 170.268,-162.5 55.2676,-162.5"/>
<text text-anchor="middle" x="84.2676" y="-173.3" font-family="Times,serif" font-size="14.00" fill="#0058ad">r 288 []</text>
<polyline fill="none" stroke="#0058ad" points="113.268,-162.5 113.268,-191.5 "/>
<text text-anchor="middle" x="141.768" y="-173.3" font-family="Times,serif" font-size="14.00" fill="#0058ad">a 289 3</text>
</g>
<!-- T4183 -->
<g id="node2" class="node"><title>T4183</title>
<polygon fill="none" stroke="#0058ad" points="55.7676,-0.5 55.7676,-29.5 227.768,-29.5 227.768,-0.5 55.7676,-0.5"/>
<text text-anchor="middle" x="84.2676" y="-11.3" font-family="Times,serif" font-size="14.00" fill="#0058ad">a 288 8</text>
<polyline fill="none" stroke="#0058ad" points="112.768,-0.5 112.768,-29.5 "/>
<text text-anchor="middle" x="141.268" y="-11.3" font-family="Times,serif" font-size="14.00" fill="#0058ad">a 286 6</text>
<polyline fill="none" stroke="#0058ad" points="169.768,-0.5 169.768,-29.5 "/>
<text text-anchor="middle" x="198.768" y="-11.3" font-family="Times,serif" font-size="14.00" fill="#0058ad">r 289 []</text>
</g>
<!-- T4177&#45;&gt;T4183 -->
<g id="edge1" class="edge"><title>T4177:f0&#45;&gt;T4183:f0</title>
<path fill="none" stroke="#5b00c0" d="M53.7676,-177C-14.7181,-177 -17.1574,-30.4341 44.7286,-16.121"/>
<polygon fill="#5b00c0" stroke="#5b00c0" points="45.2178,-19.5882 54.7676,-15 44.4409,-12.6314 45.2178,-19.5882"/>
<text text-anchor="middle" x="9.26757" y="-92.3" font-family="Times,serif" font-size="14.00" fill="#5b00c0">rw</text>
</g>
<!-- T4189 -->
<g id="node3" class="node"><title>T4189</title>
<polygon fill="none" stroke="#0058ad" points="55.2676,-81.5 55.2676,-110.5 170.268,-110.5 170.268,-81.5 55.2676,-81.5"/>
<text text-anchor="middle" x="84.2676" y="-92.3" font-family="Times,serif" font-size="14.00" fill="#0058ad">r 288 []</text>
<polyline fill="none" stroke="#0058ad" points="113.268,-81.5 113.268,-110.5 "/>
<text text-anchor="middle" x="141.768" y="-92.3" font-family="Times,serif" font-size="14.00" fill="#0058ad">a 289 2</text>
</g>
<!-- T4177&#45;&gt;T4189 -->
<g id="edge2" class="edge"><title>T4177:f1&#45;&gt;T4189:f1</title>
<path fill="none" stroke="#c02700" d="M141.768,-162C141.768,-143.229 141.768,-136.117 141.768,-121.354"/>
<polygon fill="#c02700" stroke="#c02700" points="145.268,-121 141.768,-111 138.268,-121 145.268,-121"/>
<text text-anchor="middle" x="151.768" y="-132.8" font-family="Times,serif" font-size="14.00" fill="#c02700">ww</text>
</g>
<!-- T4183&#45;&gt;T4177 -->
<g id="edge3" class="edge"><title>T4183:f2&#45;&gt;T4177:f1</title>
<path fill="none" stroke="#5b00c0" d="M198.768,-30C198.768,-92.6638 233.854,-167.918 182.062,-176.242"/>
<polygon fill="#5b00c0" stroke="#5b00c0" points="181.483,-172.775 171.768,-177 181.998,-179.756 181.483,-172.775"/>
<text text-anchor="middle" x="215.268" y="-92.3" font-family="Times,serif" font-size="14.00" fill="#5b00c0">rw</text>
</g>
<!-- T4189&#45;&gt;T4183 -->
<g id="edge4" class="edge"><title>T4189:f0&#45;&gt;T4183:f0</title>
<path fill="none" stroke="#5b00c0" d="M83.7676,-81C83.7676,-62.2292 83.7676,-55.1168 83.7676,-40.3535"/>
<polygon fill="#5b00c0" stroke="#5b00c0" points="87.2677,-40 83.7676,-30 80.2677,-40 87.2677,-40"/>
<text text-anchor="middle" x="91.2676" y="-51.8" font-family="Times,serif" font-size="14.00" fill="#5b00c0">rw</text>
</g>
</g>
</svg>
