<?xml version="1.0" encoding="UTF-8" standalone="no"?>
<!DOCTYPE svg PUBLIC "-//W3C//DTD SVG 1.1//EN"
 "http://www.w3.org/Graphics/SVG/1.1/DTD/svg11.dtd">
<!-- Generated by graphviz version 2.38.0 (20140413.2041)
 -->
<!-- Title: a_graph Pages: 1 -->
<svg width="332pt" height="200pt"
 viewBox="0.00 0.00 332.00 200.00" xmlns="http://www.w3.org/2000/svg" xmlns:xlink="http://www.w3.org/1999/xlink">
<g id="graph0" class="graph" transform="scale(1 1) rotate(0) translate(4 196)">
<title>a_graph</title>
<polygon fill="white" stroke="none" points="-4,4 -4,-196 328,-196 328,4 -4,4"/>
<!-- T1439 -->
<g id="node1" class="node"><title>T1439</title>
<polygon fill="none" stroke="#0058ad" points="39.5,-162.5 39.5,-191.5 161.5,-191.5 161.5,-162.5 39.5,-162.5"/>
<text text-anchor="middle" x="68" y="-173.3" font-family="Times,serif" font-size="14.00" fill="#0058ad">a 100 4</text>
<polyline fill="none" stroke="#0058ad" points="96.5,-162.5 96.5,-191.5 "/>
<text text-anchor="middle" x="129" y="-173.3" font-family="Times,serif" font-size="14.00" fill="#0058ad">r 102 [1]</text>
</g>
<!-- T1427 -->
<g id="node2" class="node"><title>T1427</title>
<polygon fill="none" stroke="#0058ad" points="65,-81.5 65,-110.5 324,-110.5 324,-81.5 65,-81.5"/>
<text text-anchor="middle" x="97.5" y="-92.3" font-family="Times,serif" font-size="14.00" fill="#0058ad">r 102 [1]</text>
<polyline fill="none" stroke="#0058ad" points="130,-81.5 130,-110.5 "/>
<text text-anchor="middle" x="169.5" y="-92.3" font-family="Times,serif" font-size="14.00" fill="#0058ad">r 99 [2 3 7]</text>
<polyline fill="none" stroke="#0058ad" points="209,-81.5 209,-110.5 "/>
<text text-anchor="middle" x="237.5" y="-92.3" font-family="Times,serif" font-size="14.00" fill="#0058ad">a 102 4</text>
<polyline fill="none" stroke="#0058ad" points="266,-81.5 266,-110.5 "/>
<text text-anchor="middle" x="295" y="-92.3" font-family="Times,serif" font-size="14.00" fill="#0058ad">r 103 []</text>
</g>
<!-- T1439&#45;&gt;T1427 -->
<g id="edge1" class="edge"><title>T1439:f1&#45;&gt;T1427:f2</title>
<path fill="none" stroke="#5b00c0" d="M162.5,-177C203.433,-177 232.635,-158.645 236.948,-120.99"/>
<polygon fill="#5b00c0" stroke="#5b00c0" points="240.443,-121.178 237.5,-111 233.453,-120.792 240.443,-121.178"/>
<text text-anchor="middle" x="242" y="-132.8" font-family="Times,serif" font-size="14.00" fill="#5b00c0">rw</text>
</g>
<!-- T1473 -->
<g id="node3" class="node"><title>T1473</title>
<polygon fill="none" stroke="#0058ad" points="0,-0.5 0,-29.5 175,-29.5 175,-0.5 0,-0.5"/>
<text text-anchor="middle" x="37.5" y="-11.3" font-family="Times,serif" font-size="14.00" fill="#0058ad">r 100 [1 5]</text>
<polyline fill="none" stroke="#0058ad" points="75,-0.5 75,-29.5 "/>
<text text-anchor="middle" x="100" y="-11.3" font-family="Times,serif" font-size="14.00" fill="#0058ad">a 91 6</text>
<polyline fill="none" stroke="#0058ad" points="125,-0.5 125,-29.5 "/>
<text text-anchor="middle" x="150" y="-11.3" font-family="Times,serif" font-size="14.00" fill="#0058ad">a 99 4</text>
</g>
<!-- T1427&#45;&gt;T1473 -->
<g id="edge2" class="edge"><title>T1427:f1&#45;&gt;T1473:f2</title>
<path fill="none" stroke="#5b00c0" d="M169.5,-81C169.5,-60.5909 155.974,-55.5347 151.747,-39.9234"/>
<polygon fill="#5b00c0" stroke="#5b00c0" points="155.219,-39.4857 150.5,-30 148.274,-40.3583 155.219,-39.4857"/>
<text text-anchor="middle" x="172" y="-51.8" font-family="Times,serif" font-size="14.00" fill="#5b00c0">rw</text>
</g>
<!-- T1473&#45;&gt;T1439 -->
<g id="edge3" class="edge"><title>T1473:f0&#45;&gt;T1439:f0</title>
<path fill="none" stroke="#5b00c0" d="M37.5,-30C37.5,-91.5066 -19.5165,-167.486 28.3119,-176.179"/>
<polygon fill="#5b00c0" stroke="#5b00c0" points="28.251,-179.685 38.5,-177 28.8136,-172.708 28.251,-179.685"/>
<text text-anchor="middle" x="36" y="-92.3" font-family="Times,serif" font-size="14.00" fill="#5b00c0">rw</text>
</g>
</g>
</svg>
