<?xml version="1.0" encoding="UTF-8" standalone="no"?>
<!DOCTYPE svg PUBLIC "-//W3C//DTD SVG 1.1//EN"
 "http://www.w3.org/Graphics/SVG/1.1/DTD/svg11.dtd">
<!-- Generated by graphviz version 2.38.0 (20140413.2041)
 -->
<!-- Title: a_graph Pages: 1 -->
<svg width="223pt" height="200pt"
 viewBox="0.00 0.00 223.00 200.00" xmlns="http://www.w3.org/2000/svg" xmlns:xlink="http://www.w3.org/1999/xlink">
<g id="graph0" class="graph" transform="scale(1 1) rotate(0) translate(4 196)">
<title>a_graph</title>
<polygon fill="white" stroke="none" points="-4,4 -4,-196 219,-196 219,4 -4,4"/>
<!-- T8171 -->
<g id="node1" class="node"><title>T8171</title>
<polygon fill="none" stroke="#0058ad" points="22,-162.5 22,-191.5 186,-191.5 186,-162.5 22,-162.5"/>
<text text-anchor="middle" x="50.5" y="-173.3" font-family="Times,serif" font-size="14.00" fill="#0058ad">a 566 2</text>
<polyline fill="none" stroke="#0058ad" points="79,-162.5 79,-191.5 "/>
<text text-anchor="middle" x="132.5" y="-173.3" font-family="Times,serif" font-size="14.00" fill="#0058ad">r 563 [1 2 3 6 7]</text>
</g>
<!-- T8161 -->
<g id="node2" class="node"><title>T8161</title>
<polygon fill="none" stroke="#0058ad" points="93,-81.5 93,-110.5 215,-110.5 215,-81.5 93,-81.5"/>
<text text-anchor="middle" x="121.5" y="-92.3" font-family="Times,serif" font-size="14.00" fill="#0058ad">a 563 8</text>
<polyline fill="none" stroke="#0058ad" points="150,-81.5 150,-110.5 "/>
<text text-anchor="middle" x="182.5" y="-92.3" font-family="Times,serif" font-size="14.00" fill="#0058ad">r 566 [1]</text>
</g>
<!-- T8171&#45;&gt;T8161 -->
<g id="edge1" class="edge"><title>T8171:f1&#45;&gt;T8161:f0</title>
<path fill="none" stroke="#5b00c0" d="M133,-162C133,-142.535 124.615,-136.246 121.863,-121.105"/>
<polygon fill="#5b00c0" stroke="#5b00c0" points="125.338,-120.666 121,-111 118.364,-121.262 125.338,-120.666"/>
<text text-anchor="middle" x="136.5" y="-132.8" font-family="Times,serif" font-size="14.00" fill="#5b00c0">rw</text>
</g>
<!-- T8145 -->
<g id="node3" class="node"><title>T8145</title>
<polygon fill="none" stroke="#0058ad" points="0,-0.5 0,-29.5 122,-29.5 122,-0.5 0,-0.5"/>
<text text-anchor="middle" x="32.5" y="-11.3" font-family="Times,serif" font-size="14.00" fill="#0058ad">r 566 [1]</text>
<polyline fill="none" stroke="#0058ad" points="65,-0.5 65,-29.5 "/>
<text text-anchor="middle" x="93.5" y="-11.3" font-family="Times,serif" font-size="14.00" fill="#0058ad">a 566 3</text>
</g>
<!-- T8161&#45;&gt;T8145 -->
<g id="edge2" class="edge"><title>T8161:f1&#45;&gt;T8145:f1</title>
<path fill="none" stroke="#5b00c0" d="M183,-81C183,-44.9188 166.136,-19.8433 133.217,-15.6288"/>
<polygon fill="#5b00c0" stroke="#5b00c0" points="133.196,-12.1209 123,-15 132.766,-19.1077 133.196,-12.1209"/>
<text text-anchor="middle" x="188.5" y="-51.8" font-family="Times,serif" font-size="14.00" fill="#5b00c0">rw</text>
</g>
<!-- T8145&#45;&gt;T8171 -->
<g id="edge3" class="edge"><title>T8145:f1&#45;&gt;T8171:f0</title>
<path fill="none" stroke="#c02700" d="M94,-30C94,-56.2974 73.0528,-56.3099 64,-81 52.7007,-111.817 50.4042,-123.152 50.0542,-151.632"/>
<polygon fill="#c02700" stroke="#c02700" points="46.5525,-151.982 50,-162 53.5524,-152.018 46.5525,-151.982"/>
<text text-anchor="middle" x="74" y="-92.3" font-family="Times,serif" font-size="14.00" fill="#c02700">ww</text>
</g>
</g>
</svg>
