<?xml version="1.0" encoding="UTF-8" standalone="no"?>
<!DOCTYPE svg PUBLIC "-//W3C//DTD SVG 1.1//EN"
 "http://www.w3.org/Graphics/SVG/1.1/DTD/svg11.dtd">
<!-- Generated by graphviz version 2.38.0 (20140413.2041)
 -->
<!-- Title: a_graph Pages: 1 -->
<svg width="858pt" height="281pt"
 viewBox="0.00 0.00 857.50 281.00" xmlns="http://www.w3.org/2000/svg" xmlns:xlink="http://www.w3.org/1999/xlink">
<g id="graph0" class="graph" transform="scale(1 1) rotate(0) translate(4 277)">
<title>a_graph</title>
<polygon fill="white" stroke="none" points="-4,4 -4,-277 853.5,-277 853.5,4 -4,4"/>
<!-- T6061 -->
<g id="node1" class="node"><title>T6061</title>
<polygon fill="none" stroke="#0058ad" points="0,-243.5 0,-272.5 247,-272.5 247,-243.5 0,-243.5"/>
<text text-anchor="middle" x="29" y="-254.3" font-family="Times,serif" font-size="14.00" fill="#0058ad">r 421 []</text>
<polyline fill="none" stroke="#0058ad" points="58,-243.5 58,-272.5 "/>
<text text-anchor="middle" x="86.5" y="-254.3" font-family="Times,serif" font-size="14.00" fill="#0058ad">a 420 1</text>
<polyline fill="none" stroke="#0058ad" points="115,-243.5 115,-272.5 "/>
<text text-anchor="middle" x="143.5" y="-254.3" font-family="Times,serif" font-size="14.00" fill="#0058ad">a 420 2</text>
<polyline fill="none" stroke="#0058ad" points="172,-243.5 172,-272.5 "/>
<text text-anchor="middle" x="209.5" y="-254.3" font-family="Times,serif" font-size="14.00" fill="#0058ad">r 417 [1 2]</text>
</g>
<!-- T6067 -->
<g id="node4" class="node"><title>T6067</title>
<polygon fill="none" stroke="#0058ad" points="379,-162.5 379,-191.5 436,-191.5 436,-162.5 379,-162.5"/>
<text text-anchor="middle" x="407.5" y="-173.3" font-family="Times,serif" font-size="14.00" fill="#0058ad">a 417 4</text>
</g>
<!-- T6061&#45;&gt;T6067 -->
<g id="edge1" class="edge"><title>T6061:f3&#45;&gt;T6067:f0</title>
<path fill="none" stroke="#5b00c0" d="M209.5,-243C209.5,-167.507 298.426,-217.378 370.784,-195.073"/>
<polygon fill="#5b00c0" stroke="#5b00c0" points="372.191,-198.287 380.42,-191.614 369.826,-191.698 372.191,-198.287"/>
<text text-anchor="middle" x="227" y="-213.8" font-family="Times,serif" font-size="14.00" fill="#5b00c0">rw</text>
</g>
<!-- T6091 -->
<g id="node2" class="node"><title>T6091</title>
<polygon fill="none" stroke="#0058ad" points="511.5,-81.5 511.5,-110.5 849.5,-110.5 849.5,-81.5 511.5,-81.5"/>
<text text-anchor="middle" x="540" y="-92.3" font-family="Times,serif" font-size="14.00" fill="#0058ad">a 416 7</text>
<polyline fill="none" stroke="#0058ad" points="568.5,-81.5 568.5,-110.5 "/>
<text text-anchor="middle" x="597" y="-92.3" font-family="Times,serif" font-size="14.00" fill="#0058ad">a 393 7</text>
<polyline fill="none" stroke="#0058ad" points="625.5,-81.5 625.5,-110.5 "/>
<text text-anchor="middle" x="694.5" y="-92.3" font-family="Times,serif" font-size="14.00" fill="#0058ad">r 416 [1 2 3 4 8 5 6 7]</text>
<polyline fill="none" stroke="#0058ad" points="763.5,-81.5 763.5,-110.5 "/>
<text text-anchor="middle" x="806.5" y="-92.3" font-family="Times,serif" font-size="14.00" fill="#0058ad">r 417 [1 2 4]</text>
</g>
<!-- T6117 -->
<g id="node5" class="node"><title>T6117</title>
<polygon fill="none" stroke="#0058ad" points="163.5,-0.5 163.5,-29.5 393.5,-29.5 393.5,-0.5 163.5,-0.5"/>
<text text-anchor="middle" x="192.5" y="-11.3" font-family="Times,serif" font-size="14.00" fill="#0058ad">r 420 []</text>
<polyline fill="none" stroke="#0058ad" points="221.5,-0.5 221.5,-29.5 "/>
<text text-anchor="middle" x="250" y="-11.3" font-family="Times,serif" font-size="14.00" fill="#0058ad">a 419 3</text>
<polyline fill="none" stroke="#0058ad" points="278.5,-0.5 278.5,-29.5 "/>
<text text-anchor="middle" x="307.5" y="-11.3" font-family="Times,serif" font-size="14.00" fill="#0058ad">r 420 []</text>
<polyline fill="none" stroke="#0058ad" points="336.5,-0.5 336.5,-29.5 "/>
<text text-anchor="middle" x="365" y="-11.3" font-family="Times,serif" font-size="14.00" fill="#0058ad">a 417 5</text>
</g>
<!-- T6091&#45;&gt;T6117 -->
<g id="edge2" class="edge"><title>T6091:f3&#45;&gt;T6117:f3</title>
<path fill="none" stroke="#5b00c0" d="M806.5,-81C806.5,-37.174 479.76,-17.2279 404.859,-15.1774"/>
<polygon fill="#5b00c0" stroke="#5b00c0" points="404.558,-11.6718 394.5,-15 404.439,-18.6708 404.558,-11.6718"/>
<text text-anchor="middle" x="788" y="-51.8" font-family="Times,serif" font-size="14.00" fill="#5b00c0">rw</text>
</g>
<!-- T6083 -->
<g id="node3" class="node"><title>T6083</title>
<polygon fill="none" stroke="#0058ad" points="113,-81.5 113,-110.5 438,-110.5 438,-81.5 113,-81.5"/>
<text text-anchor="middle" x="141.5" y="-92.3" font-family="Times,serif" font-size="14.00" fill="#0058ad">a 422 2</text>
<polyline fill="none" stroke="#0058ad" points="170,-81.5 170,-110.5 "/>
<text text-anchor="middle" x="213" y="-92.3" font-family="Times,serif" font-size="14.00" fill="#0058ad">r 417 [1 2 4]</text>
<polyline fill="none" stroke="#0058ad" points="256,-81.5 256,-110.5 "/>
<text text-anchor="middle" x="288.5" y="-92.3" font-family="Times,serif" font-size="14.00" fill="#0058ad">r 422 [2]</text>
<polyline fill="none" stroke="#0058ad" points="321,-81.5 321,-110.5 "/>
<text text-anchor="middle" x="379.5" y="-92.3" font-family="Times,serif" font-size="14.00" fill="#0058ad">r 393 [2 3 4 1 5 6]</text>
</g>
<!-- T6083&#45;&gt;T6117 -->
<g id="edge3" class="edge"><title>T6083:f1&#45;&gt;T6117:f3</title>
<path fill="none" stroke="#5b00c0" d="M212.5,-81C212.5,-13.1016 349.789,-92.3937 364.268,-40.0193"/>
<polygon fill="#5b00c0" stroke="#5b00c0" points="367.754,-40.3523 365.5,-30 360.806,-39.4983 367.754,-40.3523"/>
<text text-anchor="middle" x="366" y="-51.8" font-family="Times,serif" font-size="14.00" fill="#5b00c0">rw</text>
</g>
<!-- T6067&#45;&gt;T6091 -->
<g id="edge6" class="edge"><title>T6067:f0&#45;&gt;T6091:f3</title>
<path fill="none" stroke="#c000a5" d="M434.238,-162.427C434.66,-162.279 435.08,-162.136 435.5,-162 511.245,-137.385 781.811,-189.395 804.923,-120.964"/>
<polygon fill="#c000a5" stroke="#c000a5" points="808.394,-121.424 806.5,-111 801.48,-120.33 808.394,-121.424"/>
<text text-anchor="middle" x="805" y="-132.8" font-family="Times,serif" font-size="14.00" fill="#c000a5">wr</text>
</g>
<!-- T6067&#45;&gt;T6083 -->
<g id="edge4" class="edge"><title>T6067:f0&#45;&gt;T6083:f1</title>
<path fill="none" stroke="#c000a5" d="M380.42,-162.388C380.112,-162.256 379.806,-162.127 379.5,-162 311.202,-133.598 221.386,-183.508 213.116,-121.053"/>
<polygon fill="#c000a5" stroke="#c000a5" points="216.605,-120.767 212.5,-111 209.618,-121.195 216.605,-120.767"/>
<text text-anchor="middle" x="230" y="-132.8" font-family="Times,serif" font-size="14.00" fill="#c000a5">wr</text>
</g>
<!-- T6067&#45;&gt;T6117 -->
<g id="edge5" class="edge"><title>T6067:f0&#45;&gt;T6117:f3</title>
<path fill="none" stroke="#c02700" d="M419.613,-162.38C429.289,-149.689 442.092,-130.356 447.5,-111 459.666,-67.4524 445.589,-22.0797 404.575,-15.7493"/>
<polygon fill="#c02700" stroke="#c02700" points="404.732,-12.2514 394.5,-15 404.213,-19.2321 404.732,-12.2514"/>
<text text-anchor="middle" x="461.5" y="-92.3" font-family="Times,serif" font-size="14.00" fill="#c02700">ww</text>
</g>
<!-- T6117&#45;&gt;T6061 -->
<g id="edge7" class="edge"><title>T6117:f0&#45;&gt;T6061:f1</title>
<path fill="none" stroke="#5b00c0" d="M162.5,-15C59.0232,-15 84.7085,-128.73 86.4149,-232.948"/>
<polygon fill="#5b00c0" stroke="#5b00c0" points="82.9153,-233.03 86.5,-243 89.9151,-232.971 82.9153,-233.03"/>
<text text-anchor="middle" x="91" y="-132.8" font-family="Times,serif" font-size="14.00" fill="#5b00c0">rw</text>
</g>
</g>
</svg>
