<?xml version="1.0" encoding="UTF-8" standalone="no"?>
<!DOCTYPE svg PUBLIC "-//W3C//DTD SVG 1.1//EN"
 "http://www.w3.org/Graphics/SVG/1.1/DTD/svg11.dtd">
<!-- Generated by graphviz version 2.38.0 (20140413.2041)
 -->
<!-- Title: a_graph Pages: 1 -->
<svg width="293pt" height="119pt"
 viewBox="0.00 0.00 293.00 119.00" xmlns="http://www.w3.org/2000/svg" xmlns:xlink="http://www.w3.org/1999/xlink">
<g id="graph0" class="graph" transform="scale(1 1) rotate(0) translate(4 115)">
<title>a_graph</title>
<polygon fill="white" stroke="none" points="-4,4 -4,-115 289,-115 289,4 -4,4"/>
<!-- T3449 -->
<g id="node1" class="node"><title>T3449</title>
<polygon fill="none" stroke="#0058ad" points="0,-81.5 0,-110.5 285,-110.5 285,-81.5 0,-81.5"/>
<text text-anchor="middle" x="48" y="-92.3" font-family="Times,serif" font-size="14.00" fill="#0058ad">r 241 [2 8 7 5]</text>
<polyline fill="none" stroke="#0058ad" points="96,-81.5 96,-110.5 "/>
<text text-anchor="middle" x="124.5" y="-92.3" font-family="Times,serif" font-size="14.00" fill="#0058ad">a 237 7</text>
<polyline fill="none" stroke="#0058ad" points="153,-81.5 153,-110.5 "/>
<text text-anchor="middle" x="181.5" y="-92.3" font-family="Times,serif" font-size="14.00" fill="#0058ad">a 242 1</text>
<polyline fill="none" stroke="#0058ad" points="210,-81.5 210,-110.5 "/>
<text text-anchor="middle" x="247.5" y="-92.3" font-family="Times,serif" font-size="14.00" fill="#0058ad">r 242 [2 1]</text>
</g>
<!-- T3413 -->
<g id="node2" class="node"><title>T3413</title>
<polygon fill="none" stroke="#0058ad" points="37.5,-0.5 37.5,-29.5 159.5,-29.5 159.5,-0.5 37.5,-0.5"/>
<text text-anchor="middle" x="66" y="-11.3" font-family="Times,serif" font-size="14.00" fill="#0058ad">a 241 6</text>
<polyline fill="none" stroke="#0058ad" points="94.5,-0.5 94.5,-29.5 "/>
<text text-anchor="middle" x="127" y="-11.3" font-family="Times,serif" font-size="14.00" fill="#0058ad">r 242 [2]</text>
</g>
<!-- T3449&#45;&gt;T3413 -->
<g id="edge1" class="edge"><title>T3449:f0&#45;&gt;T3413:f0</title>
<path fill="none" stroke="#5b00c0" d="M47.5,-81C47.5,-60.9066 60.0782,-55.5653 64.2055,-40.3125"/>
<polygon fill="#5b00c0" stroke="#5b00c0" points="67.7271,-40.3581 65.5,-30 60.7817,-39.4862 67.7271,-40.3581"/>
<text text-anchor="middle" x="69" y="-51.8" font-family="Times,serif" font-size="14.00" fill="#5b00c0">rw</text>
</g>
<!-- T3413&#45;&gt;T3449 -->
<g id="edge2" class="edge"><title>T3413:f1&#45;&gt;T3449:f2</title>
<path fill="none" stroke="#5b00c0" d="M160.5,-15C187.916,-15 183.155,-42.9351 181.785,-70.7922"/>
<polygon fill="#5b00c0" stroke="#5b00c0" points="178.281,-70.9061 181.5,-81 185.278,-71.1017 178.281,-70.9061"/>
<text text-anchor="middle" x="190" y="-51.8" font-family="Times,serif" font-size="14.00" fill="#5b00c0">rw</text>
</g>
</g>
</svg>
