<?xml version="1.0" encoding="UTF-8" standalone="no"?>
<!DOCTYPE svg PUBLIC "-//W3C//DTD SVG 1.1//EN"
 "http://www.w3.org/Graphics/SVG/1.1/DTD/svg11.dtd">
<!-- Generated by graphviz version 2.38.0 (20140413.2041)
 -->
<!-- Title: a_graph Pages: 1 -->
<svg width="702pt" height="605pt"
 viewBox="0.00 0.00 702.00 605.00" xmlns="http://www.w3.org/2000/svg" xmlns:xlink="http://www.w3.org/1999/xlink">
<g id="graph0" class="graph" transform="scale(1 1) rotate(0) translate(4 601)">
<title>a_graph</title>
<polygon fill="white" stroke="none" points="-4,4 -4,-601 698,-601 698,4 -4,4"/>
<!-- T4715 -->
<g id="node1" class="node"><title>T4715</title>
<polygon fill="none" stroke="#0058ad" points="263,-567.5 263,-596.5 641,-596.5 641,-567.5 263,-567.5"/>
<text text-anchor="middle" x="316.5" y="-578.3" font-family="Times,serif" font-size="14.00" fill="#0058ad">r 326 [2 6 4 5 3]</text>
<polyline fill="none" stroke="#0058ad" points="370,-567.5 370,-596.5 "/>
<text text-anchor="middle" x="423.5" y="-578.3" font-family="Times,serif" font-size="14.00" fill="#0058ad">r 324 [1 2 3 4 6]</text>
<polyline fill="none" stroke="#0058ad" points="477,-567.5 477,-596.5 "/>
<text text-anchor="middle" x="530.5" y="-578.3" font-family="Times,serif" font-size="14.00" fill="#0058ad">r 326 [2 6 4 5 3]</text>
<polyline fill="none" stroke="#0058ad" points="584,-567.5 584,-596.5 "/>
<text text-anchor="middle" x="612.5" y="-578.3" font-family="Times,serif" font-size="14.00" fill="#0058ad">a 327 1</text>
</g>
<!-- T4693 -->
<g id="node7" class="node"><title>T4693</title>
<polygon fill="none" stroke="#0058ad" points="49,-486.5 49,-515.5 387,-515.5 387,-486.5 49,-486.5"/>
<text text-anchor="middle" x="77.5" y="-497.3" font-family="Times,serif" font-size="14.00" fill="#0058ad">a 326 7</text>
<polyline fill="none" stroke="#0058ad" points="106,-486.5 106,-515.5 "/>
<text text-anchor="middle" x="134.5" y="-497.3" font-family="Times,serif" font-size="14.00" fill="#0058ad">a 326 8</text>
<polyline fill="none" stroke="#0058ad" points="163,-486.5 163,-515.5 "/>
<text text-anchor="middle" x="227" y="-497.3" font-family="Times,serif" font-size="14.00" fill="#0058ad">r 326 [2 6 4 5 3 7 8]</text>
<polyline fill="none" stroke="#0058ad" points="291,-486.5 291,-515.5 "/>
<text text-anchor="middle" x="339" y="-497.3" font-family="Times,serif" font-size="14.00" fill="#0058ad">r 324 [1 2 3 4]</text>
</g>
<!-- T4715&#45;&gt;T4693 -->
<g id="edge1" class="edge"><title>T4715:f0&#45;&gt;T4693:f0</title>
<path fill="none" stroke="#5b00c0" d="M262,-582C221.761,-582 98.4898,-563.005 79.4742,-525.84"/>
<polygon fill="#5b00c0" stroke="#5b00c0" points="82.833,-524.845 77,-516 76.0443,-526.552 82.833,-524.845"/>
<text text-anchor="middle" x="112.5" y="-537.8" font-family="Times,serif" font-size="14.00" fill="#5b00c0">rw</text>
</g>
<!-- T4667 -->
<g id="node2" class="node"><title>T4667</title>
<polygon fill="none" stroke="#0058ad" points="337.5,-324.5 337.5,-353.5 576.5,-353.5 576.5,-324.5 337.5,-324.5"/>
<text text-anchor="middle" x="366" y="-335.3" font-family="Times,serif" font-size="14.00" fill="#0058ad">a 329 5</text>
<polyline fill="none" stroke="#0058ad" points="394.5,-324.5 394.5,-353.5 "/>
<text text-anchor="middle" x="442.5" y="-335.3" font-family="Times,serif" font-size="14.00" fill="#0058ad">r 327 [2 3 4 5]</text>
<polyline fill="none" stroke="#0058ad" points="490.5,-324.5 490.5,-353.5 "/>
<text text-anchor="middle" x="533.5" y="-335.3" font-family="Times,serif" font-size="14.00" fill="#0058ad">r 329 [3 4 5]</text>
</g>
<!-- T4672 -->
<g id="node6" class="node"><title>T4672</title>
<polygon fill="none" stroke="#0058ad" points="477.5,-243.5 477.5,-272.5 534.5,-272.5 534.5,-243.5 477.5,-243.5"/>
<text text-anchor="middle" x="506" y="-254.3" font-family="Times,serif" font-size="14.00" fill="#0058ad">a 329 8</text>
</g>
<!-- T4667&#45;&gt;T4672 -->
<g id="edge2" class="edge"><title>T4667:f0&#45;&gt;T4672:f0</title>
<path fill="none" stroke="#c02700" d="M366,-324C366,-272.616 419.468,-289.225 469.61,-275.576"/>
<polygon fill="#c02700" stroke="#c02700" points="470.765,-278.881 479.248,-272.533 468.658,-272.206 470.765,-278.881"/>
<text text-anchor="middle" x="393" y="-294.8" font-family="Times,serif" font-size="14.00" fill="#c02700">ww</text>
</g>
<!-- T4676 -->
<g id="node10" class="node"><title>T4676</title>
<polygon fill="none" stroke="#0058ad" points="106.5,-243.5 106.5,-272.5 335.5,-272.5 335.5,-243.5 106.5,-243.5"/>
<text text-anchor="middle" x="149.5" y="-254.3" font-family="Times,serif" font-size="14.00" fill="#0058ad">r 328 [2 3 1]</text>
<polyline fill="none" stroke="#0058ad" points="192.5,-243.5 192.5,-272.5 "/>
<text text-anchor="middle" x="235.5" y="-254.3" font-family="Times,serif" font-size="14.00" fill="#0058ad">r 328 [2 3 1]</text>
<polyline fill="none" stroke="#0058ad" points="278.5,-243.5 278.5,-272.5 "/>
<text text-anchor="middle" x="307" y="-254.3" font-family="Times,serif" font-size="14.00" fill="#0058ad">a 327 7</text>
</g>
<!-- T4667&#45;&gt;T4676 -->
<g id="edge3" class="edge"><title>T4667:f1&#45;&gt;T4676:f2</title>
<path fill="none" stroke="#5b00c0" d="M442,-324C442,-295.635 373.137,-269.394 346.919,-260.88"/>
<polygon fill="#5b00c0" stroke="#5b00c0" points="347.579,-257.427 337,-258 345.628,-264.149 347.579,-257.427"/>
<text text-anchor="middle" x="441.5" y="-294.8" font-family="Times,serif" font-size="14.00" fill="#5b00c0">rw</text>
</g>
<!-- T4685 -->
<g id="node3" class="node"><title>T4685</title>
<polygon fill="none" stroke="#0058ad" points="310.5,-405.5 310.5,-434.5 549.5,-434.5 549.5,-405.5 310.5,-405.5"/>
<text text-anchor="middle" x="339" y="-416.3" font-family="Times,serif" font-size="14.00" fill="#0058ad">a 324 6</text>
<polyline fill="none" stroke="#0058ad" points="367.5,-405.5 367.5,-434.5 "/>
<text text-anchor="middle" x="421" y="-416.3" font-family="Times,serif" font-size="14.00" fill="#0058ad">r 324 [1 2 3 4 6]</text>
<polyline fill="none" stroke="#0058ad" points="474.5,-405.5 474.5,-434.5 "/>
<text text-anchor="middle" x="512" y="-416.3" font-family="Times,serif" font-size="14.00" fill="#0058ad">r 329 [3 4]</text>
</g>
<!-- T4685&#45;&gt;T4715 -->
<g id="edge5" class="edge"><title>T4685:f0&#45;&gt;T4715:f1</title>
<path fill="none" stroke="#c000a5" d="M339,-435C339,-437.125 394.833,-484.224 396,-486 414.884,-514.741 421.716,-526.748 422.831,-556.99"/>
<polygon fill="#c000a5" stroke="#c000a5" points="419.331,-557.061 423,-567 426.33,-556.942 419.331,-557.061"/>
<text text-anchor="middle" x="421.5" y="-497.3" font-family="Times,serif" font-size="14.00" fill="#c000a5">wr</text>
</g>
<!-- T4685&#45;&gt;T4667 -->
<g id="edge4" class="edge"><title>T4685:f2&#45;&gt;T4667:f0</title>
<path fill="none" stroke="#5b00c0" d="M512,-405C512,-340.025 381.532,-413.741 367.262,-363.935"/>
<polygon fill="#5b00c0" stroke="#5b00c0" points="370.732,-363.479 366,-354 363.788,-364.361 370.732,-363.479"/>
<text text-anchor="middle" x="514.5" y="-375.8" font-family="Times,serif" font-size="14.00" fill="#5b00c0">rw</text>
</g>
<!-- T4661 -->
<g id="node4" class="node"><title>T4661</title>
<polygon fill="none" stroke="#0058ad" points="0,-162.5 0,-191.5 200,-191.5 200,-162.5 0,-162.5"/>
<text text-anchor="middle" x="43" y="-173.3" font-family="Times,serif" font-size="14.00" fill="#0058ad">r 328 [2 3 1]</text>
<polyline fill="none" stroke="#0058ad" points="86,-162.5 86,-191.5 "/>
<text text-anchor="middle" x="114.5" y="-173.3" font-family="Times,serif" font-size="14.00" fill="#0058ad">a 328 4</text>
<polyline fill="none" stroke="#0058ad" points="143,-162.5 143,-191.5 "/>
<text text-anchor="middle" x="171.5" y="-173.3" font-family="Times,serif" font-size="14.00" fill="#0058ad">a 328 5</text>
</g>
<!-- T4675 -->
<g id="node8" class="node"><title>T4675</title>
<polygon fill="none" stroke="#0058ad" points="192,-81.5 192,-110.5 366,-110.5 366,-81.5 192,-81.5"/>
<text text-anchor="middle" x="220.5" y="-92.3" font-family="Times,serif" font-size="14.00" fill="#0058ad">a 328 7</text>
<polyline fill="none" stroke="#0058ad" points="249,-81.5 249,-110.5 "/>
<text text-anchor="middle" x="307.5" y="-92.3" font-family="Times,serif" font-size="14.00" fill="#0058ad">r 328 [2 3 1 4 5 7]</text>
</g>
<!-- T4661&#45;&gt;T4675 -->
<g id="edge6" class="edge"><title>T4661:f2&#45;&gt;T4675:f0</title>
<path fill="none" stroke="#c02700" d="M172,-162C172,-135.529 163.333,-105.336 180.937,-97.7826"/>
<polygon fill="#c02700" stroke="#c02700" points="181.764,-101.191 191,-96 180.543,-94.2981 181.764,-101.191"/>
<text text-anchor="middle" x="182" y="-132.8" font-family="Times,serif" font-size="14.00" fill="#c02700">ww</text>
</g>
<!-- T4759 -->
<g id="node5" class="node"><title>T4759</title>
<polygon fill="none" stroke="#0058ad" points="406,-0.5 406,-29.5 694,-29.5 694,-0.5 406,-0.5"/>
<text text-anchor="middle" x="464.5" y="-11.3" font-family="Times,serif" font-size="14.00" fill="#0058ad">r 327 [2 3 4 5 7 8]</text>
<polyline fill="none" stroke="#0058ad" points="523,-0.5 523,-29.5 "/>
<text text-anchor="middle" x="551.5" y="-11.3" font-family="Times,serif" font-size="14.00" fill="#0058ad">a 328 8</text>
<polyline fill="none" stroke="#0058ad" points="580,-0.5 580,-29.5 "/>
<text text-anchor="middle" x="608.5" y="-11.3" font-family="Times,serif" font-size="14.00" fill="#0058ad">a 329 1</text>
<polyline fill="none" stroke="#0058ad" points="637,-0.5 637,-29.5 "/>
<text text-anchor="middle" x="665.5" y="-11.3" font-family="Times,serif" font-size="14.00" fill="#0058ad">a 329 2</text>
</g>
<!-- T4759&#45;&gt;T4715 -->
<g id="edge7" class="edge"><title>T4759:f0&#45;&gt;T4715:f3</title>
<path fill="none" stroke="#5b00c0" d="M464,-30C464,-54.1119 548.379,-39.6519 571,-48 625.469,-68.1015 668,-77.4404 668,-135.5 668,-502 668,-502 668,-502 668,-535.589 677.191,-573.398 651.945,-580.731"/>
<polygon fill="#5b00c0" stroke="#5b00c0" points="651.477,-577.263 642,-582 652.363,-584.206 651.477,-577.263"/>
<text text-anchor="middle" x="675.5" y="-294.8" font-family="Times,serif" font-size="14.00" fill="#5b00c0">rw</text>
</g>
<!-- T4698 -->
<g id="node9" class="node"><title>T4698</title>
<polygon fill="none" stroke="#0058ad" points="274,-162.5 274,-191.5 534,-191.5 534,-162.5 274,-162.5"/>
<text text-anchor="middle" x="327.5" y="-173.3" font-family="Times,serif" font-size="14.00" fill="#0058ad">r 327 [2 3 4 5 7]</text>
<polyline fill="none" stroke="#0058ad" points="381,-162.5 381,-191.5 "/>
<text text-anchor="middle" x="429" y="-173.3" font-family="Times,serif" font-size="14.00" fill="#0058ad">r 329 [3 4 5 8]</text>
<polyline fill="none" stroke="#0058ad" points="477,-162.5 477,-191.5 "/>
<text text-anchor="middle" x="505.5" y="-173.3" font-family="Times,serif" font-size="14.00" fill="#0058ad">a 329 6</text>
</g>
<!-- T4672&#45;&gt;T4698 -->
<g id="edge8" class="edge"><title>T4672:f0&#45;&gt;T4698:f2</title>
<path fill="none" stroke="#c02700" d="M506,-243.32C506,-232.453 506,-217.015 506,-202.143"/>
<polygon fill="#c02700" stroke="#c02700" points="509.5,-202 506,-192 502.5,-202 509.5,-202"/>
<text text-anchor="middle" x="516" y="-213.8" font-family="Times,serif" font-size="14.00" fill="#c02700">ww</text>
</g>
<!-- T4701 -->
<g id="node11" class="node"><title>T4701</title>
<polygon fill="none" stroke="#0058ad" points="423.5,-81.5 423.5,-110.5 576.5,-110.5 576.5,-81.5 423.5,-81.5"/>
<text text-anchor="middle" x="452" y="-92.3" font-family="Times,serif" font-size="14.00" fill="#0058ad">a 327 8</text>
<polyline fill="none" stroke="#0058ad" points="480.5,-81.5 480.5,-110.5 "/>
<text text-anchor="middle" x="528.5" y="-92.3" font-family="Times,serif" font-size="14.00" fill="#0058ad">r 329 [3 4 5 8]</text>
</g>
<!-- T4672&#45;&gt;T4701 -->
<g id="edge9" class="edge"><title>T4672:f0&#45;&gt;T4701:f1</title>
<path fill="none" stroke="#c000a5" d="M517.777,-243.388C521.947,-237.826 526.473,-231.307 530,-225 542.655,-202.371 590.322,-125.416 585.923,-102.494"/>
<polygon fill="#c000a5" stroke="#c000a5" points="587.953,-99.6323 578,-96 583.515,-105.046 587.953,-99.6323"/>
<text text-anchor="middle" x="573.5" y="-173.3" font-family="Times,serif" font-size="14.00" fill="#c000a5">wr</text>
</g>
<!-- T4693&#45;&gt;T4685 -->
<g id="edge10" class="edge"><title>T4693:f3&#45;&gt;T4685:f0</title>
<path fill="none" stroke="#5b00c0" d="M339,-486C339,-467.229 339,-460.117 339,-445.354"/>
<polygon fill="#5b00c0" stroke="#5b00c0" points="342.5,-445 339,-435 335.5,-445 342.5,-445"/>
<text text-anchor="middle" x="346.5" y="-456.8" font-family="Times,serif" font-size="14.00" fill="#5b00c0">rw</text>
</g>
<!-- T4675&#45;&gt;T4759 -->
<g id="edge11" class="edge"><title>T4675:f0&#45;&gt;T4759:f1</title>
<path fill="none" stroke="#c02700" d="M220,-81C220,-52.042 451.938,-70.1487 480,-63 510.381,-55.2606 543.757,-63.0529 550.695,-39.9821"/>
<polygon fill="#c02700" stroke="#c02700" points="554.174,-40.3694 552,-30 547.233,-39.4618 554.174,-40.3694"/>
<text text-anchor="middle" x="557" y="-51.8" font-family="Times,serif" font-size="14.00" fill="#c02700">ww</text>
</g>
<!-- T4698&#45;&gt;T4759 -->
<g id="edge12" class="edge"><title>T4698:f2&#45;&gt;T4759:f2</title>
<path fill="none" stroke="#c02700" d="M535,-177C543.267,-177 541.044,-168.617 546,-162 582.836,-112.813 606.327,-96.7533 608.786,-40.2303"/>
<polygon fill="#c02700" stroke="#c02700" points="612.29,-40.0711 609,-30 605.291,-39.9245 612.29,-40.0711"/>
<text text-anchor="middle" x="612" y="-92.3" font-family="Times,serif" font-size="14.00" fill="#c02700">ww</text>
</g>
<!-- T4698&#45;&gt;T4701 -->
<g id="edge13" class="edge"><title>T4698:f0&#45;&gt;T4701:f0</title>
<path fill="none" stroke="#5b00c0" d="M327,-162C327,-139.206 381.484,-104.942 411.75,-97.4715"/>
<polygon fill="#5b00c0" stroke="#5b00c0" points="412.599,-100.886 422,-96 411.604,-93.9566 412.599,-100.886"/>
<text text-anchor="middle" x="358.5" y="-132.8" font-family="Times,serif" font-size="14.00" fill="#5b00c0">rw</text>
</g>
<!-- T4676&#45;&gt;T4661 -->
<g id="edge16" class="edge"><title>T4676:f0&#45;&gt;T4661:f1</title>
<path fill="none" stroke="#5b00c0" d="M149,-243C149,-219.589 123.89,-218.87 116.828,-201.841"/>
<polygon fill="#5b00c0" stroke="#5b00c0" points="120.268,-201.193 115,-192 113.385,-202.471 120.268,-201.193"/>
<text text-anchor="middle" x="148.5" y="-213.8" font-family="Times,serif" font-size="14.00" fill="#5b00c0">rw</text>
</g>
<!-- T4676&#45;&gt;T4698 -->
<g id="edge14" class="edge"><title>T4676:f2&#45;&gt;T4698:f0</title>
<path fill="none" stroke="#c000a5" d="M307,-243C307,-222.457 321.238,-217.606 325.688,-201.967"/>
<polygon fill="#c000a5" stroke="#c000a5" points="329.165,-202.371 327,-192 322.224,-201.458 329.165,-202.371"/>
<text text-anchor="middle" x="330.5" y="-213.8" font-family="Times,serif" font-size="14.00" fill="#c000a5">wr</text>
</g>
<!-- T4676&#45;&gt;T4701 -->
<g id="edge15" class="edge"><title>T4676:f2&#45;&gt;T4701:f0</title>
<path fill="none" stroke="#c02700" d="M307,-243C307,-207.32 260.237,-224.263 245,-192 239.306,-179.944 237.426,-172.973 245,-162 247.585,-158.255 374.847,-111.372 412.027,-98.9851"/>
<polygon fill="#c02700" stroke="#c02700" points="413.424,-102.221 422,-96 411.416,-95.5147 413.424,-102.221"/>
<text text-anchor="middle" x="255" y="-173.3" font-family="Times,serif" font-size="14.00" fill="#c02700">ww</text>
</g>
<!-- T4701&#45;&gt;T4715 -->
<g id="edge19" class="edge"><title>T4701:f0&#45;&gt;T4715:f3</title>
<path fill="none" stroke="#c02700" d="M452,-111C452,-139.944 558.483,-110.813 581,-129 613.213,-155.018 613,-175.092 613,-216.5 613,-502 613,-502 613,-502 613,-527.165 613,-535.889 613,-556.815"/>
<polygon fill="#c02700" stroke="#c02700" points="609.5,-557 613,-567 616.5,-557 609.5,-557"/>
<text text-anchor="middle" x="623" y="-335.3" font-family="Times,serif" font-size="14.00" fill="#c02700">ww</text>
</g>
<!-- T4701&#45;&gt;T4759 -->
<g id="edge18" class="edge"><title>T4701:f0&#45;&gt;T4759:f0</title>
<path fill="none" stroke="#c000a5" d="M452,-81C452,-61.5346 460.385,-55.2464 463.137,-40.1048"/>
<polygon fill="#c000a5" stroke="#c000a5" points="466.636,-40.2616 464,-30 459.662,-39.6659 466.636,-40.2616"/>
<text text-anchor="middle" x="468.5" y="-51.8" font-family="Times,serif" font-size="14.00" fill="#c000a5">wr</text>
</g>
<!-- T4701&#45;&gt;T4698 -->
<g id="edge17" class="edge"><title>T4701:f1&#45;&gt;T4698:f2</title>
<path fill="none" stroke="#5b00c0" d="M529,-111C529,-131.98 512.626,-136.162 507.509,-151.893"/>
<polygon fill="#5b00c0" stroke="#5b00c0" points="504.015,-151.593 506,-162 510.938,-152.627 504.015,-151.593"/>
<text text-anchor="middle" x="531.5" y="-132.8" font-family="Times,serif" font-size="14.00" fill="#5b00c0">rw</text>
</g>
</g>
</svg>
