<?xml version="1.0" encoding="UTF-8" standalone="no"?>
<!DOCTYPE svg PUBLIC "-//W3C//DTD SVG 1.1//EN"
 "http://www.w3.org/Graphics/SVG/1.1/DTD/svg11.dtd">
<!-- Generated by graphviz version 2.38.0 (20140413.2041)
 -->
<!-- Title: a_graph Pages: 1 -->
<svg width="309pt" height="119pt"
 viewBox="0.00 0.00 309.00 119.00" xmlns="http://www.w3.org/2000/svg" xmlns:xlink="http://www.w3.org/1999/xlink">
<g id="graph0" class="graph" transform="scale(1 1) rotate(0) translate(4 115)">
<title>a_graph</title>
<polygon fill="white" stroke="none" points="-4,4 -4,-115 305,-115 305,4 -4,4"/>
<!-- T9365 -->
<g id="node1" class="node"><title>T9365</title>
<polygon fill="none" stroke="#0058ad" points="0,-81.5 0,-110.5 200,-110.5 200,-81.5 0,-81.5"/>
<text text-anchor="middle" x="43" y="-92.3" font-family="Times,serif" font-size="14.00" fill="#0058ad">r 649 [2 3 6]</text>
<polyline fill="none" stroke="#0058ad" points="86,-81.5 86,-110.5 "/>
<text text-anchor="middle" x="114.5" y="-92.3" font-family="Times,serif" font-size="14.00" fill="#0058ad">a 641 4</text>
<polyline fill="none" stroke="#0058ad" points="143,-81.5 143,-110.5 "/>
<text text-anchor="middle" x="171.5" y="-92.3" font-family="Times,serif" font-size="14.00" fill="#0058ad">a 650 1</text>
</g>
<!-- T9361 -->
<g id="node2" class="node"><title>T9361</title>
<polygon fill="none" stroke="#0058ad" points="15,-0.5 15,-29.5 301,-29.5 301,-0.5 15,-0.5"/>
<text text-anchor="middle" x="43.5" y="-11.3" font-family="Times,serif" font-size="14.00" fill="#0058ad">a 649 7</text>
<polyline fill="none" stroke="#0058ad" points="72,-0.5 72,-29.5 "/>
<text text-anchor="middle" x="115" y="-11.3" font-family="Times,serif" font-size="14.00" fill="#0058ad">r 641 [1 2 3]</text>
<polyline fill="none" stroke="#0058ad" points="158,-0.5 158,-29.5 "/>
<text text-anchor="middle" x="201" y="-11.3" font-family="Times,serif" font-size="14.00" fill="#0058ad">r 641 [1 2 3]</text>
<polyline fill="none" stroke="#0058ad" points="244,-0.5 244,-29.5 "/>
<text text-anchor="middle" x="272.5" y="-11.3" font-family="Times,serif" font-size="14.00" fill="#0058ad">a 649 8</text>
</g>
<!-- T9365&#45;&gt;T9361 -->
<g id="edge1" class="edge"><title>T9365:f0&#45;&gt;T9361:f0</title>
<path fill="none" stroke="#5b00c0" d="M43,-81C43,-62.2292 43,-55.1168 43,-40.3535"/>
<polygon fill="#5b00c0" stroke="#5b00c0" points="46.5001,-40 43,-30 39.5001,-40 46.5001,-40"/>
<text text-anchor="middle" x="50.5" y="-51.8" font-family="Times,serif" font-size="14.00" fill="#5b00c0">rw</text>
</g>
<!-- T9361&#45;&gt;T9365 -->
<g id="edge2" class="edge"><title>T9361:f1&#45;&gt;T9365:f1</title>
<path fill="none" stroke="#5b00c0" d="M115,-30C115,-48.7708 115,-55.8832 115,-70.6465"/>
<polygon fill="#5b00c0" stroke="#5b00c0" points="111.5,-71 115,-81 118.5,-71 111.5,-71"/>
<text text-anchor="middle" x="122.5" y="-51.8" font-family="Times,serif" font-size="14.00" fill="#5b00c0">rw</text>
</g>
</g>
</svg>
