<?xml version="1.0" encoding="UTF-8" standalone="no"?>
<!DOCTYPE svg PUBLIC "-//W3C//DTD SVG 1.1//EN"
 "http://www.w3.org/Graphics/SVG/1.1/DTD/svg11.dtd">
<!-- Generated by graphviz version 2.38.0 (20140413.2041)
 -->
<!-- Title: a_graph Pages: 1 -->
<svg width="454pt" height="200pt"
 viewBox="0.00 0.00 454.00 200.00" xmlns="http://www.w3.org/2000/svg" xmlns:xlink="http://www.w3.org/1999/xlink">
<g id="graph0" class="graph" transform="scale(1 1) rotate(0) translate(4 196)">
<title>a_graph</title>
<polygon fill="white" stroke="none" points="-4,4 -4,-196 450,-196 450,4 -4,4"/>
<!-- T1748 -->
<g id="node1" class="node"><title>T1748</title>
<polygon fill="none" stroke="#0058ad" points="108.5,-162.5 108.5,-191.5 301.5,-191.5 301.5,-162.5 108.5,-162.5"/>
<text text-anchor="middle" x="133.5" y="-173.3" font-family="Times,serif" font-size="14.00" fill="#0058ad">a 71 5</text>
<polyline fill="none" stroke="#0058ad" points="158.5,-162.5 158.5,-191.5 "/>
<text text-anchor="middle" x="201.5" y="-173.3" font-family="Times,serif" font-size="14.00" fill="#0058ad">r 124 [1 2 3]</text>
<polyline fill="none" stroke="#0058ad" points="244.5,-162.5 244.5,-191.5 "/>
<text text-anchor="middle" x="273" y="-173.3" font-family="Times,serif" font-size="14.00" fill="#0058ad">a 117 8</text>
</g>
<!-- T1767 -->
<g id="node3" class="node"><title>T1767</title>
<polygon fill="none" stroke="#0058ad" points="168,-81.5 168,-110.5 446,-110.5 446,-81.5 168,-81.5"/>
<text text-anchor="middle" x="196.5" y="-92.3" font-family="Times,serif" font-size="14.00" fill="#0058ad">a 124 6</text>
<polyline fill="none" stroke="#0058ad" points="225,-81.5 225,-110.5 "/>
<text text-anchor="middle" x="253.5" y="-92.3" font-family="Times,serif" font-size="14.00" fill="#0058ad">a 123 5</text>
<polyline fill="none" stroke="#0058ad" points="282,-81.5 282,-110.5 "/>
<text text-anchor="middle" x="310.5" y="-92.3" font-family="Times,serif" font-size="14.00" fill="#0058ad">a 124 7</text>
<polyline fill="none" stroke="#0058ad" points="339,-81.5 339,-110.5 "/>
<text text-anchor="middle" x="392.5" y="-92.3" font-family="Times,serif" font-size="14.00" fill="#0058ad">r 124 [1 2 3 6 7]</text>
</g>
<!-- T1748&#45;&gt;T1767 -->
<g id="edge1" class="edge"><title>T1748:f1&#45;&gt;T1767:f0</title>
<path fill="none" stroke="#5b00c0" d="M201,-162C201,-143.139 197.571,-136.16 196.392,-121.384"/>
<polygon fill="#5b00c0" stroke="#5b00c0" points="199.875,-120.861 196,-111 192.88,-121.125 199.875,-120.861"/>
<text text-anchor="middle" x="207.5" y="-132.8" font-family="Times,serif" font-size="14.00" fill="#5b00c0">rw</text>
</g>
<!-- T1774 -->
<g id="node2" class="node"><title>T1774</title>
<polygon fill="none" stroke="#0058ad" points="0,-0.5 0,-29.5 360,-29.5 360,-0.5 0,-0.5"/>
<text text-anchor="middle" x="28.5" y="-11.3" font-family="Times,serif" font-size="14.00" fill="#0058ad">a 123 8</text>
<polyline fill="none" stroke="#0058ad" points="57,-0.5 57,-29.5 "/>
<text text-anchor="middle" x="110.5" y="-11.3" font-family="Times,serif" font-size="14.00" fill="#0058ad">r 124 [1 2 3 6 7]</text>
<polyline fill="none" stroke="#0058ad" points="164,-0.5 164,-29.5 "/>
<text text-anchor="middle" x="217.5" y="-11.3" font-family="Times,serif" font-size="14.00" fill="#0058ad">r 124 [1 2 3 6 7]</text>
<polyline fill="none" stroke="#0058ad" points="271,-0.5 271,-29.5 "/>
<text text-anchor="middle" x="315.5" y="-11.3" font-family="Times,serif" font-size="14.00" fill="#0058ad">r 71 [1 2 3 4]</text>
</g>
<!-- T1774&#45;&gt;T1748 -->
<g id="edge2" class="edge"><title>T1774:f3&#45;&gt;T1748:f0</title>
<path fill="none" stroke="#5b00c0" d="M316,-30C316,-67.547 174.868,-21.772 148,-48 113.932,-81.2574 130.323,-107.138 132.723,-151.845"/>
<polygon fill="#5b00c0" stroke="#5b00c0" points="129.229,-152.099 133,-162 136.226,-151.908 129.229,-152.099"/>
<text text-anchor="middle" x="135.5" y="-92.3" font-family="Times,serif" font-size="14.00" fill="#5b00c0">rw</text>
</g>
<!-- T1767&#45;&gt;T1774 -->
<g id="edge3" class="edge"><title>T1767:f1&#45;&gt;T1774:f0</title>
<path fill="none" stroke="#c02700" d="M253,-81C253,-32.0828 195.666,-58.9948 148,-48 125.317,-42.7679 52.3671,-53.2505 32.8438,-38.8664"/>
<polygon fill="#c02700" stroke="#c02700" points="35.8659,-37.0978 28,-30 29.7229,-40.4538 35.8659,-37.0978"/>
<text text-anchor="middle" x="259" y="-51.8" font-family="Times,serif" font-size="14.00" fill="#c02700">ww</text>
</g>
</g>
</svg>
