<?xml version="1.0" encoding="UTF-8" standalone="no"?>
<!DOCTYPE svg PUBLIC "-//W3C//DTD SVG 1.1//EN"
 "http://www.w3.org/Graphics/SVG/1.1/DTD/svg11.dtd">
<!-- Generated by graphviz version 2.38.0 (20140413.2041)
 -->
<!-- Title: a_graph Pages: 1 -->
<svg width="362pt" height="281pt"
 viewBox="0.00 0.00 362.00 281.00" xmlns="http://www.w3.org/2000/svg" xmlns:xlink="http://www.w3.org/1999/xlink">
<g id="graph0" class="graph" transform="scale(1 1) rotate(0) translate(4 277)">
<title>a_graph</title>
<polygon fill="white" stroke="none" points="-4,4 -4,-277 358,-277 358,4 -4,4"/>
<!-- T5433 -->
<g id="node1" class="node"><title>T5433</title>
<polygon fill="none" stroke="#0058ad" points="0,-243.5 0,-272.5 207,-272.5 207,-243.5 0,-243.5"/>
<text text-anchor="middle" x="28.5" y="-254.3" font-family="Times,serif" font-size="14.00" fill="#0058ad">a 375 8</text>
<polyline fill="none" stroke="#0058ad" points="57,-243.5 57,-272.5 "/>
<text text-anchor="middle" x="94.5" y="-254.3" font-family="Times,serif" font-size="14.00" fill="#0058ad">r 375 [2 8]</text>
<polyline fill="none" stroke="#0058ad" points="132,-243.5 132,-272.5 "/>
<text text-anchor="middle" x="169.5" y="-254.3" font-family="Times,serif" font-size="14.00" fill="#0058ad">r 375 [2 8]</text>
</g>
<!-- T5454 -->
<g id="node4" class="node"><title>T5454</title>
<polygon fill="none" stroke="#0058ad" points="32.5,-162.5 32.5,-191.5 322.5,-191.5 322.5,-162.5 32.5,-162.5"/>
<text text-anchor="middle" x="70" y="-173.3" font-family="Times,serif" font-size="14.00" fill="#0058ad">r 375 [2 8]</text>
<polyline fill="none" stroke="#0058ad" points="107.5,-162.5 107.5,-191.5 "/>
<text text-anchor="middle" x="145" y="-173.3" font-family="Times,serif" font-size="14.00" fill="#0058ad">r 375 [2 8]</text>
<polyline fill="none" stroke="#0058ad" points="182.5,-162.5 182.5,-191.5 "/>
<text text-anchor="middle" x="220" y="-173.3" font-family="Times,serif" font-size="14.00" fill="#0058ad">r 375 [2 8]</text>
<polyline fill="none" stroke="#0058ad" points="257.5,-162.5 257.5,-191.5 "/>
<text text-anchor="middle" x="290" y="-173.3" font-family="Times,serif" font-size="14.00" fill="#0058ad">r 374 [1]</text>
</g>
<!-- T5433&#45;&gt;T5454 -->
<g id="edge1" class="edge"><title>T5433:f0&#45;&gt;T5454:f0</title>
<path fill="none" stroke="#c000a5" d="M28.5,-243C28.5,-217.779 59.3326,-219.819 67.5225,-201.839"/>
<polygon fill="#c000a5" stroke="#c000a5" points="70.9609,-202.494 69.5,-192 64.0981,-201.114 70.9609,-202.494"/>
<text text-anchor="middle" x="68" y="-213.8" font-family="Times,serif" font-size="14.00" fill="#c000a5">wr</text>
</g>
<!-- T5452 -->
<g id="node2" class="node"><title>T5452</title>
<polygon fill="none" stroke="#0058ad" points="22,-0.5 22,-29.5 219,-29.5 219,-0.5 22,-0.5"/>
<text text-anchor="middle" x="59.5" y="-11.3" font-family="Times,serif" font-size="14.00" fill="#0058ad">r 370 [2 3]</text>
<polyline fill="none" stroke="#0058ad" points="97,-0.5 97,-29.5 "/>
<text text-anchor="middle" x="129.5" y="-11.3" font-family="Times,serif" font-size="14.00" fill="#0058ad">r 375 [2]</text>
<polyline fill="none" stroke="#0058ad" points="162,-0.5 162,-29.5 "/>
<text text-anchor="middle" x="190.5" y="-11.3" font-family="Times,serif" font-size="14.00" fill="#0058ad">a 370 5</text>
</g>
<!-- T5452&#45;&gt;T5433 -->
<g id="edge2" class="edge"><title>T5452:f1&#45;&gt;T5433:f0</title>
<path fill="none" stroke="#5b00c0" d="M129.5,-30C129.5,-105.241 48.4708,-91.0233 23.5,-162 12.7454,-192.569 25.3514,-204.477 28.023,-232.738"/>
<polygon fill="#5b00c0" stroke="#5b00c0" points="24.5393,-233.173 28.5,-243 31.5317,-232.848 24.5393,-233.173"/>
<text text-anchor="middle" x="50" y="-132.8" font-family="Times,serif" font-size="14.00" fill="#5b00c0">rw</text>
</g>
<!-- T5451 -->
<g id="node3" class="node"><title>T5451</title>
<polygon fill="none" stroke="#0058ad" points="147,-81.5 147,-110.5 354,-110.5 354,-81.5 147,-81.5"/>
<text text-anchor="middle" x="175.5" y="-92.3" font-family="Times,serif" font-size="14.00" fill="#0058ad">a 374 6</text>
<polyline fill="none" stroke="#0058ad" points="204,-81.5 204,-110.5 "/>
<text text-anchor="middle" x="241.5" y="-92.3" font-family="Times,serif" font-size="14.00" fill="#0058ad">r 374 [1 6]</text>
<polyline fill="none" stroke="#0058ad" points="279,-81.5 279,-110.5 "/>
<text text-anchor="middle" x="316.5" y="-92.3" font-family="Times,serif" font-size="14.00" fill="#0058ad">r 370 [2 3]</text>
</g>
<!-- T5451&#45;&gt;T5452 -->
<g id="edge3" class="edge"><title>T5451:f2&#45;&gt;T5452:f2</title>
<path fill="none" stroke="#5b00c0" d="M316.5,-81C316.5,-32.661 277.956,-17.0546 230.704,-15.195"/>
<polygon fill="#5b00c0" stroke="#5b00c0" points="230.565,-11.6918 220.5,-15 230.431,-18.6905 230.565,-11.6918"/>
<text text-anchor="middle" x="321" y="-51.8" font-family="Times,serif" font-size="14.00" fill="#5b00c0">rw</text>
</g>
<!-- T5454&#45;&gt;T5451 -->
<g id="edge4" class="edge"><title>T5454:f3&#45;&gt;T5451:f0</title>
<path fill="none" stroke="#5b00c0" d="M290.5,-162C290.5,-110.02 191.103,-158.936 177.126,-121.144"/>
<polygon fill="#5b00c0" stroke="#5b00c0" points="180.538,-120.32 175.5,-111 173.627,-121.428 180.538,-120.32"/>
<text text-anchor="middle" x="290" y="-132.8" font-family="Times,serif" font-size="14.00" fill="#5b00c0">rw</text>
</g>
</g>
</svg>
