<?xml version="1.0" encoding="UTF-8" standalone="no"?>
<!DOCTYPE svg PUBLIC "-//W3C//DTD SVG 1.1//EN"
 "http://www.w3.org/Graphics/SVG/1.1/DTD/svg11.dtd">
<!-- Generated by graphviz version 2.38.0 (20140413.2041)
 -->
<!-- Title: a_graph Pages: 1 -->
<svg width="247pt" height="200pt"
 viewBox="0.00 0.00 246.50 200.00" xmlns="http://www.w3.org/2000/svg" xmlns:xlink="http://www.w3.org/1999/xlink">
<g id="graph0" class="graph" transform="scale(1 1) rotate(0) translate(4 196)">
<title>a_graph</title>
<polygon fill="white" stroke="none" points="-4,4 -4,-196 242.5,-196 242.5,4 -4,4"/>
<!-- T3201 -->
<g id="node1" class="node"><title>T3201</title>
<polygon fill="none" stroke="#0058ad" points="113,-162.5 113,-191.5 170,-191.5 170,-162.5 113,-162.5"/>
<text text-anchor="middle" x="141.5" y="-173.3" font-family="Times,serif" font-size="14.00" fill="#0058ad">a 226 2</text>
</g>
<!-- T3213 -->
<g id="node3" class="node"><title>T3213</title>
<polygon fill="none" stroke="#0058ad" points="0,-81.5 0,-110.5 123,-110.5 123,-81.5 0,-81.5"/>
<text text-anchor="middle" x="29" y="-92.3" font-family="Times,serif" font-size="14.00" fill="#0058ad">r 225 []</text>
<polyline fill="none" stroke="#0058ad" points="58,-81.5 58,-110.5 "/>
<text text-anchor="middle" x="90.5" y="-92.3" font-family="Times,serif" font-size="14.00" fill="#0058ad">r 226 [2]</text>
</g>
<!-- T3201&#45;&gt;T3213 -->
<g id="edge1" class="edge"><title>T3201:f0&#45;&gt;T3213:f1</title>
<path fill="none" stroke="#c000a5" d="M121.05,-162.378C109.189,-152.35 95.8102,-137.858 91.7393,-121.107"/>
<polygon fill="#c000a5" stroke="#c000a5" points="95.1912,-120.5 90.5,-111 88.2432,-121.352 95.1912,-120.5"/>
<text text-anchor="middle" x="111" y="-132.8" font-family="Times,serif" font-size="14.00" fill="#c000a5">wr</text>
</g>
<!-- T3207 -->
<g id="node2" class="node"><title>T3207</title>
<polygon fill="none" stroke="#0058ad" points="8.5,-0.5 8.5,-29.5 238.5,-29.5 238.5,-0.5 8.5,-0.5"/>
<text text-anchor="middle" x="37" y="-11.3" font-family="Times,serif" font-size="14.00" fill="#0058ad">a 225 3</text>
<polyline fill="none" stroke="#0058ad" points="65.5,-0.5 65.5,-29.5 "/>
<text text-anchor="middle" x="94" y="-11.3" font-family="Times,serif" font-size="14.00" fill="#0058ad">a 222 4</text>
<polyline fill="none" stroke="#0058ad" points="122.5,-0.5 122.5,-29.5 "/>
<text text-anchor="middle" x="151.5" y="-11.3" font-family="Times,serif" font-size="14.00" fill="#0058ad">r 226 []</text>
<polyline fill="none" stroke="#0058ad" points="180.5,-0.5 180.5,-29.5 "/>
<text text-anchor="middle" x="209.5" y="-11.3" font-family="Times,serif" font-size="14.00" fill="#0058ad">r 226 []</text>
</g>
<!-- T3207&#45;&gt;T3201 -->
<g id="edge2" class="edge"><title>T3207:f2&#45;&gt;T3201:f0</title>
<path fill="none" stroke="#5b00c0" d="M151.5,-30C151.5,-73.096 147.169,-123.135 144.207,-152.314"/>
<polygon fill="#5b00c0" stroke="#5b00c0" points="140.71,-152.107 143.151,-162.417 147.672,-152.835 140.71,-152.107"/>
<text text-anchor="middle" x="158" y="-92.3" font-family="Times,serif" font-size="14.00" fill="#5b00c0">rw</text>
</g>
<!-- T3213&#45;&gt;T3207 -->
<g id="edge3" class="edge"><title>T3213:f0&#45;&gt;T3207:f0</title>
<path fill="none" stroke="#5b00c0" d="M28.5,-81C28.5,-61.8204 34.0903,-55.1013 35.9247,-40.0103"/>
<polygon fill="#5b00c0" stroke="#5b00c0" points="39.4203,-40.1844 36.5,-30 32.4319,-39.7827 39.4203,-40.1844"/>
<text text-anchor="middle" x="42" y="-51.8" font-family="Times,serif" font-size="14.00" fill="#5b00c0">rw</text>
</g>
</g>
</svg>
