<?xml version="1.0" encoding="UTF-8" standalone="no"?>
<!DOCTYPE svg PUBLIC "-//W3C//DTD SVG 1.1//EN"
 "http://www.w3.org/Graphics/SVG/1.1/DTD/svg11.dtd">
<!-- Generated by graphviz version 2.38.0 (20140413.2041)
 -->
<!-- Title: a_graph Pages: 1 -->
<svg width="270pt" height="281pt"
 viewBox="0.00 0.00 269.95 281.00" xmlns="http://www.w3.org/2000/svg" xmlns:xlink="http://www.w3.org/1999/xlink">
<g id="graph0" class="graph" transform="scale(1 1) rotate(0) translate(4 277)">
<title>a_graph</title>
<polygon fill="white" stroke="none" points="-4,4 -4,-277 265.951,-277 265.951,4 -4,4"/>
<!-- T9388 -->
<g id="node1" class="node"><title>T9388</title>
<polygon fill="none" stroke="#0058ad" points="55.4514,-243.5 55.4514,-272.5 198.451,-272.5 198.451,-243.5 55.4514,-243.5"/>
<text text-anchor="middle" x="83.9514" y="-254.3" font-family="Times,serif" font-size="14.00" fill="#0058ad">a 651 7</text>
<polyline fill="none" stroke="#0058ad" points="112.451,-243.5 112.451,-272.5 "/>
<text text-anchor="middle" x="155.451" y="-254.3" font-family="Times,serif" font-size="14.00" fill="#0058ad">r 650 [1 2 4]</text>
</g>
<!-- T9385 -->
<g id="node3" class="node"><title>T9385</title>
<polygon fill="none" stroke="#0058ad" points="33.9514,-162.5 33.9514,-191.5 261.951,-191.5 261.951,-162.5 33.9514,-162.5"/>
<text text-anchor="middle" x="81.9514" y="-173.3" font-family="Times,serif" font-size="14.00" fill="#0058ad">r 641 [1 2 3 4]</text>
<polyline fill="none" stroke="#0058ad" points="129.951,-162.5 129.951,-191.5 "/>
<text text-anchor="middle" x="167.451" y="-173.3" font-family="Times,serif" font-size="14.00" fill="#0058ad">r 651 [1 2]</text>
<polyline fill="none" stroke="#0058ad" points="204.951,-162.5 204.951,-191.5 "/>
<text text-anchor="middle" x="233.451" y="-173.3" font-family="Times,serif" font-size="14.00" fill="#0058ad">a 650 5</text>
</g>
<!-- T9388&#45;&gt;T9385 -->
<g id="edge1" class="edge"><title>T9388:f1&#45;&gt;T9385:f2</title>
<path fill="none" stroke="#5b00c0" d="M199.951,-258C229.597,-258 233.418,-231.36 233.888,-202.019"/>
<polygon fill="#5b00c0" stroke="#5b00c0" points="237.388,-202.022 233.951,-192 230.388,-201.978 237.388,-202.022"/>
<text text-anchor="middle" x="240.451" y="-213.8" font-family="Times,serif" font-size="14.00" fill="#5b00c0">rw</text>
</g>
<!-- T9377 -->
<g id="node2" class="node"><title>T9377</title>
<polygon fill="none" stroke="#0058ad" points="6.45141,-0.5 6.45141,-29.5 63.4514,-29.5 63.4514,-0.5 6.45141,-0.5"/>
<text text-anchor="middle" x="34.9514" y="-11.3" font-family="Times,serif" font-size="14.00" fill="#0058ad">a 651 5</text>
</g>
<!-- T9377&#45;&gt;T9388 -->
<g id="edge2" class="edge"><title>T9377:f0&#45;&gt;T9388:f0</title>
<path fill="none" stroke="#c02700" d="M29.8664,-29.8349C13.2296,-80.5329 -34.1811,-244.484 43.8084,-257.215"/>
<polygon fill="#c02700" stroke="#c02700" points="43.7111,-260.718 53.9514,-258 44.2514,-253.739 43.7111,-260.718"/>
<text text-anchor="middle" x="13.9514" y="-132.8" font-family="Times,serif" font-size="14.00" fill="#c02700">ww</text>
</g>
<!-- T9378 -->
<g id="node4" class="node"><title>T9378</title>
<polygon fill="none" stroke="#0058ad" points="60.4514,-81.5 60.4514,-110.5 213.451,-110.5 213.451,-81.5 60.4514,-81.5"/>
<text text-anchor="middle" x="88.9514" y="-92.3" font-family="Times,serif" font-size="14.00" fill="#0058ad">a 651 6</text>
<polyline fill="none" stroke="#0058ad" points="117.451,-81.5 117.451,-110.5 "/>
<text text-anchor="middle" x="165.451" y="-92.3" font-family="Times,serif" font-size="14.00" fill="#0058ad">r 641 [1 2 3 4]</text>
</g>
<!-- T9385&#45;&gt;T9378 -->
<g id="edge3" class="edge"><title>T9385:f1&#45;&gt;T9378:f0</title>
<path fill="none" stroke="#5b00c0" d="M167.951,-162C167.951,-124.126 103.07,-147.336 90.9042,-120.915"/>
<polygon fill="#5b00c0" stroke="#5b00c0" points="94.3179,-120.135 88.9514,-111 87.4498,-121.488 94.3179,-120.135"/>
<text text-anchor="middle" x="165.451" y="-132.8" font-family="Times,serif" font-size="14.00" fill="#5b00c0">rw</text>
</g>
<!-- T9378&#45;&gt;T9377 -->
<g id="edge4" class="edge"><title>T9378:f0&#45;&gt;T9377:f0</title>
<path fill="none" stroke="#c02700" d="M88.9514,-81C88.9514,-63.3452 77.234,-47.8171 64.7157,-36.2652"/>
<polygon fill="#c02700" stroke="#c02700" points="66.7924,-33.4361 56.9153,-29.603 62.2462,-38.7589 66.7924,-33.4361"/>
<text text-anchor="middle" x="93.9514" y="-51.8" font-family="Times,serif" font-size="14.00" fill="#c02700">ww</text>
</g>
</g>
</svg>
