<?xml version="1.0" encoding="UTF-8" standalone="no"?>
<!DOCTYPE svg PUBLIC "-//W3C//DTD SVG 1.1//EN"
 "http://www.w3.org/Graphics/SVG/1.1/DTD/svg11.dtd">
<!-- Generated by graphviz version 2.38.0 (20140413.2041)
 -->
<!-- Title: a_graph Pages: 1 -->
<svg width="246pt" height="119pt"
 viewBox="0.00 0.00 246.00 119.00" xmlns="http://www.w3.org/2000/svg" xmlns:xlink="http://www.w3.org/1999/xlink">
<g id="graph0" class="graph" transform="scale(1 1) rotate(0) translate(4 115)">
<title>a_graph</title>
<polygon fill="white" stroke="none" points="-4,4 -4,-115 242,-115 242,4 -4,4"/>
<!-- T6304 -->
<g id="node1" class="node"><title>T6304</title>
<polygon fill="none" stroke="#0058ad" points="3,-81.5 3,-110.5 175,-110.5 175,-81.5 3,-81.5"/>
<text text-anchor="middle" x="31.5" y="-92.3" font-family="Times,serif" font-size="14.00" fill="#0058ad">a 439 6</text>
<polyline fill="none" stroke="#0058ad" points="60,-81.5 60,-110.5 "/>
<text text-anchor="middle" x="88.5" y="-92.3" font-family="Times,serif" font-size="14.00" fill="#0058ad">a 438 8</text>
<polyline fill="none" stroke="#0058ad" points="117,-81.5 117,-110.5 "/>
<text text-anchor="middle" x="146" y="-92.3" font-family="Times,serif" font-size="14.00" fill="#0058ad">r 440 []</text>
</g>
<!-- T6290 -->
<g id="node2" class="node"><title>T6290</title>
<polygon fill="none" stroke="#0058ad" points="0,-0.5 0,-29.5 238,-29.5 238,-0.5 0,-0.5"/>
<text text-anchor="middle" x="29" y="-11.3" font-family="Times,serif" font-size="14.00" fill="#0058ad">r 439 []</text>
<polyline fill="none" stroke="#0058ad" points="58,-0.5 58,-29.5 "/>
<text text-anchor="middle" x="90.5" y="-11.3" font-family="Times,serif" font-size="14.00" fill="#0058ad">r 433 [1]</text>
<polyline fill="none" stroke="#0058ad" points="123,-0.5 123,-29.5 "/>
<text text-anchor="middle" x="151.5" y="-11.3" font-family="Times,serif" font-size="14.00" fill="#0058ad">a 440 1</text>
<polyline fill="none" stroke="#0058ad" points="180,-0.5 180,-29.5 "/>
<text text-anchor="middle" x="209" y="-11.3" font-family="Times,serif" font-size="14.00" fill="#0058ad">r 439 []</text>
</g>
<!-- T6304&#45;&gt;T6290 -->
<g id="edge1" class="edge"><title>T6304:f2&#45;&gt;T6290:f2</title>
<path fill="none" stroke="#5b00c0" d="M146,-81C146,-62.0997 150.115,-55.1795 151.529,-40.3973"/>
<polygon fill="#5b00c0" stroke="#5b00c0" points="155.044,-40.1481 152,-30 148.051,-39.8314 155.044,-40.1481"/>
<text text-anchor="middle" x="157.5" y="-51.8" font-family="Times,serif" font-size="14.00" fill="#5b00c0">rw</text>
</g>
<!-- T6290&#45;&gt;T6304 -->
<g id="edge2" class="edge"><title>T6290:f0&#45;&gt;T6304:f0</title>
<path fill="none" stroke="#5b00c0" d="M29,-30C29,-48.7853 30.3716,-55.8762 30.8431,-70.6416"/>
<polygon fill="#5b00c0" stroke="#5b00c0" points="27.3488,-71.0542 31,-81 34.348,-70.9481 27.3488,-71.0542"/>
<text text-anchor="middle" x="38.5" y="-51.8" font-family="Times,serif" font-size="14.00" fill="#5b00c0">rw</text>
</g>
</g>
</svg>
