<?xml version="1.0" encoding="UTF-8" standalone="no"?>
<!DOCTYPE svg PUBLIC "-//W3C//DTD SVG 1.1//EN"
 "http://www.w3.org/Graphics/SVG/1.1/DTD/svg11.dtd">
<!-- Generated by graphviz version 2.38.0 (20140413.2041)
 -->
<!-- Title: a_graph Pages: 1 -->
<svg width="239pt" height="200pt"
 viewBox="0.00 0.00 239.00 200.00" xmlns="http://www.w3.org/2000/svg" xmlns:xlink="http://www.w3.org/1999/xlink">
<g id="graph0" class="graph" transform="scale(1 1) rotate(0) translate(4 196)">
<title>a_graph</title>
<polygon fill="white" stroke="none" points="-4,4 -4,-196 235,-196 235,4 -4,4"/>
<!-- T10015 -->
<g id="node1" class="node"><title>T10015</title>
<polygon fill="none" stroke="#0058ad" points="42.5,-162.5 42.5,-191.5 156.5,-191.5 156.5,-162.5 42.5,-162.5"/>
<text text-anchor="middle" x="71" y="-173.3" font-family="Times,serif" font-size="14.00" fill="#0058ad">a 696 1</text>
<polyline fill="none" stroke="#0058ad" points="99.5,-162.5 99.5,-191.5 "/>
<text text-anchor="middle" x="128" y="-173.3" font-family="Times,serif" font-size="14.00" fill="#0058ad">a 687 7</text>
</g>
<!-- T10009 -->
<g id="node2" class="node"><title>T10009</title>
<polygon fill="none" stroke="#0058ad" points="58,-81.5 58,-110.5 209,-110.5 209,-81.5 58,-81.5"/>
<text text-anchor="middle" x="101" y="-92.3" font-family="Times,serif" font-size="14.00" fill="#0058ad">r 694 [2 4 5]</text>
<polyline fill="none" stroke="#0058ad" points="144,-81.5 144,-110.5 "/>
<text text-anchor="middle" x="176.5" y="-92.3" font-family="Times,serif" font-size="14.00" fill="#0058ad">r 696 [1]</text>
</g>
<!-- T10015&#45;&gt;T10009 -->
<g id="edge1" class="edge"><title>T10015:f0&#45;&gt;T10009:f1</title>
<path fill="none" stroke="#c000a5" d="M70.5,-162C70.5,-113.6 161.35,-155.913 174.835,-120.978"/>
<polygon fill="#c000a5" stroke="#c000a5" points="178.306,-121.44 176.5,-111 171.402,-120.288 178.306,-121.44"/>
<text text-anchor="middle" x="174" y="-132.8" font-family="Times,serif" font-size="14.00" fill="#c000a5">wr</text>
</g>
<!-- T10007 -->
<g id="node3" class="node"><title>T10007</title>
<polygon fill="none" stroke="#0058ad" points="-1.42109e-14,-0.5 -1.42109e-14,-29.5 231,-29.5 231,-0.5 -1.42109e-14,-0.5"/>
<text text-anchor="middle" x="29" y="-11.3" font-family="Times,serif" font-size="14.00" fill="#0058ad">r 696 []</text>
<polyline fill="none" stroke="#0058ad" points="58,-0.5 58,-29.5 "/>
<text text-anchor="middle" x="86.5" y="-11.3" font-family="Times,serif" font-size="14.00" fill="#0058ad">a 694 6</text>
<polyline fill="none" stroke="#0058ad" points="115,-0.5 115,-29.5 "/>
<text text-anchor="middle" x="144" y="-11.3" font-family="Times,serif" font-size="14.00" fill="#0058ad">r 695 []</text>
<polyline fill="none" stroke="#0058ad" points="173,-0.5 173,-29.5 "/>
<text text-anchor="middle" x="202" y="-11.3" font-family="Times,serif" font-size="14.00" fill="#0058ad">r 696 []</text>
</g>
<!-- T10009&#45;&gt;T10007 -->
<g id="edge2" class="edge"><title>T10009:f0&#45;&gt;T10007:f1</title>
<path fill="none" stroke="#5b00c0" d="M100.5,-81C100.5,-61.3511 90.7169,-55.3396 87.5068,-40.1654"/>
<polygon fill="#5b00c0" stroke="#5b00c0" points="90.9687,-39.6063 86.5,-30 84.0028,-40.2963 90.9687,-39.6063"/>
<text text-anchor="middle" x="104" y="-51.8" font-family="Times,serif" font-size="14.00" fill="#5b00c0">rw</text>
</g>
<!-- T10007&#45;&gt;T10015 -->
<g id="edge3" class="edge"><title>T10007:f0&#45;&gt;T10015:f0</title>
<path fill="none" stroke="#5b00c0" d="M28.5,-30C28.5,-41.3984 31.9562,-136.462 37.795,-167.349"/>
<polygon fill="#5b00c0" stroke="#5b00c0" points="34.6486,-168.919 41.5,-177 41.1837,-166.41 34.6486,-168.919"/>
<text text-anchor="middle" x="40" y="-92.3" font-family="Times,serif" font-size="14.00" fill="#5b00c0">rw</text>
</g>
</g>
</svg>
