<?xml version="1.0" encoding="UTF-8" standalone="no"?>
<!DOCTYPE svg PUBLIC "-//W3C//DTD SVG 1.1//EN"
 "http://www.w3.org/Graphics/SVG/1.1/DTD/svg11.dtd">
<!-- Generated by graphviz version 2.38.0 (20140413.2041)
 -->
<!-- Title: a_graph Pages: 1 -->
<svg width="181pt" height="119pt"
 viewBox="0.00 0.00 181.00 119.00" xmlns="http://www.w3.org/2000/svg" xmlns:xlink="http://www.w3.org/1999/xlink">
<g id="graph0" class="graph" transform="scale(1 1) rotate(0) translate(4 115)">
<title>a_graph</title>
<polygon fill="white" stroke="none" points="-4,4 -4,-115 177,-115 177,4 -4,4"/>
<!-- T4709 -->
<g id="node1" class="node"><title>T4709</title>
<polygon fill="none" stroke="#0058ad" points="0,-81.5 0,-110.5 173,-110.5 173,-81.5 0,-81.5"/>
<text text-anchor="middle" x="29" y="-92.3" font-family="Times,serif" font-size="14.00" fill="#0058ad">r 334 []</text>
<polyline fill="none" stroke="#0058ad" points="58,-81.5 58,-110.5 "/>
<text text-anchor="middle" x="86.5" y="-92.3" font-family="Times,serif" font-size="14.00" fill="#0058ad">a 333 2</text>
<polyline fill="none" stroke="#0058ad" points="115,-81.5 115,-110.5 "/>
<text text-anchor="middle" x="144" y="-92.3" font-family="Times,serif" font-size="14.00" fill="#0058ad">r 334 []</text>
</g>
<!-- T4713 -->
<g id="node2" class="node"><title>T4713</title>
<polygon fill="none" stroke="#0058ad" points="0,-0.5 0,-29.5 115,-29.5 115,-0.5 0,-0.5"/>
<text text-anchor="middle" x="28.5" y="-11.3" font-family="Times,serif" font-size="14.00" fill="#0058ad">a 334 1</text>
<polyline fill="none" stroke="#0058ad" points="57,-0.5 57,-29.5 "/>
<text text-anchor="middle" x="86" y="-11.3" font-family="Times,serif" font-size="14.00" fill="#0058ad">r 333 []</text>
</g>
<!-- T4709&#45;&gt;T4713 -->
<g id="edge1" class="edge"><title>T4709:f0&#45;&gt;T4713:f0</title>
<path fill="none" stroke="#5b00c0" d="M28.5,-81C28.5,-62.2292 28.5,-55.1168 28.5,-40.3535"/>
<polygon fill="#5b00c0" stroke="#5b00c0" points="32.0001,-40 28.5,-30 25.0001,-40 32.0001,-40"/>
<text text-anchor="middle" x="36" y="-51.8" font-family="Times,serif" font-size="14.00" fill="#5b00c0">rw</text>
</g>
<!-- T4713&#45;&gt;T4709 -->
<g id="edge2" class="edge"><title>T4713:f1&#45;&gt;T4709:f1</title>
<path fill="none" stroke="#5b00c0" d="M86.5,-30C86.5,-48.7708 86.5,-55.8832 86.5,-70.6465"/>
<polygon fill="#5b00c0" stroke="#5b00c0" points="83.0001,-71 86.5,-81 90.0001,-71 83.0001,-71"/>
<text text-anchor="middle" x="94" y="-51.8" font-family="Times,serif" font-size="14.00" fill="#5b00c0">rw</text>
</g>
</g>
</svg>
