<?xml version="1.0" encoding="UTF-8" standalone="no"?>
<!DOCTYPE svg PUBLIC "-//W3C//DTD SVG 1.1//EN"
 "http://www.w3.org/Graphics/SVG/1.1/DTD/svg11.dtd">
<!-- Generated by graphviz version 2.38.0 (20140413.2041)
 -->
<!-- Title: a_graph Pages: 1 -->
<svg width="432pt" height="200pt"
 viewBox="0.00 0.00 432.00 200.00" xmlns="http://www.w3.org/2000/svg" xmlns:xlink="http://www.w3.org/1999/xlink">
<g id="graph0" class="graph" transform="scale(1 1) rotate(0) translate(4 196)">
<title>a_graph</title>
<polygon fill="white" stroke="none" points="-4,4 -4,-196 428,-196 428,4 -4,4"/>
<!-- T4461 -->
<g id="node1" class="node"><title>T4461</title>
<polygon fill="none" stroke="#0058ad" points="146,-162.5 146,-191.5 317,-191.5 317,-162.5 146,-162.5"/>
<text text-anchor="middle" x="174.5" y="-173.3" font-family="Times,serif" font-size="14.00" fill="#0058ad">a 310 1</text>
<polyline fill="none" stroke="#0058ad" points="203,-162.5 203,-191.5 "/>
<text text-anchor="middle" x="231.5" y="-173.3" font-family="Times,serif" font-size="14.00" fill="#0058ad">a 277 7</text>
<polyline fill="none" stroke="#0058ad" points="260,-162.5 260,-191.5 "/>
<text text-anchor="middle" x="288.5" y="-173.3" font-family="Times,serif" font-size="14.00" fill="#0058ad">a 308 6</text>
</g>
<!-- T4487 -->
<g id="node2" class="node"><title>T4487</title>
<polygon fill="none" stroke="#0058ad" points="0,-81.5 0,-110.5 307,-110.5 307,-81.5 0,-81.5"/>
<text text-anchor="middle" x="28.5" y="-92.3" font-family="Times,serif" font-size="14.00" fill="#0058ad">a 314 2</text>
<polyline fill="none" stroke="#0058ad" points="57,-81.5 57,-110.5 "/>
<text text-anchor="middle" x="121" y="-92.3" font-family="Times,serif" font-size="14.00" fill="#0058ad">r 308 [1 2 3 4 5 8 6]</text>
<polyline fill="none" stroke="#0058ad" points="185,-81.5 185,-110.5 "/>
<text text-anchor="middle" x="217.5" y="-92.3" font-family="Times,serif" font-size="14.00" fill="#0058ad">r 313 [3]</text>
<polyline fill="none" stroke="#0058ad" points="250,-81.5 250,-110.5 "/>
<text text-anchor="middle" x="278.5" y="-92.3" font-family="Times,serif" font-size="14.00" fill="#0058ad">a 314 3</text>
</g>
<!-- T4461&#45;&gt;T4487 -->
<g id="edge1" class="edge"><title>T4461:f2&#45;&gt;T4487:f1</title>
<path fill="none" stroke="#c000a5" d="M288.5,-162C288.5,-87.7788 136.506,-179.208 121.663,-121.163"/>
<polygon fill="#c000a5" stroke="#c000a5" points="125.114,-120.537 120.5,-111 118.159,-121.333 125.114,-120.537"/>
<text text-anchor="middle" x="292" y="-132.8" font-family="Times,serif" font-size="14.00" fill="#c000a5">wr</text>
</g>
<!-- T4469 -->
<g id="node3" class="node"><title>T4469</title>
<polygon fill="none" stroke="#0058ad" points="175,-0.5 175,-29.5 424,-29.5 424,-0.5 175,-0.5"/>
<text text-anchor="middle" x="203.5" y="-11.3" font-family="Times,serif" font-size="14.00" fill="#0058ad">a 313 5</text>
<polyline fill="none" stroke="#0058ad" points="232,-0.5 232,-29.5 "/>
<text text-anchor="middle" x="269.5" y="-11.3" font-family="Times,serif" font-size="14.00" fill="#0058ad">r 313 [3 5]</text>
<polyline fill="none" stroke="#0058ad" points="307,-0.5 307,-29.5 "/>
<text text-anchor="middle" x="365.5" y="-11.3" font-family="Times,serif" font-size="14.00" fill="#0058ad">r 308 [1 2 3 4 5 8]</text>
</g>
<!-- T4487&#45;&gt;T4469 -->
<g id="edge2" class="edge"><title>T4487:f2&#45;&gt;T4469:f0</title>
<path fill="none" stroke="#5b00c0" d="M217.5,-81C217.5,-61.3511 207.717,-55.3396 204.507,-40.1654"/>
<polygon fill="#5b00c0" stroke="#5b00c0" points="207.969,-39.6063 203.5,-30 201.003,-40.2963 207.969,-39.6063"/>
<text text-anchor="middle" x="222" y="-51.8" font-family="Times,serif" font-size="14.00" fill="#5b00c0">rw</text>
</g>
<!-- T4469&#45;&gt;T4461 -->
<g id="edge3" class="edge"><title>T4469:f2&#45;&gt;T4461:f2</title>
<path fill="none" stroke="#5b00c0" d="M365.5,-30C365.5,-94.9743 384.874,-168.758 328.615,-176.359"/>
<polygon fill="#5b00c0" stroke="#5b00c0" points="328.259,-172.874 318.5,-177 328.701,-179.86 328.259,-172.874"/>
<text text-anchor="middle" x="377" y="-92.3" font-family="Times,serif" font-size="14.00" fill="#5b00c0">rw</text>
</g>
</g>
</svg>
