<?xml version="1.0" encoding="UTF-8" standalone="no"?>
<!DOCTYPE svg PUBLIC "-//W3C//DTD SVG 1.1//EN"
 "http://www.w3.org/Graphics/SVG/1.1/DTD/svg11.dtd">
<!-- Generated by graphviz version 2.38.0 (20140413.2041)
 -->
<!-- Title: a_graph Pages: 1 -->
<svg width="354pt" height="119pt"
 viewBox="0.00 0.00 354.00 119.00" xmlns="http://www.w3.org/2000/svg" xmlns:xlink="http://www.w3.org/1999/xlink">
<g id="graph0" class="graph" transform="scale(1 1) rotate(0) translate(4 115)">
<title>a_graph</title>
<polygon fill="white" stroke="none" points="-4,4 -4,-115 350,-115 350,4 -4,4"/>
<!-- T4965 -->
<g id="node1" class="node"><title>T4965</title>
<polygon fill="none" stroke="#0058ad" points="66.5,-81.5 66.5,-110.5 305.5,-110.5 305.5,-81.5 66.5,-81.5"/>
<text text-anchor="middle" x="99" y="-92.3" font-family="Times,serif" font-size="14.00" fill="#0058ad">r 345 [2]</text>
<polyline fill="none" stroke="#0058ad" points="131.5,-81.5 131.5,-110.5 "/>
<text text-anchor="middle" x="190" y="-92.3" font-family="Times,serif" font-size="14.00" fill="#0058ad">r 346 [1 2 4 5 6 7]</text>
<polyline fill="none" stroke="#0058ad" points="248.5,-81.5 248.5,-110.5 "/>
<text text-anchor="middle" x="277" y="-92.3" font-family="Times,serif" font-size="14.00" fill="#0058ad">a 344 6</text>
</g>
<!-- T4969 -->
<g id="node2" class="node"><title>T4969</title>
<polygon fill="none" stroke="#0058ad" points="0,-0.5 0,-29.5 346,-29.5 346,-0.5 0,-0.5"/>
<text text-anchor="middle" x="58.5" y="-11.3" font-family="Times,serif" font-size="14.00" fill="#0058ad">r 338 [1 2 4 5 3 6]</text>
<polyline fill="none" stroke="#0058ad" points="117,-0.5 117,-29.5 "/>
<text text-anchor="middle" x="145.5" y="-11.3" font-family="Times,serif" font-size="14.00" fill="#0058ad">a 346 3</text>
<polyline fill="none" stroke="#0058ad" points="174,-0.5 174,-29.5 "/>
<text text-anchor="middle" x="206.5" y="-11.3" font-family="Times,serif" font-size="14.00" fill="#0058ad">r 342 [1]</text>
<polyline fill="none" stroke="#0058ad" points="239,-0.5 239,-29.5 "/>
<text text-anchor="middle" x="292.5" y="-11.3" font-family="Times,serif" font-size="14.00" fill="#0058ad">r 344 [1 2 4 7 3]</text>
</g>
<!-- T4965&#45;&gt;T4969 -->
<g id="edge1" class="edge"><title>T4965:f1&#45;&gt;T4969:f1</title>
<path fill="none" stroke="#5b00c0" d="M190,-81C190,-54.786 156.159,-58.4166 147.17,-40.1301"/>
<polygon fill="#5b00c0" stroke="#5b00c0" points="150.517,-39.0448 145,-30 143.673,-40.5114 150.517,-39.0448"/>
<text text-anchor="middle" x="188.5" y="-51.8" font-family="Times,serif" font-size="14.00" fill="#5b00c0">rw</text>
</g>
<!-- T4969&#45;&gt;T4965 -->
<g id="edge2" class="edge"><title>T4969:f3&#45;&gt;T4965:f2</title>
<path fill="none" stroke="#5b00c0" d="M293,-30C293,-49.8585 281.819,-55.554 278.151,-70.7652"/>
<polygon fill="#5b00c0" stroke="#5b00c0" points="274.639,-70.6715 277,-81 281.595,-71.4537 274.639,-70.6715"/>
<text text-anchor="middle" x="295.5" y="-51.8" font-family="Times,serif" font-size="14.00" fill="#5b00c0">rw</text>
</g>
</g>
</svg>
