<?xml version="1.0" encoding="UTF-8" standalone="no"?>
<!DOCTYPE svg PUBLIC "-//W3C//DTD SVG 1.1//EN"
 "http://www.w3.org/Graphics/SVG/1.1/DTD/svg11.dtd">
<!-- Generated by graphviz version 2.38.0 (20140413.2041)
 -->
<!-- Title: a_graph Pages: 1 -->
<svg width="315pt" height="119pt"
 viewBox="0.00 0.00 315.00 119.00" xmlns="http://www.w3.org/2000/svg" xmlns:xlink="http://www.w3.org/1999/xlink">
<g id="graph0" class="graph" transform="scale(1 1) rotate(0) translate(4 115)">
<title>a_graph</title>
<polygon fill="white" stroke="none" points="-4,4 -4,-115 311,-115 311,4 -4,4"/>
<!-- T10357 -->
<g id="node1" class="node"><title>T10357</title>
<polygon fill="none" stroke="#0058ad" points="-2.84217e-14,-81.5 -2.84217e-14,-110.5 307,-110.5 307,-81.5 -2.84217e-14,-81.5"/>
<text text-anchor="middle" x="32.5" y="-92.3" font-family="Times,serif" font-size="14.00" fill="#0058ad">r 720 [1]</text>
<polyline fill="none" stroke="#0058ad" points="65,-81.5 65,-110.5 "/>
<text text-anchor="middle" x="93.5" y="-92.3" font-family="Times,serif" font-size="14.00" fill="#0058ad">a 720 2</text>
<polyline fill="none" stroke="#0058ad" points="122,-81.5 122,-110.5 "/>
<text text-anchor="middle" x="186" y="-92.3" font-family="Times,serif" font-size="14.00" fill="#0058ad">r 711 [2 3 1 4 5 6 7]</text>
<polyline fill="none" stroke="#0058ad" points="250,-81.5 250,-110.5 "/>
<text text-anchor="middle" x="278.5" y="-92.3" font-family="Times,serif" font-size="14.00" fill="#0058ad">a 705 6</text>
</g>
<!-- T10361 -->
<g id="node2" class="node"><title>T10361</title>
<polygon fill="none" stroke="#0058ad" points="37.5,-0.5 37.5,-29.5 245.5,-29.5 245.5,-0.5 37.5,-0.5"/>
<text text-anchor="middle" x="66" y="-11.3" font-family="Times,serif" font-size="14.00" fill="#0058ad">a 711 8</text>
<polyline fill="none" stroke="#0058ad" points="94.5,-0.5 94.5,-29.5 "/>
<text text-anchor="middle" x="137.5" y="-11.3" font-family="Times,serif" font-size="14.00" fill="#0058ad">r 719 [2 3 4]</text>
<polyline fill="none" stroke="#0058ad" points="180.5,-0.5 180.5,-29.5 "/>
<text text-anchor="middle" x="213" y="-11.3" font-family="Times,serif" font-size="14.00" fill="#0058ad">r 720 [1]</text>
</g>
<!-- T10357&#45;&gt;T10361 -->
<g id="edge1" class="edge"><title>T10357:f2&#45;&gt;T10361:f0</title>
<path fill="none" stroke="#5b00c0" d="M186.5,-81C186.5,-50.5661 154.592,-59.7082 126.5,-48 104.485,-38.8247 76.1937,-52.4418 67.89,-39.9419"/>
<polygon fill="#5b00c0" stroke="#5b00c0" points="71.2405,-38.9049 65.5,-30 64.4344,-40.5411 71.2405,-38.9049"/>
<text text-anchor="middle" x="186" y="-51.8" font-family="Times,serif" font-size="14.00" fill="#5b00c0">rw</text>
</g>
<!-- T10361&#45;&gt;T10357 -->
<g id="edge2" class="edge"><title>T10361:f2&#45;&gt;T10357:f1</title>
<path fill="none" stroke="#5b00c0" d="M213.5,-30C213.5,-53.8928 126.244,-33.1838 107.5,-48 98.0282,-55.4869 94.8722,-61.4283 93.8991,-70.8006"/>
<polygon fill="#5b00c0" stroke="#5b00c0" points="90.3937,-70.8708 93.5,-81 97.3884,-71.1445 90.3937,-70.8708"/>
<text text-anchor="middle" x="115" y="-51.8" font-family="Times,serif" font-size="14.00" fill="#5b00c0">rw</text>
</g>
</g>
</svg>
