<?xml version="1.0" encoding="UTF-8" standalone="no"?>
<!DOCTYPE svg PUBLIC "-//W3C//DTD SVG 1.1//EN"
 "http://www.w3.org/Graphics/SVG/1.1/DTD/svg11.dtd">
<!-- Generated by graphviz version 2.38.0 (20140413.2041)
 -->
<!-- Title: a_graph Pages: 1 -->
<svg width="491pt" height="362pt"
 viewBox="0.00 0.00 491.00 362.00" xmlns="http://www.w3.org/2000/svg" xmlns:xlink="http://www.w3.org/1999/xlink">
<g id="graph0" class="graph" transform="scale(1 1) rotate(0) translate(4 358)">
<title>a_graph</title>
<polygon fill="white" stroke="none" points="-4,4 -4,-358 487,-358 487,4 -4,4"/>
<!-- T2207 -->
<g id="node1" class="node"><title>T2207</title>
<polygon fill="none" stroke="#0058ad" points="304.5,-324.5 304.5,-353.5 419.5,-353.5 419.5,-324.5 304.5,-324.5"/>
<text text-anchor="middle" x="333.5" y="-335.3" font-family="Times,serif" font-size="14.00" fill="#0058ad">r 156 []</text>
<polyline fill="none" stroke="#0058ad" points="362.5,-324.5 362.5,-353.5 "/>
<text text-anchor="middle" x="391" y="-335.3" font-family="Times,serif" font-size="14.00" fill="#0058ad">a 154 6</text>
</g>
<!-- T2211 -->
<g id="node4" class="node"><title>T2211</title>
<polygon fill="none" stroke="#0058ad" points="131.5,-243.5 131.5,-272.5 362.5,-272.5 362.5,-243.5 131.5,-243.5"/>
<text text-anchor="middle" x="160.5" y="-254.3" font-family="Times,serif" font-size="14.00" fill="#0058ad">r 157 []</text>
<polyline fill="none" stroke="#0058ad" points="189.5,-243.5 189.5,-272.5 "/>
<text text-anchor="middle" x="218.5" y="-254.3" font-family="Times,serif" font-size="14.00" fill="#0058ad">r 156 []</text>
<polyline fill="none" stroke="#0058ad" points="247.5,-243.5 247.5,-272.5 "/>
<text text-anchor="middle" x="276.5" y="-254.3" font-family="Times,serif" font-size="14.00" fill="#0058ad">r 156 []</text>
<polyline fill="none" stroke="#0058ad" points="305.5,-243.5 305.5,-272.5 "/>
<text text-anchor="middle" x="334" y="-254.3" font-family="Times,serif" font-size="14.00" fill="#0058ad">a 156 1</text>
</g>
<!-- T2207&#45;&gt;T2211 -->
<g id="edge1" class="edge"><title>T2207:f0&#45;&gt;T2211:f3</title>
<path fill="none" stroke="#5b00c0" d="M333,-324C333,-305.226 333.686,-298.119 333.922,-283.355"/>
<polygon fill="#5b00c0" stroke="#5b00c0" points="337.424,-283.026 334,-273 330.424,-282.973 337.424,-283.026"/>
<text text-anchor="middle" x="341.5" y="-294.8" font-family="Times,serif" font-size="14.00" fill="#5b00c0">rw</text>
</g>
<!-- T2208 -->
<g id="node2" class="node"><title>T2208</title>
<polygon fill="none" stroke="#0058ad" points="185,-0.5 185,-29.5 483,-29.5 483,-0.5 185,-0.5"/>
<text text-anchor="middle" x="228" y="-11.3" font-family="Times,serif" font-size="14.00" fill="#0058ad">r 154 [2 3 1]</text>
<polyline fill="none" stroke="#0058ad" points="271,-0.5 271,-29.5 "/>
<text text-anchor="middle" x="300" y="-11.3" font-family="Times,serif" font-size="14.00" fill="#0058ad">r 156 []</text>
<polyline fill="none" stroke="#0058ad" points="329,-0.5 329,-29.5 "/>
<text text-anchor="middle" x="377" y="-11.3" font-family="Times,serif" font-size="14.00" fill="#0058ad">r 149 [3 1 2 4]</text>
<polyline fill="none" stroke="#0058ad" points="425,-0.5 425,-29.5 "/>
<text text-anchor="middle" x="454" y="-11.3" font-family="Times,serif" font-size="14.00" fill="#0058ad">r 156 []</text>
</g>
<!-- T2208&#45;&gt;T2207 -->
<g id="edge2" class="edge"><title>T2208:f0&#45;&gt;T2207:f1</title>
<path fill="none" stroke="#5b00c0" d="M228,-30C228,-49.1427 359.232,-112.537 369,-129 411.678,-200.931 392.733,-234.024 391.107,-313.536"/>
<polygon fill="#5b00c0" stroke="#5b00c0" points="387.603,-313.965 391,-324 394.603,-314.036 387.603,-313.965"/>
<text text-anchor="middle" x="402.5" y="-173.3" font-family="Times,serif" font-size="14.00" fill="#5b00c0">rw</text>
</g>
<!-- T2237 -->
<g id="node3" class="node"><title>T2237</title>
<polygon fill="none" stroke="#0058ad" points="63,-162.5 63,-191.5 317,-191.5 317,-162.5 63,-162.5"/>
<text text-anchor="middle" x="100.5" y="-173.3" font-family="Times,serif" font-size="14.00" fill="#0058ad">r 154 [2 3]</text>
<polyline fill="none" stroke="#0058ad" points="138,-162.5 138,-191.5 "/>
<text text-anchor="middle" x="166.5" y="-173.3" font-family="Times,serif" font-size="14.00" fill="#0058ad">a 149 6</text>
<polyline fill="none" stroke="#0058ad" points="195,-162.5 195,-191.5 "/>
<text text-anchor="middle" x="223.5" y="-173.3" font-family="Times,serif" font-size="14.00" fill="#0058ad">a 157 4</text>
<polyline fill="none" stroke="#0058ad" points="252,-162.5 252,-191.5 "/>
<text text-anchor="middle" x="284.5" y="-173.3" font-family="Times,serif" font-size="14.00" fill="#0058ad">r 157 [4]</text>
</g>
<!-- T2208&#45;&gt;T2237 -->
<g id="edge4" class="edge"><title>T2208:f2&#45;&gt;T2237:f1</title>
<path fill="none" stroke="#5b00c0" d="M377,-30C377,-51.9539 350.383,-37.6913 331,-48 328.867,-49.1342 206.351,-131.936 173.845,-155.727"/>
<polygon fill="#5b00c0" stroke="#5b00c0" points="171.625,-153.021 166,-162 175.996,-158.489 171.625,-153.021"/>
<text text-anchor="middle" x="287.5" y="-92.3" font-family="Times,serif" font-size="14.00" fill="#5b00c0">rw</text>
</g>
<!-- T2208&#45;&gt;T2211 -->
<g id="edge3" class="edge"><title>T2208:f1&#45;&gt;T2211:f3</title>
<path fill="none" stroke="#5b00c0" d="M300,-30C300,-45.932 322.945,-34.2543 331,-48 373.025,-119.716 337.206,-153.502 334.197,-232.596"/>
<polygon fill="#5b00c0" stroke="#5b00c0" points="330.69,-232.935 334,-243 337.689,-233.068 330.69,-232.935"/>
<text text-anchor="middle" x="358.5" y="-132.8" font-family="Times,serif" font-size="14.00" fill="#5b00c0">rw</text>
</g>
<!-- T2215 -->
<g id="node5" class="node"><title>T2215</title>
<polygon fill="none" stroke="#0058ad" points="0,-81.5 0,-110.5 228,-110.5 228,-81.5 0,-81.5"/>
<text text-anchor="middle" x="28.5" y="-92.3" font-family="Times,serif" font-size="14.00" fill="#0058ad">a 151 7</text>
<polyline fill="none" stroke="#0058ad" points="57,-81.5 57,-110.5 "/>
<text text-anchor="middle" x="85.5" y="-92.3" font-family="Times,serif" font-size="14.00" fill="#0058ad">a 154 1</text>
<polyline fill="none" stroke="#0058ad" points="114,-81.5 114,-110.5 "/>
<text text-anchor="middle" x="142.5" y="-92.3" font-family="Times,serif" font-size="14.00" fill="#0058ad">a 153 3</text>
<polyline fill="none" stroke="#0058ad" points="171,-81.5 171,-110.5 "/>
<text text-anchor="middle" x="199.5" y="-92.3" font-family="Times,serif" font-size="14.00" fill="#0058ad">a 153 4</text>
</g>
<!-- T2237&#45;&gt;T2215 -->
<g id="edge5" class="edge"><title>T2237:f0&#45;&gt;T2215:f1</title>
<path fill="none" stroke="#5b00c0" d="M100,-162C100,-142.25 89.5181,-136.391 86.0788,-121.199"/>
<polygon fill="#5b00c0" stroke="#5b00c0" points="89.5325,-120.576 85,-111 82.5713,-121.313 89.5325,-120.576"/>
<text text-anchor="middle" x="103.5" y="-132.8" font-family="Times,serif" font-size="14.00" fill="#5b00c0">rw</text>
</g>
<!-- T2211&#45;&gt;T2237 -->
<g id="edge6" class="edge"><title>T2211:f0&#45;&gt;T2237:f2</title>
<path fill="none" stroke="#5b00c0" d="M160,-243C160,-210.607 210.766,-224.31 221.871,-202.001"/>
<polygon fill="#5b00c0" stroke="#5b00c0" points="225.341,-202.51 224,-192 218.494,-201.052 225.341,-202.51"/>
<text text-anchor="middle" x="221.5" y="-213.8" font-family="Times,serif" font-size="14.00" fill="#5b00c0">rw</text>
</g>
<!-- T2215&#45;&gt;T2207 -->
<g id="edge7" class="edge"><title>T2215:f1&#45;&gt;T2207:f1</title>
<path fill="none" stroke="#c02700" d="M85,-111C85,-137.526 61.154,-136.457 54,-162 50.404,-174.839 49.4382,-179.471 54,-192 70.0816,-236.167 81.4421,-249.242 122,-273 133.689,-279.847 337.931,-302.886 382.469,-318.59"/>
<polygon fill="#c02700" stroke="#c02700" points="380.681,-321.6 391,-324 384.43,-315.689 380.681,-321.6"/>
<text text-anchor="middle" x="79" y="-213.8" font-family="Times,serif" font-size="14.00" fill="#c02700">ww</text>
</g>
<!-- T2215&#45;&gt;T2208 -->
<g id="edge8" class="edge"><title>T2215:f1&#45;&gt;T2208:f0</title>
<path fill="none" stroke="#c000a5" d="M85,-81C85,-31.527 125.365,-16.8563 173.87,-15.1706"/>
<polygon fill="#c000a5" stroke="#c000a5" points="174.06,-18.668 184,-15 173.942,-11.669 174.06,-18.668"/>
<text text-anchor="middle" x="100.5" y="-51.8" font-family="Times,serif" font-size="14.00" fill="#c000a5">wr</text>
</g>
</g>
</svg>
