<?xml version="1.0" encoding="UTF-8" standalone="no"?>
<!DOCTYPE svg PUBLIC "-//W3C//DTD SVG 1.1//EN"
 "http://www.w3.org/Graphics/SVG/1.1/DTD/svg11.dtd">
<!-- Generated by graphviz version 2.38.0 (20140413.2041)
 -->
<!-- Title: a_graph Pages: 1 -->
<svg width="1006pt" height="767pt"
 viewBox="0.00 0.00 1005.71 767.00" xmlns="http://www.w3.org/2000/svg" xmlns:xlink="http://www.w3.org/1999/xlink">
<g id="graph0" class="graph" transform="scale(1 1) rotate(0) translate(4 763)">
<title>a_graph</title>
<polygon fill="white" stroke="none" points="-4,4 -4,-763 1001.71,-763 1001.71,4 -4,4"/>
<!-- T8472 -->
<g id="node1" class="node"><title>T8472</title>
<polygon fill="none" stroke="#0058ad" points="364.713,-729.5 364.713,-758.5 575.713,-758.5 575.713,-729.5 364.713,-729.5"/>
<text text-anchor="middle" x="393.213" y="-740.3" font-family="Times,serif" font-size="14.00" fill="#0058ad">a 586 4</text>
<polyline fill="none" stroke="#0058ad" points="421.713,-729.5 421.713,-758.5 "/>
<text text-anchor="middle" x="469.713" y="-740.3" font-family="Times,serif" font-size="14.00" fill="#0058ad">r 586 [1 2 3 4]</text>
<polyline fill="none" stroke="#0058ad" points="517.713,-729.5 517.713,-758.5 "/>
<text text-anchor="middle" x="546.713" y="-740.3" font-family="Times,serif" font-size="14.00" fill="#0058ad">r 591 []</text>
</g>
<!-- T8495 -->
<g id="node10" class="node"><title>T8495</title>
<polygon fill="none" stroke="#0058ad" points="429.213,-162.5 429.213,-191.5 543.213,-191.5 543.213,-162.5 429.213,-162.5"/>
<text text-anchor="middle" x="457.713" y="-173.3" font-family="Times,serif" font-size="14.00" fill="#0058ad">a 591 2</text>
<polyline fill="none" stroke="#0058ad" points="486.213,-162.5 486.213,-191.5 "/>
<text text-anchor="middle" x="514.713" y="-173.3" font-family="Times,serif" font-size="14.00" fill="#0058ad">a 589 1</text>
</g>
<!-- T8472&#45;&gt;T8495 -->
<g id="edge2" class="edge"><title>T8472:f2&#45;&gt;T8495:f0</title>
<path fill="none" stroke="#5b00c0" d="M577.213,-744C634.132,-744 783.404,-741.886 831.213,-711 851.831,-697.681 860.213,-688.545 860.213,-664 860.213,-664 860.213,-664 860.213,-459.5 860.213,-334.567 755.738,-323.897 635.213,-291 601.122,-281.695 503.756,-296.33 477.213,-273 452.082,-250.91 456.02,-232.926 457.029,-202.38"/>
<polygon fill="#5b00c0" stroke="#5b00c0" points="460.536,-202.061 457.213,-192 453.537,-201.936 460.536,-202.061"/>
<text text-anchor="middle" x="867.713" y="-456.8" font-family="Times,serif" font-size="14.00" fill="#5b00c0">rw</text>
</g>
<!-- T8483 -->
<g id="node11" class="node"><title>T8483</title>
<polygon fill="none" stroke="#0058ad" points="421.713,-648.5 421.713,-677.5 788.713,-677.5 788.713,-648.5 421.713,-648.5"/>
<text text-anchor="middle" x="475.213" y="-659.3" font-family="Times,serif" font-size="14.00" fill="#0058ad">r 585 [2 3 4 8 1]</text>
<polyline fill="none" stroke="#0058ad" points="528.713,-648.5 528.713,-677.5 "/>
<text text-anchor="middle" x="576.713" y="-659.3" font-family="Times,serif" font-size="14.00" fill="#0058ad">r 586 [1 2 3 4]</text>
<polyline fill="none" stroke="#0058ad" points="624.713,-648.5 624.713,-677.5 "/>
<text text-anchor="middle" x="678.213" y="-659.3" font-family="Times,serif" font-size="14.00" fill="#0058ad">r 585 [2 3 4 8 1]</text>
<polyline fill="none" stroke="#0058ad" points="731.713,-648.5 731.713,-677.5 "/>
<text text-anchor="middle" x="760.213" y="-659.3" font-family="Times,serif" font-size="14.00" fill="#0058ad">a 586 1</text>
</g>
<!-- T8472&#45;&gt;T8483 -->
<g id="edge1" class="edge"><title>T8472:f0&#45;&gt;T8483:f1</title>
<path fill="none" stroke="#c000a5" d="M393.213,-729C393.213,-690.412 546.112,-715.029 572.391,-687.304"/>
<polygon fill="#c000a5" stroke="#c000a5" points="575.651,-688.58 576.213,-678 569.176,-685.92 575.651,-688.58"/>
<text text-anchor="middle" x="561.713" y="-699.8" font-family="Times,serif" font-size="14.00" fill="#c000a5">wr</text>
</g>
<!-- T8493 -->
<g id="node2" class="node"><title>T8493</title>
<polygon fill="none" stroke="#0058ad" points="438.213,-81.5 438.213,-110.5 712.213,-110.5 712.213,-81.5 438.213,-81.5"/>
<text text-anchor="middle" x="470.713" y="-92.3" font-family="Times,serif" font-size="14.00" fill="#0058ad">r 589 [1]</text>
<polyline fill="none" stroke="#0058ad" points="503.213,-81.5 503.213,-110.5 "/>
<text text-anchor="middle" x="546.213" y="-92.3" font-family="Times,serif" font-size="14.00" fill="#0058ad">r 586 [1 2 3]</text>
<polyline fill="none" stroke="#0058ad" points="589.213,-81.5 589.213,-110.5 "/>
<text text-anchor="middle" x="621.713" y="-92.3" font-family="Times,serif" font-size="14.00" fill="#0058ad">r 591 [2]</text>
<polyline fill="none" stroke="#0058ad" points="654.213,-81.5 654.213,-110.5 "/>
<text text-anchor="middle" x="683.213" y="-92.3" font-family="Times,serif" font-size="14.00" fill="#0058ad">r 592 []</text>
</g>
<!-- T8493&#45;&gt;T8472 -->
<g id="edge3" class="edge"><title>T8493:f1&#45;&gt;T8472:f0</title>
<path fill="none" stroke="#5b00c0" d="M546.213,-111C546.213,-135.056 133.728,-145.509 116.213,-162 80.622,-195.512 77.2135,-329.615 77.2135,-378.5 77.2135,-664 77.2135,-664 77.2135,-664 77.2135,-726.902 277.076,-742.573 352.956,-743.904"/>
<polygon fill="#5b00c0" stroke="#5b00c0" points="353.181,-747.406 363.213,-744 353.247,-740.406 353.181,-747.406"/>
<text text-anchor="middle" x="84.7135" y="-416.3" font-family="Times,serif" font-size="14.00" fill="#5b00c0">rw</text>
</g>
<!-- T8455 -->
<g id="node3" class="node"><title>T8455</title>
<polygon fill="none" stroke="#0058ad" points="87.2135,-81.5 87.2135,-110.5 219.213,-110.5 219.213,-81.5 87.2135,-81.5"/>
<text text-anchor="middle" x="124.713" y="-92.3" font-family="Times,serif" font-size="14.00" fill="#0058ad">r 588 [8 6]</text>
<polyline fill="none" stroke="#0058ad" points="162.213,-81.5 162.213,-110.5 "/>
<text text-anchor="middle" x="190.713" y="-92.3" font-family="Times,serif" font-size="14.00" fill="#0058ad">a 588 5</text>
</g>
<!-- T8463 -->
<g id="node9" class="node"><title>T8463</title>
<polygon fill="none" stroke="#0058ad" points="16.7135,-0.5 16.7135,-29.5 159.713,-29.5 159.713,-0.5 16.7135,-0.5"/>
<text text-anchor="middle" x="59.7135" y="-11.3" font-family="Times,serif" font-size="14.00" fill="#0058ad">r 586 [1 2 3]</text>
<polyline fill="none" stroke="#0058ad" points="102.713,-0.5 102.713,-29.5 "/>
<text text-anchor="middle" x="131.213" y="-11.3" font-family="Times,serif" font-size="14.00" fill="#0058ad">a 588 4</text>
</g>
<!-- T8455&#45;&gt;T8463 -->
<g id="edge4" class="edge"><title>T8455:f1&#45;&gt;T8463:f1</title>
<path fill="none" stroke="#c02700" d="M191.213,-81C191.213,-49.9663 144.037,-61.3873 133.349,-39.9723"/>
<polygon fill="#c02700" stroke="#c02700" points="136.73,-39.0454 131.213,-30 129.885,-40.5112 136.73,-39.0454"/>
<text text-anchor="middle" x="191.213" y="-51.8" font-family="Times,serif" font-size="14.00" fill="#c02700">ww</text>
</g>
<!-- T8466 -->
<g id="node4" class="node"><title>T8466</title>
<polygon fill="none" stroke="#0058ad" points="181.713,-243.5 181.713,-272.5 378.713,-272.5 378.713,-243.5 181.713,-243.5"/>
<text text-anchor="middle" x="214.213" y="-254.3" font-family="Times,serif" font-size="14.00" fill="#0058ad">r 588 [8]</text>
<polyline fill="none" stroke="#0058ad" points="246.713,-243.5 246.713,-272.5 "/>
<text text-anchor="middle" x="284.213" y="-254.3" font-family="Times,serif" font-size="14.00" fill="#0058ad">r 579 [1 2]</text>
<polyline fill="none" stroke="#0058ad" points="321.713,-243.5 321.713,-272.5 "/>
<text text-anchor="middle" x="350.213" y="-254.3" font-family="Times,serif" font-size="14.00" fill="#0058ad">a 587 8</text>
</g>
<!-- T8451 -->
<g id="node12" class="node"><title>T8451</title>
<polygon fill="none" stroke="#0058ad" points="125.713,-162.5 125.713,-191.5 182.713,-191.5 182.713,-162.5 125.713,-162.5"/>
<text text-anchor="middle" x="154.213" y="-173.3" font-family="Times,serif" font-size="14.00" fill="#0058ad">a 588 6</text>
</g>
<!-- T8466&#45;&gt;T8451 -->
<g id="edge5" class="edge"><title>T8466:f0&#45;&gt;T8451:f0</title>
<path fill="none" stroke="#5b00c0" d="M214.213,-243C214.213,-224.618 201.313,-209.093 187.476,-197.727"/>
<polygon fill="#5b00c0" stroke="#5b00c0" points="189.392,-194.787 179.311,-191.526 185.158,-200.361 189.392,-194.787"/>
<text text-anchor="middle" x="216.713" y="-213.8" font-family="Times,serif" font-size="14.00" fill="#5b00c0">rw</text>
</g>
<!-- T8488 -->
<g id="node5" class="node"><title>T8488</title>
<polygon fill="none" stroke="#0058ad" points="730.713,-81.5 730.713,-110.5 997.713,-110.5 997.713,-81.5 730.713,-81.5"/>
<text text-anchor="middle" x="763.213" y="-92.3" font-family="Times,serif" font-size="14.00" fill="#0058ad">r 589 [1]</text>
<polyline fill="none" stroke="#0058ad" points="795.713,-81.5 795.713,-110.5 "/>
<text text-anchor="middle" x="838.713" y="-92.3" font-family="Times,serif" font-size="14.00" fill="#0058ad">r 586 [1 2 3]</text>
<polyline fill="none" stroke="#0058ad" points="881.713,-81.5 881.713,-110.5 "/>
<text text-anchor="middle" x="910.713" y="-92.3" font-family="Times,serif" font-size="14.00" fill="#0058ad">r 592 []</text>
<polyline fill="none" stroke="#0058ad" points="939.713,-81.5 939.713,-110.5 "/>
<text text-anchor="middle" x="968.713" y="-92.3" font-family="Times,serif" font-size="14.00" fill="#0058ad">r 592 []</text>
</g>
<!-- T8488&#45;&gt;T8472 -->
<g id="edge6" class="edge"><title>T8488:f1&#45;&gt;T8472:f0</title>
<path fill="none" stroke="#5b00c0" d="M838.213,-111C838.213,-140.164 847.213,-146.836 847.213,-176 847.213,-299.5 847.213,-299.5 847.213,-299.5 847.213,-371.85 817.213,-387.15 817.213,-459.5 817.213,-664 817.213,-664 817.213,-664 817.213,-774.438 682.818,-697.454 573.213,-711 555.915,-713.138 433.256,-709.989 400.98,-722.222"/>
<polygon fill="#5b00c0" stroke="#5b00c0" points="398.447,-719.788 393.213,-729 403.049,-725.062 398.447,-719.788"/>
<text text-anchor="middle" x="831.713" y="-416.3" font-family="Times,serif" font-size="14.00" fill="#5b00c0">rw</text>
</g>
<!-- T8442 -->
<g id="node6" class="node"><title>T8442</title>
<polygon fill="none" stroke="#0058ad" points="647.213,-486.5 647.213,-515.5 761.213,-515.5 761.213,-486.5 647.213,-486.5"/>
<text text-anchor="middle" x="675.713" y="-497.3" font-family="Times,serif" font-size="14.00" fill="#0058ad">a 579 2</text>
<polyline fill="none" stroke="#0058ad" points="704.213,-486.5 704.213,-515.5 "/>
<text text-anchor="middle" x="732.713" y="-497.3" font-family="Times,serif" font-size="14.00" fill="#0058ad">a 586 2</text>
</g>
<!-- T8442&#45;&gt;T8466 -->
<g id="edge8" class="edge"><title>T8442:f0&#45;&gt;T8466:f1</title>
<path fill="none" stroke="#c000a5" d="M675.213,-486C675.213,-452.584 727.606,-494.306 748.213,-468 792.34,-411.672 732.236,-368.514 676.213,-324 644.809,-299.047 631.389,-299.611 592.213,-291 577.238,-287.709 342.597,-289.618 293.269,-277.788"/>
<polygon fill="#c000a5" stroke="#c000a5" points="294.69,-274.58 284.213,-273 291.418,-280.768 294.69,-274.58"/>
<text text-anchor="middle" x="753.713" y="-375.8" font-family="Times,serif" font-size="14.00" fill="#c000a5">wr</text>
</g>
<!-- T8465 -->
<g id="node15" class="node"><title>T8465</title>
<polygon fill="none" stroke="#0058ad" points="375.213,-405.5 375.213,-434.5 547.213,-434.5 547.213,-405.5 375.213,-405.5"/>
<text text-anchor="middle" x="403.713" y="-416.3" font-family="Times,serif" font-size="14.00" fill="#0058ad">a 587 7</text>
<polyline fill="none" stroke="#0058ad" points="432.213,-405.5 432.213,-434.5 "/>
<text text-anchor="middle" x="461.213" y="-416.3" font-family="Times,serif" font-size="14.00" fill="#0058ad">r 588 []</text>
<polyline fill="none" stroke="#0058ad" points="490.213,-405.5 490.213,-434.5 "/>
<text text-anchor="middle" x="518.713" y="-416.3" font-family="Times,serif" font-size="14.00" fill="#0058ad">a 586 3</text>
</g>
<!-- T8442&#45;&gt;T8465 -->
<g id="edge7" class="edge"><title>T8442:f1&#45;&gt;T8465:f2</title>
<path fill="none" stroke="#c02700" d="M733.213,-486C733.213,-445.335 610.527,-423.155 558.458,-420.313"/>
<polygon fill="#c02700" stroke="#c02700" points="558.316,-416.807 548.213,-420 558.102,-423.804 558.316,-416.807"/>
<text text-anchor="middle" x="734.213" y="-456.8" font-family="Times,serif" font-size="14.00" fill="#c02700">ww</text>
</g>
<!-- T8471 -->
<g id="node7" class="node"><title>T8471</title>
<polygon fill="none" stroke="#0058ad" points="449.213,-324.5 449.213,-353.5 667.213,-353.5 667.213,-324.5 449.213,-324.5"/>
<text text-anchor="middle" x="492.213" y="-335.3" font-family="Times,serif" font-size="14.00" fill="#0058ad">r 586 [1 2 3]</text>
<polyline fill="none" stroke="#0058ad" points="535.213,-324.5 535.213,-353.5 "/>
<text text-anchor="middle" x="572.713" y="-335.3" font-family="Times,serif" font-size="14.00" fill="#0058ad">r 590 [1 2]</text>
<polyline fill="none" stroke="#0058ad" points="610.213,-324.5 610.213,-353.5 "/>
<text text-anchor="middle" x="638.713" y="-335.3" font-family="Times,serif" font-size="14.00" fill="#0058ad">a 565 8</text>
</g>
<!-- T8471&#45;&gt;T8472 -->
<g id="edge10" class="edge"><title>T8471:f0&#45;&gt;T8472:f0</title>
<path fill="none" stroke="#5b00c0" d="M448.213,-339C440.439,-339 445.502,-349.429 439.213,-354 410.436,-374.92 387.147,-347.644 361.213,-372 345.326,-386.921 347.213,-397.204 347.213,-419 347.213,-664 347.213,-664 347.213,-664 347.213,-696.294 331.143,-734.521 353.244,-742.497"/>
<polygon fill="#5b00c0" stroke="#5b00c0" points="352.803,-745.97 363.213,-744 353.847,-739.049 352.803,-745.97"/>
<text text-anchor="middle" x="354.713" y="-537.8" font-family="Times,serif" font-size="14.00" fill="#5b00c0">rw</text>
</g>
<!-- T8469 -->
<g id="node8" class="node"><title>T8469</title>
<polygon fill="none" stroke="#0058ad" points="486.713,-243.5 486.713,-272.5 687.713,-272.5 687.713,-243.5 486.713,-243.5"/>
<text text-anchor="middle" x="515.713" y="-254.3" font-family="Times,serif" font-size="14.00" fill="#0058ad">r 589 []</text>
<polyline fill="none" stroke="#0058ad" points="544.713,-243.5 544.713,-272.5 "/>
<text text-anchor="middle" x="573.213" y="-254.3" font-family="Times,serif" font-size="14.00" fill="#0058ad">a 590 6</text>
<polyline fill="none" stroke="#0058ad" points="601.713,-243.5 601.713,-272.5 "/>
<text text-anchor="middle" x="644.713" y="-254.3" font-family="Times,serif" font-size="14.00" fill="#0058ad">r 590 [1 2 6]</text>
</g>
<!-- T8471&#45;&gt;T8469 -->
<g id="edge9" class="edge"><title>T8471:f1&#45;&gt;T8469:f1</title>
<path fill="none" stroke="#5b00c0" d="M573.213,-324C573.213,-305.229 573.213,-298.117 573.213,-283.354"/>
<polygon fill="#5b00c0" stroke="#5b00c0" points="576.714,-283 573.213,-273 569.714,-283 576.714,-283"/>
<text text-anchor="middle" x="580.713" y="-294.8" font-family="Times,serif" font-size="14.00" fill="#5b00c0">rw</text>
</g>
<!-- T8469&#45;&gt;T8495 -->
<g id="edge11" class="edge"><title>T8469:f0&#45;&gt;T8495:f1</title>
<path fill="none" stroke="#5b00c0" d="M515.213,-243C515.213,-224.229 515.213,-217.117 515.213,-202.354"/>
<polygon fill="#5b00c0" stroke="#5b00c0" points="518.714,-202 515.213,-192 511.714,-202 518.714,-202"/>
<text text-anchor="middle" x="522.713" y="-213.8" font-family="Times,serif" font-size="14.00" fill="#5b00c0">rw</text>
</g>
<!-- T8463&#45;&gt;T8472 -->
<g id="edge12" class="edge"><title>T8463:f0&#45;&gt;T8472:f0</title>
<path fill="none" stroke="#5b00c0" d="M15.2135,-15C-20.4419,-15 21.2135,-59.3446 21.2135,-95 21.2135,-664 21.2135,-664 21.2135,-664 21.2135,-738.926 264.449,-743.722 352.973,-743.986"/>
<polygon fill="#5b00c0" stroke="#5b00c0" points="353.209,-747.486 363.213,-744 353.218,-740.486 353.209,-747.486"/>
<text text-anchor="middle" x="28.7135" y="-375.8" font-family="Times,serif" font-size="14.00" fill="#5b00c0">rw</text>
</g>
<!-- T8495&#45;&gt;T8493 -->
<g id="edge14" class="edge"><title>T8495:f1&#45;&gt;T8493:f0</title>
<path fill="none" stroke="#c000a5" d="M515.213,-162C515.213,-135.786 481.373,-139.417 472.384,-121.13"/>
<polygon fill="#c000a5" stroke="#c000a5" points="475.731,-120.045 470.213,-111 468.886,-121.511 475.731,-120.045"/>
<text text-anchor="middle" x="513.713" y="-132.8" font-family="Times,serif" font-size="14.00" fill="#c000a5">wr</text>
</g>
<!-- T8495&#45;&gt;T8488 -->
<g id="edge13" class="edge"><title>T8495:f1&#45;&gt;T8488:f0</title>
<path fill="none" stroke="#c000a5" d="M544.213,-177C591.568,-177 740.77,-163.832 760.947,-120.931"/>
<polygon fill="#c000a5" stroke="#c000a5" points="764.401,-121.528 763.213,-111 757.576,-119.971 764.401,-121.528"/>
<text text-anchor="middle" x="761.713" y="-132.8" font-family="Times,serif" font-size="14.00" fill="#c000a5">wr</text>
</g>
<!-- T8483&#45;&gt;T8442 -->
<g id="edge15" class="edge"><title>T8483:f3&#45;&gt;T8442:f1</title>
<path fill="none" stroke="#c02700" d="M760.213,-648C760.213,-586.489 819.893,-510.514 772.373,-501.821"/>
<polygon fill="#c02700" stroke="#c02700" points="772.463,-498.317 762.213,-501 771.899,-505.295 772.463,-498.317"/>
<text text-anchor="middle" x="790.213" y="-578.3" font-family="Times,serif" font-size="14.00" fill="#c02700">ww</text>
</g>
<!-- T8501 -->
<g id="node14" class="node"><title>T8501</title>
<polygon fill="none" stroke="#0058ad" points="563.713,-567.5 563.713,-596.5 728.713,-596.5 728.713,-567.5 563.713,-567.5"/>
<text text-anchor="middle" x="592.713" y="-578.3" font-family="Times,serif" font-size="14.00" fill="#0058ad">r 593 []</text>
<polyline fill="none" stroke="#0058ad" points="621.713,-567.5 621.713,-596.5 "/>
<text text-anchor="middle" x="675.213" y="-578.3" font-family="Times,serif" font-size="14.00" fill="#0058ad">r 586 [1 2 3 4 1]</text>
</g>
<!-- T8483&#45;&gt;T8501 -->
<g id="edge16" class="edge"><title>T8483:f3&#45;&gt;T8501:f1</title>
<path fill="none" stroke="#c000a5" d="M760.213,-648C760.213,-638.922 702.47,-617.645 682.169,-604.278"/>
<polygon fill="#c000a5" stroke="#c000a5" points="684.653,-601.811 675.213,-597 679.593,-606.647 684.653,-601.811"/>
<text text-anchor="middle" x="740.713" y="-618.8" font-family="Times,serif" font-size="14.00" fill="#c000a5">wr</text>
</g>
<!-- T8451&#45;&gt;T8455 -->
<g id="edge17" class="edge"><title>T8451:f0&#45;&gt;T8455:f1</title>
<path fill="none" stroke="#c02700" d="M168.202,-162.306C176.878,-151.883 186.966,-136.961 190.177,-121.023"/>
<polygon fill="#c02700" stroke="#c02700" points="193.666,-121.307 191.213,-111 186.703,-120.587 193.666,-121.307"/>
<text text-anchor="middle" x="198.213" y="-132.8" font-family="Times,serif" font-size="14.00" fill="#c02700">ww</text>
</g>
<!-- T8447 -->
<g id="node13" class="node"><title>T8447</title>
<polygon fill="none" stroke="#0058ad" points="143.713,-324.5 143.713,-353.5 430.713,-353.5 430.713,-324.5 143.713,-324.5"/>
<text text-anchor="middle" x="186.713" y="-335.3" font-family="Times,serif" font-size="14.00" fill="#0058ad">r 587 [2 3 4]</text>
<polyline fill="none" stroke="#0058ad" points="229.713,-324.5 229.713,-353.5 "/>
<text text-anchor="middle" x="258.213" y="-335.3" font-family="Times,serif" font-size="14.00" fill="#0058ad">a 588 8</text>
<polyline fill="none" stroke="#0058ad" points="286.713,-324.5 286.713,-353.5 "/>
<text text-anchor="middle" x="315.713" y="-335.3" font-family="Times,serif" font-size="14.00" fill="#0058ad">r 589 []</text>
<polyline fill="none" stroke="#0058ad" points="344.713,-324.5 344.713,-353.5 "/>
<text text-anchor="middle" x="387.713" y="-335.3" font-family="Times,serif" font-size="14.00" fill="#0058ad">r 587 [2 3 4]</text>
</g>
<!-- T8447&#45;&gt;T8466 -->
<g id="edge19" class="edge"><title>T8447:f1&#45;&gt;T8466:f0</title>
<path fill="none" stroke="#c000a5" d="M258.213,-324C258.213,-298.039 225.125,-301.264 216.336,-283.056"/>
<polygon fill="#c000a5" stroke="#c000a5" points="219.703,-282.062 214.213,-273 212.854,-283.507 219.703,-282.062"/>
<text text-anchor="middle" x="256.713" y="-294.8" font-family="Times,serif" font-size="14.00" fill="#c000a5">wr</text>
</g>
<!-- T8447&#45;&gt;T8495 -->
<g id="edge20" class="edge"><title>T8447:f2&#45;&gt;T8495:f1</title>
<path fill="none" stroke="#5b00c0" d="M316.213,-324C316.213,-299.954 479.65,-232.873 510.294,-200.758"/>
<polygon fill="#5b00c0" stroke="#5b00c0" points="513.368,-202.433 515.213,-192 507.265,-199.005 513.368,-202.433"/>
<text text-anchor="middle" x="449.713" y="-254.3" font-family="Times,serif" font-size="14.00" fill="#5b00c0">rw</text>
</g>
<!-- T8447&#45;&gt;T8451 -->
<g id="edge18" class="edge"><title>T8447:f1&#45;&gt;T8451:f0</title>
<path fill="none" stroke="#c02700" d="M258.213,-324C258.213,-305.312 237.064,-314.08 220.213,-306 189.922,-291.476 170.043,-301.471 152.213,-273 138.877,-251.705 141.939,-222.207 146.711,-201.547"/>
<polygon fill="#c02700" stroke="#c02700" points="150.158,-202.198 149.286,-191.64 143.383,-200.438 150.158,-202.198"/>
<text text-anchor="middle" x="162.213" y="-254.3" font-family="Times,serif" font-size="14.00" fill="#c02700">ww</text>
</g>
<!-- T8501&#45;&gt;T8442 -->
<g id="edge21" class="edge"><title>T8501:f1&#45;&gt;T8442:f1</title>
<path fill="none" stroke="#5b00c0" d="M675.213,-567C675.213,-536.563 720.817,-546.994 731.149,-525.816"/>
<polygon fill="#5b00c0" stroke="#5b00c0" points="734.58,-526.506 733.213,-516 727.73,-525.066 734.58,-526.506"/>
<text text-anchor="middle" x="731.713" y="-537.8" font-family="Times,serif" font-size="14.00" fill="#5b00c0">rw</text>
</g>
<!-- T8465&#45;&gt;T8472 -->
<g id="edge27" class="edge"><title>T8465:f2&#45;&gt;T8472:f0</title>
<path fill="none" stroke="#c02700" d="M519.213,-435C519.213,-498.012 393.213,-436.988 393.213,-500 393.213,-664 393.213,-664 393.213,-664 393.213,-689.165 393.213,-697.889 393.213,-718.815"/>
<polygon fill="#c02700" stroke="#c02700" points="389.714,-719 393.213,-729 396.714,-719 389.714,-719"/>
<text text-anchor="middle" x="403.213" y="-578.3" font-family="Times,serif" font-size="14.00" fill="#c02700">ww</text>
</g>
<!-- T8465&#45;&gt;T8493 -->
<g id="edge23" class="edge"><title>T8465:f2&#45;&gt;T8493:f1</title>
<path fill="none" stroke="#c000a5" d="M548.213,-420C650.757,-420 738.454,-336.439 696.213,-243 661.133,-165.399 555.388,-196.909 546.773,-121.305"/>
<polygon fill="#c000a5" stroke="#c000a5" points="550.25,-120.796 546.213,-111 543.261,-121.175 550.25,-120.796"/>
<text text-anchor="middle" x="713.713" y="-254.3" font-family="Times,serif" font-size="14.00" fill="#c000a5">wr</text>
</g>
<!-- T8465&#45;&gt;T8488 -->
<g id="edge22" class="edge"><title>T8465:f2&#45;&gt;T8488:f1</title>
<path fill="none" stroke="#c000a5" d="M548.213,-420C607.393,-420 626.259,-417.098 677.213,-387 694.54,-376.766 696.477,-370.346 708.213,-354 716.288,-342.753 816.067,-165.654 835.091,-120.537"/>
<polygon fill="#c000a5" stroke="#c000a5" points="838.428,-121.593 838.213,-111 831.776,-119.415 838.428,-121.593"/>
<text text-anchor="middle" x="778.713" y="-254.3" font-family="Times,serif" font-size="14.00" fill="#c000a5">wr</text>
</g>
<!-- T8465&#45;&gt;T8471 -->
<g id="edge26" class="edge"><title>T8465:f2&#45;&gt;T8471:f0</title>
<path fill="none" stroke="#c000a5" d="M519.213,-405C519.213,-383.16 499.634,-380.131 493.822,-363.876"/>
<polygon fill="#c000a5" stroke="#c000a5" points="497.275,-363.307 492.213,-354 490.366,-364.433 497.275,-363.307"/>
<text text-anchor="middle" x="520.713" y="-375.8" font-family="Times,serif" font-size="14.00" fill="#c000a5">wr</text>
</g>
<!-- T8465&#45;&gt;T8463 -->
<g id="edge24" class="edge"><title>T8465:f2&#45;&gt;T8463:f0</title>
<path fill="none" stroke="#c000a5" d="M519.213,-405C519.213,-390.466 272.552,-389.38 258.213,-387 201.954,-377.662 179.172,-389.086 134.213,-354 79.9503,-311.652 59.2135,-287.332 59.2135,-218.5 59.2135,-218.5 59.2135,-218.5 59.2135,-95 59.2135,-69.8351 59.2135,-61.1109 59.2135,-40.1846"/>
<polygon fill="#c000a5" stroke="#c000a5" points="62.7136,-40 59.2135,-30 55.7136,-40 62.7136,-40"/>
<text text-anchor="middle" x="67.7135" y="-213.8" font-family="Times,serif" font-size="14.00" fill="#c000a5">wr</text>
</g>
<!-- T8465&#45;&gt;T8447 -->
<g id="edge25" class="edge"><title>T8465:f1&#45;&gt;T8447:f1</title>
<path fill="none" stroke="#5b00c0" d="M461.213,-405C461.213,-315.79 274.524,-436.331 259.21,-364.327"/>
<polygon fill="#5b00c0" stroke="#5b00c0" points="262.658,-363.618 258.213,-354 255.69,-364.29 262.658,-363.618"/>
<text text-anchor="middle" x="465.713" y="-375.8" font-family="Times,serif" font-size="14.00" fill="#5b00c0">rw</text>
</g>
</g>
</svg>
