<?xml version="1.0" encoding="UTF-8" standalone="no"?>
<!DOCTYPE svg PUBLIC "-//W3C//DTD SVG 1.1//EN"
 "http://www.w3.org/Graphics/SVG/1.1/DTD/svg11.dtd">
<!-- Generated by graphviz version 2.38.0 (20140413.2041)
 -->
<!-- Title: a_graph Pages: 1 -->
<svg width="201pt" height="119pt"
 viewBox="0.00 0.00 201.00 119.00" xmlns="http://www.w3.org/2000/svg" xmlns:xlink="http://www.w3.org/1999/xlink">
<g id="graph0" class="graph" transform="scale(1 1) rotate(0) translate(4 115)">
<title>a_graph</title>
<polygon fill="white" stroke="none" points="-4,4 -4,-115 197,-115 197,4 -4,4"/>
<!-- T6853 -->
<g id="node1" class="node"><title>T6853</title>
<polygon fill="none" stroke="#0058ad" points="0,-81.5 0,-110.5 180,-110.5 180,-81.5 0,-81.5"/>
<text text-anchor="middle" x="32.5" y="-92.3" font-family="Times,serif" font-size="14.00" fill="#0058ad">r 471 [4]</text>
<polyline fill="none" stroke="#0058ad" points="65,-81.5 65,-110.5 "/>
<text text-anchor="middle" x="93.5" y="-92.3" font-family="Times,serif" font-size="14.00" fill="#0058ad">a 478 3</text>
<polyline fill="none" stroke="#0058ad" points="122,-81.5 122,-110.5 "/>
<text text-anchor="middle" x="151" y="-92.3" font-family="Times,serif" font-size="14.00" fill="#0058ad">r 480 []</text>
</g>
<!-- T6844 -->
<g id="node2" class="node"><title>T6844</title>
<polygon fill="none" stroke="#0058ad" points="3,-0.5 3,-29.5 193,-29.5 193,-0.5 3,-0.5"/>
<text text-anchor="middle" x="32" y="-11.3" font-family="Times,serif" font-size="14.00" fill="#0058ad">r 480 []</text>
<polyline fill="none" stroke="#0058ad" points="61,-0.5 61,-29.5 "/>
<text text-anchor="middle" x="89.5" y="-11.3" font-family="Times,serif" font-size="14.00" fill="#0058ad">a 480 1</text>
<polyline fill="none" stroke="#0058ad" points="118,-0.5 118,-29.5 "/>
<text text-anchor="middle" x="155.5" y="-11.3" font-family="Times,serif" font-size="14.00" fill="#0058ad">r 478 [1 2]</text>
</g>
<!-- T6853&#45;&gt;T6844 -->
<g id="edge1" class="edge"><title>T6853:f2&#45;&gt;T6844:f1</title>
<path fill="none" stroke="#5b00c0" d="M151,-81C151,-60.2582 134.252,-60.8876 118,-48 110.014,-41.6672 99.6681,-42.5665 93.7384,-39.2376"/>
<polygon fill="#5b00c0" stroke="#5b00c0" points="96.6783,-37.3003 89,-30 90.45,-40.4952 96.6783,-37.3003"/>
<text text-anchor="middle" x="150.5" y="-51.8" font-family="Times,serif" font-size="14.00" fill="#5b00c0">rw</text>
</g>
<!-- T6844&#45;&gt;T6853 -->
<g id="edge2" class="edge"><title>T6844:f2&#45;&gt;T6853:f1</title>
<path fill="none" stroke="#5b00c0" d="M156,-30C156,-56.5665 116.269,-27.8123 99,-48 91.8432,-56.3662 92.5556,-62.3204 93.3986,-70.899"/>
<polygon fill="#5b00c0" stroke="#5b00c0" points="89.9117,-71.2257 94,-81 96.8994,-70.8096 89.9117,-71.2257"/>
<text text-anchor="middle" x="106.5" y="-51.8" font-family="Times,serif" font-size="14.00" fill="#5b00c0">rw</text>
</g>
</g>
</svg>
