<?xml version="1.0" encoding="UTF-8" standalone="no"?>
<!DOCTYPE svg PUBLIC "-//W3C//DTD SVG 1.1//EN"
 "http://www.w3.org/Graphics/SVG/1.1/DTD/svg11.dtd">
<!-- Generated by graphviz version 2.38.0 (20140413.2041)
 -->
<!-- Title: a_graph Pages: 1 -->
<svg width="180pt" height="119pt"
 viewBox="0.00 0.00 180.00 119.00" xmlns="http://www.w3.org/2000/svg" xmlns:xlink="http://www.w3.org/1999/xlink">
<g id="graph0" class="graph" transform="scale(1 1) rotate(0) translate(4 115)">
<title>a_graph</title>
<polygon fill="white" stroke="none" points="-4,4 -4,-115 176,-115 176,4 -4,4"/>
<!-- T3270 -->
<g id="node1" class="node"><title>T3270</title>
<polygon fill="none" stroke="#0058ad" points="0,-81.5 0,-110.5 172,-110.5 172,-81.5 0,-81.5"/>
<text text-anchor="middle" x="28.5" y="-92.3" font-family="Times,serif" font-size="14.00" fill="#0058ad">a 230 6</text>
<polyline fill="none" stroke="#0058ad" points="57,-81.5 57,-110.5 "/>
<text text-anchor="middle" x="85.5" y="-92.3" font-family="Times,serif" font-size="14.00" fill="#0058ad">a 231 1</text>
<polyline fill="none" stroke="#0058ad" points="114,-81.5 114,-110.5 "/>
<text text-anchor="middle" x="143" y="-92.3" font-family="Times,serif" font-size="14.00" fill="#0058ad">r 229 []</text>
</g>
<!-- T3265 -->
<g id="node2" class="node"><title>T3265</title>
<polygon fill="none" stroke="#0058ad" points="29,-0.5 29,-29.5 151,-29.5 151,-0.5 29,-0.5"/>
<text text-anchor="middle" x="61.5" y="-11.3" font-family="Times,serif" font-size="14.00" fill="#0058ad">r 230 [1]</text>
<polyline fill="none" stroke="#0058ad" points="94,-0.5 94,-29.5 "/>
<text text-anchor="middle" x="122.5" y="-11.3" font-family="Times,serif" font-size="14.00" fill="#0058ad">a 229 3</text>
</g>
<!-- T3270&#45;&gt;T3265 -->
<g id="edge1" class="edge"><title>T3270:f2&#45;&gt;T3265:f1</title>
<path fill="none" stroke="#5b00c0" d="M143,-81C143,-60.457 128.762,-55.6059 124.312,-39.9666"/>
<polygon fill="#5b00c0" stroke="#5b00c0" points="127.776,-39.4575 123,-30 120.835,-40.3713 127.776,-39.4575"/>
<text text-anchor="middle" x="145.5" y="-51.8" font-family="Times,serif" font-size="14.00" fill="#5b00c0">rw</text>
</g>
<!-- T3265&#45;&gt;T3270 -->
<g id="edge2" class="edge"><title>T3265:f0&#45;&gt;T3270:f0</title>
<path fill="none" stroke="#5b00c0" d="M61,-30C61,-52.9904 37.0698,-54.2306 29.9655,-70.7639"/>
<polygon fill="#5b00c0" stroke="#5b00c0" points="26.4486,-70.5194 28,-81 33.323,-71.8394 26.4486,-70.5194"/>
<text text-anchor="middle" x="60.5" y="-51.8" font-family="Times,serif" font-size="14.00" fill="#5b00c0">rw</text>
</g>
</g>
</svg>
