<?xml version="1.0" encoding="UTF-8" standalone="no"?>
<!DOCTYPE svg PUBLIC "-//W3C//DTD SVG 1.1//EN"
 "http://www.w3.org/Graphics/SVG/1.1/DTD/svg11.dtd">
<!-- Generated by graphviz version 2.38.0 (20140413.2041)
 -->
<!-- Title: a_graph Pages: 1 -->
<svg width="323pt" height="200pt"
 viewBox="0.00 0.00 323.00 200.00" xmlns="http://www.w3.org/2000/svg" xmlns:xlink="http://www.w3.org/1999/xlink">
<g id="graph0" class="graph" transform="scale(1 1) rotate(0) translate(4 196)">
<title>a_graph</title>
<polygon fill="white" stroke="none" points="-4,4 -4,-196 319,-196 319,4 -4,4"/>
<!-- T9153 -->
<g id="node1" class="node"><title>T9153</title>
<polygon fill="none" stroke="#0058ad" points="0,-162.5 0,-191.5 315,-191.5 315,-162.5 0,-162.5"/>
<text text-anchor="middle" x="28.5" y="-173.3" font-family="Times,serif" font-size="14.00" fill="#0058ad">a 634 2</text>
<polyline fill="none" stroke="#0058ad" points="57,-162.5 57,-191.5 "/>
<text text-anchor="middle" x="100" y="-173.3" font-family="Times,serif" font-size="14.00" fill="#0058ad">r 634 [1 3 2]</text>
<polyline fill="none" stroke="#0058ad" points="143,-162.5 143,-191.5 "/>
<text text-anchor="middle" x="186" y="-173.3" font-family="Times,serif" font-size="14.00" fill="#0058ad">r 634 [1 3 2]</text>
<polyline fill="none" stroke="#0058ad" points="229,-162.5 229,-191.5 "/>
<text text-anchor="middle" x="272" y="-173.3" font-family="Times,serif" font-size="14.00" fill="#0058ad">r 629 [2 1 3]</text>
</g>
<!-- T9151 -->
<g id="node2" class="node"><title>T9151</title>
<polygon fill="none" stroke="#0058ad" points="89.5,-81.5 89.5,-110.5 297.5,-110.5 297.5,-81.5 89.5,-81.5"/>
<text text-anchor="middle" x="132.5" y="-92.3" font-family="Times,serif" font-size="14.00" fill="#0058ad">r 629 [2 1 3]</text>
<polyline fill="none" stroke="#0058ad" points="175.5,-81.5 175.5,-110.5 "/>
<text text-anchor="middle" x="204" y="-92.3" font-family="Times,serif" font-size="14.00" fill="#0058ad">a 629 5</text>
<polyline fill="none" stroke="#0058ad" points="232.5,-81.5 232.5,-110.5 "/>
<text text-anchor="middle" x="265" y="-92.3" font-family="Times,serif" font-size="14.00" fill="#0058ad">r 634 [1]</text>
</g>
<!-- T9153&#45;&gt;T9151 -->
<g id="edge1" class="edge"><title>T9153:f3&#45;&gt;T9151:f1</title>
<path fill="none" stroke="#5b00c0" d="M272.5,-162C272.5,-128.207 218.087,-144.291 206.61,-121.019"/>
<polygon fill="#5b00c0" stroke="#5b00c0" points="209.985,-120.064 204.5,-111 203.136,-121.507 209.985,-120.064"/>
<text text-anchor="middle" x="270" y="-132.8" font-family="Times,serif" font-size="14.00" fill="#5b00c0">rw</text>
</g>
<!-- T9149 -->
<g id="node3" class="node"><title>T9149</title>
<polygon fill="none" stroke="#0058ad" points="76,-0.5 76,-29.5 133,-29.5 133,-0.5 76,-0.5"/>
<text text-anchor="middle" x="104.5" y="-11.3" font-family="Times,serif" font-size="14.00" fill="#0058ad">a 634 3</text>
</g>
<!-- T9151&#45;&gt;T9149 -->
<g id="edge2" class="edge"><title>T9151:f2&#45;&gt;T9149:f0</title>
<path fill="none" stroke="#5b00c0" d="M265.5,-81C265.5,-21.0305 197.817,-52.5411 140.973,-33.293"/>
<polygon fill="#5b00c0" stroke="#5b00c0" points="142.18,-30.0066 131.594,-29.5819 139.605,-36.5157 142.18,-30.0066"/>
<text text-anchor="middle" x="269" y="-51.8" font-family="Times,serif" font-size="14.00" fill="#5b00c0">rw</text>
</g>
<!-- T9149&#45;&gt;T9153 -->
<g id="edge3" class="edge"><title>T9149:f0&#45;&gt;T9153:f0</title>
<path fill="none" stroke="#c02700" d="M90.9127,-29.5718C70.4187,-53.0376 33.496,-101.678 28.9608,-151.934"/>
<polygon fill="#c02700" stroke="#c02700" points="25.461,-151.85 28.5,-162 32.4537,-152.171 25.461,-151.85"/>
<text text-anchor="middle" x="62.5" y="-92.3" font-family="Times,serif" font-size="14.00" fill="#c02700">ww</text>
</g>
</g>
</svg>
