<?xml version="1.0" encoding="UTF-8" standalone="no"?>
<!DOCTYPE svg PUBLIC "-//W3C//DTD SVG 1.1//EN"
 "http://www.w3.org/Graphics/SVG/1.1/DTD/svg11.dtd">
<!-- Generated by graphviz version 2.38.0 (20140413.2041)
 -->
<!-- Title: a_graph Pages: 1 -->
<svg width="421pt" height="200pt"
 viewBox="0.00 0.00 421.10 200.00" xmlns="http://www.w3.org/2000/svg" xmlns:xlink="http://www.w3.org/1999/xlink">
<g id="graph0" class="graph" transform="scale(1 1) rotate(0) translate(4 196)">
<title>a_graph</title>
<polygon fill="white" stroke="none" points="-4,4 -4,-196 417.104,-196 417.104,4 -4,4"/>
<!-- T3673 -->
<g id="node1" class="node"><title>T3673</title>
<polygon fill="none" stroke="#0058ad" points="18.6039,-162.5 18.6039,-191.5 283.604,-191.5 283.604,-162.5 18.6039,-162.5"/>
<text text-anchor="middle" x="56.1039" y="-173.3" font-family="Times,serif" font-size="14.00" fill="#0058ad">r 256 [2 4]</text>
<polyline fill="none" stroke="#0058ad" points="93.6039,-162.5 93.6039,-191.5 "/>
<text text-anchor="middle" x="131.104" y="-173.3" font-family="Times,serif" font-size="14.00" fill="#0058ad">r 256 [2 4]</text>
<polyline fill="none" stroke="#0058ad" points="168.604,-162.5 168.604,-191.5 "/>
<text text-anchor="middle" x="197.104" y="-173.3" font-family="Times,serif" font-size="14.00" fill="#0058ad">a 260 4</text>
<polyline fill="none" stroke="#0058ad" points="225.604,-162.5 225.604,-191.5 "/>
<text text-anchor="middle" x="254.604" y="-173.3" font-family="Times,serif" font-size="14.00" fill="#0058ad">r 263 []</text>
</g>
<!-- T3696 -->
<g id="node2" class="node"><title>T3696</title>
<polygon fill="none" stroke="#0058ad" points="39.6039,-81.5 39.6039,-110.5 378.604,-110.5 378.604,-81.5 39.6039,-81.5"/>
<text text-anchor="middle" x="68.1039" y="-92.3" font-family="Times,serif" font-size="14.00" fill="#0058ad">a 262 6</text>
<polyline fill="none" stroke="#0058ad" points="96.6039,-81.5 96.6039,-110.5 "/>
<text text-anchor="middle" x="125.604" y="-92.3" font-family="Times,serif" font-size="14.00" fill="#0058ad">r 263 []</text>
<polyline fill="none" stroke="#0058ad" points="154.604,-81.5 154.604,-110.5 "/>
<text text-anchor="middle" x="197.604" y="-92.3" font-family="Times,serif" font-size="14.00" fill="#0058ad">r 260 [1 2 4]</text>
<polyline fill="none" stroke="#0058ad" points="240.604,-81.5 240.604,-110.5 "/>
<text text-anchor="middle" x="309.604" y="-92.3" font-family="Times,serif" font-size="14.00" fill="#0058ad">r 185 [1 2 3 5 4 6 7 8]</text>
</g>
<!-- T3673&#45;&gt;T3696 -->
<g id="edge2" class="edge"><title>T3673:f2&#45;&gt;T3696:f2</title>
<path fill="none" stroke="#c000a5" d="M197.104,-162C197.104,-143.229 197.104,-136.117 197.104,-121.354"/>
<polygon fill="#c000a5" stroke="#c000a5" points="200.604,-121 197.104,-111 193.604,-121 200.604,-121"/>
<text text-anchor="middle" x="204.604" y="-132.8" font-family="Times,serif" font-size="14.00" fill="#c000a5">wr</text>
</g>
<!-- T3677 -->
<g id="node3" class="node"><title>T3677</title>
<polygon fill="none" stroke="#0058ad" points="22.1039,-0.5 22.1039,-29.5 294.104,-29.5 294.104,-0.5 22.1039,-0.5"/>
<text text-anchor="middle" x="59.6039" y="-11.3" font-family="Times,serif" font-size="14.00" fill="#0058ad">r 260 [1 2]</text>
<polyline fill="none" stroke="#0058ad" points="97.1039,-0.5 97.1039,-29.5 "/>
<text text-anchor="middle" x="125.604" y="-11.3" font-family="Times,serif" font-size="14.00" fill="#0058ad">a 263 1</text>
<polyline fill="none" stroke="#0058ad" points="154.104,-0.5 154.104,-29.5 "/>
<text text-anchor="middle" x="191.604" y="-11.3" font-family="Times,serif" font-size="14.00" fill="#0058ad">r 256 [2 4]</text>
<polyline fill="none" stroke="#0058ad" points="229.104,-0.5 229.104,-29.5 "/>
<text text-anchor="middle" x="261.604" y="-11.3" font-family="Times,serif" font-size="14.00" fill="#0058ad">r 263 [1]</text>
</g>
<!-- T3673&#45;&gt;T3677 -->
<g id="edge1" class="edge"><title>T3673:f3&#45;&gt;T3677:f1</title>
<path fill="none" stroke="#5b00c0" d="M285.104,-177C347.682,-177 427.919,-129.278 388.104,-81 371.014,-60.2782 170.625,-59.664 131.65,-37.8719"/>
<polygon fill="#5b00c0" stroke="#5b00c0" points="134.189,-35.4513 125.104,-30 128.806,-39.9268 134.189,-35.4513"/>
<text text-anchor="middle" x="405.604" y="-92.3" font-family="Times,serif" font-size="14.00" fill="#5b00c0">rw</text>
</g>
<!-- T3696&#45;&gt;T3677 -->
<g id="edge3" class="edge"><title>T3696:f1&#45;&gt;T3677:f1</title>
<path fill="none" stroke="#5b00c0" d="M125.104,-81C125.104,-62.2292 125.104,-55.1168 125.104,-40.3535"/>
<polygon fill="#5b00c0" stroke="#5b00c0" points="128.604,-40 125.104,-30 121.604,-40 128.604,-40"/>
<text text-anchor="middle" x="132.604" y="-51.8" font-family="Times,serif" font-size="14.00" fill="#5b00c0">rw</text>
</g>
<!-- T3677&#45;&gt;T3673 -->
<g id="edge4" class="edge"><title>T3677:f0&#45;&gt;T3673:f2</title>
<path fill="none" stroke="#5b00c0" d="M21.1039,-15C-9.23505,-15 -2.79778,-87.3924 15.1039,-111 38.2026,-141.461 170.02,-123.927 193.52,-152.199"/>
<polygon fill="#5b00c0" stroke="#5b00c0" points="190.383,-153.81 197.104,-162 196.957,-151.406 190.383,-153.81"/>
<text text-anchor="middle" x="22.6039" y="-92.3" font-family="Times,serif" font-size="14.00" fill="#5b00c0">rw</text>
</g>
</g>
</svg>
