<?xml version="1.0" encoding="UTF-8" standalone="no"?>
<!DOCTYPE svg PUBLIC "-//W3C//DTD SVG 1.1//EN"
 "http://www.w3.org/Graphics/SVG/1.1/DTD/svg11.dtd">
<!-- Generated by graphviz version 2.38.0 (20140413.2041)
 -->
<!-- Title: a_graph Pages: 1 -->
<svg width="290pt" height="200pt"
 viewBox="0.00 0.00 289.50 200.00" xmlns="http://www.w3.org/2000/svg" xmlns:xlink="http://www.w3.org/1999/xlink">
<g id="graph0" class="graph" transform="scale(1 1) rotate(0) translate(4 196)">
<title>a_graph</title>
<polygon fill="white" stroke="none" points="-4,4 -4,-196 285.5,-196 285.5,4 -4,4"/>
<!-- T6732 -->
<g id="node1" class="node"><title>T6732</title>
<polygon fill="none" stroke="#0058ad" points="0,-162.5 0,-191.5 259,-191.5 259,-162.5 0,-162.5"/>
<text text-anchor="middle" x="28.5" y="-173.3" font-family="Times,serif" font-size="14.00" fill="#0058ad">a 460 8</text>
<polyline fill="none" stroke="#0058ad" points="57,-162.5 57,-191.5 "/>
<text text-anchor="middle" x="100" y="-173.3" font-family="Times,serif" font-size="14.00" fill="#0058ad">r 464 [2 3 4]</text>
<polyline fill="none" stroke="#0058ad" points="143,-162.5 143,-191.5 "/>
<text text-anchor="middle" x="172" y="-173.3" font-family="Times,serif" font-size="14.00" fill="#0058ad">r 469 []</text>
<polyline fill="none" stroke="#0058ad" points="201,-162.5 201,-191.5 "/>
<text text-anchor="middle" x="230" y="-173.3" font-family="Times,serif" font-size="14.00" fill="#0058ad">r 468 []</text>
</g>
<!-- T6744 -->
<g id="node3" class="node"><title>T6744</title>
<polygon fill="none" stroke="#0058ad" points="73.5,-81.5 73.5,-110.5 281.5,-110.5 281.5,-81.5 73.5,-81.5"/>
<text text-anchor="middle" x="127" y="-92.3" font-family="Times,serif" font-size="14.00" fill="#0058ad">r 460 [2 1 3 4 6]</text>
<polyline fill="none" stroke="#0058ad" points="180.5,-81.5 180.5,-110.5 "/>
<text text-anchor="middle" x="209" y="-92.3" font-family="Times,serif" font-size="14.00" fill="#0058ad">a 468 1</text>
<polyline fill="none" stroke="#0058ad" points="237.5,-81.5 237.5,-110.5 "/>
<text text-anchor="middle" x="259.5" y="-92.3" font-family="Times,serif" font-size="14.00" fill="#0058ad">a 1 8</text>
</g>
<!-- T6732&#45;&gt;T6744 -->
<g id="edge1" class="edge"><title>T6732:f3&#45;&gt;T6744:f1</title>
<path fill="none" stroke="#5b00c0" d="M230.5,-162C230.5,-141.317 215.55,-136.68 210.878,-121.012"/>
<polygon fill="#5b00c0" stroke="#5b00c0" points="214.331,-120.429 209.5,-111 207.396,-121.384 214.331,-120.429"/>
<text text-anchor="middle" x="232" y="-132.8" font-family="Times,serif" font-size="14.00" fill="#5b00c0">rw</text>
</g>
<!-- T6712 -->
<g id="node2" class="node"><title>T6712</title>
<polygon fill="none" stroke="#0058ad" points="35.5,-0.5 35.5,-29.5 235.5,-29.5 235.5,-0.5 35.5,-0.5"/>
<text text-anchor="middle" x="64" y="-11.3" font-family="Times,serif" font-size="14.00" fill="#0058ad">a 460 7</text>
<polyline fill="none" stroke="#0058ad" points="92.5,-0.5 92.5,-29.5 "/>
<text text-anchor="middle" x="135.5" y="-11.3" font-family="Times,serif" font-size="14.00" fill="#0058ad">r 464 [2 3 4]</text>
<polyline fill="none" stroke="#0058ad" points="178.5,-0.5 178.5,-29.5 "/>
<text text-anchor="middle" x="207" y="-11.3" font-family="Times,serif" font-size="14.00" fill="#0058ad">a 467 7</text>
</g>
<!-- T6712&#45;&gt;T6732 -->
<g id="edge2" class="edge"><title>T6712:f0&#45;&gt;T6732:f0</title>
<path fill="none" stroke="#c02700" d="M34.5,-15C-27.5673,-15 22.7902,-88.534 28.0647,-151.926"/>
<polygon fill="#c02700" stroke="#c02700" points="24.5715,-152.16 28.5,-162 31.5649,-151.858 24.5715,-152.16"/>
<text text-anchor="middle" x="30.5" y="-92.3" font-family="Times,serif" font-size="14.00" fill="#c02700">ww</text>
</g>
<!-- T6744&#45;&gt;T6712 -->
<g id="edge3" class="edge"><title>T6744:f0&#45;&gt;T6712:f0</title>
<path fill="none" stroke="#5b00c0" d="M126.5,-81C126.5,-48.9155 76.5276,-62.1029 65.5961,-39.9216"/>
<polygon fill="#5b00c0" stroke="#5b00c0" points="68.9915,-39.0605 63.5,-30 62.1427,-40.5075 68.9915,-39.0605"/>
<text text-anchor="middle" x="123" y="-51.8" font-family="Times,serif" font-size="14.00" fill="#5b00c0">rw</text>
</g>
</g>
</svg>
