<?xml version="1.0" encoding="UTF-8" standalone="no"?>
<!DOCTYPE svg PUBLIC "-//W3C//DTD SVG 1.1//EN"
 "http://www.w3.org/Graphics/SVG/1.1/DTD/svg11.dtd">
<!-- Generated by graphviz version 2.38.0 (20140413.2041)
 -->
<!-- Title: a_graph Pages: 1 -->
<svg width="574pt" height="605pt"
 viewBox="0.00 0.00 574.00 605.00" xmlns="http://www.w3.org/2000/svg" xmlns:xlink="http://www.w3.org/1999/xlink">
<g id="graph0" class="graph" transform="scale(1 1) rotate(0) translate(4 601)">
<title>a_graph</title>
<polygon fill="white" stroke="none" points="-4,4 -4,-601 570,-601 570,4 -4,4"/>
<!-- T3503 -->
<g id="node1" class="node"><title>T3503</title>
<polygon fill="none" stroke="#0058ad" points="336,-567.5 336,-596.5 566,-596.5 566,-567.5 336,-567.5"/>
<text text-anchor="middle" x="365" y="-578.3" font-family="Times,serif" font-size="14.00" fill="#0058ad">r 250 []</text>
<polyline fill="none" stroke="#0058ad" points="394,-567.5 394,-596.5 "/>
<text text-anchor="middle" x="437" y="-578.3" font-family="Times,serif" font-size="14.00" fill="#0058ad">r 249 [1 2 3]</text>
<polyline fill="none" stroke="#0058ad" points="480,-567.5 480,-596.5 "/>
<text text-anchor="middle" x="523" y="-578.3" font-family="Times,serif" font-size="14.00" fill="#0058ad">r 249 [1 2 3]</text>
</g>
<!-- T3495 -->
<g id="node7" class="node"><title>T3495</title>
<polygon fill="none" stroke="#0058ad" points="157.5,-486.5 157.5,-515.5 454.5,-515.5 454.5,-486.5 157.5,-486.5"/>
<text text-anchor="middle" x="195" y="-497.3" font-family="Times,serif" font-size="14.00" fill="#0058ad">r 239 [2 1]</text>
<polyline fill="none" stroke="#0058ad" points="232.5,-486.5 232.5,-515.5 "/>
<text text-anchor="middle" x="261.5" y="-497.3" font-family="Times,serif" font-size="14.00" fill="#0058ad">r 250 []</text>
<polyline fill="none" stroke="#0058ad" points="290.5,-486.5 290.5,-515.5 "/>
<text text-anchor="middle" x="319" y="-497.3" font-family="Times,serif" font-size="14.00" fill="#0058ad">a 250 1</text>
<polyline fill="none" stroke="#0058ad" points="347.5,-486.5 347.5,-515.5 "/>
<text text-anchor="middle" x="401" y="-497.3" font-family="Times,serif" font-size="14.00" fill="#0058ad">r 244 [1 2 3 4 5]</text>
</g>
<!-- T3503&#45;&gt;T3495 -->
<g id="edge1" class="edge"><title>T3503:f0&#45;&gt;T3495:f2</title>
<path fill="none" stroke="#5b00c0" d="M365,-567C365,-540.529 330.407,-544.571 321.219,-526.205"/>
<polygon fill="#5b00c0" stroke="#5b00c0" points="324.545,-525.028 319,-516 317.704,-526.515 324.545,-525.028"/>
<text text-anchor="middle" x="363.5" y="-537.8" font-family="Times,serif" font-size="14.00" fill="#5b00c0">rw</text>
</g>
<!-- T3477 -->
<g id="node2" class="node"><title>T3477</title>
<polygon fill="none" stroke="#0058ad" points="1,-405.5 1,-434.5 223,-434.5 223,-405.5 1,-405.5"/>
<text text-anchor="middle" x="54.5" y="-416.3" font-family="Times,serif" font-size="14.00" fill="#0058ad">r 221 [1 2 4 6 3]</text>
<polyline fill="none" stroke="#0058ad" points="108,-405.5 108,-434.5 "/>
<text text-anchor="middle" x="137" y="-416.3" font-family="Times,serif" font-size="14.00" fill="#0058ad">r 248 []</text>
<polyline fill="none" stroke="#0058ad" points="166,-405.5 166,-434.5 "/>
<text text-anchor="middle" x="194.5" y="-416.3" font-family="Times,serif" font-size="14.00" fill="#0058ad">a 239 4</text>
</g>
<!-- T3466 -->
<g id="node8" class="node"><title>T3466</title>
<polygon fill="none" stroke="#0058ad" points="51,-324.5 51,-353.5 165,-353.5 165,-324.5 51,-324.5"/>
<text text-anchor="middle" x="79.5" y="-335.3" font-family="Times,serif" font-size="14.00" fill="#0058ad">a 247 8</text>
<polyline fill="none" stroke="#0058ad" points="108,-324.5 108,-353.5 "/>
<text text-anchor="middle" x="136.5" y="-335.3" font-family="Times,serif" font-size="14.00" fill="#0058ad">a 248 1</text>
</g>
<!-- T3477&#45;&gt;T3466 -->
<g id="edge2" class="edge"><title>T3477:f1&#45;&gt;T3466:f1</title>
<path fill="none" stroke="#5b00c0" d="M137,-405C137,-386.229 137,-379.117 137,-364.354"/>
<polygon fill="#5b00c0" stroke="#5b00c0" points="140.5,-364 137,-354 133.5,-364 140.5,-364"/>
<text text-anchor="middle" x="144.5" y="-375.8" font-family="Times,serif" font-size="14.00" fill="#5b00c0">rw</text>
</g>
<!-- T3475 -->
<g id="node3" class="node"><title>T3475</title>
<polygon fill="none" stroke="#0058ad" points="0,-243.5 0,-272.5 130,-272.5 130,-243.5 0,-243.5"/>
<text text-anchor="middle" x="32.5" y="-254.3" font-family="Times,serif" font-size="14.00" fill="#0058ad">r 248 [1]</text>
<polyline fill="none" stroke="#0058ad" points="65,-243.5 65,-272.5 "/>
<text text-anchor="middle" x="97.5" y="-254.3" font-family="Times,serif" font-size="14.00" fill="#0058ad">r 248 [1]</text>
</g>
<!-- T3507 -->
<g id="node4" class="node"><title>T3507</title>
<polygon fill="none" stroke="#0058ad" points="83.5,-162.5 83.5,-191.5 340.5,-191.5 340.5,-162.5 83.5,-162.5"/>
<text text-anchor="middle" x="112" y="-173.3" font-family="Times,serif" font-size="14.00" fill="#0058ad">a 248 5</text>
<polyline fill="none" stroke="#0058ad" points="140.5,-162.5 140.5,-191.5 "/>
<text text-anchor="middle" x="183.5" y="-173.3" font-family="Times,serif" font-size="14.00" fill="#0058ad">r 246 [1 4 5]</text>
<polyline fill="none" stroke="#0058ad" points="226.5,-162.5 226.5,-191.5 "/>
<text text-anchor="middle" x="255" y="-173.3" font-family="Times,serif" font-size="14.00" fill="#0058ad">a 248 6</text>
<polyline fill="none" stroke="#0058ad" points="283.5,-162.5 283.5,-191.5 "/>
<text text-anchor="middle" x="312" y="-173.3" font-family="Times,serif" font-size="14.00" fill="#0058ad">a 246 8</text>
</g>
<!-- T3475&#45;&gt;T3507 -->
<g id="edge3" class="edge"><title>T3475:f0&#45;&gt;T3507:f0</title>
<path fill="none" stroke="#5b00c0" d="M32,-243C32,-204.787 97.7031,-228.58 110.022,-201.993"/>
<polygon fill="#5b00c0" stroke="#5b00c0" points="113.492,-202.489 112,-192 106.625,-201.13 113.492,-202.489"/>
<text text-anchor="middle" x="110.5" y="-213.8" font-family="Times,serif" font-size="14.00" fill="#5b00c0">rw</text>
</g>
<!-- T3509 -->
<g id="node5" class="node"><title>T3509</title>
<polygon fill="none" stroke="#0058ad" points="227,-81.5 227,-110.5 455,-110.5 455,-81.5 227,-81.5"/>
<text text-anchor="middle" x="255.5" y="-92.3" font-family="Times,serif" font-size="14.00" fill="#0058ad">a 248 8</text>
<polyline fill="none" stroke="#0058ad" points="284,-81.5 284,-110.5 "/>
<text text-anchor="middle" x="321.5" y="-92.3" font-family="Times,serif" font-size="14.00" fill="#0058ad">r 249 [1 2]</text>
<polyline fill="none" stroke="#0058ad" points="359,-81.5 359,-110.5 "/>
<text text-anchor="middle" x="407" y="-92.3" font-family="Times,serif" font-size="14.00" fill="#0058ad">r 248 [1 5 6 8]</text>
</g>
<!-- T3507&#45;&gt;T3509 -->
<g id="edge4" class="edge"><title>T3507:f2&#45;&gt;T3509:f0</title>
<path fill="none" stroke="#c02700" d="M255,-162C255,-143.229 255,-136.117 255,-121.354"/>
<polygon fill="#c02700" stroke="#c02700" points="258.5,-121 255,-111 251.5,-121 258.5,-121"/>
<text text-anchor="middle" x="265" y="-132.8" font-family="Times,serif" font-size="14.00" fill="#c02700">ww</text>
</g>
<!-- T3491 -->
<g id="node6" class="node"><title>T3491</title>
<polygon fill="none" stroke="#0058ad" points="406.5,-0.5 406.5,-29.5 463.5,-29.5 463.5,-0.5 406.5,-0.5"/>
<text text-anchor="middle" x="435" y="-11.3" font-family="Times,serif" font-size="14.00" fill="#0058ad">a 249 3</text>
</g>
<!-- T3509&#45;&gt;T3491 -->
<g id="edge5" class="edge"><title>T3509:f1&#45;&gt;T3491:f0</title>
<path fill="none" stroke="#5b00c0" d="M321,-81C321,-78.7006 366.02,-53.2271 399.477,-34.6137"/>
<polygon fill="#5b00c0" stroke="#5b00c0" points="401.516,-37.4849 408.56,-29.5706 398.118,-31.3649 401.516,-37.4849"/>
<text text-anchor="middle" x="381.5" y="-51.8" font-family="Times,serif" font-size="14.00" fill="#5b00c0">rw</text>
</g>
<!-- T3491&#45;&gt;T3503 -->
<g id="edge6" class="edge"><title>T3491:f0&#45;&gt;T3503:f1</title>
<path fill="none" stroke="#c000a5" d="M450.452,-29.6606C464.484,-44.6232 483,-69.2466 483,-95 483,-502 483,-502 483,-502 483,-533.659 446.191,-532.37 438.427,-557.079"/>
<polygon fill="#c000a5" stroke="#c000a5" points="434.96,-556.603 437,-567 441.888,-557.6 434.96,-556.603"/>
<text text-anchor="middle" x="490.5" y="-294.8" font-family="Times,serif" font-size="14.00" fill="#c000a5">wr</text>
</g>
<!-- T3495&#45;&gt;T3477 -->
<g id="edge7" class="edge"><title>T3495:f0&#45;&gt;T3477:f2</title>
<path fill="none" stroke="#5b00c0" d="M195,-486C195,-467.229 195,-460.117 195,-445.354"/>
<polygon fill="#5b00c0" stroke="#5b00c0" points="198.5,-445 195,-435 191.5,-445 198.5,-445"/>
<text text-anchor="middle" x="202.5" y="-456.8" font-family="Times,serif" font-size="14.00" fill="#5b00c0">rw</text>
</g>
<!-- T3466&#45;&gt;T3475 -->
<g id="edge8" class="edge"><title>T3466:f1&#45;&gt;T3475:f0</title>
<path fill="none" stroke="#c000a5" d="M137,-324C137,-275.97 47.0076,-317.625 33.6493,-282.908"/>
<polygon fill="#c000a5" stroke="#c000a5" points="37.0946,-282.29 32,-273 30.1896,-283.439 37.0946,-282.29"/>
<text text-anchor="middle" x="136.5" y="-294.8" font-family="Times,serif" font-size="14.00" fill="#c000a5">wr</text>
</g>
<!-- T3466&#45;&gt;T3507 -->
<g id="edge9" class="edge"><title>T3466:f1&#45;&gt;T3507:f0</title>
<path fill="none" stroke="#c02700" d="M137,-324C137,-314.624 145.461,-315.025 148,-306 152.928,-288.486 141.816,-251.207 139,-243 133.646,-227.395 129.785,-224.546 122,-210 119.976,-206.218 117.652,-204.037 115.754,-201.845"/>
<polygon fill="#c02700" stroke="#c02700" points="118.833,-200.097 112,-192 112.293,-202.591 118.833,-200.097"/>
<text text-anchor="middle" x="157" y="-254.3" font-family="Times,serif" font-size="14.00" fill="#c02700">ww</text>
</g>
</g>
</svg>
