<?xml version="1.0" encoding="UTF-8" standalone="no"?>
<!DOCTYPE svg PUBLIC "-//W3C//DTD SVG 1.1//EN"
 "http://www.w3.org/Graphics/SVG/1.1/DTD/svg11.dtd">
<!-- Generated by graphviz version 2.38.0 (20140413.2041)
 -->
<!-- Title: a_graph Pages: 1 -->
<svg width="383pt" height="119pt"
 viewBox="0.00 0.00 382.50 119.00" xmlns="http://www.w3.org/2000/svg" xmlns:xlink="http://www.w3.org/1999/xlink">
<g id="graph0" class="graph" transform="scale(1 1) rotate(0) translate(4 115)">
<title>a_graph</title>
<polygon fill="white" stroke="none" points="-4,4 -4,-115 378.5,-115 378.5,4 -4,4"/>
<!-- T2501 -->
<g id="node1" class="node"><title>T2501</title>
<polygon fill="none" stroke="#0058ad" points="60.5,-81.5 60.5,-110.5 374.5,-110.5 374.5,-81.5 60.5,-81.5"/>
<text text-anchor="middle" x="108.5" y="-92.3" font-family="Times,serif" font-size="14.00" fill="#0058ad">r 170 [2 5 8 4]</text>
<polyline fill="none" stroke="#0058ad" points="156.5,-81.5 156.5,-110.5 "/>
<text text-anchor="middle" x="194" y="-92.3" font-family="Times,serif" font-size="14.00" fill="#0058ad">r 169 [3 4]</text>
<polyline fill="none" stroke="#0058ad" points="231.5,-81.5 231.5,-110.5 "/>
<text text-anchor="middle" x="260" y="-92.3" font-family="Times,serif" font-size="14.00" fill="#0058ad">a 169 8</text>
<polyline fill="none" stroke="#0058ad" points="288.5,-81.5 288.5,-110.5 "/>
<text text-anchor="middle" x="331.5" y="-92.3" font-family="Times,serif" font-size="14.00" fill="#0058ad">r 169 [3 4 8]</text>
</g>
<!-- T2505 -->
<g id="node2" class="node"><title>T2505</title>
<polygon fill="none" stroke="#0058ad" points="0,-0.5 0,-29.5 293,-29.5 293,-0.5 0,-0.5"/>
<text text-anchor="middle" x="43" y="-11.3" font-family="Times,serif" font-size="14.00" fill="#0058ad">r 171 [1 2 3]</text>
<polyline fill="none" stroke="#0058ad" points="86,-0.5 86,-29.5 "/>
<text text-anchor="middle" x="123.5" y="-11.3" font-family="Times,serif" font-size="14.00" fill="#0058ad">r 169 [3 4]</text>
<polyline fill="none" stroke="#0058ad" points="161,-0.5 161,-29.5 "/>
<text text-anchor="middle" x="189.5" y="-11.3" font-family="Times,serif" font-size="14.00" fill="#0058ad">a 170 3</text>
<polyline fill="none" stroke="#0058ad" points="218,-0.5 218,-29.5 "/>
<text text-anchor="middle" x="255.5" y="-11.3" font-family="Times,serif" font-size="14.00" fill="#0058ad">r 169 [3 4]</text>
</g>
<!-- T2501&#45;&gt;T2505 -->
<g id="edge1" class="edge"><title>T2501:f0&#45;&gt;T2505:f2</title>
<path fill="none" stroke="#5b00c0" d="M108.5,-81C108.5,-42.4468 175.024,-66.8244 187.498,-40.0707"/>
<polygon fill="#5b00c0" stroke="#5b00c0" points="190.983,-40.4906 189.5,-30 184.117,-39.1255 190.983,-40.4906"/>
<text text-anchor="middle" x="187" y="-51.8" font-family="Times,serif" font-size="14.00" fill="#5b00c0">rw</text>
</g>
<!-- T2505&#45;&gt;T2501 -->
<g id="edge2" class="edge"><title>T2505:f1&#45;&gt;T2501:f2</title>
<path fill="none" stroke="#5b00c0" d="M123.5,-30C123.5,-64.2799 166.446,-35.8493 198.5,-48 224.04,-57.6815 252.354,-51.7865 259.033,-71.0735"/>
<polygon fill="#5b00c0" stroke="#5b00c0" points="255.576,-71.6191 260.5,-81 262.5,-70.5957 255.576,-71.6191"/>
<text text-anchor="middle" x="261" y="-51.8" font-family="Times,serif" font-size="14.00" fill="#5b00c0">rw</text>
</g>
</g>
</svg>
