<?xml version="1.0" encoding="UTF-8" standalone="no"?>
<!DOCTYPE svg PUBLIC "-//W3C//DTD SVG 1.1//EN"
 "http://www.w3.org/Graphics/SVG/1.1/DTD/svg11.dtd">
<!-- Generated by graphviz version 2.38.0 (20140413.2041)
 -->
<!-- Title: a_graph Pages: 1 -->
<svg width="386pt" height="200pt"
 viewBox="0.00 0.00 386.00 200.00" xmlns="http://www.w3.org/2000/svg" xmlns:xlink="http://www.w3.org/1999/xlink">
<g id="graph0" class="graph" transform="scale(1 1) rotate(0) translate(4 196)">
<title>a_graph</title>
<polygon fill="white" stroke="none" points="-4,4 -4,-196 382,-196 382,4 -4,4"/>
<!-- T8011 -->
<g id="node1" class="node"><title>T8011</title>
<polygon fill="none" stroke="#0058ad" points="118,-162.5 118,-191.5 378,-191.5 378,-162.5 118,-162.5"/>
<text text-anchor="middle" x="150.5" y="-173.3" font-family="Times,serif" font-size="14.00" fill="#0058ad">r 554 [3]</text>
<polyline fill="none" stroke="#0058ad" points="183,-162.5 183,-191.5 "/>
<text text-anchor="middle" x="215.5" y="-173.3" font-family="Times,serif" font-size="14.00" fill="#0058ad">r 555 [5]</text>
<polyline fill="none" stroke="#0058ad" points="248,-162.5 248,-191.5 "/>
<text text-anchor="middle" x="280.5" y="-173.3" font-family="Times,serif" font-size="14.00" fill="#0058ad">r 554 [3]</text>
<polyline fill="none" stroke="#0058ad" points="313,-162.5 313,-191.5 "/>
<text text-anchor="middle" x="345.5" y="-173.3" font-family="Times,serif" font-size="14.00" fill="#0058ad">r 554 [3]</text>
</g>
<!-- T8015 -->
<g id="node3" class="node"><title>T8015</title>
<polygon fill="none" stroke="#0058ad" points="170,-81.5 170,-110.5 360,-110.5 360,-81.5 170,-81.5"/>
<text text-anchor="middle" x="199" y="-92.3" font-family="Times,serif" font-size="14.00" fill="#0058ad">r 554 []</text>
<polyline fill="none" stroke="#0058ad" points="228,-81.5 228,-110.5 "/>
<text text-anchor="middle" x="256.5" y="-92.3" font-family="Times,serif" font-size="14.00" fill="#0058ad">a 555 8</text>
<polyline fill="none" stroke="#0058ad" points="285,-81.5 285,-110.5 "/>
<text text-anchor="middle" x="322.5" y="-92.3" font-family="Times,serif" font-size="14.00" fill="#0058ad">r 552 [1 3]</text>
</g>
<!-- T8011&#45;&gt;T8015 -->
<g id="edge1" class="edge"><title>T8011:f1&#45;&gt;T8015:f1</title>
<path fill="none" stroke="#5b00c0" d="M215,-162C215,-136.779 245.833,-138.819 254.022,-120.839"/>
<polygon fill="#5b00c0" stroke="#5b00c0" points="257.461,-121.494 256,-111 250.598,-120.114 257.461,-121.494"/>
<text text-anchor="middle" x="254.5" y="-132.8" font-family="Times,serif" font-size="14.00" fill="#5b00c0">rw</text>
</g>
<!-- T8003 -->
<g id="node2" class="node"><title>T8003</title>
<polygon fill="none" stroke="#0058ad" points="0,-0.5 0,-29.5 246,-29.5 246,-0.5 0,-0.5"/>
<text text-anchor="middle" x="28.5" y="-11.3" font-family="Times,serif" font-size="14.00" fill="#0058ad">a 505 5</text>
<polyline fill="none" stroke="#0058ad" points="57,-0.5 57,-29.5 "/>
<text text-anchor="middle" x="94.5" y="-11.3" font-family="Times,serif" font-size="14.00" fill="#0058ad">r 553 [3 6]</text>
<polyline fill="none" stroke="#0058ad" points="132,-0.5 132,-29.5 "/>
<text text-anchor="middle" x="160.5" y="-11.3" font-family="Times,serif" font-size="14.00" fill="#0058ad">a 554 3</text>
<polyline fill="none" stroke="#0058ad" points="189,-0.5 189,-29.5 "/>
<text text-anchor="middle" x="217.5" y="-11.3" font-family="Times,serif" font-size="14.00" fill="#0058ad">a 553 5</text>
</g>
<!-- T8003&#45;&gt;T8011 -->
<g id="edge2" class="edge"><title>T8003:f2&#45;&gt;T8011:f0</title>
<path fill="none" stroke="#c000a5" d="M161,-30C161,-53.6267 149.368,-57.6145 146,-81 141.384,-113.053 148.291,-123.799 149.742,-151.79"/>
<polygon fill="#c000a5" stroke="#c000a5" points="146.248,-152.092 150,-162 153.246,-151.915 146.248,-152.092"/>
<text text-anchor="middle" x="153.5" y="-92.3" font-family="Times,serif" font-size="14.00" fill="#c000a5">wr</text>
</g>
<!-- T8015&#45;&gt;T8003 -->
<g id="edge3" class="edge"><title>T8015:f0&#45;&gt;T8003:f2</title>
<path fill="none" stroke="#5b00c0" d="M199,-81C199,-56.7082 170.936,-57.3789 163.043,-40.1078"/>
<polygon fill="#5b00c0" stroke="#5b00c0" points="166.412,-39.1083 161,-30 159.551,-40.4952 166.412,-39.1083"/>
<text text-anchor="middle" x="198.5" y="-51.8" font-family="Times,serif" font-size="14.00" fill="#5b00c0">rw</text>
</g>
</g>
</svg>
