<?xml version="1.0" encoding="UTF-8" standalone="no"?>
<!DOCTYPE svg PUBLIC "-//W3C//DTD SVG 1.1//EN"
 "http://www.w3.org/Graphics/SVG/1.1/DTD/svg11.dtd">
<!-- Generated by graphviz version 2.38.0 (20140413.2041)
 -->
<!-- Title: a_graph Pages: 1 -->
<svg width="749pt" height="362pt"
 viewBox="0.00 0.00 748.92 362.00" xmlns="http://www.w3.org/2000/svg" xmlns:xlink="http://www.w3.org/1999/xlink">
<g id="graph0" class="graph" transform="scale(1 1) rotate(0) translate(4 358)">
<title>a_graph</title>
<polygon fill="white" stroke="none" points="-4,4 -4,-358 744.922,-358 744.922,4 -4,4"/>
<!-- T387 -->
<g id="node1" class="node"><title>T387</title>
<polygon fill="none" stroke="#0058ad" points="556.922,-324.5 556.922,-353.5 740.922,-353.5 740.922,-324.5 556.922,-324.5"/>
<text text-anchor="middle" x="590.922" y="-335.3" font-family="Times,serif" font-size="14.00" fill="#0058ad">r 29 [3 4]</text>
<polyline fill="none" stroke="#0058ad" points="624.922,-324.5 624.922,-353.5 "/>
<text text-anchor="middle" x="653.922" y="-335.3" font-family="Times,serif" font-size="14.00" fill="#0058ad">r 31 [2]</text>
<polyline fill="none" stroke="#0058ad" points="682.922,-324.5 682.922,-353.5 "/>
<text text-anchor="middle" x="711.922" y="-335.3" font-family="Times,serif" font-size="14.00" fill="#0058ad">r 31 [2]</text>
</g>
<!-- T389 -->
<g id="node3" class="node"><title>T389</title>
<polygon fill="none" stroke="#0058ad" points="472.422,-243.5 472.422,-272.5 623.422,-272.5 623.422,-243.5 472.422,-243.5"/>
<text text-anchor="middle" x="497.922" y="-254.3" font-family="Times,serif" font-size="14.00" fill="#0058ad">r 31 []</text>
<polyline fill="none" stroke="#0058ad" points="523.422,-243.5 523.422,-272.5 "/>
<text text-anchor="middle" x="548.422" y="-254.3" font-family="Times,serif" font-size="14.00" fill="#0058ad">a 24 5</text>
<polyline fill="none" stroke="#0058ad" points="573.422,-243.5 573.422,-272.5 "/>
<text text-anchor="middle" x="598.422" y="-254.3" font-family="Times,serif" font-size="14.00" fill="#0058ad">a 29 5</text>
</g>
<!-- T387&#45;&gt;T389 -->
<g id="edge2" class="edge"><title>T387:f0&#45;&gt;T389:f2</title>
<path fill="none" stroke="#5b00c0" d="M590.922,-324C590.922,-304.82 596.512,-298.101 598.346,-283.01"/>
<polygon fill="#5b00c0" stroke="#5b00c0" points="601.842,-283.184 598.922,-273 594.854,-282.783 601.842,-283.184"/>
<text text-anchor="middle" x="603.422" y="-294.8" font-family="Times,serif" font-size="14.00" fill="#5b00c0">rw</text>
</g>
<!-- T395 -->
<g id="node7" class="node"><title>T395</title>
<polygon fill="none" stroke="#0058ad" points="277.922,-0.5 277.922,-29.5 503.922,-29.5 503.922,-0.5 277.922,-0.5"/>
<text text-anchor="middle" x="306.922" y="-11.3" font-family="Times,serif" font-size="14.00" fill="#0058ad">r 31 [2]</text>
<polyline fill="none" stroke="#0058ad" points="335.922,-0.5 335.922,-29.5 "/>
<text text-anchor="middle" x="360.922" y="-11.3" font-family="Times,serif" font-size="14.00" fill="#0058ad">a 31 3</text>
<polyline fill="none" stroke="#0058ad" points="385.922,-0.5 385.922,-29.5 "/>
<text text-anchor="middle" x="410.922" y="-11.3" font-family="Times,serif" font-size="14.00" fill="#0058ad">a 31 4</text>
<polyline fill="none" stroke="#0058ad" points="435.922,-0.5 435.922,-29.5 "/>
<text text-anchor="middle" x="469.922" y="-11.3" font-family="Times,serif" font-size="14.00" fill="#0058ad">r 29 [3 4]</text>
</g>
<!-- T387&#45;&gt;T395 -->
<g id="edge1" class="edge"><title>T387:f1&#45;&gt;T395:f1</title>
<path fill="none" stroke="#5b00c0" d="M653.922,-324C653.922,-295.111 653.922,-287.889 653.922,-259 653.922,-259 653.922,-259 653.922,-95 653.922,-84.1497 643.925,-85.2023 633.922,-81 621.253,-75.6779 414.603,-51.6204 369.55,-35.5216"/>
<polygon fill="#5b00c0" stroke="#5b00c0" points="371.231,-32.4421 360.922,-30 367.458,-38.3382 371.231,-32.4421"/>
<text text-anchor="middle" x="661.422" y="-173.3" font-family="Times,serif" font-size="14.00" fill="#5b00c0">rw</text>
</g>
<!-- T364 -->
<g id="node2" class="node"><title>T364</title>
<polygon fill="none" stroke="#0058ad" points="324.922,-162.5 324.922,-191.5 378.922,-191.5 378.922,-162.5 324.922,-162.5"/>
<text text-anchor="middle" x="351.922" y="-173.3" font-family="Times,serif" font-size="14.00" fill="#0058ad">a 31 2</text>
</g>
<!-- T364&#45;&gt;T387 -->
<g id="edge5" class="edge"><title>T364:f0&#45;&gt;T387:f1</title>
<path fill="none" stroke="#c000a5" d="M361.079,-191.662C367.645,-201.606 377.044,-214.753 386.922,-225 410.864,-249.837 416.929,-257.849 447.922,-273 450.223,-274.125 604.138,-309.594 644.381,-320.792"/>
<polygon fill="#c000a5" stroke="#c000a5" points="643.328,-324.131 653.922,-324 645.558,-317.496 643.328,-324.131"/>
<text text-anchor="middle" x="455.422" y="-254.3" font-family="Times,serif" font-size="14.00" fill="#c000a5">wr</text>
</g>
<!-- T393 -->
<g id="node4" class="node"><title>T393</title>
<polygon fill="none" stroke="#0058ad" points="420.422,-81.5 420.422,-110.5 625.422,-110.5 625.422,-81.5 420.422,-81.5"/>
<text text-anchor="middle" x="449.422" y="-92.3" font-family="Times,serif" font-size="14.00" fill="#0058ad">r 31 [2]</text>
<polyline fill="none" stroke="#0058ad" points="478.422,-81.5 478.422,-110.5 "/>
<text text-anchor="middle" x="507.422" y="-92.3" font-family="Times,serif" font-size="14.00" fill="#0058ad">r 31 [2]</text>
<polyline fill="none" stroke="#0058ad" points="536.422,-81.5 536.422,-110.5 "/>
<text text-anchor="middle" x="580.922" y="-92.3" font-family="Times,serif" font-size="14.00" fill="#0058ad">r 24 [1 2 3 4]</text>
</g>
<!-- T364&#45;&gt;T393 -->
<g id="edge6" class="edge"><title>T364:f0&#45;&gt;T393:f0</title>
<path fill="none" stroke="#c000a5" d="M366.849,-162.401C379.493,-149.57 397.633,-130.026 410.922,-111 412.341,-108.968 412.877,-106.654 413.223,-104.462"/>
<polygon fill="#c000a5" stroke="#c000a5" points="416.239,-106.25 418.922,-96 410.433,-102.34 416.239,-106.25"/>
<text text-anchor="middle" x="404.422" y="-132.8" font-family="Times,serif" font-size="14.00" fill="#c000a5">wr</text>
</g>
<!-- T385 -->
<g id="node5" class="node"><title>T385</title>
<polygon fill="none" stroke="#0058ad" points="35.9218,-81.5 35.9218,-110.5 253.922,-110.5 253.922,-81.5 35.9218,-81.5"/>
<text text-anchor="middle" x="64.9218" y="-92.3" font-family="Times,serif" font-size="14.00" fill="#0058ad">r 31 [2]</text>
<polyline fill="none" stroke="#0058ad" points="93.9218,-81.5 93.9218,-110.5 "/>
<text text-anchor="middle" x="119.422" y="-92.3" font-family="Times,serif" font-size="14.00" fill="#0058ad">r 32 []</text>
<polyline fill="none" stroke="#0058ad" points="144.922,-81.5 144.922,-110.5 "/>
<text text-anchor="middle" x="173.922" y="-92.3" font-family="Times,serif" font-size="14.00" fill="#0058ad">r 31 [2]</text>
<polyline fill="none" stroke="#0058ad" points="202.922,-81.5 202.922,-110.5 "/>
<text text-anchor="middle" x="228.422" y="-92.3" font-family="Times,serif" font-size="14.00" fill="#0058ad">r 32 []</text>
</g>
<!-- T364&#45;&gt;T385 -->
<g id="edge4" class="edge"><title>T364:f0&#45;&gt;T385:f0</title>
<path fill="none" stroke="#c000a5" d="M326.134,-162.458C325.729,-162.3 325.325,-162.147 324.922,-162 272.969,-143.012 89.1619,-166.654 67.0944,-120.768"/>
<polygon fill="#c000a5" stroke="#c000a5" points="70.5095,-120.002 64.9218,-111 63.6765,-121.521 70.5095,-120.002"/>
<text text-anchor="middle" x="113.422" y="-132.8" font-family="Times,serif" font-size="14.00" fill="#c000a5">wr</text>
</g>
<!-- T399 -->
<g id="node6" class="node"><title>T399</title>
<polygon fill="none" stroke="#0058ad" points="271.922,-81.5 271.922,-110.5 401.922,-110.5 401.922,-81.5 271.922,-81.5"/>
<text text-anchor="middle" x="300.922" y="-92.3" font-family="Times,serif" font-size="14.00" fill="#0058ad">r 31 [2]</text>
<polyline fill="none" stroke="#0058ad" points="329.922,-81.5 329.922,-110.5 "/>
<text text-anchor="middle" x="365.922" y="-92.3" font-family="Times,serif" font-size="14.00" fill="#0058ad">r 5 [1 2 3]</text>
</g>
<!-- T364&#45;&gt;T399 -->
<g id="edge3" class="edge"><title>T364:f0&#45;&gt;T399:f0</title>
<path fill="none" stroke="#c000a5" d="M331.472,-162.378C319.611,-152.35 306.232,-137.858 302.161,-121.107"/>
<polygon fill="#c000a5" stroke="#c000a5" points="305.613,-120.5 300.922,-111 298.665,-121.352 305.613,-120.5"/>
<text text-anchor="middle" x="321.422" y="-132.8" font-family="Times,serif" font-size="14.00" fill="#c000a5">wr</text>
</g>
<!-- T364&#45;&gt;T395 -->
<g id="edge7" class="edge"><title>T364:f0&#45;&gt;T395:f1</title>
<path fill="none" stroke="#c02700" d="M326.466,-162.491C325.951,-162.317 325.436,-162.153 324.922,-162 217.3,-129.978 181.214,-173.677 72.9218,-144 33.8121,-133.282 -18.2993,-112.754 6.92181,-81 47.2196,-30.2633 84.9209,-58.1002 148.922,-48 169.537,-44.7467 318.977,-51.6333 353.719,-37.0269"/>
<polygon fill="#c02700" stroke="#c02700" points="356.208,-39.4885 360.922,-30 351.32,-34.4781 356.208,-39.4885"/>
<text text-anchor="middle" x="16.9218" y="-92.3" font-family="Times,serif" font-size="14.00" fill="#c02700">ww</text>
</g>
<!-- T389&#45;&gt;T364 -->
<g id="edge8" class="edge"><title>T389:f0&#45;&gt;T364:f0</title>
<path fill="none" stroke="#5b00c0" d="M470.922,-258C449.768,-258 404.553,-222.579 376.35,-198.583"/>
<polygon fill="#5b00c0" stroke="#5b00c0" points="378.397,-195.728 368.535,-191.857 373.831,-201.033 378.397,-195.728"/>
<text text-anchor="middle" x="416.422" y="-213.8" font-family="Times,serif" font-size="14.00" fill="#5b00c0">rw</text>
</g>
<!-- T393&#45;&gt;T389 -->
<g id="edge10" class="edge"><title>T393:f2&#45;&gt;T389:f1</title>
<path fill="none" stroke="#5b00c0" d="M580.922,-111C580.922,-167.829 552.562,-181.145 549.239,-232.875"/>
<polygon fill="#5b00c0" stroke="#5b00c0" points="545.736,-232.895 548.922,-243 552.733,-233.114 545.736,-232.895"/>
<text text-anchor="middle" x="578.422" y="-173.3" font-family="Times,serif" font-size="14.00" fill="#5b00c0">rw</text>
</g>
<!-- T393&#45;&gt;T395 -->
<g id="edge9" class="edge"><title>T393:f0&#45;&gt;T395:f1</title>
<path fill="none" stroke="#5b00c0" d="M418.922,-96C411.366,-96 415.39,-87.0929 410.922,-81 403.296,-70.6008 375.054,-53.9099 364.732,-39.5034"/>
<polygon fill="#5b00c0" stroke="#5b00c0" points="367.892,-37.9794 360.922,-30 361.394,-40.5843 367.892,-37.9794"/>
<text text-anchor="middle" x="397.422" y="-51.8" font-family="Times,serif" font-size="14.00" fill="#5b00c0">rw</text>
</g>
<!-- T385&#45;&gt;T395 -->
<g id="edge11" class="edge"><title>T385:f0&#45;&gt;T395:f1</title>
<path fill="none" stroke="#5b00c0" d="M64.9218,-81C64.9218,-66.0406 302.812,-50.3259 352.063,-35.2101"/>
<polygon fill="#5b00c0" stroke="#5b00c0" points="354.076,-38.0865 360.922,-30 350.528,-32.0527 354.076,-38.0865"/>
<text text-anchor="middle" x="281.422" y="-51.8" font-family="Times,serif" font-size="14.00" fill="#5b00c0">rw</text>
</g>
<!-- T399&#45;&gt;T395 -->
<g id="edge12" class="edge"><title>T399:f0&#45;&gt;T395:f1</title>
<path fill="none" stroke="#5b00c0" d="M300.922,-81C300.922,-49.9663 348.098,-61.3873 358.786,-39.9723"/>
<polygon fill="#5b00c0" stroke="#5b00c0" points="362.25,-40.5112 360.922,-30 355.405,-39.0454 362.25,-40.5112"/>
<text text-anchor="middle" x="358.422" y="-51.8" font-family="Times,serif" font-size="14.00" fill="#5b00c0">rw</text>
</g>
<!-- T395&#45;&gt;T389 -->
<g id="edge13" class="edge"><title>T395:f3&#45;&gt;T389:f2</title>
<path fill="none" stroke="#5b00c0" d="M504.922,-15C541.879,-15 643.904,-19.9115 667.922,-48 727.599,-117.792 720.795,-248.142 634.914,-257.471"/>
<polygon fill="#5b00c0" stroke="#5b00c0" points="634.723,-253.976 624.922,-258 635.093,-260.966 634.723,-253.976"/>
<text text-anchor="middle" x="713.422" y="-132.8" font-family="Times,serif" font-size="14.00" fill="#5b00c0">rw</text>
</g>
</g>
</svg>
