<?xml version="1.0" encoding="UTF-8" standalone="no"?>
<!DOCTYPE svg PUBLIC "-//W3C//DTD SVG 1.1//EN"
 "http://www.w3.org/Graphics/SVG/1.1/DTD/svg11.dtd">
<!-- Generated by graphviz version 2.38.0 (20140413.2041)
 -->
<!-- Title: a_graph Pages: 1 -->
<svg width="327pt" height="200pt"
 viewBox="0.00 0.00 326.50 200.00" xmlns="http://www.w3.org/2000/svg" xmlns:xlink="http://www.w3.org/1999/xlink">
<g id="graph0" class="graph" transform="scale(1 1) rotate(0) translate(4 196)">
<title>a_graph</title>
<polygon fill="white" stroke="none" points="-4,4 -4,-196 322.5,-196 322.5,4 -4,4"/>
<!-- T5625 -->
<g id="node1" class="node"><title>T5625</title>
<polygon fill="none" stroke="#0058ad" points="0,-162.5 0,-191.5 114,-191.5 114,-162.5 0,-162.5"/>
<text text-anchor="middle" x="28.5" y="-173.3" font-family="Times,serif" font-size="14.00" fill="#0058ad">a 383 5</text>
<polyline fill="none" stroke="#0058ad" points="57,-162.5 57,-191.5 "/>
<text text-anchor="middle" x="85.5" y="-173.3" font-family="Times,serif" font-size="14.00" fill="#0058ad">a 390 8</text>
</g>
<!-- T5647 -->
<g id="node2" class="node"><title>T5647</title>
<polygon fill="none" stroke="#0058ad" points="60.5,-81.5 60.5,-110.5 249.5,-110.5 249.5,-81.5 60.5,-81.5"/>
<text text-anchor="middle" x="89" y="-92.3" font-family="Times,serif" font-size="14.00" fill="#0058ad">a 390 6</text>
<polyline fill="none" stroke="#0058ad" points="117.5,-81.5 117.5,-110.5 "/>
<text text-anchor="middle" x="155" y="-92.3" font-family="Times,serif" font-size="14.00" fill="#0058ad">r 391 [1 2]</text>
<polyline fill="none" stroke="#0058ad" points="192.5,-81.5 192.5,-110.5 "/>
<text text-anchor="middle" x="221" y="-92.3" font-family="Times,serif" font-size="14.00" fill="#0058ad">a 390 7</text>
</g>
<!-- T5625&#45;&gt;T5647 -->
<g id="edge1" class="edge"><title>T5625:f1&#45;&gt;T5647:f0</title>
<path fill="none" stroke="#c02700" d="M86,-162C86,-143.197 88.0574,-136.132 88.7646,-121.365"/>
<polygon fill="#c02700" stroke="#c02700" points="92.2719,-121.077 89,-111 85.2737,-120.918 92.2719,-121.077"/>
<text text-anchor="middle" x="98" y="-132.8" font-family="Times,serif" font-size="14.00" fill="#c02700">ww</text>
</g>
<!-- T5645 -->
<g id="node3" class="node"><title>T5645</title>
<polygon fill="none" stroke="#0058ad" points="3.5,-0.5 3.5,-29.5 318.5,-29.5 318.5,-0.5 3.5,-0.5"/>
<text text-anchor="middle" x="32" y="-11.3" font-family="Times,serif" font-size="14.00" fill="#0058ad">a 391 3</text>
<polyline fill="none" stroke="#0058ad" points="60.5,-0.5 60.5,-29.5 "/>
<text text-anchor="middle" x="103.5" y="-11.3" font-family="Times,serif" font-size="14.00" fill="#0058ad">r 383 [1 2 4]</text>
<polyline fill="none" stroke="#0058ad" points="146.5,-0.5 146.5,-29.5 "/>
<text text-anchor="middle" x="189.5" y="-11.3" font-family="Times,serif" font-size="14.00" fill="#0058ad">r 391 [1 2 3]</text>
<polyline fill="none" stroke="#0058ad" points="232.5,-0.5 232.5,-29.5 "/>
<text text-anchor="middle" x="275.5" y="-11.3" font-family="Times,serif" font-size="14.00" fill="#0058ad">r 391 [1 2 3]</text>
</g>
<!-- T5647&#45;&gt;T5645 -->
<g id="edge2" class="edge"><title>T5647:f1&#45;&gt;T5645:f0</title>
<path fill="none" stroke="#5b00c0" d="M155,-81C155,-54.8778 59.139,-58.1914 36.6715,-38.9682"/>
<polygon fill="#5b00c0" stroke="#5b00c0" points="39.724,-37.2519 32,-30 33.5158,-40.4859 39.724,-37.2519"/>
<text text-anchor="middle" x="135.5" y="-51.8" font-family="Times,serif" font-size="14.00" fill="#5b00c0">rw</text>
</g>
<!-- T5645&#45;&gt;T5625 -->
<g id="edge3" class="edge"><title>T5645:f1&#45;&gt;T5625:f0</title>
<path fill="none" stroke="#5b00c0" d="M103,-30C103,-52.784 72.3735,-33.2598 55,-48 17.9329,-79.4488 26.5439,-106.156 27.851,-151.934"/>
<polygon fill="#5b00c0" stroke="#5b00c0" points="24.3523,-152.053 28,-162 31.3515,-151.949 24.3523,-152.053"/>
<text text-anchor="middle" x="37.5" y="-92.3" font-family="Times,serif" font-size="14.00" fill="#5b00c0">rw</text>
</g>
</g>
</svg>
