<?xml version="1.0" encoding="UTF-8" standalone="no"?>
<!DOCTYPE svg PUBLIC "-//W3C//DTD SVG 1.1//EN"
 "http://www.w3.org/Graphics/SVG/1.1/DTD/svg11.dtd">
<!-- Generated by graphviz version 2.38.0 (20140413.2041)
 -->
<!-- Title: a_graph Pages: 1 -->
<svg width="249pt" height="119pt"
 viewBox="0.00 0.00 249.00 119.00" xmlns="http://www.w3.org/2000/svg" xmlns:xlink="http://www.w3.org/1999/xlink">
<g id="graph0" class="graph" transform="scale(1 1) rotate(0) translate(4 115)">
<title>a_graph</title>
<polygon fill="white" stroke="none" points="-4,4 -4,-115 245,-115 245,4 -4,4"/>
<!-- T949 -->
<g id="node1" class="node"><title>T949</title>
<polygon fill="none" stroke="#0058ad" points="-1.42109e-14,-81.5 -1.42109e-14,-110.5 176,-110.5 176,-81.5 -1.42109e-14,-81.5"/>
<text text-anchor="middle" x="34" y="-92.3" font-family="Times,serif" font-size="14.00" fill="#0058ad">r 55 [1 6]</text>
<polyline fill="none" stroke="#0058ad" points="68,-81.5 68,-110.5 "/>
<text text-anchor="middle" x="97" y="-92.3" font-family="Times,serif" font-size="14.00" fill="#0058ad">r 68 [1]</text>
<polyline fill="none" stroke="#0058ad" points="126,-81.5 126,-110.5 "/>
<text text-anchor="middle" x="151" y="-92.3" font-family="Times,serif" font-size="14.00" fill="#0058ad">a 68 3</text>
</g>
<!-- T976 -->
<g id="node2" class="node"><title>T976</title>
<polygon fill="none" stroke="#0058ad" points="25,-0.5 25,-29.5 241,-29.5 241,-0.5 25,-0.5"/>
<text text-anchor="middle" x="50" y="-11.3" font-family="Times,serif" font-size="14.00" fill="#0058ad">a 55 7</text>
<polyline fill="none" stroke="#0058ad" points="75,-0.5 75,-29.5 "/>
<text text-anchor="middle" x="104" y="-11.3" font-family="Times,serif" font-size="14.00" fill="#0058ad">r 68 [1]</text>
<polyline fill="none" stroke="#0058ad" points="133,-0.5 133,-29.5 "/>
<text text-anchor="middle" x="162" y="-11.3" font-family="Times,serif" font-size="14.00" fill="#0058ad">r 68 [1]</text>
<polyline fill="none" stroke="#0058ad" points="191,-0.5 191,-29.5 "/>
<text text-anchor="middle" x="216" y="-11.3" font-family="Times,serif" font-size="14.00" fill="#0058ad">a 65 6</text>
</g>
<!-- T949&#45;&gt;T976 -->
<g id="edge1" class="edge"><title>T949:f0&#45;&gt;T976:f0</title>
<path fill="none" stroke="#5b00c0" d="M34,-81C34,-61.1415 45.1807,-55.446 48.8493,-40.2348"/>
<polygon fill="#5b00c0" stroke="#5b00c0" points="52.3608,-40.3285 50,-30 45.4046,-39.5463 52.3608,-40.3285"/>
<text text-anchor="middle" x="52.5" y="-51.8" font-family="Times,serif" font-size="14.00" fill="#5b00c0">rw</text>
</g>
<!-- T976&#45;&gt;T949 -->
<g id="edge2" class="edge"><title>T976:f1&#45;&gt;T949:f2</title>
<path fill="none" stroke="#5b00c0" d="M104,-30C104,-56.7303 139.345,-52.2728 148.733,-70.7188"/>
<polygon fill="#5b00c0" stroke="#5b00c0" points="145.429,-71.9882 151,-81 152.265,-70.4809 145.429,-71.9882"/>
<text text-anchor="middle" x="147.5" y="-51.8" font-family="Times,serif" font-size="14.00" fill="#5b00c0">rw</text>
</g>
</g>
</svg>
