<?xml version="1.0" encoding="UTF-8" standalone="no"?>
<!DOCTYPE svg PUBLIC "-//W3C//DTD SVG 1.1//EN"
 "http://www.w3.org/Graphics/SVG/1.1/DTD/svg11.dtd">
<!-- Generated by graphviz version 2.38.0 (20140413.2041)
 -->
<!-- Title: a_graph Pages: 1 -->
<svg width="483pt" height="281pt"
 viewBox="0.00 0.00 482.50 281.00" xmlns="http://www.w3.org/2000/svg" xmlns:xlink="http://www.w3.org/1999/xlink">
<g id="graph0" class="graph" transform="scale(1 1) rotate(0) translate(4 277)">
<title>a_graph</title>
<polygon fill="white" stroke="none" points="-4,4 -4,-277 478.5,-277 478.5,4 -4,4"/>
<!-- T7845 -->
<g id="node1" class="node"><title>T7845</title>
<polygon fill="none" stroke="#0058ad" points="58.5,-243.5 58.5,-272.5 366.5,-272.5 366.5,-243.5 58.5,-243.5"/>
<text text-anchor="middle" x="87.5" y="-254.3" font-family="Times,serif" font-size="14.00" fill="#0058ad">r 546 []</text>
<polyline fill="none" stroke="#0058ad" points="116.5,-243.5 116.5,-272.5 "/>
<text text-anchor="middle" x="180.5" y="-254.3" font-family="Times,serif" font-size="14.00" fill="#0058ad">r 512 [1 2 3 4 5 7 8]</text>
<polyline fill="none" stroke="#0058ad" points="244.5,-243.5 244.5,-272.5 "/>
<text text-anchor="middle" x="273" y="-254.3" font-family="Times,serif" font-size="14.00" fill="#0058ad">a 547 1</text>
<polyline fill="none" stroke="#0058ad" points="301.5,-243.5 301.5,-272.5 "/>
<text text-anchor="middle" x="334" y="-254.3" font-family="Times,serif" font-size="14.00" fill="#0058ad">r 547 [1]</text>
</g>
<!-- T7835 -->
<g id="node4" class="node"><title>T7835</title>
<polygon fill="none" stroke="#0058ad" points="0,-162.5 0,-191.5 245,-191.5 245,-162.5 0,-162.5"/>
<text text-anchor="middle" x="28.5" y="-173.3" font-family="Times,serif" font-size="14.00" fill="#0058ad">a 546 2</text>
<polyline fill="none" stroke="#0058ad" points="57,-162.5 57,-191.5 "/>
<text text-anchor="middle" x="89.5" y="-173.3" font-family="Times,serif" font-size="14.00" fill="#0058ad">r 546 [2]</text>
<polyline fill="none" stroke="#0058ad" points="122,-162.5 122,-191.5 "/>
<text text-anchor="middle" x="154.5" y="-173.3" font-family="Times,serif" font-size="14.00" fill="#0058ad">r 546 [2]</text>
<polyline fill="none" stroke="#0058ad" points="187,-162.5 187,-191.5 "/>
<text text-anchor="middle" x="216" y="-173.3" font-family="Times,serif" font-size="14.00" fill="#0058ad">r 545 []</text>
</g>
<!-- T7845&#45;&gt;T7835 -->
<g id="edge1" class="edge"><title>T7845:f0&#45;&gt;T7835:f0</title>
<path fill="none" stroke="#5b00c0" d="M87.5,-243C87.5,-212.265 41.1101,-223.19 30.5998,-201.894"/>
<polygon fill="#5b00c0" stroke="#5b00c0" points="34,-201.055 28.5,-192 27.1525,-202.509 34,-201.055"/>
<text text-anchor="middle" x="86" y="-213.8" font-family="Times,serif" font-size="14.00" fill="#5b00c0">rw</text>
</g>
<!-- T7843 -->
<g id="node2" class="node"><title>T7843</title>
<polygon fill="none" stroke="#0058ad" points="302,-81.5 302,-110.5 417,-110.5 417,-81.5 302,-81.5"/>
<text text-anchor="middle" x="330.5" y="-92.3" font-family="Times,serif" font-size="14.00" fill="#0058ad">a 546 4</text>
<polyline fill="none" stroke="#0058ad" points="359,-81.5 359,-110.5 "/>
<text text-anchor="middle" x="388" y="-92.3" font-family="Times,serif" font-size="14.00" fill="#0058ad">r 547 []</text>
</g>
<!-- T7843&#45;&gt;T7845 -->
<g id="edge2" class="edge"><title>T7843:f1&#45;&gt;T7845:f2</title>
<path fill="none" stroke="#5b00c0" d="M388.5,-111C388.5,-115.179 303.57,-206.069 279.683,-234.636"/>
<polygon fill="#5b00c0" stroke="#5b00c0" points="276.63,-232.878 273.5,-243 282.259,-237.039 276.63,-232.878"/>
<text text-anchor="middle" x="352" y="-173.3" font-family="Times,serif" font-size="14.00" fill="#5b00c0">rw</text>
</g>
<!-- T7873 -->
<g id="node3" class="node"><title>T7873</title>
<polygon fill="none" stroke="#0058ad" points="208.5,-0.5 208.5,-29.5 474.5,-29.5 474.5,-0.5 208.5,-0.5"/>
<text text-anchor="middle" x="237.5" y="-11.3" font-family="Times,serif" font-size="14.00" fill="#0058ad">r 547 []</text>
<polyline fill="none" stroke="#0058ad" points="266.5,-0.5 266.5,-29.5 "/>
<text text-anchor="middle" x="295.5" y="-11.3" font-family="Times,serif" font-size="14.00" fill="#0058ad">r 547 []</text>
<polyline fill="none" stroke="#0058ad" points="324.5,-0.5 324.5,-29.5 "/>
<text text-anchor="middle" x="362" y="-11.3" font-family="Times,serif" font-size="14.00" fill="#0058ad">r 505 [1 2]</text>
<polyline fill="none" stroke="#0058ad" points="399.5,-0.5 399.5,-29.5 "/>
<text text-anchor="middle" x="437" y="-11.3" font-family="Times,serif" font-size="14.00" fill="#0058ad">r 546 [2 4]</text>
</g>
<!-- T7843&#45;&gt;T7873 -->
<g id="edge3" class="edge"><title>T7843:f0&#45;&gt;T7873:f3</title>
<path fill="none" stroke="#c000a5" d="M330.5,-81C330.5,-32.2287 422.207,-75.2014 435.819,-40.0484"/>
<polygon fill="#c000a5" stroke="#c000a5" points="439.302,-40.4404 437.5,-30 432.398,-39.2856 439.302,-40.4404"/>
<text text-anchor="middle" x="435" y="-51.8" font-family="Times,serif" font-size="14.00" fill="#c000a5">wr</text>
</g>
<!-- T7873&#45;&gt;T7845 -->
<g id="edge4" class="edge"><title>T7873:f0&#45;&gt;T7845:f2</title>
<path fill="none" stroke="#5b00c0" d="M237.5,-30C237.5,-122.54 270.945,-145.377 273.362,-232.88"/>
<polygon fill="#5b00c0" stroke="#5b00c0" points="269.864,-233.049 273.5,-243 276.864,-232.953 269.864,-233.049"/>
<text text-anchor="middle" x="266" y="-132.8" font-family="Times,serif" font-size="14.00" fill="#5b00c0">rw</text>
</g>
<!-- T7835&#45;&gt;T7843 -->
<g id="edge5" class="edge"><title>T7835:f0&#45;&gt;T7843:f0</title>
<path fill="none" stroke="#c02700" d="M28.5,-162C28.5,-102.839 218.313,-96.5105 290.375,-96.0335"/>
<polygon fill="#c02700" stroke="#c02700" points="290.512,-99.5332 300.5,-96 290.488,-92.5332 290.512,-99.5332"/>
<text text-anchor="middle" x="61.5" y="-132.8" font-family="Times,serif" font-size="14.00" fill="#c02700">ww</text>
</g>
</g>
</svg>
