<?xml version="1.0" encoding="UTF-8" standalone="no"?>
<!DOCTYPE svg PUBLIC "-//W3C//DTD SVG 1.1//EN"
 "http://www.w3.org/Graphics/SVG/1.1/DTD/svg11.dtd">
<!-- Generated by graphviz version 2.38.0 (20140413.2041)
 -->
<!-- Title: a_graph Pages: 1 -->
<svg width="238pt" height="119pt"
 viewBox="0.00 0.00 238.00 119.00" xmlns="http://www.w3.org/2000/svg" xmlns:xlink="http://www.w3.org/1999/xlink">
<g id="graph0" class="graph" transform="scale(1 1) rotate(0) translate(4 115)">
<title>a_graph</title>
<polygon fill="white" stroke="none" points="-4,4 -4,-115 234,-115 234,4 -4,4"/>
<!-- T529 -->
<g id="node1" class="node"><title>T529</title>
<polygon fill="none" stroke="#0058ad" points="-1.42109e-14,-81.5 -1.42109e-14,-110.5 230,-110.5 230,-81.5 -1.42109e-14,-81.5"/>
<text text-anchor="middle" x="25" y="-92.3" font-family="Times,serif" font-size="14.00" fill="#0058ad">a 41 4</text>
<polyline fill="none" stroke="#0058ad" points="50,-81.5 50,-110.5 "/>
<text text-anchor="middle" x="89.5" y="-92.3" font-family="Times,serif" font-size="14.00" fill="#0058ad">r 30 [1 2 3]</text>
<polyline fill="none" stroke="#0058ad" points="129,-81.5 129,-110.5 "/>
<text text-anchor="middle" x="154.5" y="-92.3" font-family="Times,serif" font-size="14.00" fill="#0058ad">r 42 []</text>
<polyline fill="none" stroke="#0058ad" points="180,-81.5 180,-110.5 "/>
<text text-anchor="middle" x="205" y="-92.3" font-family="Times,serif" font-size="14.00" fill="#0058ad">a 41 5</text>
</g>
<!-- T519 -->
<g id="node2" class="node"><title>T519</title>
<polygon fill="none" stroke="#0058ad" points="38,-0.5 38,-29.5 196,-29.5 196,-0.5 38,-0.5"/>
<text text-anchor="middle" x="63" y="-11.3" font-family="Times,serif" font-size="14.00" fill="#0058ad">a 42 3</text>
<polyline fill="none" stroke="#0058ad" points="88,-0.5 88,-29.5 "/>
<text text-anchor="middle" x="117" y="-11.3" font-family="Times,serif" font-size="14.00" fill="#0058ad">r 41 [3]</text>
<polyline fill="none" stroke="#0058ad" points="146,-0.5 146,-29.5 "/>
<text text-anchor="middle" x="171" y="-11.3" font-family="Times,serif" font-size="14.00" fill="#0058ad">a 42 4</text>
</g>
<!-- T529&#45;&gt;T519 -->
<g id="edge1" class="edge"><title>T529:f2&#45;&gt;T519:f0</title>
<path fill="none" stroke="#5b00c0" d="M155,-81C155,-38.2664 78.1331,-70.1053 64.9216,-40.1889"/>
<polygon fill="#5b00c0" stroke="#5b00c0" points="68.2927,-39.1781 63,-30 61.414,-40.4754 68.2927,-39.1781"/>
<text text-anchor="middle" x="152.5" y="-51.8" font-family="Times,serif" font-size="14.00" fill="#5b00c0">rw</text>
</g>
<!-- T519&#45;&gt;T529 -->
<g id="edge2" class="edge"><title>T519:f1&#45;&gt;T529:f0</title>
<path fill="none" stroke="#5b00c0" d="M117,-30C117,-59.548 77.8658,-32.0381 53,-48 40.1012,-56.28 29.9796,-60.1048 26.3999,-71.0503"/>
<polygon fill="#5b00c0" stroke="#5b00c0" points="22.9275,-70.6099 25,-81 29.8592,-71.5852 22.9275,-70.6099"/>
<text text-anchor="middle" x="60.5" y="-51.8" font-family="Times,serif" font-size="14.00" fill="#5b00c0">rw</text>
</g>
</g>
</svg>
