<?xml version="1.0" encoding="UTF-8" standalone="no"?>
<!DOCTYPE svg PUBLIC "-//W3C//DTD SVG 1.1//EN"
 "http://www.w3.org/Graphics/SVG/1.1/DTD/svg11.dtd">
<!-- Generated by graphviz version 2.38.0 (20140413.2041)
 -->
<!-- Title: a_graph Pages: 1 -->
<svg width="306pt" height="281pt"
 viewBox="0.00 0.00 306.00 281.00" xmlns="http://www.w3.org/2000/svg" xmlns:xlink="http://www.w3.org/1999/xlink">
<g id="graph0" class="graph" transform="scale(1 1) rotate(0) translate(4 277)">
<title>a_graph</title>
<polygon fill="white" stroke="none" points="-4,4 -4,-277 302,-277 302,4 -4,4"/>
<!-- T517 -->
<g id="node1" class="node"><title>T517</title>
<polygon fill="none" stroke="#0058ad" points="-2.84217e-14,-243.5 -2.84217e-14,-272.5 298,-272.5 298,-243.5 -2.84217e-14,-243.5"/>
<text text-anchor="middle" x="50" y="-254.3" font-family="Times,serif" font-size="14.00" fill="#0058ad">r 38 [1 2 3 5 7]</text>
<polyline fill="none" stroke="#0058ad" points="100,-243.5 100,-272.5 "/>
<text text-anchor="middle" x="125.5" y="-254.3" font-family="Times,serif" font-size="14.00" fill="#0058ad">r 40 []</text>
<polyline fill="none" stroke="#0058ad" points="151,-243.5 151,-272.5 "/>
<text text-anchor="middle" x="185" y="-254.3" font-family="Times,serif" font-size="14.00" fill="#0058ad">r 39 [1 2]</text>
<polyline fill="none" stroke="#0058ad" points="219,-243.5 219,-272.5 "/>
<text text-anchor="middle" x="258.5" y="-254.3" font-family="Times,serif" font-size="14.00" fill="#0058ad">r 30 [1 2 3]</text>
</g>
<!-- T503 -->
<g id="node2" class="node"><title>T503</title>
<polygon fill="none" stroke="#0058ad" points="64.5,-162.5 64.5,-191.5 261.5,-191.5 261.5,-162.5 64.5,-162.5"/>
<text text-anchor="middle" x="104" y="-173.3" font-family="Times,serif" font-size="14.00" fill="#0058ad">r 38 [1 2 3]</text>
<polyline fill="none" stroke="#0058ad" points="143.5,-162.5 143.5,-191.5 "/>
<text text-anchor="middle" x="168.5" y="-173.3" font-family="Times,serif" font-size="14.00" fill="#0058ad">a 40 2</text>
<polyline fill="none" stroke="#0058ad" points="193.5,-162.5 193.5,-191.5 "/>
<text text-anchor="middle" x="227.5" y="-173.3" font-family="Times,serif" font-size="14.00" fill="#0058ad">r 39 [1 2]</text>
</g>
<!-- T517&#45;&gt;T503 -->
<g id="edge1" class="edge"><title>T517:f1&#45;&gt;T503:f1</title>
<path fill="none" stroke="#5b00c0" d="M125,-243C125,-217.039 158.089,-220.264 166.878,-202.056"/>
<polygon fill="#5b00c0" stroke="#5b00c0" points="170.36,-202.507 169,-192 163.51,-201.062 170.36,-202.507"/>
<text text-anchor="middle" x="166.5" y="-213.8" font-family="Times,serif" font-size="14.00" fill="#5b00c0">rw</text>
</g>
<!-- T481 -->
<g id="node3" class="node"><title>T481</title>
<polygon fill="none" stroke="#0058ad" points="67,-81.5 67,-110.5 121,-110.5 121,-81.5 67,-81.5"/>
<text text-anchor="middle" x="94" y="-92.3" font-family="Times,serif" font-size="14.00" fill="#0058ad">a 38 5</text>
</g>
<!-- T503&#45;&gt;T481 -->
<g id="edge2" class="edge"><title>T503:f0&#45;&gt;T481:f0</title>
<path fill="none" stroke="#5b00c0" d="M104,-162C104,-148.196 101.835,-132.95 99.5201,-120.592"/>
<polygon fill="#5b00c0" stroke="#5b00c0" points="102.909,-119.692 97.4975,-110.584 96.0479,-121.079 102.909,-119.692"/>
<text text-anchor="middle" x="109.5" y="-132.8" font-family="Times,serif" font-size="14.00" fill="#5b00c0">rw</text>
</g>
<!-- T492 -->
<g id="node4" class="node"><title>T492</title>
<polygon fill="none" stroke="#0058ad" points="31,-0.5 31,-29.5 85,-29.5 85,-0.5 31,-0.5"/>
<text text-anchor="middle" x="58" y="-11.3" font-family="Times,serif" font-size="14.00" fill="#0058ad">a 38 7</text>
</g>
<!-- T481&#45;&gt;T492 -->
<g id="edge3" class="edge"><title>T481:f0&#45;&gt;T492:f0</title>
<path fill="none" stroke="#c02700" d="M87.397,-81.1434C82.1701,-69.3828 74.7651,-52.7216 68.695,-39.0637"/>
<polygon fill="#c02700" stroke="#c02700" points="71.8209,-37.4791 64.5611,-29.7625 65.4242,-40.3221 71.8209,-37.4791"/>
<text text-anchor="middle" x="89" y="-51.8" font-family="Times,serif" font-size="14.00" fill="#c02700">ww</text>
</g>
<!-- T492&#45;&gt;T517 -->
<g id="edge4" class="edge"><title>T492:f0&#45;&gt;T517:f0</title>
<path fill="none" stroke="#c000a5" d="M57.1286,-29.6644C55.1443,-64.3118 50.4289,-154.214 50.0274,-232.528"/>
<polygon fill="#c000a5" stroke="#c000a5" points="46.5262,-232.991 50,-243 53.5262,-233.009 46.5262,-232.991"/>
<text text-anchor="middle" x="60.5" y="-132.8" font-family="Times,serif" font-size="14.00" fill="#c000a5">wr</text>
</g>
</g>
</svg>
