<?xml version="1.0" encoding="UTF-8" standalone="no"?>
<!DOCTYPE svg PUBLIC "-//W3C//DTD SVG 1.1//EN"
 "http://www.w3.org/Graphics/SVG/1.1/DTD/svg11.dtd">
<!-- Generated by graphviz version 2.38.0 (20140413.2041)
 -->
<!-- Title: a_graph Pages: 1 -->
<svg width="172pt" height="119pt"
 viewBox="0.00 0.00 172.00 119.00" xmlns="http://www.w3.org/2000/svg" xmlns:xlink="http://www.w3.org/1999/xlink">
<g id="graph0" class="graph" transform="scale(1 1) rotate(0) translate(4 115)">
<title>a_graph</title>
<polygon fill="white" stroke="none" points="-4,4 -4,-115 168,-115 168,4 -4,4"/>
<!-- T6895 -->
<g id="node1" class="node"><title>T6895</title>
<polygon fill="none" stroke="#0058ad" points="0,-81.5 0,-110.5 164,-110.5 164,-81.5 0,-81.5"/>
<text text-anchor="middle" x="28.5" y="-92.3" font-family="Times,serif" font-size="14.00" fill="#0058ad">a 482 6</text>
<polyline fill="none" stroke="#0058ad" points="57,-81.5 57,-110.5 "/>
<text text-anchor="middle" x="110.5" y="-92.3" font-family="Times,serif" font-size="14.00" fill="#0058ad">r 481 [1 2 3 5 6]</text>
</g>
<!-- T6903 -->
<g id="node2" class="node"><title>T6903</title>
<polygon fill="none" stroke="#0058ad" points="5.5,-0.5 5.5,-29.5 148.5,-29.5 148.5,-0.5 5.5,-0.5"/>
<text text-anchor="middle" x="34" y="-11.3" font-family="Times,serif" font-size="14.00" fill="#0058ad">a 481 8</text>
<polyline fill="none" stroke="#0058ad" points="62.5,-0.5 62.5,-29.5 "/>
<text text-anchor="middle" x="105.5" y="-11.3" font-family="Times,serif" font-size="14.00" fill="#0058ad">r 482 [1 4 5]</text>
</g>
<!-- T6895&#45;&gt;T6903 -->
<g id="edge1" class="edge"><title>T6895:f1&#45;&gt;T6903:f0</title>
<path fill="none" stroke="#5b00c0" d="M111,-81C111,-76.8711 61.1408,-49.686 41.6646,-36.5508"/>
<polygon fill="#5b00c0" stroke="#5b00c0" points="43.8758,-33.8365 34,-30 39.3278,-39.1578 43.8758,-33.8365"/>
<text text-anchor="middle" x="90.5" y="-51.8" font-family="Times,serif" font-size="14.00" fill="#5b00c0">rw</text>
</g>
<!-- T6903&#45;&gt;T6895 -->
<g id="edge2" class="edge"><title>T6903:f1&#45;&gt;T6895:f0</title>
<path fill="none" stroke="#5b00c0" d="M106,-30C106,-59.548 64.178,-28.475 42,-48 32.938,-55.978 29.5707,-61.6662 28.4712,-70.887"/>
<polygon fill="#5b00c0" stroke="#5b00c0" points="24.9693,-70.8479 28,-81 31.9617,-71.1738 24.9693,-70.8479"/>
<text text-anchor="middle" x="49.5" y="-51.8" font-family="Times,serif" font-size="14.00" fill="#5b00c0">rw</text>
</g>
</g>
</svg>
