<?xml version="1.0" encoding="UTF-8" standalone="no"?>
<!DOCTYPE svg PUBLIC "-//W3C//DTD SVG 1.1//EN"
 "http://www.w3.org/Graphics/SVG/1.1/DTD/svg11.dtd">
<!-- Generated by graphviz version 2.38.0 (20140413.2041)
 -->
<!-- Title: a_graph Pages: 1 -->
<svg width="233pt" height="200pt"
 viewBox="0.00 0.00 233.00 200.00" xmlns="http://www.w3.org/2000/svg" xmlns:xlink="http://www.w3.org/1999/xlink">
<g id="graph0" class="graph" transform="scale(1 1) rotate(0) translate(4 196)">
<title>a_graph</title>
<polygon fill="white" stroke="none" points="-4,4 -4,-196 229,-196 229,4 -4,4"/>
<!-- T5623 -->
<g id="node1" class="node"><title>T5623</title>
<polygon fill="none" stroke="#0058ad" points="12.5,-162.5 12.5,-191.5 134.5,-191.5 134.5,-162.5 12.5,-162.5"/>
<text text-anchor="middle" x="41" y="-173.3" font-family="Times,serif" font-size="14.00" fill="#0058ad">a 390 5</text>
<polyline fill="none" stroke="#0058ad" points="69.5,-162.5 69.5,-191.5 "/>
<text text-anchor="middle" x="102" y="-173.3" font-family="Times,serif" font-size="14.00" fill="#0058ad">r 391 [1]</text>
</g>
<!-- T5611 -->
<g id="node3" class="node"><title>T5611</title>
<polygon fill="none" stroke="#0058ad" points="83.5,-81.5 83.5,-110.5 197.5,-110.5 197.5,-81.5 83.5,-81.5"/>
<text text-anchor="middle" x="112" y="-92.3" font-family="Times,serif" font-size="14.00" fill="#0058ad">a 391 2</text>
<polyline fill="none" stroke="#0058ad" points="140.5,-81.5 140.5,-110.5 "/>
<text text-anchor="middle" x="169" y="-92.3" font-family="Times,serif" font-size="14.00" fill="#0058ad">a 386 2</text>
</g>
<!-- T5623&#45;&gt;T5611 -->
<g id="edge1" class="edge"><title>T5623:f1&#45;&gt;T5611:f0</title>
<path fill="none" stroke="#5b00c0" d="M102.5,-162C102.5,-142.759 108.789,-136.132 110.853,-121.03"/>
<polygon fill="#5b00c0" stroke="#5b00c0" points="114.349,-121.205 111.5,-111 107.363,-120.754 114.349,-121.205"/>
<text text-anchor="middle" x="116" y="-132.8" font-family="Times,serif" font-size="14.00" fill="#5b00c0">rw</text>
</g>
<!-- T5621 -->
<g id="node2" class="node"><title>T5621</title>
<polygon fill="none" stroke="#0058ad" points="0,-0.5 0,-29.5 225,-29.5 225,-0.5 0,-0.5"/>
<text text-anchor="middle" x="37.5" y="-11.3" font-family="Times,serif" font-size="14.00" fill="#0058ad">r 390 [1 3]</text>
<polyline fill="none" stroke="#0058ad" points="75,-0.5 75,-29.5 "/>
<text text-anchor="middle" x="112.5" y="-11.3" font-family="Times,serif" font-size="14.00" fill="#0058ad">r 391 [1 2]</text>
<polyline fill="none" stroke="#0058ad" points="150,-0.5 150,-29.5 "/>
<text text-anchor="middle" x="187.5" y="-11.3" font-family="Times,serif" font-size="14.00" fill="#0058ad">r 390 [1 3]</text>
</g>
<!-- T5621&#45;&gt;T5623 -->
<g id="edge2" class="edge"><title>T5621:f0&#45;&gt;T5623:f0</title>
<path fill="none" stroke="#5b00c0" d="M37.5,-30C37.5,-85.1288 40.1477,-101.384 40.4683,-151.806"/>
<polygon fill="#5b00c0" stroke="#5b00c0" points="36.9689,-152.011 40.5,-162 43.9688,-151.989 36.9689,-152.011"/>
<text text-anchor="middle" x="48" y="-92.3" font-family="Times,serif" font-size="14.00" fill="#5b00c0">rw</text>
</g>
<!-- T5611&#45;&gt;T5621 -->
<g id="edge3" class="edge"><title>T5611:f0&#45;&gt;T5621:f1</title>
<path fill="none" stroke="#c000a5" d="M111.5,-81C111.5,-62.2256 112.186,-55.1185 112.422,-40.3548"/>
<polygon fill="#c000a5" stroke="#c000a5" points="115.924,-40.0263 112.5,-30 108.924,-39.9732 115.924,-40.0263"/>
<text text-anchor="middle" x="119" y="-51.8" font-family="Times,serif" font-size="14.00" fill="#c000a5">wr</text>
</g>
</g>
</svg>
