<?xml version="1.0" encoding="UTF-8" standalone="no"?>
<!DOCTYPE svg PUBLIC "-//W3C//DTD SVG 1.1//EN"
 "http://www.w3.org/Graphics/SVG/1.1/DTD/svg11.dtd">
<!-- Generated by graphviz version 2.38.0 (20140413.2041)
 -->
<!-- Title: a_graph Pages: 1 -->
<svg width="460pt" height="119pt"
 viewBox="0.00 0.00 460.00 119.00" xmlns="http://www.w3.org/2000/svg" xmlns:xlink="http://www.w3.org/1999/xlink">
<g id="graph0" class="graph" transform="scale(1 1) rotate(0) translate(4 115)">
<title>a_graph</title>
<polygon fill="white" stroke="none" points="-4,4 -4,-115 456,-115 456,4 -4,4"/>
<!-- T4277 -->
<g id="node1" class="node"><title>T4277</title>
<polygon fill="none" stroke="#0058ad" points="116,-81.5 116,-110.5 452,-110.5 452,-81.5 116,-81.5"/>
<text text-anchor="middle" x="159" y="-92.3" font-family="Times,serif" font-size="14.00" fill="#0058ad">r 296 [2 3 6]</text>
<polyline fill="none" stroke="#0058ad" points="202,-81.5 202,-110.5 "/>
<text text-anchor="middle" x="230.5" y="-92.3" font-family="Times,serif" font-size="14.00" fill="#0058ad">a 295 6</text>
<polyline fill="none" stroke="#0058ad" points="259,-81.5 259,-110.5 "/>
<text text-anchor="middle" x="312.5" y="-92.3" font-family="Times,serif" font-size="14.00" fill="#0058ad">r 295 [1 2 5 3 6]</text>
<polyline fill="none" stroke="#0058ad" points="366,-81.5 366,-110.5 "/>
<text text-anchor="middle" x="409" y="-92.3" font-family="Times,serif" font-size="14.00" fill="#0058ad">r 296 [2 3 6]</text>
</g>
<!-- T4269 -->
<g id="node2" class="node"><title>T4269</title>
<polygon fill="none" stroke="#0058ad" points="0,-0.5 0,-29.5 270,-29.5 270,-0.5 0,-0.5"/>
<text text-anchor="middle" x="58.5" y="-11.3" font-family="Times,serif" font-size="14.00" fill="#0058ad">r 293 [2 1 4 5 6 7]</text>
<polyline fill="none" stroke="#0058ad" points="117,-0.5 117,-29.5 "/>
<text text-anchor="middle" x="165" y="-11.3" font-family="Times,serif" font-size="14.00" fill="#0058ad">r 295 [1 2 5 3]</text>
<polyline fill="none" stroke="#0058ad" points="213,-0.5 213,-29.5 "/>
<text text-anchor="middle" x="241.5" y="-11.3" font-family="Times,serif" font-size="14.00" fill="#0058ad">a 296 1</text>
</g>
<!-- T4277&#45;&gt;T4269 -->
<g id="edge1" class="edge"><title>T4277:f0&#45;&gt;T4269:f2</title>
<path fill="none" stroke="#5b00c0" d="M159,-81C159,-62.328 169.639,-58.6151 185,-48 203.099,-35.4927 230.312,-49.5754 239.131,-39.6982"/>
<polygon fill="#5b00c0" stroke="#5b00c0" points="242.52,-40.5821 242,-30 235.807,-38.5965 242.52,-40.5821"/>
<text text-anchor="middle" x="192.5" y="-51.8" font-family="Times,serif" font-size="14.00" fill="#5b00c0">rw</text>
</g>
<!-- T4269&#45;&gt;T4277 -->
<g id="edge2" class="edge"><title>T4269:f1&#45;&gt;T4277:f1</title>
<path fill="none" stroke="#5b00c0" d="M165,-30C165,-47.4921 186.117,-37.3584 200,-48 212.536,-57.6092 224.143,-60.2723 228.341,-70.9878"/>
<polygon fill="#5b00c0" stroke="#5b00c0" points="224.912,-71.7066 230,-81 231.818,-70.5624 224.912,-71.7066"/>
<text text-anchor="middle" x="229.5" y="-51.8" font-family="Times,serif" font-size="14.00" fill="#5b00c0">rw</text>
</g>
</g>
</svg>
