<?xml version="1.0" encoding="UTF-8" standalone="no"?>
<!DOCTYPE svg PUBLIC "-//W3C//DTD SVG 1.1//EN"
 "http://www.w3.org/Graphics/SVG/1.1/DTD/svg11.dtd">
<!-- Generated by graphviz version 2.38.0 (20140413.2041)
 -->
<!-- Title: a_graph Pages: 1 -->
<svg width="262pt" height="119pt"
 viewBox="0.00 0.00 262.00 119.00" xmlns="http://www.w3.org/2000/svg" xmlns:xlink="http://www.w3.org/1999/xlink">
<g id="graph0" class="graph" transform="scale(1 1) rotate(0) translate(4 115)">
<title>a_graph</title>
<polygon fill="white" stroke="none" points="-4,4 -4,-115 258,-115 258,4 -4,4"/>
<!-- T453 -->
<g id="node1" class="node"><title>T453</title>
<polygon fill="none" stroke="#0058ad" points="0,-81.5 0,-110.5 202,-110.5 202,-81.5 0,-81.5"/>
<text text-anchor="middle" x="25.5" y="-92.3" font-family="Times,serif" font-size="14.00" fill="#0058ad">r 1 [1]</text>
<polyline fill="none" stroke="#0058ad" points="51,-81.5 51,-110.5 "/>
<text text-anchor="middle" x="76" y="-92.3" font-family="Times,serif" font-size="14.00" fill="#0058ad">a 34 3</text>
<polyline fill="none" stroke="#0058ad" points="101,-81.5 101,-110.5 "/>
<text text-anchor="middle" x="126" y="-92.3" font-family="Times,serif" font-size="14.00" fill="#0058ad">a 36 1</text>
<polyline fill="none" stroke="#0058ad" points="151,-81.5 151,-110.5 "/>
<text text-anchor="middle" x="176.5" y="-92.3" font-family="Times,serif" font-size="14.00" fill="#0058ad">r 35 []</text>
</g>
<!-- T457 -->
<g id="node2" class="node"><title>T457</title>
<polygon fill="none" stroke="#0058ad" points="42,-0.5 42,-29.5 254,-29.5 254,-0.5 42,-0.5"/>
<text text-anchor="middle" x="92" y="-11.3" font-family="Times,serif" font-size="14.00" fill="#0058ad">r 34 [1 2 7 5 4]</text>
<polyline fill="none" stroke="#0058ad" points="142,-0.5 142,-29.5 "/>
<text text-anchor="middle" x="167" y="-11.3" font-family="Times,serif" font-size="14.00" fill="#0058ad">a 35 2</text>
<polyline fill="none" stroke="#0058ad" points="192,-0.5 192,-29.5 "/>
<text text-anchor="middle" x="223" y="-11.3" font-family="Times,serif" font-size="14.00" fill="#0058ad">r 4 [2 1]</text>
</g>
<!-- T453&#45;&gt;T457 -->
<g id="edge1" class="edge"><title>T453:f3&#45;&gt;T457:f1</title>
<path fill="none" stroke="#5b00c0" d="M177,-81C177,-61.6913 170.012,-55.1668 167.719,-40.053"/>
<polygon fill="#5b00c0" stroke="#5b00c0" points="171.205,-39.7247 167,-30 164.223,-40.2243 171.205,-39.7247"/>
<text text-anchor="middle" x="181.5" y="-51.8" font-family="Times,serif" font-size="14.00" fill="#5b00c0">rw</text>
</g>
<!-- T457&#45;&gt;T453 -->
<g id="edge2" class="edge"><title>T457:f0&#45;&gt;T453:f1</title>
<path fill="none" stroke="#5b00c0" d="M92,-30C92,-49.8585 80.8193,-55.554 77.1507,-70.7652"/>
<polygon fill="#5b00c0" stroke="#5b00c0" points="73.6392,-70.6715 76,-81 80.5954,-71.4537 73.6392,-70.6715"/>
<text text-anchor="middle" x="95.5" y="-51.8" font-family="Times,serif" font-size="14.00" fill="#5b00c0">rw</text>
</g>
</g>
</svg>
