<?xml version="1.0" encoding="UTF-8" standalone="no"?>
<!DOCTYPE svg PUBLIC "-//W3C//DTD SVG 1.1//EN"
 "http://www.w3.org/Graphics/SVG/1.1/DTD/svg11.dtd">
<!-- Generated by graphviz version 2.38.0 (20140413.2041)
 -->
<!-- Title: a_graph Pages: 1 -->
<svg width="269pt" height="200pt"
 viewBox="0.00 0.00 269.00 200.00" xmlns="http://www.w3.org/2000/svg" xmlns:xlink="http://www.w3.org/1999/xlink">
<g id="graph0" class="graph" transform="scale(1 1) rotate(0) translate(4 196)">
<title>a_graph</title>
<polygon fill="white" stroke="none" points="-4,4 -4,-196 265,-196 265,4 -4,4"/>
<!-- T2461 -->
<g id="node1" class="node"><title>T2461</title>
<polygon fill="none" stroke="#0058ad" points="197.5,-162.5 197.5,-191.5 254.5,-191.5 254.5,-162.5 197.5,-162.5"/>
<text text-anchor="middle" x="226" y="-173.3" font-family="Times,serif" font-size="14.00" fill="#0058ad">a 170 8</text>
</g>
<!-- T2475 -->
<g id="node3" class="node"><title>T2475</title>
<polygon fill="none" stroke="#0058ad" points="0,-81.5 0,-110.5 208,-110.5 208,-81.5 0,-81.5"/>
<text text-anchor="middle" x="32.5" y="-92.3" font-family="Times,serif" font-size="14.00" fill="#0058ad">r 169 [3]</text>
<polyline fill="none" stroke="#0058ad" points="65,-81.5 65,-110.5 "/>
<text text-anchor="middle" x="108" y="-92.3" font-family="Times,serif" font-size="14.00" fill="#0058ad">r 170 [2 5 8]</text>
<polyline fill="none" stroke="#0058ad" points="151,-81.5 151,-110.5 "/>
<text text-anchor="middle" x="179.5" y="-92.3" font-family="Times,serif" font-size="14.00" fill="#0058ad">a 170 4</text>
</g>
<!-- T2461&#45;&gt;T2475 -->
<g id="edge1" class="edge"><title>T2461:f0&#45;&gt;T2475:f2</title>
<path fill="none" stroke="#c02700" d="M208.083,-162.46C197.286,-152.25 184.916,-137.497 181.148,-120.938"/>
<polygon fill="#c02700" stroke="#c02700" points="184.624,-120.532 180,-111 177.671,-121.336 184.624,-120.532"/>
<text text-anchor="middle" x="201" y="-132.8" font-family="Times,serif" font-size="14.00" fill="#c02700">ww</text>
</g>
<!-- T2465 -->
<g id="node2" class="node"><title>T2465</title>
<polygon fill="none" stroke="#0058ad" points="77,-0.5 77,-29.5 209,-29.5 209,-0.5 77,-0.5"/>
<text text-anchor="middle" x="105.5" y="-11.3" font-family="Times,serif" font-size="14.00" fill="#0058ad">a 169 4</text>
<polyline fill="none" stroke="#0058ad" points="134,-0.5 134,-29.5 "/>
<text text-anchor="middle" x="171.5" y="-11.3" font-family="Times,serif" font-size="14.00" fill="#0058ad">r 170 [2 5]</text>
</g>
<!-- T2465&#45;&gt;T2461 -->
<g id="edge2" class="edge"><title>T2465:f1&#45;&gt;T2461:f0</title>
<path fill="none" stroke="#5b00c0" d="M210,-15C264.668,-15 245.857,-107.49 233.396,-152.7"/>
<polygon fill="#5b00c0" stroke="#5b00c0" points="230.025,-151.761 230.638,-162.338 236.754,-153.687 230.025,-151.761"/>
<text text-anchor="middle" x="253.5" y="-92.3" font-family="Times,serif" font-size="14.00" fill="#5b00c0">rw</text>
</g>
<!-- T2475&#45;&gt;T2465 -->
<g id="edge3" class="edge"><title>T2475:f0&#45;&gt;T2465:f0</title>
<path fill="none" stroke="#5b00c0" d="M32,-81C32,-49.4639 38.9982,-21.5356 65.7091,-15.9952"/>
<polygon fill="#5b00c0" stroke="#5b00c0" points="66.3834,-19.4464 76,-15 65.7095,-12.479 66.3834,-19.4464"/>
<text text-anchor="middle" x="43.5" y="-51.8" font-family="Times,serif" font-size="14.00" fill="#5b00c0">rw</text>
</g>
</g>
</svg>
