<?xml version="1.0" encoding="UTF-8" standalone="no"?>
<!DOCTYPE svg PUBLIC "-//W3C//DTD SVG 1.1//EN"
 "http://www.w3.org/Graphics/SVG/1.1/DTD/svg11.dtd">
<!-- Generated by graphviz version 2.38.0 (20140413.2041)
 -->
<!-- Title: a_graph Pages: 1 -->
<svg width="293pt" height="200pt"
 viewBox="0.00 0.00 293.00 200.00" xmlns="http://www.w3.org/2000/svg" xmlns:xlink="http://www.w3.org/1999/xlink">
<g id="graph0" class="graph" transform="scale(1 1) rotate(0) translate(4 196)">
<title>a_graph</title>
<polygon fill="white" stroke="none" points="-4,4 -4,-196 289,-196 289,4 -4,4"/>
<!-- T9663 -->
<g id="node1" class="node"><title>T9663</title>
<polygon fill="none" stroke="#0058ad" points="86,-162.5 86,-191.5 273,-191.5 273,-162.5 86,-162.5"/>
<text text-anchor="middle" x="114.5" y="-173.3" font-family="Times,serif" font-size="14.00" fill="#0058ad">a 665 5</text>
<polyline fill="none" stroke="#0058ad" points="143,-162.5 143,-191.5 "/>
<text text-anchor="middle" x="175.5" y="-173.3" font-family="Times,serif" font-size="14.00" fill="#0058ad">r 669 [1]</text>
<polyline fill="none" stroke="#0058ad" points="208,-162.5 208,-191.5 "/>
<text text-anchor="middle" x="240.5" y="-173.3" font-family="Times,serif" font-size="14.00" fill="#0058ad">r 669 [1]</text>
</g>
<!-- T9648 -->
<g id="node3" class="node"><title>T9648</title>
<polygon fill="none" stroke="#0058ad" points="147.5,-81.5 147.5,-110.5 261.5,-110.5 261.5,-81.5 147.5,-81.5"/>
<text text-anchor="middle" x="176" y="-92.3" font-family="Times,serif" font-size="14.00" fill="#0058ad">a 669 2</text>
<polyline fill="none" stroke="#0058ad" points="204.5,-81.5 204.5,-110.5 "/>
<text text-anchor="middle" x="233" y="-92.3" font-family="Times,serif" font-size="14.00" fill="#0058ad">a 668 3</text>
</g>
<!-- T9663&#45;&gt;T9648 -->
<g id="edge1" class="edge"><title>T9663:f1&#45;&gt;T9648:f0</title>
<path fill="none" stroke="#5b00c0" d="M175.5,-162C175.5,-143.229 175.5,-136.117 175.5,-121.354"/>
<polygon fill="#5b00c0" stroke="#5b00c0" points="179,-121 175.5,-111 172,-121 179,-121"/>
<text text-anchor="middle" x="183" y="-132.8" font-family="Times,serif" font-size="14.00" fill="#5b00c0">rw</text>
</g>
<!-- T9652 -->
<g id="node2" class="node"><title>T9652</title>
<polygon fill="none" stroke="#0058ad" points="0,-0.5 0,-29.5 285,-29.5 285,-0.5 0,-0.5"/>
<text text-anchor="middle" x="28.5" y="-11.3" font-family="Times,serif" font-size="14.00" fill="#0058ad">a 669 4</text>
<polyline fill="none" stroke="#0058ad" points="57,-0.5 57,-29.5 "/>
<text text-anchor="middle" x="85.5" y="-11.3" font-family="Times,serif" font-size="14.00" fill="#0058ad">a 669 5</text>
<polyline fill="none" stroke="#0058ad" points="114,-0.5 114,-29.5 "/>
<text text-anchor="middle" x="162" y="-11.3" font-family="Times,serif" font-size="14.00" fill="#0058ad">r 669 [1 2 4 5]</text>
<polyline fill="none" stroke="#0058ad" points="210,-0.5 210,-29.5 "/>
<text text-anchor="middle" x="247.5" y="-11.3" font-family="Times,serif" font-size="14.00" fill="#0058ad">r 665 [2 1]</text>
</g>
<!-- T9652&#45;&gt;T9663 -->
<g id="edge2" class="edge"><title>T9652:f3&#45;&gt;T9663:f0</title>
<path fill="none" stroke="#5b00c0" d="M247.5,-30C247.5,-56.7453 147.414,-29.0906 128.5,-48 94.8674,-81.6242 111.75,-107.237 114.216,-151.86"/>
<polygon fill="#5b00c0" stroke="#5b00c0" points="110.721,-152.102 114.5,-162 117.718,-151.906 110.721,-152.102"/>
<text text-anchor="middle" x="117" y="-92.3" font-family="Times,serif" font-size="14.00" fill="#5b00c0">rw</text>
</g>
<!-- T9648&#45;&gt;T9652 -->
<g id="edge3" class="edge"><title>T9648:f0&#45;&gt;T9652:f0</title>
<path fill="none" stroke="#c02700" d="M175.5,-81C175.5,-55.4763 152.057,-57.8246 128.5,-48 111.079,-40.7346 52.9047,-48.8161 34.285,-38.4737"/>
<polygon fill="#c02700" stroke="#c02700" points="37.029,-36.2854 28.5,-30 31.2478,-40.2323 37.029,-36.2854"/>
<text text-anchor="middle" x="177.5" y="-51.8" font-family="Times,serif" font-size="14.00" fill="#c02700">ww</text>
</g>
</g>
</svg>
