<?xml version="1.0" encoding="UTF-8" standalone="no"?>
<!DOCTYPE svg PUBLIC "-//W3C//DTD SVG 1.1//EN"
 "http://www.w3.org/Graphics/SVG/1.1/DTD/svg11.dtd">
<!-- Generated by graphviz version 2.38.0 (20140413.2041)
 -->
<!-- Title: a_graph Pages: 1 -->
<svg width="276pt" height="200pt"
 viewBox="0.00 0.00 276.00 200.00" xmlns="http://www.w3.org/2000/svg" xmlns:xlink="http://www.w3.org/1999/xlink">
<g id="graph0" class="graph" transform="scale(1 1) rotate(0) translate(4 196)">
<title>a_graph</title>
<polygon fill="white" stroke="none" points="-4,4 -4,-196 272,-196 272,4 -4,4"/>
<!-- T9993 -->
<g id="node1" class="node"><title>T9993</title>
<polygon fill="none" stroke="#0058ad" points="0,-162.5 0,-191.5 268,-191.5 268,-162.5 0,-162.5"/>
<text text-anchor="middle" x="28.5" y="-173.3" font-family="Times,serif" font-size="14.00" fill="#0058ad">a 692 5</text>
<polyline fill="none" stroke="#0058ad" points="57,-162.5 57,-191.5 "/>
<text text-anchor="middle" x="85.5" y="-173.3" font-family="Times,serif" font-size="14.00" fill="#0058ad">a 692 6</text>
<polyline fill="none" stroke="#0058ad" points="114,-162.5 114,-191.5 "/>
<text text-anchor="middle" x="143" y="-173.3" font-family="Times,serif" font-size="14.00" fill="#0058ad">r 693 []</text>
<polyline fill="none" stroke="#0058ad" points="172,-162.5 172,-191.5 "/>
<text text-anchor="middle" x="220" y="-173.3" font-family="Times,serif" font-size="14.00" fill="#0058ad">r 674 [1 2 4 5]</text>
</g>
<!-- T9989 -->
<g id="node2" class="node"><title>T9989</title>
<polygon fill="none" stroke="#0058ad" points="81.5,-81.5 81.5,-110.5 138.5,-110.5 138.5,-81.5 81.5,-81.5"/>
<text text-anchor="middle" x="110" y="-92.3" font-family="Times,serif" font-size="14.00" fill="#0058ad">a 693 7</text>
</g>
<!-- T9993&#45;&gt;T9989 -->
<g id="edge1" class="edge"><title>T9993:f2&#45;&gt;T9989:f0</title>
<path fill="none" stroke="#5b00c0" d="M143,-162C143,-146.687 135.806,-131.285 128.135,-119.216"/>
<polygon fill="#5b00c0" stroke="#5b00c0" points="130.831,-116.958 122.288,-110.692 125.059,-120.918 130.831,-116.958"/>
<text text-anchor="middle" x="146.5" y="-132.8" font-family="Times,serif" font-size="14.00" fill="#5b00c0">rw</text>
</g>
<!-- T9999 -->
<g id="node3" class="node"><title>T9999</title>
<polygon fill="none" stroke="#0058ad" points="10,-0.5 10,-29.5 240,-29.5 240,-0.5 10,-0.5"/>
<text text-anchor="middle" x="38.5" y="-11.3" font-family="Times,serif" font-size="14.00" fill="#0058ad">a 693 4</text>
<polyline fill="none" stroke="#0058ad" points="67,-0.5 67,-29.5 "/>
<text text-anchor="middle" x="96" y="-11.3" font-family="Times,serif" font-size="14.00" fill="#0058ad">r 692 []</text>
<polyline fill="none" stroke="#0058ad" points="125,-0.5 125,-29.5 "/>
<text text-anchor="middle" x="154" y="-11.3" font-family="Times,serif" font-size="14.00" fill="#0058ad">r 692 []</text>
<polyline fill="none" stroke="#0058ad" points="183,-0.5 183,-29.5 "/>
<text text-anchor="middle" x="211.5" y="-11.3" font-family="Times,serif" font-size="14.00" fill="#0058ad">a 693 5</text>
</g>
<!-- T9989&#45;&gt;T9999 -->
<g id="edge2" class="edge"><title>T9989:f0&#45;&gt;T9999:f0</title>
<path fill="none" stroke="#c02700" d="M92.937,-81.473C77.4675,-68.1886 55.4763,-48.994 44.6064,-38.0675"/>
<polygon fill="#c02700" stroke="#c02700" points="47.0436,-35.5194 38,-30 41.6278,-39.9544 47.0436,-35.5194"/>
<text text-anchor="middle" x="80" y="-51.8" font-family="Times,serif" font-size="14.00" fill="#c02700">ww</text>
</g>
<!-- T9999&#45;&gt;T9993 -->
<g id="edge3" class="edge"><title>T9999:f1&#45;&gt;T9993:f0</title>
<path fill="none" stroke="#5b00c0" d="M96,-30C96,-49.901 67.7417,-32.7128 55,-48 23.9418,-85.2627 27.319,-106.848 27.9259,-151.729"/>
<polygon fill="#5b00c0" stroke="#5b00c0" points="24.4278,-152.026 28,-162 31.4276,-151.975 24.4278,-152.026"/>
<text text-anchor="middle" x="42.5" y="-92.3" font-family="Times,serif" font-size="14.00" fill="#5b00c0">rw</text>
</g>
</g>
</svg>
