<?xml version="1.0" encoding="UTF-8" standalone="no"?>
<!DOCTYPE svg PUBLIC "-//W3C//DTD SVG 1.1//EN"
 "http://www.w3.org/Graphics/SVG/1.1/DTD/svg11.dtd">
<!-- Generated by graphviz version 2.38.0 (20140413.2041)
 -->
<!-- Title: a_graph Pages: 1 -->
<svg width="530pt" height="281pt"
 viewBox="0.00 0.00 529.50 281.00" xmlns="http://www.w3.org/2000/svg" xmlns:xlink="http://www.w3.org/1999/xlink">
<g id="graph0" class="graph" transform="scale(1 1) rotate(0) translate(4 277)">
<title>a_graph</title>
<polygon fill="white" stroke="none" points="-4,4 -4,-277 525.5,-277 525.5,4 -4,4"/>
<!-- T2165 -->
<g id="node1" class="node"><title>T2165</title>
<polygon fill="none" stroke="#0058ad" points="0,-243.5 0,-272.5 172,-272.5 172,-243.5 0,-243.5"/>
<text text-anchor="middle" x="28.5" y="-254.3" font-family="Times,serif" font-size="14.00" fill="#0058ad">a 141 8</text>
<polyline fill="none" stroke="#0058ad" points="57,-243.5 57,-272.5 "/>
<text text-anchor="middle" x="86" y="-254.3" font-family="Times,serif" font-size="14.00" fill="#0058ad">r 145 []</text>
<polyline fill="none" stroke="#0058ad" points="115,-243.5 115,-272.5 "/>
<text text-anchor="middle" x="143.5" y="-254.3" font-family="Times,serif" font-size="14.00" fill="#0058ad">a 135 8</text>
</g>
<!-- T2189 -->
<g id="node2" class="node"><title>T2189</title>
<polygon fill="none" stroke="#0058ad" points="116,-162.5 116,-191.5 392,-191.5 392,-162.5 116,-162.5"/>
<text text-anchor="middle" x="144.5" y="-173.3" font-family="Times,serif" font-size="14.00" fill="#0058ad">a 135 7</text>
<polyline fill="none" stroke="#0058ad" points="173,-162.5 173,-191.5 "/>
<text text-anchor="middle" x="205.5" y="-173.3" font-family="Times,serif" font-size="14.00" fill="#0058ad">r 146 [6]</text>
<polyline fill="none" stroke="#0058ad" points="238,-162.5 238,-191.5 "/>
<text text-anchor="middle" x="286" y="-173.3" font-family="Times,serif" font-size="14.00" fill="#0058ad">r 135 [4 5 8 7]</text>
<polyline fill="none" stroke="#0058ad" points="334,-162.5 334,-191.5 "/>
<text text-anchor="middle" x="363" y="-173.3" font-family="Times,serif" font-size="14.00" fill="#0058ad">r 145 []</text>
</g>
<!-- T2165&#45;&gt;T2189 -->
<g id="edge2" class="edge"><title>T2165:f2&#45;&gt;T2189:f0</title>
<path fill="none" stroke="#c02700" d="M144,-243C144,-224.229 144,-217.117 144,-202.354"/>
<polygon fill="#c02700" stroke="#c02700" points="147.5,-202 144,-192 140.5,-202 147.5,-202"/>
<text text-anchor="middle" x="154" y="-213.8" font-family="Times,serif" font-size="14.00" fill="#c02700">ww</text>
</g>
<!-- T2267 -->
<g id="node3" class="node"><title>T2267</title>
<polygon fill="none" stroke="#0058ad" points="274.5,-81.5 274.5,-110.5 521.5,-110.5 521.5,-81.5 274.5,-81.5"/>
<text text-anchor="middle" x="303" y="-92.3" font-family="Times,serif" font-size="14.00" fill="#0058ad">a 145 2</text>
<polyline fill="none" stroke="#0058ad" points="331.5,-81.5 331.5,-110.5 "/>
<text text-anchor="middle" x="369" y="-92.3" font-family="Times,serif" font-size="14.00" fill="#0058ad">r 135 [4 5]</text>
<polyline fill="none" stroke="#0058ad" points="406.5,-81.5 406.5,-110.5 "/>
<text text-anchor="middle" x="435.5" y="-92.3" font-family="Times,serif" font-size="14.00" fill="#0058ad">r 146 []</text>
<polyline fill="none" stroke="#0058ad" points="464.5,-81.5 464.5,-110.5 "/>
<text text-anchor="middle" x="493" y="-92.3" font-family="Times,serif" font-size="14.00" fill="#0058ad">a 145 3</text>
</g>
<!-- T2165&#45;&gt;T2267 -->
<g id="edge1" class="edge"><title>T2165:f1&#45;&gt;T2267:f0</title>
<path fill="none" stroke="#5b00c0" d="M86,-243C86,-206.901 69.2426,-190.022 92,-162 143.611,-98.4506 211.691,-169.463 269,-111 270.358,-109.614 270.723,-107.821 270.7,-105.96"/>
<polygon fill="#5b00c0" stroke="#5b00c0" points="274.16,-106.531 273,-96 267.339,-104.956 274.16,-106.531"/>
<text text-anchor="middle" x="99.5" y="-173.3" font-family="Times,serif" font-size="14.00" fill="#5b00c0">rw</text>
</g>
<!-- T2189&#45;&gt;T2267 -->
<g id="edge3" class="edge"><title>T2189:f3&#45;&gt;T2267:f0</title>
<path fill="none" stroke="#5b00c0" d="M363,-162C363,-130.966 315.824,-142.387 305.135,-120.972"/>
<polygon fill="#5b00c0" stroke="#5b00c0" points="308.516,-120.045 303,-111 301.672,-121.511 308.516,-120.045"/>
<text text-anchor="middle" x="360.5" y="-132.8" font-family="Times,serif" font-size="14.00" fill="#5b00c0">rw</text>
</g>
<!-- T2267&#45;&gt;T2165 -->
<g id="edge5" class="edge"><title>T2267:f1&#45;&gt;T2165:f2</title>
<path fill="none" stroke="#5b00c0" d="M369,-111C369,-137.759 393.6,-136.284 401,-162 404.687,-174.813 409.011,-181.341 401,-192 371.166,-231.695 242.186,-255.144 183.166,-257.756"/>
<polygon fill="#5b00c0" stroke="#5b00c0" points="182.913,-254.261 173,-258 183.081,-261.259 182.913,-254.261"/>
<text text-anchor="middle" x="413.5" y="-173.3" font-family="Times,serif" font-size="14.00" fill="#5b00c0">rw</text>
</g>
<!-- T2127 -->
<g id="node4" class="node"><title>T2127</title>
<polygon fill="none" stroke="#0058ad" points="32.5,-0.5 32.5,-29.5 317.5,-29.5 317.5,-0.5 32.5,-0.5"/>
<text text-anchor="middle" x="61" y="-11.3" font-family="Times,serif" font-size="14.00" fill="#0058ad">a 147 6</text>
<polyline fill="none" stroke="#0058ad" points="89.5,-0.5 89.5,-29.5 "/>
<text text-anchor="middle" x="127" y="-11.3" font-family="Times,serif" font-size="14.00" fill="#0058ad">r 147 [1 6]</text>
<polyline fill="none" stroke="#0058ad" points="164.5,-0.5 164.5,-29.5 "/>
<text text-anchor="middle" x="212.5" y="-11.3" font-family="Times,serif" font-size="14.00" fill="#0058ad">r 150 [3 4 5 6]</text>
<polyline fill="none" stroke="#0058ad" points="260.5,-0.5 260.5,-29.5 "/>
<text text-anchor="middle" x="289" y="-11.3" font-family="Times,serif" font-size="14.00" fill="#0058ad">a 146 6</text>
</g>
<!-- T2267&#45;&gt;T2127 -->
<g id="edge4" class="edge"><title>T2267:f2&#45;&gt;T2127:f3</title>
<path fill="none" stroke="#5b00c0" d="M436,-81C436,-24.6786 385.01,-15.8847 329.112,-15.0692"/>
<polygon fill="#5b00c0" stroke="#5b00c0" points="329.024,-11.5686 319,-15 328.976,-18.5684 329.024,-11.5686"/>
<text text-anchor="middle" x="441.5" y="-51.8" font-family="Times,serif" font-size="14.00" fill="#5b00c0">rw</text>
</g>
<!-- T2127&#45;&gt;T2189 -->
<g id="edge6" class="edge"><title>T2127:f3&#45;&gt;T2189:f1</title>
<path fill="none" stroke="#c000a5" d="M289,-30C289,-58.5346 265.637,-57.1315 250,-81 229.46,-112.353 209.032,-119.618 205.527,-151.72"/>
<polygon fill="#c000a5" stroke="#c000a5" points="202.017,-151.834 205,-162 209.008,-152.192 202.017,-151.834"/>
<text text-anchor="middle" x="257.5" y="-92.3" font-family="Times,serif" font-size="14.00" fill="#c000a5">wr</text>
</g>
</g>
</svg>
