<?xml version="1.0" encoding="UTF-8" standalone="no"?>
<!DOCTYPE svg PUBLIC "-//W3C//DTD SVG 1.1//EN"
 "http://www.w3.org/Graphics/SVG/1.1/DTD/svg11.dtd">
<!-- Generated by graphviz version 2.38.0 (20140413.2041)
 -->
<!-- Title: a_graph Pages: 1 -->
<svg width="339pt" height="200pt"
 viewBox="0.00 0.00 338.50 200.00" xmlns="http://www.w3.org/2000/svg" xmlns:xlink="http://www.w3.org/1999/xlink">
<g id="graph0" class="graph" transform="scale(1 1) rotate(0) translate(4 196)">
<title>a_graph</title>
<polygon fill="white" stroke="none" points="-4,4 -4,-196 334.5,-196 334.5,4 -4,4"/>
<!-- T4983 -->
<g id="node1" class="node"><title>T4983</title>
<polygon fill="none" stroke="#0058ad" points="0,-162.5 0,-191.5 231,-191.5 231,-162.5 0,-162.5"/>
<text text-anchor="middle" x="58.5" y="-173.3" font-family="Times,serif" font-size="14.00" fill="#0058ad">r 338 [1 2 4 5 3 6]</text>
<polyline fill="none" stroke="#0058ad" points="117,-162.5 117,-191.5 "/>
<text text-anchor="middle" x="145.5" y="-173.3" font-family="Times,serif" font-size="14.00" fill="#0058ad">a 346 8</text>
<polyline fill="none" stroke="#0058ad" points="174,-162.5 174,-191.5 "/>
<text text-anchor="middle" x="202.5" y="-173.3" font-family="Times,serif" font-size="14.00" fill="#0058ad">a 342 2</text>
</g>
<!-- T4993 -->
<g id="node3" class="node"><title>T4993</title>
<polygon fill="none" stroke="#0058ad" points="46.5,-81.5 46.5,-110.5 160.5,-110.5 160.5,-81.5 46.5,-81.5"/>
<text text-anchor="middle" x="75" y="-92.3" font-family="Times,serif" font-size="14.00" fill="#0058ad">a 338 7</text>
<polyline fill="none" stroke="#0058ad" points="103.5,-81.5 103.5,-110.5 "/>
<text text-anchor="middle" x="132" y="-92.3" font-family="Times,serif" font-size="14.00" fill="#0058ad">a 348 6</text>
</g>
<!-- T4983&#45;&gt;T4993 -->
<g id="edge1" class="edge"><title>T4983:f0&#45;&gt;T4993:f0</title>
<path fill="none" stroke="#5b00c0" d="M58.5,-162C58.5,-142.142 69.6807,-136.446 73.3493,-121.235"/>
<polygon fill="#5b00c0" stroke="#5b00c0" points="76.8608,-121.328 74.5,-111 69.9046,-120.546 76.8608,-121.328"/>
<text text-anchor="middle" x="78" y="-132.8" font-family="Times,serif" font-size="14.00" fill="#5b00c0">rw</text>
</g>
<!-- T4995 -->
<g id="node2" class="node"><title>T4995</title>
<polygon fill="none" stroke="#0058ad" points="80.5,-0.5 80.5,-29.5 330.5,-29.5 330.5,-0.5 80.5,-0.5"/>
<text text-anchor="middle" x="113" y="-11.3" font-family="Times,serif" font-size="14.00" fill="#0058ad">r 342 [1]</text>
<polyline fill="none" stroke="#0058ad" points="145.5,-0.5 145.5,-29.5 "/>
<text text-anchor="middle" x="209.5" y="-11.3" font-family="Times,serif" font-size="14.00" fill="#0058ad">r 338 [1 2 4 5 3 6 7]</text>
<polyline fill="none" stroke="#0058ad" points="273.5,-0.5 273.5,-29.5 "/>
<text text-anchor="middle" x="302" y="-11.3" font-family="Times,serif" font-size="14.00" fill="#0058ad">a 338 8</text>
</g>
<!-- T4995&#45;&gt;T4983 -->
<g id="edge2" class="edge"><title>T4995:f0&#45;&gt;T4983:f2</title>
<path fill="none" stroke="#5b00c0" d="M112.5,-30C112.5,-63.4162 163.004,-23.2903 185.5,-48 217.629,-83.2905 204.648,-107.309 202.723,-151.851"/>
<polygon fill="#5b00c0" stroke="#5b00c0" points="199.221,-151.926 202.5,-162 206.219,-152.079 199.221,-151.926"/>
<text text-anchor="middle" x="215" y="-92.3" font-family="Times,serif" font-size="14.00" fill="#5b00c0">rw</text>
</g>
<!-- T4993&#45;&gt;T4995 -->
<g id="edge3" class="edge"><title>T4993:f0&#45;&gt;T4995:f1</title>
<path fill="none" stroke="#c000a5" d="M74.5,-81C74.5,-67.2202 174.201,-51.3017 202.242,-36.9203"/>
<polygon fill="#c000a5" stroke="#c000a5" points="204.678,-39.4338 209.5,-30 199.847,-34.3675 204.678,-39.4338"/>
<text text-anchor="middle" x="178" y="-51.8" font-family="Times,serif" font-size="14.00" fill="#c000a5">wr</text>
</g>
</g>
</svg>
