<?xml version="1.0" encoding="UTF-8" standalone="no"?>
<!DOCTYPE svg PUBLIC "-//W3C//DTD SVG 1.1//EN"
 "http://www.w3.org/Graphics/SVG/1.1/DTD/svg11.dtd">
<!-- Generated by graphviz version 2.38.0 (20140413.2041)
 -->
<!-- Title: a_graph Pages: 1 -->
<svg width="592pt" height="281pt"
 viewBox="0.00 0.00 591.90 281.00" xmlns="http://www.w3.org/2000/svg" xmlns:xlink="http://www.w3.org/1999/xlink">
<g id="graph0" class="graph" transform="scale(1 1) rotate(0) translate(4 277)">
<title>a_graph</title>
<polygon fill="white" stroke="none" points="-4,4 -4,-277 587.897,-277 587.897,4 -4,4"/>
<!-- T1729 -->
<g id="node1" class="node"><title>T1729</title>
<polygon fill="none" stroke="#0058ad" points="36.5,-243.5 36.5,-272.5 338.5,-272.5 338.5,-243.5 36.5,-243.5"/>
<text text-anchor="middle" x="105.5" y="-254.3" font-family="Times,serif" font-size="14.00" fill="#0058ad">r 106 [1 2 4 5 6 3 7 8]</text>
<polyline fill="none" stroke="#0058ad" points="174.5,-243.5 174.5,-272.5 "/>
<text text-anchor="middle" x="203" y="-254.3" font-family="Times,serif" font-size="14.00" fill="#0058ad">a 115 6</text>
<polyline fill="none" stroke="#0058ad" points="231.5,-243.5 231.5,-272.5 "/>
<text text-anchor="middle" x="285" y="-254.3" font-family="Times,serif" font-size="14.00" fill="#0058ad">r 116 [4 5 6 7 8]</text>
</g>
<!-- T1710 -->
<g id="node2" class="node"><title>T1710</title>
<polygon fill="none" stroke="#0058ad" points="170.5,-162.5 170.5,-191.5 526.5,-191.5 526.5,-162.5 170.5,-162.5"/>
<text text-anchor="middle" x="224" y="-173.3" font-family="Times,serif" font-size="14.00" fill="#0058ad">r 113 [2 3 4 7 8]</text>
<polyline fill="none" stroke="#0058ad" points="277.5,-162.5 277.5,-191.5 "/>
<text text-anchor="middle" x="325.5" y="-173.3" font-family="Times,serif" font-size="14.00" fill="#0058ad">r 115 [2 3 1 4]</text>
<polyline fill="none" stroke="#0058ad" points="373.5,-162.5 373.5,-191.5 "/>
<text text-anchor="middle" x="421.5" y="-173.3" font-family="Times,serif" font-size="14.00" fill="#0058ad">r 115 [2 3 1 4]</text>
<polyline fill="none" stroke="#0058ad" points="469.5,-162.5 469.5,-191.5 "/>
<text text-anchor="middle" x="498" y="-173.3" font-family="Times,serif" font-size="14.00" fill="#0058ad">a 116 3</text>
</g>
<!-- T1729&#45;&gt;T1710 -->
<g id="edge1" class="edge"><title>T1729:f2&#45;&gt;T1710:f3</title>
<path fill="none" stroke="#5b00c0" d="M339.5,-258C374.319,-258 477.47,-235.018 495.723,-202.044"/>
<polygon fill="#5b00c0" stroke="#5b00c0" points="499.209,-202.571 498.5,-192 492.462,-200.706 499.209,-202.571"/>
<text text-anchor="middle" x="495" y="-213.8" font-family="Times,serif" font-size="14.00" fill="#5b00c0">rw</text>
</g>
<!-- T1732 -->
<g id="node4" class="node"><title>T1732</title>
<polygon fill="none" stroke="#0058ad" points="156.5,-81.5 156.5,-110.5 420.5,-110.5 420.5,-81.5 156.5,-81.5"/>
<text text-anchor="middle" x="185" y="-92.3" font-family="Times,serif" font-size="14.00" fill="#0058ad">a 115 5</text>
<polyline fill="none" stroke="#0058ad" points="213.5,-81.5 213.5,-110.5 "/>
<text text-anchor="middle" x="251" y="-92.3" font-family="Times,serif" font-size="14.00" fill="#0058ad">r 116 [4 5]</text>
<polyline fill="none" stroke="#0058ad" points="288.5,-81.5 288.5,-110.5 "/>
<text text-anchor="middle" x="326" y="-92.3" font-family="Times,serif" font-size="14.00" fill="#0058ad">r 116 [4 5]</text>
<polyline fill="none" stroke="#0058ad" points="363.5,-81.5 363.5,-110.5 "/>
<text text-anchor="middle" x="392" y="-92.3" font-family="Times,serif" font-size="14.00" fill="#0058ad">a 113 5</text>
</g>
<!-- T1710&#45;&gt;T1732 -->
<g id="edge2" class="edge"><title>T1710:f1&#45;&gt;T1732:f0</title>
<path fill="none" stroke="#5b00c0" d="M325.5,-162C325.5,-99.1345 200.02,-168.797 185.806,-120.944"/>
<polygon fill="#5b00c0" stroke="#5b00c0" points="189.272,-120.459 184.5,-111 182.332,-121.371 189.272,-120.459"/>
<text text-anchor="middle" x="327" y="-132.8" font-family="Times,serif" font-size="14.00" fill="#5b00c0">rw</text>
</g>
<!-- T1747 -->
<g id="node3" class="node"><title>T1747</title>
<polygon fill="none" stroke="#0058ad" points="0,-0.5 0,-29.5 315,-29.5 315,-0.5 0,-0.5"/>
<text text-anchor="middle" x="28.5" y="-11.3" font-family="Times,serif" font-size="14.00" fill="#0058ad">a 119 6</text>
<polyline fill="none" stroke="#0058ad" points="57,-0.5 57,-29.5 "/>
<text text-anchor="middle" x="110.5" y="-11.3" font-family="Times,serif" font-size="14.00" fill="#0058ad">r 115 [2 3 1 4 5]</text>
<polyline fill="none" stroke="#0058ad" points="164,-0.5 164,-29.5 "/>
<text text-anchor="middle" x="186" y="-11.3" font-family="Times,serif" font-size="14.00" fill="#0058ad">a 1 4</text>
<polyline fill="none" stroke="#0058ad" points="208,-0.5 208,-29.5 "/>
<text text-anchor="middle" x="261.5" y="-11.3" font-family="Times,serif" font-size="14.00" fill="#0058ad">r 119 [3 4 5 8 6]</text>
</g>
<!-- T1747&#45;&gt;T1729 -->
<g id="edge3" class="edge"><title>T1747:f1&#45;&gt;T1729:f1</title>
<path fill="none" stroke="#5b00c0" d="M110.5,-30C110.5,-102.786 105.054,-125.436 134.5,-192 141.631,-208.12 142.73,-213.995 156.5,-225 170.151,-235.91 191.159,-227.107 199.697,-233.4"/>
<polygon fill="#5b00c0" stroke="#5b00c0" points="196.563,-234.992 203.5,-243 203.071,-232.414 196.563,-234.992"/>
<text text-anchor="middle" x="125" y="-132.8" font-family="Times,serif" font-size="14.00" fill="#5b00c0">rw</text>
</g>
<!-- T1732&#45;&gt;T1729 -->
<g id="edge6" class="edge"><title>T1732:f0&#45;&gt;T1729:f1</title>
<path fill="none" stroke="#c02700" d="M155.5,-96C150.32,-96 129.666,-166.943 141.5,-192 155.07,-220.734 193.648,-210.437 201.924,-233.048"/>
<polygon fill="#c02700" stroke="#c02700" points="198.479,-233.67 203.5,-243 205.393,-232.576 198.479,-233.67"/>
<text text-anchor="middle" x="151.5" y="-173.3" font-family="Times,serif" font-size="14.00" fill="#c02700">ww</text>
</g>
<!-- T1732&#45;&gt;T1747 -->
<g id="edge5" class="edge"><title>T1732:f0&#45;&gt;T1747:f1</title>
<path fill="none" stroke="#c000a5" d="M184.5,-81C184.5,-44.9575 124.247,-64.9577 112.479,-39.8611"/>
<polygon fill="#c000a5" stroke="#c000a5" points="115.9,-39.1156 110.5,-30 109.036,-40.4933 115.9,-39.1156"/>
<text text-anchor="middle" x="181" y="-51.8" font-family="Times,serif" font-size="14.00" fill="#c000a5">wr</text>
</g>
<!-- T1692 -->
<g id="node5" class="node"><title>T1692</title>
<polygon fill="none" stroke="#0058ad" points="356,-0.5 356,-29.5 527,-29.5 527,-0.5 356,-0.5"/>
<text text-anchor="middle" x="384.5" y="-11.3" font-family="Times,serif" font-size="14.00" fill="#0058ad">a 116 6</text>
<polyline fill="none" stroke="#0058ad" points="413,-0.5 413,-29.5 "/>
<text text-anchor="middle" x="441.5" y="-11.3" font-family="Times,serif" font-size="14.00" fill="#0058ad">a 116 7</text>
<polyline fill="none" stroke="#0058ad" points="470,-0.5 470,-29.5 "/>
<text text-anchor="middle" x="498.5" y="-11.3" font-family="Times,serif" font-size="14.00" fill="#0058ad">a 116 8</text>
</g>
<!-- T1732&#45;&gt;T1692 -->
<g id="edge4" class="edge"><title>T1732:f1&#45;&gt;T1692:f0</title>
<path fill="none" stroke="#5b00c0" d="M250.5,-81C250.5,-75.2529 319.028,-32.6069 345.033,-19.0942"/>
<polygon fill="#5b00c0" stroke="#5b00c0" points="346.711,-22.1818 354.5,-15 343.932,-15.7569 346.711,-22.1818"/>
<text text-anchor="middle" x="301" y="-51.8" font-family="Times,serif" font-size="14.00" fill="#5b00c0">rw</text>
</g>
<!-- T1692&#45;&gt;T1729 -->
<g id="edge8" class="edge"><title>T1692:f2&#45;&gt;T1729:f2</title>
<path fill="none" stroke="#c000a5" d="M528.5,-15C634.546,-15 559.149,-129.262 535.5,-192 528.613,-210.27 523.42,-215.257 506.5,-225 476.343,-242.365 392.358,-255.708 349.652,-257.733"/>
<polygon fill="#c000a5" stroke="#c000a5" points="349.405,-254.238 339.5,-258 349.589,-261.236 349.405,-254.238"/>
<text text-anchor="middle" x="570" y="-132.8" font-family="Times,serif" font-size="14.00" fill="#c000a5">wr</text>
</g>
<!-- T1692&#45;&gt;T1710 -->
<g id="edge7" class="edge"><title>T1692:f2&#45;&gt;T1710:f3</title>
<path fill="none" stroke="#c02700" d="M498.5,-30C498.5,-85.1146 498.5,-101.396 498.5,-151.808"/>
<polygon fill="#c02700" stroke="#c02700" points="495,-152 498.5,-162 502,-152 495,-152"/>
<text text-anchor="middle" x="508.5" y="-92.3" font-family="Times,serif" font-size="14.00" fill="#c02700">ww</text>
</g>
</g>
</svg>
