<?xml version="1.0" encoding="UTF-8" standalone="no"?>
<!DOCTYPE svg PUBLIC "-//W3C//DTD SVG 1.1//EN"
 "http://www.w3.org/Graphics/SVG/1.1/DTD/svg11.dtd">
<!-- Generated by graphviz version 2.38.0 (20140413.2041)
 -->
<!-- Title: a_graph Pages: 1 -->
<svg width="324pt" height="200pt"
 viewBox="0.00 0.00 323.50 200.00" xmlns="http://www.w3.org/2000/svg" xmlns:xlink="http://www.w3.org/1999/xlink">
<g id="graph0" class="graph" transform="scale(1 1) rotate(0) translate(4 196)">
<title>a_graph</title>
<polygon fill="white" stroke="none" points="-4,4 -4,-196 319.5,-196 319.5,4 -4,4"/>
<!-- T6212 -->
<g id="node1" class="node"><title>T6212</title>
<polygon fill="none" stroke="#0058ad" points="5.5,-162.5 5.5,-191.5 145.5,-191.5 145.5,-162.5 5.5,-162.5"/>
<text text-anchor="middle" x="43" y="-173.3" font-family="Times,serif" font-size="14.00" fill="#0058ad">r 432 [2 3]</text>
<polyline fill="none" stroke="#0058ad" points="80.5,-162.5 80.5,-191.5 "/>
<text text-anchor="middle" x="113" y="-173.3" font-family="Times,serif" font-size="14.00" fill="#0058ad">r 429 [5]</text>
</g>
<!-- T6218 -->
<g id="node2" class="node"><title>T6218</title>
<polygon fill="none" stroke="#0058ad" points="61.5,-81.5 61.5,-110.5 315.5,-110.5 315.5,-81.5 61.5,-81.5"/>
<text text-anchor="middle" x="94" y="-92.3" font-family="Times,serif" font-size="14.00" fill="#0058ad">r 432 [2]</text>
<polyline fill="none" stroke="#0058ad" points="126.5,-81.5 126.5,-110.5 "/>
<text text-anchor="middle" x="155" y="-92.3" font-family="Times,serif" font-size="14.00" fill="#0058ad">a 429 6</text>
<polyline fill="none" stroke="#0058ad" points="183.5,-81.5 183.5,-110.5 "/>
<text text-anchor="middle" x="221" y="-92.3" font-family="Times,serif" font-size="14.00" fill="#0058ad">r 429 [5 6]</text>
<polyline fill="none" stroke="#0058ad" points="258.5,-81.5 258.5,-110.5 "/>
<text text-anchor="middle" x="287" y="-92.3" font-family="Times,serif" font-size="14.00" fill="#0058ad">a 429 7</text>
</g>
<!-- T6212&#45;&gt;T6218 -->
<g id="edge1" class="edge"><title>T6212:f1&#45;&gt;T6218:f1</title>
<path fill="none" stroke="#5b00c0" d="M113.5,-162C113.5,-136.779 144.333,-138.819 152.522,-120.839"/>
<polygon fill="#5b00c0" stroke="#5b00c0" points="155.961,-121.494 154.5,-111 149.098,-120.114 155.961,-121.494"/>
<text text-anchor="middle" x="153" y="-132.8" font-family="Times,serif" font-size="14.00" fill="#5b00c0">rw</text>
</g>
<!-- T6209 -->
<g id="node3" class="node"><title>T6209</title>
<polygon fill="none" stroke="#0058ad" points="0,-0.5 0,-29.5 197,-29.5 197,-0.5 0,-0.5"/>
<text text-anchor="middle" x="32.5" y="-11.3" font-family="Times,serif" font-size="14.00" fill="#0058ad">r 429 [5]</text>
<polyline fill="none" stroke="#0058ad" points="65,-0.5 65,-29.5 "/>
<text text-anchor="middle" x="93.5" y="-11.3" font-family="Times,serif" font-size="14.00" fill="#0058ad">a 432 3</text>
<polyline fill="none" stroke="#0058ad" points="122,-0.5 122,-29.5 "/>
<text text-anchor="middle" x="159.5" y="-11.3" font-family="Times,serif" font-size="14.00" fill="#0058ad">r 432 [2 3]</text>
</g>
<!-- T6218&#45;&gt;T6209 -->
<g id="edge2" class="edge"><title>T6218:f0&#45;&gt;T6209:f1</title>
<path fill="none" stroke="#5b00c0" d="M93.5,-81C93.5,-62.2292 93.5,-55.1168 93.5,-40.3535"/>
<polygon fill="#5b00c0" stroke="#5b00c0" points="97.0001,-40 93.5,-30 90.0001,-40 97.0001,-40"/>
<text text-anchor="middle" x="101" y="-51.8" font-family="Times,serif" font-size="14.00" fill="#5b00c0">rw</text>
</g>
<!-- T6209&#45;&gt;T6212 -->
<g id="edge4" class="edge"><title>T6209:f1&#45;&gt;T6212:f0</title>
<path fill="none" stroke="#c000a5" d="M93.5,-30C93.5,-63.6635 51.105,-50.2082 37.5,-81 24.4035,-110.641 38.8757,-123.289 41.9505,-151.71"/>
<polygon fill="#c000a5" stroke="#c000a5" points="38.4716,-152.201 42.5,-162 45.4617,-151.828 38.4716,-152.201"/>
<text text-anchor="middle" x="45" y="-92.3" font-family="Times,serif" font-size="14.00" fill="#c000a5">wr</text>
</g>
<!-- T6209&#45;&gt;T6218 -->
<g id="edge3" class="edge"><title>T6209:f0&#45;&gt;T6218:f1</title>
<path fill="none" stroke="#5b00c0" d="M32.5,-30C32.5,-66.4444 79.5836,-32.3569 112.5,-48 130.256,-56.4383 147.407,-57.2516 152.778,-70.7639"/>
<polygon fill="#5b00c0" stroke="#5b00c0" points="149.389,-71.7193 154.5,-81 156.292,-70.5579 149.389,-71.7193"/>
<text text-anchor="middle" x="154" y="-51.8" font-family="Times,serif" font-size="14.00" fill="#5b00c0">rw</text>
</g>
</g>
</svg>
