<?xml version="1.0" encoding="UTF-8" standalone="no"?>
<!DOCTYPE svg PUBLIC "-//W3C//DTD SVG 1.1//EN"
 "http://www.w3.org/Graphics/SVG/1.1/DTD/svg11.dtd">
<!-- Generated by graphviz version 2.38.0 (20140413.2041)
 -->
<!-- Title: a_graph Pages: 1 -->
<svg width="332pt" height="119pt"
 viewBox="0.00 0.00 331.50 119.00" xmlns="http://www.w3.org/2000/svg" xmlns:xlink="http://www.w3.org/1999/xlink">
<g id="graph0" class="graph" transform="scale(1 1) rotate(0) translate(4 115)">
<title>a_graph</title>
<polygon fill="white" stroke="none" points="-4,4 -4,-115 327.5,-115 327.5,4 -4,4"/>
<!-- T6238 -->
<g id="node1" class="node"><title>T6238</title>
<polygon fill="none" stroke="#0058ad" points="0,-81.5 0,-110.5 231,-110.5 231,-81.5 0,-81.5"/>
<text text-anchor="middle" x="29" y="-92.3" font-family="Times,serif" font-size="14.00" fill="#0058ad">r 433 []</text>
<polyline fill="none" stroke="#0058ad" points="58,-81.5 58,-110.5 "/>
<text text-anchor="middle" x="87" y="-92.3" font-family="Times,serif" font-size="14.00" fill="#0058ad">r 435 []</text>
<polyline fill="none" stroke="#0058ad" points="116,-81.5 116,-110.5 "/>
<text text-anchor="middle" x="144.5" y="-92.3" font-family="Times,serif" font-size="14.00" fill="#0058ad">a 435 1</text>
<polyline fill="none" stroke="#0058ad" points="173,-81.5 173,-110.5 "/>
<text text-anchor="middle" x="202" y="-92.3" font-family="Times,serif" font-size="14.00" fill="#0058ad">r 434 []</text>
</g>
<!-- T6252 -->
<g id="node2" class="node"><title>T6252</title>
<polygon fill="none" stroke="#0058ad" points="93.5,-0.5 93.5,-29.5 323.5,-29.5 323.5,-0.5 93.5,-0.5"/>
<text text-anchor="middle" x="122.5" y="-11.3" font-family="Times,serif" font-size="14.00" fill="#0058ad">r 435 []</text>
<polyline fill="none" stroke="#0058ad" points="151.5,-0.5 151.5,-29.5 "/>
<text text-anchor="middle" x="180.5" y="-11.3" font-family="Times,serif" font-size="14.00" fill="#0058ad">r 435 []</text>
<polyline fill="none" stroke="#0058ad" points="209.5,-0.5 209.5,-29.5 "/>
<text text-anchor="middle" x="238" y="-11.3" font-family="Times,serif" font-size="14.00" fill="#0058ad">a 434 4</text>
<polyline fill="none" stroke="#0058ad" points="266.5,-0.5 266.5,-29.5 "/>
<text text-anchor="middle" x="295" y="-11.3" font-family="Times,serif" font-size="14.00" fill="#0058ad">a 434 5</text>
</g>
<!-- T6238&#45;&gt;T6252 -->
<g id="edge1" class="edge"><title>T6238:f3&#45;&gt;T6252:f2</title>
<path fill="none" stroke="#5b00c0" d="M202.5,-81C202.5,-57.1568 229.087,-57.1196 236.564,-39.9718"/>
<polygon fill="#5b00c0" stroke="#5b00c0" points="240.03,-40.4837 238.5,-30 233.159,-39.1499 240.03,-40.4837"/>
<text text-anchor="middle" x="238" y="-51.8" font-family="Times,serif" font-size="14.00" fill="#5b00c0">rw</text>
</g>
<!-- T6252&#45;&gt;T6238 -->
<g id="edge2" class="edge"><title>T6252:f0&#45;&gt;T6238:f2</title>
<path fill="none" stroke="#5b00c0" d="M122.5,-30C122.5,-50.8285 138.162,-55.2425 143.057,-70.9414"/>
<polygon fill="#5b00c0" stroke="#5b00c0" points="139.615,-71.5986 144.5,-81 146.544,-70.6042 139.615,-71.5986"/>
<text text-anchor="middle" x="147" y="-51.8" font-family="Times,serif" font-size="14.00" fill="#5b00c0">rw</text>
</g>
</g>
</svg>
