<?xml version="1.0" encoding="UTF-8" standalone="no"?>
<!DOCTYPE svg PUBLIC "-//W3C//DTD SVG 1.1//EN"
 "http://www.w3.org/Graphics/SVG/1.1/DTD/svg11.dtd">
<!-- Generated by graphviz version 2.38.0 (20140413.2041)
 -->
<!-- Title: a_graph Pages: 1 -->
<svg width="554pt" height="200pt"
 viewBox="0.00 0.00 554.00 200.00" xmlns="http://www.w3.org/2000/svg" xmlns:xlink="http://www.w3.org/1999/xlink">
<g id="graph0" class="graph" transform="scale(1 1) rotate(0) translate(4 196)">
<title>a_graph</title>
<polygon fill="white" stroke="none" points="-4,4 -4,-196 550,-196 550,4 -4,4"/>
<!-- T6201 -->
<g id="node1" class="node"><title>T6201</title>
<polygon fill="none" stroke="#0058ad" points="303,-162.5 303,-191.5 546,-191.5 546,-162.5 303,-162.5"/>
<text text-anchor="middle" x="331.5" y="-173.3" font-family="Times,serif" font-size="14.00" fill="#0058ad">a 419 6</text>
<polyline fill="none" stroke="#0058ad" points="360,-162.5 360,-191.5 "/>
<text text-anchor="middle" x="389" y="-173.3" font-family="Times,serif" font-size="14.00" fill="#0058ad">r 425 []</text>
<polyline fill="none" stroke="#0058ad" points="418,-162.5 418,-191.5 "/>
<text text-anchor="middle" x="482" y="-173.3" font-family="Times,serif" font-size="14.00" fill="#0058ad">r 426 [1 6 7 8 4 5 3]</text>
</g>
<!-- T6185 -->
<g id="node2" class="node"><title>T6185</title>
<polygon fill="none" stroke="#0058ad" points="23.5,-81.5 23.5,-110.5 325.5,-110.5 325.5,-81.5 23.5,-81.5"/>
<text text-anchor="middle" x="77" y="-92.3" font-family="Times,serif" font-size="14.00" fill="#0058ad">r 424 [2 3 7 5 6]</text>
<polyline fill="none" stroke="#0058ad" points="130.5,-81.5 130.5,-110.5 "/>
<text text-anchor="middle" x="159" y="-92.3" font-family="Times,serif" font-size="14.00" fill="#0058ad">a 426 2</text>
<polyline fill="none" stroke="#0058ad" points="187.5,-81.5 187.5,-110.5 "/>
<text text-anchor="middle" x="256.5" y="-92.3" font-family="Times,serif" font-size="14.00" fill="#0058ad">r 426 [1 6 7 8 4 5 3 2]</text>
</g>
<!-- T6201&#45;&gt;T6185 -->
<g id="edge1" class="edge"><title>T6201:f2&#45;&gt;T6185:f1</title>
<path fill="none" stroke="#5b00c0" d="M482.5,-162C482.5,-19.7859 174.127,-245.258 159.07,-120.997"/>
<polygon fill="#5b00c0" stroke="#5b00c0" points="162.564,-120.785 158.5,-111 155.575,-121.183 162.564,-120.785"/>
<text text-anchor="middle" x="486" y="-132.8" font-family="Times,serif" font-size="14.00" fill="#5b00c0">rw</text>
</g>
<!-- T6206 -->
<g id="node3" class="node"><title>T6206</title>
<polygon fill="none" stroke="#0058ad" points="0,-0.5 0,-29.5 409,-29.5 409,-0.5 0,-0.5"/>
<text text-anchor="middle" x="64" y="-11.3" font-family="Times,serif" font-size="14.00" fill="#0058ad">r 426 [1 6 7 8 4 5 3]</text>
<polyline fill="none" stroke="#0058ad" points="128,-0.5 128,-29.5 "/>
<text text-anchor="middle" x="192" y="-11.3" font-family="Times,serif" font-size="14.00" fill="#0058ad">r 426 [1 6 7 8 4 5 3]</text>
<polyline fill="none" stroke="#0058ad" points="256,-0.5 256,-29.5 "/>
<text text-anchor="middle" x="284.5" y="-11.3" font-family="Times,serif" font-size="14.00" fill="#0058ad">a 424 4</text>
<polyline fill="none" stroke="#0058ad" points="313,-0.5 313,-29.5 "/>
<text text-anchor="middle" x="361" y="-11.3" font-family="Times,serif" font-size="14.00" fill="#0058ad">r 419 [1 3 4 5]</text>
</g>
<!-- T6185&#45;&gt;T6206 -->
<g id="edge2" class="edge"><title>T6185:f0&#45;&gt;T6206:f2</title>
<path fill="none" stroke="#5b00c0" d="M76.5,-81C76.5,-59.9416 91.4186,-56.9082 110.5,-48 125.704,-40.902 244.332,-47.1297 276.485,-36.4605"/>
<polygon fill="#5b00c0" stroke="#5b00c0" points="278.911,-39.0006 284.5,-30 274.518,-33.5505 278.911,-39.0006"/>
<text text-anchor="middle" x="118" y="-51.8" font-family="Times,serif" font-size="14.00" fill="#5b00c0">rw</text>
</g>
<!-- T6206&#45;&gt;T6201 -->
<g id="edge3" class="edge"><title>T6206:f3&#45;&gt;T6201:f0</title>
<path fill="none" stroke="#5b00c0" d="M361.5,-30C361.5,-86.6376 334.913,-100.303 331.797,-151.904"/>
<polygon fill="#5b00c0" stroke="#5b00c0" points="328.296,-151.901 331.5,-162 335.293,-152.107 328.296,-151.901"/>
<text text-anchor="middle" x="359" y="-92.3" font-family="Times,serif" font-size="14.00" fill="#5b00c0">rw</text>
</g>
<!-- T6206&#45;&gt;T6185 -->
<g id="edge4" class="edge"><title>T6206:f0&#45;&gt;T6185:f1</title>
<path fill="none" stroke="#5b00c0" d="M63.5,-30C63.5,-58.6934 100.801,-33.3962 125.5,-48 139.867,-56.4949 152.48,-59.2558 156.859,-70.8178"/>
<polygon fill="#5b00c0" stroke="#5b00c0" points="153.454,-71.6841 158.5,-81 160.365,-70.5705 153.454,-71.6841"/>
<text text-anchor="middle" x="159" y="-51.8" font-family="Times,serif" font-size="14.00" fill="#5b00c0">rw</text>
</g>
</g>
</svg>
