<?xml version="1.0" encoding="UTF-8" standalone="no"?>
<!DOCTYPE svg PUBLIC "-//W3C//DTD SVG 1.1//EN"
 "http://www.w3.org/Graphics/SVG/1.1/DTD/svg11.dtd">
<!-- Generated by graphviz version 2.38.0 (20140413.2041)
 -->
<!-- Title: a_graph Pages: 1 -->
<svg width="297pt" height="200pt"
 viewBox="0.00 0.00 297.00 200.00" xmlns="http://www.w3.org/2000/svg" xmlns:xlink="http://www.w3.org/1999/xlink">
<g id="graph0" class="graph" transform="scale(1 1) rotate(0) translate(4 196)">
<title>a_graph</title>
<polygon fill="white" stroke="none" points="-4,4 -4,-196 293,-196 293,4 -4,4"/>
<!-- T2743 -->
<g id="node1" class="node"><title>T2743</title>
<polygon fill="none" stroke="#0058ad" points="92,-162.5 92,-191.5 289,-191.5 289,-162.5 92,-162.5"/>
<text text-anchor="middle" x="120.5" y="-173.3" font-family="Times,serif" font-size="14.00" fill="#0058ad">a 192 3</text>
<polyline fill="none" stroke="#0058ad" points="149,-162.5 149,-191.5 "/>
<text text-anchor="middle" x="186.5" y="-173.3" font-family="Times,serif" font-size="14.00" fill="#0058ad">r 190 [2 5]</text>
<polyline fill="none" stroke="#0058ad" points="224,-162.5 224,-191.5 "/>
<text text-anchor="middle" x="256.5" y="-173.3" font-family="Times,serif" font-size="14.00" fill="#0058ad">r 191 [1]</text>
</g>
<!-- T2739 -->
<g id="node3" class="node"><title>T2739</title>
<polygon fill="none" stroke="#0058ad" points="0,-81.5 0,-110.5 187,-110.5 187,-81.5 0,-81.5"/>
<text text-anchor="middle" x="32.5" y="-92.3" font-family="Times,serif" font-size="14.00" fill="#0058ad">r 192 [1]</text>
<polyline fill="none" stroke="#0058ad" points="65,-81.5 65,-110.5 "/>
<text text-anchor="middle" x="97.5" y="-92.3" font-family="Times,serif" font-size="14.00" fill="#0058ad">r 191 [1]</text>
<polyline fill="none" stroke="#0058ad" points="130,-81.5 130,-110.5 "/>
<text text-anchor="middle" x="158.5" y="-92.3" font-family="Times,serif" font-size="14.00" fill="#0058ad">a 191 3</text>
</g>
<!-- T2743&#45;&gt;T2739 -->
<g id="edge1" class="edge"><title>T2743:f2&#45;&gt;T2739:f2</title>
<path fill="none" stroke="#5b00c0" d="M256.5,-162C256.5,-128.664 224.673,-134.965 201.5,-111 198.817,-108.225 197.682,-105.007 196.515,-102.265"/>
<polygon fill="#5b00c0" stroke="#5b00c0" points="198.534,-99.401 188.5,-96 194.223,-104.916 198.534,-99.401"/>
<text text-anchor="middle" x="259" y="-132.8" font-family="Times,serif" font-size="14.00" fill="#5b00c0">rw</text>
</g>
<!-- T2747 -->
<g id="node2" class="node"><title>T2747</title>
<polygon fill="none" stroke="#0058ad" points="47,-0.5 47,-29.5 284,-29.5 284,-0.5 47,-0.5"/>
<text text-anchor="middle" x="75.5" y="-11.3" font-family="Times,serif" font-size="14.00" fill="#0058ad">a 191 8</text>
<polyline fill="none" stroke="#0058ad" points="104,-0.5 104,-29.5 "/>
<text text-anchor="middle" x="133" y="-11.3" font-family="Times,serif" font-size="14.00" fill="#0058ad">r 193 []</text>
<polyline fill="none" stroke="#0058ad" points="162,-0.5 162,-29.5 "/>
<text text-anchor="middle" x="190.5" y="-11.3" font-family="Times,serif" font-size="14.00" fill="#0058ad">a 193 1</text>
<polyline fill="none" stroke="#0058ad" points="219,-0.5 219,-29.5 "/>
<text text-anchor="middle" x="251.5" y="-11.3" font-family="Times,serif" font-size="14.00" fill="#0058ad">r 192 [1]</text>
</g>
<!-- T2747&#45;&gt;T2743 -->
<g id="edge2" class="edge"><title>T2747:f3&#45;&gt;T2743:f0</title>
<path fill="none" stroke="#5b00c0" d="M251.5,-30C251.5,-73.7659 226.567,-80.1726 195.5,-111 169.681,-136.62 129.39,-124.708 121.767,-151.753"/>
<polygon fill="#5b00c0" stroke="#5b00c0" points="118.254,-151.646 120.5,-162 125.201,-152.505 118.254,-151.646"/>
<text text-anchor="middle" x="236" y="-92.3" font-family="Times,serif" font-size="14.00" fill="#5b00c0">rw</text>
</g>
<!-- T2739&#45;&gt;T2743 -->
<g id="edge3" class="edge"><title>T2739:f0&#45;&gt;T2743:f0</title>
<path fill="none" stroke="#5b00c0" d="M32.5,-111C32.5,-146.542 48.1975,-172.06 80.4606,-176.358"/>
<polygon fill="#5b00c0" stroke="#5b00c0" points="80.297,-179.855 90.5,-177 80.7437,-172.869 80.297,-179.855"/>
<text text-anchor="middle" x="46" y="-132.8" font-family="Times,serif" font-size="14.00" fill="#5b00c0">rw</text>
</g>
<!-- T2739&#45;&gt;T2747 -->
<g id="edge4" class="edge"><title>T2739:f2&#45;&gt;T2747:f0</title>
<path fill="none" stroke="#c02700" d="M158.5,-81C158.5,-41.5936 89.7441,-67.5375 77.3895,-39.8738"/>
<polygon fill="#c02700" stroke="#c02700" points="80.8173,-39.1639 75.5,-30 73.942,-40.4797 80.8173,-39.1639"/>
<text text-anchor="middle" x="158.5" y="-51.8" font-family="Times,serif" font-size="14.00" fill="#c02700">ww</text>
</g>
</g>
</svg>
