<?xml version="1.0" encoding="UTF-8" standalone="no"?>
<!DOCTYPE svg PUBLIC "-//W3C//DTD SVG 1.1//EN"
 "http://www.w3.org/Graphics/SVG/1.1/DTD/svg11.dtd">
<!-- Generated by graphviz version 2.38.0 (20140413.2041)
 -->
<!-- Title: a_graph Pages: 1 -->
<svg width="250pt" height="119pt"
 viewBox="0.00 0.00 249.50 119.00" xmlns="http://www.w3.org/2000/svg" xmlns:xlink="http://www.w3.org/1999/xlink">
<g id="graph0" class="graph" transform="scale(1 1) rotate(0) translate(4 115)">
<title>a_graph</title>
<polygon fill="white" stroke="none" points="-4,4 -4,-115 245.5,-115 245.5,4 -4,4"/>
<!-- T9493 -->
<g id="node1" class="node"><title>T9493</title>
<polygon fill="none" stroke="#0058ad" points="54.5,-81.5 54.5,-110.5 241.5,-110.5 241.5,-81.5 54.5,-81.5"/>
<text text-anchor="middle" x="87" y="-92.3" font-family="Times,serif" font-size="14.00" fill="#0058ad">r 657 [1]</text>
<polyline fill="none" stroke="#0058ad" points="119.5,-81.5 119.5,-110.5 "/>
<text text-anchor="middle" x="148" y="-92.3" font-family="Times,serif" font-size="14.00" fill="#0058ad">a 659 1</text>
<polyline fill="none" stroke="#0058ad" points="176.5,-81.5 176.5,-110.5 "/>
<text text-anchor="middle" x="209" y="-92.3" font-family="Times,serif" font-size="14.00" fill="#0058ad">r 659 [1]</text>
</g>
<!-- T9489 -->
<g id="node2" class="node"><title>T9489</title>
<polygon fill="none" stroke="#0058ad" points="0,-0.5 0,-29.5 180,-29.5 180,-0.5 0,-0.5"/>
<text text-anchor="middle" x="32.5" y="-11.3" font-family="Times,serif" font-size="14.00" fill="#0058ad">r 657 [1]</text>
<polyline fill="none" stroke="#0058ad" points="65,-0.5 65,-29.5 "/>
<text text-anchor="middle" x="94" y="-11.3" font-family="Times,serif" font-size="14.00" fill="#0058ad">r 659 []</text>
<polyline fill="none" stroke="#0058ad" points="123,-0.5 123,-29.5 "/>
<text text-anchor="middle" x="151.5" y="-11.3" font-family="Times,serif" font-size="14.00" fill="#0058ad">a 657 3</text>
</g>
<!-- T9493&#45;&gt;T9489 -->
<g id="edge1" class="edge"><title>T9493:f0&#45;&gt;T9489:f2</title>
<path fill="none" stroke="#5b00c0" d="M87,-81C87,-64.2934 92.4244,-58.9985 105,-48 118.286,-36.3804 139.868,-45.8178 148.382,-39.327"/>
<polygon fill="#5b00c0" stroke="#5b00c0" points="151.646,-40.5889 152,-30 145.12,-38.0573 151.646,-40.5889"/>
<text text-anchor="middle" x="112.5" y="-51.8" font-family="Times,serif" font-size="14.00" fill="#5b00c0">rw</text>
</g>
<!-- T9489&#45;&gt;T9493 -->
<g id="edge2" class="edge"><title>T9489:f1&#45;&gt;T9493:f1</title>
<path fill="none" stroke="#5b00c0" d="M94,-30C94,-44.0546 109.587,-38.561 120,-48 131.245,-58.1931 142.177,-60.8707 146.289,-70.9966"/>
<polygon fill="#5b00c0" stroke="#5b00c0" points="142.864,-71.7332 148,-81 149.764,-70.5531 142.864,-71.7332"/>
<text text-anchor="middle" x="146.5" y="-51.8" font-family="Times,serif" font-size="14.00" fill="#5b00c0">rw</text>
</g>
</g>
</svg>
