<?xml version="1.0" encoding="UTF-8" standalone="no"?>
<!DOCTYPE svg PUBLIC "-//W3C//DTD SVG 1.1//EN"
 "http://www.w3.org/Graphics/SVG/1.1/DTD/svg11.dtd">
<!-- Generated by graphviz version 2.38.0 (20140413.2041)
 -->
<!-- Title: a_graph Pages: 1 -->
<svg width="763pt" height="362pt"
 viewBox="0.00 0.00 763.00 362.00" xmlns="http://www.w3.org/2000/svg" xmlns:xlink="http://www.w3.org/1999/xlink">
<g id="graph0" class="graph" transform="scale(1 1) rotate(0) translate(4 358)">
<title>a_graph</title>
<polygon fill="white" stroke="none" points="-4,4 -4,-358 759,-358 759,4 -4,4"/>
<!-- T1652 -->
<g id="node1" class="node"><title>T1652</title>
<polygon fill="none" stroke="#0058ad" points="232.5,-324.5 232.5,-353.5 493.5,-353.5 493.5,-324.5 232.5,-324.5"/>
<text text-anchor="middle" x="275.5" y="-335.3" font-family="Times,serif" font-size="14.00" fill="#0058ad">r 113 [2 3 4]</text>
<polyline fill="none" stroke="#0058ad" points="318.5,-324.5 318.5,-353.5 "/>
<text text-anchor="middle" x="347.5" y="-335.3" font-family="Times,serif" font-size="14.00" fill="#0058ad">r 116 []</text>
<polyline fill="none" stroke="#0058ad" points="376.5,-324.5 376.5,-353.5 "/>
<text text-anchor="middle" x="435" y="-335.3" font-family="Times,serif" font-size="14.00" fill="#0058ad">r 106 [1 2 4 5 6 3]</text>
</g>
<!-- T1648 -->
<g id="node7" class="node"><title>T1648</title>
<polygon fill="none" stroke="#0058ad" points="319,-243.5 319,-272.5 571,-272.5 571,-243.5 319,-243.5"/>
<text text-anchor="middle" x="347.5" y="-254.3" font-family="Times,serif" font-size="14.00" fill="#0058ad">a 116 4</text>
<polyline fill="none" stroke="#0058ad" points="376,-243.5 376,-272.5 "/>
<text text-anchor="middle" x="408.5" y="-254.3" font-family="Times,serif" font-size="14.00" fill="#0058ad">r 115 [2]</text>
<polyline fill="none" stroke="#0058ad" points="441,-243.5 441,-272.5 "/>
<text text-anchor="middle" x="473.5" y="-254.3" font-family="Times,serif" font-size="14.00" fill="#0058ad">r 116 [4]</text>
<polyline fill="none" stroke="#0058ad" points="506,-243.5 506,-272.5 "/>
<text text-anchor="middle" x="538.5" y="-254.3" font-family="Times,serif" font-size="14.00" fill="#0058ad">r 116 [4]</text>
</g>
<!-- T1652&#45;&gt;T1648 -->
<g id="edge1" class="edge"><title>T1652:f1&#45;&gt;T1648:f0</title>
<path fill="none" stroke="#5b00c0" d="M347,-324C347,-305.229 347,-298.117 347,-283.354"/>
<polygon fill="#5b00c0" stroke="#5b00c0" points="350.5,-283 347,-273 343.5,-283 350.5,-283"/>
<text text-anchor="middle" x="354.5" y="-294.8" font-family="Times,serif" font-size="14.00" fill="#5b00c0">rw</text>
</g>
<!-- T1583 -->
<g id="node2" class="node"><title>T1583</title>
<polygon fill="none" stroke="#0058ad" points="519.5,-81.5 519.5,-110.5 662.5,-110.5 662.5,-81.5 519.5,-81.5"/>
<text text-anchor="middle" x="562.5" y="-92.3" font-family="Times,serif" font-size="14.00" fill="#0058ad">r 111 [1 2 4]</text>
<polyline fill="none" stroke="#0058ad" points="605.5,-81.5 605.5,-110.5 "/>
<text text-anchor="middle" x="634" y="-92.3" font-family="Times,serif" font-size="14.00" fill="#0058ad">a 106 6</text>
</g>
<!-- T1654 -->
<g id="node3" class="node"><title>T1654</title>
<polygon fill="none" stroke="#0058ad" points="627,-0.5 627,-29.5 741,-29.5 741,-0.5 627,-0.5"/>
<text text-anchor="middle" x="655.5" y="-11.3" font-family="Times,serif" font-size="14.00" fill="#0058ad">a 109 6</text>
<polyline fill="none" stroke="#0058ad" points="684,-0.5 684,-29.5 "/>
<text text-anchor="middle" x="712.5" y="-11.3" font-family="Times,serif" font-size="14.00" fill="#0058ad">a 106 3</text>
</g>
<!-- T1583&#45;&gt;T1654 -->
<g id="edge2" class="edge"><title>T1583:f1&#45;&gt;T1654:f1</title>
<path fill="none" stroke="#c02700" d="M634,-81C634,-43.126 698.882,-66.3362 711.047,-39.9155"/>
<polygon fill="#c02700" stroke="#c02700" points="714.502,-40.4879 713,-30 707.634,-39.1352 714.502,-40.4879"/>
<text text-anchor="middle" x="713" y="-51.8" font-family="Times,serif" font-size="14.00" fill="#c02700">ww</text>
</g>
<!-- T1654&#45;&gt;T1652 -->
<g id="edge3" class="edge"><title>T1654:f1&#45;&gt;T1652:f2</title>
<path fill="none" stroke="#c000a5" d="M713,-30C713,-39.8683 721.641,-39.1466 726,-48 735.627,-67.5545 740,-73.2041 740,-95 740,-259 740,-259 740,-259 740,-313.253 571.551,-336.507 505.103,-338.809"/>
<polygon fill="#c000a5" stroke="#c000a5" points="504.932,-335.311 495,-339 505.065,-342.31 504.932,-335.311"/>
<text text-anchor="middle" x="747.5" y="-173.3" font-family="Times,serif" font-size="14.00" fill="#c000a5">wr</text>
</g>
<!-- T1629 -->
<g id="node4" class="node"><title>T1629</title>
<polygon fill="none" stroke="#0058ad" points="16,-0.5 16,-29.5 196,-29.5 196,-0.5 16,-0.5"/>
<text text-anchor="middle" x="48.5" y="-11.3" font-family="Times,serif" font-size="14.00" fill="#0058ad">r 115 [2]</text>
<polyline fill="none" stroke="#0058ad" points="81,-0.5 81,-29.5 "/>
<text text-anchor="middle" x="109.5" y="-11.3" font-family="Times,serif" font-size="14.00" fill="#0058ad">a 113 4</text>
<polyline fill="none" stroke="#0058ad" points="138,-0.5 138,-29.5 "/>
<text text-anchor="middle" x="167" y="-11.3" font-family="Times,serif" font-size="14.00" fill="#0058ad">r 116 []</text>
</g>
<!-- T1629&#45;&gt;T1652 -->
<g id="edge4" class="edge"><title>T1629:f1&#45;&gt;T1652:f0</title>
<path fill="none" stroke="#c000a5" d="M110,-30C110,-61.693 67.9471,-31.3177 41,-48 17.431,-62.591 0,-67.2801 0,-95 0,-259 0,-259 0,-259 0,-310.248 157.228,-336 220.646,-338.752"/>
<polygon fill="#c000a5" stroke="#c000a5" points="220.919,-342.26 231,-339 221.087,-335.262 220.919,-342.26"/>
<text text-anchor="middle" x="7.5" y="-173.3" font-family="Times,serif" font-size="14.00" fill="#c000a5">wr</text>
</g>
<!-- T1618 -->
<g id="node6" class="node"><title>T1618</title>
<polygon fill="none" stroke="#0058ad" points="380,-162.5 380,-191.5 704,-191.5 704,-162.5 380,-162.5"/>
<text text-anchor="middle" x="408.5" y="-173.3" font-family="Times,serif" font-size="14.00" fill="#0058ad">a 115 3</text>
<polyline fill="none" stroke="#0058ad" points="437,-162.5 437,-191.5 "/>
<text text-anchor="middle" x="485" y="-173.3" font-family="Times,serif" font-size="14.00" fill="#0058ad">r 106 [1 2 4 5]</text>
<polyline fill="none" stroke="#0058ad" points="533,-162.5 533,-191.5 "/>
<text text-anchor="middle" x="570.5" y="-173.3" font-family="Times,serif" font-size="14.00" fill="#0058ad">r 115 [2 3]</text>
<polyline fill="none" stroke="#0058ad" points="608,-162.5 608,-191.5 "/>
<text text-anchor="middle" x="656" y="-173.3" font-family="Times,serif" font-size="14.00" fill="#0058ad">r 106 [1 2 4 5]</text>
</g>
<!-- T1629&#45;&gt;T1618 -->
<g id="edge6" class="edge"><title>T1629:f0&#45;&gt;T1618:f0</title>
<path fill="none" stroke="#5b00c0" d="M48,-30C48,-66.1342 30.9565,-84.0262 55,-111 66.1965,-123.561 313.33,-168.489 368.881,-175.947"/>
<polygon fill="#5b00c0" stroke="#5b00c0" points="368.692,-179.446 379,-177 369.416,-172.484 368.692,-179.446"/>
<text text-anchor="middle" x="62.5" y="-92.3" font-family="Times,serif" font-size="14.00" fill="#5b00c0">rw</text>
</g>
<!-- T1629&#45;&gt;T1648 -->
<g id="edge5" class="edge"><title>T1629:f2&#45;&gt;T1648:f0</title>
<path fill="none" stroke="#5b00c0" d="M197,-15C272.693,-15 312.113,-17.9536 354,-81 358.323,-87.5068 349.884,-197.78 347.566,-232.832"/>
<polygon fill="#5b00c0" stroke="#5b00c0" points="344.062,-232.821 347,-243 351.051,-233.21 344.062,-232.821"/>
<text text-anchor="middle" x="362.5" y="-132.8" font-family="Times,serif" font-size="14.00" fill="#5b00c0">rw</text>
</g>
<!-- T1628 -->
<g id="node5" class="node"><title>T1628</title>
<polygon fill="none" stroke="#0058ad" points="79,-81.5 79,-110.5 345,-110.5 345,-81.5 79,-81.5"/>
<text text-anchor="middle" x="116.5" y="-92.3" font-family="Times,serif" font-size="14.00" fill="#0058ad">r 113 [2 3]</text>
<polyline fill="none" stroke="#0058ad" points="154,-81.5 154,-110.5 "/>
<text text-anchor="middle" x="191.5" y="-92.3" font-family="Times,serif" font-size="14.00" fill="#0058ad">r 115 [2 3]</text>
<polyline fill="none" stroke="#0058ad" points="229,-81.5 229,-110.5 "/>
<text text-anchor="middle" x="258" y="-92.3" font-family="Times,serif" font-size="14.00" fill="#0058ad">r 116 []</text>
<polyline fill="none" stroke="#0058ad" points="287,-81.5 287,-110.5 "/>
<text text-anchor="middle" x="316" y="-92.3" font-family="Times,serif" font-size="14.00" fill="#0058ad">r 116 []</text>
</g>
<!-- T1628&#45;&gt;T1629 -->
<g id="edge8" class="edge"><title>T1628:f0&#45;&gt;T1629:f1</title>
<path fill="none" stroke="#5b00c0" d="M116,-81C116,-62.0997 111.885,-55.1795 110.471,-40.3973"/>
<polygon fill="#5b00c0" stroke="#5b00c0" points="113.949,-39.8314 110,-30 106.956,-40.1481 113.949,-39.8314"/>
<text text-anchor="middle" x="122.5" y="-51.8" font-family="Times,serif" font-size="14.00" fill="#5b00c0">rw</text>
</g>
<!-- T1628&#45;&gt;T1648 -->
<g id="edge7" class="edge"><title>T1628:f2&#45;&gt;T1648:f0</title>
<path fill="none" stroke="#5b00c0" d="M258,-111C258,-177.983 248.48,-250.252 307.865,-257.419"/>
<polygon fill="#5b00c0" stroke="#5b00c0" points="307.816,-260.922 318,-258 308.217,-253.934 307.816,-260.922"/>
<text text-anchor="middle" x="266.5" y="-173.3" font-family="Times,serif" font-size="14.00" fill="#5b00c0">rw</text>
</g>
<!-- T1618&#45;&gt;T1583 -->
<g id="edge10" class="edge"><title>T1618:f1&#45;&gt;T1583:f1</title>
<path fill="none" stroke="#5b00c0" d="M485,-162C485,-95.8338 618.149,-171.736 632.712,-121.109"/>
<polygon fill="#5b00c0" stroke="#5b00c0" points="636.208,-121.362 634,-111 629.264,-120.477 636.208,-121.362"/>
<text text-anchor="middle" x="635.5" y="-132.8" font-family="Times,serif" font-size="14.00" fill="#5b00c0">rw</text>
</g>
<!-- T1618&#45;&gt;T1628 -->
<g id="edge9" class="edge"><title>T1618:f0&#45;&gt;T1628:f1</title>
<path fill="none" stroke="#c000a5" d="M408,-162C408,-141.258 393.753,-137.862 375,-129 358.894,-121.389 232.351,-128.89 199.022,-117.62"/>
<polygon fill="#c000a5" stroke="#c000a5" points="200.941,-114.665 191,-111 196.485,-120.064 200.941,-114.665"/>
<text text-anchor="middle" x="409.5" y="-132.8" font-family="Times,serif" font-size="14.00" fill="#c000a5">wr</text>
</g>
<!-- T1648&#45;&gt;T1618 -->
<g id="edge11" class="edge"><title>T1648:f1&#45;&gt;T1618:f0</title>
<path fill="none" stroke="#5b00c0" d="M408,-243C408,-224.229 408,-217.117 408,-202.354"/>
<polygon fill="#5b00c0" stroke="#5b00c0" points="411.5,-202 408,-192 404.5,-202 411.5,-202"/>
<text text-anchor="middle" x="415.5" y="-213.8" font-family="Times,serif" font-size="14.00" fill="#5b00c0">rw</text>
</g>
</g>
</svg>
