<?xml version="1.0" encoding="UTF-8" standalone="no"?>
<!DOCTYPE svg PUBLIC "-//W3C//DTD SVG 1.1//EN"
 "http://www.w3.org/Graphics/SVG/1.1/DTD/svg11.dtd">
<!-- Generated by graphviz version 2.38.0 (20140413.2041)
 -->
<!-- Title: a_graph Pages: 1 -->
<svg width="361pt" height="281pt"
 viewBox="0.00 0.00 361.00 281.00" xmlns="http://www.w3.org/2000/svg" xmlns:xlink="http://www.w3.org/1999/xlink">
<g id="graph0" class="graph" transform="scale(1 1) rotate(0) translate(4 277)">
<title>a_graph</title>
<polygon fill="white" stroke="none" points="-4,4 -4,-277 357,-277 357,4 -4,4"/>
<!-- T2444 -->
<g id="node1" class="node"><title>T2444</title>
<polygon fill="none" stroke="#0058ad" points="0,-243.5 0,-272.5 172,-272.5 172,-243.5 0,-243.5"/>
<text text-anchor="middle" x="29" y="-254.3" font-family="Times,serif" font-size="14.00" fill="#0058ad">r 169 []</text>
<polyline fill="none" stroke="#0058ad" points="58,-243.5 58,-272.5 "/>
<text text-anchor="middle" x="86.5" y="-254.3" font-family="Times,serif" font-size="14.00" fill="#0058ad">a 167 7</text>
<polyline fill="none" stroke="#0058ad" points="115,-243.5 115,-272.5 "/>
<text text-anchor="middle" x="143.5" y="-254.3" font-family="Times,serif" font-size="14.00" fill="#0058ad">a 165 2</text>
</g>
<!-- T2443 -->
<g id="node3" class="node"><title>T2443</title>
<polygon fill="none" stroke="#0058ad" points="108.5,-162.5 108.5,-191.5 287.5,-191.5 287.5,-162.5 108.5,-162.5"/>
<text text-anchor="middle" x="137" y="-173.3" font-family="Times,serif" font-size="14.00" fill="#0058ad">a 169 3</text>
<polyline fill="none" stroke="#0058ad" points="165.5,-162.5 165.5,-191.5 "/>
<text text-anchor="middle" x="194" y="-173.3" font-family="Times,serif" font-size="14.00" fill="#0058ad">a 170 2</text>
<polyline fill="none" stroke="#0058ad" points="222.5,-162.5 222.5,-191.5 "/>
<text text-anchor="middle" x="255" y="-173.3" font-family="Times,serif" font-size="14.00" fill="#0058ad">r 170 [2]</text>
</g>
<!-- T2444&#45;&gt;T2443 -->
<g id="edge1" class="edge"><title>T2444:f0&#45;&gt;T2443:f0</title>
<path fill="none" stroke="#5b00c0" d="M29,-243C29,-201.047 56.8128,-180.281 96.8547,-177.36"/>
<polygon fill="#5b00c0" stroke="#5b00c0" points="97.1305,-180.853 107,-177 96.8821,-173.857 97.1305,-180.853"/>
<text text-anchor="middle" x="44.5" y="-213.8" font-family="Times,serif" font-size="14.00" fill="#5b00c0">rw</text>
</g>
<!-- T2447 -->
<g id="node2" class="node"><title>T2447</title>
<polygon fill="none" stroke="#0058ad" points="113.5,-81.5 113.5,-110.5 308.5,-110.5 308.5,-81.5 113.5,-81.5"/>
<text text-anchor="middle" x="146" y="-92.3" font-family="Times,serif" font-size="14.00" fill="#0058ad">r 170 [2]</text>
<polyline fill="none" stroke="#0058ad" points="178.5,-81.5 178.5,-110.5 "/>
<text text-anchor="middle" x="211" y="-92.3" font-family="Times,serif" font-size="14.00" fill="#0058ad">r 169 [3]</text>
<polyline fill="none" stroke="#0058ad" points="243.5,-81.5 243.5,-110.5 "/>
<text text-anchor="middle" x="276" y="-92.3" font-family="Times,serif" font-size="14.00" fill="#0058ad">r 169 [3]</text>
</g>
<!-- T2435 -->
<g id="node4" class="node"><title>T2435</title>
<polygon fill="none" stroke="#0058ad" points="37.5,-0.5 37.5,-29.5 180.5,-29.5 180.5,-0.5 37.5,-0.5"/>
<text text-anchor="middle" x="80.5" y="-11.3" font-family="Times,serif" font-size="14.00" fill="#0058ad">r 167 [1 2 4]</text>
<polyline fill="none" stroke="#0058ad" points="123.5,-0.5 123.5,-29.5 "/>
<text text-anchor="middle" x="152" y="-11.3" font-family="Times,serif" font-size="14.00" fill="#0058ad">a 170 5</text>
</g>
<!-- T2447&#45;&gt;T2435 -->
<g id="edge2" class="edge"><title>T2447:f0&#45;&gt;T2435:f1</title>
<path fill="none" stroke="#5b00c0" d="M146,-81C146,-62.0997 150.115,-55.1795 151.529,-40.3973"/>
<polygon fill="#5b00c0" stroke="#5b00c0" points="155.044,-40.1481 152,-30 148.051,-39.8314 155.044,-40.1481"/>
<text text-anchor="middle" x="157.5" y="-51.8" font-family="Times,serif" font-size="14.00" fill="#5b00c0">rw</text>
</g>
<!-- T2443&#45;&gt;T2447 -->
<g id="edge4" class="edge"><title>T2443:f1&#45;&gt;T2447:f0</title>
<path fill="none" stroke="#c000a5" d="M194,-162C194,-134.764 157.25,-139.976 148.062,-120.852"/>
<polygon fill="#c000a5" stroke="#c000a5" points="151.475,-120.071 146,-111 144.623,-121.505 151.475,-120.071"/>
<text text-anchor="middle" x="191.5" y="-132.8" font-family="Times,serif" font-size="14.00" fill="#c000a5">wr</text>
</g>
<!-- T2443&#45;&gt;T2435 -->
<g id="edge3" class="edge"><title>T2443:f1&#45;&gt;T2435:f1</title>
<path fill="none" stroke="#c02700" d="M194,-162C194,-132.205 301.416,-135.753 318,-111 375.426,-25.2873 293.301,-15.5633 192.162,-15.0256"/>
<polygon fill="#c02700" stroke="#c02700" points="192.009,-11.5253 182,-15 191.991,-18.5253 192.009,-11.5253"/>
<text text-anchor="middle" x="343" y="-92.3" font-family="Times,serif" font-size="14.00" fill="#c02700">ww</text>
</g>
<!-- T2435&#45;&gt;T2444 -->
<g id="edge5" class="edge"><title>T2435:f0&#45;&gt;T2444:f1</title>
<path fill="none" stroke="#5b00c0" d="M80,-30C80,-121.203 86.4901,-146.435 86.9718,-232.742"/>
<polygon fill="#5b00c0" stroke="#5b00c0" points="83.4724,-233.01 87,-243 90.4724,-232.99 83.4724,-233.01"/>
<text text-anchor="middle" x="91.5" y="-132.8" font-family="Times,serif" font-size="14.00" fill="#5b00c0">rw</text>
</g>
</g>
</svg>
