<?xml version="1.0" encoding="UTF-8" standalone="no"?>
<!DOCTYPE svg PUBLIC "-//W3C//DTD SVG 1.1//EN"
 "http://www.w3.org/Graphics/SVG/1.1/DTD/svg11.dtd">
<!-- Generated by graphviz version 2.38.0 (20140413.2041)
 -->
<!-- Title: a_graph Pages: 1 -->
<svg width="260pt" height="119pt"
 viewBox="0.00 0.00 260.00 119.00" xmlns="http://www.w3.org/2000/svg" xmlns:xlink="http://www.w3.org/1999/xlink">
<g id="graph0" class="graph" transform="scale(1 1) rotate(0) translate(4 115)">
<title>a_graph</title>
<polygon fill="white" stroke="none" points="-4,4 -4,-115 256,-115 256,4 -4,4"/>
<!-- T4810 -->
<g id="node1" class="node"><title>T4810</title>
<polygon fill="none" stroke="#0058ad" points="54.5,-81.5 54.5,-110.5 241.5,-110.5 241.5,-81.5 54.5,-81.5"/>
<text text-anchor="middle" x="87" y="-92.3" font-family="Times,serif" font-size="14.00" fill="#0058ad">r 339 [2]</text>
<polyline fill="none" stroke="#0058ad" points="119.5,-81.5 119.5,-110.5 "/>
<text text-anchor="middle" x="152" y="-92.3" font-family="Times,serif" font-size="14.00" fill="#0058ad">r 339 [2]</text>
<polyline fill="none" stroke="#0058ad" points="184.5,-81.5 184.5,-110.5 "/>
<text text-anchor="middle" x="213" y="-92.3" font-family="Times,serif" font-size="14.00" fill="#0058ad">a 340 3</text>
</g>
<!-- T4813 -->
<g id="node2" class="node"><title>T4813</title>
<polygon fill="none" stroke="#0058ad" points="0,-0.5 0,-29.5 252,-29.5 252,-0.5 0,-0.5"/>
<text text-anchor="middle" x="32.5" y="-11.3" font-family="Times,serif" font-size="14.00" fill="#0058ad">r 340 [1]</text>
<polyline fill="none" stroke="#0058ad" points="65,-0.5 65,-29.5 "/>
<text text-anchor="middle" x="97.5" y="-11.3" font-family="Times,serif" font-size="14.00" fill="#0058ad">r 339 [2]</text>
<polyline fill="none" stroke="#0058ad" points="130,-0.5 130,-29.5 "/>
<text text-anchor="middle" x="162.5" y="-11.3" font-family="Times,serif" font-size="14.00" fill="#0058ad">r 339 [2]</text>
<polyline fill="none" stroke="#0058ad" points="195,-0.5 195,-29.5 "/>
<text text-anchor="middle" x="223.5" y="-11.3" font-family="Times,serif" font-size="14.00" fill="#0058ad">a 339 5</text>
</g>
<!-- T4810&#45;&gt;T4813 -->
<g id="edge1" class="edge"><title>T4810:f0&#45;&gt;T4813:f3</title>
<path fill="none" stroke="#5b00c0" d="M87,-81C87,-47.8062 122.872,-59.5277 154,-48 180.123,-38.3257 213.58,-56.0511 222.006,-39.9813"/>
<polygon fill="#5b00c0" stroke="#5b00c0" points="225.473,-40.4919 224,-30 218.609,-39.1206 225.473,-40.4919"/>
<text text-anchor="middle" x="161.5" y="-51.8" font-family="Times,serif" font-size="14.00" fill="#5b00c0">rw</text>
</g>
<!-- T4813&#45;&gt;T4810 -->
<g id="edge2" class="edge"><title>T4813:f0&#45;&gt;T4810:f2</title>
<path fill="none" stroke="#5b00c0" d="M32,-30C32,-60.7061 140.566,-36.4092 169,-48 187.922,-55.7134 205.956,-56.5095 211.364,-70.8422"/>
<polygon fill="#5b00c0" stroke="#5b00c0" points="207.954,-71.684 213,-81 214.865,-70.5706 207.954,-71.684"/>
<text text-anchor="middle" x="212.5" y="-51.8" font-family="Times,serif" font-size="14.00" fill="#5b00c0">rw</text>
</g>
</g>
</svg>
