<?xml version="1.0" encoding="UTF-8" standalone="no"?>
<!DOCTYPE svg PUBLIC "-//W3C//DTD SVG 1.1//EN"
 "http://www.w3.org/Graphics/SVG/1.1/DTD/svg11.dtd">
<!-- Generated by graphviz version 2.38.0 (20140413.2041)
 -->
<!-- Title: a_graph Pages: 1 -->
<svg width="390pt" height="200pt"
 viewBox="0.00 0.00 390.00 200.00" xmlns="http://www.w3.org/2000/svg" xmlns:xlink="http://www.w3.org/1999/xlink">
<g id="graph0" class="graph" transform="scale(1 1) rotate(0) translate(4 196)">
<title>a_graph</title>
<polygon fill="white" stroke="none" points="-4,4 -4,-196 386,-196 386,4 -4,4"/>
<!-- T2176 -->
<g id="node1" class="node"><title>T2176</title>
<polygon fill="none" stroke="#0058ad" points="0,-162.5 0,-191.5 378,-191.5 378,-162.5 0,-162.5"/>
<text text-anchor="middle" x="53.5" y="-173.3" font-family="Times,serif" font-size="14.00" fill="#0058ad">r 147 [1 6 7 2 3]</text>
<polyline fill="none" stroke="#0058ad" points="107,-162.5 107,-191.5 "/>
<text text-anchor="middle" x="135.5" y="-173.3" font-family="Times,serif" font-size="14.00" fill="#0058ad">a 148 5</text>
<polyline fill="none" stroke="#0058ad" points="164,-162.5 164,-191.5 "/>
<text text-anchor="middle" x="217.5" y="-173.3" font-family="Times,serif" font-size="14.00" fill="#0058ad">r 147 [1 6 7 2 3]</text>
<polyline fill="none" stroke="#0058ad" points="271,-162.5 271,-191.5 "/>
<text text-anchor="middle" x="324.5" y="-173.3" font-family="Times,serif" font-size="14.00" fill="#0058ad">r 148 [3 6 7 8 5]</text>
</g>
<!-- T2169 -->
<g id="node3" class="node"><title>T2169</title>
<polygon fill="none" stroke="#0058ad" points="5,-81.5 5,-110.5 119,-110.5 119,-81.5 5,-81.5"/>
<text text-anchor="middle" x="33.5" y="-92.3" font-family="Times,serif" font-size="14.00" fill="#0058ad">a 147 8</text>
<polyline fill="none" stroke="#0058ad" points="62,-81.5 62,-110.5 "/>
<text text-anchor="middle" x="90.5" y="-92.3" font-family="Times,serif" font-size="14.00" fill="#0058ad">a 151 4</text>
</g>
<!-- T2176&#45;&gt;T2169 -->
<g id="edge1" class="edge"><title>T2176:f0&#45;&gt;T2169:f0</title>
<path fill="none" stroke="#5b00c0" d="M53,-162C53,-141.457 38.7617,-136.606 34.3123,-120.967"/>
<polygon fill="#5b00c0" stroke="#5b00c0" points="37.7755,-120.458 33,-111 30.8354,-121.371 37.7755,-120.458"/>
<text text-anchor="middle" x="56.5" y="-132.8" font-family="Times,serif" font-size="14.00" fill="#5b00c0">rw</text>
</g>
<!-- T2172 -->
<g id="node2" class="node"><title>T2172</title>
<polygon fill="none" stroke="#0058ad" points="16,-0.5 16,-29.5 382,-29.5 382,-0.5 16,-0.5"/>
<text text-anchor="middle" x="64" y="-11.3" font-family="Times,serif" font-size="14.00" fill="#0058ad">r 148 [3 6 7 8]</text>
<polyline fill="none" stroke="#0058ad" points="112,-0.5 112,-29.5 "/>
<text text-anchor="middle" x="170.5" y="-11.3" font-family="Times,serif" font-size="14.00" fill="#0058ad">r 147 [1 6 7 2 3 8]</text>
<polyline fill="none" stroke="#0058ad" points="229,-0.5 229,-29.5 "/>
<text text-anchor="middle" x="257.5" y="-11.3" font-family="Times,serif" font-size="14.00" fill="#0058ad">a 146 1</text>
<polyline fill="none" stroke="#0058ad" points="286,-0.5 286,-29.5 "/>
<text text-anchor="middle" x="334" y="-11.3" font-family="Times,serif" font-size="14.00" fill="#0058ad">r 148 [3 6 7 8]</text>
</g>
<!-- T2172&#45;&gt;T2176 -->
<g id="edge2" class="edge"><title>T2172:f0&#45;&gt;T2176:f1</title>
<path fill="none" stroke="#5b00c0" d="M64,-30C64,-65.1449 119.16,-20.4653 141,-48 170.374,-85.0331 139.808,-107.973 135.492,-151.963"/>
<polygon fill="#5b00c0" stroke="#5b00c0" points="131.994,-151.841 135,-162 138.986,-152.183 131.994,-151.841"/>
<text text-anchor="middle" x="161.5" y="-92.3" font-family="Times,serif" font-size="14.00" fill="#5b00c0">rw</text>
</g>
<!-- T2169&#45;&gt;T2172 -->
<g id="edge3" class="edge"><title>T2169:f0&#45;&gt;T2172:f1</title>
<path fill="none" stroke="#c000a5" d="M33,-81C33,-74.1159 131.437,-48.0933 161.43,-35.3779"/>
<polygon fill="#c000a5" stroke="#c000a5" points="163.39,-38.2801 170,-30 159.669,-32.3508 163.39,-38.2801"/>
<text text-anchor="middle" x="129.5" y="-51.8" font-family="Times,serif" font-size="14.00" fill="#c000a5">wr</text>
</g>
</g>
</svg>
