<?xml version="1.0" encoding="UTF-8" standalone="no"?>
<!DOCTYPE svg PUBLIC "-//W3C//DTD SVG 1.1//EN"
 "http://www.w3.org/Graphics/SVG/1.1/DTD/svg11.dtd">
<!-- Generated by graphviz version 2.38.0 (20140413.2041)
 -->
<!-- Title: a_graph Pages: 1 -->
<svg width="308pt" height="200pt"
 viewBox="0.00 0.00 307.50 200.00" xmlns="http://www.w3.org/2000/svg" xmlns:xlink="http://www.w3.org/1999/xlink">
<g id="graph0" class="graph" transform="scale(1 1) rotate(0) translate(4 196)">
<title>a_graph</title>
<polygon fill="white" stroke="none" points="-4,4 -4,-196 303.5,-196 303.5,4 -4,4"/>
<!-- T1700 -->
<g id="node1" class="node"><title>T1700</title>
<polygon fill="none" stroke="#0058ad" points="93.5,-162.5 93.5,-191.5 208.5,-191.5 208.5,-162.5 93.5,-162.5"/>
<text text-anchor="middle" x="122.5" y="-173.3" font-family="Times,serif" font-size="14.00" fill="#0058ad">r 122 []</text>
<polyline fill="none" stroke="#0058ad" points="151.5,-162.5 151.5,-191.5 "/>
<text text-anchor="middle" x="180" y="-173.3" font-family="Times,serif" font-size="14.00" fill="#0058ad">a 121 1</text>
</g>
<!-- T1702 -->
<g id="node2" class="node"><title>T1702</title>
<polygon fill="none" stroke="#0058ad" points="0,-81.5 0,-110.5 238,-110.5 238,-81.5 0,-81.5"/>
<text text-anchor="middle" x="28.5" y="-92.3" font-family="Times,serif" font-size="14.00" fill="#0058ad">a 122 3</text>
<polyline fill="none" stroke="#0058ad" points="57,-81.5 57,-110.5 "/>
<text text-anchor="middle" x="89.5" y="-92.3" font-family="Times,serif" font-size="14.00" fill="#0058ad">r 122 [3]</text>
<polyline fill="none" stroke="#0058ad" points="122,-81.5 122,-110.5 "/>
<text text-anchor="middle" x="151" y="-92.3" font-family="Times,serif" font-size="14.00" fill="#0058ad">r 120 []</text>
<polyline fill="none" stroke="#0058ad" points="180,-81.5 180,-110.5 "/>
<text text-anchor="middle" x="209" y="-92.3" font-family="Times,serif" font-size="14.00" fill="#0058ad">r 123 []</text>
</g>
<!-- T1700&#45;&gt;T1702 -->
<g id="edge1" class="edge"><title>T1700:f0&#45;&gt;T1702:f0</title>
<path fill="none" stroke="#5b00c0" d="M92,-177C54.6515,-177 32.1081,-155.995 28.5092,-121.18"/>
<polygon fill="#5b00c0" stroke="#5b00c0" points="31.9953,-120.813 28,-111 25.0041,-121.162 31.9953,-120.813"/>
<text text-anchor="middle" x="42.5" y="-132.8" font-family="Times,serif" font-size="14.00" fill="#5b00c0">rw</text>
</g>
<!-- T1717 -->
<g id="node3" class="node"><title>T1717</title>
<polygon fill="none" stroke="#0058ad" points="184.5,-0.5 184.5,-29.5 299.5,-29.5 299.5,-0.5 184.5,-0.5"/>
<text text-anchor="middle" x="213" y="-11.3" font-family="Times,serif" font-size="14.00" fill="#0058ad">a 123 1</text>
<polyline fill="none" stroke="#0058ad" points="241.5,-0.5 241.5,-29.5 "/>
<text text-anchor="middle" x="270.5" y="-11.3" font-family="Times,serif" font-size="14.00" fill="#0058ad">r 121 []</text>
</g>
<!-- T1702&#45;&gt;T1717 -->
<g id="edge2" class="edge"><title>T1702:f3&#45;&gt;T1717:f0</title>
<path fill="none" stroke="#5b00c0" d="M209,-81C209,-62.1715 211.743,-55.1447 212.686,-40.373"/>
<polygon fill="#5b00c0" stroke="#5b00c0" points="216.196,-40.1013 213,-30 209.199,-39.8895 216.196,-40.1013"/>
<text text-anchor="middle" x="219.5" y="-51.8" font-family="Times,serif" font-size="14.00" fill="#5b00c0">rw</text>
</g>
<!-- T1717&#45;&gt;T1700 -->
<g id="edge3" class="edge"><title>T1717:f1&#45;&gt;T1700:f1</title>
<path fill="none" stroke="#5b00c0" d="M271,-30C271,-97.1431 279.771,-169.269 220.165,-176.421"/>
<polygon fill="#5b00c0" stroke="#5b00c0" points="219.785,-172.937 210,-177 220.183,-179.925 219.785,-172.937"/>
<text text-anchor="middle" x="279.5" y="-92.3" font-family="Times,serif" font-size="14.00" fill="#5b00c0">rw</text>
</g>
</g>
</svg>
