<?xml version="1.0" encoding="UTF-8" standalone="no"?>
<!DOCTYPE svg PUBLIC "-//W3C//DTD SVG 1.1//EN"
 "http://www.w3.org/Graphics/SVG/1.1/DTD/svg11.dtd">
<!-- Generated by graphviz version 2.38.0 (20140413.2041)
 -->
<!-- Title: a_graph Pages: 1 -->
<svg width="745pt" height="848pt"
 viewBox="0.00 0.00 744.95 848.00" xmlns="http://www.w3.org/2000/svg" xmlns:xlink="http://www.w3.org/1999/xlink">
<g id="graph0" class="graph" transform="scale(1 1) rotate(0) translate(4 844)">
<title>a_graph</title>
<polygon fill="white" stroke="none" points="-4,4 -4,-844 740.949,-844 740.949,4 -4,4"/>
<!-- T7983 -->
<g id="node1" class="node"><title>T7983</title>
<polygon fill="none" stroke="#0058ad" points="360,-810.5 360,-839.5 620,-839.5 620,-810.5 360,-810.5"/>
<text text-anchor="middle" x="413.5" y="-821.3" font-family="Times,serif" font-size="14.00" fill="#0058ad">r 550 [1 2 5 7 8]</text>
<polyline fill="none" stroke="#0058ad" points="467,-810.5 467,-839.5 "/>
<text text-anchor="middle" x="515" y="-821.3" font-family="Times,serif" font-size="14.00" fill="#0058ad">r 545 [1 2 3 4]</text>
<polyline fill="none" stroke="#0058ad" points="563,-810.5 563,-839.5 "/>
<text text-anchor="middle" x="591.5" y="-821.3" font-family="Times,serif" font-size="14.00" fill="#0058ad">a 550 3</text>
</g>
<!-- T7981 -->
<g id="node9" class="node"><title>T7981</title>
<polygon fill="none" stroke="#0058ad" points="198,-729.5 198,-758.5 544,-758.5 544,-729.5 198,-729.5"/>
<text text-anchor="middle" x="226.5" y="-740.3" font-family="Times,serif" font-size="14.00" fill="#0058ad">a 545 8</text>
<polyline fill="none" stroke="#0058ad" points="255,-729.5 255,-758.5 "/>
<text text-anchor="middle" x="298" y="-740.3" font-family="Times,serif" font-size="14.00" fill="#0058ad">r 549 [4 1 6]</text>
<polyline fill="none" stroke="#0058ad" points="341,-729.5 341,-758.5 "/>
<text text-anchor="middle" x="399.5" y="-740.3" font-family="Times,serif" font-size="14.00" fill="#0058ad">r 546 [2 4 1 3 5 6]</text>
<polyline fill="none" stroke="#0058ad" points="458,-729.5 458,-758.5 "/>
<text text-anchor="middle" x="501" y="-740.3" font-family="Times,serif" font-size="14.00" fill="#0058ad">r 551 [2 4 6]</text>
</g>
<!-- T7983&#45;&gt;T7981 -->
<g id="edge1" class="edge"><title>T7983:f1&#45;&gt;T7981:f0</title>
<path fill="none" stroke="#5b00c0" d="M515,-810C515,-683.265 242.137,-877.816 226.682,-769.278"/>
<polygon fill="#5b00c0" stroke="#5b00c0" points="230.155,-768.746 226,-759 223.17,-769.21 230.155,-768.746"/>
<text text-anchor="middle" x="519.5" y="-780.8" font-family="Times,serif" font-size="14.00" fill="#5b00c0">rw</text>
</g>
<!-- T7976 -->
<g id="node2" class="node"><title>T7976</title>
<polygon fill="none" stroke="#0058ad" points="230,-567.5 230,-596.5 352,-596.5 352,-567.5 230,-567.5"/>
<text text-anchor="middle" x="262.5" y="-578.3" font-family="Times,serif" font-size="14.00" fill="#0058ad">r 552 [1]</text>
<polyline fill="none" stroke="#0058ad" points="295,-567.5 295,-596.5 "/>
<text text-anchor="middle" x="323.5" y="-578.3" font-family="Times,serif" font-size="14.00" fill="#0058ad">a 551 7</text>
</g>
<!-- T7975 -->
<g id="node5" class="node"><title>T7975</title>
<polygon fill="none" stroke="#0058ad" points="74,-486.5 74,-515.5 296,-515.5 296,-486.5 74,-486.5"/>
<text text-anchor="middle" x="127.5" y="-497.3" font-family="Times,serif" font-size="14.00" fill="#0058ad">r 533 [1 3 4 2 5]</text>
<polyline fill="none" stroke="#0058ad" points="181,-486.5 181,-515.5 "/>
<text text-anchor="middle" x="209.5" y="-497.3" font-family="Times,serif" font-size="14.00" fill="#0058ad">a 552 3</text>
<polyline fill="none" stroke="#0058ad" points="238,-486.5 238,-515.5 "/>
<text text-anchor="middle" x="267" y="-497.3" font-family="Times,serif" font-size="14.00" fill="#0058ad">r 554 []</text>
</g>
<!-- T7976&#45;&gt;T7975 -->
<g id="edge3" class="edge"><title>T7976:f0&#45;&gt;T7975:f1</title>
<path fill="none" stroke="#5b00c0" d="M262,-567C262,-538.549 221.831,-545.719 212.103,-525.895"/>
<polygon fill="#5b00c0" stroke="#5b00c0" points="215.502,-525.054 210,-516 208.655,-526.509 215.502,-525.054"/>
<text text-anchor="middle" x="260.5" y="-537.8" font-family="Times,serif" font-size="14.00" fill="#5b00c0">rw</text>
</g>
<!-- T7990 -->
<g id="node7" class="node"><title>T7990</title>
<polygon fill="none" stroke="#0058ad" points="334,-0.5 334,-29.5 498,-29.5 498,-0.5 334,-0.5"/>
<text text-anchor="middle" x="362.5" y="-11.3" font-family="Times,serif" font-size="14.00" fill="#0058ad">a 551 3</text>
<polyline fill="none" stroke="#0058ad" points="391,-0.5 391,-29.5 "/>
<text text-anchor="middle" x="444.5" y="-11.3" font-family="Times,serif" font-size="14.00" fill="#0058ad">r 550 [1 2 5 7 8]</text>
</g>
<!-- T7976&#45;&gt;T7990 -->
<g id="edge2" class="edge"><title>T7976:f1&#45;&gt;T7990:f0</title>
<path fill="none" stroke="#c02700" d="M324,-567C324,-538.111 324,-530.889 324,-502 324,-502 324,-502 324,-95 324,-63.2733 302.944,-24.9103 323.119,-16.6258"/>
<polygon fill="#c02700" stroke="#c02700" points="323.701,-20.0772 333,-15 322.564,-13.1701 323.701,-20.0772"/>
<text text-anchor="middle" x="334" y="-294.8" font-family="Times,serif" font-size="14.00" fill="#c02700">ww</text>
</g>
<!-- T7935 -->
<g id="node3" class="node"><title>T7935</title>
<polygon fill="none" stroke="#0058ad" points="114.5,-324.5 114.5,-353.5 257.5,-353.5 257.5,-324.5 114.5,-324.5"/>
<text text-anchor="middle" x="143" y="-335.3" font-family="Times,serif" font-size="14.00" fill="#0058ad">a 550 5</text>
<polyline fill="none" stroke="#0058ad" points="171.5,-324.5 171.5,-353.5 "/>
<text text-anchor="middle" x="214.5" y="-335.3" font-family="Times,serif" font-size="14.00" fill="#0058ad">r 550 [1 2 5]</text>
</g>
<!-- T7948 -->
<g id="node8" class="node"><title>T7948</title>
<polygon fill="none" stroke="#0058ad" points="0,-162.5 0,-191.5 250,-191.5 250,-162.5 0,-162.5"/>
<text text-anchor="middle" x="43" y="-173.3" font-family="Times,serif" font-size="14.00" fill="#0058ad">r 550 [1 2 5]</text>
<polyline fill="none" stroke="#0058ad" points="86,-162.5 86,-191.5 "/>
<text text-anchor="middle" x="139.5" y="-173.3" font-family="Times,serif" font-size="14.00" fill="#0058ad">r 475 [1 2 3 4 5]</text>
<polyline fill="none" stroke="#0058ad" points="193,-162.5 193,-191.5 "/>
<text text-anchor="middle" x="221.5" y="-173.3" font-family="Times,serif" font-size="14.00" fill="#0058ad">a 550 7</text>
</g>
<!-- T7935&#45;&gt;T7948 -->
<g id="edge5" class="edge"><title>T7935:f0&#45;&gt;T7948:f2</title>
<path fill="none" stroke="#c02700" d="M143,-324C143,-312.368 153.664,-314.113 162,-306 176.863,-291.533 184.095,-290.644 195,-273 213.002,-243.872 220.5,-232.256 221.793,-202.385"/>
<polygon fill="#c02700" stroke="#c02700" points="225.3,-202.068 222,-192 218.301,-201.928 225.3,-202.068"/>
<text text-anchor="middle" x="223" y="-254.3" font-family="Times,serif" font-size="14.00" fill="#c02700">ww</text>
</g>
<!-- T7941 -->
<g id="node11" class="node"><title>T7941</title>
<polygon fill="none" stroke="#0058ad" points="100,-243.5 100,-272.5 186,-272.5 186,-243.5 100,-243.5"/>
<text text-anchor="middle" x="143" y="-254.3" font-family="Times,serif" font-size="14.00" fill="#0058ad">r 550 [1 2 5]</text>
</g>
<!-- T7935&#45;&gt;T7941 -->
<g id="edge4" class="edge"><title>T7935:f0&#45;&gt;T7941:f0</title>
<path fill="none" stroke="#c000a5" d="M143,-324C143,-310.352 143,-295.117 143,-282.725"/>
<polygon fill="#c000a5" stroke="#c000a5" points="146.5,-282.68 143,-272.68 139.5,-282.68 146.5,-282.68"/>
<text text-anchor="middle" x="150.5" y="-294.8" font-family="Times,serif" font-size="14.00" fill="#c000a5">wr</text>
</g>
<!-- T7971 -->
<g id="node4" class="node"><title>T7971</title>
<polygon fill="none" stroke="#0058ad" points="410.5,-648.5 410.5,-677.5 563.5,-677.5 563.5,-648.5 410.5,-648.5"/>
<text text-anchor="middle" x="439" y="-659.3" font-family="Times,serif" font-size="14.00" fill="#0058ad">a 551 8</text>
<polyline fill="none" stroke="#0058ad" points="467.5,-648.5 467.5,-677.5 "/>
<text text-anchor="middle" x="515.5" y="-659.3" font-family="Times,serif" font-size="14.00" fill="#0058ad">r 551 [2 4 6 8]</text>
</g>
<!-- T7971&#45;&gt;T7976 -->
<g id="edge6" class="edge"><title>T7971:f0&#45;&gt;T7976:f1</title>
<path fill="none" stroke="#c02700" d="M409,-663C369.166,-663 391.708,-595.901 363.082,-583.844"/>
<polygon fill="#c02700" stroke="#c02700" points="363.467,-580.356 353,-582 362.207,-587.242 363.467,-580.356"/>
<text text-anchor="middle" x="393" y="-618.8" font-family="Times,serif" font-size="14.00" fill="#c02700">ww</text>
</g>
<!-- T7960 -->
<g id="node10" class="node"><title>T7960</title>
<polygon fill="none" stroke="#0058ad" points="80,-405.5 80,-434.5 212,-434.5 212,-405.5 80,-405.5"/>
<text text-anchor="middle" x="108.5" y="-416.3" font-family="Times,serif" font-size="14.00" fill="#0058ad">a 533 6</text>
<polyline fill="none" stroke="#0058ad" points="137,-405.5 137,-434.5 "/>
<text text-anchor="middle" x="174.5" y="-416.3" font-family="Times,serif" font-size="14.00" fill="#0058ad">r 550 [1 2]</text>
</g>
<!-- T7975&#45;&gt;T7960 -->
<g id="edge7" class="edge"><title>T7975:f0&#45;&gt;T7960:f0</title>
<path fill="none" stroke="#5b00c0" d="M127,-486C127,-465.591 113.474,-460.535 109.247,-444.923"/>
<polygon fill="#5b00c0" stroke="#5b00c0" points="112.719,-444.486 108,-435 105.774,-445.358 112.719,-444.486"/>
<text text-anchor="middle" x="130.5" y="-456.8" font-family="Times,serif" font-size="14.00" fill="#5b00c0">rw</text>
</g>
<!-- T7965 -->
<g id="node6" class="node"><title>T7965</title>
<polygon fill="none" stroke="#0058ad" points="352,-81.5 352,-110.5 646,-110.5 646,-81.5 352,-81.5"/>
<text text-anchor="middle" x="384.5" y="-92.3" font-family="Times,serif" font-size="14.00" fill="#0058ad">r 552 [1]</text>
<polyline fill="none" stroke="#0058ad" points="417,-81.5 417,-110.5 "/>
<text text-anchor="middle" x="445.5" y="-92.3" font-family="Times,serif" font-size="14.00" fill="#0058ad">a 550 8</text>
<polyline fill="none" stroke="#0058ad" points="474,-81.5 474,-110.5 "/>
<text text-anchor="middle" x="517" y="-92.3" font-family="Times,serif" font-size="14.00" fill="#0058ad">r 551 [2 4 6]</text>
<polyline fill="none" stroke="#0058ad" points="560,-81.5 560,-110.5 "/>
<text text-anchor="middle" x="603" y="-92.3" font-family="Times,serif" font-size="14.00" fill="#0058ad">r 551 [2 4 6]</text>
</g>
<!-- T7965&#45;&gt;T7983 -->
<g id="edge9" class="edge"><title>T7965:f1&#45;&gt;T7983:f2</title>
<path fill="none" stroke="#c02700" d="M445,-111C445,-147.011 491.037,-114.5 524,-129 557.629,-143.793 592,-139.261 592,-176 592,-745 592,-745 592,-745 592,-770.165 592,-778.889 592,-799.815"/>
<polygon fill="#c02700" stroke="#c02700" points="588.5,-800 592,-810 595.5,-800 588.5,-800"/>
<text text-anchor="middle" x="602" y="-456.8" font-family="Times,serif" font-size="14.00" fill="#c02700">ww</text>
</g>
<!-- T7965&#45;&gt;T7971 -->
<g id="edge8" class="edge"><title>T7965:f2&#45;&gt;T7971:f0</title>
<path fill="none" stroke="#5b00c0" d="M517,-111C517,-141.359 496,-145.641 496,-176 496,-583 496,-583 496,-583 496,-617.671 449.589,-611.411 440.525,-638.088"/>
<polygon fill="#5b00c0" stroke="#5b00c0" points="437.061,-637.584 439,-648 443.98,-638.648 437.061,-637.584"/>
<text text-anchor="middle" x="503.5" y="-375.8" font-family="Times,serif" font-size="14.00" fill="#5b00c0">rw</text>
</g>
<!-- T7965&#45;&gt;T7975 -->
<g id="edge11" class="edge"><title>T7965:f0&#45;&gt;T7975:f1</title>
<path fill="none" stroke="#5b00c0" d="M351,-96C305.188,-96 286,-130.188 286,-176 286,-421 286,-421 286,-421 286,-461.627 222.501,-445.155 211.587,-475.968"/>
<polygon fill="#5b00c0" stroke="#5b00c0" points="208.106,-475.576 210,-486 215.02,-476.67 208.106,-475.576"/>
<text text-anchor="middle" x="293.5" y="-294.8" font-family="Times,serif" font-size="14.00" fill="#5b00c0">rw</text>
</g>
<!-- T7965&#45;&gt;T7990 -->
<g id="edge10" class="edge"><title>T7965:f1&#45;&gt;T7990:f1</title>
<path fill="none" stroke="#c000a5" d="M445,-81C445,-62.2292 445,-55.1168 445,-40.3535"/>
<polygon fill="#c000a5" stroke="#c000a5" points="448.5,-40 445,-30 441.5,-40 448.5,-40"/>
<text text-anchor="middle" x="452.5" y="-51.8" font-family="Times,serif" font-size="14.00" fill="#c000a5">wr</text>
</g>
<!-- T7990&#45;&gt;T7983 -->
<g id="edge12" class="edge"><title>T7990:f1&#45;&gt;T7983:f2</title>
<path fill="none" stroke="#5b00c0" d="M499,-15C898.149,-15 674,-44.506 674,-95 674,-745 674,-745 674,-745 674,-783.985 665.353,-818.541 631.294,-824.193"/>
<polygon fill="#5b00c0" stroke="#5b00c0" points="630.696,-820.729 621,-825 631.243,-827.707 630.696,-820.729"/>
<text text-anchor="middle" x="681.5" y="-416.3" font-family="Times,serif" font-size="14.00" fill="#5b00c0">rw</text>
</g>
<!-- T7948&#45;&gt;T7965 -->
<g id="edge13" class="edge"><title>T7948:f2&#45;&gt;T7965:f1</title>
<path fill="none" stroke="#c02700" d="M222,-162C222,-142.179 234.265,-137.853 252,-129 268.786,-120.621 402.777,-129.524 437.042,-117.723"/>
<polygon fill="#c02700" stroke="#c02700" points="439.62,-120.127 445,-111 435.102,-114.78 439.62,-120.127"/>
<text text-anchor="middle" x="262" y="-132.8" font-family="Times,serif" font-size="14.00" fill="#c02700">ww</text>
</g>
<!-- T7981&#45;&gt;T7971 -->
<g id="edge14" class="edge"><title>T7981:f3&#45;&gt;T7971:f0</title>
<path fill="none" stroke="#5b00c0" d="M501,-729C501,-697.222 451.821,-709.897 441.063,-687.843"/>
<polygon fill="#5b00c0" stroke="#5b00c0" points="444.477,-687.069 439,-678 437.626,-688.505 444.477,-687.069"/>
<text text-anchor="middle" x="497.5" y="-699.8" font-family="Times,serif" font-size="14.00" fill="#5b00c0">rw</text>
</g>
<!-- T7960&#45;&gt;T7935 -->
<g id="edge15" class="edge"><title>T7960:f1&#45;&gt;T7935:f0</title>
<path fill="none" stroke="#5b00c0" d="M175,-405C175,-382.213 151.795,-380.657 144.906,-364.172"/>
<polygon fill="#5b00c0" stroke="#5b00c0" points="148.282,-363.184 143,-354 141.402,-364.474 148.282,-363.184"/>
<text text-anchor="middle" x="175.5" y="-375.8" font-family="Times,serif" font-size="14.00" fill="#5b00c0">rw</text>
</g>
<!-- T7941&#45;&gt;T7948 -->
<g id="edge16" class="edge"><title>T7941:f0&#45;&gt;T7948:f2</title>
<path fill="none" stroke="#5b00c0" d="M156.716,-243.298C166.379,-233.337 179.884,-220.184 193,-210 201.237,-203.604 211.855,-204.665 217.687,-201.023"/>
<polygon fill="#5b00c0" stroke="#5b00c0" points="220.845,-202.532 222,-192 214.53,-199.513 220.845,-202.532"/>
<text text-anchor="middle" x="200.5" y="-213.8" font-family="Times,serif" font-size="14.00" fill="#5b00c0">rw</text>
</g>
</g>
</svg>
