<?xml version="1.0" encoding="UTF-8" standalone="no"?>
<!DOCTYPE svg PUBLIC "-//W3C//DTD SVG 1.1//EN"
 "http://www.w3.org/Graphics/SVG/1.1/DTD/svg11.dtd">
<!-- Generated by graphviz version 2.38.0 (20140413.2041)
 -->
<!-- Title: a_graph Pages: 1 -->
<svg width="181pt" height="119pt"
 viewBox="0.00 0.00 180.50 119.00" xmlns="http://www.w3.org/2000/svg" xmlns:xlink="http://www.w3.org/1999/xlink">
<g id="graph0" class="graph" transform="scale(1 1) rotate(0) translate(4 115)">
<title>a_graph</title>
<polygon fill="white" stroke="none" points="-4,4 -4,-115 176.5,-115 176.5,4 -4,4"/>
<!-- T5003 -->
<g id="node1" class="node"><title>T5003</title>
<polygon fill="none" stroke="#0058ad" points="-7.10543e-15,-81.5 -7.10543e-15,-110.5 115,-110.5 115,-81.5 -7.10543e-15,-81.5"/>
<text text-anchor="middle" x="29" y="-92.3" font-family="Times,serif" font-size="14.00" fill="#0058ad">r 353 []</text>
<polyline fill="none" stroke="#0058ad" points="58,-81.5 58,-110.5 "/>
<text text-anchor="middle" x="86.5" y="-92.3" font-family="Times,serif" font-size="14.00" fill="#0058ad">a 356 1</text>
</g>
<!-- T5013 -->
<g id="node2" class="node"><title>T5013</title>
<polygon fill="none" stroke="#0058ad" points="0.5,-0.5 0.5,-29.5 172.5,-29.5 172.5,-0.5 0.5,-0.5"/>
<text text-anchor="middle" x="29" y="-11.3" font-family="Times,serif" font-size="14.00" fill="#0058ad">a 353 3</text>
<polyline fill="none" stroke="#0058ad" points="57.5,-0.5 57.5,-29.5 "/>
<text text-anchor="middle" x="86.5" y="-11.3" font-family="Times,serif" font-size="14.00" fill="#0058ad">r 356 []</text>
<polyline fill="none" stroke="#0058ad" points="115.5,-0.5 115.5,-29.5 "/>
<text text-anchor="middle" x="144" y="-11.3" font-family="Times,serif" font-size="14.00" fill="#0058ad">a 353 4</text>
</g>
<!-- T5003&#45;&gt;T5013 -->
<g id="edge1" class="edge"><title>T5003:f0&#45;&gt;T5013:f0</title>
<path fill="none" stroke="#5b00c0" d="M28.5,-81C28.5,-62.2292 28.5,-55.1168 28.5,-40.3535"/>
<polygon fill="#5b00c0" stroke="#5b00c0" points="32.0001,-40 28.5,-30 25.0001,-40 32.0001,-40"/>
<text text-anchor="middle" x="36" y="-51.8" font-family="Times,serif" font-size="14.00" fill="#5b00c0">rw</text>
</g>
<!-- T5013&#45;&gt;T5003 -->
<g id="edge2" class="edge"><title>T5013:f1&#45;&gt;T5003:f1</title>
<path fill="none" stroke="#5b00c0" d="M86.5,-30C86.5,-48.7708 86.5,-55.8832 86.5,-70.6465"/>
<polygon fill="#5b00c0" stroke="#5b00c0" points="83.0001,-71 86.5,-81 90.0001,-71 83.0001,-71"/>
<text text-anchor="middle" x="94" y="-51.8" font-family="Times,serif" font-size="14.00" fill="#5b00c0">rw</text>
</g>
</g>
</svg>
