<?xml version="1.0" encoding="UTF-8" standalone="no"?>
<!DOCTYPE svg PUBLIC "-//W3C//DTD SVG 1.1//EN"
 "http://www.w3.org/Graphics/SVG/1.1/DTD/svg11.dtd">
<!-- Generated by graphviz version 2.38.0 (20140413.2041)
 -->
<!-- Title: a_graph Pages: 1 -->
<svg width="388pt" height="362pt"
 viewBox="0.00 0.00 388.38 362.00" xmlns="http://www.w3.org/2000/svg" xmlns:xlink="http://www.w3.org/1999/xlink">
<g id="graph0" class="graph" transform="scale(1 1) rotate(0) translate(4 358)">
<title>a_graph</title>
<polygon fill="white" stroke="none" points="-4,4 -4,-358 384.38,-358 384.38,4 -4,4"/>
<!-- T2641 -->
<g id="node1" class="node"><title>T2641</title>
<polygon fill="none" stroke="#0058ad" points="17.3803,-324.5 17.3803,-353.5 261.38,-353.5 261.38,-324.5 17.3803,-324.5"/>
<text text-anchor="middle" x="45.8803" y="-335.3" font-family="Times,serif" font-size="14.00" fill="#0058ad">a 183 5</text>
<polyline fill="none" stroke="#0058ad" points="74.3803,-324.5 74.3803,-353.5 "/>
<text text-anchor="middle" x="106.88" y="-335.3" font-family="Times,serif" font-size="14.00" fill="#0058ad">r 182 [1]</text>
<polyline fill="none" stroke="#0058ad" points="139.38,-324.5 139.38,-353.5 "/>
<text text-anchor="middle" x="171.88" y="-335.3" font-family="Times,serif" font-size="14.00" fill="#0058ad">r 182 [1]</text>
<polyline fill="none" stroke="#0058ad" points="204.38,-324.5 204.38,-353.5 "/>
<text text-anchor="middle" x="232.88" y="-335.3" font-family="Times,serif" font-size="14.00" fill="#0058ad">a 183 6</text>
</g>
<!-- T2624 -->
<g id="node5" class="node"><title>T2624</title>
<polygon fill="none" stroke="#0058ad" points="42.3803,-243.5 42.3803,-272.5 294.38,-272.5 294.38,-243.5 42.3803,-243.5"/>
<text text-anchor="middle" x="74.8803" y="-254.3" font-family="Times,serif" font-size="14.00" fill="#0058ad">r 182 [1]</text>
<polyline fill="none" stroke="#0058ad" points="107.38,-243.5 107.38,-272.5 "/>
<text text-anchor="middle" x="139.88" y="-254.3" font-family="Times,serif" font-size="14.00" fill="#0058ad">r 183 [3]</text>
<polyline fill="none" stroke="#0058ad" points="172.38,-243.5 172.38,-272.5 "/>
<text text-anchor="middle" x="200.88" y="-254.3" font-family="Times,serif" font-size="14.00" fill="#0058ad">a 182 7</text>
<polyline fill="none" stroke="#0058ad" points="229.38,-243.5 229.38,-272.5 "/>
<text text-anchor="middle" x="261.88" y="-254.3" font-family="Times,serif" font-size="14.00" fill="#0058ad">r 183 [3]</text>
</g>
<!-- T2641&#45;&gt;T2624 -->
<g id="edge1" class="edge"><title>T2641:f1&#45;&gt;T2624:f2</title>
<path fill="none" stroke="#5b00c0" d="M106.38,-324C106.38,-280.009 186.434,-314.189 199.567,-283.023"/>
<polygon fill="#5b00c0" stroke="#5b00c0" points="203.044,-283.463 201.38,-273 196.156,-282.217 203.044,-283.463"/>
<text text-anchor="middle" x="198.88" y="-294.8" font-family="Times,serif" font-size="14.00" fill="#5b00c0">rw</text>
</g>
<!-- T2629 -->
<g id="node2" class="node"><title>T2629</title>
<polygon fill="none" stroke="#0058ad" points="108.38,-81.5 108.38,-110.5 380.38,-110.5 380.38,-81.5 108.38,-81.5"/>
<text text-anchor="middle" x="140.88" y="-92.3" font-family="Times,serif" font-size="14.00" fill="#0058ad">r 182 [1]</text>
<polyline fill="none" stroke="#0058ad" points="173.38,-81.5 173.38,-110.5 "/>
<text text-anchor="middle" x="210.88" y="-92.3" font-family="Times,serif" font-size="14.00" fill="#0058ad">r 183 [3 4]</text>
<polyline fill="none" stroke="#0058ad" points="248.38,-81.5 248.38,-110.5 "/>
<text text-anchor="middle" x="276.88" y="-92.3" font-family="Times,serif" font-size="14.00" fill="#0058ad">a 179 5</text>
<polyline fill="none" stroke="#0058ad" points="305.38,-81.5 305.38,-110.5 "/>
<text text-anchor="middle" x="342.88" y="-92.3" font-family="Times,serif" font-size="14.00" fill="#0058ad">r 183 [3 4]</text>
</g>
<!-- T2619 -->
<g id="node3" class="node"><title>T2619</title>
<polygon fill="none" stroke="#0058ad" points="41.8803,-0.5 41.8803,-29.5 184.88,-29.5 184.88,-0.5 41.8803,-0.5"/>
<text text-anchor="middle" x="70.3803" y="-11.3" font-family="Times,serif" font-size="14.00" fill="#0058ad">a 183 7</text>
<polyline fill="none" stroke="#0058ad" points="98.8803,-0.5 98.8803,-29.5 "/>
<text text-anchor="middle" x="141.88" y="-11.3" font-family="Times,serif" font-size="14.00" fill="#0058ad">r 183 [3 4 7]</text>
</g>
<!-- T2629&#45;&gt;T2619 -->
<g id="edge3" class="edge"><title>T2629:f1&#45;&gt;T2619:f0</title>
<path fill="none" stroke="#5b00c0" d="M210.38,-81C210.38,-51.5104 99.3305,-60.3595 75.0383,-39.2564"/>
<polygon fill="#5b00c0" stroke="#5b00c0" points="78.002,-37.3594 70.3803,-30 71.749,-40.5061 78.002,-37.3594"/>
<text text-anchor="middle" x="190.88" y="-51.8" font-family="Times,serif" font-size="14.00" fill="#5b00c0">rw</text>
</g>
<!-- T2629&#45;&gt;T2624 -->
<g id="edge2" class="edge"><title>T2629:f0&#45;&gt;T2624:f2</title>
<path fill="none" stroke="#5b00c0" d="M140.38,-111C140.38,-139.267 183.122,-107.421 201.38,-129 231.87,-165.035 205.549,-188.897 201.808,-232.961"/>
<polygon fill="#5b00c0" stroke="#5b00c0" points="198.309,-232.86 201.38,-243 205.303,-233.158 198.309,-232.86"/>
<text text-anchor="middle" x="222.88" y="-173.3" font-family="Times,serif" font-size="14.00" fill="#5b00c0">rw</text>
</g>
<!-- T2619&#45;&gt;T2641 -->
<g id="edge4" class="edge"><title>T2619:f0&#45;&gt;T2641:f0</title>
<path fill="none" stroke="#c02700" d="M40.3803,-15C2.99409,-15 14.3803,-57.6138 14.3803,-95 14.3803,-259 14.3803,-259 14.3803,-259 14.3803,-290.121 -11.3192,-328.03 6.08283,-337.021"/>
<polygon fill="#c02700" stroke="#c02700" points="5.89946,-340.55 16.3803,-339 7.22043,-333.676 5.89946,-340.55"/>
<text text-anchor="middle" x="24.3803" y="-173.3" font-family="Times,serif" font-size="14.00" fill="#c02700">ww</text>
</g>
<!-- T2613 -->
<g id="node4" class="node"><title>T2613</title>
<polygon fill="none" stroke="#0058ad" points="52.8803,-162.5 52.8803,-191.5 195.88,-191.5 195.88,-162.5 52.8803,-162.5"/>
<text text-anchor="middle" x="81.3803" y="-173.3" font-family="Times,serif" font-size="14.00" fill="#0058ad">a 183 4</text>
<polyline fill="none" stroke="#0058ad" points="109.88,-162.5 109.88,-191.5 "/>
<text text-anchor="middle" x="152.88" y="-173.3" font-family="Times,serif" font-size="14.00" fill="#0058ad">r 179 [1 2 3]</text>
</g>
<!-- T2613&#45;&gt;T2629 -->
<g id="edge5" class="edge"><title>T2613:f0&#45;&gt;T2629:f1</title>
<path fill="none" stroke="#c000a5" d="M81.3803,-162C81.3803,-134.666 182.809,-139.945 205.789,-120"/>
<polygon fill="#c000a5" stroke="#c000a5" points="208.954,-121.498 210.38,-111 202.718,-118.317 208.954,-121.498"/>
<text text-anchor="middle" x="189.88" y="-132.8" font-family="Times,serif" font-size="14.00" fill="#c000a5">wr</text>
</g>
<!-- T2613&#45;&gt;T2619 -->
<g id="edge6" class="edge"><title>T2613:f0&#45;&gt;T2619:f0</title>
<path fill="none" stroke="#c02700" d="M81.3803,-162C81.3803,-106.694 71.672,-90.7603 70.4964,-40.2224"/>
<polygon fill="#c02700" stroke="#c02700" points="73.9937,-39.9596 70.3803,-30 66.9942,-40.0391 73.9937,-39.9596"/>
<text text-anchor="middle" x="88.3803" y="-92.3" font-family="Times,serif" font-size="14.00" fill="#c02700">ww</text>
</g>
<!-- T2624&#45;&gt;T2613 -->
<g id="edge7" class="edge"><title>T2624:f1&#45;&gt;T2613:f0</title>
<path fill="none" stroke="#5b00c0" d="M139.38,-243C139.38,-212.563 93.7766,-222.994 83.4445,-201.816"/>
<polygon fill="#5b00c0" stroke="#5b00c0" points="86.8635,-201.066 81.3803,-192 80.0133,-202.506 86.8635,-201.066"/>
<text text-anchor="middle" x="137.88" y="-213.8" font-family="Times,serif" font-size="14.00" fill="#5b00c0">rw</text>
</g>
</g>
</svg>
