<?xml version="1.0" encoding="UTF-8" standalone="no"?>
<!DOCTYPE svg PUBLIC "-//W3C//DTD SVG 1.1//EN"
 "http://www.w3.org/Graphics/SVG/1.1/DTD/svg11.dtd">
<!-- Generated by graphviz version 2.38.0 (20140413.2041)
 -->
<!-- Title: a_graph Pages: 1 -->
<svg width="239pt" height="200pt"
 viewBox="0.00 0.00 239.00 200.00" xmlns="http://www.w3.org/2000/svg" xmlns:xlink="http://www.w3.org/1999/xlink">
<g id="graph0" class="graph" transform="scale(1 1) rotate(0) translate(4 196)">
<title>a_graph</title>
<polygon fill="white" stroke="none" points="-4,4 -4,-196 235,-196 235,4 -4,4"/>
<!-- T5083 -->
<g id="node1" class="node"><title>T5083</title>
<polygon fill="none" stroke="#0058ad" points="2,-162.5 2,-191.5 231,-191.5 231,-162.5 2,-162.5"/>
<text text-anchor="middle" x="30.5" y="-173.3" font-family="Times,serif" font-size="14.00" fill="#0058ad">a 359 6</text>
<polyline fill="none" stroke="#0058ad" points="59,-162.5 59,-191.5 "/>
<text text-anchor="middle" x="87.5" y="-173.3" font-family="Times,serif" font-size="14.00" fill="#0058ad">a 359 7</text>
<polyline fill="none" stroke="#0058ad" points="116,-162.5 116,-191.5 "/>
<text text-anchor="middle" x="144.5" y="-173.3" font-family="Times,serif" font-size="14.00" fill="#0058ad">a 355 6</text>
<polyline fill="none" stroke="#0058ad" points="173,-162.5 173,-191.5 "/>
<text text-anchor="middle" x="202" y="-173.3" font-family="Times,serif" font-size="14.00" fill="#0058ad">r 361 []</text>
</g>
<!-- T5109 -->
<g id="node2" class="node"><title>T5109</title>
<polygon fill="none" stroke="#0058ad" points="0,-81.5 0,-110.5 115,-110.5 115,-81.5 0,-81.5"/>
<text text-anchor="middle" x="28.5" y="-92.3" font-family="Times,serif" font-size="14.00" fill="#0058ad">a 359 8</text>
<polyline fill="none" stroke="#0058ad" points="57,-81.5 57,-110.5 "/>
<text text-anchor="middle" x="86" y="-92.3" font-family="Times,serif" font-size="14.00" fill="#0058ad">r 361 []</text>
</g>
<!-- T5083&#45;&gt;T5109 -->
<g id="edge2" class="edge"><title>T5083:f1&#45;&gt;T5109:f0</title>
<path fill="none" stroke="#c02700" d="M87.5,-162C87.5,-131.265 41.1101,-142.19 30.5998,-120.894"/>
<polygon fill="#c02700" stroke="#c02700" points="34,-120.055 28.5,-111 27.1525,-121.509 34,-120.055"/>
<text text-anchor="middle" x="88.5" y="-132.8" font-family="Times,serif" font-size="14.00" fill="#c02700">ww</text>
</g>
<!-- T5111 -->
<g id="node3" class="node"><title>T5111</title>
<polygon fill="none" stroke="#0058ad" points="58,-0.5 58,-29.5 211,-29.5 211,-0.5 58,-0.5"/>
<text text-anchor="middle" x="86.5" y="-11.3" font-family="Times,serif" font-size="14.00" fill="#0058ad">a 361 1</text>
<polyline fill="none" stroke="#0058ad" points="115,-0.5 115,-29.5 "/>
<text text-anchor="middle" x="163" y="-11.3" font-family="Times,serif" font-size="14.00" fill="#0058ad">r 355 [1 3 4 5]</text>
</g>
<!-- T5083&#45;&gt;T5111 -->
<g id="edge1" class="edge"><title>T5083:f3&#45;&gt;T5111:f0</title>
<path fill="none" stroke="#5b00c0" d="M202.5,-162C202.5,-108.732 204.819,-83.9377 165.5,-48 142.242,-26.742 99.201,-56.4752 88.8043,-40.1161"/>
<polygon fill="#5b00c0" stroke="#5b00c0" points="92.1336,-38.9729 86.5,-30 85.3085,-40.5276 92.1336,-38.9729"/>
<text text-anchor="middle" x="209" y="-92.3" font-family="Times,serif" font-size="14.00" fill="#5b00c0">rw</text>
</g>
<!-- T5109&#45;&gt;T5111 -->
<g id="edge3" class="edge"><title>T5109:f1&#45;&gt;T5111:f0</title>
<path fill="none" stroke="#5b00c0" d="M86.5,-81C86.5,-62.2292 86.5,-55.1168 86.5,-40.3535"/>
<polygon fill="#5b00c0" stroke="#5b00c0" points="90.0001,-40 86.5,-30 83.0001,-40 90.0001,-40"/>
<text text-anchor="middle" x="94" y="-51.8" font-family="Times,serif" font-size="14.00" fill="#5b00c0">rw</text>
</g>
<!-- T5111&#45;&gt;T5083 -->
<g id="edge4" class="edge"><title>T5111:f1&#45;&gt;T5083:f2</title>
<path fill="none" stroke="#5b00c0" d="M163.5,-30C163.5,-85.6826 146.731,-100.931 144.701,-151.717"/>
<polygon fill="#5b00c0" stroke="#5b00c0" points="141.196,-151.934 144.5,-162 148.194,-152.07 141.196,-151.934"/>
<text text-anchor="middle" x="166" y="-92.3" font-family="Times,serif" font-size="14.00" fill="#5b00c0">rw</text>
</g>
</g>
</svg>
