<?xml version="1.0" encoding="UTF-8" standalone="no"?>
<!DOCTYPE svg PUBLIC "-//W3C//DTD SVG 1.1//EN"
 "http://www.w3.org/Graphics/SVG/1.1/DTD/svg11.dtd">
<!-- Generated by graphviz version 2.38.0 (20140413.2041)
 -->
<!-- Title: a_graph Pages: 1 -->
<svg width="218pt" height="119pt"
 viewBox="0.00 0.00 218.00 119.00" xmlns="http://www.w3.org/2000/svg" xmlns:xlink="http://www.w3.org/1999/xlink">
<g id="graph0" class="graph" transform="scale(1 1) rotate(0) translate(4 115)">
<title>a_graph</title>
<polygon fill="white" stroke="none" points="-4,4 -4,-115 214,-115 214,4 -4,4"/>
<!-- T8324 -->
<g id="node1" class="node"><title>T8324</title>
<polygon fill="none" stroke="#0058ad" points="24,-81.5 24,-110.5 146,-110.5 146,-81.5 24,-81.5"/>
<text text-anchor="middle" x="52.5" y="-92.3" font-family="Times,serif" font-size="14.00" fill="#0058ad">a 577 7</text>
<polyline fill="none" stroke="#0058ad" points="81,-81.5 81,-110.5 "/>
<text text-anchor="middle" x="113.5" y="-92.3" font-family="Times,serif" font-size="14.00" fill="#0058ad">r 581 [2]</text>
</g>
<!-- T8330 -->
<g id="node2" class="node"><title>T8330</title>
<polygon fill="none" stroke="#0058ad" points="0,-0.5 0,-29.5 210,-29.5 210,-0.5 0,-0.5"/>
<text text-anchor="middle" x="48" y="-11.3" font-family="Times,serif" font-size="14.00" fill="#0058ad">r 577 [2 3 5 6]</text>
<polyline fill="none" stroke="#0058ad" points="96,-0.5 96,-29.5 "/>
<text text-anchor="middle" x="124.5" y="-11.3" font-family="Times,serif" font-size="14.00" fill="#0058ad">a 581 3</text>
<polyline fill="none" stroke="#0058ad" points="153,-0.5 153,-29.5 "/>
<text text-anchor="middle" x="181.5" y="-11.3" font-family="Times,serif" font-size="14.00" fill="#0058ad">a 581 4</text>
</g>
<!-- T8324&#45;&gt;T8330 -->
<g id="edge1" class="edge"><title>T8324:f1&#45;&gt;T8330:f1</title>
<path fill="none" stroke="#5b00c0" d="M114,-81C114,-61.6164 121.687,-55.2049 124.209,-40.0777"/>
<polygon fill="#5b00c0" stroke="#5b00c0" points="127.707,-40.2433 125,-30 120.728,-39.6954 127.707,-40.2433"/>
<text text-anchor="middle" x="129.5" y="-51.8" font-family="Times,serif" font-size="14.00" fill="#5b00c0">rw</text>
</g>
<!-- T8330&#45;&gt;T8324 -->
<g id="edge2" class="edge"><title>T8330:f0&#45;&gt;T8324:f0</title>
<path fill="none" stroke="#5b00c0" d="M48,-30C48,-48.8285 50.7432,-55.8553 51.6861,-70.627"/>
<polygon fill="#5b00c0" stroke="#5b00c0" points="48.1991,-71.1105 52,-81 55.1959,-70.8987 48.1991,-71.1105"/>
<text text-anchor="middle" x="58.5" y="-51.8" font-family="Times,serif" font-size="14.00" fill="#5b00c0">rw</text>
</g>
</g>
</svg>
