<?xml version="1.0" encoding="UTF-8" standalone="no"?>
<!DOCTYPE svg PUBLIC "-//W3C//DTD SVG 1.1//EN"
 "http://www.w3.org/Graphics/SVG/1.1/DTD/svg11.dtd">
<!-- Generated by graphviz version 2.38.0 (20140413.2041)
 -->
<!-- Title: a_graph Pages: 1 -->
<svg width="269pt" height="119pt"
 viewBox="0.00 0.00 269.00 119.00" xmlns="http://www.w3.org/2000/svg" xmlns:xlink="http://www.w3.org/1999/xlink">
<g id="graph0" class="graph" transform="scale(1 1) rotate(0) translate(4 115)">
<title>a_graph</title>
<polygon fill="white" stroke="none" points="-4,4 -4,-115 265,-115 265,4 -4,4"/>
<!-- T1393 -->
<g id="node1" class="node"><title>T1393</title>
<polygon fill="none" stroke="#0058ad" points="0,-81.5 0,-110.5 183,-110.5 183,-81.5 0,-81.5"/>
<text text-anchor="middle" x="25.5" y="-92.3" font-family="Times,serif" font-size="14.00" fill="#0058ad">r 99 []</text>
<polyline fill="none" stroke="#0058ad" points="51,-81.5 51,-110.5 "/>
<text text-anchor="middle" x="88.5" y="-92.3" font-family="Times,serif" font-size="14.00" fill="#0058ad">r 101 [3 4]</text>
<polyline fill="none" stroke="#0058ad" points="126,-81.5 126,-110.5 "/>
<text text-anchor="middle" x="154.5" y="-92.3" font-family="Times,serif" font-size="14.00" fill="#0058ad">a 101 6</text>
</g>
<!-- T1395 -->
<g id="node2" class="node"><title>T1395</title>
<polygon fill="none" stroke="#0058ad" points="18,-0.5 18,-29.5 261,-29.5 261,-0.5 18,-0.5"/>
<text text-anchor="middle" x="43" y="-11.3" font-family="Times,serif" font-size="14.00" fill="#0058ad">a 99 2</text>
<polyline fill="none" stroke="#0058ad" points="68,-0.5 68,-29.5 "/>
<text text-anchor="middle" x="105.5" y="-11.3" font-family="Times,serif" font-size="14.00" fill="#0058ad">r 101 [3 4]</text>
<polyline fill="none" stroke="#0058ad" points="143,-0.5 143,-29.5 "/>
<text text-anchor="middle" x="168" y="-11.3" font-family="Times,serif" font-size="14.00" fill="#0058ad">a 99 3</text>
<polyline fill="none" stroke="#0058ad" points="193,-0.5 193,-29.5 "/>
<text text-anchor="middle" x="227" y="-11.3" font-family="Times,serif" font-size="14.00" fill="#0058ad">r 99 [2 3]</text>
</g>
<!-- T1393&#45;&gt;T1395 -->
<g id="edge1" class="edge"><title>T1393:f0&#45;&gt;T1395:f0</title>
<path fill="none" stroke="#5b00c0" d="M25.5,-81C25.5,-61.0271 37.3795,-55.5041 41.2774,-40.2726"/>
<polygon fill="#5b00c0" stroke="#5b00c0" points="44.7936,-40.3436 42.5,-30 37.8426,-39.5163 44.7936,-40.3436"/>
<text text-anchor="middle" x="46" y="-51.8" font-family="Times,serif" font-size="14.00" fill="#5b00c0">rw</text>
</g>
<!-- T1395&#45;&gt;T1393 -->
<g id="edge2" class="edge"><title>T1395:f1&#45;&gt;T1393:f2</title>
<path fill="none" stroke="#5b00c0" d="M105.5,-30C105.5,-57.5041 143.016,-51.8568 152.395,-71.0731"/>
<polygon fill="#5b00c0" stroke="#5b00c0" points="149.001,-71.9438 154.5,-81 155.849,-70.4914 149.001,-71.9438"/>
<text text-anchor="middle" x="152" y="-51.8" font-family="Times,serif" font-size="14.00" fill="#5b00c0">rw</text>
</g>
</g>
</svg>
