<?xml version="1.0" encoding="UTF-8" standalone="no"?>
<!DOCTYPE svg PUBLIC "-//W3C//DTD SVG 1.1//EN"
 "http://www.w3.org/Graphics/SVG/1.1/DTD/svg11.dtd">
<!-- Generated by graphviz version 2.38.0 (20140413.2041)
 -->
<!-- Title: a_graph Pages: 1 -->
<svg width="333pt" height="119pt"
 viewBox="0.00 0.00 333.00 119.00" xmlns="http://www.w3.org/2000/svg" xmlns:xlink="http://www.w3.org/1999/xlink">
<g id="graph0" class="graph" transform="scale(1 1) rotate(0) translate(4 115)">
<title>a_graph</title>
<polygon fill="white" stroke="none" points="-4,4 -4,-115 329,-115 329,4 -4,4"/>
<!-- T8410 -->
<g id="node1" class="node"><title>T8410</title>
<polygon fill="none" stroke="#0058ad" points="22,-81.5 22,-110.5 229,-110.5 229,-81.5 22,-81.5"/>
<text text-anchor="middle" x="50.5" y="-92.3" font-family="Times,serif" font-size="14.00" fill="#0058ad">a 565 7</text>
<polyline fill="none" stroke="#0058ad" points="79,-81.5 79,-110.5 "/>
<text text-anchor="middle" x="116.5" y="-92.3" font-family="Times,serif" font-size="14.00" fill="#0058ad">r 585 [2 3]</text>
<polyline fill="none" stroke="#0058ad" points="154,-81.5 154,-110.5 "/>
<text text-anchor="middle" x="191.5" y="-92.3" font-family="Times,serif" font-size="14.00" fill="#0058ad">r 585 [2 3]</text>
</g>
<!-- T8401 -->
<g id="node2" class="node"><title>T8401</title>
<polygon fill="none" stroke="#0058ad" points="-2.84217e-14,-0.5 -2.84217e-14,-29.5 325,-29.5 325,-0.5 -2.84217e-14,-0.5"/>
<text text-anchor="middle" x="48" y="-11.3" font-family="Times,serif" font-size="14.00" fill="#0058ad">r 565 [2 1 3 4]</text>
<polyline fill="none" stroke="#0058ad" points="96,-0.5 96,-29.5 "/>
<text text-anchor="middle" x="124.5" y="-11.3" font-family="Times,serif" font-size="14.00" fill="#0058ad">a 585 4</text>
<polyline fill="none" stroke="#0058ad" points="153,-0.5 153,-29.5 "/>
<text text-anchor="middle" x="196" y="-11.3" font-family="Times,serif" font-size="14.00" fill="#0058ad">r 582 [1 3 5]</text>
<polyline fill="none" stroke="#0058ad" points="239,-0.5 239,-29.5 "/>
<text text-anchor="middle" x="282" y="-11.3" font-family="Times,serif" font-size="14.00" fill="#0058ad">r 582 [1 3 5]</text>
</g>
<!-- T8410&#45;&gt;T8401 -->
<g id="edge1" class="edge"><title>T8410:f1&#45;&gt;T8401:f1</title>
<path fill="none" stroke="#5b00c0" d="M116.5,-81C116.5,-61.8204 122.09,-55.1013 123.925,-40.0103"/>
<polygon fill="#5b00c0" stroke="#5b00c0" points="127.42,-40.1844 124.5,-30 120.432,-39.7827 127.42,-40.1844"/>
<text text-anchor="middle" x="130" y="-51.8" font-family="Times,serif" font-size="14.00" fill="#5b00c0">rw</text>
</g>
<!-- T8401&#45;&gt;T8410 -->
<g id="edge2" class="edge"><title>T8401:f0&#45;&gt;T8410:f0</title>
<path fill="none" stroke="#5b00c0" d="M47.5,-30C47.5,-48.8033 49.5574,-55.8675 50.2646,-70.6355"/>
<polygon fill="#5b00c0" stroke="#5b00c0" points="46.7737,-71.0821 50.5,-81 53.7719,-70.9231 46.7737,-71.0821"/>
<text text-anchor="middle" x="58" y="-51.8" font-family="Times,serif" font-size="14.00" fill="#5b00c0">rw</text>
</g>
</g>
</svg>
