<?xml version="1.0" encoding="UTF-8" standalone="no"?>
<!DOCTYPE svg PUBLIC "-//W3C//DTD SVG 1.1//EN"
 "http://www.w3.org/Graphics/SVG/1.1/DTD/svg11.dtd">
<!-- Generated by graphviz version 2.38.0 (20140413.2041)
 -->
<!-- Title: a_graph Pages: 1 -->
<svg width="340pt" height="200pt"
 viewBox="0.00 0.00 339.50 200.00" xmlns="http://www.w3.org/2000/svg" xmlns:xlink="http://www.w3.org/1999/xlink">
<g id="graph0" class="graph" transform="scale(1 1) rotate(0) translate(4 196)">
<title>a_graph</title>
<polygon fill="white" stroke="none" points="-4,4 -4,-196 335.5,-196 335.5,4 -4,4"/>
<!-- T4903 -->
<g id="node1" class="node"><title>T4903</title>
<polygon fill="none" stroke="#0058ad" points="0,-162.5 0,-191.5 228,-191.5 228,-162.5 0,-162.5"/>
<text text-anchor="middle" x="28.5" y="-173.3" font-family="Times,serif" font-size="14.00" fill="#0058ad">a 322 2</text>
<polyline fill="none" stroke="#0058ad" points="57,-162.5 57,-191.5 "/>
<text text-anchor="middle" x="85.5" y="-173.3" font-family="Times,serif" font-size="14.00" fill="#0058ad">a 344 1</text>
<polyline fill="none" stroke="#0058ad" points="114,-162.5 114,-191.5 "/>
<text text-anchor="middle" x="142.5" y="-173.3" font-family="Times,serif" font-size="14.00" fill="#0058ad">a 338 3</text>
<polyline fill="none" stroke="#0058ad" points="171,-162.5 171,-191.5 "/>
<text text-anchor="middle" x="199.5" y="-173.3" font-family="Times,serif" font-size="14.00" fill="#0058ad">a 344 2</text>
</g>
<!-- T4895 -->
<g id="node2" class="node"><title>T4895</title>
<polygon fill="none" stroke="#0058ad" points="102.5,-81.5 102.5,-110.5 331.5,-110.5 331.5,-81.5 102.5,-81.5"/>
<text text-anchor="middle" x="145.5" y="-92.3" font-family="Times,serif" font-size="14.00" fill="#0058ad">r 346 [1 2 4]</text>
<polyline fill="none" stroke="#0058ad" points="188.5,-81.5 188.5,-110.5 "/>
<text text-anchor="middle" x="217" y="-92.3" font-family="Times,serif" font-size="14.00" fill="#0058ad">a 344 4</text>
<polyline fill="none" stroke="#0058ad" points="245.5,-81.5 245.5,-110.5 "/>
<text text-anchor="middle" x="288.5" y="-92.3" font-family="Times,serif" font-size="14.00" fill="#0058ad">r 344 [1 2 4]</text>
</g>
<!-- T4903&#45;&gt;T4895 -->
<g id="edge1" class="edge"><title>T4903:f3&#45;&gt;T4895:f1</title>
<path fill="none" stroke="#c02700" d="M200,-162C200,-142.027 211.879,-136.504 215.777,-121.273"/>
<polygon fill="#c02700" stroke="#c02700" points="219.294,-121.344 217,-111 212.343,-120.516 219.294,-121.344"/>
<text text-anchor="middle" x="222" y="-132.8" font-family="Times,serif" font-size="14.00" fill="#c02700">ww</text>
</g>
<!-- T4883 -->
<g id="node3" class="node"><title>T4883</title>
<polygon fill="none" stroke="#0058ad" points="45,-0.5 45,-29.5 275,-29.5 275,-0.5 45,-0.5"/>
<text text-anchor="middle" x="74" y="-11.3" font-family="Times,serif" font-size="14.00" fill="#0058ad">r 344 []</text>
<polyline fill="none" stroke="#0058ad" points="103,-0.5 103,-29.5 "/>
<text text-anchor="middle" x="131.5" y="-11.3" font-family="Times,serif" font-size="14.00" fill="#0058ad">a 346 5</text>
<polyline fill="none" stroke="#0058ad" points="160,-0.5 160,-29.5 "/>
<text text-anchor="middle" x="189" y="-11.3" font-family="Times,serif" font-size="14.00" fill="#0058ad">r 344 []</text>
<polyline fill="none" stroke="#0058ad" points="218,-0.5 218,-29.5 "/>
<text text-anchor="middle" x="246.5" y="-11.3" font-family="Times,serif" font-size="14.00" fill="#0058ad">a 346 6</text>
</g>
<!-- T4895&#45;&gt;T4883 -->
<g id="edge2" class="edge"><title>T4895:f0&#45;&gt;T4883:f1</title>
<path fill="none" stroke="#5b00c0" d="M145,-81C145,-61.3511 135.217,-55.3396 132.007,-40.1654"/>
<polygon fill="#5b00c0" stroke="#5b00c0" points="135.469,-39.6063 131,-30 128.503,-40.2963 135.469,-39.6063"/>
<text text-anchor="middle" x="149.5" y="-51.8" font-family="Times,serif" font-size="14.00" fill="#5b00c0">rw</text>
</g>
<!-- T4883&#45;&gt;T4903 -->
<g id="edge3" class="edge"><title>T4883:f0&#45;&gt;T4903:f1</title>
<path fill="none" stroke="#5b00c0" d="M74,-30C74,-66.0439 74.6573,-75.1115 78,-111 79.7737,-130.043 83.4735,-136.899 84.6398,-152.001"/>
<polygon fill="#5b00c0" stroke="#5b00c0" points="81.1422,-152.133 85,-162 88.1376,-151.88 81.1422,-152.133"/>
<text text-anchor="middle" x="85.5" y="-92.3" font-family="Times,serif" font-size="14.00" fill="#5b00c0">rw</text>
</g>
</g>
</svg>
