<?xml version="1.0" encoding="UTF-8" standalone="no"?>
<!DOCTYPE svg PUBLIC "-//W3C//DTD SVG 1.1//EN"
 "http://www.w3.org/Graphics/SVG/1.1/DTD/svg11.dtd">
<!-- Generated by graphviz version 2.38.0 (20140413.2041)
 -->
<!-- Title: a_graph Pages: 1 -->
<svg width="226pt" height="119pt"
 viewBox="0.00 0.00 226.00 119.00" xmlns="http://www.w3.org/2000/svg" xmlns:xlink="http://www.w3.org/1999/xlink">
<g id="graph0" class="graph" transform="scale(1 1) rotate(0) translate(4 115)">
<title>a_graph</title>
<polygon fill="white" stroke="none" points="-4,4 -4,-115 222,-115 222,4 -4,4"/>
<!-- T1325 -->
<g id="node1" class="node"><title>T1325</title>
<polygon fill="none" stroke="#0058ad" points="0,-81.5 0,-110.5 218,-110.5 218,-81.5 0,-81.5"/>
<text text-anchor="middle" x="25" y="-92.3" font-family="Times,serif" font-size="14.00" fill="#0058ad">a 94 2</text>
<polyline fill="none" stroke="#0058ad" points="50,-81.5 50,-110.5 "/>
<text text-anchor="middle" x="84" y="-92.3" font-family="Times,serif" font-size="14.00" fill="#0058ad">r 93 [3 4]</text>
<polyline fill="none" stroke="#0058ad" points="118,-81.5 118,-110.5 "/>
<text text-anchor="middle" x="143" y="-92.3" font-family="Times,serif" font-size="14.00" fill="#0058ad">a 94 3</text>
<polyline fill="none" stroke="#0058ad" points="168,-81.5 168,-110.5 "/>
<text text-anchor="middle" x="193" y="-92.3" font-family="Times,serif" font-size="14.00" fill="#0058ad">a 88 5</text>
</g>
<!-- T1315 -->
<g id="node2" class="node"><title>T1315</title>
<polygon fill="none" stroke="#0058ad" points="0,-0.5 0,-29.5 168,-29.5 168,-0.5 0,-0.5"/>
<text text-anchor="middle" x="25" y="-11.3" font-family="Times,serif" font-size="14.00" fill="#0058ad">a 93 7</text>
<polyline fill="none" stroke="#0058ad" points="50,-0.5 50,-29.5 "/>
<text text-anchor="middle" x="84" y="-11.3" font-family="Times,serif" font-size="14.00" fill="#0058ad">r 94 [1 4]</text>
<polyline fill="none" stroke="#0058ad" points="118,-0.5 118,-29.5 "/>
<text text-anchor="middle" x="143" y="-11.3" font-family="Times,serif" font-size="14.00" fill="#0058ad">a 93 8</text>
</g>
<!-- T1325&#45;&gt;T1315 -->
<g id="edge1" class="edge"><title>T1325:f1&#45;&gt;T1315:f0</title>
<path fill="none" stroke="#5b00c0" d="M84,-81C84,-59.9416 66.1436,-61.5218 50,-48 43.276,-42.368 34.9071,-42.1838 29.7604,-39.1791"/>
<polygon fill="#5b00c0" stroke="#5b00c0" points="32.7109,-37.2659 25,-30 26.4968,-40.4886 32.7109,-37.2659"/>
<text text-anchor="middle" x="82.5" y="-51.8" font-family="Times,serif" font-size="14.00" fill="#5b00c0">rw</text>
</g>
<!-- T1315&#45;&gt;T1325 -->
<g id="edge2" class="edge"><title>T1315:f1&#45;&gt;T1325:f0</title>
<path fill="none" stroke="#5b00c0" d="M84,-30C84,-54.877 47.2463,-29.1606 31,-48 23.7746,-56.3787 23.9693,-62.2866 24.55,-70.8704"/>
<polygon fill="#5b00c0" stroke="#5b00c0" points="21.0596,-71.1652 25,-81 28.0527,-70.8545 21.0596,-71.1652"/>
<text text-anchor="middle" x="38.5" y="-51.8" font-family="Times,serif" font-size="14.00" fill="#5b00c0">rw</text>
</g>
</g>
</svg>
