<?xml version="1.0" encoding="UTF-8" standalone="no"?>
<!DOCTYPE svg PUBLIC "-//W3C//DTD SVG 1.1//EN"
 "http://www.w3.org/Graphics/SVG/1.1/DTD/svg11.dtd">
<!-- Generated by graphviz version 2.38.0 (20140413.2041)
 -->
<!-- Title: a_graph Pages: 1 -->
<svg width="403pt" height="200pt"
 viewBox="0.00 0.00 402.50 200.00" xmlns="http://www.w3.org/2000/svg" xmlns:xlink="http://www.w3.org/1999/xlink">
<g id="graph0" class="graph" transform="scale(1 1) rotate(0) translate(4 196)">
<title>a_graph</title>
<polygon fill="white" stroke="none" points="-4,4 -4,-196 398.5,-196 398.5,4 -4,4"/>
<!-- T2561 -->
<g id="node1" class="node"><title>T2561</title>
<polygon fill="none" stroke="#0058ad" points="186,-162.5 186,-191.5 393,-191.5 393,-162.5 186,-162.5"/>
<text text-anchor="middle" x="223.5" y="-173.3" font-family="Times,serif" font-size="14.00" fill="#0058ad">r 177 [1 2]</text>
<polyline fill="none" stroke="#0058ad" points="261,-162.5 261,-191.5 "/>
<text text-anchor="middle" x="289.5" y="-173.3" font-family="Times,serif" font-size="14.00" fill="#0058ad">a 178 1</text>
<polyline fill="none" stroke="#0058ad" points="318,-162.5 318,-191.5 "/>
<text text-anchor="middle" x="355.5" y="-173.3" font-family="Times,serif" font-size="14.00" fill="#0058ad">r 178 [2 1]</text>
</g>
<!-- T2555 -->
<g id="node2" class="node"><title>T2555</title>
<polygon fill="none" stroke="#0058ad" points="0,-81.5 0,-110.5 293,-110.5 293,-81.5 0,-81.5"/>
<text text-anchor="middle" x="37.5" y="-92.3" font-family="Times,serif" font-size="14.00" fill="#0058ad">r 179 [1 2]</text>
<polyline fill="none" stroke="#0058ad" points="75,-81.5 75,-110.5 "/>
<text text-anchor="middle" x="103.5" y="-92.3" font-family="Times,serif" font-size="14.00" fill="#0058ad">a 177 5</text>
<polyline fill="none" stroke="#0058ad" points="132,-81.5 132,-110.5 "/>
<text text-anchor="middle" x="175" y="-92.3" font-family="Times,serif" font-size="14.00" fill="#0058ad">r 177 [1 2 5]</text>
<polyline fill="none" stroke="#0058ad" points="218,-81.5 218,-110.5 "/>
<text text-anchor="middle" x="255.5" y="-92.3" font-family="Times,serif" font-size="14.00" fill="#0058ad">r 179 [1 2]</text>
</g>
<!-- T2561&#45;&gt;T2555 -->
<g id="edge1" class="edge"><title>T2561:f0&#45;&gt;T2555:f1</title>
<path fill="none" stroke="#5b00c0" d="M184.5,-177C141.69,-177 108.973,-160.375 104.122,-121.395"/>
<polygon fill="#5b00c0" stroke="#5b00c0" points="107.591,-120.773 103.5,-111 100.604,-121.191 107.591,-120.773"/>
<text text-anchor="middle" x="119" y="-132.8" font-family="Times,serif" font-size="14.00" fill="#5b00c0">rw</text>
</g>
<!-- T2567 -->
<g id="node3" class="node"><title>T2567</title>
<polygon fill="none" stroke="#0058ad" points="92.5,-0.5 92.5,-29.5 394.5,-29.5 394.5,-0.5 92.5,-0.5"/>
<text text-anchor="middle" x="135.5" y="-11.3" font-family="Times,serif" font-size="14.00" fill="#0058ad">r 177 [1 2 5]</text>
<polyline fill="none" stroke="#0058ad" points="178.5,-0.5 178.5,-29.5 "/>
<text text-anchor="middle" x="221.5" y="-11.3" font-family="Times,serif" font-size="14.00" fill="#0058ad">r 177 [1 2 5]</text>
<polyline fill="none" stroke="#0058ad" points="264.5,-0.5 264.5,-29.5 "/>
<text text-anchor="middle" x="297" y="-11.3" font-family="Times,serif" font-size="14.00" fill="#0058ad">r 178 [2]</text>
<polyline fill="none" stroke="#0058ad" points="329.5,-0.5 329.5,-29.5 "/>
<text text-anchor="middle" x="362" y="-11.3" font-family="Times,serif" font-size="14.00" fill="#0058ad">r 178 [2]</text>
</g>
<!-- T2555&#45;&gt;T2567 -->
<g id="edge2" class="edge"><title>T2555:f1&#45;&gt;T2567:f0</title>
<path fill="none" stroke="#c000a5" d="M103.5,-81C103.5,-58.213 126.705,-56.6566 133.594,-40.1724"/>
<polygon fill="#c000a5" stroke="#c000a5" points="137.098,-40.4735 135.5,-30 130.218,-39.1844 137.098,-40.4735"/>
<text text-anchor="middle" x="136" y="-51.8" font-family="Times,serif" font-size="14.00" fill="#c000a5">wr</text>
</g>
<!-- T2567&#45;&gt;T2561 -->
<g id="edge3" class="edge"><title>T2567:f2&#45;&gt;T2561:f1</title>
<path fill="none" stroke="#5b00c0" d="M297.5,-30C297.5,-66.0439 305.655,-75.1965 301.5,-111 299.256,-130.336 292.378,-136.711 290.182,-151.885"/>
<polygon fill="#5b00c0" stroke="#5b00c0" points="286.681,-151.787 289.5,-162 293.665,-152.258 286.681,-151.787"/>
<text text-anchor="middle" x="311" y="-92.3" font-family="Times,serif" font-size="14.00" fill="#5b00c0">rw</text>
</g>
</g>
</svg>
