<?xml version="1.0" encoding="UTF-8" standalone="no"?>
<!DOCTYPE svg PUBLIC "-//W3C//DTD SVG 1.1//EN"
 "http://www.w3.org/Graphics/SVG/1.1/DTD/svg11.dtd">
<!-- Generated by graphviz version 2.38.0 (20140413.2041)
 -->
<!-- Title: a_graph Pages: 1 -->
<svg width="459pt" height="200pt"
 viewBox="0.00 0.00 459.00 200.00" xmlns="http://www.w3.org/2000/svg" xmlns:xlink="http://www.w3.org/1999/xlink">
<g id="graph0" class="graph" transform="scale(1 1) rotate(0) translate(4 196)">
<title>a_graph</title>
<polygon fill="white" stroke="none" points="-4,4 -4,-196 455,-196 455,4 -4,4"/>
<!-- T6562 -->
<g id="node1" class="node"><title>T6562</title>
<polygon fill="none" stroke="#0058ad" points="0,-162.5 0,-191.5 377,-191.5 377,-162.5 0,-162.5"/>
<text text-anchor="middle" x="48" y="-173.3" font-family="Times,serif" font-size="14.00" fill="#0058ad">r 437 [2 6 7 1]</text>
<polyline fill="none" stroke="#0058ad" points="96,-162.5 96,-191.5 "/>
<text text-anchor="middle" x="124.5" y="-173.3" font-family="Times,serif" font-size="14.00" fill="#0058ad">a 437 5</text>
<polyline fill="none" stroke="#0058ad" points="153,-162.5 153,-191.5 "/>
<text text-anchor="middle" x="206.5" y="-173.3" font-family="Times,serif" font-size="14.00" fill="#0058ad">r 437 [2 6 7 1 5]</text>
<polyline fill="none" stroke="#0058ad" points="260,-162.5 260,-191.5 "/>
<text text-anchor="middle" x="318.5" y="-173.3" font-family="Times,serif" font-size="14.00" fill="#0058ad">r 435 [1 4 6 7 5 3]</text>
</g>
<!-- T6343 -->
<g id="node2" class="node"><title>T6343</title>
<polygon fill="none" stroke="#0058ad" points="144,-81.5 144,-110.5 451,-110.5 451,-81.5 144,-81.5"/>
<text text-anchor="middle" x="172.5" y="-92.3" font-family="Times,serif" font-size="14.00" fill="#0058ad">a 434 2</text>
<polyline fill="none" stroke="#0058ad" points="201,-81.5 201,-110.5 "/>
<text text-anchor="middle" x="265" y="-92.3" font-family="Times,serif" font-size="14.00" fill="#0058ad">r 419 [1 3 4 5 6 2 7]</text>
<polyline fill="none" stroke="#0058ad" points="329,-81.5 329,-110.5 "/>
<text text-anchor="middle" x="357.5" y="-92.3" font-family="Times,serif" font-size="14.00" fill="#0058ad">a 435 2</text>
<polyline fill="none" stroke="#0058ad" points="386,-81.5 386,-110.5 "/>
<text text-anchor="middle" x="418.5" y="-92.3" font-family="Times,serif" font-size="14.00" fill="#0058ad">r 433 [1]</text>
</g>
<!-- T6562&#45;&gt;T6343 -->
<g id="edge1" class="edge"><title>T6562:f3&#45;&gt;T6343:f2</title>
<path fill="none" stroke="#5b00c0" d="M318.5,-162C318.5,-137.478 347.302,-138.512 355.403,-121.178"/>
<polygon fill="#5b00c0" stroke="#5b00c0" points="358.91,-121.501 357.5,-111 352.054,-120.088 358.91,-121.501"/>
<text text-anchor="middle" x="356" y="-132.8" font-family="Times,serif" font-size="14.00" fill="#5b00c0">rw</text>
</g>
<!-- T6369 -->
<g id="node3" class="node"><title>T6369</title>
<polygon fill="none" stroke="#0058ad" points="60.5,-0.5 60.5,-29.5 398.5,-29.5 398.5,-0.5 60.5,-0.5"/>
<text text-anchor="middle" x="124.5" y="-11.3" font-family="Times,serif" font-size="14.00" fill="#0058ad">r 435 [1 4 6 7 5 3 2]</text>
<polyline fill="none" stroke="#0058ad" points="188.5,-0.5 188.5,-29.5 "/>
<text text-anchor="middle" x="236.5" y="-11.3" font-family="Times,serif" font-size="14.00" fill="#0058ad">r 437 [2 6 7 1]</text>
<polyline fill="none" stroke="#0058ad" points="284.5,-0.5 284.5,-29.5 "/>
<text text-anchor="middle" x="313" y="-11.3" font-family="Times,serif" font-size="14.00" fill="#0058ad">a 436 1</text>
<polyline fill="none" stroke="#0058ad" points="341.5,-0.5 341.5,-29.5 "/>
<text text-anchor="middle" x="370" y="-11.3" font-family="Times,serif" font-size="14.00" fill="#0058ad">a 435 8</text>
</g>
<!-- T6343&#45;&gt;T6369 -->
<g id="edge2" class="edge"><title>T6343:f2&#45;&gt;T6369:f0</title>
<path fill="none" stroke="#c000a5" d="M357.5,-81C357.5,21.2804 140.595,-125.016 125.344,-40.2136"/>
<polygon fill="#c000a5" stroke="#c000a5" points="128.811,-39.6779 124.5,-30 121.835,-40.2542 128.811,-39.6779"/>
<text text-anchor="middle" x="360" y="-51.8" font-family="Times,serif" font-size="14.00" fill="#c000a5">wr</text>
</g>
<!-- T6369&#45;&gt;T6562 -->
<g id="edge3" class="edge"><title>T6369:f1&#45;&gt;T6562:f1</title>
<path fill="none" stroke="#5b00c0" d="M236.5,-30C236.5,-54.9889 143.078,-30.2386 125.5,-48 92.2949,-81.5519 120.092,-107.556 124.048,-151.926"/>
<polygon fill="#5b00c0" stroke="#5b00c0" points="120.555,-152.167 124.5,-162 127.548,-151.853 120.555,-152.167"/>
<text text-anchor="middle" x="123" y="-92.3" font-family="Times,serif" font-size="14.00" fill="#5b00c0">rw</text>
</g>
</g>
</svg>
