<?xml version="1.0" encoding="UTF-8" standalone="no"?>
<!DOCTYPE svg PUBLIC "-//W3C//DTD SVG 1.1//EN"
 "http://www.w3.org/Graphics/SVG/1.1/DTD/svg11.dtd">
<!-- Generated by graphviz version 2.38.0 (20140413.2041)
 -->
<!-- Title: a_graph Pages: 1 -->
<svg width="534pt" height="200pt"
 viewBox="0.00 0.00 533.50 200.00" xmlns="http://www.w3.org/2000/svg" xmlns:xlink="http://www.w3.org/1999/xlink">
<g id="graph0" class="graph" transform="scale(1 1) rotate(0) translate(4 196)">
<title>a_graph</title>
<polygon fill="white" stroke="none" points="-4,4 -4,-196 529.5,-196 529.5,4 -4,4"/>
<!-- T9209 -->
<g id="node1" class="node"><title>T9209</title>
<polygon fill="none" stroke="#0058ad" points="99,-162.5 99,-191.5 156,-191.5 156,-162.5 99,-162.5"/>
<text text-anchor="middle" x="127.5" y="-173.3" font-family="Times,serif" font-size="14.00" fill="#0058ad">a 636 8</text>
</g>
<!-- T9217 -->
<g id="node2" class="node"><title>T9217</title>
<polygon fill="none" stroke="#0058ad" points="129.5,-81.5 129.5,-110.5 525.5,-110.5 525.5,-81.5 129.5,-81.5"/>
<text text-anchor="middle" x="188" y="-92.3" font-family="Times,serif" font-size="14.00" fill="#0058ad">r 630 [3 1 2 4 5 6]</text>
<polyline fill="none" stroke="#0058ad" points="246.5,-81.5 246.5,-110.5 "/>
<text text-anchor="middle" x="310.5" y="-92.3" font-family="Times,serif" font-size="14.00" fill="#0058ad">r 636 [1 2 3 4 5 6 8]</text>
<polyline fill="none" stroke="#0058ad" points="374.5,-81.5 374.5,-110.5 "/>
<text text-anchor="middle" x="407" y="-92.3" font-family="Times,serif" font-size="14.00" fill="#0058ad">r 637 [1]</text>
<polyline fill="none" stroke="#0058ad" points="439.5,-81.5 439.5,-110.5 "/>
<text text-anchor="middle" x="482.5" y="-92.3" font-family="Times,serif" font-size="14.00" fill="#0058ad">r 632 [1 2 3]</text>
</g>
<!-- T9209&#45;&gt;T9217 -->
<g id="edge1" class="edge"><title>T9209:f0&#45;&gt;T9217:f1</title>
<path fill="none" stroke="#c000a5" d="M154.584,-162.397C154.891,-162.263 155.196,-162.13 155.5,-162 218.775,-134.886 301.584,-178.638 309.831,-121.126"/>
<polygon fill="#c000a5" stroke="#c000a5" points="313.333,-121.209 310.5,-111 306.348,-120.747 313.333,-121.209"/>
<text text-anchor="middle" x="315" y="-132.8" font-family="Times,serif" font-size="14.00" fill="#c000a5">wr</text>
</g>
<!-- T9211 -->
<g id="node3" class="node"><title>T9211</title>
<polygon fill="none" stroke="#0058ad" points="-1.42109e-14,-0.5 -1.42109e-14,-29.5 239,-29.5 239,-0.5 -1.42109e-14,-0.5"/>
<text text-anchor="middle" x="58.5" y="-11.3" font-family="Times,serif" font-size="14.00" fill="#0058ad">r 636 [1 2 3 4 5 6]</text>
<polyline fill="none" stroke="#0058ad" points="117,-0.5 117,-29.5 "/>
<text text-anchor="middle" x="149.5" y="-11.3" font-family="Times,serif" font-size="14.00" fill="#0058ad">r 637 [1]</text>
<polyline fill="none" stroke="#0058ad" points="182,-0.5 182,-29.5 "/>
<text text-anchor="middle" x="210.5" y="-11.3" font-family="Times,serif" font-size="14.00" fill="#0058ad">a 630 7</text>
</g>
<!-- T9217&#45;&gt;T9211 -->
<g id="edge2" class="edge"><title>T9217:f0&#45;&gt;T9211:f2</title>
<path fill="none" stroke="#5b00c0" d="M187.5,-81C187.5,-60.0201 203.874,-55.838 208.991,-40.1074"/>
<polygon fill="#5b00c0" stroke="#5b00c0" points="212.485,-40.4072 210.5,-30 205.562,-39.3735 212.485,-40.4072"/>
<text text-anchor="middle" x="212" y="-51.8" font-family="Times,serif" font-size="14.00" fill="#5b00c0">rw</text>
</g>
<!-- T9211&#45;&gt;T9209 -->
<g id="edge3" class="edge"><title>T9211:f0&#45;&gt;T9209:f0</title>
<path fill="none" stroke="#5b00c0" d="M58.5,-30C58.5,-77.5714 88.4776,-126.296 108.914,-153.986"/>
<polygon fill="#5b00c0" stroke="#5b00c0" points="106.327,-156.366 115.164,-162.209 111.9,-152.13 106.327,-156.366"/>
<text text-anchor="middle" x="89" y="-92.3" font-family="Times,serif" font-size="14.00" fill="#5b00c0">rw</text>
</g>
</g>
</svg>
