<?xml version="1.0" encoding="UTF-8" standalone="no"?>
<!DOCTYPE svg PUBLIC "-//W3C//DTD SVG 1.1//EN"
 "http://www.w3.org/Graphics/SVG/1.1/DTD/svg11.dtd">
<!-- Generated by graphviz version 2.38.0 (20140413.2041)
 -->
<!-- Title: a_graph Pages: 1 -->
<svg width="684pt" height="524pt"
 viewBox="0.00 0.00 683.77 524.00" xmlns="http://www.w3.org/2000/svg" xmlns:xlink="http://www.w3.org/1999/xlink">
<g id="graph0" class="graph" transform="scale(1 1) rotate(0) translate(4 520)">
<title>a_graph</title>
<polygon fill="white" stroke="none" points="-4,4 -4,-520 679.774,-520 679.774,4 -4,4"/>
<!-- T8251 -->
<g id="node1" class="node"><title>T8251</title>
<polygon fill="none" stroke="#0058ad" points="535.774,-486.5 535.774,-515.5 675.774,-515.5 675.774,-486.5 535.774,-486.5"/>
<text text-anchor="middle" x="568.274" y="-497.3" font-family="Times,serif" font-size="14.00" fill="#0058ad">r 573 [2]</text>
<polyline fill="none" stroke="#0058ad" points="600.774,-486.5 600.774,-515.5 "/>
<text text-anchor="middle" x="638.274" y="-497.3" font-family="Times,serif" font-size="14.00" fill="#0058ad">r 565 [2 1]</text>
</g>
<!-- T8241 -->
<g id="node7" class="node"><title>T8241</title>
<polygon fill="none" stroke="#0058ad" points="329.274,-405.5 329.274,-434.5 576.274,-434.5 576.274,-405.5 329.274,-405.5"/>
<text text-anchor="middle" x="358.274" y="-416.3" font-family="Times,serif" font-size="14.00" fill="#0058ad">r 574 []</text>
<polyline fill="none" stroke="#0058ad" points="387.274,-405.5 387.274,-434.5 "/>
<text text-anchor="middle" x="415.774" y="-416.3" font-family="Times,serif" font-size="14.00" fill="#0058ad">a 573 7</text>
<polyline fill="none" stroke="#0058ad" points="444.274,-405.5 444.274,-434.5 "/>
<text text-anchor="middle" x="481.774" y="-416.3" font-family="Times,serif" font-size="14.00" fill="#0058ad">r 573 [2 7]</text>
<polyline fill="none" stroke="#0058ad" points="519.274,-405.5 519.274,-434.5 "/>
<text text-anchor="middle" x="547.774" y="-416.3" font-family="Times,serif" font-size="14.00" fill="#0058ad">a 573 8</text>
</g>
<!-- T8251&#45;&gt;T8241 -->
<g id="edge1" class="edge"><title>T8251:f0&#45;&gt;T8241:f1</title>
<path fill="none" stroke="#5b00c0" d="M534.774,-501C477.839,-501 422.639,-496.107 416.366,-445.075"/>
<polygon fill="#5b00c0" stroke="#5b00c0" points="419.854,-444.778 415.774,-435 412.867,-445.188 419.854,-444.778"/>
<text text-anchor="middle" x="431.274" y="-456.8" font-family="Times,serif" font-size="14.00" fill="#5b00c0">rw</text>
</g>
<!-- T8227 -->
<g id="node2" class="node"><title>T8227</title>
<polygon fill="none" stroke="#0058ad" points="374.774,-243.5 374.774,-272.5 506.774,-272.5 506.774,-243.5 374.774,-243.5"/>
<text text-anchor="middle" x="403.274" y="-254.3" font-family="Times,serif" font-size="14.00" fill="#0058ad">a 573 2</text>
<polyline fill="none" stroke="#0058ad" points="431.774,-243.5 431.774,-272.5 "/>
<text text-anchor="middle" x="469.274" y="-254.3" font-family="Times,serif" font-size="14.00" fill="#0058ad">r 572 [4 5]</text>
</g>
<!-- T8227&#45;&gt;T8251 -->
<g id="edge4" class="edge"><title>T8227:f0&#45;&gt;T8251:f0</title>
<path fill="none" stroke="#c000a5" d="M402.774,-273C402.774,-278.441 568.236,-367.867 571.774,-372 590.369,-393.717 589.354,-406.779 584.774,-435 581.575,-454.715 571.845,-460.411 568.739,-475.707"/>
<polygon fill="#c000a5" stroke="#c000a5" points="565.222,-475.717 567.774,-486 572.192,-476.37 565.222,-475.717"/>
<text text-anchor="middle" x="590.274" y="-375.8" font-family="Times,serif" font-size="14.00" fill="#c000a5">wr</text>
</g>
<!-- T8253 -->
<g id="node4" class="node"><title>T8253</title>
<polygon fill="none" stroke="#0058ad" points="28.2744,-162.5 28.2744,-191.5 215.274,-191.5 215.274,-162.5 28.2744,-162.5"/>
<text text-anchor="middle" x="56.7744" y="-173.3" font-family="Times,serif" font-size="14.00" fill="#0058ad">a 561 8</text>
<polyline fill="none" stroke="#0058ad" points="85.2744,-162.5 85.2744,-191.5 "/>
<text text-anchor="middle" x="117.774" y="-173.3" font-family="Times,serif" font-size="14.00" fill="#0058ad">r 573 [2]</text>
<polyline fill="none" stroke="#0058ad" points="150.274,-162.5 150.274,-191.5 "/>
<text text-anchor="middle" x="182.774" y="-173.3" font-family="Times,serif" font-size="14.00" fill="#0058ad">r 573 [2]</text>
</g>
<!-- T8227&#45;&gt;T8253 -->
<g id="edge2" class="edge"><title>T8227:f0&#45;&gt;T8253:f1</title>
<path fill="none" stroke="#c000a5" d="M373.774,-258C366,-258 371.116,-247.498 364.774,-243 322.008,-212.662 143.075,-243.506 120.187,-201.715"/>
<polygon fill="#c000a5" stroke="#c000a5" points="123.582,-200.861 117.774,-192 116.788,-202.549 123.582,-200.861"/>
<text text-anchor="middle" x="199.274" y="-213.8" font-family="Times,serif" font-size="14.00" fill="#c000a5">wr</text>
</g>
<!-- T8235 -->
<g id="node6" class="node"><title>T8235</title>
<polygon fill="none" stroke="#0058ad" points="233.774,-162.5 233.774,-191.5 529.774,-191.5 529.774,-162.5 233.774,-162.5"/>
<text text-anchor="middle" x="262.274" y="-173.3" font-family="Times,serif" font-size="14.00" fill="#0058ad">a 572 6</text>
<polyline fill="none" stroke="#0058ad" points="290.774,-162.5 290.774,-191.5 "/>
<text text-anchor="middle" x="344.274" y="-173.3" font-family="Times,serif" font-size="14.00" fill="#0058ad">r 562 [1 3 4 2 7]</text>
<polyline fill="none" stroke="#0058ad" points="397.774,-162.5 397.774,-191.5 "/>
<text text-anchor="middle" x="435.274" y="-173.3" font-family="Times,serif" font-size="14.00" fill="#0058ad">r 561 [2 3]</text>
<polyline fill="none" stroke="#0058ad" points="472.774,-162.5 472.774,-191.5 "/>
<text text-anchor="middle" x="501.274" y="-173.3" font-family="Times,serif" font-size="14.00" fill="#0058ad">a 572 7</text>
</g>
<!-- T8227&#45;&gt;T8235 -->
<g id="edge5" class="edge"><title>T8227:f1&#45;&gt;T8235:f0</title>
<path fill="none" stroke="#5b00c0" d="M469.774,-243C469.774,-221.9 306.23,-216.83 269.177,-199.361"/>
<polygon fill="#5b00c0" stroke="#5b00c0" points="271.333,-196.569 261.774,-192 266.398,-201.533 271.333,-196.569"/>
<text text-anchor="middle" x="422.274" y="-213.8" font-family="Times,serif" font-size="14.00" fill="#5b00c0">rw</text>
</g>
<!-- T8227&#45;&gt;T8241 -->
<g id="edge3" class="edge"><title>T8227:f0&#45;&gt;T8241:f1</title>
<path fill="none" stroke="#c02700" d="M402.774,-273C402.774,-298.244 422.071,-299.409 427.774,-324 435.161,-355.851 419.589,-366.476 416.349,-394.698"/>
<polygon fill="#c02700" stroke="#c02700" points="412.837,-394.821 415.774,-405 419.826,-395.211 412.837,-394.821"/>
<text text-anchor="middle" x="439.774" y="-335.3" font-family="Times,serif" font-size="14.00" fill="#c02700">ww</text>
</g>
<!-- T8257 -->
<g id="node3" class="node"><title>T8257</title>
<polygon fill="none" stroke="#0058ad" points="228.774,-324.5 228.774,-353.5 418.774,-353.5 418.774,-324.5 228.774,-324.5"/>
<text text-anchor="middle" x="257.274" y="-335.3" font-family="Times,serif" font-size="14.00" fill="#0058ad">a 574 3</text>
<polyline fill="none" stroke="#0058ad" points="285.774,-324.5 285.774,-353.5 "/>
<text text-anchor="middle" x="314.774" y="-335.3" font-family="Times,serif" font-size="14.00" fill="#0058ad">r 573 []</text>
<polyline fill="none" stroke="#0058ad" points="343.774,-324.5 343.774,-353.5 "/>
<text text-anchor="middle" x="381.274" y="-335.3" font-family="Times,serif" font-size="14.00" fill="#0058ad">r 561 [2 3]</text>
</g>
<!-- T8257&#45;&gt;T8227 -->
<g id="edge7" class="edge"><title>T8257:f1&#45;&gt;T8227:f0</title>
<path fill="none" stroke="#5b00c0" d="M314.774,-324C314.774,-292.257 345.364,-298.116 364.774,-273 366.409,-270.885 367.064,-268.452 367.537,-266.169"/>
<polygon fill="#5b00c0" stroke="#5b00c0" points="370.487,-268.072 373.774,-258 364.924,-263.824 370.487,-268.072"/>
<text text-anchor="middle" x="349.274" y="-294.8" font-family="Times,serif" font-size="14.00" fill="#5b00c0">rw</text>
</g>
<!-- T8267 -->
<g id="node5" class="node"><title>T8267</title>
<polygon fill="none" stroke="#0058ad" points="33.2744,-243.5 33.2744,-272.5 356.274,-272.5 356.274,-243.5 33.2744,-243.5"/>
<text text-anchor="middle" x="76.2744" y="-254.3" font-family="Times,serif" font-size="14.00" fill="#0058ad">r 573 [2 7 8]</text>
<polyline fill="none" stroke="#0058ad" points="119.274,-243.5 119.274,-272.5 "/>
<text text-anchor="middle" x="162.274" y="-254.3" font-family="Times,serif" font-size="14.00" fill="#0058ad">r 573 [2 7 8]</text>
<polyline fill="none" stroke="#0058ad" points="205.274,-243.5 205.274,-272.5 "/>
<text text-anchor="middle" x="237.774" y="-254.3" font-family="Times,serif" font-size="14.00" fill="#0058ad">r 574 [3]</text>
<polyline fill="none" stroke="#0058ad" points="270.274,-243.5 270.274,-272.5 "/>
<text text-anchor="middle" x="313.274" y="-254.3" font-family="Times,serif" font-size="14.00" fill="#0058ad">r 573 [2 7 8]</text>
</g>
<!-- T8257&#45;&gt;T8267 -->
<g id="edge6" class="edge"><title>T8257:f0&#45;&gt;T8267:f2</title>
<path fill="none" stroke="#c000a5" d="M256.774,-324C256.774,-303.591 243.248,-298.535 239.021,-282.923"/>
<polygon fill="#c000a5" stroke="#c000a5" points="242.494,-282.486 237.774,-273 235.548,-283.358 242.494,-282.486"/>
<text text-anchor="middle" x="260.274" y="-294.8" font-family="Times,serif" font-size="14.00" fill="#c000a5">wr</text>
</g>
<!-- T8253&#45;&gt;T8241 -->
<g id="edge8" class="edge"><title>T8253:f1&#45;&gt;T8241:f1</title>
<path fill="none" stroke="#5b00c0" d="M117.774,-192C117.774,-239.531 48.0829,-202.156 23.7744,-243 -6.9322,-294.595 48.3809,-324.677 100.774,-354 162.236,-388.398 186.251,-375.716 255.774,-387 270.95,-389.463 378.207,-387.774 408.072,-398.604"/>
<polygon fill="#5b00c0" stroke="#5b00c0" points="405.845,-401.304 415.774,-405 410.317,-395.919 405.845,-401.304"/>
<text text-anchor="middle" x="37.2744" y="-294.8" font-family="Times,serif" font-size="14.00" fill="#5b00c0">rw</text>
</g>
<!-- T8285 -->
<g id="node8" class="node"><title>T8285</title>
<polygon fill="none" stroke="#0058ad" points="343.274,-0.5 343.274,-29.5 632.274,-29.5 632.274,-0.5 343.274,-0.5"/>
<text text-anchor="middle" x="371.774" y="-11.3" font-family="Times,serif" font-size="14.00" fill="#0058ad">a 573 4</text>
<polyline fill="none" stroke="#0058ad" points="400.274,-0.5 400.274,-29.5 "/>
<text text-anchor="middle" x="458.774" y="-11.3" font-family="Times,serif" font-size="14.00" fill="#0058ad">r 562 [1 3 4 2 7 6]</text>
<polyline fill="none" stroke="#0058ad" points="517.274,-0.5 517.274,-29.5 "/>
<text text-anchor="middle" x="545.774" y="-11.3" font-family="Times,serif" font-size="14.00" fill="#0058ad">a 572 8</text>
<polyline fill="none" stroke="#0058ad" points="574.274,-0.5 574.274,-29.5 "/>
<text text-anchor="middle" x="603.274" y="-11.3" font-family="Times,serif" font-size="14.00" fill="#0058ad">r 574 []</text>
</g>
<!-- T8267&#45;&gt;T8285 -->
<g id="edge9" class="edge"><title>T8267:f0&#45;&gt;T8285:f0</title>
<path fill="none" stroke="#5b00c0" d="M31.7744,-258C-11.2817,-258 -4.52707,-198.206 18.7744,-162 102.299,-32.2198 180.615,-15.6721 331.716,-15.0209"/>
<polygon fill="#5b00c0" stroke="#5b00c0" points="331.782,-18.5209 341.774,-15 331.767,-11.5209 331.782,-18.5209"/>
<text text-anchor="middle" x="48.2744" y="-132.8" font-family="Times,serif" font-size="14.00" fill="#5b00c0">rw</text>
</g>
<!-- T8235&#45;&gt;T8285 -->
<g id="edge11" class="edge"><title>T8235:f3&#45;&gt;T8285:f2</title>
<path fill="none" stroke="#c02700" d="M501.774,-162C501.774,-103.663 540.931,-92.9543 545.367,-40.0123"/>
<polygon fill="#c02700" stroke="#c02700" points="548.865,-40.1341 545.774,-30 541.871,-39.8494 548.865,-40.1341"/>
<text text-anchor="middle" x="542.774" y="-92.3" font-family="Times,serif" font-size="14.00" fill="#c02700">ww</text>
</g>
<!-- T8224 -->
<g id="node9" class="node"><title>T8224</title>
<polygon fill="none" stroke="#0058ad" points="348.774,-81.5 348.774,-110.5 462.774,-110.5 462.774,-81.5 348.774,-81.5"/>
<text text-anchor="middle" x="377.274" y="-92.3" font-family="Times,serif" font-size="14.00" fill="#0058ad">a 562 6</text>
<polyline fill="none" stroke="#0058ad" points="405.774,-81.5 405.774,-110.5 "/>
<text text-anchor="middle" x="434.274" y="-92.3" font-family="Times,serif" font-size="14.00" fill="#0058ad">a 571 1</text>
</g>
<!-- T8235&#45;&gt;T8224 -->
<g id="edge10" class="edge"><title>T8235:f1&#45;&gt;T8224:f0</title>
<path fill="none" stroke="#5b00c0" d="M343.774,-162C343.774,-139.01 367.705,-137.769 374.809,-121.236"/>
<polygon fill="#5b00c0" stroke="#5b00c0" points="378.326,-121.481 376.774,-111 371.451,-120.161 378.326,-121.481"/>
<text text-anchor="middle" x="377.274" y="-132.8" font-family="Times,serif" font-size="14.00" fill="#5b00c0">rw</text>
</g>
<!-- T8241&#45;&gt;T8257 -->
<g id="edge12" class="edge"><title>T8241:f0&#45;&gt;T8257:f0</title>
<path fill="none" stroke="#5b00c0" d="M327.774,-420C288.225,-420 261.457,-400.689 257.331,-364.194"/>
<polygon fill="#5b00c0" stroke="#5b00c0" points="260.814,-363.794 256.774,-354 253.825,-364.176 260.814,-363.794"/>
<text text-anchor="middle" x="271.274" y="-375.8" font-family="Times,serif" font-size="14.00" fill="#5b00c0">rw</text>
</g>
<!-- T8241&#45;&gt;T8267 -->
<g id="edge13" class="edge"><title>T8241:f3&#45;&gt;T8267:f0</title>
<path fill="none" stroke="#c000a5" d="M547.774,-405C547.774,-327.94 277.052,-380.724 204.774,-354 144.625,-331.761 82.6773,-339.719 76.311,-283.077"/>
<polygon fill="#c000a5" stroke="#c000a5" points="79.8013,-282.8 75.7744,-273 72.8112,-283.172 79.8013,-282.8"/>
<text text-anchor="middle" x="212.274" y="-335.3" font-family="Times,serif" font-size="14.00" fill="#c000a5">wr</text>
</g>
<!-- T8241&#45;&gt;T8285 -->
<g id="edge14" class="edge"><title>T8241:f3&#45;&gt;T8285:f0</title>
<path fill="none" stroke="#c02700" d="M547.774,-405C547.774,-375.771 557.774,-369.229 557.774,-340 557.774,-340 557.774,-340 557.774,-135.5 557.774,-110.491 561.79,-98.3457 543.774,-81 516.583,-54.8196 497.005,-73.5879 460.774,-63 424.077,-52.2759 380.799,-68.5345 373.007,-40.2777"/>
<polygon fill="#c02700" stroke="#c02700" points="376.44,-39.5121 371.774,-30 369.49,-40.3456 376.44,-39.5121"/>
<text text-anchor="middle" x="567.774" y="-213.8" font-family="Times,serif" font-size="14.00" fill="#c02700">ww</text>
</g>
<!-- T8285&#45;&gt;T8257 -->
<g id="edge15" class="edge"><title>T8285:f3&#45;&gt;T8257:f0</title>
<path fill="none" stroke="#5b00c0" d="M603.774,-30C603.774,-58.8889 603.774,-66.1111 603.774,-95 603.774,-259 603.774,-259 603.774,-259 603.774,-369.002 468.975,-286.175 360.774,-306 341.309,-309.567 280.652,-303.231 262.172,-315.253"/>
<polygon fill="#5b00c0" stroke="#5b00c0" points="259.048,-313.652 256.774,-324 265.005,-317.328 259.048,-313.652"/>
<text text-anchor="middle" x="611.274" y="-173.3" font-family="Times,serif" font-size="14.00" fill="#5b00c0">rw</text>
</g>
<!-- T8224&#45;&gt;T8285 -->
<g id="edge16" class="edge"><title>T8224:f0&#45;&gt;T8285:f1</title>
<path fill="none" stroke="#c000a5" d="M376.774,-81C376.774,-42.1053 444.12,-67.0698 456.747,-40.1487"/>
<polygon fill="#c000a5" stroke="#c000a5" points="460.248,-40.4919 458.774,-30 453.384,-39.1208 460.248,-40.4919"/>
<text text-anchor="middle" x="456.274" y="-51.8" font-family="Times,serif" font-size="14.00" fill="#c000a5">wr</text>
</g>
</g>
</svg>
