<?xml version="1.0" encoding="UTF-8" standalone="no"?>
<!DOCTYPE svg PUBLIC "-//W3C//DTD SVG 1.1//EN"
 "http://www.w3.org/Graphics/SVG/1.1/DTD/svg11.dtd">
<!-- Generated by graphviz version 2.38.0 (20140413.2041)
 -->
<!-- Title: a_graph Pages: 1 -->
<svg width="195pt" height="119pt"
 viewBox="0.00 0.00 195.00 119.00" xmlns="http://www.w3.org/2000/svg" xmlns:xlink="http://www.w3.org/1999/xlink">
<g id="graph0" class="graph" transform="scale(1 1) rotate(0) translate(4 115)">
<title>a_graph</title>
<polygon fill="white" stroke="none" points="-4,4 -4,-115 191,-115 191,4 -4,4"/>
<!-- T3283 -->
<g id="node1" class="node"><title>T3283</title>
<polygon fill="none" stroke="#0058ad" points="-1.42109e-14,-81.5 -1.42109e-14,-110.5 187,-110.5 187,-81.5 -1.42109e-14,-81.5"/>
<text text-anchor="middle" x="32.5" y="-92.3" font-family="Times,serif" font-size="14.00" fill="#0058ad">r 231 [1]</text>
<polyline fill="none" stroke="#0058ad" points="65,-81.5 65,-110.5 "/>
<text text-anchor="middle" x="93.5" y="-92.3" font-family="Times,serif" font-size="14.00" fill="#0058ad">a 229 2</text>
<polyline fill="none" stroke="#0058ad" points="122,-81.5 122,-110.5 "/>
<text text-anchor="middle" x="154.5" y="-92.3" font-family="Times,serif" font-size="14.00" fill="#0058ad">r 231 [1]</text>
</g>
<!-- T3286 -->
<g id="node2" class="node"><title>T3286</title>
<polygon fill="none" stroke="#0058ad" points="2.5,-0.5 2.5,-29.5 134.5,-29.5 134.5,-0.5 2.5,-0.5"/>
<text text-anchor="middle" x="31" y="-11.3" font-family="Times,serif" font-size="14.00" fill="#0058ad">a 231 2</text>
<polyline fill="none" stroke="#0058ad" points="59.5,-0.5 59.5,-29.5 "/>
<text text-anchor="middle" x="97" y="-11.3" font-family="Times,serif" font-size="14.00" fill="#0058ad">r 229 [3 5]</text>
</g>
<!-- T3283&#45;&gt;T3286 -->
<g id="edge1" class="edge"><title>T3283:f0&#45;&gt;T3286:f0</title>
<path fill="none" stroke="#5b00c0" d="M32.5,-81C32.5,-62.2147 31.1284,-55.1238 30.6569,-40.3584"/>
<polygon fill="#5b00c0" stroke="#5b00c0" points="34.1512,-39.9458 30.5,-30 27.152,-40.0519 34.1512,-39.9458"/>
<text text-anchor="middle" x="40" y="-51.8" font-family="Times,serif" font-size="14.00" fill="#5b00c0">rw</text>
</g>
<!-- T3286&#45;&gt;T3283 -->
<g id="edge2" class="edge"><title>T3286:f1&#45;&gt;T3283:f1</title>
<path fill="none" stroke="#5b00c0" d="M97.5,-30C97.5,-48.8285 94.7568,-55.8553 93.8139,-70.627"/>
<polygon fill="#5b00c0" stroke="#5b00c0" points="90.3041,-70.8987 93.5,-81 97.3009,-71.1105 90.3041,-70.8987"/>
<text text-anchor="middle" x="104" y="-51.8" font-family="Times,serif" font-size="14.00" fill="#5b00c0">rw</text>
</g>
</g>
</svg>
