<?xml version="1.0" encoding="UTF-8" standalone="no"?>
<!DOCTYPE svg PUBLIC "-//W3C//DTD SVG 1.1//EN"
 "http://www.w3.org/Graphics/SVG/1.1/DTD/svg11.dtd">
<!-- Generated by graphviz version 2.38.0 (20140413.2041)
 -->
<!-- Title: a_graph Pages: 1 -->
<svg width="864pt" height="767pt"
 viewBox="0.00 0.00 864.00 767.00" xmlns="http://www.w3.org/2000/svg" xmlns:xlink="http://www.w3.org/1999/xlink">
<g id="graph0" class="graph" transform="scale(1 1) rotate(0) translate(4 763)">
<title>a_graph</title>
<polygon fill="white" stroke="none" points="-4,4 -4,-763 860,-763 860,4 -4,4"/>
<!-- T6032 -->
<g id="node1" class="node"><title>T6032</title>
<polygon fill="none" stroke="#0058ad" points="379.5,-729.5 379.5,-758.5 788.5,-758.5 788.5,-729.5 379.5,-729.5"/>
<text text-anchor="middle" x="443.5" y="-740.3" font-family="Times,serif" font-size="14.00" fill="#0058ad">r 411 [3 6 1 5 8 2 4]</text>
<polyline fill="none" stroke="#0058ad" points="507.5,-729.5 507.5,-758.5 "/>
<text text-anchor="middle" x="571.5" y="-740.3" font-family="Times,serif" font-size="14.00" fill="#0058ad">r 411 [3 6 1 5 8 2 4]</text>
<polyline fill="none" stroke="#0058ad" points="635.5,-729.5 635.5,-758.5 "/>
<text text-anchor="middle" x="664" y="-740.3" font-family="Times,serif" font-size="14.00" fill="#0058ad">a 411 7</text>
<polyline fill="none" stroke="#0058ad" points="692.5,-729.5 692.5,-758.5 "/>
<text text-anchor="middle" x="740.5" y="-740.3" font-family="Times,serif" font-size="14.00" fill="#0058ad">r 412 [1 2 5 7]</text>
</g>
<!-- T6035 -->
<g id="node10" class="node"><title>T6035</title>
<polygon fill="none" stroke="#0058ad" points="416.5,-648.5 416.5,-677.5 645.5,-677.5 645.5,-648.5 416.5,-648.5"/>
<text text-anchor="middle" x="459.5" y="-659.3" font-family="Times,serif" font-size="14.00" fill="#0058ad">r 416 [1 2 3]</text>
<polyline fill="none" stroke="#0058ad" points="502.5,-648.5 502.5,-677.5 "/>
<text text-anchor="middle" x="545.5" y="-659.3" font-family="Times,serif" font-size="14.00" fill="#0058ad">r 416 [1 2 3]</text>
<polyline fill="none" stroke="#0058ad" points="588.5,-648.5 588.5,-677.5 "/>
<text text-anchor="middle" x="617" y="-659.3" font-family="Times,serif" font-size="14.00" fill="#0058ad">a 412 8</text>
</g>
<!-- T6032&#45;&gt;T6035 -->
<g id="edge1" class="edge"><title>T6032:f3&#45;&gt;T6035:f2</title>
<path fill="none" stroke="#5b00c0" d="M741,-729C741,-681.343 703.563,-665.145 657.052,-663.204"/>
<polygon fill="#5b00c0" stroke="#5b00c0" points="657.069,-659.704 647,-663 656.927,-666.702 657.069,-659.704"/>
<text text-anchor="middle" x="745.5" y="-699.8" font-family="Times,serif" font-size="14.00" fill="#5b00c0">rw</text>
</g>
<!-- T6005 -->
<g id="node2" class="node"><title>T6005</title>
<polygon fill="none" stroke="#0058ad" points="433.5,-162.5 433.5,-191.5 576.5,-191.5 576.5,-162.5 433.5,-162.5"/>
<text text-anchor="middle" x="462" y="-173.3" font-family="Times,serif" font-size="14.00" fill="#0058ad">a 416 2</text>
<polyline fill="none" stroke="#0058ad" points="490.5,-162.5 490.5,-191.5 "/>
<text text-anchor="middle" x="533.5" y="-173.3" font-family="Times,serif" font-size="14.00" fill="#0058ad">r 412 [1 2 5]</text>
</g>
<!-- T6009 -->
<g id="node6" class="node"><title>T6009</title>
<polygon fill="none" stroke="#0058ad" points="0,-0.5 0,-29.5 218,-29.5 218,-0.5 0,-0.5"/>
<text text-anchor="middle" x="37.5" y="-11.3" font-family="Times,serif" font-size="14.00" fill="#0058ad">r 416 [1 2]</text>
<polyline fill="none" stroke="#0058ad" points="75,-0.5 75,-29.5 "/>
<text text-anchor="middle" x="103.5" y="-11.3" font-family="Times,serif" font-size="14.00" fill="#0058ad">a 416 3</text>
<polyline fill="none" stroke="#0058ad" points="132,-0.5 132,-29.5 "/>
<text text-anchor="middle" x="175" y="-11.3" font-family="Times,serif" font-size="14.00" fill="#0058ad">r 416 [1 2 3]</text>
</g>
<!-- T6005&#45;&gt;T6009 -->
<g id="edge3" class="edge"><title>T6005:f0&#45;&gt;T6009:f1</title>
<path fill="none" stroke="#c02700" d="M462,-162C462,-103.413 411.265,-105.4 358,-81 334.296,-70.1417 145.743,-60.8804 109.142,-37.946"/>
<polygon fill="#c02700" stroke="#c02700" points="111.885,-35.7711 103,-30 106.347,-40.0523 111.885,-35.7711"/>
<text text-anchor="middle" x="443" y="-92.3" font-family="Times,serif" font-size="14.00" fill="#c02700">ww</text>
</g>
<!-- T6015 -->
<g id="node7" class="node"><title>T6015</title>
<polygon fill="none" stroke="#0058ad" points="542,-81.5 542,-110.5 856,-110.5 856,-81.5 542,-81.5"/>
<text text-anchor="middle" x="570.5" y="-92.3" font-family="Times,serif" font-size="14.00" fill="#0058ad">a 412 7</text>
<polyline fill="none" stroke="#0058ad" points="599,-81.5 599,-110.5 "/>
<text text-anchor="middle" x="647" y="-92.3" font-family="Times,serif" font-size="14.00" fill="#0058ad">r 412 [1 2 5 7]</text>
<polyline fill="none" stroke="#0058ad" points="695,-81.5 695,-110.5 "/>
<text text-anchor="middle" x="743" y="-92.3" font-family="Times,serif" font-size="14.00" fill="#0058ad">r 412 [1 2 5 7]</text>
<polyline fill="none" stroke="#0058ad" points="791,-81.5 791,-110.5 "/>
<text text-anchor="middle" x="823.5" y="-92.3" font-family="Times,serif" font-size="14.00" fill="#0058ad">r 416 [1]</text>
</g>
<!-- T6005&#45;&gt;T6015 -->
<g id="edge2" class="edge"><title>T6005:f1&#45;&gt;T6015:f0</title>
<path fill="none" stroke="#5b00c0" d="M534,-162C534,-138.157 560.587,-138.12 568.064,-120.972"/>
<polygon fill="#5b00c0" stroke="#5b00c0" points="571.53,-121.484 570,-111 564.659,-120.15 571.53,-121.484"/>
<text text-anchor="middle" x="569.5" y="-132.8" font-family="Times,serif" font-size="14.00" fill="#5b00c0">rw</text>
</g>
<!-- T6007 -->
<g id="node12" class="node"><title>T6007</title>
<polygon fill="none" stroke="#0058ad" points="199,-81.5 199,-110.5 349,-110.5 349,-81.5 199,-81.5"/>
<text text-anchor="middle" x="236.5" y="-92.3" font-family="Times,serif" font-size="14.00" fill="#0058ad">r 416 [1 2]</text>
<polyline fill="none" stroke="#0058ad" points="274,-81.5 274,-110.5 "/>
<text text-anchor="middle" x="311.5" y="-92.3" font-family="Times,serif" font-size="14.00" fill="#0058ad">r 416 [1 2]</text>
</g>
<!-- T6005&#45;&gt;T6007 -->
<g id="edge4" class="edge"><title>T6005:f0&#45;&gt;T6007:f0</title>
<path fill="none" stroke="#c000a5" d="M432,-177C389.452,-177 257.698,-159.823 238.376,-120.807"/>
<polygon fill="#c000a5" stroke="#c000a5" points="241.756,-119.895 236,-111 234.953,-121.543 241.756,-119.895"/>
<text text-anchor="middle" x="272.5" y="-132.8" font-family="Times,serif" font-size="14.00" fill="#c000a5">wr</text>
</g>
<!-- T5991 -->
<g id="node3" class="node"><title>T5991</title>
<polygon fill="none" stroke="#0058ad" points="447.5,-243.5 447.5,-272.5 512.5,-272.5 512.5,-243.5 447.5,-243.5"/>
<text text-anchor="middle" x="480" y="-254.3" font-family="Times,serif" font-size="14.00" fill="#0058ad">r 416 [1]</text>
</g>
<!-- T5991&#45;&gt;T6005 -->
<g id="edge5" class="edge"><title>T5991:f0&#45;&gt;T6005:f0</title>
<path fill="none" stroke="#5b00c0" d="M473.603,-243.37C469.4,-232.667 464.367,-217.44 462.627,-202.36"/>
<polygon fill="#5b00c0" stroke="#5b00c0" points="466.098,-201.77 462,-192 459.111,-202.193 466.098,-201.77"/>
<text text-anchor="middle" x="474.5" y="-213.8" font-family="Times,serif" font-size="14.00" fill="#5b00c0">rw</text>
</g>
<!-- T6001 -->
<g id="node4" class="node"><title>T6001</title>
<polygon fill="none" stroke="#0058ad" points="281.5,-405.5 281.5,-434.5 540.5,-434.5 540.5,-405.5 281.5,-405.5"/>
<text text-anchor="middle" x="310.5" y="-416.3" font-family="Times,serif" font-size="14.00" fill="#0058ad">r 416 []</text>
<polyline fill="none" stroke="#0058ad" points="339.5,-405.5 339.5,-434.5 "/>
<text text-anchor="middle" x="368" y="-416.3" font-family="Times,serif" font-size="14.00" fill="#0058ad">a 414 3</text>
<polyline fill="none" stroke="#0058ad" points="396.5,-405.5 396.5,-434.5 "/>
<text text-anchor="middle" x="425.5" y="-416.3" font-family="Times,serif" font-size="14.00" fill="#0058ad">r 416 []</text>
<polyline fill="none" stroke="#0058ad" points="454.5,-405.5 454.5,-434.5 "/>
<text text-anchor="middle" x="497.5" y="-416.3" font-family="Times,serif" font-size="14.00" fill="#0058ad">r 412 [1 2 5]</text>
</g>
<!-- T6001&#45;&gt;T6015 -->
<g id="edge6" class="edge"><title>T6001:f3&#45;&gt;T6015:f0</title>
<path fill="none" stroke="#5b00c0" d="M542,-420C554.9,-420 584.772,-204.842 586,-192 587.269,-178.727 587.002,-175.296 586,-162 584.886,-147.208 586.079,-142.937 581,-129 579.395,-124.596 576.645,-122.439 574.296,-120.213"/>
<polygon fill="#5b00c0" stroke="#5b00c0" points="577.399,-118.584 570,-111 571.054,-121.542 577.399,-118.584"/>
<text text-anchor="middle" x="585.5" y="-254.3" font-family="Times,serif" font-size="14.00" fill="#5b00c0">rw</text>
</g>
<!-- T6021 -->
<g id="node8" class="node"><title>T6021</title>
<polygon fill="none" stroke="#0058ad" points="102,-243.5 102,-272.5 346,-272.5 346,-243.5 102,-243.5"/>
<text text-anchor="middle" x="134.5" y="-254.3" font-family="Times,serif" font-size="14.00" fill="#0058ad">r 416 [1]</text>
<polyline fill="none" stroke="#0058ad" points="167,-243.5 167,-272.5 "/>
<text text-anchor="middle" x="199.5" y="-254.3" font-family="Times,serif" font-size="14.00" fill="#0058ad">r 416 [1]</text>
<polyline fill="none" stroke="#0058ad" points="232,-243.5 232,-272.5 "/>
<text text-anchor="middle" x="260.5" y="-254.3" font-family="Times,serif" font-size="14.00" fill="#0058ad">a 400 8</text>
<polyline fill="none" stroke="#0058ad" points="289,-243.5 289,-272.5 "/>
<text text-anchor="middle" x="317.5" y="-254.3" font-family="Times,serif" font-size="14.00" fill="#0058ad">a 414 4</text>
</g>
<!-- T6001&#45;&gt;T6021 -->
<g id="edge8" class="edge"><title>T6001:f1&#45;&gt;T6021:f3</title>
<path fill="none" stroke="#c02700" d="M368,-405C368,-388.293 344.567,-400.696 335,-387 307.67,-347.875 316.508,-327.167 317.844,-283.095"/>
<polygon fill="#c02700" stroke="#c02700" points="321.345,-283.053 318,-273 314.346,-282.945 321.345,-283.053"/>
<text text-anchor="middle" x="328" y="-335.3" font-family="Times,serif" font-size="14.00" fill="#c02700">ww</text>
</g>
<!-- T5987 -->
<g id="node9" class="node"><title>T5987</title>
<polygon fill="none" stroke="#0058ad" points="383,-324.5 383,-353.5 505,-353.5 505,-324.5 383,-324.5"/>
<text text-anchor="middle" x="415.5" y="-335.3" font-family="Times,serif" font-size="14.00" fill="#0058ad">r 414 [1]</text>
<polyline fill="none" stroke="#0058ad" points="448,-324.5 448,-353.5 "/>
<text text-anchor="middle" x="476.5" y="-335.3" font-family="Times,serif" font-size="14.00" fill="#0058ad">a 416 1</text>
</g>
<!-- T6001&#45;&gt;T5987 -->
<g id="edge7" class="edge"><title>T6001:f0&#45;&gt;T5987:f1</title>
<path fill="none" stroke="#5b00c0" d="M310,-405C310,-396.999 366.417,-374.551 374,-372 392.582,-365.748 453.134,-373.774 471.603,-362.477"/>
<polygon fill="#5b00c0" stroke="#5b00c0" points="474.582,-364.315 477,-354 468.677,-360.556 474.582,-364.315"/>
<text text-anchor="middle" x="381.5" y="-375.8" font-family="Times,serif" font-size="14.00" fill="#5b00c0">rw</text>
</g>
<!-- T6003 -->
<g id="node5" class="node"><title>T6003</title>
<polygon fill="none" stroke="#0058ad" points="364.5,-243.5 364.5,-272.5 429.5,-272.5 429.5,-243.5 364.5,-243.5"/>
<text text-anchor="middle" x="397" y="-254.3" font-family="Times,serif" font-size="14.00" fill="#0058ad">r 416 [1]</text>
</g>
<!-- T6003&#45;&gt;T6005 -->
<g id="edge9" class="edge"><title>T6003:f0&#45;&gt;T6005:f0</title>
<path fill="none" stroke="#5b00c0" d="M397.028,-243.143C397.824,-222.774 402.149,-187.702 422.085,-178.998"/>
<polygon fill="#5b00c0" stroke="#5b00c0" points="422.889,-182.407 432,-177 421.506,-175.545 422.889,-182.407"/>
<text text-anchor="middle" x="408.5" y="-213.8" font-family="Times,serif" font-size="14.00" fill="#5b00c0">rw</text>
</g>
<!-- T6009&#45;&gt;T6035 -->
<g id="edge10" class="edge"><title>T6009:f1&#45;&gt;T6035:f0</title>
<path fill="none" stroke="#c000a5" d="M103,-30C103,-35.3889 31,-89.6111 31,-95 31,-583 31,-583 31,-583 31,-624.114 333.946,-658.852 404.853,-662.655"/>
<polygon fill="#c000a5" stroke="#c000a5" points="404.887,-666.158 415,-663 405.125,-659.162 404.887,-666.158"/>
<text text-anchor="middle" x="38.5" y="-335.3" font-family="Times,serif" font-size="14.00" fill="#c000a5">wr</text>
</g>
<!-- T6024 -->
<g id="node13" class="node"><title>T6024</title>
<polygon fill="none" stroke="#0058ad" points="356.5,-567.5 356.5,-596.5 663.5,-596.5 663.5,-567.5 356.5,-567.5"/>
<text text-anchor="middle" x="385" y="-578.3" font-family="Times,serif" font-size="14.00" fill="#0058ad">a 416 4</text>
<polyline fill="none" stroke="#0058ad" points="413.5,-567.5 413.5,-596.5 "/>
<text text-anchor="middle" x="442.5" y="-578.3" font-family="Times,serif" font-size="14.00" fill="#0058ad">r 417 []</text>
<polyline fill="none" stroke="#0058ad" points="471.5,-567.5 471.5,-596.5 "/>
<text text-anchor="middle" x="519.5" y="-578.3" font-family="Times,serif" font-size="14.00" fill="#0058ad">r 416 [1 2 3 4]</text>
<polyline fill="none" stroke="#0058ad" points="567.5,-567.5 567.5,-596.5 "/>
<text text-anchor="middle" x="615.5" y="-578.3" font-family="Times,serif" font-size="14.00" fill="#0058ad">r 416 [1 2 3 4]</text>
</g>
<!-- T6009&#45;&gt;T6024 -->
<g id="edge11" class="edge"><title>T6009:f1&#45;&gt;T6024:f0</title>
<path fill="none" stroke="#c02700" d="M103,-30C103,-61.6337 74,-63.3663 74,-95 74,-502 74,-502 74,-502 74,-563.882 270.292,-580.477 344.911,-581.897"/>
<polygon fill="#c02700" stroke="#c02700" points="344.965,-585.398 355,-582 345.036,-578.398 344.965,-585.398"/>
<text text-anchor="middle" x="84" y="-294.8" font-family="Times,serif" font-size="14.00" fill="#c02700">ww</text>
</g>
<!-- T6015&#45;&gt;T6032 -->
<g id="edge14" class="edge"><title>T6015:f0&#45;&gt;T6032:f3</title>
<path fill="none" stroke="#c000a5" d="M570,-111C570,-134.197 760.018,-114.345 778,-129 794.896,-142.77 792,-154.204 792,-176 792,-664 792,-664 792,-664 792,-695.121 817.699,-733.03 800.297,-742.021"/>
<polygon fill="#c000a5" stroke="#c000a5" points="799.16,-738.676 790,-744 800.481,-745.55 799.16,-738.676"/>
<text text-anchor="middle" x="799.5" y="-416.3" font-family="Times,serif" font-size="14.00" fill="#c000a5">wr</text>
</g>
<!-- T6015&#45;&gt;T6005 -->
<g id="edge12" class="edge"><title>T6015:f3&#45;&gt;T6005:f0</title>
<path fill="none" stroke="#5b00c0" d="M824,-111C824,-115.572 530.525,-149.14 472.06,-159.489"/>
<polygon fill="#5b00c0" stroke="#5b00c0" points="470.855,-156.182 462,-162 472.55,-162.974 470.855,-156.182"/>
<text text-anchor="middle" x="703.5" y="-132.8" font-family="Times,serif" font-size="14.00" fill="#5b00c0">rw</text>
</g>
<!-- T6015&#45;&gt;T6035 -->
<g id="edge13" class="edge"><title>T6015:f0&#45;&gt;T6035:f2</title>
<path fill="none" stroke="#c02700" d="M570,-111C570,-126.262 691,-160.738 691,-176 691,-583 691,-583 691,-583 691,-619.933 688.166,-655.907 657.062,-662.073"/>
<polygon fill="#c02700" stroke="#c02700" points="656.637,-658.597 647,-663 657.279,-665.568 656.637,-658.597"/>
<text text-anchor="middle" x="701" y="-375.8" font-family="Times,serif" font-size="14.00" fill="#c02700">ww</text>
</g>
<!-- T6021&#45;&gt;T6005 -->
<g id="edge15" class="edge"><title>T6021:f0&#45;&gt;T6005:f0</title>
<path fill="none" stroke="#5b00c0" d="M134,-243C134,-211.405 363.215,-181.395 421.976,-177.44"/>
<polygon fill="#5b00c0" stroke="#5b00c0" points="422.163,-180.935 432,-177 421.856,-173.942 422.163,-180.935"/>
<text text-anchor="middle" x="213.5" y="-213.8" font-family="Times,serif" font-size="14.00" fill="#5b00c0">rw</text>
</g>
<!-- T5987&#45;&gt;T6005 -->
<g id="edge22" class="edge"><title>T5987:f1&#45;&gt;T6005:f0</title>
<path fill="none" stroke="#c02700" d="M506,-339C549.255,-339 539.417,-282.594 522,-243 513.26,-223.132 502.702,-223.862 486,-210 479.427,-204.545 471.426,-204.164 466.524,-201.089"/>
<polygon fill="#c02700" stroke="#c02700" points="469.589,-199.393 462,-192 463.323,-202.512 469.589,-199.393"/>
<text text-anchor="middle" x="542" y="-254.3" font-family="Times,serif" font-size="14.00" fill="#c02700">ww</text>
</g>
<!-- T5987&#45;&gt;T5991 -->
<g id="edge20" class="edge"><title>T5987:f1&#45;&gt;T5991:f0</title>
<path fill="none" stroke="#c000a5" d="M477,-324C477,-310.338 477.649,-295.102 478.344,-282.713"/>
<polygon fill="#c000a5" stroke="#c000a5" points="481.841,-282.864 478.951,-272.671 474.854,-282.442 481.841,-282.864"/>
<text text-anchor="middle" x="484.5" y="-294.8" font-family="Times,serif" font-size="14.00" fill="#c000a5">wr</text>
</g>
<!-- T5987&#45;&gt;T6001 -->
<g id="edge19" class="edge"><title>T5987:f0&#45;&gt;T6001:f1</title>
<path fill="none" stroke="#5b00c0" d="M415,-354C415,-372.672 401.927,-373.527 389,-387 383.814,-392.405 377.15,-393.342 372.736,-396.031"/>
<polygon fill="#5b00c0" stroke="#5b00c0" points="369.574,-394.523 368,-405 375.764,-397.791 369.574,-394.523"/>
<text text-anchor="middle" x="413.5" y="-375.8" font-family="Times,serif" font-size="14.00" fill="#5b00c0">rw</text>
</g>
<!-- T5987&#45;&gt;T6003 -->
<g id="edge21" class="edge"><title>T5987:f1&#45;&gt;T6003:f0</title>
<path fill="none" stroke="#c000a5" d="M477,-324C477,-322.228 446.743,-297.674 423.444,-279.029"/>
<polygon fill="#c000a5" stroke="#c000a5" points="425.553,-276.233 415.555,-272.727 421.184,-281.703 425.553,-276.233"/>
<text text-anchor="middle" x="462.5" y="-294.8" font-family="Times,serif" font-size="14.00" fill="#c000a5">wr</text>
</g>
<!-- T5987&#45;&gt;T6015 -->
<g id="edge16" class="edge"><title>T5987:f1&#45;&gt;T6015:f3</title>
<path fill="none" stroke="#c000a5" d="M506,-339C607.929,-339 628.896,-292.807 705,-225 745.02,-189.343 735.226,-161.303 778,-129 791.687,-118.664 812.064,-126.891 820.324,-120.517"/>
<polygon fill="#c000a5" stroke="#c000a5" points="823.662,-121.589 824,-111 817.132,-119.067 823.662,-121.589"/>
<text text-anchor="middle" x="726.5" y="-213.8" font-family="Times,serif" font-size="14.00" fill="#c000a5">wr</text>
</g>
<!-- T5987&#45;&gt;T6021 -->
<g id="edge17" class="edge"><title>T5987:f1&#45;&gt;T6021:f0</title>
<path fill="none" stroke="#c000a5" d="M477,-324C477,-315.793 341.105,-292.289 333,-291 313.815,-287.948 175.844,-293.454 141.651,-280.005"/>
<polygon fill="#c000a5" stroke="#c000a5" points="143.739,-277.171 134,-273 139.013,-282.334 143.739,-277.171"/>
<text text-anchor="middle" x="419.5" y="-294.8" font-family="Times,serif" font-size="14.00" fill="#c000a5">wr</text>
</g>
<!-- T6013 -->
<g id="node11" class="node"><title>T6013</title>
<polygon fill="none" stroke="#0058ad" points="398,-486.5 398,-515.5 642,-515.5 642,-486.5 398,-486.5"/>
<text text-anchor="middle" x="430.5" y="-497.3" font-family="Times,serif" font-size="14.00" fill="#0058ad">r 414 [1]</text>
<polyline fill="none" stroke="#0058ad" points="463,-486.5 463,-515.5 "/>
<text text-anchor="middle" x="491.5" y="-497.3" font-family="Times,serif" font-size="14.00" fill="#0058ad">a 417 1</text>
<polyline fill="none" stroke="#0058ad" points="520,-486.5 520,-515.5 "/>
<text text-anchor="middle" x="552.5" y="-497.3" font-family="Times,serif" font-size="14.00" fill="#0058ad">r 416 [1]</text>
<polyline fill="none" stroke="#0058ad" points="585,-486.5 585,-515.5 "/>
<text text-anchor="middle" x="613.5" y="-497.3" font-family="Times,serif" font-size="14.00" fill="#0058ad">a 417 2</text>
</g>
<!-- T5987&#45;&gt;T6013 -->
<g id="edge18" class="edge"><title>T5987:f1&#45;&gt;T6013:f2</title>
<path fill="none" stroke="#c000a5" d="M506,-339C571.242,-339 554.894,-409.938 553.141,-475.892"/>
<polygon fill="#c000a5" stroke="#c000a5" points="549.64,-475.952 553,-486 556.64,-476.05 549.64,-475.952"/>
<text text-anchor="middle" x="563.5" y="-416.3" font-family="Times,serif" font-size="14.00" fill="#c000a5">wr</text>
</g>
<!-- T6035&#45;&gt;T6024 -->
<g id="edge23" class="edge"><title>T6035:f0&#45;&gt;T6024:f0</title>
<path fill="none" stroke="#5b00c0" d="M415,-663C386.177,-663 384.915,-635.971 384.969,-607.206"/>
<polygon fill="#5b00c0" stroke="#5b00c0" points="388.469,-607.011 385,-597 381.469,-606.989 388.469,-607.011"/>
<text text-anchor="middle" x="392.5" y="-618.8" font-family="Times,serif" font-size="14.00" fill="#5b00c0">rw</text>
</g>
<!-- T6013&#45;&gt;T6005 -->
<g id="edge24" class="edge"><title>T6013:f2&#45;&gt;T6005:f0</title>
<path fill="none" stroke="#5b00c0" d="M553,-486C553,-460.42 648,-446.58 648,-421 648,-421 648,-421 648,-257 648,-244.651 635.293,-247.996 624,-243 620.326,-241.375 505.434,-208.955 471.406,-196.454"/>
<polygon fill="#5b00c0" stroke="#5b00c0" points="472.536,-193.116 462,-192 469.54,-199.443 472.536,-193.116"/>
<text text-anchor="middle" x="655.5" y="-335.3" font-family="Times,serif" font-size="14.00" fill="#5b00c0">rw</text>
</g>
<!-- T6013&#45;&gt;T6001 -->
<g id="edge25" class="edge"><title>T6013:f0&#45;&gt;T6001:f1</title>
<path fill="none" stroke="#5b00c0" d="M430,-486C430,-454.222 380.821,-466.897 370.063,-444.843"/>
<polygon fill="#5b00c0" stroke="#5b00c0" points="373.477,-444.069 368,-435 366.626,-445.505 373.477,-444.069"/>
<text text-anchor="middle" x="426.5" y="-456.8" font-family="Times,serif" font-size="14.00" fill="#5b00c0">rw</text>
</g>
<!-- T6007&#45;&gt;T6009 -->
<g id="edge26" class="edge"><title>T6007:f0&#45;&gt;T6009:f1</title>
<path fill="none" stroke="#5b00c0" d="M198,-96C150.103,-96 108.996,-83.338 103.6,-40.0343"/>
<polygon fill="#5b00c0" stroke="#5b00c0" points="107.09,-39.7734 103,-30 100.103,-40.191 107.09,-39.7734"/>
<text text-anchor="middle" x="118.5" y="-51.8" font-family="Times,serif" font-size="14.00" fill="#5b00c0">rw</text>
</g>
<!-- T6024&#45;&gt;T6013 -->
<g id="edge27" class="edge"><title>T6024:f1&#45;&gt;T6013:f1</title>
<path fill="none" stroke="#5b00c0" d="M442,-567C442,-539.496 479.516,-545.143 488.895,-525.927"/>
<polygon fill="#5b00c0" stroke="#5b00c0" points="492.349,-526.509 491,-516 485.501,-525.056 492.349,-526.509"/>
<text text-anchor="middle" x="488.5" y="-537.8" font-family="Times,serif" font-size="14.00" fill="#5b00c0">rw</text>
</g>
</g>
</svg>
