<?xml version="1.0" encoding="UTF-8" standalone="no"?>
<!DOCTYPE svg PUBLIC "-//W3C//DTD SVG 1.1//EN"
 "http://www.w3.org/Graphics/SVG/1.1/DTD/svg11.dtd">
<!-- Generated by graphviz version 2.38.0 (20140413.2041)
 -->
<!-- Title: a_graph Pages: 1 -->
<svg width="610pt" height="281pt"
 viewBox="0.00 0.00 609.50 281.00" xmlns="http://www.w3.org/2000/svg" xmlns:xlink="http://www.w3.org/1999/xlink">
<g id="graph0" class="graph" transform="scale(1 1) rotate(0) translate(4 277)">
<title>a_graph</title>
<polygon fill="white" stroke="none" points="-4,4 -4,-277 605.5,-277 605.5,4 -4,4"/>
<!-- T593 -->
<g id="node1" class="node"><title>T593</title>
<polygon fill="none" stroke="#0058ad" points="183,-243.5 183,-272.5 479,-272.5 479,-243.5 183,-243.5"/>
<text text-anchor="middle" x="227.5" y="-254.3" font-family="Times,serif" font-size="14.00" fill="#0058ad">r 40 [2 1 8 7]</text>
<polyline fill="none" stroke="#0058ad" points="272,-243.5 272,-272.5 "/>
<text text-anchor="middle" x="297" y="-254.3" font-family="Times,serif" font-size="14.00" fill="#0058ad">a 43 3</text>
<polyline fill="none" stroke="#0058ad" points="322,-243.5 322,-272.5 "/>
<text text-anchor="middle" x="366.5" y="-254.3" font-family="Times,serif" font-size="14.00" fill="#0058ad">r 41 [3 4 5 6]</text>
<polyline fill="none" stroke="#0058ad" points="411,-243.5 411,-272.5 "/>
<text text-anchor="middle" x="445" y="-254.3" font-family="Times,serif" font-size="14.00" fill="#0058ad">r 44 [1 2]</text>
</g>
<!-- T606 -->
<g id="node2" class="node"><title>T606</title>
<polygon fill="none" stroke="#0058ad" points="0,-81.5 0,-110.5 250,-110.5 250,-81.5 0,-81.5"/>
<text text-anchor="middle" x="50" y="-92.3" font-family="Times,serif" font-size="14.00" fill="#0058ad">r 42 [3 4 6 1 7]</text>
<polyline fill="none" stroke="#0058ad" points="100,-81.5 100,-110.5 "/>
<text text-anchor="middle" x="125" y="-92.3" font-family="Times,serif" font-size="14.00" fill="#0058ad">a 40 4</text>
<polyline fill="none" stroke="#0058ad" points="150,-81.5 150,-110.5 "/>
<text text-anchor="middle" x="175" y="-92.3" font-family="Times,serif" font-size="14.00" fill="#0058ad">a 40 5</text>
<polyline fill="none" stroke="#0058ad" points="200,-81.5 200,-110.5 "/>
<text text-anchor="middle" x="225" y="-92.3" font-family="Times,serif" font-size="14.00" fill="#0058ad">a 42 5</text>
</g>
<!-- T593&#45;&gt;T606 -->
<g id="edge1" class="edge"><title>T593:f0&#45;&gt;T606:f1</title>
<path fill="none" stroke="#5b00c0" d="M182,-258C115.349,-258 123.922,-188.402 124.918,-121.304"/>
<polygon fill="#5b00c0" stroke="#5b00c0" points="128.42,-121.028 125,-111 121.42,-120.972 128.42,-121.028"/>
<text text-anchor="middle" x="132.5" y="-173.3" font-family="Times,serif" font-size="14.00" fill="#5b00c0">rw</text>
</g>
<!-- T613 -->
<g id="node4" class="node"><title>T613</title>
<polygon fill="none" stroke="#0058ad" points="368.5,-162.5 368.5,-191.5 601.5,-191.5 601.5,-162.5 368.5,-162.5"/>
<text text-anchor="middle" x="393.5" y="-173.3" font-family="Times,serif" font-size="14.00" fill="#0058ad">a 30 4</text>
<polyline fill="none" stroke="#0058ad" points="418.5,-162.5 418.5,-191.5 "/>
<text text-anchor="middle" x="440.5" y="-173.3" font-family="Times,serif" font-size="14.00" fill="#0058ad">a 5 5</text>
<polyline fill="none" stroke="#0058ad" points="462.5,-162.5 462.5,-191.5 "/>
<text text-anchor="middle" x="507" y="-173.3" font-family="Times,serif" font-size="14.00" fill="#0058ad">r 40 [2 1 8 7]</text>
<polyline fill="none" stroke="#0058ad" points="551.5,-162.5 551.5,-191.5 "/>
<text text-anchor="middle" x="576.5" y="-173.3" font-family="Times,serif" font-size="14.00" fill="#0058ad">a 41 7</text>
</g>
<!-- T593&#45;&gt;T613 -->
<g id="edge2" class="edge"><title>T593:f2&#45;&gt;T613:f3</title>
<path fill="none" stroke="#5b00c0" d="M367,-243C367,-150.706 560.914,-277.385 576.064,-202.198"/>
<polygon fill="#5b00c0" stroke="#5b00c0" points="579.571,-202.278 577,-192 572.6,-201.638 579.571,-202.278"/>
<text text-anchor="middle" x="580.5" y="-213.8" font-family="Times,serif" font-size="14.00" fill="#5b00c0">rw</text>
</g>
<!-- T653 -->
<g id="node3" class="node"><title>T653</title>
<polygon fill="none" stroke="#0058ad" points="43.5,-0.5 43.5,-29.5 332.5,-29.5 332.5,-0.5 43.5,-0.5"/>
<text text-anchor="middle" x="98.5" y="-11.3" font-family="Times,serif" font-size="14.00" fill="#0058ad">r 40 [2 1 8 7 4 5]</text>
<polyline fill="none" stroke="#0058ad" points="153.5,-0.5 153.5,-29.5 "/>
<text text-anchor="middle" x="178.5" y="-11.3" font-family="Times,serif" font-size="14.00" fill="#0058ad">a 42 8</text>
<polyline fill="none" stroke="#0058ad" points="203.5,-0.5 203.5,-29.5 "/>
<text text-anchor="middle" x="228.5" y="-11.3" font-family="Times,serif" font-size="14.00" fill="#0058ad">a 40 6</text>
<polyline fill="none" stroke="#0058ad" points="253.5,-0.5 253.5,-29.5 "/>
<text text-anchor="middle" x="293" y="-11.3" font-family="Times,serif" font-size="14.00" fill="#0058ad">r 43 [2 1 6]</text>
</g>
<!-- T606&#45;&gt;T653 -->
<g id="edge3" class="edge"><title>T606:f3&#45;&gt;T653:f1</title>
<path fill="none" stroke="#c02700" d="M225,-81C225,-54.2697 189.655,-58.7272 180.267,-40.2812"/>
<polygon fill="#c02700" stroke="#c02700" points="183.571,-39.0118 178,-30 176.735,-40.5191 183.571,-39.0118"/>
<text text-anchor="middle" x="225" y="-51.8" font-family="Times,serif" font-size="14.00" fill="#c02700">ww</text>
</g>
<!-- T653&#45;&gt;T593 -->
<g id="edge4" class="edge"><title>T653:f3&#45;&gt;T593:f1</title>
<path fill="none" stroke="#5b00c0" d="M293,-30C293,-96.1064 271.245,-109.788 275,-144 277.142,-163.514 292.246,-207.052 296.104,-232.848"/>
<polygon fill="#5b00c0" stroke="#5b00c0" points="292.635,-233.346 297,-243 299.607,-232.731 292.635,-233.346"/>
<text text-anchor="middle" x="282.5" y="-132.8" font-family="Times,serif" font-size="14.00" fill="#5b00c0">rw</text>
</g>
<!-- T613&#45;&gt;T606 -->
<g id="edge5" class="edge"><title>T613:f2&#45;&gt;T606:f1</title>
<path fill="none" stroke="#5b00c0" d="M507,-162C507,-66.2039 388.989,-141.41 294,-129 277.835,-126.888 163.632,-129.081 132.707,-117.571"/>
<polygon fill="#5b00c0" stroke="#5b00c0" points="134.88,-114.825 125,-111 130.338,-120.152 134.88,-114.825"/>
<text text-anchor="middle" x="511.5" y="-132.8" font-family="Times,serif" font-size="14.00" fill="#5b00c0">rw</text>
</g>
<!-- T603 -->
<g id="node5" class="node"><title>T603</title>
<polygon fill="none" stroke="#0058ad" points="347.5,-81.5 347.5,-110.5 476.5,-110.5 476.5,-81.5 347.5,-81.5"/>
<text text-anchor="middle" x="387" y="-92.3" font-family="Times,serif" font-size="14.00" fill="#0058ad">r 43 [2 1 6]</text>
<polyline fill="none" stroke="#0058ad" points="426.5,-81.5 426.5,-110.5 "/>
<text text-anchor="middle" x="451.5" y="-92.3" font-family="Times,serif" font-size="14.00" fill="#0058ad">a 41 8</text>
</g>
<!-- T613&#45;&gt;T603 -->
<g id="edge6" class="edge"><title>T613:f3&#45;&gt;T603:f1</title>
<path fill="none" stroke="#c02700" d="M577,-162C577,-112.527 536.635,-97.8563 488.13,-96.1706"/>
<polygon fill="#c02700" stroke="#c02700" points="488.058,-92.669 478,-96 487.94,-99.668 488.058,-92.669"/>
<text text-anchor="middle" x="584" y="-132.8" font-family="Times,serif" font-size="14.00" fill="#c02700">ww</text>
</g>
<!-- T603&#45;&gt;T593 -->
<g id="edge7" class="edge"><title>T603:f0&#45;&gt;T593:f1</title>
<path fill="none" stroke="#5b00c0" d="M346,-96C323.778,-96 338.817,-122.849 332,-144 318.801,-184.948 300.193,-194.872 297.366,-232.736"/>
<polygon fill="#5b00c0" stroke="#5b00c0" points="293.858,-232.882 297,-243 300.854,-233.131 293.858,-232.882"/>
<text text-anchor="middle" x="332.5" y="-173.3" font-family="Times,serif" font-size="14.00" fill="#5b00c0">rw</text>
</g>
</g>
</svg>
