<?xml version="1.0" encoding="UTF-8" standalone="no"?>
<!DOCTYPE svg PUBLIC "-//W3C//DTD SVG 1.1//EN"
 "http://www.w3.org/Graphics/SVG/1.1/DTD/svg11.dtd">
<!-- Generated by graphviz version 2.38.0 (20140413.2041)
 -->
<!-- Title: a_graph Pages: 1 -->
<svg width="211pt" height="200pt"
 viewBox="0.00 0.00 211.00 200.00" xmlns="http://www.w3.org/2000/svg" xmlns:xlink="http://www.w3.org/1999/xlink">
<g id="graph0" class="graph" transform="scale(1 1) rotate(0) translate(4 196)">
<title>a_graph</title>
<polygon fill="white" stroke="none" points="-4,4 -4,-196 207,-196 207,4 -4,4"/>
<!-- T1125 -->
<g id="node1" class="node"><title>T1125</title>
<polygon fill="none" stroke="#0058ad" points="17,-162.5 17,-191.5 203,-191.5 203,-162.5 17,-162.5"/>
<text text-anchor="middle" x="51" y="-173.3" font-family="Times,serif" font-size="14.00" fill="#0058ad">r 79 [1 2]</text>
<polyline fill="none" stroke="#0058ad" points="85,-162.5 85,-191.5 "/>
<text text-anchor="middle" x="119" y="-173.3" font-family="Times,serif" font-size="14.00" fill="#0058ad">r 80 [2 3]</text>
<polyline fill="none" stroke="#0058ad" points="153,-162.5 153,-191.5 "/>
<text text-anchor="middle" x="178" y="-173.3" font-family="Times,serif" font-size="14.00" fill="#0058ad">a 73 8</text>
</g>
<!-- T1114 -->
<g id="node3" class="node"><title>T1114</title>
<polygon fill="none" stroke="#0058ad" points="0,-81.5 0,-110.5 108,-110.5 108,-81.5 0,-81.5"/>
<text text-anchor="middle" x="25" y="-92.3" font-family="Times,serif" font-size="14.00" fill="#0058ad">a 79 6</text>
<polyline fill="none" stroke="#0058ad" points="50,-81.5 50,-110.5 "/>
<text text-anchor="middle" x="79" y="-92.3" font-family="Times,serif" font-size="14.00" fill="#0058ad">r 80 [2]</text>
</g>
<!-- T1125&#45;&gt;T1114 -->
<g id="edge1" class="edge"><title>T1125:f0&#45;&gt;T1114:f0</title>
<path fill="none" stroke="#5b00c0" d="M51,-162C51,-140.533 32.4902,-137.097 26.7059,-121.264"/>
<polygon fill="#5b00c0" stroke="#5b00c0" points="30.0922,-120.291 25,-111 23.187,-121.439 30.0922,-120.291"/>
<text text-anchor="middle" x="52.5" y="-132.8" font-family="Times,serif" font-size="14.00" fill="#5b00c0">rw</text>
</g>
<!-- T1104 -->
<g id="node2" class="node"><title>T1104</title>
<polygon fill="none" stroke="#0058ad" points="93,-0.5 93,-29.5 147,-29.5 147,-0.5 93,-0.5"/>
<text text-anchor="middle" x="120" y="-11.3" font-family="Times,serif" font-size="14.00" fill="#0058ad">a 80 3</text>
</g>
<!-- T1104&#45;&gt;T1125 -->
<g id="edge2" class="edge"><title>T1104:f0&#45;&gt;T1125:f1</title>
<path fill="none" stroke="#c000a5" d="M119.835,-29.6049C119.57,-54.2172 119.074,-105.795 119.007,-151.942"/>
<polygon fill="#c000a5" stroke="#c000a5" points="115.508,-151.997 119,-162 122.508,-152.003 115.508,-151.997"/>
<text text-anchor="middle" x="127.5" y="-92.3" font-family="Times,serif" font-size="14.00" fill="#c000a5">wr</text>
</g>
<!-- T1114&#45;&gt;T1104 -->
<g id="edge3" class="edge"><title>T1114:f1&#45;&gt;T1104:f0</title>
<path fill="none" stroke="#5b00c0" d="M79,-81C79,-64.7792 88.0464,-49.2346 97.6405,-37.31"/>
<polygon fill="#5b00c0" stroke="#5b00c0" points="100.359,-39.5173 104.266,-29.669 95.0702,-34.9316 100.359,-39.5173"/>
<text text-anchor="middle" x="96.5" y="-51.8" font-family="Times,serif" font-size="14.00" fill="#5b00c0">rw</text>
</g>
</g>
</svg>
