<?xml version="1.0" encoding="UTF-8" standalone="no"?>
<!DOCTYPE svg PUBLIC "-//W3C//DTD SVG 1.1//EN"
 "http://www.w3.org/Graphics/SVG/1.1/DTD/svg11.dtd">
<!-- Generated by graphviz version 2.38.0 (20140413.2041)
 -->
<!-- Title: a_graph Pages: 1 -->
<svg width="316pt" height="200pt"
 viewBox="0.00 0.00 315.50 200.00" xmlns="http://www.w3.org/2000/svg" xmlns:xlink="http://www.w3.org/1999/xlink">
<g id="graph0" class="graph" transform="scale(1 1) rotate(0) translate(4 196)">
<title>a_graph</title>
<polygon fill="white" stroke="none" points="-4,4 -4,-196 311.5,-196 311.5,4 -4,4"/>
<!-- T10317 -->
<g id="node1" class="node"><title>T10317</title>
<polygon fill="none" stroke="#0058ad" points="135.5,-162.5 135.5,-191.5 307.5,-191.5 307.5,-162.5 135.5,-162.5"/>
<text text-anchor="middle" x="164.5" y="-173.3" font-family="Times,serif" font-size="14.00" fill="#0058ad">r 718 []</text>
<polyline fill="none" stroke="#0058ad" points="193.5,-162.5 193.5,-191.5 "/>
<text text-anchor="middle" x="222" y="-173.3" font-family="Times,serif" font-size="14.00" fill="#0058ad">a 717 7</text>
<polyline fill="none" stroke="#0058ad" points="250.5,-162.5 250.5,-191.5 "/>
<text text-anchor="middle" x="279" y="-173.3" font-family="Times,serif" font-size="14.00" fill="#0058ad">a 717 8</text>
</g>
<!-- T10309 -->
<g id="node3" class="node"><title>T10309</title>
<polygon fill="none" stroke="#0058ad" points="92,-81.5 92,-110.5 149,-110.5 149,-81.5 92,-81.5"/>
<text text-anchor="middle" x="120.5" y="-92.3" font-family="Times,serif" font-size="14.00" fill="#0058ad">a 718 2</text>
</g>
<!-- T10317&#45;&gt;T10309 -->
<g id="edge1" class="edge"><title>T10317:f0&#45;&gt;T10309:f0</title>
<path fill="none" stroke="#5b00c0" d="M164.5,-162C164.5,-145.552 154.922,-130.085 144.704,-118.265"/>
<polygon fill="#5b00c0" stroke="#5b00c0" points="147.02,-115.617 137.638,-110.696 141.904,-120.394 147.02,-115.617"/>
<text text-anchor="middle" x="169" y="-132.8" font-family="Times,serif" font-size="14.00" fill="#5b00c0">rw</text>
</g>
<!-- T10322 -->
<g id="node2" class="node"><title>T10322</title>
<polygon fill="none" stroke="#0058ad" points="0,-0.5 0,-29.5 273,-29.5 273,-0.5 0,-0.5"/>
<text text-anchor="middle" x="28.5" y="-11.3" font-family="Times,serif" font-size="14.00" fill="#0058ad">a 705 4</text>
<polyline fill="none" stroke="#0058ad" points="57,-0.5 57,-29.5 "/>
<text text-anchor="middle" x="89.5" y="-11.3" font-family="Times,serif" font-size="14.00" fill="#0058ad">r 718 [2]</text>
<polyline fill="none" stroke="#0058ad" points="122,-0.5 122,-29.5 "/>
<text text-anchor="middle" x="154.5" y="-11.3" font-family="Times,serif" font-size="14.00" fill="#0058ad">r 718 [2]</text>
<polyline fill="none" stroke="#0058ad" points="187,-0.5 187,-29.5 "/>
<text text-anchor="middle" x="230" y="-11.3" font-family="Times,serif" font-size="14.00" fill="#0058ad">r 717 [2 3 5]</text>
</g>
<!-- T10322&#45;&gt;T10317 -->
<g id="edge2" class="edge"><title>T10322:f3&#45;&gt;T10317:f1</title>
<path fill="none" stroke="#5b00c0" d="M230.5,-30C230.5,-85.2157 223.439,-101.313 222.584,-151.792"/>
<polygon fill="#5b00c0" stroke="#5b00c0" points="219.083,-151.971 222.5,-162 226.083,-152.029 219.083,-151.971"/>
<text text-anchor="middle" x="236" y="-92.3" font-family="Times,serif" font-size="14.00" fill="#5b00c0">rw</text>
</g>
<!-- T10309&#45;&gt;T10322 -->
<g id="edge3" class="edge"><title>T10309:f0&#45;&gt;T10322:f1</title>
<path fill="none" stroke="#c000a5" d="M109.133,-81.4461C101.875,-70.9437 93.3134,-55.9162 90.4709,-40.303"/>
<polygon fill="#c000a5" stroke="#c000a5" points="93.9228,-39.6275 89.5,-30 86.9537,-40.2843 93.9228,-39.6275"/>
<text text-anchor="middle" x="106" y="-51.8" font-family="Times,serif" font-size="14.00" fill="#c000a5">wr</text>
</g>
</g>
</svg>
