<?xml version="1.0" encoding="UTF-8" standalone="no"?>
<!DOCTYPE svg PUBLIC "-//W3C//DTD SVG 1.1//EN"
 "http://www.w3.org/Graphics/SVG/1.1/DTD/svg11.dtd">
<!-- Generated by graphviz version 2.38.0 (20140413.2041)
 -->
<!-- Title: a_graph Pages: 1 -->
<svg width="347pt" height="200pt"
 viewBox="0.00 0.00 347.00 200.00" xmlns="http://www.w3.org/2000/svg" xmlns:xlink="http://www.w3.org/1999/xlink">
<g id="graph0" class="graph" transform="scale(1 1) rotate(0) translate(4 196)">
<title>a_graph</title>
<polygon fill="white" stroke="none" points="-4,4 -4,-196 343,-196 343,4 -4,4"/>
<!-- T4607 -->
<g id="node1" class="node"><title>T4607</title>
<polygon fill="none" stroke="#0058ad" points="106.5,-162.5 106.5,-191.5 249.5,-191.5 249.5,-162.5 106.5,-162.5"/>
<text text-anchor="middle" x="149.5" y="-173.3" font-family="Times,serif" font-size="14.00" fill="#0058ad">r 321 [2 3 5]</text>
<polyline fill="none" stroke="#0058ad" points="192.5,-162.5 192.5,-191.5 "/>
<text text-anchor="middle" x="221" y="-173.3" font-family="Times,serif" font-size="14.00" fill="#0058ad">a 325 8</text>
</g>
<!-- T4605 -->
<g id="node3" class="node"><title>T4605</title>
<polygon fill="none" stroke="#0058ad" points="0,-81.5 0,-110.5 306,-110.5 306,-81.5 0,-81.5"/>
<text text-anchor="middle" x="28.5" y="-92.3" font-family="Times,serif" font-size="14.00" fill="#0058ad">a 321 6</text>
<polyline fill="none" stroke="#0058ad" points="57,-81.5 57,-110.5 "/>
<text text-anchor="middle" x="85.5" y="-92.3" font-family="Times,serif" font-size="14.00" fill="#0058ad">a 321 7</text>
<polyline fill="none" stroke="#0058ad" points="114,-81.5 114,-110.5 "/>
<text text-anchor="middle" x="162" y="-92.3" font-family="Times,serif" font-size="14.00" fill="#0058ad">r 325 [1 2 4 5]</text>
<polyline fill="none" stroke="#0058ad" points="210,-81.5 210,-110.5 "/>
<text text-anchor="middle" x="258" y="-92.3" font-family="Times,serif" font-size="14.00" fill="#0058ad">r 325 [1 2 4 5]</text>
</g>
<!-- T4607&#45;&gt;T4605 -->
<g id="edge1" class="edge"><title>T4607:f0&#45;&gt;T4605:f0</title>
<path fill="none" stroke="#5b00c0" d="M105,-177C63.448,-177 33.0688,-159.215 28.5756,-121.123"/>
<polygon fill="#5b00c0" stroke="#5b00c0" points="32.0622,-120.785 28,-111 25.0734,-121.183 32.0622,-120.785"/>
<text text-anchor="middle" x="43.5" y="-132.8" font-family="Times,serif" font-size="14.00" fill="#5b00c0">rw</text>
</g>
<!-- T4595 -->
<g id="node2" class="node"><title>T4595</title>
<polygon fill="none" stroke="#0058ad" points="260.5,-0.5 260.5,-29.5 317.5,-29.5 317.5,-0.5 260.5,-0.5"/>
<text text-anchor="middle" x="289" y="-11.3" font-family="Times,serif" font-size="14.00" fill="#0058ad">a 325 7</text>
</g>
<!-- T4595&#45;&gt;T4607 -->
<g id="edge2" class="edge"><title>T4595:f0&#45;&gt;T4607:f1</title>
<path fill="none" stroke="#c02700" d="M298.767,-29.6681C310.217,-48.812 326.284,-83.1546 315,-111 301.033,-145.466 293.321,-171.867 261.242,-176.332"/>
<polygon fill="#c02700" stroke="#c02700" points="260.751,-172.857 251,-177 261.207,-179.842 260.751,-172.857"/>
<text text-anchor="middle" x="329" y="-92.3" font-family="Times,serif" font-size="14.00" fill="#c02700">ww</text>
</g>
<!-- T4605&#45;&gt;T4595 -->
<g id="edge3" class="edge"><title>T4605:f2&#45;&gt;T4595:f0</title>
<path fill="none" stroke="#5b00c0" d="M162,-81C162,-34.8882 209.897,-50.4107 252.591,-33.7578"/>
<polygon fill="#5b00c0" stroke="#5b00c0" points="254.227,-36.8587 261.883,-29.5354 251.331,-30.4857 254.227,-36.8587"/>
<text text-anchor="middle" x="192.5" y="-51.8" font-family="Times,serif" font-size="14.00" fill="#5b00c0">rw</text>
</g>
</g>
</svg>
