<?xml version="1.0" encoding="UTF-8" standalone="no"?>
<!DOCTYPE svg PUBLIC "-//W3C//DTD SVG 1.1//EN"
 "http://www.w3.org/Graphics/SVG/1.1/DTD/svg11.dtd">
<!-- Generated by graphviz version 2.38.0 (20140413.2041)
 -->
<!-- Title: a_graph Pages: 1 -->
<svg width="283pt" height="119pt"
 viewBox="0.00 0.00 282.50 119.00" xmlns="http://www.w3.org/2000/svg" xmlns:xlink="http://www.w3.org/1999/xlink">
<g id="graph0" class="graph" transform="scale(1 1) rotate(0) translate(4 115)">
<title>a_graph</title>
<polygon fill="white" stroke="none" points="-4,4 -4,-115 278.5,-115 278.5,4 -4,4"/>
<!-- T9559 -->
<g id="node1" class="node"><title>T9559</title>
<polygon fill="none" stroke="#0058ad" points="85.5,-81.5 85.5,-110.5 274.5,-110.5 274.5,-81.5 85.5,-81.5"/>
<text text-anchor="middle" x="114" y="-92.3" font-family="Times,serif" font-size="14.00" fill="#0058ad">a 662 4</text>
<polyline fill="none" stroke="#0058ad" points="142.5,-81.5 142.5,-110.5 "/>
<text text-anchor="middle" x="171" y="-92.3" font-family="Times,serif" font-size="14.00" fill="#0058ad">a 662 5</text>
<polyline fill="none" stroke="#0058ad" points="199.5,-81.5 199.5,-110.5 "/>
<text text-anchor="middle" x="237" y="-92.3" font-family="Times,serif" font-size="14.00" fill="#0058ad">r 663 [1 2]</text>
</g>
<!-- T9565 -->
<g id="node2" class="node"><title>T9565</title>
<polygon fill="none" stroke="#0058ad" points="0,-0.5 0,-29.5 246,-29.5 246,-0.5 0,-0.5"/>
<text text-anchor="middle" x="28.5" y="-11.3" font-family="Times,serif" font-size="14.00" fill="#0058ad">a 658 8</text>
<polyline fill="none" stroke="#0058ad" points="57,-0.5 57,-29.5 "/>
<text text-anchor="middle" x="85.5" y="-11.3" font-family="Times,serif" font-size="14.00" fill="#0058ad">a 621 6</text>
<polyline fill="none" stroke="#0058ad" points="114,-0.5 114,-29.5 "/>
<text text-anchor="middle" x="142.5" y="-11.3" font-family="Times,serif" font-size="14.00" fill="#0058ad">a 663 3</text>
<polyline fill="none" stroke="#0058ad" points="171,-0.5 171,-29.5 "/>
<text text-anchor="middle" x="208.5" y="-11.3" font-family="Times,serif" font-size="14.00" fill="#0058ad">r 662 [1 3]</text>
</g>
<!-- T9559&#45;&gt;T9565 -->
<g id="edge1" class="edge"><title>T9559:f2&#45;&gt;T9565:f2</title>
<path fill="none" stroke="#5b00c0" d="M237,-81C237,-60.5767 167.579,-55.1424 148.054,-38.9348"/>
<polygon fill="#5b00c0" stroke="#5b00c0" points="150.97,-36.9809 143,-30 144.877,-40.4273 150.97,-36.9809"/>
<text text-anchor="middle" x="218.5" y="-51.8" font-family="Times,serif" font-size="14.00" fill="#5b00c0">rw</text>
</g>
<!-- T9565&#45;&gt;T9559 -->
<g id="edge2" class="edge"><title>T9565:f3&#45;&gt;T9559:f0</title>
<path fill="none" stroke="#5b00c0" d="M209,-30C209,-57.8408 173.109,-34.0765 149,-48 133.957,-56.6874 120.254,-58.9291 115.643,-70.9318"/>
<polygon fill="#5b00c0" stroke="#5b00c0" points="112.157,-70.5667 114,-81 119.065,-71.6945 112.157,-70.5667"/>
<text text-anchor="middle" x="156.5" y="-51.8" font-family="Times,serif" font-size="14.00" fill="#5b00c0">rw</text>
</g>
</g>
</svg>
