<?xml version="1.0" encoding="UTF-8" standalone="no"?>
<!DOCTYPE svg PUBLIC "-//W3C//DTD SVG 1.1//EN"
 "http://www.w3.org/Graphics/SVG/1.1/DTD/svg11.dtd">
<!-- Generated by graphviz version 2.38.0 (20140413.2041)
 -->
<!-- Title: a_graph Pages: 1 -->
<svg width="411pt" height="119pt"
 viewBox="0.00 0.00 411.00 119.00" xmlns="http://www.w3.org/2000/svg" xmlns:xlink="http://www.w3.org/1999/xlink">
<g id="graph0" class="graph" transform="scale(1 1) rotate(0) translate(4 115)">
<title>a_graph</title>
<polygon fill="white" stroke="none" points="-4,4 -4,-115 407,-115 407,4 -4,4"/>
<!-- T7837 -->
<g id="node1" class="node"><title>T7837</title>
<polygon fill="none" stroke="#0058ad" points="-2.84217e-14,-81.5 -2.84217e-14,-110.5 370,-110.5 370,-81.5 -2.84217e-14,-81.5"/>
<text text-anchor="middle" x="64" y="-92.3" font-family="Times,serif" font-size="14.00" fill="#0058ad">r 536 [1 2 4 5 7 8 6]</text>
<polyline fill="none" stroke="#0058ad" points="128,-81.5 128,-110.5 "/>
<text text-anchor="middle" x="192" y="-92.3" font-family="Times,serif" font-size="14.00" fill="#0058ad">r 536 [1 2 4 5 7 8 6]</text>
<polyline fill="none" stroke="#0058ad" points="256,-81.5 256,-110.5 "/>
<text text-anchor="middle" x="284.5" y="-92.3" font-family="Times,serif" font-size="14.00" fill="#0058ad">a 537 2</text>
<polyline fill="none" stroke="#0058ad" points="313,-81.5 313,-110.5 "/>
<text text-anchor="middle" x="341.5" y="-92.3" font-family="Times,serif" font-size="14.00" fill="#0058ad">a 533 2</text>
</g>
<!-- T7805 -->
<g id="node2" class="node"><title>T7805</title>
<polygon fill="none" stroke="#0058ad" points="5,-0.5 5,-29.5 403,-29.5 403,-0.5 5,-0.5"/>
<text text-anchor="middle" x="48" y="-11.3" font-family="Times,serif" font-size="14.00" fill="#0058ad">r 533 [1 3 4]</text>
<polyline fill="none" stroke="#0058ad" points="91,-0.5 91,-29.5 "/>
<text text-anchor="middle" x="149.5" y="-11.3" font-family="Times,serif" font-size="14.00" fill="#0058ad">r 534 [1 3 4 6 2 7]</text>
<polyline fill="none" stroke="#0058ad" points="208,-0.5 208,-29.5 "/>
<text text-anchor="middle" x="236.5" y="-11.3" font-family="Times,serif" font-size="14.00" fill="#0058ad">a 536 3</text>
<polyline fill="none" stroke="#0058ad" points="265,-0.5 265,-29.5 "/>
<text text-anchor="middle" x="334" y="-11.3" font-family="Times,serif" font-size="14.00" fill="#0058ad">r 536 [1 2 4 5 7 8 6 3]</text>
</g>
<!-- T7837&#45;&gt;T7805 -->
<g id="edge1" class="edge"><title>T7837:f0&#45;&gt;T7805:f2</title>
<path fill="none" stroke="#5b00c0" d="M64,-81C64,-4.59718 221.161,-100.328 235.895,-40.0626"/>
<polygon fill="#5b00c0" stroke="#5b00c0" points="239.388,-40.3223 237,-30 232.429,-39.5583 239.388,-40.3223"/>
<text text-anchor="middle" x="239.5" y="-51.8" font-family="Times,serif" font-size="14.00" fill="#5b00c0">rw</text>
</g>
<!-- T7805&#45;&gt;T7837 -->
<g id="edge2" class="edge"><title>T7805:f0&#45;&gt;T7837:f3</title>
<path fill="none" stroke="#5b00c0" d="M48,-30C48,-52.6441 228.893,-43.099 251,-48 289.228,-56.4749 333.252,-41.221 340.854,-70.8483"/>
<polygon fill="#5b00c0" stroke="#5b00c0" points="337.4,-71.4557 342,-81 344.356,-70.6705 337.4,-71.4557"/>
<text text-anchor="middle" x="343.5" y="-51.8" font-family="Times,serif" font-size="14.00" fill="#5b00c0">rw</text>
</g>
</g>
</svg>
