<?xml version="1.0" encoding="UTF-8" standalone="no"?>
<!DOCTYPE svg PUBLIC "-//W3C//DTD SVG 1.1//EN"
 "http://www.w3.org/Graphics/SVG/1.1/DTD/svg11.dtd">
<!-- Generated by graphviz version 2.38.0 (20140413.2041)
 -->
<!-- Title: a_graph Pages: 1 -->
<svg width="240pt" height="119pt"
 viewBox="0.00 0.00 239.50 119.00" xmlns="http://www.w3.org/2000/svg" xmlns:xlink="http://www.w3.org/1999/xlink">
<g id="graph0" class="graph" transform="scale(1 1) rotate(0) translate(4 115)">
<title>a_graph</title>
<polygon fill="white" stroke="none" points="-4,4 -4,-115 235.5,-115 235.5,4 -4,4"/>
<!-- T7323 -->
<g id="node1" class="node"><title>T7323</title>
<polygon fill="none" stroke="#0058ad" points="3.5,-81.5 3.5,-110.5 231.5,-110.5 231.5,-81.5 3.5,-81.5"/>
<text text-anchor="middle" x="32" y="-92.3" font-family="Times,serif" font-size="14.00" fill="#0058ad">a 510 6</text>
<polyline fill="none" stroke="#0058ad" points="60.5,-81.5 60.5,-110.5 "/>
<text text-anchor="middle" x="98" y="-92.3" font-family="Times,serif" font-size="14.00" fill="#0058ad">r 509 [7 8]</text>
<polyline fill="none" stroke="#0058ad" points="135.5,-81.5 135.5,-110.5 "/>
<text text-anchor="middle" x="183.5" y="-92.3" font-family="Times,serif" font-size="14.00" fill="#0058ad">r 510 [5 4 7 6]</text>
</g>
<!-- T7325 -->
<g id="node2" class="node"><title>T7325</title>
<polygon fill="none" stroke="#0058ad" points="0,-0.5 0,-29.5 143,-29.5 143,-0.5 0,-0.5"/>
<text text-anchor="middle" x="28.5" y="-11.3" font-family="Times,serif" font-size="14.00" fill="#0058ad">a 509 6</text>
<polyline fill="none" stroke="#0058ad" points="57,-0.5 57,-29.5 "/>
<text text-anchor="middle" x="100" y="-11.3" font-family="Times,serif" font-size="14.00" fill="#0058ad">r 510 [5 4 7]</text>
</g>
<!-- T7323&#45;&gt;T7325 -->
<g id="edge1" class="edge"><title>T7323:f1&#45;&gt;T7325:f0</title>
<path fill="none" stroke="#5b00c0" d="M97.5,-81C97.5,-57.9531 76.2219,-61.4407 57.5,-48 49.0279,-41.9178 38.4979,-42.8609 32.744,-39.1149"/>
<polygon fill="#5b00c0" stroke="#5b00c0" points="35.894,-37.5881 28.5,-30 29.5482,-40.5429 35.894,-37.5881"/>
<text text-anchor="middle" x="96" y="-51.8" font-family="Times,serif" font-size="14.00" fill="#5b00c0">rw</text>
</g>
<!-- T7325&#45;&gt;T7323 -->
<g id="edge2" class="edge"><title>T7325:f1&#45;&gt;T7323:f0</title>
<path fill="none" stroke="#5b00c0" d="M100.5,-30C100.5,-58.6934 58.0298,-26.9787 38.5,-48 30.9261,-56.1523 30.7388,-62.1226 31.1457,-70.7887"/>
<polygon fill="#5b00c0" stroke="#5b00c0" points="27.6552,-71.1274 31.5,-81 34.651,-70.8846 27.6552,-71.1274"/>
<text text-anchor="middle" x="46" y="-51.8" font-family="Times,serif" font-size="14.00" fill="#5b00c0">rw</text>
</g>
</g>
</svg>
