<?xml version="1.0" encoding="UTF-8" standalone="no"?>
<!DOCTYPE svg PUBLIC "-//W3C//DTD SVG 1.1//EN"
 "http://www.w3.org/Graphics/SVG/1.1/DTD/svg11.dtd">
<!-- Generated by graphviz version 2.38.0 (20140413.2041)
 -->
<!-- Title: a_graph Pages: 1 -->
<svg width="354pt" height="119pt"
 viewBox="0.00 0.00 354.00 119.00" xmlns="http://www.w3.org/2000/svg" xmlns:xlink="http://www.w3.org/1999/xlink">
<g id="graph0" class="graph" transform="scale(1 1) rotate(0) translate(4 115)">
<title>a_graph</title>
<polygon fill="white" stroke="none" points="-4,4 -4,-115 350,-115 350,4 -4,4"/>
<!-- T6402 -->
<g id="node1" class="node"><title>T6402</title>
<polygon fill="none" stroke="#0058ad" points="19,-81.5 19,-110.5 183,-110.5 183,-81.5 19,-81.5"/>
<text text-anchor="middle" x="72.5" y="-92.3" font-family="Times,serif" font-size="14.00" fill="#0058ad">r 441 [1 3 6 7 8]</text>
<polyline fill="none" stroke="#0058ad" points="126,-81.5 126,-110.5 "/>
<text text-anchor="middle" x="154.5" y="-92.3" font-family="Times,serif" font-size="14.00" fill="#0058ad">a 442 7</text>
</g>
<!-- T6407 -->
<g id="node2" class="node"><title>T6407</title>
<polygon fill="none" stroke="#0058ad" points="0,-0.5 0,-29.5 346,-29.5 346,-0.5 0,-0.5"/>
<text text-anchor="middle" x="28.5" y="-11.3" font-family="Times,serif" font-size="14.00" fill="#0058ad">a 441 4</text>
<polyline fill="none" stroke="#0058ad" points="57,-0.5 57,-29.5 "/>
<text text-anchor="middle" x="115.5" y="-11.3" font-family="Times,serif" font-size="14.00" fill="#0058ad">r 441 [1 3 6 7 8 4]</text>
<polyline fill="none" stroke="#0058ad" points="174,-0.5 174,-29.5 "/>
<text text-anchor="middle" x="227.5" y="-11.3" font-family="Times,serif" font-size="14.00" fill="#0058ad">r 442 [2 3 5 4 6]</text>
<polyline fill="none" stroke="#0058ad" points="281,-0.5 281,-29.5 "/>
<text text-anchor="middle" x="313.5" y="-11.3" font-family="Times,serif" font-size="14.00" fill="#0058ad">r 433 [1]</text>
</g>
<!-- T6402&#45;&gt;T6407 -->
<g id="edge1" class="edge"><title>T6402:f0&#45;&gt;T6407:f0</title>
<path fill="none" stroke="#5b00c0" d="M72,-81C72,-55.0394 38.9114,-58.2642 30.1222,-40.056"/>
<polygon fill="#5b00c0" stroke="#5b00c0" points="33.4896,-39.0617 28,-30 26.6404,-40.5072 33.4896,-39.0617"/>
<text text-anchor="middle" x="70.5" y="-51.8" font-family="Times,serif" font-size="14.00" fill="#5b00c0">rw</text>
</g>
<!-- T6407&#45;&gt;T6402 -->
<g id="edge2" class="edge"><title>T6407:f2&#45;&gt;T6402:f1</title>
<path fill="none" stroke="#5b00c0" d="M228,-30C228,-61.5361 221.002,-89.4644 194.291,-95.0048"/>
<polygon fill="#5b00c0" stroke="#5b00c0" points="193.617,-91.5536 184,-96 194.291,-98.521 193.617,-91.5536"/>
<text text-anchor="middle" x="234.5" y="-51.8" font-family="Times,serif" font-size="14.00" fill="#5b00c0">rw</text>
</g>
</g>
</svg>
