<?xml version="1.0" encoding="UTF-8" standalone="no"?>
<!DOCTYPE svg PUBLIC "-//W3C//DTD SVG 1.1//EN"
 "http://www.w3.org/Graphics/SVG/1.1/DTD/svg11.dtd">
<!-- Generated by graphviz version 2.38.0 (20140413.2041)
 -->
<!-- Title: a_graph Pages: 1 -->
<svg width="284pt" height="362pt"
 viewBox="0.00 0.00 284.00 362.00" xmlns="http://www.w3.org/2000/svg" xmlns:xlink="http://www.w3.org/1999/xlink">
<g id="graph0" class="graph" transform="scale(1 1) rotate(0) translate(4 358)">
<title>a_graph</title>
<polygon fill="white" stroke="none" points="-4,4 -4,-358 280,-358 280,4 -4,4"/>
<!-- T2705 -->
<g id="node1" class="node"><title>T2705</title>
<polygon fill="none" stroke="#0058ad" points="210.5,-324.5 210.5,-353.5 267.5,-353.5 267.5,-324.5 210.5,-324.5"/>
<text text-anchor="middle" x="239" y="-335.3" font-family="Times,serif" font-size="14.00" fill="#0058ad">a 188 8</text>
</g>
<!-- T2717 -->
<g id="node3" class="node"><title>T2717</title>
<polygon fill="none" stroke="#0058ad" points="0,-243.5 0,-272.5 226,-272.5 226,-243.5 0,-243.5"/>
<text text-anchor="middle" x="22" y="-254.3" font-family="Times,serif" font-size="14.00" fill="#0058ad">a 3 7</text>
<polyline fill="none" stroke="#0058ad" points="44,-243.5 44,-272.5 "/>
<text text-anchor="middle" x="81.5" y="-254.3" font-family="Times,serif" font-size="14.00" fill="#0058ad">r 189 [2 3]</text>
<polyline fill="none" stroke="#0058ad" points="119,-243.5 119,-272.5 "/>
<text text-anchor="middle" x="172.5" y="-254.3" font-family="Times,serif" font-size="14.00" fill="#0058ad">r 188 [3 4 5 7 8]</text>
</g>
<!-- T2705&#45;&gt;T2717 -->
<g id="edge1" class="edge"><title>T2705:f0&#45;&gt;T2717:f2</title>
<path fill="none" stroke="#c000a5" d="M219.198,-324.427C203.858,-312.532 183.963,-295.612 176.252,-282.515"/>
<polygon fill="#c000a5" stroke="#c000a5" points="179.546,-281.331 173,-273 172.922,-283.595 179.546,-281.331"/>
<text text-anchor="middle" x="204.5" y="-294.8" font-family="Times,serif" font-size="14.00" fill="#c000a5">wr</text>
</g>
<!-- T2703 -->
<g id="node2" class="node"><title>T2703</title>
<polygon fill="none" stroke="#0058ad" points="187.5,-0.5 187.5,-29.5 244.5,-29.5 244.5,-0.5 187.5,-0.5"/>
<text text-anchor="middle" x="216" y="-11.3" font-family="Times,serif" font-size="14.00" fill="#0058ad">a 188 7</text>
</g>
<!-- T2703&#45;&gt;T2705 -->
<g id="edge2" class="edge"><title>T2703:f0&#45;&gt;T2705:f0</title>
<path fill="none" stroke="#c02700" d="M228.437,-29.5455C240.179,-44.8031 256,-69.9995 256,-95 256,-259 256,-259 256,-259 256,-277.92 251.394,-298.818 246.977,-314.51"/>
<polygon fill="#c02700" stroke="#c02700" points="243.516,-313.869 244.009,-324.452 250.223,-315.872 243.516,-313.869"/>
<text text-anchor="middle" x="266" y="-173.3" font-family="Times,serif" font-size="14.00" fill="#c02700">ww</text>
</g>
<!-- T2715 -->
<g id="node5" class="node"><title>T2715</title>
<polygon fill="none" stroke="#0058ad" points="48,-162.5 48,-191.5 220,-191.5 220,-162.5 48,-162.5"/>
<text text-anchor="middle" x="76.5" y="-173.3" font-family="Times,serif" font-size="14.00" fill="#0058ad">a 189 5</text>
<polyline fill="none" stroke="#0058ad" points="105,-162.5 105,-191.5 "/>
<text text-anchor="middle" x="133.5" y="-173.3" font-family="Times,serif" font-size="14.00" fill="#0058ad">a 189 6</text>
<polyline fill="none" stroke="#0058ad" points="162,-162.5 162,-191.5 "/>
<text text-anchor="middle" x="191" y="-173.3" font-family="Times,serif" font-size="14.00" fill="#0058ad">r 190 []</text>
</g>
<!-- T2717&#45;&gt;T2715 -->
<g id="edge3" class="edge"><title>T2717:f1&#45;&gt;T2715:f0</title>
<path fill="none" stroke="#5b00c0" d="M81,-243C81,-224.139 77.571,-217.16 76.3923,-202.384"/>
<polygon fill="#5b00c0" stroke="#5b00c0" points="79.8752,-201.861 76,-192 72.8802,-202.125 79.8752,-201.861"/>
<text text-anchor="middle" x="87.5" y="-213.8" font-family="Times,serif" font-size="14.00" fill="#5b00c0">rw</text>
</g>
<!-- T2707 -->
<g id="node4" class="node"><title>T2707</title>
<polygon fill="none" stroke="#0058ad" points="82.5,-81.5 82.5,-110.5 225.5,-110.5 225.5,-81.5 82.5,-81.5"/>
<text text-anchor="middle" x="125.5" y="-92.3" font-family="Times,serif" font-size="14.00" fill="#0058ad">r 188 [3 4 5]</text>
<polyline fill="none" stroke="#0058ad" points="168.5,-81.5 168.5,-110.5 "/>
<text text-anchor="middle" x="197" y="-92.3" font-family="Times,serif" font-size="14.00" fill="#0058ad">a 190 2</text>
</g>
<!-- T2707&#45;&gt;T2703 -->
<g id="edge4" class="edge"><title>T2707:f0&#45;&gt;T2703:f0</title>
<path fill="none" stroke="#5b00c0" d="M125,-81C125,-73.5479 157.392,-51.495 183.524,-34.9161"/>
<polygon fill="#5b00c0" stroke="#5b00c0" points="185.486,-37.8169 192.091,-29.5325 181.762,-31.8901 185.486,-37.8169"/>
<text text-anchor="middle" x="170.5" y="-51.8" font-family="Times,serif" font-size="14.00" fill="#5b00c0">rw</text>
</g>
<!-- T2715&#45;&gt;T2707 -->
<g id="edge5" class="edge"><title>T2715:f2&#45;&gt;T2707:f1</title>
<path fill="none" stroke="#5b00c0" d="M191,-162C191,-143.1 195.115,-136.179 196.529,-121.397"/>
<polygon fill="#5b00c0" stroke="#5b00c0" points="200.044,-121.148 197,-111 193.051,-120.831 200.044,-121.148"/>
<text text-anchor="middle" x="203.5" y="-132.8" font-family="Times,serif" font-size="14.00" fill="#5b00c0">rw</text>
</g>
</g>
</svg>
