<?xml version="1.0" encoding="UTF-8" standalone="no"?>
<!DOCTYPE svg PUBLIC "-//W3C//DTD SVG 1.1//EN"
 "http://www.w3.org/Graphics/SVG/1.1/DTD/svg11.dtd">
<!-- Generated by graphviz version 2.38.0 (20140413.2041)
 -->
<!-- Title: a_graph Pages: 1 -->
<svg width="304pt" height="281pt"
 viewBox="0.00 0.00 304.00 281.00" xmlns="http://www.w3.org/2000/svg" xmlns:xlink="http://www.w3.org/1999/xlink">
<g id="graph0" class="graph" transform="scale(1 1) rotate(0) translate(4 277)">
<title>a_graph</title>
<polygon fill="white" stroke="none" points="-4,4 -4,-277 300,-277 300,4 -4,4"/>
<!-- T6873 -->
<g id="node1" class="node"><title>T6873</title>
<polygon fill="none" stroke="#0058ad" points="123,-243.5 123,-272.5 238,-272.5 238,-243.5 123,-243.5"/>
<text text-anchor="middle" x="152" y="-254.3" font-family="Times,serif" font-size="14.00" fill="#0058ad">r 481 []</text>
<polyline fill="none" stroke="#0058ad" points="181,-243.5 181,-272.5 "/>
<text text-anchor="middle" x="209.5" y="-254.3" font-family="Times,serif" font-size="14.00" fill="#0058ad">a 482 4</text>
</g>
<!-- T6871 -->
<g id="node3" class="node"><title>T6871</title>
<polygon fill="none" stroke="#0058ad" points="0,-162.5 0,-191.5 173,-191.5 173,-162.5 0,-162.5"/>
<text text-anchor="middle" x="29" y="-173.3" font-family="Times,serif" font-size="14.00" fill="#0058ad">r 481 []</text>
<polyline fill="none" stroke="#0058ad" points="58,-162.5 58,-191.5 "/>
<text text-anchor="middle" x="86.5" y="-173.3" font-family="Times,serif" font-size="14.00" fill="#0058ad">a 481 1</text>
<polyline fill="none" stroke="#0058ad" points="115,-162.5 115,-191.5 "/>
<text text-anchor="middle" x="144" y="-173.3" font-family="Times,serif" font-size="14.00" fill="#0058ad">r 482 []</text>
</g>
<!-- T6873&#45;&gt;T6871 -->
<g id="edge1" class="edge"><title>T6873:f0&#45;&gt;T6871:f1</title>
<path fill="none" stroke="#5b00c0" d="M121.5,-258C91.6694,-258 87.189,-231.526 86.5866,-202.07"/>
<polygon fill="#5b00c0" stroke="#5b00c0" points="90.086,-201.969 86.5,-192 83.0863,-202.03 90.086,-201.969"/>
<text text-anchor="middle" x="96" y="-213.8" font-family="Times,serif" font-size="14.00" fill="#5b00c0">rw</text>
</g>
<!-- T6875 -->
<g id="node2" class="node"><title>T6875</title>
<polygon fill="none" stroke="#0058ad" points="115,-0.5 115,-29.5 296,-29.5 296,-0.5 115,-0.5"/>
<text text-anchor="middle" x="144" y="-11.3" font-family="Times,serif" font-size="14.00" fill="#0058ad">r 481 []</text>
<polyline fill="none" stroke="#0058ad" points="173,-0.5 173,-29.5 "/>
<text text-anchor="middle" x="205.5" y="-11.3" font-family="Times,serif" font-size="14.00" fill="#0058ad">r 482 [1]</text>
<polyline fill="none" stroke="#0058ad" points="238,-0.5 238,-29.5 "/>
<text text-anchor="middle" x="267" y="-11.3" font-family="Times,serif" font-size="14.00" fill="#0058ad">r 481 []</text>
</g>
<!-- T6875&#45;&gt;T6873 -->
<g id="edge3" class="edge"><title>T6875:f1&#45;&gt;T6873:f1</title>
<path fill="none" stroke="#5b00c0" d="M205.5,-30C205.5,-41.6322 217.406,-38.7813 224.5,-48 234.689,-61.2402 238.372,-64.8114 242.5,-81 261.029,-153.665 312.987,-248.607 249.692,-257.349"/>
<polygon fill="#5b00c0" stroke="#5b00c0" points="249.256,-253.869 239.5,-258 249.703,-260.855 249.256,-253.869"/>
<text text-anchor="middle" x="270" y="-132.8" font-family="Times,serif" font-size="14.00" fill="#5b00c0">rw</text>
</g>
<!-- T6875&#45;&gt;T6871 -->
<g id="edge2" class="edge"><title>T6875:f0&#45;&gt;T6871:f1</title>
<path fill="none" stroke="#5b00c0" d="M113.5,-15C74.7415,-15 70.0149,-44.6741 56.5,-81 51.8507,-93.4965 52.9968,-98.1351 56.5,-111 62.3838,-132.607 80.0015,-135.328 85.1021,-151.899"/>
<polygon fill="#5b00c0" stroke="#5b00c0" points="81.6622,-152.574 86.5,-162 88.5961,-151.615 81.6622,-152.574"/>
<text text-anchor="middle" x="64" y="-92.3" font-family="Times,serif" font-size="14.00" fill="#5b00c0">rw</text>
</g>
<!-- T6863 -->
<g id="node4" class="node"><title>T6863</title>
<polygon fill="none" stroke="#0058ad" points="81,-81.5 81,-110.5 234,-110.5 234,-81.5 81,-81.5"/>
<text text-anchor="middle" x="129" y="-92.3" font-family="Times,serif" font-size="14.00" fill="#0058ad">r 478 [1 2 3 6]</text>
<polyline fill="none" stroke="#0058ad" points="177,-81.5 177,-110.5 "/>
<text text-anchor="middle" x="205.5" y="-92.3" font-family="Times,serif" font-size="14.00" fill="#0058ad">a 482 1</text>
</g>
<!-- T6871&#45;&gt;T6863 -->
<g id="edge4" class="edge"><title>T6871:f2&#45;&gt;T6863:f1</title>
<path fill="none" stroke="#5b00c0" d="M144.5,-162C144.5,-140.295 163.664,-142.698 180.5,-129 187.304,-123.464 195.65,-123.253 200.77,-120.216"/>
<polygon fill="#5b00c0" stroke="#5b00c0" points="204.048,-121.495 205.5,-111 197.82,-118.299 204.048,-121.495"/>
<text text-anchor="middle" x="188" y="-132.8" font-family="Times,serif" font-size="14.00" fill="#5b00c0">rw</text>
</g>
<!-- T6863&#45;&gt;T6873 -->
<g id="edge6" class="edge"><title>T6863:f1&#45;&gt;T6873:f1</title>
<path fill="none" stroke="#c02700" d="M205.5,-111C205.5,-166.14 209.03,-182.375 209.458,-232.804"/>
<polygon fill="#c02700" stroke="#c02700" points="205.959,-233.015 209.5,-243 212.958,-232.986 205.959,-233.015"/>
<text text-anchor="middle" x="218.5" y="-173.3" font-family="Times,serif" font-size="14.00" fill="#c02700">ww</text>
</g>
<!-- T6863&#45;&gt;T6875 -->
<g id="edge5" class="edge"><title>T6863:f1&#45;&gt;T6875:f1</title>
<path fill="none" stroke="#c000a5" d="M205.5,-81C205.5,-62.2292 205.5,-55.1168 205.5,-40.3535"/>
<polygon fill="#c000a5" stroke="#c000a5" points="209,-40 205.5,-30 202,-40 209,-40"/>
<text text-anchor="middle" x="213" y="-51.8" font-family="Times,serif" font-size="14.00" fill="#c000a5">wr</text>
</g>
</g>
</svg>
