<?xml version="1.0" encoding="UTF-8" standalone="no"?>
<!DOCTYPE svg PUBLIC "-//W3C//DTD SVG 1.1//EN"
 "http://www.w3.org/Graphics/SVG/1.1/DTD/svg11.dtd">
<!-- Generated by graphviz version 2.38.0 (20140413.2041)
 -->
<!-- Title: a_graph Pages: 1 -->
<svg width="277pt" height="200pt"
 viewBox="0.00 0.00 277.00 200.00" xmlns="http://www.w3.org/2000/svg" xmlns:xlink="http://www.w3.org/1999/xlink">
<g id="graph0" class="graph" transform="scale(1 1) rotate(0) translate(4 196)">
<title>a_graph</title>
<polygon fill="white" stroke="none" points="-4,4 -4,-196 273,-196 273,4 -4,4"/>
<!-- T2989 -->
<g id="node1" class="node"><title>T2989</title>
<polygon fill="none" stroke="#0058ad" points="0,-162.5 0,-191.5 269,-191.5 269,-162.5 0,-162.5"/>
<text text-anchor="middle" x="28.5" y="-173.3" font-family="Times,serif" font-size="14.00" fill="#0058ad">a 211 1</text>
<polyline fill="none" stroke="#0058ad" points="57,-162.5 57,-191.5 "/>
<text text-anchor="middle" x="105" y="-173.3" font-family="Times,serif" font-size="14.00" fill="#0058ad">r 193 [1 2 3 4]</text>
<polyline fill="none" stroke="#0058ad" points="153,-162.5 153,-191.5 "/>
<text text-anchor="middle" x="182" y="-173.3" font-family="Times,serif" font-size="14.00" fill="#0058ad">r 210 []</text>
<polyline fill="none" stroke="#0058ad" points="211,-162.5 211,-191.5 "/>
<text text-anchor="middle" x="240" y="-173.3" font-family="Times,serif" font-size="14.00" fill="#0058ad">r 209 []</text>
</g>
<!-- T2983 -->
<g id="node3" class="node"><title>T2983</title>
<polygon fill="none" stroke="#0058ad" points="96,-81.5 96,-110.5 153,-110.5 153,-81.5 96,-81.5"/>
<text text-anchor="middle" x="124.5" y="-92.3" font-family="Times,serif" font-size="14.00" fill="#0058ad">a 210 3</text>
</g>
<!-- T2989&#45;&gt;T2983 -->
<g id="edge1" class="edge"><title>T2989:f2&#45;&gt;T2983:f0</title>
<path fill="none" stroke="#5b00c0" d="M182.5,-162C182.5,-143.893 170.03,-128.388 156.654,-116.964"/>
<polygon fill="#5b00c0" stroke="#5b00c0" points="158.776,-114.18 148.761,-110.721 154.433,-119.67 158.776,-114.18"/>
<text text-anchor="middle" x="185" y="-132.8" font-family="Times,serif" font-size="14.00" fill="#5b00c0">rw</text>
</g>
<!-- T3006 -->
<g id="node2" class="node"><title>T3006</title>
<polygon fill="none" stroke="#0058ad" points="27,-0.5 27,-29.5 142,-29.5 142,-0.5 27,-0.5"/>
<text text-anchor="middle" x="56" y="-11.3" font-family="Times,serif" font-size="14.00" fill="#0058ad">r 211 []</text>
<polyline fill="none" stroke="#0058ad" points="85,-0.5 85,-29.5 "/>
<text text-anchor="middle" x="113.5" y="-11.3" font-family="Times,serif" font-size="14.00" fill="#0058ad">a 210 6</text>
</g>
<!-- T3006&#45;&gt;T2989 -->
<g id="edge2" class="edge"><title>T3006:f0&#45;&gt;T2989:f0</title>
<path fill="none" stroke="#5b00c0" d="M55.5,-30C55.5,-86.3727 31.5714,-100.521 28.7672,-151.946"/>
<polygon fill="#5b00c0" stroke="#5b00c0" points="25.267,-151.911 28.5,-162 32.2645,-152.097 25.267,-151.911"/>
<text text-anchor="middle" x="55" y="-92.3" font-family="Times,serif" font-size="14.00" fill="#5b00c0">rw</text>
</g>
<!-- T2983&#45;&gt;T3006 -->
<g id="edge3" class="edge"><title>T2983:f0&#45;&gt;T3006:f1</title>
<path fill="none" stroke="#c02700" d="M120.653,-81.4363C118.075,-70.6326 114.964,-55.2386 113.888,-40.2503"/>
<polygon fill="#c02700" stroke="#c02700" points="117.376,-39.8603 113.5,-30 110.381,-40.1253 117.376,-39.8603"/>
<text text-anchor="middle" x="126.5" y="-51.8" font-family="Times,serif" font-size="14.00" fill="#c02700">ww</text>
</g>
</g>
</svg>
