<?xml version="1.0" encoding="UTF-8" standalone="no"?>
<!DOCTYPE svg PUBLIC "-//W3C//DTD SVG 1.1//EN"
 "http://www.w3.org/Graphics/SVG/1.1/DTD/svg11.dtd">
<!-- Generated by graphviz version 2.38.0 (20140413.2041)
 -->
<!-- Title: a_graph Pages: 1 -->
<svg width="311pt" height="119pt"
 viewBox="0.00 0.00 310.50 119.00" xmlns="http://www.w3.org/2000/svg" xmlns:xlink="http://www.w3.org/1999/xlink">
<g id="graph0" class="graph" transform="scale(1 1) rotate(0) translate(4 115)">
<title>a_graph</title>
<polygon fill="white" stroke="none" points="-4,4 -4,-115 306.5,-115 306.5,4 -4,4"/>
<!-- T5593 -->
<g id="node1" class="node"><title>T5593</title>
<polygon fill="none" stroke="#0058ad" points="65.5,-81.5 65.5,-110.5 302.5,-110.5 302.5,-81.5 65.5,-81.5"/>
<text text-anchor="middle" x="94" y="-92.3" font-family="Times,serif" font-size="14.00" fill="#0058ad">a 391 1</text>
<polyline fill="none" stroke="#0058ad" points="122.5,-81.5 122.5,-110.5 "/>
<text text-anchor="middle" x="151.5" y="-92.3" font-family="Times,serif" font-size="14.00" fill="#0058ad">r 390 []</text>
<polyline fill="none" stroke="#0058ad" points="180.5,-81.5 180.5,-110.5 "/>
<text text-anchor="middle" x="213" y="-92.3" font-family="Times,serif" font-size="14.00" fill="#0058ad">r 391 [1]</text>
<polyline fill="none" stroke="#0058ad" points="245.5,-81.5 245.5,-110.5 "/>
<text text-anchor="middle" x="274" y="-92.3" font-family="Times,serif" font-size="14.00" fill="#0058ad">a 388 4</text>
</g>
<!-- T5600 -->
<g id="node2" class="node"><title>T5600</title>
<polygon fill="none" stroke="#0058ad" points="0,-0.5 0,-29.5 180,-29.5 180,-0.5 0,-0.5"/>
<text text-anchor="middle" x="32.5" y="-11.3" font-family="Times,serif" font-size="14.00" fill="#0058ad">r 388 [2]</text>
<polyline fill="none" stroke="#0058ad" points="65,-0.5 65,-29.5 "/>
<text text-anchor="middle" x="93.5" y="-11.3" font-family="Times,serif" font-size="14.00" fill="#0058ad">a 390 1</text>
<polyline fill="none" stroke="#0058ad" points="122,-0.5 122,-29.5 "/>
<text text-anchor="middle" x="151" y="-11.3" font-family="Times,serif" font-size="14.00" fill="#0058ad">r 391 []</text>
</g>
<!-- T5593&#45;&gt;T5600 -->
<g id="edge1" class="edge"><title>T5593:f1&#45;&gt;T5600:f1</title>
<path fill="none" stroke="#5b00c0" d="M151,-81C151,-60.6913 123.516,-77.2035 109,-63 100.274,-54.4613 96.159,-49.1649 94.6778,-40.089"/>
<polygon fill="#5b00c0" stroke="#5b00c0" points="98.1625,-39.7429 94,-30 91.1783,-40.2121 98.1625,-39.7429"/>
<text text-anchor="middle" x="116.5" y="-51.8" font-family="Times,serif" font-size="14.00" fill="#5b00c0">rw</text>
</g>
<!-- T5600&#45;&gt;T5593 -->
<g id="edge2" class="edge"><title>T5600:f2&#45;&gt;T5593:f0</title>
<path fill="none" stroke="#5b00c0" d="M151,-30C151,-48.9502 138.337,-50.6082 124,-63 115.912,-69.9904 104.765,-68.5274 98.5885,-71.9831"/>
<polygon fill="#5b00c0" stroke="#5b00c0" points="95.416,-70.5002 94,-81 101.655,-73.675 95.416,-70.5002"/>
<text text-anchor="middle" x="150.5" y="-51.8" font-family="Times,serif" font-size="14.00" fill="#5b00c0">rw</text>
</g>
</g>
</svg>
