<?xml version="1.0" encoding="UTF-8" standalone="no"?>
<!DOCTYPE svg PUBLIC "-//W3C//DTD SVG 1.1//EN"
 "http://www.w3.org/Graphics/SVG/1.1/DTD/svg11.dtd">
<!-- Generated by graphviz version 2.38.0 (20140413.2041)
 -->
<!-- Title: a_graph Pages: 1 -->
<svg width="1061pt" height="1106pt"
 viewBox="0.00 0.00 1061.07 1106.00" xmlns="http://www.w3.org/2000/svg" xmlns:xlink="http://www.w3.org/1999/xlink">
<g id="graph0" class="graph" transform="scale(1 1) rotate(0) translate(4 1102)">
<title>a_graph</title>
<polygon fill="white" stroke="none" points="-4,4 -4,-1102 1057.07,-1102 1057.07,4 -4,4"/>
<!-- T5441 -->
<g id="node1" class="node"><title>T5441</title>
<polygon fill="none" stroke="#0058ad" points="956.566,-1068.5 956.566,-1097.5 1013.57,-1097.5 1013.57,-1068.5 956.566,-1068.5"/>
<text text-anchor="middle" x="985.066" y="-1079.3" font-family="Times,serif" font-size="14.00" fill="#0058ad">a 380 2</text>
</g>
<!-- T5460 -->
<g id="node15" class="node"><title>T5460</title>
<polygon fill="none" stroke="#0058ad" points="875.566,-987.5 875.566,-1016.5 932.566,-1016.5 932.566,-987.5 875.566,-987.5"/>
<text text-anchor="middle" x="904.066" y="-998.3" font-family="Times,serif" font-size="14.00" fill="#0058ad">a 380 4</text>
</g>
<!-- T5441&#45;&gt;T5460 -->
<g id="edge1" class="edge"><title>T5441:f0&#45;&gt;T5460:f0</title>
<path fill="none" stroke="#c02700" d="M970.209,-1068.14C957.878,-1055.81 940.158,-1038.09 926.163,-1024.1"/>
<polygon fill="#c02700" stroke="#c02700" points="928.374,-1021.36 918.828,-1016.76 923.425,-1026.31 928.374,-1021.36"/>
<text text-anchor="middle" x="962.066" y="-1038.8" font-family="Times,serif" font-size="14.00" fill="#c02700">ww</text>
</g>
<!-- T5483 -->
<g id="node2" class="node"><title>T5483</title>
<polygon fill="none" stroke="#0058ad" points="209.066,-744.5 209.066,-773.5 497.066,-773.5 497.066,-744.5 209.066,-744.5"/>
<text text-anchor="middle" x="252.066" y="-755.3" font-family="Times,serif" font-size="14.00" fill="#0058ad">r 380 [2 4 6]</text>
<polyline fill="none" stroke="#0058ad" points="295.066,-744.5 295.066,-773.5 "/>
<text text-anchor="middle" x="324.066" y="-755.3" font-family="Times,serif" font-size="14.00" fill="#0058ad">r 381 []</text>
<polyline fill="none" stroke="#0058ad" points="353.066,-744.5 353.066,-773.5 "/>
<text text-anchor="middle" x="396.066" y="-755.3" font-family="Times,serif" font-size="14.00" fill="#0058ad">r 380 [2 4 6]</text>
<polyline fill="none" stroke="#0058ad" points="439.066,-744.5 439.066,-773.5 "/>
<text text-anchor="middle" x="468.066" y="-755.3" font-family="Times,serif" font-size="14.00" fill="#0058ad">r 377 []</text>
</g>
<!-- T5777 -->
<g id="node3" class="node"><title>T5777</title>
<polygon fill="none" stroke="#0058ad" points="823.066,-0.5 823.066,-29.5 1053.07,-29.5 1053.07,-0.5 823.066,-0.5"/>
<text text-anchor="middle" x="852.066" y="-11.3" font-family="Times,serif" font-size="14.00" fill="#0058ad">r 381 []</text>
<polyline fill="none" stroke="#0058ad" points="881.066,-0.5 881.066,-29.5 "/>
<text text-anchor="middle" x="909.566" y="-11.3" font-family="Times,serif" font-size="14.00" fill="#0058ad">a 381 1</text>
<polyline fill="none" stroke="#0058ad" points="938.066,-0.5 938.066,-29.5 "/>
<text text-anchor="middle" x="966.566" y="-11.3" font-family="Times,serif" font-size="14.00" fill="#0058ad">a 381 2</text>
<polyline fill="none" stroke="#0058ad" points="995.066,-0.5 995.066,-29.5 "/>
<text text-anchor="middle" x="1024.07" y="-11.3" font-family="Times,serif" font-size="14.00" fill="#0058ad">r 380 []</text>
</g>
<!-- T5483&#45;&gt;T5777 -->
<g id="edge4" class="edge"><title>T5483:f1&#45;&gt;T5777:f1</title>
<path fill="none" stroke="#5b00c0" d="M324.066,-744C324.066,-633.212 159.784,-769.935 80.066,-693 -22.8619,-593.666 3.06596,-523.543 3.06596,-380.5 3.06596,-380.5 3.06596,-380.5 3.06596,-95 3.06596,-71.2717 804.34,-57.0013 899.804,-34.3998"/>
<polygon fill="#5b00c0" stroke="#5b00c0" points="901.535,-37.4523 909.066,-30 898.531,-31.1294 901.535,-37.4523"/>
<text text-anchor="middle" x="10.566" y="-375.8" font-family="Times,serif" font-size="14.00" fill="#5b00c0">rw</text>
</g>
<!-- T5471 -->
<g id="node5" class="node"><title>T5471</title>
<polygon fill="none" stroke="#0058ad" points="89.066,-663.5 89.066,-692.5 317.066,-692.5 317.066,-663.5 89.066,-663.5"/>
<text text-anchor="middle" x="126.566" y="-674.3" font-family="Times,serif" font-size="14.00" fill="#0058ad">r 374 [1 6]</text>
<polyline fill="none" stroke="#0058ad" points="164.066,-663.5 164.066,-692.5 "/>
<text text-anchor="middle" x="212.066" y="-674.3" font-family="Times,serif" font-size="14.00" fill="#0058ad">r 375 [2 8 6 7]</text>
<polyline fill="none" stroke="#0058ad" points="260.066,-663.5 260.066,-692.5 "/>
<text text-anchor="middle" x="288.566" y="-674.3" font-family="Times,serif" font-size="14.00" fill="#0058ad">a 377 1</text>
</g>
<!-- T5483&#45;&gt;T5471 -->
<g id="edge2" class="edge"><title>T5483:f3&#45;&gt;T5471:f2</title>
<path fill="none" stroke="#5b00c0" d="M468.066,-744C468.066,-679.029 384.448,-730.035 331.066,-693 327.895,-690.8 326.699,-687.654 325.618,-684.811"/>
<polygon fill="#5b00c0" stroke="#5b00c0" points="327.836,-682.098 318.066,-678 323.148,-687.296 327.836,-682.098"/>
<text text-anchor="middle" x="472.566" y="-714.8" font-family="Times,serif" font-size="14.00" fill="#5b00c0">rw</text>
</g>
<!-- T5509 -->
<g id="node16" class="node"><title>T5509</title>
<polygon fill="none" stroke="#0058ad" points="670.066,-582.5 670.066,-611.5 784.066,-611.5 784.066,-582.5 670.066,-582.5"/>
<text text-anchor="middle" x="698.566" y="-593.3" font-family="Times,serif" font-size="14.00" fill="#0058ad">a 377 6</text>
<polyline fill="none" stroke="#0058ad" points="727.066,-582.5 727.066,-611.5 "/>
<text text-anchor="middle" x="755.566" y="-593.3" font-family="Times,serif" font-size="14.00" fill="#0058ad">a 380 5</text>
</g>
<!-- T5483&#45;&gt;T5509 -->
<g id="edge3" class="edge"><title>T5483:f0&#45;&gt;T5509:f1</title>
<path fill="none" stroke="#5b00c0" d="M252.066,-744C252.066,-689.277 702.448,-671.788 751.709,-621.137"/>
<polygon fill="#5b00c0" stroke="#5b00c0" points="754.921,-622.533 756.066,-612 748.602,-619.52 754.921,-622.533"/>
<text text-anchor="middle" x="602.566" y="-674.3" font-family="Times,serif" font-size="14.00" fill="#5b00c0">rw</text>
</g>
<!-- T5777&#45;&gt;T5441 -->
<g id="edge5" class="edge"><title>T5777:f3&#45;&gt;T5441:f0</title>
<path fill="none" stroke="#5b00c0" d="M1024.07,-30C1024.07,-58.8889 1024.07,-66.1111 1024.07,-95 1024.07,-1003 1024.07,-1003 1024.07,-1003 1024.07,-1023.8 1013.29,-1044.84 1003.06,-1060.12"/>
<polygon fill="#5b00c0" stroke="#5b00c0" points="1000.12,-1058.22 997.192,-1068.4 1005.83,-1062.27 1000.12,-1058.22"/>
<text text-anchor="middle" x="1031.57" y="-552.8" font-family="Times,serif" font-size="14.00" fill="#5b00c0">rw</text>
</g>
<!-- T5564 -->
<g id="node4" class="node"><title>T5564</title>
<polygon fill="none" stroke="#0058ad" points="467.066,-162.5 467.066,-191.5 631.066,-191.5 631.066,-162.5 467.066,-162.5"/>
<text text-anchor="middle" x="520.566" y="-173.3" font-family="Times,serif" font-size="14.00" fill="#0058ad">r 370 [2 3 5 8 6]</text>
<polyline fill="none" stroke="#0058ad" points="574.066,-162.5 574.066,-191.5 "/>
<text text-anchor="middle" x="602.566" y="-173.3" font-family="Times,serif" font-size="14.00" fill="#0058ad">a 377 7</text>
</g>
<!-- T5590 -->
<g id="node21" class="node"><title>T5590</title>
<polygon fill="none" stroke="#0058ad" points="639.566,-81.5 639.566,-110.5 850.566,-110.5 850.566,-81.5 639.566,-81.5"/>
<text text-anchor="middle" x="687.566" y="-92.3" font-family="Times,serif" font-size="14.00" fill="#0058ad">r 377 [1 6 2 7]</text>
<polyline fill="none" stroke="#0058ad" points="735.566,-81.5 735.566,-110.5 "/>
<text text-anchor="middle" x="764.566" y="-92.3" font-family="Times,serif" font-size="14.00" fill="#0058ad">r 381 []</text>
<polyline fill="none" stroke="#0058ad" points="793.566,-81.5 793.566,-110.5 "/>
<text text-anchor="middle" x="822.066" y="-92.3" font-family="Times,serif" font-size="14.00" fill="#0058ad">a 380 7</text>
</g>
<!-- T5564&#45;&gt;T5590 -->
<g id="edge6" class="edge"><title>T5564:f1&#45;&gt;T5590:f0</title>
<path fill="none" stroke="#c000a5" d="M632.066,-177C663.37,-177 617.747,-116.087 628.617,-99.9068"/>
<polygon fill="#c000a5" stroke="#c000a5" points="630.162,-103.055 638.066,-96 627.487,-96.5865 630.162,-103.055"/>
<text text-anchor="middle" x="645.566" y="-132.8" font-family="Times,serif" font-size="14.00" fill="#c000a5">wr</text>
</g>
<!-- T5481 -->
<g id="node11" class="node"><title>T5481</title>
<polygon fill="none" stroke="#0058ad" points="114.066,-582.5 114.066,-611.5 236.066,-611.5 236.066,-582.5 114.066,-582.5"/>
<text text-anchor="middle" x="142.566" y="-593.3" font-family="Times,serif" font-size="14.00" fill="#0058ad">a 374 7</text>
<polyline fill="none" stroke="#0058ad" points="171.066,-582.5 171.066,-611.5 "/>
<text text-anchor="middle" x="203.566" y="-593.3" font-family="Times,serif" font-size="14.00" fill="#0058ad">r 379 [8]</text>
</g>
<!-- T5471&#45;&gt;T5481 -->
<g id="edge8" class="edge"><title>T5471:f0&#45;&gt;T5481:f0</title>
<path fill="none" stroke="#5b00c0" d="M126.066,-663C126.066,-643.142 137.247,-637.446 140.915,-622.235"/>
<polygon fill="#5b00c0" stroke="#5b00c0" points="144.427,-622.328 142.066,-612 137.471,-621.546 144.427,-622.328"/>
<text text-anchor="middle" x="145.566" y="-633.8" font-family="Times,serif" font-size="14.00" fill="#5b00c0">rw</text>
</g>
<!-- T5471&#45;&gt;T5509 -->
<g id="edge7" class="edge"><title>T5471:f2&#45;&gt;T5509:f0</title>
<path fill="none" stroke="#c02700" d="M289.066,-663C289.066,-643.179 301.336,-638.862 319.066,-630 351.754,-613.662 595.428,-599.011 658.688,-597.19"/>
<polygon fill="#c02700" stroke="#c02700" points="659.132,-600.683 669.066,-597 659.004,-593.684 659.132,-600.683"/>
<text text-anchor="middle" x="329.066" y="-633.8" font-family="Times,serif" font-size="14.00" fill="#c02700">ww</text>
</g>
<!-- T5529 -->
<g id="node6" class="node"><title>T5529</title>
<polygon fill="none" stroke="#0058ad" points="669.066,-324.5 669.066,-353.5 945.066,-353.5 945.066,-324.5 669.066,-324.5"/>
<text text-anchor="middle" x="712.066" y="-335.3" font-family="Times,serif" font-size="14.00" fill="#0058ad">r 376 [2 3 4]</text>
<polyline fill="none" stroke="#0058ad" points="755.066,-324.5 755.066,-353.5 "/>
<text text-anchor="middle" x="792.566" y="-335.3" font-family="Times,serif" font-size="14.00" fill="#0058ad">r 377 [1 6]</text>
<polyline fill="none" stroke="#0058ad" points="830.066,-324.5 830.066,-353.5 "/>
<text text-anchor="middle" x="858.566" y="-335.3" font-family="Times,serif" font-size="14.00" fill="#0058ad">a 380 3</text>
<polyline fill="none" stroke="#0058ad" points="887.066,-324.5 887.066,-353.5 "/>
<text text-anchor="middle" x="916.066" y="-335.3" font-family="Times,serif" font-size="14.00" fill="#0058ad">r 381 []</text>
</g>
<!-- T5529&#45;&gt;T5777 -->
<g id="edge10" class="edge"><title>T5529:f3&#45;&gt;T5777:f1</title>
<path fill="none" stroke="#5b00c0" d="M916.066,-324C916.066,-295.056 912.066,-287.944 912.066,-259 912.066,-259 912.066,-259 912.066,-95 912.066,-69.8083 909.79,-61.1273 909.203,-40.1923"/>
<polygon fill="#5b00c0" stroke="#5b00c0" points="912.7,-39.9521 909.066,-30 905.7,-40.0461 912.7,-39.9521"/>
<text text-anchor="middle" x="919.566" y="-173.3" font-family="Times,serif" font-size="14.00" fill="#5b00c0">rw</text>
</g>
<!-- T5566 -->
<g id="node10" class="node"><title>T5566</title>
<polygon fill="none" stroke="#0058ad" points="574.566,-243.5 574.566,-272.5 795.566,-272.5 795.566,-243.5 574.566,-243.5"/>
<text text-anchor="middle" x="603.066" y="-254.3" font-family="Times,serif" font-size="14.00" fill="#0058ad">a 377 2</text>
<polyline fill="none" stroke="#0058ad" points="631.566,-243.5 631.566,-272.5 "/>
<text text-anchor="middle" x="660.066" y="-254.3" font-family="Times,serif" font-size="14.00" fill="#0058ad">a 379 1</text>
<polyline fill="none" stroke="#0058ad" points="688.566,-243.5 688.566,-272.5 "/>
<text text-anchor="middle" x="742.066" y="-254.3" font-family="Times,serif" font-size="14.00" fill="#0058ad">r 370 [2 3 5 8 6]</text>
</g>
<!-- T5529&#45;&gt;T5566 -->
<g id="edge11" class="edge"><title>T5529:f1&#45;&gt;T5566:f0</title>
<path fill="none" stroke="#5b00c0" d="M792.066,-324C792.066,-314.548 649.294,-291.216 611.928,-278.131"/>
<polygon fill="#5b00c0" stroke="#5b00c0" points="613.474,-274.982 603.066,-273 609.966,-281.04 613.474,-274.982"/>
<text text-anchor="middle" x="738.566" y="-294.8" font-family="Times,serif" font-size="14.00" fill="#5b00c0">rw</text>
</g>
<!-- T5551 -->
<g id="node19" class="node"><title>T5551</title>
<polygon fill="none" stroke="#0058ad" points="665.566,-162.5 665.566,-191.5 850.566,-191.5 850.566,-162.5 665.566,-162.5"/>
<text text-anchor="middle" x="729.566" y="-173.3" font-family="Times,serif" font-size="14.00" fill="#0058ad">r 379 [8 4 2 3 6 7 1]</text>
<polyline fill="none" stroke="#0058ad" points="793.566,-162.5 793.566,-191.5 "/>
<text text-anchor="middle" x="822.066" y="-173.3" font-family="Times,serif" font-size="14.00" fill="#0058ad">a 380 1</text>
</g>
<!-- T5529&#45;&gt;T5551 -->
<g id="edge9" class="edge"><title>T5529:f2&#45;&gt;T5551:f1</title>
<path fill="none" stroke="#c02700" d="M859.066,-324C859.066,-266.642 826.275,-254.291 822.432,-202.207"/>
<polygon fill="#c02700" stroke="#c02700" points="825.922,-201.868 822.066,-192 818.927,-202.119 825.922,-201.868"/>
<text text-anchor="middle" x="858.066" y="-254.3" font-family="Times,serif" font-size="14.00" fill="#c02700">ww</text>
</g>
<!-- T5487 -->
<g id="node7" class="node"><title>T5487</title>
<polygon fill="none" stroke="#0058ad" points="31.566,-405.5 31.566,-434.5 316.566,-434.5 316.566,-405.5 31.566,-405.5"/>
<text text-anchor="middle" x="60.066" y="-416.3" font-family="Times,serif" font-size="14.00" fill="#0058ad">a 379 2</text>
<polyline fill="none" stroke="#0058ad" points="88.566,-405.5 88.566,-434.5 "/>
<text text-anchor="middle" x="126.066" y="-416.3" font-family="Times,serif" font-size="14.00" fill="#0058ad">r 374 [1 6]</text>
<polyline fill="none" stroke="#0058ad" points="163.566,-405.5 163.566,-434.5 "/>
<text text-anchor="middle" x="192.066" y="-416.3" font-family="Times,serif" font-size="14.00" fill="#0058ad">a 379 3</text>
<polyline fill="none" stroke="#0058ad" points="220.566,-405.5 220.566,-434.5 "/>
<text text-anchor="middle" x="268.566" y="-416.3" font-family="Times,serif" font-size="14.00" fill="#0058ad">r 379 [8 4 2 3]</text>
</g>
<!-- T5487&#45;&gt;T5481 -->
<g id="edge12" class="edge"><title>T5487:f1&#45;&gt;T5481:f0</title>
<path fill="none" stroke="#5b00c0" d="M126.066,-435C126.066,-464.364 123.733,-471.644 123.066,-501 122.763,-514.33 120.701,-517.878 123.066,-531 126.652,-550.9 137.52,-556.265 140.989,-571.62"/>
<polygon fill="#5b00c0" stroke="#5b00c0" points="137.553,-572.415 142.066,-582 144.515,-571.692 137.553,-572.415"/>
<text text-anchor="middle" x="130.566" y="-512.3" font-family="Times,serif" font-size="14.00" fill="#5b00c0">rw</text>
</g>
<!-- T5499 -->
<g id="node17" class="node"><title>T5499</title>
<polygon fill="none" stroke="#0058ad" points="87.566,-324.5 87.566,-353.5 308.566,-353.5 308.566,-324.5 87.566,-324.5"/>
<text text-anchor="middle" x="116.066" y="-335.3" font-family="Times,serif" font-size="14.00" fill="#0058ad">a 379 6</text>
<polyline fill="none" stroke="#0058ad" points="144.566,-324.5 144.566,-353.5 "/>
<text text-anchor="middle" x="198.066" y="-335.3" font-family="Times,serif" font-size="14.00" fill="#0058ad">r 379 [8 4 2 3 6]</text>
<polyline fill="none" stroke="#0058ad" points="251.566,-324.5 251.566,-353.5 "/>
<text text-anchor="middle" x="280.066" y="-335.3" font-family="Times,serif" font-size="14.00" fill="#0058ad">a 379 7</text>
</g>
<!-- T5487&#45;&gt;T5499 -->
<g id="edge13" class="edge"><title>T5487:f2&#45;&gt;T5499:f0</title>
<path fill="none" stroke="#c02700" d="M192.066,-405C192.066,-368.294 130.185,-389.427 118.099,-364.017"/>
<polygon fill="#c02700" stroke="#c02700" points="121.485,-363.104 116.066,-354 114.625,-364.496 121.485,-363.104"/>
<text text-anchor="middle" x="193.066" y="-375.8" font-family="Times,serif" font-size="14.00" fill="#c02700">ww</text>
</g>
<!-- T5473 -->
<g id="node8" class="node"><title>T5473</title>
<polygon fill="none" stroke="#0058ad" points="801.566,-825.5 801.566,-854.5 858.566,-854.5 858.566,-825.5 801.566,-825.5"/>
<text text-anchor="middle" x="830.066" y="-836.3" font-family="Times,serif" font-size="14.00" fill="#0058ad">a 380 6</text>
</g>
<!-- T5473&#45;&gt;T5483 -->
<g id="edge16" class="edge"><title>T5473:f0&#45;&gt;T5483:f0</title>
<path fill="none" stroke="#c000a5" d="M803.336,-825.401C802.912,-825.261 802.488,-825.127 802.066,-825 746.507,-808.291 304.501,-832.442 256.322,-783.289"/>
<polygon fill="#c000a5" stroke="#c000a5" points="259.414,-781.633 252.066,-774 253.05,-784.549 259.414,-781.633"/>
<text text-anchor="middle" x="343.566" y="-795.8" font-family="Times,serif" font-size="14.00" fill="#c000a5">wr</text>
</g>
<!-- T5489 -->
<g id="node14" class="node"><title>T5489</title>
<polygon fill="none" stroke="#0058ad" points="784.066,-663.5 784.066,-692.5 986.066,-692.5 986.066,-663.5 784.066,-663.5"/>
<text text-anchor="middle" x="813.066" y="-674.3" font-family="Times,serif" font-size="14.00" fill="#0058ad">r 381 []</text>
<polyline fill="none" stroke="#0058ad" points="842.066,-663.5 842.066,-692.5 "/>
<text text-anchor="middle" x="885.066" y="-674.3" font-family="Times,serif" font-size="14.00" fill="#0058ad">r 380 [2 4 6]</text>
<polyline fill="none" stroke="#0058ad" points="928.066,-663.5 928.066,-692.5 "/>
<text text-anchor="middle" x="957.066" y="-674.3" font-family="Times,serif" font-size="14.00" fill="#0058ad">r 381 []</text>
</g>
<!-- T5473&#45;&gt;T5489 -->
<g id="edge14" class="edge"><title>T5473:f0&#45;&gt;T5489:f1</title>
<path fill="none" stroke="#c000a5" d="M839.646,-825.238C854.358,-801.202 881.188,-751.437 884.686,-703.249"/>
<polygon fill="#c000a5" stroke="#c000a5" points="888.193,-703.123 885.066,-693 881.198,-702.864 888.193,-703.123"/>
<text text-anchor="middle" x="884.566" y="-755.3" font-family="Times,serif" font-size="14.00" fill="#c000a5">wr</text>
</g>
<!-- T5473&#45;&gt;T5509 -->
<g id="edge15" class="edge"><title>T5473:f0&#45;&gt;T5509:f1</title>
<path fill="none" stroke="#c02700" d="M821.721,-825.33C803.162,-791.338 759.819,-703.854 756.295,-622.412"/>
<polygon fill="#c02700" stroke="#c02700" points="759.785,-621.921 756.066,-612 752.786,-622.074 759.785,-621.921"/>
<text text-anchor="middle" x="788.066" y="-714.8" font-family="Times,serif" font-size="14.00" fill="#c02700">ww</text>
</g>
<!-- T5515 -->
<g id="node9" class="node"><title>T5515</title>
<polygon fill="none" stroke="#0058ad" points="373.066,-405.5 373.066,-434.5 619.066,-434.5 619.066,-405.5 373.066,-405.5"/>
<text text-anchor="middle" x="401.566" y="-416.3" font-family="Times,serif" font-size="14.00" fill="#0058ad">a 376 4</text>
<polyline fill="none" stroke="#0058ad" points="430.066,-405.5 430.066,-434.5 "/>
<text text-anchor="middle" x="458.566" y="-416.3" font-family="Times,serif" font-size="14.00" fill="#0058ad">a 384 2</text>
<polyline fill="none" stroke="#0058ad" points="487.066,-405.5 487.066,-434.5 "/>
<text text-anchor="middle" x="524.566" y="-416.3" font-family="Times,serif" font-size="14.00" fill="#0058ad">r 384 [4 2]</text>
<polyline fill="none" stroke="#0058ad" points="562.066,-405.5 562.066,-434.5 "/>
<text text-anchor="middle" x="590.566" y="-416.3" font-family="Times,serif" font-size="14.00" fill="#0058ad">a 384 3</text>
</g>
<!-- T5515&#45;&gt;T5529 -->
<g id="edge17" class="edge"><title>T5515:f0&#45;&gt;T5529:f0</title>
<path fill="none" stroke="#c000a5" d="M401.066,-405C401.066,-346.985 586.568,-339.641 657.681,-339.044"/>
<polygon fill="#c000a5" stroke="#c000a5" points="658.081,-342.543 668.066,-339 658.051,-335.543 658.081,-342.543"/>
<text text-anchor="middle" x="435.566" y="-375.8" font-family="Times,serif" font-size="14.00" fill="#c000a5">wr</text>
</g>
<!-- T5566&#45;&gt;T5564 -->
<g id="edge19" class="edge"><title>T5566:f0&#45;&gt;T5564:f1</title>
<path fill="none" stroke="#c02700" d="M603.066,-243C603.066,-224.229 603.066,-217.117 603.066,-202.354"/>
<polygon fill="#c02700" stroke="#c02700" points="606.566,-202 603.066,-192 599.566,-202 606.566,-202"/>
<text text-anchor="middle" x="613.066" y="-213.8" font-family="Times,serif" font-size="14.00" fill="#c02700">ww</text>
</g>
<!-- T5566&#45;&gt;T5551 -->
<g id="edge18" class="edge"><title>T5566:f1&#45;&gt;T5551:f0</title>
<path fill="none" stroke="#c000a5" d="M660.066,-243C660.066,-208.888 715.279,-225.509 726.925,-202.099"/>
<polygon fill="#c000a5" stroke="#c000a5" points="730.416,-202.508 729.066,-192 723.568,-201.057 730.416,-202.508"/>
<text text-anchor="middle" x="726.566" y="-213.8" font-family="Times,serif" font-size="14.00" fill="#c000a5">wr</text>
</g>
<!-- T5500 -->
<g id="node13" class="node"><title>T5500</title>
<polygon fill="none" stroke="#0058ad" points="306.066,-501.5 306.066,-530.5 634.066,-530.5 634.066,-501.5 306.066,-501.5"/>
<text text-anchor="middle" x="334.566" y="-512.3" font-family="Times,serif" font-size="14.00" fill="#0058ad">a 376 3</text>
<polyline fill="none" stroke="#0058ad" points="363.066,-501.5 363.066,-530.5 "/>
<text text-anchor="middle" x="427.066" y="-512.3" font-family="Times,serif" font-size="14.00" fill="#0058ad">r 322 [1 2 4 3 5 6 8]</text>
<polyline fill="none" stroke="#0058ad" points="491.066,-501.5 491.066,-530.5 "/>
<text text-anchor="middle" x="519.566" y="-512.3" font-family="Times,serif" font-size="14.00" fill="#0058ad">a 370 6</text>
<polyline fill="none" stroke="#0058ad" points="548.066,-501.5 548.066,-530.5 "/>
<text text-anchor="middle" x="591.066" y="-512.3" font-family="Times,serif" font-size="14.00" fill="#0058ad">r 374 [1 6 7]</text>
</g>
<!-- T5481&#45;&gt;T5500 -->
<g id="edge21" class="edge"><title>T5481:f0&#45;&gt;T5500:f3</title>
<path fill="none" stroke="#c000a5" d="M142.066,-582C142.066,-555.002 167.353,-557.23 193.066,-549 212.252,-542.859 526.211,-551.321 582.47,-536.203"/>
<polygon fill="#c000a5" stroke="#c000a5" points="584.323,-539.172 591.066,-531 580.699,-533.184 584.323,-539.172"/>
<text text-anchor="middle" x="200.566" y="-552.8" font-family="Times,serif" font-size="14.00" fill="#c000a5">wr</text>
</g>
<!-- T5475 -->
<g id="node20" class="node"><title>T5475</title>
<polygon fill="none" stroke="#0058ad" points="147.066,-501.5 147.066,-530.5 269.066,-530.5 269.066,-501.5 147.066,-501.5"/>
<text text-anchor="middle" x="179.566" y="-512.3" font-family="Times,serif" font-size="14.00" fill="#0058ad">r 379 [8]</text>
<polyline fill="none" stroke="#0058ad" points="212.066,-501.5 212.066,-530.5 "/>
<text text-anchor="middle" x="240.566" y="-512.3" font-family="Times,serif" font-size="14.00" fill="#0058ad">a 379 4</text>
</g>
<!-- T5481&#45;&gt;T5475 -->
<g id="edge20" class="edge"><title>T5481:f1&#45;&gt;T5475:f1</title>
<path fill="none" stroke="#5b00c0" d="M204.066,-582C204.066,-557.934 231.391,-558.248 239.077,-541.039"/>
<polygon fill="#5b00c0" stroke="#5b00c0" points="242.555,-541.49 241.066,-531 235.689,-540.129 242.555,-541.49"/>
<text text-anchor="middle" x="241.566" y="-552.8" font-family="Times,serif" font-size="14.00" fill="#5b00c0">rw</text>
</g>
<!-- T5503 -->
<g id="node12" class="node"><title>T5503</title>
<polygon fill="none" stroke="#0058ad" points="796.566,-453.5 796.566,-482.5 853.566,-482.5 853.566,-453.5 796.566,-453.5"/>
<text text-anchor="middle" x="825.066" y="-464.3" font-family="Times,serif" font-size="14.00" fill="#0058ad">a 380 8</text>
</g>
<!-- T5503&#45;&gt;T5529 -->
<g id="edge22" class="edge"><title>T5503:f0&#45;&gt;T5529:f2</title>
<path fill="none" stroke="#c02700" d="M832.443,-453.297C841.545,-433.89 856.133,-398.178 858.68,-364.045"/>
<polygon fill="#c02700" stroke="#c02700" points="862.18,-364.127 859.066,-354 855.185,-363.858 862.18,-364.127"/>
<text text-anchor="middle" x="861.066" y="-416.3" font-family="Times,serif" font-size="14.00" fill="#c02700">ww</text>
</g>
<!-- T5500&#45;&gt;T5564 -->
<g id="edge25" class="edge"><title>T5500:f2&#45;&gt;T5564:f0</title>
<path fill="none" stroke="#c000a5" d="M520.066,-501C520.066,-464.999 385.892,-507.008 359.066,-483 338.016,-464.161 345.066,-449.249 345.066,-421 345.066,-421 345.066,-421 345.066,-257 345.066,-195.931 395.792,-178.774 455.94,-177.134"/>
<polygon fill="#c000a5" stroke="#c000a5" points="456.113,-180.633 466.066,-177 456.02,-173.633 456.113,-180.633"/>
<text text-anchor="middle" x="352.566" y="-335.3" font-family="Times,serif" font-size="14.00" fill="#c000a5">wr</text>
</g>
<!-- T5500&#45;&gt;T5515 -->
<g id="edge23" class="edge"><title>T5500:f0&#45;&gt;T5515:f0</title>
<path fill="none" stroke="#c02700" d="M334.066,-501C334.066,-487.309 348.937,-492.212 359.066,-483 377.17,-466.535 395.317,-463.852 399.941,-445.188"/>
<polygon fill="#c02700" stroke="#c02700" points="403.447,-445.324 401.066,-435 396.489,-444.555 403.447,-445.324"/>
<text text-anchor="middle" x="407.066" y="-464.3" font-family="Times,serif" font-size="14.00" fill="#c02700">ww</text>
</g>
<!-- T5500&#45;&gt;T5566 -->
<g id="edge24" class="edge"><title>T5500:f2&#45;&gt;T5566:f2</title>
<path fill="none" stroke="#c000a5" d="M520.066,-501C520.066,-444.747 593.957,-479.733 628.066,-435 659.197,-394.173 627.455,-363.655 660.066,-324 671.176,-310.49 680.095,-315.047 695.066,-306 713.497,-294.862 734.286,-297.197 740.332,-282.867"/>
<polygon fill="#c000a5" stroke="#c000a5" points="743.782,-283.455 742.066,-273 736.888,-282.243 743.782,-283.455"/>
<text text-anchor="middle" x="651.566" y="-375.8" font-family="Times,serif" font-size="14.00" fill="#c000a5">wr</text>
</g>
<!-- T5489&#45;&gt;T5777 -->
<g id="edge27" class="edge"><title>T5489:f0&#45;&gt;T5777:f1</title>
<path fill="none" stroke="#5b00c0" d="M813.066,-663C813.066,-642.822 883.24,-652.261 902.066,-645 940.184,-630.298 981.066,-638.855 981.066,-598 981.066,-598 981.066,-598 981.066,-95 981.066,-86.1589 932.616,-55.3359 915.205,-38.595"/>
<polygon fill="#5b00c0" stroke="#5b00c0" points="917.726,-36.1034 909.066,-30 912.03,-40.1718 917.726,-36.1034"/>
<text text-anchor="middle" x="988.566" y="-335.3" font-family="Times,serif" font-size="14.00" fill="#5b00c0">rw</text>
</g>
<!-- T5489&#45;&gt;T5509 -->
<g id="edge26" class="edge"><title>T5489:f1&#45;&gt;T5509:f1</title>
<path fill="none" stroke="#5b00c0" d="M885.066,-663C885.066,-613.18 844.15,-598.812 795.271,-597.166"/>
<polygon fill="#5b00c0" stroke="#5b00c0" points="795.122,-593.664 785.066,-597 795.008,-600.663 795.122,-593.664"/>
<text text-anchor="middle" x="890.566" y="-633.8" font-family="Times,serif" font-size="14.00" fill="#5b00c0">rw</text>
</g>
<!-- T5460&#45;&gt;T5473 -->
<g id="edge28" class="edge"><title>T5460:f0&#45;&gt;T5473:f0</title>
<path fill="none" stroke="#c02700" d="M901.368,-987.481C897.448,-968.204 889.178,-933.407 876.066,-906 868.742,-890.691 858.007,-875.046 848.75,-862.833"/>
<polygon fill="#c02700" stroke="#c02700" points="851.245,-860.34 842.34,-854.6 845.722,-864.64 851.245,-860.34"/>
<text text-anchor="middle" x="898.066" y="-917.3" font-family="Times,serif" font-size="14.00" fill="#c02700">ww</text>
</g>
<!-- T5469 -->
<g id="node18" class="node"><title>T5469</title>
<polygon fill="none" stroke="#0058ad" points="792.566,-906.5 792.566,-935.5 867.566,-935.5 867.566,-906.5 792.566,-906.5"/>
<text text-anchor="middle" x="830.066" y="-917.3" font-family="Times,serif" font-size="14.00" fill="#0058ad">r 380 [2 4]</text>
</g>
<!-- T5460&#45;&gt;T5469 -->
<g id="edge29" class="edge"><title>T5460:f0&#45;&gt;T5469:f0</title>
<path fill="none" stroke="#c000a5" d="M890.493,-987.143C879.332,-974.926 863.339,-957.42 850.609,-943.487"/>
<polygon fill="#c000a5" stroke="#c000a5" points="852.882,-940.785 843.553,-935.762 847.714,-945.506 852.882,-940.785"/>
<text text-anchor="middle" x="881.566" y="-957.8" font-family="Times,serif" font-size="14.00" fill="#c000a5">wr</text>
</g>
<!-- T5509&#45;&gt;T5529 -->
<g id="edge30" class="edge"><title>T5509:f0&#45;&gt;T5529:f1</title>
<path fill="none" stroke="#c000a5" d="M698.066,-582C698.066,-573.056 703.385,-572.152 707.066,-564 747.086,-475.369 789.09,-455.975 791.915,-364.039"/>
<polygon fill="#c000a5" stroke="#c000a5" points="795.415,-364.051 792.066,-354 788.416,-363.946 795.415,-364.051"/>
<text text-anchor="middle" x="778.566" y="-464.3" font-family="Times,serif" font-size="14.00" fill="#c000a5">wr</text>
</g>
<!-- T5509&#45;&gt;T5566 -->
<g id="edge31" class="edge"><title>T5509:f0&#45;&gt;T5566:f0</title>
<path fill="none" stroke="#c02700" d="M698.066,-582C698.066,-487.379 698.77,-459.626 663.066,-372 645.017,-327.703 608.669,-324.673 603.646,-283.123"/>
<polygon fill="#c02700" stroke="#c02700" points="607.133,-282.783 603.066,-273 600.144,-283.184 607.133,-282.783"/>
<text text-anchor="middle" x="696.066" y="-416.3" font-family="Times,serif" font-size="14.00" fill="#c02700">ww</text>
</g>
<!-- T5509&#45;&gt;T5503 -->
<g id="edge32" class="edge"><title>T5509:f1&#45;&gt;T5503:f0</title>
<path fill="none" stroke="#c02700" d="M785.066,-597C828.175,-597 829.996,-530.466 827.598,-492.963"/>
<polygon fill="#c02700" stroke="#c02700" points="831.072,-492.493 826.8,-482.798 824.093,-493.041 831.072,-492.493"/>
<text text-anchor="middle" x="836.066" y="-552.8" font-family="Times,serif" font-size="14.00" fill="#c02700">ww</text>
</g>
<!-- T5499&#45;&gt;T5566 -->
<g id="edge33" class="edge"><title>T5499:f2&#45;&gt;T5566:f1</title>
<path fill="none" stroke="#c02700" d="M310.066,-339C318.888,-339 315.339,-328.256 323.066,-324 353.517,-307.228 612.04,-310.185 654.25,-281.488"/>
<polygon fill="#c02700" stroke="#c02700" points="657.301,-283.228 660.066,-273 651.526,-279.271 657.301,-283.228"/>
<text text-anchor="middle" x="639.066" y="-294.8" font-family="Times,serif" font-size="14.00" fill="#c02700">ww</text>
</g>
<!-- T5469&#45;&gt;T5473 -->
<g id="edge34" class="edge"><title>T5469:f0&#45;&gt;T5473:f0</title>
<path fill="none" stroke="#5b00c0" d="M830.066,-906.143C830.066,-894.611 830.066,-878.367 830.066,-864.863"/>
<polygon fill="#5b00c0" stroke="#5b00c0" points="833.566,-864.762 830.066,-854.762 826.566,-864.762 833.566,-864.762"/>
<text text-anchor="middle" x="837.566" y="-876.8" font-family="Times,serif" font-size="14.00" fill="#5b00c0">rw</text>
</g>
<!-- T5551&#45;&gt;T5590 -->
<g id="edge35" class="edge"><title>T5551:f1&#45;&gt;T5590:f2</title>
<path fill="none" stroke="#c02700" d="M822.066,-162C822.066,-143.229 822.066,-136.117 822.066,-121.354"/>
<polygon fill="#c02700" stroke="#c02700" points="825.566,-121 822.066,-111 818.566,-121 825.566,-121"/>
<text text-anchor="middle" x="832.066" y="-132.8" font-family="Times,serif" font-size="14.00" fill="#c02700">ww</text>
</g>
<!-- T5475&#45;&gt;T5487 -->
<g id="edge36" class="edge"><title>T5475:f1&#45;&gt;T5487:f0</title>
<path fill="none" stroke="#c02700" d="M241.066,-501C241.066,-419.054 75.2865,-511.933 61.0398,-445.011"/>
<polygon fill="#c02700" stroke="#c02700" points="64.5178,-444.614 60.066,-435 57.5507,-445.292 64.5178,-444.614"/>
<text text-anchor="middle" x="246.066" y="-464.3" font-family="Times,serif" font-size="14.00" fill="#c02700">ww</text>
</g>
<!-- T5590&#45;&gt;T5777 -->
<g id="edge37" class="edge"><title>T5590:f1&#45;&gt;T5777:f1</title>
<path fill="none" stroke="#5b00c0" d="M765.066,-81C765.066,-66.3468 872.383,-51.6351 901.727,-36.9659"/>
<polygon fill="#5b00c0" stroke="#5b00c0" points="904.222,-39.4229 909.066,-30 899.403,-34.3458 904.222,-39.4229"/>
<text text-anchor="middle" x="874.566" y="-51.8" font-family="Times,serif" font-size="14.00" fill="#5b00c0">rw</text>
</g>
</g>
</svg>
