<?xml version="1.0" encoding="UTF-8" standalone="no"?>
<!DOCTYPE svg PUBLIC "-//W3C//DTD SVG 1.1//EN"
 "http://www.w3.org/Graphics/SVG/1.1/DTD/svg11.dtd">
<!-- Generated by graphviz version 2.38.0 (20140413.2041)
 -->
<!-- Title: a_graph Pages: 1 -->
<svg width="328pt" height="200pt"
 viewBox="0.00 0.00 328.00 200.00" xmlns="http://www.w3.org/2000/svg" xmlns:xlink="http://www.w3.org/1999/xlink">
<g id="graph0" class="graph" transform="scale(1 1) rotate(0) translate(4 196)">
<title>a_graph</title>
<polygon fill="white" stroke="none" points="-4,4 -4,-196 324,-196 324,4 -4,4"/>
<!-- T719 -->
<g id="node1" class="node"><title>T719</title>
<polygon fill="none" stroke="#0058ad" points="37.5,-162.5 37.5,-191.5 264.5,-191.5 264.5,-162.5 37.5,-162.5"/>
<text text-anchor="middle" x="63" y="-173.3" font-family="Times,serif" font-size="14.00" fill="#0058ad">r 55 []</text>
<polyline fill="none" stroke="#0058ad" points="88.5,-162.5 88.5,-191.5 "/>
<text text-anchor="middle" x="117.5" y="-173.3" font-family="Times,serif" font-size="14.00" fill="#0058ad">r 53 [2]</text>
<polyline fill="none" stroke="#0058ad" points="146.5,-162.5 146.5,-191.5 "/>
<text text-anchor="middle" x="180.5" y="-173.3" font-family="Times,serif" font-size="14.00" fill="#0058ad">r 54 [2 5]</text>
<polyline fill="none" stroke="#0058ad" points="214.5,-162.5 214.5,-191.5 "/>
<text text-anchor="middle" x="239.5" y="-173.3" font-family="Times,serif" font-size="14.00" fill="#0058ad">a 54 8</text>
</g>
<!-- T703 -->
<g id="node2" class="node"><title>T703</title>
<polygon fill="none" stroke="#0058ad" points="25.5,-81.5 25.5,-110.5 226.5,-110.5 226.5,-81.5 25.5,-81.5"/>
<text text-anchor="middle" x="50.5" y="-92.3" font-family="Times,serif" font-size="14.00" fill="#0058ad">a 53 3</text>
<polyline fill="none" stroke="#0058ad" points="75.5,-81.5 75.5,-110.5 "/>
<text text-anchor="middle" x="125.5" y="-92.3" font-family="Times,serif" font-size="14.00" fill="#0058ad">r 52 [2 3 5 7 8]</text>
<polyline fill="none" stroke="#0058ad" points="175.5,-81.5 175.5,-110.5 "/>
<text text-anchor="middle" x="201" y="-92.3" font-family="Times,serif" font-size="14.00" fill="#0058ad">r 50 []</text>
</g>
<!-- T719&#45;&gt;T703 -->
<g id="edge1" class="edge"><title>T719:f1&#45;&gt;T703:f0</title>
<path fill="none" stroke="#5b00c0" d="M117,-162C117,-128.524 63.3875,-144.075 52.0786,-120.94"/>
<polygon fill="#5b00c0" stroke="#5b00c0" points="55.4729,-120.072 50,-111 48.6211,-121.505 55.4729,-120.072"/>
<text text-anchor="middle" x="115.5" y="-132.8" font-family="Times,serif" font-size="14.00" fill="#5b00c0">rw</text>
</g>
<!-- T755 -->
<g id="node3" class="node"><title>T755</title>
<polygon fill="none" stroke="#0058ad" points="0,-0.5 0,-29.5 158,-29.5 158,-0.5 0,-0.5"/>
<text text-anchor="middle" x="25" y="-11.3" font-family="Times,serif" font-size="14.00" fill="#0058ad">a 46 6</text>
<polyline fill="none" stroke="#0058ad" points="50,-0.5 50,-29.5 "/>
<text text-anchor="middle" x="75" y="-11.3" font-family="Times,serif" font-size="14.00" fill="#0058ad">a 50 1</text>
<polyline fill="none" stroke="#0058ad" points="100,-0.5 100,-29.5 "/>
<text text-anchor="middle" x="129" y="-11.3" font-family="Times,serif" font-size="14.00" fill="#0058ad">r 53 [2]</text>
</g>
<!-- T703&#45;&gt;T755 -->
<g id="edge3" class="edge"><title>T703:f2&#45;&gt;T755:f1</title>
<path fill="none" stroke="#5b00c0" d="M201,-81C201,-68.1386 109.63,-51.151 82.5045,-37.0646"/>
<polygon fill="#5b00c0" stroke="#5b00c0" points="84.6804,-34.306 75,-30 79.8822,-39.4029 84.6804,-34.306"/>
<text text-anchor="middle" x="168.5" y="-51.8" font-family="Times,serif" font-size="14.00" fill="#5b00c0">rw</text>
</g>
<!-- T726 -->
<g id="node4" class="node"><title>T726</title>
<polygon fill="none" stroke="#0058ad" points="202,-0.5 202,-29.5 320,-29.5 320,-0.5 202,-0.5"/>
<text text-anchor="middle" x="236" y="-11.3" font-family="Times,serif" font-size="14.00" fill="#0058ad">r 54 [2 5]</text>
<polyline fill="none" stroke="#0058ad" points="270,-0.5 270,-29.5 "/>
<text text-anchor="middle" x="295" y="-11.3" font-family="Times,serif" font-size="14.00" fill="#0058ad">a 53 5</text>
</g>
<!-- T703&#45;&gt;T726 -->
<g id="edge2" class="edge"><title>T703:f0&#45;&gt;T726:f1</title>
<path fill="none" stroke="#c02700" d="M50,-81C50,-52.0556 150.722,-69.1766 179,-63 201.666,-58.0491 206.696,-54.3861 229,-48 254.12,-40.8079 284.808,-55.1384 292.942,-40.0141"/>
<polygon fill="#c02700" stroke="#c02700" points="296.415,-40.4999 295,-30 289.558,-39.0906 296.415,-40.4999"/>
<text text-anchor="middle" x="239" y="-51.8" font-family="Times,serif" font-size="14.00" fill="#c02700">ww</text>
</g>
<!-- T755&#45;&gt;T703 -->
<g id="edge4" class="edge"><title>T755:f2&#45;&gt;T703:f0</title>
<path fill="none" stroke="#5b00c0" d="M129,-30C129,-46.3178 110.806,-39.3008 97,-48 78.9486,-59.3745 58.2337,-56.9567 51.9225,-70.7667"/>
<polygon fill="#5b00c0" stroke="#5b00c0" points="48.4066,-70.5257 50,-81 55.2863,-71.8182 48.4066,-70.5257"/>
<text text-anchor="middle" x="104.5" y="-51.8" font-family="Times,serif" font-size="14.00" fill="#5b00c0">rw</text>
</g>
<!-- T726&#45;&gt;T719 -->
<g id="edge5" class="edge"><title>T726:f0&#45;&gt;T719:f3</title>
<path fill="none" stroke="#5b00c0" d="M236,-30C236,-39.8683 245.964,-38.6104 249,-48 263.538,-92.9588 243.265,-108.926 240.343,-151.789"/>
<polygon fill="#5b00c0" stroke="#5b00c0" points="236.838,-151.888 240,-162 243.834,-152.123 236.838,-151.888"/>
<text text-anchor="middle" x="262.5" y="-92.3" font-family="Times,serif" font-size="14.00" fill="#5b00c0">rw</text>
</g>
</g>
</svg>
