<?xml version="1.0" encoding="UTF-8" standalone="no"?>
<!DOCTYPE svg PUBLIC "-//W3C//DTD SVG 1.1//EN"
 "http://www.w3.org/Graphics/SVG/1.1/DTD/svg11.dtd">
<!-- Generated by graphviz version 2.38.0 (20140413.2041)
 -->
<!-- Title: a_graph Pages: 1 -->
<svg width="386pt" height="119pt"
 viewBox="0.00 0.00 386.00 119.00" xmlns="http://www.w3.org/2000/svg" xmlns:xlink="http://www.w3.org/1999/xlink">
<g id="graph0" class="graph" transform="scale(1 1) rotate(0) translate(4 115)">
<title>a_graph</title>
<polygon fill="white" stroke="none" points="-4,4 -4,-115 382,-115 382,4 -4,4"/>
<!-- T7349 -->
<g id="node1" class="node"><title>T7349</title>
<polygon fill="none" stroke="#0058ad" points="0,-81.5 0,-110.5 378,-110.5 378,-81.5 0,-81.5"/>
<text text-anchor="middle" x="53.5" y="-92.3" font-family="Times,serif" font-size="14.00" fill="#0058ad">r 510 [5 4 7 6 8]</text>
<polyline fill="none" stroke="#0058ad" points="107,-81.5 107,-110.5 "/>
<text text-anchor="middle" x="135.5" y="-92.3" font-family="Times,serif" font-size="14.00" fill="#0058ad">a 510 1</text>
<polyline fill="none" stroke="#0058ad" points="164,-81.5 164,-110.5 "/>
<text text-anchor="middle" x="217.5" y="-92.3" font-family="Times,serif" font-size="14.00" fill="#0058ad">r 509 [7 8 6 1 2]</text>
<polyline fill="none" stroke="#0058ad" points="271,-81.5 271,-110.5 "/>
<text text-anchor="middle" x="324.5" y="-92.3" font-family="Times,serif" font-size="14.00" fill="#0058ad">r 509 [7 8 6 1 2]</text>
</g>
<!-- T7345 -->
<g id="node2" class="node"><title>T7345</title>
<polygon fill="none" stroke="#0058ad" points="82,-0.5 82,-29.5 246,-29.5 246,-0.5 82,-0.5"/>
<text text-anchor="middle" x="135.5" y="-11.3" font-family="Times,serif" font-size="14.00" fill="#0058ad">r 510 [5 4 7 6 8]</text>
<polyline fill="none" stroke="#0058ad" points="189,-0.5 189,-29.5 "/>
<text text-anchor="middle" x="217.5" y="-11.3" font-family="Times,serif" font-size="14.00" fill="#0058ad">a 509 3</text>
</g>
<!-- T7349&#45;&gt;T7345 -->
<g id="edge1" class="edge"><title>T7349:f2&#45;&gt;T7345:f1</title>
<path fill="none" stroke="#5b00c0" d="M218,-81C218,-62.2292 218,-55.1168 218,-40.3535"/>
<polygon fill="#5b00c0" stroke="#5b00c0" points="221.5,-40 218,-30 214.5,-40 221.5,-40"/>
<text text-anchor="middle" x="225.5" y="-51.8" font-family="Times,serif" font-size="14.00" fill="#5b00c0">rw</text>
</g>
<!-- T7345&#45;&gt;T7349 -->
<g id="edge2" class="edge"><title>T7345:f0&#45;&gt;T7349:f1</title>
<path fill="none" stroke="#5b00c0" d="M135,-30C135,-48.7708 135,-55.8832 135,-70.6465"/>
<polygon fill="#5b00c0" stroke="#5b00c0" points="131.5,-71 135,-81 138.5,-71 131.5,-71"/>
<text text-anchor="middle" x="142.5" y="-51.8" font-family="Times,serif" font-size="14.00" fill="#5b00c0">rw</text>
</g>
</g>
</svg>
