<?xml version="1.0" encoding="UTF-8" standalone="no"?>
<!DOCTYPE svg PUBLIC "-//W3C//DTD SVG 1.1//EN"
 "http://www.w3.org/Graphics/SVG/1.1/DTD/svg11.dtd">
<!-- Generated by graphviz version 2.38.0 (20140413.2041)
 -->
<!-- Title: a_graph Pages: 1 -->
<svg width="435pt" height="281pt"
 viewBox="0.00 0.00 435.37 281.00" xmlns="http://www.w3.org/2000/svg" xmlns:xlink="http://www.w3.org/1999/xlink">
<g id="graph0" class="graph" transform="scale(1 1) rotate(0) translate(4 277)">
<title>a_graph</title>
<polygon fill="white" stroke="none" points="-4,4 -4,-277 431.373,-277 431.373,4 -4,4"/>
<!-- T4397 -->
<g id="node1" class="node"><title>T4397</title>
<polygon fill="none" stroke="#0058ad" points="47.3733,-243.5 47.3733,-272.5 265.373,-272.5 265.373,-243.5 47.3733,-243.5"/>
<text text-anchor="middle" x="75.8733" y="-254.3" font-family="Times,serif" font-size="14.00" fill="#0058ad">a 306 3</text>
<polyline fill="none" stroke="#0058ad" points="104.373,-243.5 104.373,-272.5 "/>
<text text-anchor="middle" x="136.873" y="-254.3" font-family="Times,serif" font-size="14.00" fill="#0058ad">r 308 [1]</text>
<polyline fill="none" stroke="#0058ad" points="169.373,-243.5 169.373,-272.5 "/>
<text text-anchor="middle" x="217.373" y="-254.3" font-family="Times,serif" font-size="14.00" fill="#0058ad">r 306 [1 5 8 3]</text>
</g>
<!-- T4399 -->
<g id="node3" class="node"><title>T4399</title>
<polygon fill="none" stroke="#0058ad" points="113.373,-162.5 113.373,-191.5 427.373,-191.5 427.373,-162.5 113.373,-162.5"/>
<text text-anchor="middle" x="150.873" y="-173.3" font-family="Times,serif" font-size="14.00" fill="#0058ad">r 306 [1 5]</text>
<polyline fill="none" stroke="#0058ad" points="188.373,-162.5 188.373,-191.5 "/>
<text text-anchor="middle" x="241.873" y="-173.3" font-family="Times,serif" font-size="14.00" fill="#0058ad">r 285 [1 2 3 4 5]</text>
<polyline fill="none" stroke="#0058ad" points="295.373,-162.5 295.373,-191.5 "/>
<text text-anchor="middle" x="332.873" y="-173.3" font-family="Times,serif" font-size="14.00" fill="#0058ad">r 306 [1 5]</text>
<polyline fill="none" stroke="#0058ad" points="370.373,-162.5 370.373,-191.5 "/>
<text text-anchor="middle" x="398.873" y="-173.3" font-family="Times,serif" font-size="14.00" fill="#0058ad">a 308 2</text>
</g>
<!-- T4397&#45;&gt;T4399 -->
<g id="edge1" class="edge"><title>T4397:f1&#45;&gt;T4399:f3</title>
<path fill="none" stroke="#5b00c0" d="M136.373,-243C136.373,-127.538 383.691,-300.017 398.665,-201.989"/>
<polygon fill="#5b00c0" stroke="#5b00c0" points="402.157,-202.223 399.373,-192 395.174,-201.727 402.157,-202.223"/>
<text text-anchor="middle" x="403.873" y="-213.8" font-family="Times,serif" font-size="14.00" fill="#5b00c0">rw</text>
</g>
<!-- T4384 -->
<g id="node2" class="node"><title>T4384</title>
<polygon fill="none" stroke="#0058ad" points="68.3733,-81.5 68.3733,-110.5 190.373,-110.5 190.373,-81.5 68.3733,-81.5"/>
<text text-anchor="middle" x="96.8733" y="-92.3" font-family="Times,serif" font-size="14.00" fill="#0058ad">a 306 8</text>
<polyline fill="none" stroke="#0058ad" points="125.373,-81.5 125.373,-110.5 "/>
<text text-anchor="middle" x="157.873" y="-92.3" font-family="Times,serif" font-size="14.00" fill="#0058ad">r 308 [1]</text>
</g>
<!-- T4384&#45;&gt;T4397 -->
<g id="edge2" class="edge"><title>T4384:f0&#45;&gt;T4397:f0</title>
<path fill="none" stroke="#c02700" d="M96.3733,-111C96.3733,-122.643 86.3531,-150.527 84.3733,-162 78.8396,-194.069 75.9846,-204.659 75.4618,-232.747"/>
<polygon fill="#c02700" stroke="#c02700" points="71.9598,-232.97 75.3733,-243 78.9595,-233.031 71.9598,-232.97"/>
<text text-anchor="middle" x="94.3733" y="-173.3" font-family="Times,serif" font-size="14.00" fill="#c02700">ww</text>
</g>
<!-- T4384&#45;&gt;T4399 -->
<g id="edge4" class="edge"><title>T4384:f1&#45;&gt;T4399:f3</title>
<path fill="none" stroke="#5b00c0" d="M191.373,-96C242.281,-96 246.768,-128.864 295.373,-144 314.268,-149.884 375.317,-141.955 393.934,-153.423"/>
<polygon fill="#5b00c0" stroke="#5b00c0" points="391.062,-155.43 399.373,-162 396.973,-151.681 391.062,-155.43"/>
<text text-anchor="middle" x="302.873" y="-132.8" font-family="Times,serif" font-size="14.00" fill="#5b00c0">rw</text>
</g>
<!-- T4389 -->
<g id="node4" class="node"><title>T4389</title>
<polygon fill="none" stroke="#0058ad" points="11.3733,-0.5 11.3733,-29.5 97.3733,-29.5 97.3733,-0.5 11.3733,-0.5"/>
<text text-anchor="middle" x="54.3733" y="-11.3" font-family="Times,serif" font-size="14.00" fill="#0058ad">r 306 [1 5 8]</text>
</g>
<!-- T4384&#45;&gt;T4389 -->
<g id="edge3" class="edge"><title>T4384:f0&#45;&gt;T4389:f0</title>
<path fill="none" stroke="#c000a5" d="M96.3733,-81C96.3733,-64.668 87.1063,-49.1167 77.2782,-37.2163"/>
<polygon fill="#c000a5" stroke="#c000a5" points="79.7561,-34.7359 70.4915,-29.596 74.5287,-39.3915 79.7561,-34.7359"/>
<text text-anchor="middle" x="100.873" y="-51.8" font-family="Times,serif" font-size="14.00" fill="#c000a5">wr</text>
</g>
<!-- T4399&#45;&gt;T4384 -->
<g id="edge6" class="edge"><title>T4399:f0&#45;&gt;T4384:f0</title>
<path fill="none" stroke="#5b00c0" d="M112.373,-177C99.8168,-177 97.0787,-141.757 96.5131,-121.225"/>
<polygon fill="#5b00c0" stroke="#5b00c0" points="100.01,-120.951 96.3733,-111 93.0105,-121.047 100.01,-120.951"/>
<text text-anchor="middle" x="105.873" y="-132.8" font-family="Times,serif" font-size="14.00" fill="#5b00c0">rw</text>
</g>
<!-- T4395 -->
<g id="node5" class="node"><title>T4395</title>
<polygon fill="none" stroke="#0058ad" points="281.373,-81.5 281.373,-110.5 403.373,-110.5 403.373,-81.5 281.373,-81.5"/>
<text text-anchor="middle" x="313.873" y="-92.3" font-family="Times,serif" font-size="14.00" fill="#0058ad">r 308 [1]</text>
<polyline fill="none" stroke="#0058ad" points="346.373,-81.5 346.373,-110.5 "/>
<text text-anchor="middle" x="374.873" y="-92.3" font-family="Times,serif" font-size="14.00" fill="#0058ad">a 285 6</text>
</g>
<!-- T4399&#45;&gt;T4395 -->
<g id="edge5" class="edge"><title>T4399:f1&#45;&gt;T4395:f1</title>
<path fill="none" stroke="#5b00c0" d="M241.373,-162C241.373,-138.764 323.925,-155.034 344.373,-144 358.624,-136.31 370.013,-132.658 373.918,-121.04"/>
<polygon fill="#5b00c0" stroke="#5b00c0" points="377.403,-121.399 375.373,-111 370.475,-120.395 377.403,-121.399"/>
<text text-anchor="middle" x="375.873" y="-132.8" font-family="Times,serif" font-size="14.00" fill="#5b00c0">rw</text>
</g>
<!-- T4389&#45;&gt;T4397 -->
<g id="edge7" class="edge"><title>T4389:f0&#45;&gt;T4397:f0</title>
<path fill="none" stroke="#5b00c0" d="M47.6556,-29.8349C25.4372,-80.5329 -40.0394,-244.484 36.3428,-257.215"/>
<polygon fill="#5b00c0" stroke="#5b00c0" points="36.1307,-260.709 46.3733,-258 36.677,-253.73 36.1307,-260.709"/>
<text text-anchor="middle" x="18.8733" y="-132.8" font-family="Times,serif" font-size="14.00" fill="#5b00c0">rw</text>
</g>
<!-- T4395&#45;&gt;T4399 -->
<g id="edge8" class="edge"><title>T4395:f0&#45;&gt;T4399:f3</title>
<path fill="none" stroke="#5b00c0" d="M313.373,-111C313.373,-126.606 313.747,-133.589 325.373,-144 347.24,-163.581 386.831,-137.283 396.961,-152.026"/>
<polygon fill="#5b00c0" stroke="#5b00c0" points="393.621,-153.103 399.373,-162 400.425,-151.457 393.621,-153.103"/>
<text text-anchor="middle" x="332.873" y="-132.8" font-family="Times,serif" font-size="14.00" fill="#5b00c0">rw</text>
</g>
</g>
</svg>
