<?xml version="1.0" encoding="UTF-8" standalone="no"?>
<!DOCTYPE svg PUBLIC "-//W3C//DTD SVG 1.1//EN"
 "http://www.w3.org/Graphics/SVG/1.1/DTD/svg11.dtd">
<!-- Generated by graphviz version 2.38.0 (20140413.2041)
 -->
<!-- Title: a_graph Pages: 1 -->
<svg width="321pt" height="281pt"
 viewBox="0.00 0.00 321.00 281.00" xmlns="http://www.w3.org/2000/svg" xmlns:xlink="http://www.w3.org/1999/xlink">
<g id="graph0" class="graph" transform="scale(1 1) rotate(0) translate(4 277)">
<title>a_graph</title>
<polygon fill="white" stroke="none" points="-4,4 -4,-277 317,-277 317,4 -4,4"/>
<!-- T3317 -->
<g id="node1" class="node"><title>T3317</title>
<polygon fill="none" stroke="#0058ad" points="92.5,-243.5 92.5,-272.5 235.5,-272.5 235.5,-243.5 92.5,-243.5"/>
<text text-anchor="middle" x="135.5" y="-254.3" font-family="Times,serif" font-size="14.00" fill="#0058ad">r 229 [3 5 2]</text>
<polyline fill="none" stroke="#0058ad" points="178.5,-243.5 178.5,-272.5 "/>
<text text-anchor="middle" x="207" y="-254.3" font-family="Times,serif" font-size="14.00" fill="#0058ad">a 227 3</text>
</g>
<!-- T3301 -->
<g id="node2" class="node"><title>T3301</title>
<polygon fill="none" stroke="#0058ad" points="0,-162.5 0,-191.5 278,-191.5 278,-162.5 0,-162.5"/>
<text text-anchor="middle" x="28.5" y="-173.3" font-family="Times,serif" font-size="14.00" fill="#0058ad">a 229 6</text>
<polyline fill="none" stroke="#0058ad" points="57,-162.5 57,-191.5 "/>
<text text-anchor="middle" x="85.5" y="-173.3" font-family="Times,serif" font-size="14.00" fill="#0058ad">a 229 7</text>
<polyline fill="none" stroke="#0058ad" points="114,-162.5 114,-191.5 "/>
<text text-anchor="middle" x="167.5" y="-173.3" font-family="Times,serif" font-size="14.00" fill="#0058ad">r 229 [3 5 2 6 7]</text>
<polyline fill="none" stroke="#0058ad" points="221,-162.5 221,-191.5 "/>
<text text-anchor="middle" x="249.5" y="-173.3" font-family="Times,serif" font-size="14.00" fill="#0058ad">a 231 3</text>
</g>
<!-- T3317&#45;&gt;T3301 -->
<g id="edge1" class="edge"><title>T3317:f0&#45;&gt;T3301:f0</title>
<path fill="none" stroke="#5b00c0" d="M91,-258C53.9332,-258 31.992,-236.738 28.4946,-202.114"/>
<polygon fill="#5b00c0" stroke="#5b00c0" points="31.9844,-201.817 28,-192 24.9927,-202.159 31.9844,-201.817"/>
<text text-anchor="middle" x="41.5" y="-213.8" font-family="Times,serif" font-size="14.00" fill="#5b00c0">rw</text>
</g>
<!-- T3311 -->
<g id="node3" class="node"><title>T3311</title>
<polygon fill="none" stroke="#0058ad" points="61,-81.5 61,-110.5 297,-110.5 297,-81.5 61,-81.5"/>
<text text-anchor="middle" x="98.5" y="-92.3" font-family="Times,serif" font-size="14.00" fill="#0058ad">r 227 [2 6]</text>
<polyline fill="none" stroke="#0058ad" points="136,-81.5 136,-110.5 "/>
<text text-anchor="middle" x="173.5" y="-92.3" font-family="Times,serif" font-size="14.00" fill="#0058ad">r 232 [1 5]</text>
<polyline fill="none" stroke="#0058ad" points="211,-81.5 211,-110.5 "/>
<text text-anchor="middle" x="254" y="-92.3" font-family="Times,serif" font-size="14.00" fill="#0058ad">r 231 [1 2 3]</text>
</g>
<!-- T3301&#45;&gt;T3311 -->
<g id="edge2" class="edge"><title>T3301:f3&#45;&gt;T3311:f2</title>
<path fill="none" stroke="#c000a5" d="M250,-162C250,-143.172 252.743,-136.145 253.686,-121.373"/>
<polygon fill="#c000a5" stroke="#c000a5" points="257.196,-121.101 254,-111 250.199,-120.89 257.196,-121.101"/>
<text text-anchor="middle" x="260.5" y="-132.8" font-family="Times,serif" font-size="14.00" fill="#c000a5">wr</text>
</g>
<!-- T3311&#45;&gt;T3317 -->
<g id="edge4" class="edge"><title>T3311:f0&#45;&gt;T3317:f1</title>
<path fill="none" stroke="#5b00c0" d="M98,-111C98,-149.873 240.444,-106.299 272,-129 317.398,-161.659 298.95,-247.153 247.069,-257.06"/>
<polygon fill="#5b00c0" stroke="#5b00c0" points="246.631,-253.585 237,-258 247.282,-260.555 246.631,-253.585"/>
<text text-anchor="middle" x="305.5" y="-173.3" font-family="Times,serif" font-size="14.00" fill="#5b00c0">rw</text>
</g>
<!-- T3307 -->
<g id="node4" class="node"><title>T3307</title>
<polygon fill="none" stroke="#0058ad" points="3,-0.5 3,-29.5 289,-29.5 289,-0.5 3,-0.5"/>
<text text-anchor="middle" x="46" y="-11.3" font-family="Times,serif" font-size="14.00" fill="#0058ad">r 229 [3 5 2]</text>
<polyline fill="none" stroke="#0058ad" points="89,-0.5 89,-29.5 "/>
<text text-anchor="middle" x="117.5" y="-11.3" font-family="Times,serif" font-size="14.00" fill="#0058ad">a 232 2</text>
<polyline fill="none" stroke="#0058ad" points="146,-0.5 146,-29.5 "/>
<text text-anchor="middle" x="189" y="-11.3" font-family="Times,serif" font-size="14.00" fill="#0058ad">r 229 [3 5 2]</text>
<polyline fill="none" stroke="#0058ad" points="232,-0.5 232,-29.5 "/>
<text text-anchor="middle" x="260.5" y="-11.3" font-family="Times,serif" font-size="14.00" fill="#0058ad">a 232 3</text>
</g>
<!-- T3311&#45;&gt;T3307 -->
<g id="edge3" class="edge"><title>T3311:f1&#45;&gt;T3307:f1</title>
<path fill="none" stroke="#5b00c0" d="M173,-81C173,-51.2814 129.356,-60.5234 119.127,-39.9362"/>
<polygon fill="#5b00c0" stroke="#5b00c0" points="122.516,-39.0459 117,-30 115.671,-40.5111 122.516,-39.0459"/>
<text text-anchor="middle" x="170.5" y="-51.8" font-family="Times,serif" font-size="14.00" fill="#5b00c0">rw</text>
</g>
<!-- T3307&#45;&gt;T3301 -->
<g id="edge5" class="edge"><title>T3307:f0&#45;&gt;T3301:f0</title>
<path fill="none" stroke="#5b00c0" d="M46,-30C46,-53.0169 40.2726,-58.2169 37,-81 32.373,-113.212 28.7954,-123.688 28.1165,-151.752"/>
<polygon fill="#5b00c0" stroke="#5b00c0" points="24.614,-151.961 28,-162 31.6135,-152.04 24.614,-151.961"/>
<text text-anchor="middle" x="44.5" y="-92.3" font-family="Times,serif" font-size="14.00" fill="#5b00c0">rw</text>
</g>
</g>
</svg>
