<?xml version="1.0" encoding="UTF-8" standalone="no"?>
<!DOCTYPE svg PUBLIC "-//W3C//DTD SVG 1.1//EN"
 "http://www.w3.org/Graphics/SVG/1.1/DTD/svg11.dtd">
<!-- Generated by graphviz version 2.38.0 (20140413.2041)
 -->
<!-- Title: a_graph Pages: 1 -->
<svg width="331pt" height="443pt"
 viewBox="0.00 0.00 331.00 443.00" xmlns="http://www.w3.org/2000/svg" xmlns:xlink="http://www.w3.org/1999/xlink">
<g id="graph0" class="graph" transform="scale(1 1) rotate(0) translate(4 439)">
<title>a_graph</title>
<polygon fill="white" stroke="none" points="-4,4 -4,-439 327,-439 327,4 -4,4"/>
<!-- T619 -->
<g id="node1" class="node"><title>T619</title>
<polygon fill="none" stroke="#0058ad" points="269,-405.5 269,-434.5 323,-434.5 323,-405.5 269,-405.5"/>
<text text-anchor="middle" x="296" y="-416.3" font-family="Times,serif" font-size="14.00" fill="#0058ad">a 48 4</text>
</g>
<!-- T621 -->
<g id="node2" class="node"><title>T621</title>
<polygon fill="none" stroke="#0058ad" points="7,-324.5 7,-353.5 157,-353.5 157,-324.5 7,-324.5"/>
<text text-anchor="middle" x="32" y="-335.3" font-family="Times,serif" font-size="14.00" fill="#0058ad">a 48 6</text>
<polyline fill="none" stroke="#0058ad" points="57,-324.5 57,-353.5 "/>
<text text-anchor="middle" x="82" y="-335.3" font-family="Times,serif" font-size="14.00" fill="#0058ad">a 48 7</text>
<polyline fill="none" stroke="#0058ad" points="107,-324.5 107,-353.5 "/>
<text text-anchor="middle" x="132" y="-335.3" font-family="Times,serif" font-size="14.00" fill="#0058ad">a 48 8</text>
</g>
<!-- T619&#45;&gt;T621 -->
<g id="edge1" class="edge"><title>T619:f0&#45;&gt;T621:f0</title>
<path fill="none" stroke="#c02700" d="M270.208,-405.468C269.804,-405.307 269.402,-405.151 269,-405 221.921,-387.305 56.1787,-405.153 34.3737,-363.765"/>
<polygon fill="#c02700" stroke="#c02700" points="37.7631,-362.89 32,-354 30.9612,-364.544 37.7631,-362.89"/>
<text text-anchor="middle" x="89" y="-375.8" font-family="Times,serif" font-size="14.00" fill="#c02700">ww</text>
</g>
<!-- T631 -->
<g id="node4" class="node"><title>T631</title>
<polygon fill="none" stroke="#0058ad" points="41,-243.5 41,-272.5 251,-272.5 251,-243.5 41,-243.5"/>
<text text-anchor="middle" x="66" y="-254.3" font-family="Times,serif" font-size="14.00" fill="#0058ad">a 48 3</text>
<polyline fill="none" stroke="#0058ad" points="91,-243.5 91,-272.5 "/>
<text text-anchor="middle" x="116" y="-254.3" font-family="Times,serif" font-size="14.00" fill="#0058ad">a 47 5</text>
<polyline fill="none" stroke="#0058ad" points="141,-243.5 141,-272.5 "/>
<text text-anchor="middle" x="196" y="-254.3" font-family="Times,serif" font-size="14.00" fill="#0058ad">r 48 [1 4 6 7 8 3]</text>
</g>
<!-- T621&#45;&gt;T631 -->
<g id="edge2" class="edge"><title>T621:f2&#45;&gt;T631:f0</title>
<path fill="none" stroke="#c02700" d="M132,-324C132,-290.839 79.1877,-305.859 68.0476,-282.861"/>
<polygon fill="#c02700" stroke="#c02700" points="71.46,-282.08 66,-273 64.6062,-283.503 71.46,-282.08"/>
<text text-anchor="middle" x="131" y="-294.8" font-family="Times,serif" font-size="14.00" fill="#c02700">ww</text>
</g>
<!-- T625 -->
<g id="node3" class="node"><title>T625</title>
<polygon fill="none" stroke="#0058ad" points="137,-0.5 137,-29.5 245,-29.5 245,-0.5 137,-0.5"/>
<text text-anchor="middle" x="162" y="-11.3" font-family="Times,serif" font-size="14.00" fill="#0058ad">a 46 3</text>
<polyline fill="none" stroke="#0058ad" points="187,-0.5 187,-29.5 "/>
<text text-anchor="middle" x="216" y="-11.3" font-family="Times,serif" font-size="14.00" fill="#0058ad">r 48 [1]</text>
</g>
<!-- T625&#45;&gt;T619 -->
<g id="edge3" class="edge"><title>T625:f1&#45;&gt;T619:f0</title>
<path fill="none" stroke="#5b00c0" d="M246,-15C288.407,-15 298,-52.5934 298,-95 298,-340 298,-340 298,-340 298,-358.513 297.458,-379.428 296.939,-395.228"/>
<polygon fill="#5b00c0" stroke="#5b00c0" points="293.439,-395.142 296.589,-405.258 300.435,-395.386 293.439,-395.142"/>
<text text-anchor="middle" x="305.5" y="-213.8" font-family="Times,serif" font-size="14.00" fill="#5b00c0">rw</text>
</g>
<!-- T639 -->
<g id="node5" class="node"><title>T639</title>
<polygon fill="none" stroke="#0058ad" points="4,-162.5 4,-191.5 144,-191.5 144,-162.5 4,-162.5"/>
<text text-anchor="middle" x="29.5" y="-173.3" font-family="Times,serif" font-size="14.00" fill="#0058ad">r 49 []</text>
<polyline fill="none" stroke="#0058ad" points="55,-162.5 55,-191.5 "/>
<text text-anchor="middle" x="99.5" y="-173.3" font-family="Times,serif" font-size="14.00" fill="#0058ad">r 47 [1 4 6 5]</text>
</g>
<!-- T631&#45;&gt;T639 -->
<g id="edge4" class="edge"><title>T631:f1&#45;&gt;T639:f1</title>
<path fill="none" stroke="#c000a5" d="M116,-243C116,-223.142 104.819,-217.446 101.151,-202.235"/>
<polygon fill="#c000a5" stroke="#c000a5" points="104.595,-201.546 100,-192 97.6392,-202.328 104.595,-201.546"/>
<text text-anchor="middle" x="119.5" y="-213.8" font-family="Times,serif" font-size="14.00" fill="#c000a5">wr</text>
</g>
<!-- T637 -->
<g id="node6" class="node"><title>T637</title>
<polygon fill="none" stroke="#0058ad" points="0,-81.5 0,-110.5 270,-110.5 270,-81.5 0,-81.5"/>
<text text-anchor="middle" x="25" y="-92.3" font-family="Times,serif" font-size="14.00" fill="#0058ad">a 49 1</text>
<polyline fill="none" stroke="#0058ad" points="50,-81.5 50,-110.5 "/>
<text text-anchor="middle" x="79" y="-92.3" font-family="Times,serif" font-size="14.00" fill="#0058ad">r 46 [1]</text>
<polyline fill="none" stroke="#0058ad" points="108,-81.5 108,-110.5 "/>
<text text-anchor="middle" x="137" y="-92.3" font-family="Times,serif" font-size="14.00" fill="#0058ad">r 46 [1]</text>
<polyline fill="none" stroke="#0058ad" points="166,-81.5 166,-110.5 "/>
<text text-anchor="middle" x="218" y="-92.3" font-family="Times,serif" font-size="14.00" fill="#0058ad">r 5 [1 2 3 4 5 6]</text>
</g>
<!-- T639&#45;&gt;T637 -->
<g id="edge5" class="edge"><title>T639:f0&#45;&gt;T637:f0</title>
<path fill="none" stroke="#5b00c0" d="M29,-162C29,-143.172 26.2568,-136.145 25.3139,-121.373"/>
<polygon fill="#5b00c0" stroke="#5b00c0" points="28.8009,-120.89 25,-111 21.8041,-121.101 28.8009,-120.89"/>
<text text-anchor="middle" x="35.5" y="-132.8" font-family="Times,serif" font-size="14.00" fill="#5b00c0">rw</text>
</g>
<!-- T637&#45;&gt;T625 -->
<g id="edge6" class="edge"><title>T637:f1&#45;&gt;T625:f0</title>
<path fill="none" stroke="#5b00c0" d="M79,-81C79,-45.8751 93.9815,-20.209 125.638,-15.7053"/>
<polygon fill="#5b00c0" stroke="#5b00c0" points="126.261,-19.1711 136,-15 125.785,-12.1873 126.261,-19.1711"/>
<text text-anchor="middle" x="91.5" y="-51.8" font-family="Times,serif" font-size="14.00" fill="#5b00c0">rw</text>
</g>
</g>
</svg>
