<?xml version="1.0" encoding="UTF-8" standalone="no"?>
<!DOCTYPE svg PUBLIC "-//W3C//DTD SVG 1.1//EN"
 "http://www.w3.org/Graphics/SVG/1.1/DTD/svg11.dtd">
<!-- Generated by graphviz version 2.38.0 (20140413.2041)
 -->
<!-- Title: a_graph Pages: 1 -->
<svg width="370pt" height="119pt"
 viewBox="0.00 0.00 369.50 119.00" xmlns="http://www.w3.org/2000/svg" xmlns:xlink="http://www.w3.org/1999/xlink">
<g id="graph0" class="graph" transform="scale(1 1) rotate(0) translate(4 115)">
<title>a_graph</title>
<polygon fill="white" stroke="none" points="-4,4 -4,-115 365.5,-115 365.5,4 -4,4"/>
<!-- T6588 -->
<g id="node1" class="node"><title>T6588</title>
<polygon fill="none" stroke="#0058ad" points="0,-81.5 0,-110.5 262,-110.5 262,-81.5 0,-81.5"/>
<text text-anchor="middle" x="32.5" y="-92.3" font-family="Times,serif" font-size="14.00" fill="#0058ad">r 458 [1]</text>
<polyline fill="none" stroke="#0058ad" points="65,-81.5 65,-110.5 "/>
<text text-anchor="middle" x="97.5" y="-92.3" font-family="Times,serif" font-size="14.00" fill="#0058ad">r 458 [1]</text>
<polyline fill="none" stroke="#0058ad" points="130,-81.5 130,-110.5 "/>
<text text-anchor="middle" x="167.5" y="-92.3" font-family="Times,serif" font-size="14.00" fill="#0058ad">r 457 [1 2]</text>
<polyline fill="none" stroke="#0058ad" points="205,-81.5 205,-110.5 "/>
<text text-anchor="middle" x="233.5" y="-92.3" font-family="Times,serif" font-size="14.00" fill="#0058ad">a 458 5</text>
</g>
<!-- T6586 -->
<g id="node2" class="node"><title>T6586</title>
<polygon fill="none" stroke="#0058ad" points="88.5,-0.5 88.5,-29.5 361.5,-29.5 361.5,-0.5 88.5,-0.5"/>
<text text-anchor="middle" x="117" y="-11.3" font-family="Times,serif" font-size="14.00" fill="#0058ad">a 457 3</text>
<polyline fill="none" stroke="#0058ad" points="145.5,-0.5 145.5,-29.5 "/>
<text text-anchor="middle" x="188.5" y="-11.3" font-family="Times,serif" font-size="14.00" fill="#0058ad">r 457 [1 2 3]</text>
<polyline fill="none" stroke="#0058ad" points="231.5,-0.5 231.5,-29.5 "/>
<text text-anchor="middle" x="264" y="-11.3" font-family="Times,serif" font-size="14.00" fill="#0058ad">r 458 [1]</text>
<polyline fill="none" stroke="#0058ad" points="296.5,-0.5 296.5,-29.5 "/>
<text text-anchor="middle" x="329" y="-11.3" font-family="Times,serif" font-size="14.00" fill="#0058ad">r 458 [1]</text>
</g>
<!-- T6588&#45;&gt;T6586 -->
<g id="edge1" class="edge"><title>T6588:f2&#45;&gt;T6586:f0</title>
<path fill="none" stroke="#5b00c0" d="M168,-81C168,-52.8262 128.604,-59.5425 119.062,-39.8186"/>
<polygon fill="#5b00c0" stroke="#5b00c0" points="122.481,-39.0669 117,-30 115.63,-40.5059 122.481,-39.0669"/>
<text text-anchor="middle" x="166.5" y="-51.8" font-family="Times,serif" font-size="14.00" fill="#5b00c0">rw</text>
</g>
<!-- T6586&#45;&gt;T6588 -->
<g id="edge2" class="edge"><title>T6586:f2&#45;&gt;T6588:f3</title>
<path fill="none" stroke="#5b00c0" d="M264,-30C264,-52.3939 242.245,-54.5615 235.787,-70.9507"/>
<polygon fill="#5b00c0" stroke="#5b00c0" points="232.305,-70.5417 234,-81 239.197,-71.7671 232.305,-70.5417"/>
<text text-anchor="middle" x="263.5" y="-51.8" font-family="Times,serif" font-size="14.00" fill="#5b00c0">rw</text>
</g>
</g>
</svg>
