<?xml version="1.0" encoding="UTF-8" standalone="no"?>
<!DOCTYPE svg PUBLIC "-//W3C//DTD SVG 1.1//EN"
 "http://www.w3.org/Graphics/SVG/1.1/DTD/svg11.dtd">
<!-- Generated by graphviz version 2.38.0 (20140413.2041)
 -->
<!-- Title: a_graph Pages: 1 -->
<svg width="360pt" height="200pt"
 viewBox="0.00 0.00 360.00 200.00" xmlns="http://www.w3.org/2000/svg" xmlns:xlink="http://www.w3.org/1999/xlink">
<g id="graph0" class="graph" transform="scale(1 1) rotate(0) translate(4 196)">
<title>a_graph</title>
<polygon fill="white" stroke="none" points="-4,4 -4,-196 356,-196 356,4 -4,4"/>
<!-- T4765 -->
<g id="node1" class="node"><title>T4765</title>
<polygon fill="none" stroke="#0058ad" points="0,-162.5 0,-191.5 122,-191.5 122,-162.5 0,-162.5"/>
<text text-anchor="middle" x="32.5" y="-173.3" font-family="Times,serif" font-size="14.00" fill="#0058ad">r 337 [2]</text>
<polyline fill="none" stroke="#0058ad" points="65,-162.5 65,-191.5 "/>
<text text-anchor="middle" x="93.5" y="-173.3" font-family="Times,serif" font-size="14.00" fill="#0058ad">a 337 3</text>
</g>
<!-- T4792 -->
<g id="node2" class="node"><title>T4792</title>
<polygon fill="none" stroke="#0058ad" points="74,-81.5 74,-110.5 352,-110.5 352,-81.5 74,-81.5"/>
<text text-anchor="middle" x="127.5" y="-92.3" font-family="Times,serif" font-size="14.00" fill="#0058ad">r 333 [2 4 6 3 5]</text>
<polyline fill="none" stroke="#0058ad" points="181,-81.5 181,-110.5 "/>
<text text-anchor="middle" x="218.5" y="-92.3" font-family="Times,serif" font-size="14.00" fill="#0058ad">r 337 [2 3]</text>
<polyline fill="none" stroke="#0058ad" points="256,-81.5 256,-110.5 "/>
<text text-anchor="middle" x="304" y="-92.3" font-family="Times,serif" font-size="14.00" fill="#0058ad">r 317 [1 2 3 4]</text>
</g>
<!-- T4765&#45;&gt;T4792 -->
<g id="edge1" class="edge"><title>T4765:f1&#45;&gt;T4792:f1</title>
<path fill="none" stroke="#c000a5" d="M123,-177C171.238,-177 212.919,-164.655 218.392,-121.099"/>
<polygon fill="#c000a5" stroke="#c000a5" points="221.892,-121.192 219,-111 214.905,-120.771 221.892,-121.192"/>
<text text-anchor="middle" x="223.5" y="-132.8" font-family="Times,serif" font-size="14.00" fill="#c000a5">wr</text>
</g>
<!-- T4783 -->
<g id="node3" class="node"><title>T4783</title>
<polygon fill="none" stroke="#0058ad" points="34.5,-0.5 34.5,-29.5 317.5,-29.5 317.5,-0.5 34.5,-0.5"/>
<text text-anchor="middle" x="67" y="-11.3" font-family="Times,serif" font-size="14.00" fill="#0058ad">r 337 [2]</text>
<polyline fill="none" stroke="#0058ad" points="99.5,-0.5 99.5,-29.5 "/>
<text text-anchor="middle" x="147.5" y="-11.3" font-family="Times,serif" font-size="14.00" fill="#0058ad">r 332 [3 5 4 1]</text>
<polyline fill="none" stroke="#0058ad" points="195.5,-0.5 195.5,-29.5 "/>
<text text-anchor="middle" x="224" y="-11.3" font-family="Times,serif" font-size="14.00" fill="#0058ad">a 317 6</text>
<polyline fill="none" stroke="#0058ad" points="252.5,-0.5 252.5,-29.5 "/>
<text text-anchor="middle" x="285" y="-11.3" font-family="Times,serif" font-size="14.00" fill="#0058ad">r 337 [2]</text>
</g>
<!-- T4792&#45;&gt;T4783 -->
<g id="edge2" class="edge"><title>T4792:f2&#45;&gt;T4783:f2</title>
<path fill="none" stroke="#5b00c0" d="M304,-81C304,-42.787 238.297,-66.5798 225.978,-39.9929"/>
<polygon fill="#5b00c0" stroke="#5b00c0" points="229.375,-39.1303 224,-30 222.508,-40.4892 229.375,-39.1303"/>
<text text-anchor="middle" x="301.5" y="-51.8" font-family="Times,serif" font-size="14.00" fill="#5b00c0">rw</text>
</g>
<!-- T4783&#45;&gt;T4765 -->
<g id="edge3" class="edge"><title>T4783:f0&#45;&gt;T4765:f1</title>
<path fill="none" stroke="#5b00c0" d="M67,-30C67,-66.7843 37.1823,-76.5211 50,-111 59.0461,-135.334 85.4915,-133.304 92.3565,-151.858"/>
<polygon fill="#5b00c0" stroke="#5b00c0" points="88.9454,-152.689 94,-162 95.8552,-151.569 88.9454,-152.689"/>
<text text-anchor="middle" x="57.5" y="-92.3" font-family="Times,serif" font-size="14.00" fill="#5b00c0">rw</text>
</g>
</g>
</svg>
