<?xml version="1.0" encoding="UTF-8" standalone="no"?>
<!DOCTYPE svg PUBLIC "-//W3C//DTD SVG 1.1//EN"
 "http://www.w3.org/Graphics/SVG/1.1/DTD/svg11.dtd">
<!-- Generated by graphviz version 2.38.0 (20140413.2041)
 -->
<!-- Title: a_graph Pages: 1 -->
<svg width="587pt" height="362pt"
 viewBox="0.00 0.00 587.00 362.00" xmlns="http://www.w3.org/2000/svg" xmlns:xlink="http://www.w3.org/1999/xlink">
<g id="graph0" class="graph" transform="scale(1 1) rotate(0) translate(4 358)">
<title>a_graph</title>
<polygon fill="white" stroke="none" points="-4,4 -4,-358 583,-358 583,4 -4,4"/>
<!-- T8472 -->
<g id="node1" class="node"><title>T8472</title>
<polygon fill="none" stroke="#0058ad" points="367,-324.5 367,-353.5 578,-353.5 578,-324.5 367,-324.5"/>
<text text-anchor="middle" x="395.5" y="-335.3" font-family="Times,serif" font-size="14.00" fill="#0058ad">a 586 4</text>
<polyline fill="none" stroke="#0058ad" points="424,-324.5 424,-353.5 "/>
<text text-anchor="middle" x="472" y="-335.3" font-family="Times,serif" font-size="14.00" fill="#0058ad">r 586 [1 2 3 4]</text>
<polyline fill="none" stroke="#0058ad" points="520,-324.5 520,-353.5 "/>
<text text-anchor="middle" x="549" y="-335.3" font-family="Times,serif" font-size="14.00" fill="#0058ad">r 591 []</text>
</g>
<!-- T8483 -->
<g id="node4" class="node"><title>T8483</title>
<polygon fill="none" stroke="#0058ad" points="0,-243.5 0,-272.5 367,-272.5 367,-243.5 0,-243.5"/>
<text text-anchor="middle" x="53.5" y="-254.3" font-family="Times,serif" font-size="14.00" fill="#0058ad">r 585 [2 3 4 8 1]</text>
<polyline fill="none" stroke="#0058ad" points="107,-243.5 107,-272.5 "/>
<text text-anchor="middle" x="155" y="-254.3" font-family="Times,serif" font-size="14.00" fill="#0058ad">r 586 [1 2 3 4]</text>
<polyline fill="none" stroke="#0058ad" points="203,-243.5 203,-272.5 "/>
<text text-anchor="middle" x="256.5" y="-254.3" font-family="Times,serif" font-size="14.00" fill="#0058ad">r 585 [2 3 4 8 1]</text>
<polyline fill="none" stroke="#0058ad" points="310,-243.5 310,-272.5 "/>
<text text-anchor="middle" x="338.5" y="-254.3" font-family="Times,serif" font-size="14.00" fill="#0058ad">a 586 1</text>
</g>
<!-- T8472&#45;&gt;T8483 -->
<g id="edge1" class="edge"><title>T8472:f0&#45;&gt;T8483:f1</title>
<path fill="none" stroke="#c000a5" d="M365.5,-339C319.825,-339 176.706,-324.418 156.805,-282.89"/>
<polygon fill="#c000a5" stroke="#c000a5" points="160.179,-281.944 154.5,-273 153.362,-283.533 160.179,-281.944"/>
<text text-anchor="middle" x="191" y="-294.8" font-family="Times,serif" font-size="14.00" fill="#c000a5">wr</text>
</g>
<!-- T8488 -->
<g id="node2" class="node"><title>T8488</title>
<polygon fill="none" stroke="#0058ad" points="312,-0.5 312,-29.5 579,-29.5 579,-0.5 312,-0.5"/>
<text text-anchor="middle" x="344.5" y="-11.3" font-family="Times,serif" font-size="14.00" fill="#0058ad">r 589 [1]</text>
<polyline fill="none" stroke="#0058ad" points="377,-0.5 377,-29.5 "/>
<text text-anchor="middle" x="420" y="-11.3" font-family="Times,serif" font-size="14.00" fill="#0058ad">r 586 [1 2 3]</text>
<polyline fill="none" stroke="#0058ad" points="463,-0.5 463,-29.5 "/>
<text text-anchor="middle" x="492" y="-11.3" font-family="Times,serif" font-size="14.00" fill="#0058ad">r 592 []</text>
<polyline fill="none" stroke="#0058ad" points="521,-0.5 521,-29.5 "/>
<text text-anchor="middle" x="550" y="-11.3" font-family="Times,serif" font-size="14.00" fill="#0058ad">r 592 []</text>
</g>
<!-- T8488&#45;&gt;T8472 -->
<g id="edge2" class="edge"><title>T8488:f1&#45;&gt;T8472:f0</title>
<path fill="none" stroke="#5b00c0" d="M419.5,-30C419.5,-38.7545 424.466,-39.7879 427.5,-48 435.053,-68.4455 441.5,-73.2041 441.5,-95 441.5,-259 441.5,-259 441.5,-259 441.5,-284.271 424.376,-285.572 409.5,-306 406.331,-310.352 402.577,-312.3 399.755,-314.689"/>
<polygon fill="#5b00c0" stroke="#5b00c0" points="396.474,-313.45 395.5,-324 402.84,-316.36 396.474,-313.45"/>
<text text-anchor="middle" x="449" y="-173.3" font-family="Times,serif" font-size="14.00" fill="#5b00c0">rw</text>
</g>
<!-- T8442 -->
<g id="node3" class="node"><title>T8442</title>
<polygon fill="none" stroke="#0058ad" points="253.5,-162.5 253.5,-191.5 367.5,-191.5 367.5,-162.5 253.5,-162.5"/>
<text text-anchor="middle" x="282" y="-173.3" font-family="Times,serif" font-size="14.00" fill="#0058ad">a 579 2</text>
<polyline fill="none" stroke="#0058ad" points="310.5,-162.5 310.5,-191.5 "/>
<text text-anchor="middle" x="339" y="-173.3" font-family="Times,serif" font-size="14.00" fill="#0058ad">a 586 2</text>
</g>
<!-- T8465 -->
<g id="node5" class="node"><title>T8465</title>
<polygon fill="none" stroke="#0058ad" points="241.5,-81.5 241.5,-110.5 413.5,-110.5 413.5,-81.5 241.5,-81.5"/>
<text text-anchor="middle" x="270" y="-92.3" font-family="Times,serif" font-size="14.00" fill="#0058ad">a 587 7</text>
<polyline fill="none" stroke="#0058ad" points="298.5,-81.5 298.5,-110.5 "/>
<text text-anchor="middle" x="327.5" y="-92.3" font-family="Times,serif" font-size="14.00" fill="#0058ad">r 588 []</text>
<polyline fill="none" stroke="#0058ad" points="356.5,-81.5 356.5,-110.5 "/>
<text text-anchor="middle" x="385" y="-92.3" font-family="Times,serif" font-size="14.00" fill="#0058ad">a 586 3</text>
</g>
<!-- T8442&#45;&gt;T8465 -->
<g id="edge3" class="edge"><title>T8442:f1&#45;&gt;T8465:f2</title>
<path fill="none" stroke="#c02700" d="M339.5,-162C339.5,-144.373 349.386,-141.805 361.5,-129 367.37,-122.795 375.569,-122.625 380.703,-119.799"/>
<polygon fill="#c02700" stroke="#c02700" points="383.786,-121.455 385.5,-111 377.64,-118.105 383.786,-121.455"/>
<text text-anchor="middle" x="371.5" y="-132.8" font-family="Times,serif" font-size="14.00" fill="#c02700">ww</text>
</g>
<!-- T8483&#45;&gt;T8442 -->
<g id="edge4" class="edge"><title>T8483:f3&#45;&gt;T8442:f1</title>
<path fill="none" stroke="#c02700" d="M338.5,-243C338.5,-224.226 339.186,-217.119 339.422,-202.355"/>
<polygon fill="#c02700" stroke="#c02700" points="342.924,-202.026 339.5,-192 335.924,-201.973 342.924,-202.026"/>
<text text-anchor="middle" x="349.5" y="-213.8" font-family="Times,serif" font-size="14.00" fill="#c02700">ww</text>
</g>
<!-- T8465&#45;&gt;T8472 -->
<g id="edge6" class="edge"><title>T8465:f2&#45;&gt;T8472:f0</title>
<path fill="none" stroke="#c02700" d="M385.5,-111C385.5,-202.347 394.79,-227.441 395.462,-314"/>
<polygon fill="#c02700" stroke="#c02700" points="391.962,-314.013 395.5,-324 398.962,-313.987 391.962,-314.013"/>
<text text-anchor="middle" x="401.5" y="-213.8" font-family="Times,serif" font-size="14.00" fill="#c02700">ww</text>
</g>
<!-- T8465&#45;&gt;T8488 -->
<g id="edge5" class="edge"><title>T8465:f2&#45;&gt;T8488:f1</title>
<path fill="none" stroke="#c000a5" d="M385.5,-81C385.5,-57.589 410.61,-56.8697 417.672,-39.8407"/>
<polygon fill="#c000a5" stroke="#c000a5" points="421.115,-40.4711 419.5,-30 414.232,-39.1926 421.115,-40.4711"/>
<text text-anchor="middle" x="419" y="-51.8" font-family="Times,serif" font-size="14.00" fill="#c000a5">wr</text>
</g>
</g>
</svg>
