<?xml version="1.0" encoding="UTF-8" standalone="no"?>
<!DOCTYPE svg PUBLIC "-//W3C//DTD SVG 1.1//EN"
 "http://www.w3.org/Graphics/SVG/1.1/DTD/svg11.dtd">
<!-- Generated by graphviz version 2.43.0 (0)
 -->
<!-- Title: a_graph Pages: 1 -->
<svg width="478pt" height="200pt"
 viewBox="0.00 0.00 477.50 200.00" xmlns="http://www.w3.org/2000/svg" xmlns:xlink="http://www.w3.org/1999/xlink">
<g id="graph0" class="graph" transform="scale(1 1) rotate(0) translate(4 196)">
<title>a_graph</title>
<polygon fill="white" stroke="transparent" points="-4,4 -4,-196 473.5,-196 473.5,4 -4,4"/>
<!-- T1516 -->
<g id="node1" class="node">
<title>T1516</title>
<polygon fill="none" stroke="#0058ad" points="103.5,-162.5 103.5,-191.5 344.5,-191.5 344.5,-162.5 103.5,-162.5"/>
<text text-anchor="middle" x="151.5" y="-173.3" font-family="Times,serif" font-size="14.00" fill="#0058ad">r 98 [4 7 1 5 6]</text>
<polyline fill="none" stroke="#0058ad" points="199.5,-162.5 199.5,-191.5 "/>
<text text-anchor="middle" x="224" y="-173.3" font-family="Times,serif" font-size="14.00" fill="#0058ad">a 93 5</text>
<polyline fill="none" stroke="#0058ad" points="248.5,-162.5 248.5,-191.5 "/>
<text text-anchor="middle" x="296.5" y="-173.3" font-family="Times,serif" font-size="14.00" fill="#0058ad">r 87 [1 6 4 8 5]</text>
</g>
<!-- T1484 -->
<g id="node2" class="node">
<title>T1484</title>
<polygon fill="none" stroke="#0058ad" points="0,-81.5 0,-110.5 314,-110.5 314,-81.5 0,-81.5"/>
<text text-anchor="middle" x="24.5" y="-92.3" font-family="Times,serif" font-size="14.00" fill="#0058ad">a 98 8</text>
<polyline fill="none" stroke="#0058ad" points="49,-81.5 49,-110.5 "/>
<text text-anchor="middle" x="77" y="-92.3" font-family="Times,serif" font-size="14.00" fill="#0058ad">a 100 2</text>
<polyline fill="none" stroke="#0058ad" points="105,-81.5 105,-110.5 "/>
<text text-anchor="middle" x="156.5" y="-92.3" font-family="Times,serif" font-size="14.00" fill="#0058ad">r 100 [1 5 6 7 2]</text>
<polyline fill="none" stroke="#0058ad" points="208,-81.5 208,-110.5 "/>
<text text-anchor="middle" x="261" y="-92.3" font-family="Times,serif" font-size="14.00" fill="#0058ad">r 98 [4 7 1 5 6 8]</text>
</g>
<!-- T1516&#45;&gt;T1484 -->
<g id="edge1" class="edge">
<title>T1516:f0&#45;&gt;T1484:f0</title>
<path fill="none" stroke="#5b00c0" d="M102,-177C60.14,-177 29.17,-159.5 24.59,-121.19"/>
<polygon fill="#5b00c0" stroke="#5b00c0" points="28.07,-120.78 24,-111 21.08,-121.18 28.07,-120.78"/>
<text text-anchor="middle" x="39.5" y="-132.8" font-family="Times,serif" font-size="14.00" fill="#5b00c0">rw</text>
</g>
<!-- T1509 -->
<g id="node3" class="node">
<title>T1509</title>
<polygon fill="none" stroke="#0058ad" points="124.5,-0.5 124.5,-29.5 469.5,-29.5 469.5,-0.5 124.5,-0.5"/>
<text text-anchor="middle" x="152.5" y="-11.3" font-family="Times,serif" font-size="14.00" fill="#0058ad">a 100 4</text>
<polyline fill="none" stroke="#0058ad" points="180.5,-0.5 180.5,-29.5 "/>
<text text-anchor="middle" x="233.5" y="-11.3" font-family="Times,serif" font-size="14.00" fill="#0058ad">r 98 [4 7 1 5 6 8]</text>
<polyline fill="none" stroke="#0058ad" points="286.5,-0.5 286.5,-29.5 "/>
<text text-anchor="middle" x="325" y="-11.3" font-family="Times,serif" font-size="14.00" fill="#0058ad">r 93 [1 3 2]</text>
<polyline fill="none" stroke="#0058ad" points="363.5,-0.5 363.5,-29.5 "/>
<text text-anchor="middle" x="416.5" y="-11.3" font-family="Times,serif" font-size="14.00" fill="#0058ad">r 98 [4 7 1 5 6 8]</text>
</g>
<!-- T1484&#45;&gt;T1509 -->
<g id="edge2" class="edge">
<title>T1484:f1&#45;&gt;T1509:f0</title>
<path fill="none" stroke="#c02700" d="M77,-81C77,-44.63 138.07,-65.19 149.99,-39.94"/>
<polygon fill="#c02700" stroke="#c02700" points="153.45,-40.49 152,-30 146.59,-39.11 153.45,-40.49"/>
<text text-anchor="middle" x="151.5" y="-51.8" font-family="Times,serif" font-size="14.00" fill="#c02700">ww</text>
</g>
<!-- T1509&#45;&gt;T1516 -->
<g id="edge3" class="edge">
<title>T1509:f2&#45;&gt;T1516:f1</title>
<path fill="none" stroke="#5b00c0" d="M325,-30C325,-66.01 342.13,-80.49 323,-111 298.77,-149.66 235.08,-118.32 225.27,-151.96"/>
<polygon fill="#5b00c0" stroke="#5b00c0" points="221.79,-151.64 224,-162 228.73,-152.52 221.79,-151.64"/>
<text text-anchor="middle" x="340.5" y="-92.3" font-family="Times,serif" font-size="14.00" fill="#5b00c0">rw</text>
</g>
</g>
</svg>
