<?xml version="1.0" encoding="UTF-8" standalone="no"?>
<!DOCTYPE svg PUBLIC "-//W3C//DTD SVG 1.1//EN"
 "http://www.w3.org/Graphics/SVG/1.1/DTD/svg11.dtd">
<!-- Generated by graphviz version 2.43.0 (0)
 -->
<!-- Title: a_graph Pages: 1 -->
<svg width="283pt" height="119pt"
 viewBox="0.00 0.00 282.50 119.00" xmlns="http://www.w3.org/2000/svg" xmlns:xlink="http://www.w3.org/1999/xlink">
<g id="graph0" class="graph" transform="scale(1 1) rotate(0) translate(4 115)">
<title>a_graph</title>
<polygon fill="white" stroke="transparent" points="-4,4 -4,-115 278.5,-115 278.5,4 -4,4"/>
<!-- T1111 -->
<g id="node1" class="node">
<title>T1111</title>
<polygon fill="none" stroke="#0058ad" points="0,-81.5 0,-110.5 194,-110.5 194,-81.5 0,-81.5"/>
<text text-anchor="middle" x="24.5" y="-92.3" font-family="Times,serif" font-size="14.00" fill="#0058ad">a 75 5</text>
<polyline fill="none" stroke="#0058ad" points="49,-81.5 49,-110.5 "/>
<text text-anchor="middle" x="73.5" y="-92.3" font-family="Times,serif" font-size="14.00" fill="#0058ad">a 74 3</text>
<polyline fill="none" stroke="#0058ad" points="98,-81.5 98,-110.5 "/>
<text text-anchor="middle" x="146" y="-92.3" font-family="Times,serif" font-size="14.00" fill="#0058ad">r 76 [2 3 4 5 6]</text>
</g>
<!-- T1112 -->
<g id="node2" class="node">
<title>T1112</title>
<polygon fill="none" stroke="#0058ad" points="33.5,-0.5 33.5,-29.5 274.5,-29.5 274.5,-0.5 33.5,-0.5"/>
<text text-anchor="middle" x="76.5" y="-11.3" font-family="Times,serif" font-size="14.00" fill="#0058ad">r 74 [1 2 4 6]</text>
<polyline fill="none" stroke="#0058ad" points="119.5,-0.5 119.5,-29.5 "/>
<text text-anchor="middle" x="144" y="-11.3" font-family="Times,serif" font-size="14.00" fill="#0058ad">a 76 8</text>
<polyline fill="none" stroke="#0058ad" points="168.5,-0.5 168.5,-29.5 "/>
<text text-anchor="middle" x="221.5" y="-11.3" font-family="Times,serif" font-size="14.00" fill="#0058ad">r 76 [2 3 4 5 6 8]</text>
</g>
<!-- T1111&#45;&gt;T1112 -->
<g id="edge1" class="edge">
<title>T1111:f2&#45;&gt;T1112:f1</title>
<path fill="none" stroke="#5b00c0" d="M146,-81C146,-62.21 144.63,-55.12 144.16,-40.36"/>
<polygon fill="#5b00c0" stroke="#5b00c0" points="147.65,-39.95 144,-30 140.65,-40.05 147.65,-39.95"/>
<text text-anchor="middle" x="152.5" y="-51.8" font-family="Times,serif" font-size="14.00" fill="#5b00c0">rw</text>
</g>
<!-- T1112&#45;&gt;T1111 -->
<g id="edge2" class="edge">
<title>T1112:f0&#45;&gt;T1111:f1</title>
<path fill="none" stroke="#5b00c0" d="M76,-30C76,-48.8 73.94,-55.87 73.24,-70.64"/>
<polygon fill="#5b00c0" stroke="#5b00c0" points="69.73,-70.92 73,-81 76.73,-71.08 69.73,-70.92"/>
<text text-anchor="middle" x="83.5" y="-51.8" font-family="Times,serif" font-size="14.00" fill="#5b00c0">rw</text>
</g>
</g>
</svg>
