<?xml version="1.0" encoding="UTF-8" standalone="no"?>
<!DOCTYPE svg PUBLIC "-//W3C//DTD SVG 1.1//EN"
 "http://www.w3.org/Graphics/SVG/1.1/DTD/svg11.dtd">
<!-- Generated by graphviz version 2.43.0 (0)
 -->
<!-- Title: a_graph Pages: 1 -->
<svg width="206pt" height="119pt"
 viewBox="0.00 0.00 206.00 119.00" xmlns="http://www.w3.org/2000/svg" xmlns:xlink="http://www.w3.org/1999/xlink">
<g id="graph0" class="graph" transform="scale(1 1) rotate(0) translate(4 115)">
<title>a_graph</title>
<polygon fill="white" stroke="transparent" points="-4,4 -4,-115 202,-115 202,4 -4,4"/>
<!-- T1385 -->
<g id="node1" class="node">
<title>T1385</title>
<polygon fill="none" stroke="#0058ad" points="0,-81.5 0,-110.5 198,-110.5 198,-81.5 0,-81.5"/>
<text text-anchor="middle" x="24.5" y="-92.3" font-family="Times,serif" font-size="14.00" fill="#0058ad">a 97 3</text>
<polyline fill="none" stroke="#0058ad" points="49,-81.5 49,-110.5 "/>
<text text-anchor="middle" x="74" y="-92.3" font-family="Times,serif" font-size="14.00" fill="#0058ad">r 90 []</text>
<polyline fill="none" stroke="#0058ad" points="99,-81.5 99,-110.5 "/>
<text text-anchor="middle" x="123.5" y="-92.3" font-family="Times,serif" font-size="14.00" fill="#0058ad">a 97 4</text>
<polyline fill="none" stroke="#0058ad" points="148,-81.5 148,-110.5 "/>
<text text-anchor="middle" x="173" y="-92.3" font-family="Times,serif" font-size="14.00" fill="#0058ad">r 96 []</text>
</g>
<!-- T1388 -->
<g id="node2" class="node">
<title>T1388</title>
<polygon fill="none" stroke="#0058ad" points="22,-0.5 22,-29.5 178,-29.5 178,-0.5 22,-0.5"/>
<text text-anchor="middle" x="46.5" y="-11.3" font-family="Times,serif" font-size="14.00" fill="#0058ad">a 96 5</text>
<polyline fill="none" stroke="#0058ad" points="71,-0.5 71,-29.5 "/>
<text text-anchor="middle" x="96" y="-11.3" font-family="Times,serif" font-size="14.00" fill="#0058ad">r 97 []</text>
<polyline fill="none" stroke="#0058ad" points="121,-0.5 121,-29.5 "/>
<text text-anchor="middle" x="149.5" y="-11.3" font-family="Times,serif" font-size="14.00" fill="#0058ad">r 96 [5]</text>
</g>
<!-- T1385&#45;&gt;T1388 -->
<g id="edge1" class="edge">
<title>T1385:f3&#45;&gt;T1388:f0</title>
<path fill="none" stroke="#5b00c0" d="M173,-81C173,-68.05 80.9,-51.2 53.56,-37.09"/>
<polygon fill="#5b00c0" stroke="#5b00c0" points="55.69,-34.29 46,-30 50.9,-39.39 55.69,-34.29"/>
<text text-anchor="middle" x="142.5" y="-51.8" font-family="Times,serif" font-size="14.00" fill="#5b00c0">rw</text>
</g>
<!-- T1388&#45;&gt;T1385 -->
<g id="edge2" class="edge">
<title>T1388:f1&#45;&gt;T1385:f0</title>
<path fill="none" stroke="#5b00c0" d="M96,-30C96,-46.32 77.46,-38.77 64,-48 48.41,-58.69 31.48,-58.54 25.9,-70.86"/>
<polygon fill="#5b00c0" stroke="#5b00c0" points="22.4,-70.53 24,-81 29.28,-71.82 22.4,-70.53"/>
<text text-anchor="middle" x="71.5" y="-51.8" font-family="Times,serif" font-size="14.00" fill="#5b00c0">rw</text>
</g>
</g>
</svg>
