<?xml version="1.0" encoding="UTF-8" standalone="no"?>
<!DOCTYPE svg PUBLIC "-//W3C//DTD SVG 1.1//EN"
 "http://www.w3.org/Graphics/SVG/1.1/DTD/svg11.dtd">
<!-- Generated by graphviz version 2.43.0 (0)
 -->
<!-- Title: a_graph Pages: 1 -->
<svg width="262pt" height="200pt"
 viewBox="0.00 0.00 262.00 200.00" xmlns="http://www.w3.org/2000/svg" xmlns:xlink="http://www.w3.org/1999/xlink">
<g id="graph0" class="graph" transform="scale(1 1) rotate(0) translate(4 196)">
<title>a_graph</title>
<polygon fill="white" stroke="transparent" points="-4,4 -4,-196 258,-196 258,4 -4,4"/>
<!-- T1146 -->
<g id="node1" class="node">
<title>T1146</title>
<polygon fill="none" stroke="#0058ad" points="13,-162.5 13,-191.5 218,-191.5 218,-162.5 13,-162.5"/>
<text text-anchor="middle" x="37.5" y="-173.3" font-family="Times,serif" font-size="14.00" fill="#0058ad">a 77 3</text>
<polyline fill="none" stroke="#0058ad" points="62,-162.5 62,-191.5 "/>
<text text-anchor="middle" x="115" y="-173.3" font-family="Times,serif" font-size="14.00" fill="#0058ad">r 74 [1 2 4 6 3 8]</text>
<polyline fill="none" stroke="#0058ad" points="168,-162.5 168,-191.5 "/>
<text text-anchor="middle" x="193" y="-173.3" font-family="Times,serif" font-size="14.00" fill="#0058ad">r 81 []</text>
</g>
<!-- T1123 -->
<g id="node2" class="node">
<title>T1123</title>
<polygon fill="none" stroke="#0058ad" points="107,-81.5 107,-110.5 254,-110.5 254,-81.5 107,-81.5"/>
<text text-anchor="middle" x="131.5" y="-92.3" font-family="Times,serif" font-size="14.00" fill="#0058ad">a 82 1</text>
<polyline fill="none" stroke="#0058ad" points="156,-81.5 156,-110.5 "/>
<text text-anchor="middle" x="180.5" y="-92.3" font-family="Times,serif" font-size="14.00" fill="#0058ad">a 81 1</text>
<polyline fill="none" stroke="#0058ad" points="205,-81.5 205,-110.5 "/>
<text text-anchor="middle" x="229.5" y="-92.3" font-family="Times,serif" font-size="14.00" fill="#0058ad">a 82 2</text>
</g>
<!-- T1146&#45;&gt;T1123 -->
<g id="edge1" class="edge">
<title>T1146:f2&#45;&gt;T1123:f1</title>
<path fill="none" stroke="#5b00c0" d="M193.5,-162C193.5,-142.45 184.42,-136.29 181.43,-121.13"/>
<polygon fill="#5b00c0" stroke="#5b00c0" points="184.9,-120.64 180.5,-111 177.93,-121.28 184.9,-120.64"/>
<text text-anchor="middle" x="197" y="-132.8" font-family="Times,serif" font-size="14.00" fill="#5b00c0">rw</text>
</g>
<!-- T1155 -->
<g id="node3" class="node">
<title>T1155</title>
<polygon fill="none" stroke="#0058ad" points="0,-0.5 0,-29.5 223,-29.5 223,-0.5 0,-0.5"/>
<text text-anchor="middle" x="25" y="-11.3" font-family="Times,serif" font-size="14.00" fill="#0058ad">r 83 []</text>
<polyline fill="none" stroke="#0058ad" points="50,-0.5 50,-29.5 "/>
<text text-anchor="middle" x="83.5" y="-11.3" font-family="Times,serif" font-size="14.00" fill="#0058ad">r 77 [1 2]</text>
<polyline fill="none" stroke="#0058ad" points="117,-0.5 117,-29.5 "/>
<text text-anchor="middle" x="145.5" y="-11.3" font-family="Times,serif" font-size="14.00" fill="#0058ad">r 81 [1]</text>
<polyline fill="none" stroke="#0058ad" points="174,-0.5 174,-29.5 "/>
<text text-anchor="middle" x="198.5" y="-11.3" font-family="Times,serif" font-size="14.00" fill="#0058ad">a 83 1</text>
</g>
<!-- T1123&#45;&gt;T1155 -->
<g id="edge2" class="edge">
<title>T1123:f1&#45;&gt;T1155:f2</title>
<path fill="none" stroke="#c000a5" d="M180.5,-81C180.5,-57.37 154.65,-56.99 147.38,-39.91"/>
<polygon fill="#c000a5" stroke="#c000a5" points="150.8,-39.17 145.5,-30 143.93,-40.48 150.8,-39.17"/>
<text text-anchor="middle" x="179" y="-51.8" font-family="Times,serif" font-size="14.00" fill="#c000a5">wr</text>
</g>
<!-- T1155&#45;&gt;T1146 -->
<g id="edge3" class="edge">
<title>T1155:f1&#45;&gt;T1146:f0</title>
<path fill="none" stroke="#5b00c0" d="M83.5,-30C83.5,-88.61 42.56,-98.82 37.93,-151.95"/>
<polygon fill="#5b00c0" stroke="#5b00c0" points="34.43,-151.86 37.5,-162 41.42,-152.16 34.43,-151.86"/>
<text text-anchor="middle" x="76" y="-92.3" font-family="Times,serif" font-size="14.00" fill="#5b00c0">rw</text>
</g>
</g>
</svg>
