<?xml version="1.0" encoding="UTF-8" standalone="no"?>
<!DOCTYPE svg PUBLIC "-//W3C//DTD SVG 1.1//EN"
 "http://www.w3.org/Graphics/SVG/1.1/DTD/svg11.dtd">
<!-- Generated by graphviz version 2.43.0 (0)
 -->
<!-- Title: a_graph Pages: 1 -->
<svg width="218pt" height="119pt"
 viewBox="0.00 0.00 217.50 119.00" xmlns="http://www.w3.org/2000/svg" xmlns:xlink="http://www.w3.org/1999/xlink">
<g id="graph0" class="graph" transform="scale(1 1) rotate(0) translate(4 115)">
<title>a_graph</title>
<polygon fill="white" stroke="transparent" points="-4,4 -4,-115 213.5,-115 213.5,4 -4,4"/>
<!-- T1177 -->
<g id="node1" class="node">
<title>T1177</title>
<polygon fill="none" stroke="#0058ad" points="0,-81.5 0,-110.5 156,-110.5 156,-81.5 0,-81.5"/>
<text text-anchor="middle" x="28.5" y="-92.3" font-family="Times,serif" font-size="14.00" fill="#0058ad">r 86 [1]</text>
<polyline fill="none" stroke="#0058ad" points="57,-81.5 57,-110.5 "/>
<text text-anchor="middle" x="81.5" y="-92.3" font-family="Times,serif" font-size="14.00" fill="#0058ad">a 88 1</text>
<polyline fill="none" stroke="#0058ad" points="106,-81.5 106,-110.5 "/>
<text text-anchor="middle" x="131" y="-92.3" font-family="Times,serif" font-size="14.00" fill="#0058ad">r 87 []</text>
</g>
<!-- T1181 -->
<g id="node2" class="node">
<title>T1181</title>
<polygon fill="none" stroke="#0058ad" points="4.5,-0.5 4.5,-29.5 209.5,-29.5 209.5,-0.5 4.5,-0.5"/>
<text text-anchor="middle" x="29" y="-11.3" font-family="Times,serif" font-size="14.00" fill="#0058ad">a 87 1</text>
<polyline fill="none" stroke="#0058ad" points="53.5,-0.5 53.5,-29.5 "/>
<text text-anchor="middle" x="106.5" y="-11.3" font-family="Times,serif" font-size="14.00" fill="#0058ad">r 61 [2 1 3 5 4 6]</text>
<polyline fill="none" stroke="#0058ad" points="159.5,-0.5 159.5,-29.5 "/>
<text text-anchor="middle" x="184.5" y="-11.3" font-family="Times,serif" font-size="14.00" fill="#0058ad">r 88 []</text>
</g>
<!-- T1177&#45;&gt;T1181 -->
<g id="edge1" class="edge">
<title>T1177:f2&#45;&gt;T1181:f0</title>
<path fill="none" stroke="#5b00c0" d="M131,-81C131,-62.6 121.43,-58.02 106,-48 80.21,-31.25 40.6,-56.94 31.1,-40.08"/>
<polygon fill="#5b00c0" stroke="#5b00c0" points="34.47,-39.08 29,-30 27.61,-40.5 34.47,-39.08"/>
<text text-anchor="middle" x="132.5" y="-51.8" font-family="Times,serif" font-size="14.00" fill="#5b00c0">rw</text>
</g>
<!-- T1181&#45;&gt;T1177 -->
<g id="edge2" class="edge">
<title>T1181:f2&#45;&gt;T1177:f1</title>
<path fill="none" stroke="#5b00c0" d="M185,-30C185,-74.28 117.82,-16.2 87,-48 79.34,-55.91 80.29,-62.08 81.3,-70.81"/>
<polygon fill="#5b00c0" stroke="#5b00c0" points="77.82,-71.26 82,-81 84.8,-70.78 77.82,-71.26"/>
<text text-anchor="middle" x="94.5" y="-51.8" font-family="Times,serif" font-size="14.00" fill="#5b00c0">rw</text>
</g>
</g>
</svg>
