<?xml version="1.0" encoding="UTF-8" standalone="no"?>
<!DOCTYPE svg PUBLIC "-//W3C//DTD SVG 1.1//EN"
 "http://www.w3.org/Graphics/SVG/1.1/DTD/svg11.dtd">
<!-- Generated by graphviz version 2.43.0 (0)
 -->
<!-- Title: a_graph Pages: 1 -->
<svg width="233pt" height="119pt"
 viewBox="0.00 0.00 233.00 119.00" xmlns="http://www.w3.org/2000/svg" xmlns:xlink="http://www.w3.org/1999/xlink">
<g id="graph0" class="graph" transform="scale(1 1) rotate(0) translate(4 115)">
<title>a_graph</title>
<polygon fill="white" stroke="transparent" points="-4,4 -4,-115 229,-115 229,4 -4,4"/>
<!-- T775 -->
<g id="node1" class="node">
<title>T775</title>
<polygon fill="none" stroke="#0058ad" points="76.5,-81.5 76.5,-110.5 224.5,-110.5 224.5,-81.5 76.5,-81.5"/>
<text text-anchor="middle" x="101.5" y="-92.3" font-family="Times,serif" font-size="14.00" fill="#0058ad">r 58 []</text>
<polyline fill="none" stroke="#0058ad" points="126.5,-81.5 126.5,-110.5 "/>
<text text-anchor="middle" x="151" y="-92.3" font-family="Times,serif" font-size="14.00" fill="#0058ad">a 57 8</text>
<polyline fill="none" stroke="#0058ad" points="175.5,-81.5 175.5,-110.5 "/>
<text text-anchor="middle" x="200" y="-92.3" font-family="Times,serif" font-size="14.00" fill="#0058ad">a 60 1</text>
</g>
<!-- T761 -->
<g id="node2" class="node">
<title>T761</title>
<polygon fill="none" stroke="#0058ad" points="0,-0.5 0,-29.5 225,-29.5 225,-0.5 0,-0.5"/>
<text text-anchor="middle" x="38.5" y="-11.3" font-family="Times,serif" font-size="14.00" fill="#0058ad">r 53 [1 2 3]</text>
<polyline fill="none" stroke="#0058ad" points="77,-0.5 77,-29.5 "/>
<text text-anchor="middle" x="101.5" y="-11.3" font-family="Times,serif" font-size="14.00" fill="#0058ad">a 58 2</text>
<polyline fill="none" stroke="#0058ad" points="126,-0.5 126,-29.5 "/>
<text text-anchor="middle" x="150.5" y="-11.3" font-family="Times,serif" font-size="14.00" fill="#0058ad">a 58 3</text>
<polyline fill="none" stroke="#0058ad" points="175,-0.5 175,-29.5 "/>
<text text-anchor="middle" x="200" y="-11.3" font-family="Times,serif" font-size="14.00" fill="#0058ad">r 60 []</text>
</g>
<!-- T775&#45;&gt;T761 -->
<g id="edge1" class="edge">
<title>T775:f0&#45;&gt;T761:f1</title>
<path fill="none" stroke="#5b00c0" d="M101.5,-81C101.5,-62.23 101.5,-55.12 101.5,-40.35"/>
<polygon fill="#5b00c0" stroke="#5b00c0" points="105,-40 101.5,-30 98,-40 105,-40"/>
<text text-anchor="middle" x="109" y="-51.8" font-family="Times,serif" font-size="14.00" fill="#5b00c0">rw</text>
</g>
<!-- T761&#45;&gt;T775 -->
<g id="edge2" class="edge">
<title>T761:f3&#45;&gt;T775:f2</title>
<path fill="none" stroke="#5b00c0" d="M200.5,-30C200.5,-48.77 200.5,-55.88 200.5,-70.65"/>
<polygon fill="#5b00c0" stroke="#5b00c0" points="197,-71 200.5,-81 204,-71 197,-71"/>
<text text-anchor="middle" x="208" y="-51.8" font-family="Times,serif" font-size="14.00" fill="#5b00c0">rw</text>
</g>
</g>
</svg>
