<?xml version="1.0" encoding="UTF-8" standalone="no"?>
<!DOCTYPE svg PUBLIC "-//W3C//DTD SVG 1.1//EN"
 "http://www.w3.org/Graphics/SVG/1.1/DTD/svg11.dtd">
<!-- Generated by graphviz version 2.43.0 (0)
 -->
<!-- Title: a_graph Pages: 1 -->
<svg width="277pt" height="119pt"
 viewBox="0.00 0.00 277.00 119.00" xmlns="http://www.w3.org/2000/svg" xmlns:xlink="http://www.w3.org/1999/xlink">
<g id="graph0" class="graph" transform="scale(1 1) rotate(0) translate(4 115)">
<title>a_graph</title>
<polygon fill="white" stroke="transparent" points="-4,4 -4,-115 273,-115 273,4 -4,4"/>
<!-- T1733 -->
<g id="node1" class="node">
<title>T1733</title>
<polygon fill="none" stroke="#0058ad" points="0,-81.5 0,-110.5 269,-110.5 269,-81.5 0,-81.5"/>
<text text-anchor="middle" x="41.5" y="-92.3" font-family="Times,serif" font-size="14.00" fill="#0058ad">r 113 [1 2 6]</text>
<polyline fill="none" stroke="#0058ad" points="83,-81.5 83,-110.5 "/>
<text text-anchor="middle" x="111" y="-92.3" font-family="Times,serif" font-size="14.00" fill="#0058ad">a 112 7</text>
<polyline fill="none" stroke="#0058ad" points="139,-81.5 139,-110.5 "/>
<text text-anchor="middle" x="176" y="-92.3" font-family="Times,serif" font-size="14.00" fill="#0058ad">r 115 [1 8]</text>
<polyline fill="none" stroke="#0058ad" points="213,-81.5 213,-110.5 "/>
<text text-anchor="middle" x="241" y="-92.3" font-family="Times,serif" font-size="14.00" fill="#0058ad">a 116 1</text>
</g>
<!-- T1691 -->
<g id="node2" class="node">
<title>T1691</title>
<polygon fill="none" stroke="#0058ad" points="67,-0.5 67,-29.5 206,-29.5 206,-0.5 67,-0.5"/>
<text text-anchor="middle" x="108.5" y="-11.3" font-family="Times,serif" font-size="14.00" fill="#0058ad">r 112 [1 3 6]</text>
<polyline fill="none" stroke="#0058ad" points="150,-0.5 150,-29.5 "/>
<text text-anchor="middle" x="178" y="-11.3" font-family="Times,serif" font-size="14.00" fill="#0058ad">a 115 7</text>
</g>
<!-- T1733&#45;&gt;T1691 -->
<g id="edge1" class="edge">
<title>T1733:f2&#45;&gt;T1691:f1</title>
<path fill="none" stroke="#5b00c0" d="M176.5,-81C176.5,-62.21 177.87,-55.12 178.34,-40.36"/>
<polygon fill="#5b00c0" stroke="#5b00c0" points="181.85,-40.05 178.5,-30 174.85,-39.95 181.85,-40.05"/>
<text text-anchor="middle" x="185" y="-51.8" font-family="Times,serif" font-size="14.00" fill="#5b00c0">rw</text>
</g>
<!-- T1691&#45;&gt;T1733 -->
<g id="edge2" class="edge">
<title>T1691:f0&#45;&gt;T1733:f1</title>
<path fill="none" stroke="#5b00c0" d="M108.5,-30C108.5,-48.79 109.87,-55.88 110.34,-70.64"/>
<polygon fill="#5b00c0" stroke="#5b00c0" points="106.85,-71.05 110.5,-81 113.85,-70.95 106.85,-71.05"/>
<text text-anchor="middle" x="118" y="-51.8" font-family="Times,serif" font-size="14.00" fill="#5b00c0">rw</text>
</g>
</g>
</svg>
