<?xml version="1.0" encoding="UTF-8" standalone="no"?>
<!DOCTYPE svg PUBLIC "-//W3C//DTD SVG 1.1//EN"
 "http://www.w3.org/Graphics/SVG/1.1/DTD/svg11.dtd">
<!-- Generated by graphviz version 2.43.0 (0)
 -->
<!-- Title: a_graph Pages: 1 -->
<svg width="302pt" height="200pt"
 viewBox="0.00 0.00 301.50 200.00" xmlns="http://www.w3.org/2000/svg" xmlns:xlink="http://www.w3.org/1999/xlink">
<g id="graph0" class="graph" transform="scale(1 1) rotate(0) translate(4 196)">
<title>a_graph</title>
<polygon fill="white" stroke="transparent" points="-4,4 -4,-196 297.5,-196 297.5,4 -4,4"/>
<!-- T157 -->
<g id="node1" class="node">
<title>T157</title>
<polygon fill="none" stroke="#0058ad" points="91.5,-162.5 91.5,-191.5 278.5,-191.5 278.5,-162.5 91.5,-162.5"/>
<text text-anchor="middle" x="139.5" y="-173.3" font-family="Times,serif" font-size="14.00" fill="#0058ad">r 11 [3 2 1 4 6]</text>
<polyline fill="none" stroke="#0058ad" points="187.5,-162.5 187.5,-191.5 "/>
<text text-anchor="middle" x="212" y="-173.3" font-family="Times,serif" font-size="14.00" fill="#0058ad">a 13 2</text>
<polyline fill="none" stroke="#0058ad" points="236.5,-162.5 236.5,-191.5 "/>
<text text-anchor="middle" x="257.5" y="-173.3" font-family="Times,serif" font-size="14.00" fill="#0058ad">a 5 3</text>
</g>
<!-- T127 -->
<g id="node3" class="node">
<title>T127</title>
<polygon fill="none" stroke="#0058ad" points="0,-81.5 0,-110.5 220,-110.5 220,-81.5 0,-81.5"/>
<text text-anchor="middle" x="28.5" y="-92.3" font-family="Times,serif" font-size="14.00" fill="#0058ad">r 15 [1]</text>
<polyline fill="none" stroke="#0058ad" points="57,-81.5 57,-110.5 "/>
<text text-anchor="middle" x="85.5" y="-92.3" font-family="Times,serif" font-size="14.00" fill="#0058ad">r 15 [1]</text>
<polyline fill="none" stroke="#0058ad" points="114,-81.5 114,-110.5 "/>
<text text-anchor="middle" x="138.5" y="-92.3" font-family="Times,serif" font-size="14.00" fill="#0058ad">a 11 7</text>
<polyline fill="none" stroke="#0058ad" points="163,-81.5 163,-110.5 "/>
<text text-anchor="middle" x="191.5" y="-92.3" font-family="Times,serif" font-size="14.00" fill="#0058ad">r 13 [1]</text>
</g>
<!-- T157&#45;&gt;T127 -->
<g id="edge1" class="edge">
<title>T157:f0&#45;&gt;T127:f2</title>
<path fill="none" stroke="#5b00c0" d="M139,-162C139,-143.23 139,-136.12 139,-121.35"/>
<polygon fill="#5b00c0" stroke="#5b00c0" points="142.5,-121 139,-111 135.5,-121 142.5,-121"/>
<text text-anchor="middle" x="146.5" y="-132.8" font-family="Times,serif" font-size="14.00" fill="#5b00c0">rw</text>
</g>
<!-- T142 -->
<g id="node2" class="node">
<title>T142</title>
<polygon fill="none" stroke="#0058ad" points="80.5,-0.5 80.5,-29.5 293.5,-29.5 293.5,-0.5 80.5,-0.5"/>
<text text-anchor="middle" x="133.5" y="-11.3" font-family="Times,serif" font-size="14.00" fill="#0058ad">r 11 [3 2 1 4 6 7]</text>
<polyline fill="none" stroke="#0058ad" points="186.5,-0.5 186.5,-29.5 "/>
<text text-anchor="middle" x="211.5" y="-11.3" font-family="Times,serif" font-size="14.00" fill="#0058ad">r 5 [1]</text>
<polyline fill="none" stroke="#0058ad" points="236.5,-0.5 236.5,-29.5 "/>
<text text-anchor="middle" x="265" y="-11.3" font-family="Times,serif" font-size="14.00" fill="#0058ad">r 13 [1]</text>
</g>
<!-- T142&#45;&gt;T157 -->
<g id="edge2" class="edge">
<title>T142:f2&#45;&gt;T157:f1</title>
<path fill="none" stroke="#5b00c0" d="M265,-30C265,-83.55 251.45,-96.89 226,-144 223.44,-148.74 219.65,-150.66 216.66,-152.94"/>
<polygon fill="#5b00c0" stroke="#5b00c0" points="213.46,-151.51 212,-162 219.69,-154.71 213.46,-151.51"/>
<text text-anchor="middle" x="264.5" y="-92.3" font-family="Times,serif" font-size="14.00" fill="#5b00c0">rw</text>
</g>
<!-- T127&#45;&gt;T157 -->
<g id="edge3" class="edge">
<title>T127:f3&#45;&gt;T157:f1</title>
<path fill="none" stroke="#5b00c0" d="M192,-111C192,-131.54 206.24,-136.39 210.69,-152.03"/>
<polygon fill="#5b00c0" stroke="#5b00c0" points="207.22,-152.54 212,-162 214.16,-151.63 207.22,-152.54"/>
<text text-anchor="middle" x="214.5" y="-132.8" font-family="Times,serif" font-size="14.00" fill="#5b00c0">rw</text>
</g>
<!-- T127&#45;&gt;T142 -->
<g id="edge4" class="edge">
<title>T127:f2&#45;&gt;T142:f0</title>
<path fill="none" stroke="#c000a5" d="M139,-81C139,-62.1 134.89,-55.18 133.47,-40.4"/>
<polygon fill="#c000a5" stroke="#c000a5" points="136.95,-39.83 133,-30 129.96,-40.15 136.95,-39.83"/>
<text text-anchor="middle" x="144.5" y="-51.8" font-family="Times,serif" font-size="14.00" fill="#c000a5">wr</text>
</g>
</g>
</svg>
