<?xml version="1.0" encoding="UTF-8" standalone="no"?>
<!DOCTYPE svg PUBLIC "-//W3C//DTD SVG 1.1//EN"
 "http://www.w3.org/Graphics/SVG/1.1/DTD/svg11.dtd">
<!-- Generated by graphviz version 2.43.0 (0)
 -->
<!-- Title: a_graph Pages: 1 -->
<svg width="440pt" height="443pt"
 viewBox="0.00 0.00 440.00 443.00" xmlns="http://www.w3.org/2000/svg" xmlns:xlink="http://www.w3.org/1999/xlink">
<g id="graph0" class="graph" transform="scale(1 1) rotate(0) translate(4 439)">
<title>a_graph</title>
<polygon fill="white" stroke="transparent" points="-4,4 -4,-439 436,-439 436,4 -4,4"/>
<!-- T1659 -->
<g id="node1" class="node">
<title>T1659</title>
<polygon fill="none" stroke="#0058ad" points="170.5,-405.5 170.5,-434.5 317.5,-434.5 317.5,-405.5 170.5,-405.5"/>
<text text-anchor="middle" x="212" y="-416.3" font-family="Times,serif" font-size="14.00" fill="#0058ad">r 112 [1 3 6]</text>
<polyline fill="none" stroke="#0058ad" points="253.5,-405.5 253.5,-434.5 "/>
<text text-anchor="middle" x="285.5" y="-416.3" font-family="Times,serif" font-size="14.00" fill="#0058ad">r 113 [1]</text>
</g>
<!-- T1649 -->
<g id="node6" class="node">
<title>T1649</title>
<polygon fill="none" stroke="#0058ad" points="126.5,-324.5 126.5,-353.5 387.5,-353.5 387.5,-324.5 126.5,-324.5"/>
<text text-anchor="middle" x="155" y="-335.3" font-family="Times,serif" font-size="14.00" fill="#0058ad">r 115 []</text>
<polyline fill="none" stroke="#0058ad" points="183.5,-324.5 183.5,-353.5 "/>
<text text-anchor="middle" x="220.5" y="-335.3" font-family="Times,serif" font-size="14.00" fill="#0058ad">r 112 [1 3]</text>
<polyline fill="none" stroke="#0058ad" points="257.5,-324.5 257.5,-353.5 "/>
<text text-anchor="middle" x="285.5" y="-335.3" font-family="Times,serif" font-size="14.00" fill="#0058ad">a 113 2</text>
<polyline fill="none" stroke="#0058ad" points="313.5,-324.5 313.5,-353.5 "/>
<text text-anchor="middle" x="350.5" y="-335.3" font-family="Times,serif" font-size="14.00" fill="#0058ad">r 113 [1 2]</text>
</g>
<!-- T1659&#45;&gt;T1649 -->
<g id="edge1" class="edge">
<title>T1659:f1&#45;&gt;T1649:f2</title>
<path fill="none" stroke="#5b00c0" d="M286,-405C286,-386.23 286,-379.12 286,-364.35"/>
<polygon fill="#5b00c0" stroke="#5b00c0" points="289.5,-364 286,-354 282.5,-364 289.5,-364"/>
<text text-anchor="middle" x="293.5" y="-375.8" font-family="Times,serif" font-size="14.00" fill="#5b00c0">rw</text>
</g>
<!-- T1627 -->
<g id="node2" class="node">
<title>T1627</title>
<polygon fill="none" stroke="#0058ad" points="230,-162.5 230,-191.5 350,-191.5 350,-162.5 230,-162.5"/>
<text text-anchor="middle" x="262" y="-173.3" font-family="Times,serif" font-size="14.00" fill="#0058ad">r 112 [1]</text>
<polyline fill="none" stroke="#0058ad" points="294,-162.5 294,-191.5 "/>
<text text-anchor="middle" x="322" y="-173.3" font-family="Times,serif" font-size="14.00" fill="#0058ad">a 113 1</text>
</g>
<!-- T1627&#45;&gt;T1659 -->
<g id="edge3" class="edge">
<title>T1627:f1&#45;&gt;T1659:f1</title>
<path fill="none" stroke="#c000a5" d="M351,-177C456.53,-177 429.79,-405.05 328.99,-419.3"/>
<polygon fill="#c000a5" stroke="#c000a5" points="328.73,-415.81 319,-420 329.22,-422.79 328.73,-415.81"/>
<text text-anchor="middle" x="424.5" y="-294.8" font-family="Times,serif" font-size="14.00" fill="#c000a5">wr</text>
</g>
<!-- T1623 -->
<g id="node3" class="node">
<title>T1623</title>
<polygon fill="none" stroke="#0058ad" points="122,-81.5 122,-110.5 178,-110.5 178,-81.5 122,-81.5"/>
<text text-anchor="middle" x="150" y="-92.3" font-family="Times,serif" font-size="14.00" fill="#0058ad">a 112 3</text>
</g>
<!-- T1627&#45;&gt;T1623 -->
<g id="edge4" class="edge">
<title>T1627:f0&#45;&gt;T1623:f0</title>
<path fill="none" stroke="#5b00c0" d="M262,-162C262,-121.74 223.75,-129.08 186.53,-114.71"/>
<polygon fill="#5b00c0" stroke="#5b00c0" points="187.67,-111.39 177.11,-110.55 184.84,-117.79 187.67,-111.39"/>
<text text-anchor="middle" x="264.5" y="-132.8" font-family="Times,serif" font-size="14.00" fill="#5b00c0">rw</text>
</g>
<!-- T1627&#45;&gt;T1649 -->
<g id="edge5" class="edge">
<title>T1627:f1&#45;&gt;T1649:f2</title>
<path fill="none" stroke="#c02700" d="M322,-192C322,-249.25 290.1,-261.8 286.36,-313.81"/>
<polygon fill="#c02700" stroke="#c02700" points="282.85,-313.88 286,-324 289.85,-314.13 282.85,-313.88"/>
<text text-anchor="middle" x="320.5" y="-254.3" font-family="Times,serif" font-size="14.00" fill="#c02700">ww</text>
</g>
<!-- T1657 -->
<g id="node7" class="node">
<title>T1657</title>
<polygon fill="none" stroke="#0058ad" points="196.5,-81.5 196.5,-110.5 409.5,-110.5 409.5,-81.5 196.5,-81.5"/>
<text text-anchor="middle" x="224.5" y="-92.3" font-family="Times,serif" font-size="14.00" fill="#0058ad">a 111 6</text>
<polyline fill="none" stroke="#0058ad" points="252.5,-81.5 252.5,-110.5 "/>
<text text-anchor="middle" x="299" y="-92.3" font-family="Times,serif" font-size="14.00" fill="#0058ad">r 111 [2 3 4 6]</text>
<polyline fill="none" stroke="#0058ad" points="345.5,-81.5 345.5,-110.5 "/>
<text text-anchor="middle" x="377.5" y="-92.3" font-family="Times,serif" font-size="14.00" fill="#0058ad">r 113 [1]</text>
</g>
<!-- T1627&#45;&gt;T1657 -->
<g id="edge2" class="edge">
<title>T1627:f1&#45;&gt;T1657:f2</title>
<path fill="none" stroke="#c000a5" d="M322,-162C322,-143.05 334.76,-141.5 349,-129 356.66,-122.28 367.12,-123.31 373.16,-120.11"/>
<polygon fill="#c000a5" stroke="#c000a5" points="376.4,-121.47 378,-111 370.22,-118.19 376.4,-121.47"/>
<text text-anchor="middle" x="356.5" y="-132.8" font-family="Times,serif" font-size="14.00" fill="#c000a5">wr</text>
</g>
<!-- T1641 -->
<g id="node4" class="node">
<title>T1641</title>
<polygon fill="none" stroke="#0058ad" points="18,-0.5 18,-29.5 74,-29.5 74,-0.5 18,-0.5"/>
<text text-anchor="middle" x="46" y="-11.3" font-family="Times,serif" font-size="14.00" fill="#0058ad">a 112 6</text>
</g>
<!-- T1623&#45;&gt;T1641 -->
<g id="edge6" class="edge">
<title>T1623:f0&#45;&gt;T1641:f0</title>
<path fill="none" stroke="#c02700" d="M130.92,-81.14C114.65,-68.47 91.07,-50.1 72.89,-35.94"/>
<polygon fill="#c02700" stroke="#c02700" points="74.99,-33.15 64.95,-29.76 70.69,-38.67 74.99,-33.15"/>
<text text-anchor="middle" x="117.5" y="-51.8" font-family="Times,serif" font-size="14.00" fill="#c02700">ww</text>
</g>
<!-- T1623&#45;&gt;T1649 -->
<g id="edge7" class="edge">
<title>T1623:f0&#45;&gt;T1649:f1</title>
<path fill="none" stroke="#c000a5" d="M157.89,-110.73C175.45,-144.83 216.45,-232.55 219.78,-313.64"/>
<polygon fill="#c000a5" stroke="#c000a5" points="216.29,-314.08 220,-324 223.29,-313.93 216.29,-314.08"/>
<text text-anchor="middle" x="210.5" y="-213.8" font-family="Times,serif" font-size="14.00" fill="#c000a5">wr</text>
</g>
<!-- T1641&#45;&gt;T1659 -->
<g id="edge8" class="edge">
<title>T1641:f0&#45;&gt;T1659:f0</title>
<path fill="none" stroke="#c000a5" d="M31.19,-29.78C17.74,-44.84 0,-69.53 0,-95 0,-340 0,-340 0,-340 0,-378.55 109.69,-414.43 158.73,-419.41"/>
<polygon fill="#c000a5" stroke="#c000a5" points="158.82,-422.92 169,-420 159.22,-415.93 158.82,-422.92"/>
<text text-anchor="middle" x="7.5" y="-213.8" font-family="Times,serif" font-size="14.00" fill="#c000a5">wr</text>
</g>
<!-- T1635 -->
<g id="node5" class="node">
<title>T1635</title>
<polygon fill="none" stroke="#0058ad" points="74.5,-243.5 74.5,-272.5 187.5,-272.5 187.5,-243.5 74.5,-243.5"/>
<text text-anchor="middle" x="103" y="-254.3" font-family="Times,serif" font-size="14.00" fill="#0058ad">r 113 []</text>
<polyline fill="none" stroke="#0058ad" points="131.5,-243.5 131.5,-272.5 "/>
<text text-anchor="middle" x="159.5" y="-254.3" font-family="Times,serif" font-size="14.00" fill="#0058ad">a 115 1</text>
</g>
<!-- T1635&#45;&gt;T1627 -->
<g id="edge9" class="edge">
<title>T1635:f0&#45;&gt;T1627:f1</title>
<path fill="none" stroke="#5b00c0" d="M103,-243C103,-209.01 139.36,-219.48 172,-210 185.73,-206.01 284.85,-207.94 313.97,-198.23"/>
<polygon fill="#5b00c0" stroke="#5b00c0" points="316.25,-200.9 322,-192 311.95,-195.37 316.25,-200.9"/>
<text text-anchor="middle" x="179.5" y="-213.8" font-family="Times,serif" font-size="14.00" fill="#5b00c0">rw</text>
</g>
<!-- T1649&#45;&gt;T1641 -->
<g id="edge10" class="edge">
<title>T1649:f1&#45;&gt;T1641:f0</title>
<path fill="none" stroke="#5b00c0" d="M220,-324C220,-293.17 182.36,-315.42 153,-306 103.54,-290.12 46,-310.94 46,-259 46,-259 46,-259 46,-95 46,-76.49 46,-55.58 46,-39.78"/>
<polygon fill="#5b00c0" stroke="#5b00c0" points="49.5,-39.74 46,-29.74 42.5,-39.74 49.5,-39.74"/>
<text text-anchor="middle" x="53.5" y="-173.3" font-family="Times,serif" font-size="14.00" fill="#5b00c0">rw</text>
</g>
<!-- T1649&#45;&gt;T1635 -->
<g id="edge11" class="edge">
<title>T1649:f0&#45;&gt;T1635:f1</title>
<path fill="none" stroke="#5b00c0" d="M155,-324C155,-305.14 158.43,-298.16 159.61,-283.38"/>
<polygon fill="#5b00c0" stroke="#5b00c0" points="163.12,-283.13 160,-273 156.12,-282.86 163.12,-283.13"/>
<text text-anchor="middle" x="166.5" y="-294.8" font-family="Times,serif" font-size="14.00" fill="#5b00c0">rw</text>
</g>
<!-- T1657&#45;&gt;T1649 -->
<g id="edge12" class="edge">
<title>T1657:f2&#45;&gt;T1649:f2</title>
<path fill="none" stroke="#5b00c0" d="M378,-111C378,-185.61 371.54,-208.52 334,-273 333.25,-274.29 305.51,-302.36 292.55,-316.32"/>
<polygon fill="#5b00c0" stroke="#5b00c0" points="289.83,-314.12 286,-324 295.15,-318.66 289.83,-314.12"/>
<text text-anchor="middle" x="372.5" y="-213.8" font-family="Times,serif" font-size="14.00" fill="#5b00c0">rw</text>
</g>
</g>
</svg>
