<?xml version="1.0" encoding="UTF-8" standalone="no"?>
<!DOCTYPE svg PUBLIC "-//W3C//DTD SVG 1.1//EN"
 "http://www.w3.org/Graphics/SVG/1.1/DTD/svg11.dtd">
<!-- Generated by graphviz version 2.43.0 (0)
 -->
<!-- Title: a_graph Pages: 1 -->
<svg width="467pt" height="524pt"
 viewBox="0.00 0.00 467.21 524.00" xmlns="http://www.w3.org/2000/svg" xmlns:xlink="http://www.w3.org/1999/xlink">
<g id="graph0" class="graph" transform="scale(1 1) rotate(0) translate(4 520)">
<title>a_graph</title>
<polygon fill="white" stroke="transparent" points="-4,4 -4,-520 463.21,-520 463.21,4 -4,4"/>
<!-- T568 -->
<g id="node1" class="node">
<title>T568</title>
<polygon fill="none" stroke="#0058ad" points="94.71,-486.5 94.71,-515.5 241.71,-515.5 241.71,-486.5 94.71,-486.5"/>
<text text-anchor="middle" x="119.21" y="-497.3" font-family="Times,serif" font-size="14.00" fill="#0058ad">a 42 6</text>
<polyline fill="none" stroke="#0058ad" points="143.71,-486.5 143.71,-515.5 "/>
<text text-anchor="middle" x="168.21" y="-497.3" font-family="Times,serif" font-size="14.00" fill="#0058ad">a 42 7</text>
<polyline fill="none" stroke="#0058ad" points="192.71,-486.5 192.71,-515.5 "/>
<text text-anchor="middle" x="217.21" y="-497.3" font-family="Times,serif" font-size="14.00" fill="#0058ad">a 43 1</text>
</g>
<!-- T591 -->
<g id="node3" class="node">
<title>T591</title>
<polygon fill="none" stroke="#0058ad" points="49.71,-405.5 49.71,-434.5 204.71,-434.5 204.71,-405.5 49.71,-405.5"/>
<text text-anchor="middle" x="102.71" y="-416.3" font-family="Times,serif" font-size="14.00" fill="#0058ad">r 42 [4 1 2 3 6 7]</text>
<polyline fill="none" stroke="#0058ad" points="155.71,-405.5 155.71,-434.5 "/>
<text text-anchor="middle" x="180.21" y="-416.3" font-family="Times,serif" font-size="14.00" fill="#0058ad">a 40 8</text>
</g>
<!-- T568&#45;&gt;T591 -->
<g id="edge2" class="edge">
<title>T568:f1&#45;&gt;T591:f0</title>
<path fill="none" stroke="#c000a5" d="M168.21,-486C168.21,-452.84 115.4,-467.86 104.26,-444.86"/>
<polygon fill="#c000a5" stroke="#c000a5" points="107.67,-444.08 102.21,-435 100.82,-445.5 107.67,-444.08"/>
<text text-anchor="middle" x="164.71" y="-456.8" font-family="Times,serif" font-size="14.00" fill="#c000a5">wr</text>
</g>
<!-- T584 -->
<g id="node4" class="node">
<title>T584</title>
<polygon fill="none" stroke="#0058ad" points="84.71,-324.5 84.71,-353.5 267.71,-353.5 267.71,-324.5 84.71,-324.5"/>
<text text-anchor="middle" x="118.21" y="-335.3" font-family="Times,serif" font-size="14.00" fill="#0058ad">r 43 [1 3]</text>
<polyline fill="none" stroke="#0058ad" points="151.71,-324.5 151.71,-353.5 "/>
<text text-anchor="middle" x="176.21" y="-335.3" font-family="Times,serif" font-size="14.00" fill="#0058ad">a 42 8</text>
<polyline fill="none" stroke="#0058ad" points="200.71,-324.5 200.71,-353.5 "/>
<text text-anchor="middle" x="234.21" y="-335.3" font-family="Times,serif" font-size="14.00" fill="#0058ad">r 43 [1 3]</text>
</g>
<!-- T568&#45;&gt;T584 -->
<g id="edge1" class="edge">
<title>T568:f1&#45;&gt;T584:f1</title>
<path fill="none" stroke="#c02700" d="M168.21,-486C168.21,-470.89 207.87,-449.14 213.21,-435 217.93,-422.53 217.33,-417.68 213.21,-405 209.77,-394.39 188.32,-377.19 179.75,-363.56"/>
<polygon fill="#c02700" stroke="#c02700" points="182.96,-362.17 176.21,-354 176.4,-364.59 182.96,-362.17"/>
<text text-anchor="middle" x="226.71" y="-416.3" font-family="Times,serif" font-size="14.00" fill="#c02700">ww</text>
</g>
<!-- T567 -->
<g id="node7" class="node">
<title>T567</title>
<polygon fill="none" stroke="#0058ad" points="278.21,-405.5 278.21,-434.5 332.21,-434.5 332.21,-405.5 278.21,-405.5"/>
<text text-anchor="middle" x="305.21" y="-416.3" font-family="Times,serif" font-size="14.00" fill="#0058ad">a 43 3</text>
</g>
<!-- T568&#45;&gt;T567 -->
<g id="edge3" class="edge">
<title>T568:f2&#45;&gt;T567:f0</title>
<path fill="none" stroke="#c02700" d="M243.21,-501C272.04,-501 289.27,-468.26 298,-444.41"/>
<polygon fill="#c02700" stroke="#c02700" points="301.34,-445.45 301.23,-434.86 294.71,-443.21 301.34,-445.45"/>
<text text-anchor="middle" x="303.71" y="-456.8" font-family="Times,serif" font-size="14.00" fill="#c02700">ww</text>
</g>
<!-- T628 -->
<g id="node2" class="node">
<title>T628</title>
<polygon fill="none" stroke="#0058ad" points="16.21,-0.5 16.21,-29.5 296.21,-29.5 296.21,-0.5 16.21,-0.5"/>
<text text-anchor="middle" x="59.21" y="-11.3" font-family="Times,serif" font-size="14.00" fill="#0058ad">r 42 [4 1 2 3]</text>
<polyline fill="none" stroke="#0058ad" points="102.21,-0.5 102.21,-29.5 "/>
<text text-anchor="middle" x="126.71" y="-11.3" font-family="Times,serif" font-size="14.00" fill="#0058ad">a 37 8</text>
<polyline fill="none" stroke="#0058ad" points="151.21,-0.5 151.21,-29.5 "/>
<text text-anchor="middle" x="175.71" y="-11.3" font-family="Times,serif" font-size="14.00" fill="#0058ad">a 31 4</text>
<polyline fill="none" stroke="#0058ad" points="200.21,-0.5 200.21,-29.5 "/>
<text text-anchor="middle" x="248.21" y="-11.3" font-family="Times,serif" font-size="14.00" fill="#0058ad">r 37 [2 5 4 1 8]</text>
</g>
<!-- T628&#45;&gt;T568 -->
<g id="edge4" class="edge">
<title>T628:f0&#45;&gt;T568:f0</title>
<path fill="none" stroke="#5b00c0" d="M15.21,-15C-20.44,-15 21.21,-59.34 21.21,-95 21.21,-421 21.21,-421 21.21,-421 21.21,-465.38 42.01,-496.27 83.21,-500.5"/>
<polygon fill="#5b00c0" stroke="#5b00c0" points="83.05,-504 93.21,-501 83.4,-497.01 83.05,-504"/>
<text text-anchor="middle" x="28.71" y="-254.3" font-family="Times,serif" font-size="14.00" fill="#5b00c0">rw</text>
</g>
<!-- T591&#45;&gt;T584 -->
<g id="edge5" class="edge">
<title>T591:f0&#45;&gt;T584:f1</title>
<path fill="none" stroke="#5b00c0" d="M102.21,-405C102.21,-368.96 162.47,-388.96 174.23,-363.86"/>
<polygon fill="#5b00c0" stroke="#5b00c0" points="177.68,-364.49 176.21,-354 170.81,-363.12 177.68,-364.49"/>
<text text-anchor="middle" x="173.71" y="-375.8" font-family="Times,serif" font-size="14.00" fill="#5b00c0">rw</text>
</g>
<!-- T610 -->
<g id="node6" class="node">
<title>T610</title>
<polygon fill="none" stroke="#0058ad" points="191.21,-162.5 191.21,-191.5 433.21,-191.5 433.21,-162.5 191.21,-162.5"/>
<text text-anchor="middle" x="215.71" y="-173.3" font-family="Times,serif" font-size="14.00" fill="#0058ad">a 43 4</text>
<polyline fill="none" stroke="#0058ad" points="240.21,-162.5 240.21,-191.5 "/>
<text text-anchor="middle" x="278.71" y="-173.3" font-family="Times,serif" font-size="14.00" fill="#0058ad">r 43 [1 3 4]</text>
<polyline fill="none" stroke="#0058ad" points="317.21,-162.5 317.21,-191.5 "/>
<text text-anchor="middle" x="341.71" y="-173.3" font-family="Times,serif" font-size="14.00" fill="#0058ad">a 34 3</text>
<polyline fill="none" stroke="#0058ad" points="366.21,-162.5 366.21,-191.5 "/>
<text text-anchor="middle" x="399.71" y="-173.3" font-family="Times,serif" font-size="14.00" fill="#0058ad">r 34 [1 3]</text>
</g>
<!-- T584&#45;&gt;T610 -->
<g id="edge6" class="edge">
<title>T584:f0&#45;&gt;T610:f0</title>
<path fill="none" stroke="#5b00c0" d="M118.21,-324C118.21,-254.8 117.54,-184.25 180.07,-177.52"/>
<polygon fill="#5b00c0" stroke="#5b00c0" points="180.41,-181.01 190.21,-177 180.05,-174.02 180.41,-181.01"/>
<text text-anchor="middle" x="129.71" y="-254.3" font-family="Times,serif" font-size="14.00" fill="#5b00c0">rw</text>
</g>
<!-- T606 -->
<g id="node8" class="node">
<title>T606</title>
<polygon fill="none" stroke="#0058ad" points="150.71,-243.5 150.71,-272.5 441.71,-272.5 441.71,-243.5 150.71,-243.5"/>
<text text-anchor="middle" x="175.71" y="-254.3" font-family="Times,serif" font-size="14.00" fill="#0058ad">r 44 []</text>
<polyline fill="none" stroke="#0058ad" points="200.71,-243.5 200.71,-272.5 "/>
<text text-anchor="middle" x="234.21" y="-254.3" font-family="Times,serif" font-size="14.00" fill="#0058ad">r 43 [1 3]</text>
<polyline fill="none" stroke="#0058ad" points="267.71,-243.5 267.71,-272.5 "/>
<text text-anchor="middle" x="292.21" y="-254.3" font-family="Times,serif" font-size="14.00" fill="#0058ad">a 42 5</text>
<polyline fill="none" stroke="#0058ad" points="316.71,-243.5 316.71,-272.5 "/>
<text text-anchor="middle" x="379.21" y="-254.3" font-family="Times,serif" font-size="14.00" fill="#0058ad">r 42 [4 1 2 3 6 7 8 5]</text>
</g>
<!-- T584&#45;&gt;T606 -->
<g id="edge7" class="edge">
<title>T584:f1&#45;&gt;T606:f2</title>
<path fill="none" stroke="#c02700" d="M176.21,-324C176.21,-271.64 276.47,-321.23 290.57,-283.21"/>
<polygon fill="#c02700" stroke="#c02700" points="294.08,-283.43 292.21,-273 287.17,-282.32 294.08,-283.43"/>
<text text-anchor="middle" x="293.71" y="-294.8" font-family="Times,serif" font-size="14.00" fill="#c02700">ww</text>
</g>
<!-- T615 -->
<g id="node5" class="node">
<title>T615</title>
<polygon fill="none" stroke="#0058ad" points="98.21,-81.5 98.21,-110.5 350.21,-110.5 350.21,-81.5 98.21,-81.5"/>
<text text-anchor="middle" x="122.71" y="-92.3" font-family="Times,serif" font-size="14.00" fill="#0058ad">a 46 6</text>
<polyline fill="none" stroke="#0058ad" points="147.21,-81.5 147.21,-110.5 "/>
<text text-anchor="middle" x="185.71" y="-92.3" font-family="Times,serif" font-size="14.00" fill="#0058ad">r 43 [1 3 4]</text>
<polyline fill="none" stroke="#0058ad" points="224.21,-81.5 224.21,-110.5 "/>
<text text-anchor="middle" x="262.71" y="-92.3" font-family="Times,serif" font-size="14.00" fill="#0058ad">r 31 [2 1 3]</text>
<polyline fill="none" stroke="#0058ad" points="301.21,-81.5 301.21,-110.5 "/>
<text text-anchor="middle" x="325.71" y="-92.3" font-family="Times,serif" font-size="14.00" fill="#0058ad">a 46 7</text>
</g>
<!-- T615&#45;&gt;T628 -->
<g id="edge8" class="edge">
<title>T615:f2&#45;&gt;T628:f2</title>
<path fill="none" stroke="#5b00c0" d="M263.21,-81C263.21,-40.21 191.14,-68.55 178.19,-40.18"/>
<polygon fill="#5b00c0" stroke="#5b00c0" points="181.56,-39.15 176.21,-30 174.69,-40.48 181.56,-39.15"/>
<text text-anchor="middle" x="260.71" y="-51.8" font-family="Times,serif" font-size="14.00" fill="#5b00c0">rw</text>
</g>
<!-- T610&#45;&gt;T615 -->
<g id="edge9" class="edge">
<title>T610:f0&#45;&gt;T615:f1</title>
<path fill="none" stroke="#c000a5" d="M215.21,-162C215.21,-139.61 193.46,-137.44 187,-121.05"/>
<polygon fill="#c000a5" stroke="#c000a5" points="190.41,-120.23 185.21,-111 183.52,-121.46 190.41,-120.23"/>
<text text-anchor="middle" x="215.71" y="-132.8" font-family="Times,serif" font-size="14.00" fill="#c000a5">wr</text>
</g>
<!-- T567&#45;&gt;T584 -->
<g id="edge10" class="edge">
<title>T567:f0&#45;&gt;T584:f0</title>
<path fill="none" stroke="#c000a5" d="M293.37,-405.26C283.58,-394.17 268.65,-379.63 252.21,-372 228.37,-360.93 143.66,-378.45 122.85,-362.88"/>
<polygon fill="#c000a5" stroke="#c000a5" points="125.95,-361.24 118.21,-354 119.74,-364.48 125.95,-361.24"/>
<text text-anchor="middle" x="280.71" y="-375.8" font-family="Times,serif" font-size="14.00" fill="#c000a5">wr</text>
</g>
<!-- T567&#45;&gt;T610 -->
<g id="edge11" class="edge">
<title>T567:f0&#45;&gt;T610:f0</title>
<path fill="none" stroke="#c02700" d="M328.35,-405.38C362.61,-382.19 425.45,-333.36 450.21,-273 455.27,-260.66 458.58,-253.38 450.21,-243 435.21,-224.39 259.01,-219.65 222,-199.73"/>
<polygon fill="#c02700" stroke="#c02700" points="224.44,-197.2 215.21,-192 219.19,-201.82 224.44,-197.2"/>
<text text-anchor="middle" x="449.71" y="-294.8" font-family="Times,serif" font-size="14.00" fill="#c02700">ww</text>
</g>
<!-- T567&#45;&gt;T606 -->
<g id="edge12" class="edge">
<title>T567:f0&#45;&gt;T606:f1</title>
<path fill="none" stroke="#c000a5" d="M302.89,-405.29C299.38,-385.81 291.57,-350.78 277.21,-324 265.06,-301.34 241.65,-301.92 235.64,-283.14"/>
<polygon fill="#c000a5" stroke="#c000a5" points="239.08,-282.41 234.21,-273 232.14,-283.39 239.08,-282.41"/>
<text text-anchor="middle" x="296.71" y="-335.3" font-family="Times,serif" font-size="14.00" fill="#c000a5">wr</text>
</g>
<!-- T606&#45;&gt;T610 -->
<g id="edge13" class="edge">
<title>T606:f1&#45;&gt;T610:f0</title>
<path fill="none" stroke="#5b00c0" d="M234.21,-243C234.21,-222.59 220.69,-217.53 216.46,-201.92"/>
<polygon fill="#5b00c0" stroke="#5b00c0" points="219.93,-201.49 215.21,-192 212.99,-202.36 219.93,-201.49"/>
<text text-anchor="middle" x="237.71" y="-213.8" font-family="Times,serif" font-size="14.00" fill="#5b00c0">rw</text>
</g>
</g>
</svg>
