<?xml version="1.0" encoding="UTF-8" standalone="no"?>
<!DOCTYPE svg PUBLIC "-//W3C//DTD SVG 1.1//EN"
 "http://www.w3.org/Graphics/SVG/1.1/DTD/svg11.dtd">
<!-- Generated by graphviz version 2.43.0 (0)
 -->
<!-- Title: a_graph Pages: 1 -->
<svg width="553pt" height="377pt"
 viewBox="0.00 0.00 553.00 377.00" xmlns="http://www.w3.org/2000/svg" xmlns:xlink="http://www.w3.org/1999/xlink">
<g id="graph0" class="graph" transform="scale(1 1) rotate(0) translate(4 373)">
<title>a_graph</title>
<polygon fill="white" stroke="transparent" points="-4,4 -4,-373 549,-373 549,4 -4,4"/>
<!-- T174 -->
<g id="node1" class="node">
<title>T174</title>
<polygon fill="none" stroke="#0058ad" points="154,-339.5 154,-368.5 359,-368.5 359,-339.5 154,-339.5"/>
<text text-anchor="middle" x="178.5" y="-350.3" font-family="Times,serif" font-size="14.00" fill="#0058ad">a 18 1</text>
<polyline fill="none" stroke="#0058ad" points="203,-339.5 203,-368.5 "/>
<text text-anchor="middle" x="228" y="-350.3" font-family="Times,serif" font-size="14.00" fill="#0058ad">r 16 []</text>
<polyline fill="none" stroke="#0058ad" points="253,-339.5 253,-368.5 "/>
<text text-anchor="middle" x="281.5" y="-350.3" font-family="Times,serif" font-size="14.00" fill="#0058ad">r 18 [1]</text>
<polyline fill="none" stroke="#0058ad" points="310,-339.5 310,-368.5 "/>
<text text-anchor="middle" x="334.5" y="-350.3" font-family="Times,serif" font-size="14.00" fill="#0058ad">a 17 2</text>
</g>
<!-- T204 -->
<g id="node2" class="node">
<title>T204</title>
<polygon fill="none" stroke="#0058ad" points="218,-162.5 218,-191.5 373,-191.5 373,-162.5 218,-162.5"/>
<text text-anchor="middle" x="242.5" y="-173.3" font-family="Times,serif" font-size="14.00" fill="#0058ad">a 19 1</text>
<polyline fill="none" stroke="#0058ad" points="267,-162.5 267,-191.5 "/>
<text text-anchor="middle" x="291.5" y="-173.3" font-family="Times,serif" font-size="14.00" fill="#0058ad">a 19 2</text>
<polyline fill="none" stroke="#0058ad" points="316,-162.5 316,-191.5 "/>
<text text-anchor="middle" x="344.5" y="-173.3" font-family="Times,serif" font-size="14.00" fill="#0058ad">r 18 [1]</text>
</g>
<!-- T174&#45;&gt;T204 -->
<g id="edge2" class="edge">
<title>T174:f0&#45;&gt;T204:f2</title>
<path fill="none" stroke="#c000a5" d="M178.5,-339C178.5,-321.92 312.19,-300.79 323.5,-288 350.06,-257.96 345.55,-238.98 344.64,-202.28"/>
<polygon fill="#c000a5" stroke="#c000a5" points="348.13,-201.95 344.5,-192 341.13,-202.05 348.13,-201.95"/>
<text text-anchor="middle" x="349" y="-269.3" font-family="Times,serif" font-size="14.00" fill="#c000a5">wr</text>
</g>
<!-- T196 -->
<g id="node3" class="node">
<title>T196</title>
<polygon fill="none" stroke="#0058ad" points="0,-210.5 0,-239.5 99,-239.5 99,-210.5 0,-210.5"/>
<text text-anchor="middle" x="21" y="-221.3" font-family="Times,serif" font-size="14.00" fill="#0058ad">a 4 1</text>
<polyline fill="none" stroke="#0058ad" points="42,-210.5 42,-239.5 "/>
<text text-anchor="middle" x="70.5" y="-221.3" font-family="Times,serif" font-size="14.00" fill="#0058ad">r 18 [1]</text>
</g>
<!-- T174&#45;&gt;T196 -->
<g id="edge1" class="edge">
<title>T174:f0&#45;&gt;T196:f1</title>
<path fill="none" stroke="#c000a5" d="M152.5,-354C93.5,-354 72.77,-307.9 70.68,-250.14"/>
<polygon fill="#c000a5" stroke="#c000a5" points="74.18,-249.94 70.5,-240 67.18,-250.06 74.18,-249.94"/>
<text text-anchor="middle" x="96" y="-309.8" font-family="Times,serif" font-size="14.00" fill="#c000a5">wr</text>
</g>
<!-- T170 -->
<g id="node4" class="node">
<title>T170</title>
<polygon fill="none" stroke="#0058ad" points="116,-81.5 116,-110.5 271,-110.5 271,-81.5 116,-81.5"/>
<text text-anchor="middle" x="140.5" y="-92.3" font-family="Times,serif" font-size="14.00" fill="#0058ad">a 18 2</text>
<polyline fill="none" stroke="#0058ad" points="165,-81.5 165,-110.5 "/>
<text text-anchor="middle" x="218" y="-92.3" font-family="Times,serif" font-size="14.00" fill="#0058ad">r 11 [3 2 1 4 6 7]</text>
</g>
<!-- T174&#45;&gt;T170 -->
<g id="edge4" class="edge">
<title>T174:f0&#45;&gt;T170:f0</title>
<path fill="none" stroke="#c02700" d="M152.5,-354C122.76,-354 144.26,-317.61 141.5,-288 135.56,-224.26 139.17,-208.01 138.5,-144 138.43,-137.33 138.13,-135.66 138.5,-129 138.68,-125.74 139.04,-123.48 139.41,-121.41"/>
<polygon fill="#c02700" stroke="#c02700" points="142.94,-121.31 140.5,-111 135.98,-120.58 142.94,-121.31"/>
<text text-anchor="middle" x="148" y="-221.3" font-family="Times,serif" font-size="14.00" fill="#c02700">ww</text>
</g>
<!-- T188 -->
<g id="node5" class="node">
<title>T188</title>
<polygon fill="none" stroke="#0058ad" points="150.5,-258.5 150.5,-287.5 314.5,-287.5 314.5,-258.5 150.5,-258.5"/>
<text text-anchor="middle" x="179" y="-269.3" font-family="Times,serif" font-size="14.00" fill="#0058ad">r 18 [1]</text>
<polyline fill="none" stroke="#0058ad" points="207.5,-258.5 207.5,-287.5 "/>
<text text-anchor="middle" x="236" y="-269.3" font-family="Times,serif" font-size="14.00" fill="#0058ad">r 18 [1]</text>
<polyline fill="none" stroke="#0058ad" points="264.5,-258.5 264.5,-287.5 "/>
<text text-anchor="middle" x="289.5" y="-269.3" font-family="Times,serif" font-size="14.00" fill="#0058ad">r 19 []</text>
</g>
<!-- T174&#45;&gt;T188 -->
<g id="edge3" class="edge">
<title>T174:f0&#45;&gt;T188:f0</title>
<path fill="none" stroke="#c000a5" d="M178.5,-339C178.5,-320.23 178.5,-313.12 178.5,-298.35"/>
<polygon fill="#c000a5" stroke="#c000a5" points="182,-298 178.5,-288 175,-298 182,-298"/>
<text text-anchor="middle" x="186" y="-309.8" font-family="Times,serif" font-size="14.00" fill="#c000a5">wr</text>
</g>
<!-- T204&#45;&gt;T170 -->
<g id="edge5" class="edge">
<title>T204:f2&#45;&gt;T170:f0</title>
<path fill="none" stroke="#5b00c0" d="M344.5,-162C344.5,-141.28 184.1,-135.58 147.76,-118.26"/>
<polygon fill="#5b00c0" stroke="#5b00c0" points="150.05,-115.6 140.5,-111 145.1,-120.55 150.05,-115.6"/>
<text text-anchor="middle" x="297" y="-132.8" font-family="Times,serif" font-size="14.00" fill="#5b00c0">rw</text>
</g>
<!-- T196&#45;&gt;T170 -->
<g id="edge6" class="edge">
<title>T196:f1&#45;&gt;T170:f0</title>
<path fill="none" stroke="#5b00c0" d="M70.5,-210C70.5,-159.3 61.51,-103.9 104.51,-96.77"/>
<polygon fill="#5b00c0" stroke="#5b00c0" points="104.8,-100.26 114.5,-96 104.26,-93.28 104.8,-100.26"/>
<text text-anchor="middle" x="78" y="-173.3" font-family="Times,serif" font-size="14.00" fill="#5b00c0">rw</text>
</g>
<!-- T199 -->
<g id="node6" class="node">
<title>T199</title>
<polygon fill="none" stroke="#0058ad" points="171,-0.5 171,-29.5 288,-29.5 288,-0.5 171,-0.5"/>
<text text-anchor="middle" x="204.5" y="-11.3" font-family="Times,serif" font-size="14.00" fill="#0058ad">r 18 [1 2]</text>
<polyline fill="none" stroke="#0058ad" points="238,-0.5 238,-29.5 "/>
<text text-anchor="middle" x="263" y="-11.3" font-family="Times,serif" font-size="14.00" fill="#0058ad">r 19 []</text>
</g>
<!-- T170&#45;&gt;T199 -->
<g id="edge8" class="edge">
<title>T170:f0&#45;&gt;T199:f0</title>
<path fill="none" stroke="#c000a5" d="M140.5,-81C140.5,-48.61 191.27,-62.31 202.37,-40"/>
<polygon fill="#c000a5" stroke="#c000a5" points="205.84,-40.51 204.5,-30 198.99,-39.05 205.84,-40.51"/>
<text text-anchor="middle" x="202" y="-51.8" font-family="Times,serif" font-size="14.00" fill="#c000a5">wr</text>
</g>
<!-- T150 -->
<g id="node7" class="node">
<title>T150</title>
<polygon fill="none" stroke="#0058ad" points="346,-0.5 346,-29.5 545,-29.5 545,-0.5 346,-0.5"/>
<text text-anchor="middle" x="371" y="-11.3" font-family="Times,serif" font-size="14.00" fill="#0058ad">r 17 []</text>
<polyline fill="none" stroke="#0058ad" points="396,-0.5 396,-29.5 "/>
<text text-anchor="middle" x="421" y="-11.3" font-family="Times,serif" font-size="14.00" fill="#0058ad">r 17 []</text>
<polyline fill="none" stroke="#0058ad" points="446,-0.5 446,-29.5 "/>
<text text-anchor="middle" x="470.5" y="-11.3" font-family="Times,serif" font-size="14.00" fill="#0058ad">a 11 8</text>
<polyline fill="none" stroke="#0058ad" points="495,-0.5 495,-29.5 "/>
<text text-anchor="middle" x="520" y="-11.3" font-family="Times,serif" font-size="14.00" fill="#0058ad">r 17 []</text>
</g>
<!-- T170&#45;&gt;T150 -->
<g id="edge7" class="edge">
<title>T170:f1&#45;&gt;T150:f2</title>
<path fill="none" stroke="#5b00c0" d="M218.5,-81C218.5,-7.52 308.47,-62.54 380.5,-48 397.06,-44.66 447.91,-48.49 464.91,-38.33"/>
<polygon fill="#5b00c0" stroke="#5b00c0" points="467.83,-40.25 470.5,-30 462.02,-36.35 467.83,-40.25"/>
<text text-anchor="middle" x="388" y="-51.8" font-family="Times,serif" font-size="14.00" fill="#5b00c0">rw</text>
</g>
<!-- T188&#45;&gt;T204 -->
<g id="edge9" class="edge">
<title>T188:f2&#45;&gt;T204:f0</title>
<path fill="none" stroke="#5b00c0" d="M289.5,-258C289.5,-225.79 251.89,-227.21 243.96,-202.09"/>
<polygon fill="#5b00c0" stroke="#5b00c0" points="247.39,-201.4 242.5,-192 240.47,-202.4 247.39,-201.4"/>
<text text-anchor="middle" x="291" y="-221.3" font-family="Times,serif" font-size="14.00" fill="#5b00c0">rw</text>
</g>
<!-- T188&#45;&gt;T170 -->
<g id="edge10" class="edge">
<title>T188:f0&#45;&gt;T170:f0</title>
<path fill="none" stroke="#5b00c0" d="M178.5,-258C178.5,-194.08 144.4,-179.9 140.81,-121.23"/>
<polygon fill="#5b00c0" stroke="#5b00c0" points="144.3,-120.89 140.5,-111 137.3,-121.1 144.3,-120.89"/>
<text text-anchor="middle" x="171" y="-173.3" font-family="Times,serif" font-size="14.00" fill="#5b00c0">rw</text>
</g>
<!-- T199&#45;&gt;T204 -->
<g id="edge11" class="edge">
<title>T199:f1&#45;&gt;T204:f0</title>
<path fill="none" stroke="#5b00c0" d="M289.5,-15C310.91,-15 296.32,-41.78 293.5,-63 290.59,-84.91 290.16,-91.12 280.5,-111 269.88,-132.85 249.45,-133.93 243.91,-151.75"/>
<polygon fill="#5b00c0" stroke="#5b00c0" points="240.4,-151.62 242.5,-162 247.33,-152.57 240.4,-151.62"/>
<text text-anchor="middle" x="298" y="-92.3" font-family="Times,serif" font-size="14.00" fill="#5b00c0">rw</text>
</g>
<!-- T150&#45;&gt;T174 -->
<g id="edge12" class="edge">
<title>T150:f0&#45;&gt;T174:f3</title>
<path fill="none" stroke="#5b00c0" d="M370.5,-30C370.5,-63.69 409.5,-61.31 409.5,-95 409.5,-274 409.5,-274 409.5,-274 409.5,-312.11 403.4,-347.39 370.5,-353.17"/>
<polygon fill="#5b00c0" stroke="#5b00c0" points="370.18,-349.69 360.5,-354 370.75,-356.66 370.18,-349.69"/>
<text text-anchor="middle" x="417" y="-173.3" font-family="Times,serif" font-size="14.00" fill="#5b00c0">rw</text>
</g>
</g>
</svg>
