<?xml version="1.0" encoding="UTF-8" standalone="no"?>
<!DOCTYPE svg PUBLIC "-//W3C//DTD SVG 1.1//EN"
 "http://www.w3.org/Graphics/SVG/1.1/DTD/svg11.dtd">
<!-- Generated by graphviz version 2.43.0 (0)
 -->
<!-- Title: a_graph Pages: 1 -->
<svg width="1047pt" height="1010pt"
 viewBox="0.00 0.00 1047.00 1010.00" xmlns="http://www.w3.org/2000/svg" xmlns:xlink="http://www.w3.org/1999/xlink">
<g id="graph0" class="graph" transform="scale(1 1) rotate(0) translate(4 1006)">
<title>a_graph</title>
<polygon fill="white" stroke="transparent" points="-4,4 -4,-1006 1043,-1006 1043,4 -4,4"/>
<!-- T517 -->
<g id="node1" class="node">
<title>T517</title>
<polygon fill="none" stroke="#0058ad" points="885,-972.5 885,-1001.5 1001,-1001.5 1001,-972.5 885,-972.5"/>
<text text-anchor="middle" x="918.5" y="-983.3" font-family="Times,serif" font-size="14.00" fill="#0058ad">r 40 [3 4]</text>
<polyline fill="none" stroke="#0058ad" points="952,-972.5 952,-1001.5 "/>
<text text-anchor="middle" x="976.5" y="-983.3" font-family="Times,serif" font-size="14.00" fill="#0058ad">a 37 4</text>
</g>
<!-- T526 -->
<g id="node6" class="node">
<title>T526</title>
<polygon fill="none" stroke="#0058ad" points="393,-891.5 393,-920.5 499,-920.5 499,-891.5 393,-891.5"/>
<text text-anchor="middle" x="421.5" y="-902.3" font-family="Times,serif" font-size="14.00" fill="#0058ad">r 31 [2]</text>
<polyline fill="none" stroke="#0058ad" points="450,-891.5 450,-920.5 "/>
<text text-anchor="middle" x="474.5" y="-902.3" font-family="Times,serif" font-size="14.00" fill="#0058ad">a 40 2</text>
</g>
<!-- T517&#45;&gt;T526 -->
<g id="edge1" class="edge">
<title>T517:f0&#45;&gt;T526:f1</title>
<path fill="none" stroke="#5b00c0" d="M884,-987C712.98,-987 675.85,-909.13 510.06,-906.09"/>
<polygon fill="#5b00c0" stroke="#5b00c0" points="510.03,-902.59 500,-906 509.97,-909.59 510.03,-902.59"/>
<text text-anchor="middle" x="717.5" y="-942.8" font-family="Times,serif" font-size="14.00" fill="#5b00c0">rw</text>
</g>
<!-- T560 -->
<g id="node9" class="node">
<title>T560</title>
<polygon fill="none" stroke="#0058ad" points="517.5,-648.5 517.5,-677.5 720.5,-677.5 720.5,-648.5 517.5,-648.5"/>
<text text-anchor="middle" x="556" y="-659.3" font-family="Times,serif" font-size="14.00" fill="#0058ad">r 40 [3 4 2]</text>
<polyline fill="none" stroke="#0058ad" points="594.5,-648.5 594.5,-677.5 "/>
<text text-anchor="middle" x="633" y="-659.3" font-family="Times,serif" font-size="14.00" fill="#0058ad">r 37 [2 5 4]</text>
<polyline fill="none" stroke="#0058ad" points="671.5,-648.5 671.5,-677.5 "/>
<text text-anchor="middle" x="696" y="-659.3" font-family="Times,serif" font-size="14.00" fill="#0058ad">a 41 7</text>
</g>
<!-- T517&#45;&gt;T560 -->
<g id="edge3" class="edge">
<title>T517:f1&#45;&gt;T560:f1</title>
<path fill="none" stroke="#c000a5" d="M977,-972C977,-879.92 986.41,-823.62 907,-777 894.46,-769.64 683.28,-708.66 640.52,-684.61"/>
<polygon fill="#c000a5" stroke="#c000a5" points="642.82,-681.97 633,-678 638.2,-687.23 642.82,-681.97"/>
<text text-anchor="middle" x="972.5" y="-821.3" font-family="Times,serif" font-size="14.00" fill="#c000a5">wr</text>
</g>
<!-- T556 -->
<g id="node16" class="node">
<title>T556</title>
<polygon fill="none" stroke="#0058ad" points="500,-567.5 500,-596.5 780,-596.5 780,-567.5 500,-567.5"/>
<text text-anchor="middle" x="538.5" y="-578.3" font-family="Times,serif" font-size="14.00" fill="#0058ad">r 36 [7 3 6]</text>
<polyline fill="none" stroke="#0058ad" points="577,-567.5 577,-596.5 "/>
<text text-anchor="middle" x="615.5" y="-578.3" font-family="Times,serif" font-size="14.00" fill="#0058ad">r 35 [4 5 7]</text>
<polyline fill="none" stroke="#0058ad" points="654,-567.5 654,-596.5 "/>
<text text-anchor="middle" x="692.5" y="-578.3" font-family="Times,serif" font-size="14.00" fill="#0058ad">r 35 [4 5 7]</text>
<polyline fill="none" stroke="#0058ad" points="731,-567.5 731,-596.5 "/>
<text text-anchor="middle" x="755.5" y="-578.3" font-family="Times,serif" font-size="14.00" fill="#0058ad">a 37 1</text>
</g>
<!-- T517&#45;&gt;T556 -->
<g id="edge2" class="edge">
<title>T517:f1&#45;&gt;T556:f3</title>
<path fill="none" stroke="#c02700" d="M1002,-987C1038.44,-987 1020,-943.44 1020,-907 1020,-907 1020,-907 1020,-702.5 1020,-676.03 1015.64,-665.74 996,-648 960.64,-616.07 940.22,-626.58 894,-615 850.2,-604.02 833.25,-619.34 794,-597 790.65,-595.09 789.43,-591.98 788.38,-589.09"/>
<polygon fill="#c02700" stroke="#c02700" points="790.64,-586.4 781,-582 785.79,-591.45 790.64,-586.4"/>
<text text-anchor="middle" x="1029.5" y="-780.8" font-family="Times,serif" font-size="14.00" fill="#c02700">ww</text>
</g>
<!-- T524 -->
<g id="node2" class="node">
<title>T524</title>
<polygon fill="none" stroke="#0058ad" points="189,-243.5 189,-272.5 363,-272.5 363,-243.5 189,-243.5"/>
<text text-anchor="middle" x="222.5" y="-254.3" font-family="Times,serif" font-size="14.00" fill="#0058ad">r 40 [3 4]</text>
<polyline fill="none" stroke="#0058ad" points="256,-243.5 256,-272.5 "/>
<text text-anchor="middle" x="281" y="-254.3" font-family="Times,serif" font-size="14.00" fill="#0058ad">r 31 []</text>
<polyline fill="none" stroke="#0058ad" points="306,-243.5 306,-272.5 "/>
<text text-anchor="middle" x="334.5" y="-254.3" font-family="Times,serif" font-size="14.00" fill="#0058ad">r 41 [1]</text>
</g>
<!-- T522 -->
<g id="node3" class="node">
<title>T522</title>
<polygon fill="none" stroke="#0058ad" points="218,-162.5 218,-191.5 450,-191.5 450,-162.5 218,-162.5"/>
<text text-anchor="middle" x="242.5" y="-173.3" font-family="Times,serif" font-size="14.00" fill="#0058ad">a 41 3</text>
<polyline fill="none" stroke="#0058ad" points="267,-162.5 267,-191.5 "/>
<text text-anchor="middle" x="300.5" y="-173.3" font-family="Times,serif" font-size="14.00" fill="#0058ad">r 37 [2 5]</text>
<polyline fill="none" stroke="#0058ad" points="334,-162.5 334,-191.5 "/>
<text text-anchor="middle" x="367.5" y="-173.3" font-family="Times,serif" font-size="14.00" fill="#0058ad">r 37 [2 5]</text>
<polyline fill="none" stroke="#0058ad" points="401,-162.5 401,-191.5 "/>
<text text-anchor="middle" x="425.5" y="-173.3" font-family="Times,serif" font-size="14.00" fill="#0058ad">a 41 4</text>
</g>
<!-- T524&#45;&gt;T522 -->
<g id="edge4" class="edge">
<title>T524:f2&#45;&gt;T522:f0</title>
<path fill="none" stroke="#5b00c0" d="M335,-243C335,-222.74 266.32,-217.05 247,-200.88"/>
<polygon fill="#5b00c0" stroke="#5b00c0" points="249.95,-199 242,-192 243.85,-202.43 249.95,-199"/>
<text text-anchor="middle" x="318.5" y="-213.8" font-family="Times,serif" font-size="14.00" fill="#5b00c0">rw</text>
</g>
<!-- T524&#45;&gt;T526 -->
<g id="edge5" class="edge">
<title>T524:f0&#45;&gt;T526:f1</title>
<path fill="none" stroke="#5b00c0" d="M222,-273C222,-301.9 224,-309.1 224,-338 224,-542.5 224,-542.5 224,-542.5 224,-687.7 249.45,-744.7 359,-840 384.04,-861.79 395.49,-859.93 426,-873 442.99,-880.28 464.02,-872.66 471.86,-881"/>
<polygon fill="#5b00c0" stroke="#5b00c0" points="468.67,-882.51 475,-891 475.34,-880.41 468.67,-882.51"/>
<text text-anchor="middle" x="233.5" y="-578.3" font-family="Times,serif" font-size="14.00" fill="#5b00c0">rw</text>
</g>
<!-- T505 -->
<g id="node12" class="node">
<title>T505</title>
<polygon fill="none" stroke="#0058ad" points="49,-162.5 49,-191.5 197,-191.5 197,-162.5 49,-162.5"/>
<text text-anchor="middle" x="73.5" y="-173.3" font-family="Times,serif" font-size="14.00" fill="#0058ad">a 36 6</text>
<polyline fill="none" stroke="#0058ad" points="98,-162.5 98,-191.5 "/>
<text text-anchor="middle" x="123" y="-173.3" font-family="Times,serif" font-size="14.00" fill="#0058ad">r 31 []</text>
<polyline fill="none" stroke="#0058ad" points="148,-162.5 148,-191.5 "/>
<text text-anchor="middle" x="172.5" y="-173.3" font-family="Times,serif" font-size="14.00" fill="#0058ad">a 31 2</text>
</g>
<!-- T524&#45;&gt;T505 -->
<g id="edge6" class="edge">
<title>T524:f1&#45;&gt;T505:f2</title>
<path fill="none" stroke="#5b00c0" d="M281,-243C281,-226.29 261.78,-234.44 248,-225 229.27,-212.16 224.49,-208.6 209,-192 206.8,-189.64 205.9,-186.83 205.13,-184.29"/>
<polygon fill="#5b00c0" stroke="#5b00c0" points="207.49,-181.7 198,-177 202.49,-186.6 207.49,-181.7"/>
<text text-anchor="middle" x="255.5" y="-213.8" font-family="Times,serif" font-size="14.00" fill="#5b00c0">rw</text>
</g>
<!-- T522&#45;&gt;T517 -->
<g id="edge7" class="edge">
<title>T522:f1&#45;&gt;T517:f1</title>
<path fill="none" stroke="#5b00c0" d="M300,-192C300,-226.71 255.45,-195.32 224,-210 192.35,-224.78 161,-222.07 161,-257 161,-502 161,-502 161,-502 161,-652.74 51.31,-662.77 19,-810 16.14,-823.02 10.66,-829.6 19,-840 118.7,-964.25 570.37,-924.33 729,-939 780.79,-943.79 952.74,-919.84 974.69,-962.26"/>
<polygon fill="#5b00c0" stroke="#5b00c0" points="971.29,-963.08 977,-972 978.1,-961.46 971.29,-963.08"/>
<text text-anchor="middle" x="160.5" y="-578.3" font-family="Times,serif" font-size="14.00" fill="#5b00c0">rw</text>
</g>
<!-- T580 -->
<g id="node5" class="node">
<title>T580</title>
<polygon fill="none" stroke="#0058ad" points="369.5,-729.5 369.5,-758.5 544.5,-758.5 544.5,-729.5 369.5,-729.5"/>
<text text-anchor="middle" x="394" y="-740.3" font-family="Times,serif" font-size="14.00" fill="#0058ad">a 31 3</text>
<polyline fill="none" stroke="#0058ad" points="418.5,-729.5 418.5,-758.5 "/>
<text text-anchor="middle" x="457" y="-740.3" font-family="Times,serif" font-size="14.00" fill="#0058ad">r 41 [1 3 4]</text>
<polyline fill="none" stroke="#0058ad" points="495.5,-729.5 495.5,-758.5 "/>
<text text-anchor="middle" x="520" y="-740.3" font-family="Times,serif" font-size="14.00" fill="#0058ad">a 40 7</text>
</g>
<!-- T522&#45;&gt;T580 -->
<g id="edge9" class="edge">
<title>T522:f3&#45;&gt;T580:f1</title>
<path fill="none" stroke="#c000a5" d="M426,-192C426,-200.11 423.67,-201.92 423,-210 420.69,-237.92 423.44,-245.03 425,-273 436.15,-472.38 456.3,-524.08 456.98,-718.72"/>
<polygon fill="#c000a5" stroke="#c000a5" points="453.48,-719.01 457,-729 460.48,-718.99 453.48,-719.01"/>
<text text-anchor="middle" x="449.5" y="-456.8" font-family="Times,serif" font-size="14.00" fill="#c000a5">wr</text>
</g>
<!-- T522&#45;&gt;T560 -->
<g id="edge8" class="edge">
<title>T522:f3&#45;&gt;T560:f2</title>
<path fill="none" stroke="#c02700" d="M426,-192C426,-309.93 487.7,-593.43 491,-597 520.37,-628.78 669.81,-605.41 692.98,-638.35"/>
<polygon fill="#c02700" stroke="#c02700" points="689.67,-639.5 696,-648 696.35,-637.41 689.67,-639.5"/>
<text text-anchor="middle" x="466.5" y="-416.3" font-family="Times,serif" font-size="14.00" fill="#c02700">ww</text>
</g>
<!-- T534 -->
<g id="node4" class="node">
<title>T534</title>
<polygon fill="none" stroke="#0058ad" points="683,-243.5 683,-272.5 897,-272.5 897,-243.5 683,-243.5"/>
<text text-anchor="middle" x="707.5" y="-254.3" font-family="Times,serif" font-size="14.00" fill="#0058ad">a 39 6</text>
<polyline fill="none" stroke="#0058ad" points="732,-243.5 732,-272.5 "/>
<text text-anchor="middle" x="756.5" y="-254.3" font-family="Times,serif" font-size="14.00" fill="#0058ad">a 39 7</text>
<polyline fill="none" stroke="#0058ad" points="781,-243.5 781,-272.5 "/>
<text text-anchor="middle" x="805.5" y="-254.3" font-family="Times,serif" font-size="14.00" fill="#0058ad">a 39 8</text>
<polyline fill="none" stroke="#0058ad" points="830,-243.5 830,-272.5 "/>
<text text-anchor="middle" x="863.5" y="-254.3" font-family="Times,serif" font-size="14.00" fill="#0058ad">r 40 [3 4]</text>
</g>
<!-- T534&#45;&gt;T526 -->
<g id="edge10" class="edge">
<title>T534:f3&#45;&gt;T526:f1</title>
<path fill="none" stroke="#5b00c0" d="M864,-273C864,-291.24 724.35,-315.93 708,-324 674.17,-340.7 661.5,-342.49 638,-372 604.36,-414.24 605.24,-432.8 596,-486 593.72,-499.14 587.86,-505.44 596,-516 609.53,-533.57 771.82,-552.97 789,-567 809.94,-584.09 816,-594.47 816,-621.5 816,-826 816,-826 816,-826 816,-895.4 592.46,-905.25 510,-905.96"/>
<polygon fill="#5b00c0" stroke="#5b00c0" points="509.98,-902.46 500,-906 510.02,-909.46 509.98,-902.46"/>
<text text-anchor="middle" x="820.5" y="-578.3" font-family="Times,serif" font-size="14.00" fill="#5b00c0">rw</text>
</g>
<!-- T580&#45;&gt;T560 -->
<g id="edge11" class="edge">
<title>T580:f1&#45;&gt;T560:f2</title>
<path fill="none" stroke="#5b00c0" d="M457,-729C457,-704.6 649.92,-704.8 689.1,-685.39"/>
<polygon fill="#5b00c0" stroke="#5b00c0" points="691.74,-687.7 696,-678 686.62,-682.93 691.74,-687.7"/>
<text text-anchor="middle" x="645.5" y="-699.8" font-family="Times,serif" font-size="14.00" fill="#5b00c0">rw</text>
</g>
<!-- T544 -->
<g id="node7" class="node">
<title>T544</title>
<polygon fill="none" stroke="#0058ad" points="28.5,-810.5 28.5,-839.5 271.5,-839.5 271.5,-810.5 28.5,-810.5"/>
<text text-anchor="middle" x="53" y="-821.3" font-family="Times,serif" font-size="14.00" fill="#0058ad">a 33 6</text>
<polyline fill="none" stroke="#0058ad" points="77.5,-810.5 77.5,-839.5 "/>
<text text-anchor="middle" x="102" y="-821.3" font-family="Times,serif" font-size="14.00" fill="#0058ad">a 36 1</text>
<polyline fill="none" stroke="#0058ad" points="126.5,-810.5 126.5,-839.5 "/>
<text text-anchor="middle" x="174.5" y="-821.3" font-family="Times,serif" font-size="14.00" fill="#0058ad">r 36 [7 3 6 8 1]</text>
<polyline fill="none" stroke="#0058ad" points="222.5,-810.5 222.5,-839.5 "/>
<text text-anchor="middle" x="247" y="-821.3" font-family="Times,serif" font-size="14.00" fill="#0058ad">a 31 1</text>
</g>
<!-- T526&#45;&gt;T544 -->
<g id="edge12" class="edge">
<title>T526:f0&#45;&gt;T544:f3</title>
<path fill="none" stroke="#5b00c0" d="M392,-906C336.26,-906 316.88,-904.66 271,-873 259.34,-864.95 251.25,-860.41 248.27,-850.16"/>
<polygon fill="#5b00c0" stroke="#5b00c0" points="251.71,-849.49 247,-840 244.77,-850.36 251.71,-849.49"/>
<text text-anchor="middle" x="278.5" y="-861.8" font-family="Times,serif" font-size="14.00" fill="#5b00c0">rw</text>
</g>
<!-- T526&#45;&gt;T560 -->
<g id="edge14" class="edge">
<title>T526:f1&#45;&gt;T560:f0</title>
<path fill="none" stroke="#c000a5" d="M500,-906C600.98,-906 558.96,-790.19 556.14,-688.14"/>
<polygon fill="#c000a5" stroke="#c000a5" points="559.64,-687.95 556,-678 552.64,-688.05 559.64,-687.95"/>
<text text-anchor="middle" x="573.5" y="-780.8" font-family="Times,serif" font-size="14.00" fill="#c000a5">wr</text>
</g>
<!-- T546 -->
<g id="node11" class="node">
<title>T546</title>
<polygon fill="none" stroke="#0058ad" points="308,-567.5 308,-596.5 406,-596.5 406,-567.5 308,-567.5"/>
<text text-anchor="middle" x="332.5" y="-578.3" font-family="Times,serif" font-size="14.00" fill="#0058ad">a 40 5</text>
<polyline fill="none" stroke="#0058ad" points="357,-567.5 357,-596.5 "/>
<text text-anchor="middle" x="381.5" y="-578.3" font-family="Times,serif" font-size="14.00" fill="#0058ad">a 40 6</text>
</g>
<!-- T526&#45;&gt;T546 -->
<g id="edge13" class="edge">
<title>T526:f1&#45;&gt;T546:f0</title>
<path fill="none" stroke="#c02700" d="M475,-891C475,-807.4 375.41,-835.19 341,-759 312.77,-696.49 330.1,-671.57 331.86,-607.23"/>
<polygon fill="#c02700" stroke="#c02700" points="335.36,-607.05 332,-597 328.36,-606.95 335.36,-607.05"/>
<text text-anchor="middle" x="350.5" y="-740.3" font-family="Times,serif" font-size="14.00" fill="#c02700">ww</text>
</g>
<!-- T544&#45;&gt;T580 -->
<g id="edge15" class="edge">
<title>T544:f3&#45;&gt;T580:f0</title>
<path fill="none" stroke="#c02700" d="M247,-810C247,-756.92 312.71,-791.08 355,-759 358.08,-756.67 359.26,-753.5 360.36,-750.68"/>
<polygon fill="#c02700" stroke="#c02700" points="362.78,-753.22 368,-744 358.17,-747.95 362.78,-753.22"/>
<text text-anchor="middle" x="290.5" y="-780.8" font-family="Times,serif" font-size="14.00" fill="#c02700">ww</text>
</g>
<!-- T512 -->
<g id="node8" class="node">
<title>T512</title>
<polygon fill="none" stroke="#0058ad" points="509.5,-0.5 509.5,-29.5 724.5,-29.5 724.5,-0.5 509.5,-0.5"/>
<text text-anchor="middle" x="567.5" y="-11.3" font-family="Times,serif" font-size="14.00" fill="#0058ad">r 38 [1 3 7 8 4 5 6]</text>
<polyline fill="none" stroke="#0058ad" points="625.5,-0.5 625.5,-29.5 "/>
<text text-anchor="middle" x="650.5" y="-11.3" font-family="Times,serif" font-size="14.00" fill="#0058ad">r 34 []</text>
<polyline fill="none" stroke="#0058ad" points="675.5,-0.5 675.5,-29.5 "/>
<text text-anchor="middle" x="700" y="-11.3" font-family="Times,serif" font-size="14.00" fill="#0058ad">a 38 2</text>
</g>
<!-- T494 -->
<g id="node18" class="node">
<title>T494</title>
<polygon fill="none" stroke="#0058ad" points="717,-324.5 717,-353.5 921,-353.5 921,-324.5 717,-324.5"/>
<text text-anchor="middle" x="741.5" y="-335.3" font-family="Times,serif" font-size="14.00" fill="#0058ad">a 40 3</text>
<polyline fill="none" stroke="#0058ad" points="766,-324.5 766,-353.5 "/>
<text text-anchor="middle" x="790.5" y="-335.3" font-family="Times,serif" font-size="14.00" fill="#0058ad">a 34 1</text>
<polyline fill="none" stroke="#0058ad" points="815,-324.5 815,-353.5 "/>
<text text-anchor="middle" x="839.5" y="-335.3" font-family="Times,serif" font-size="14.00" fill="#0058ad">a 40 4</text>
<polyline fill="none" stroke="#0058ad" points="864,-324.5 864,-353.5 "/>
<text text-anchor="middle" x="892.5" y="-335.3" font-family="Times,serif" font-size="14.00" fill="#0058ad">r 39 [3]</text>
</g>
<!-- T512&#45;&gt;T494 -->
<g id="edge16" class="edge">
<title>T512:f1&#45;&gt;T494:f1</title>
<path fill="none" stroke="#5b00c0" d="M651,-30C651,-58.94 655,-66.06 655,-95 655,-218.5 655,-218.5 655,-218.5 655,-244.15 656.59,-254.16 674,-273 709.61,-311.53 779.55,-273.65 788.95,-313.83"/>
<polygon fill="#5b00c0" stroke="#5b00c0" points="785.49,-314.41 790,-324 792.45,-313.69 785.49,-314.41"/>
<text text-anchor="middle" x="662.5" y="-173.3" font-family="Times,serif" font-size="14.00" fill="#5b00c0">rw</text>
</g>
<!-- T560&#45;&gt;T546 -->
<g id="edge18" class="edge">
<title>T560:f0&#45;&gt;T546:f0</title>
<path fill="none" stroke="#5b00c0" d="M516,-663C507.18,-663 510.41,-652.78 503,-648 488.49,-638.63 369.5,-621.93 339.07,-604.68"/>
<polygon fill="#5b00c0" stroke="#5b00c0" points="341.35,-601.98 332,-597 336.2,-606.73 341.35,-601.98"/>
<text text-anchor="middle" x="433.5" y="-618.8" font-family="Times,serif" font-size="14.00" fill="#5b00c0">rw</text>
</g>
<!-- T560&#45;&gt;T556 -->
<g id="edge17" class="edge">
<title>T560:f1&#45;&gt;T556:f3</title>
<path fill="none" stroke="#5b00c0" d="M633,-648C633,-592.63 740.66,-648.02 754.53,-606.93"/>
<polygon fill="#5b00c0" stroke="#5b00c0" points="758,-607.4 756,-597 751.08,-606.38 758,-607.4"/>
<text text-anchor="middle" x="756.5" y="-618.8" font-family="Times,serif" font-size="14.00" fill="#5b00c0">rw</text>
</g>
<!-- T530 -->
<g id="node10" class="node">
<title>T530</title>
<polygon fill="none" stroke="#0058ad" points="915.5,-243.5 915.5,-272.5 1032.5,-272.5 1032.5,-243.5 915.5,-243.5"/>
<text text-anchor="middle" x="949" y="-254.3" font-family="Times,serif" font-size="14.00" fill="#0058ad">r 40 [3 4]</text>
<polyline fill="none" stroke="#0058ad" points="982.5,-243.5 982.5,-272.5 "/>
<text text-anchor="middle" x="1007.5" y="-254.3" font-family="Times,serif" font-size="14.00" fill="#0058ad">r 42 []</text>
</g>
<!-- T530&#45;&gt;T526 -->
<g id="edge19" class="edge">
<title>T530:f0&#45;&gt;T526:f1</title>
<path fill="none" stroke="#5b00c0" d="M949,-273C949,-315.15 949.49,-800.64 848,-873 818.41,-894.09 573.59,-904.6 510.36,-905.87"/>
<polygon fill="#5b00c0" stroke="#5b00c0" points="509.95,-902.37 500,-906 510.04,-909.37 509.95,-902.37"/>
<text text-anchor="middle" x="942.5" y="-578.3" font-family="Times,serif" font-size="14.00" fill="#5b00c0">rw</text>
</g>
<!-- T546&#45;&gt;T580 -->
<g id="edge20" class="edge">
<title>T546:f1&#45;&gt;T580:f2</title>
<path fill="none" stroke="#c02700" d="M407,-582C429.37,-582 430.27,-598.17 445,-615 449.23,-619.84 500.18,-692.94 515.6,-719.72"/>
<polygon fill="#c02700" stroke="#c02700" points="512.56,-721.46 520,-729 518.88,-718.46 512.56,-721.46"/>
<text text-anchor="middle" x="497.5" y="-659.3" font-family="Times,serif" font-size="14.00" fill="#c02700">ww</text>
</g>
<!-- T505&#45;&gt;T526 -->
<g id="edge24" class="edge">
<title>T505:f2&#45;&gt;T526:f0</title>
<path fill="none" stroke="#c000a5" d="M173,-192C173,-210.29 150.94,-199.45 136,-210 90.69,-242 47,-242.03 47,-297.5 47,-542.5 47,-542.5 47,-542.5 47,-616.62 0,-628.38 0,-702.5 0,-826 0,-826 0,-826 0,-867.94 309.29,-901.94 381.65,-905.66"/>
<polygon fill="#c000a5" stroke="#c000a5" points="381.89,-909.17 392,-906 382.12,-902.18 381.89,-909.17"/>
<text text-anchor="middle" x="54.5" y="-537.8" font-family="Times,serif" font-size="14.00" fill="#c000a5">wr</text>
</g>
<!-- T505&#45;&gt;T544 -->
<g id="edge23" class="edge">
<title>T505:f2&#45;&gt;T544:f3</title>
<path fill="none" stroke="#c02700" d="M173,-192C173,-206.05 154.13,-197.89 147,-210 72.07,-337.19 114,-392.88 114,-540.5 114,-745 114,-745 114,-745 114,-807.07 232.36,-751.33 245.77,-800.05"/>
<polygon fill="#c02700" stroke="#c02700" points="242.3,-800.51 247,-810 249.25,-799.65 242.3,-800.51"/>
<text text-anchor="middle" x="123.5" y="-497.3" font-family="Times,serif" font-size="14.00" fill="#c02700">ww</text>
</g>
<!-- T505&#45;&gt;T556 -->
<g id="edge21" class="edge">
<title>T505:f0&#45;&gt;T556:f0</title>
<path fill="none" stroke="#c000a5" d="M73,-192C73,-394.98 356.09,-241.96 477,-405 487.24,-418.8 481.36,-541.77 492.54,-574.19"/>
<polygon fill="#c000a5" stroke="#c000a5" points="489.93,-576.53 499,-582 495.32,-572.06 489.93,-576.53"/>
<text text-anchor="middle" x="468.5" y="-375.8" font-family="Times,serif" font-size="14.00" fill="#c000a5">wr</text>
</g>
<!-- T532 -->
<g id="node17" class="node">
<title>T532</title>
<polygon fill="none" stroke="#0058ad" points="206.5,-81.5 206.5,-110.5 573.5,-110.5 573.5,-81.5 206.5,-81.5"/>
<text text-anchor="middle" x="231" y="-92.3" font-family="Times,serif" font-size="14.00" fill="#0058ad">a 36 8</text>
<polyline fill="none" stroke="#0058ad" points="255.5,-81.5 255.5,-110.5 "/>
<text text-anchor="middle" x="298.5" y="-92.3" font-family="Times,serif" font-size="14.00" fill="#0058ad">r 36 [7 3 6 8]</text>
<polyline fill="none" stroke="#0058ad" points="341.5,-81.5 341.5,-110.5 "/>
<text text-anchor="middle" x="399.5" y="-92.3" font-family="Times,serif" font-size="14.00" fill="#0058ad">r 38 [1 3 7 8 4 5 6]</text>
<polyline fill="none" stroke="#0058ad" points="457.5,-81.5 457.5,-110.5 "/>
<text text-anchor="middle" x="515.5" y="-92.3" font-family="Times,serif" font-size="14.00" fill="#0058ad">r 38 [1 3 7 8 4 5 6]</text>
</g>
<!-- T505&#45;&gt;T532 -->
<g id="edge22" class="edge">
<title>T505:f0&#45;&gt;T532:f0</title>
<path fill="none" stroke="#c02700" d="M73,-162C73,-99.87 132.59,-96.22 194.63,-96.01"/>
<polygon fill="#c02700" stroke="#c02700" points="195,-99.51 205,-96 195,-92.51 195,-99.51"/>
<text text-anchor="middle" x="90.5" y="-132.8" font-family="Times,serif" font-size="14.00" fill="#c02700">ww</text>
</g>
<!-- T536 -->
<g id="node13" class="node">
<title>T536</title>
<polygon fill="none" stroke="#0058ad" points="605,-486.5 605,-515.5 811,-515.5 811,-486.5 605,-486.5"/>
<text text-anchor="middle" x="629.5" y="-497.3" font-family="Times,serif" font-size="14.00" fill="#0058ad">a 35 8</text>
<polyline fill="none" stroke="#0058ad" points="654,-486.5 654,-515.5 "/>
<text text-anchor="middle" x="679" y="-497.3" font-family="Times,serif" font-size="14.00" fill="#0058ad">r 40 []</text>
<polyline fill="none" stroke="#0058ad" points="704,-486.5 704,-515.5 "/>
<text text-anchor="middle" x="732.5" y="-497.3" font-family="Times,serif" font-size="14.00" fill="#0058ad">r 39 [3]</text>
<polyline fill="none" stroke="#0058ad" points="761,-486.5 761,-515.5 "/>
<text text-anchor="middle" x="786" y="-497.3" font-family="Times,serif" font-size="14.00" fill="#0058ad">r 40 []</text>
</g>
<!-- T489 -->
<g id="node15" class="node">
<title>T489</title>
<polygon fill="none" stroke="#0058ad" points="656.5,-405.5 656.5,-434.5 881.5,-434.5 881.5,-405.5 656.5,-405.5"/>
<text text-anchor="middle" x="681" y="-416.3" font-family="Times,serif" font-size="14.00" fill="#0058ad">a 39 1</text>
<polyline fill="none" stroke="#0058ad" points="705.5,-405.5 705.5,-434.5 "/>
<text text-anchor="middle" x="730" y="-416.3" font-family="Times,serif" font-size="14.00" fill="#0058ad">a 39 2</text>
<polyline fill="none" stroke="#0058ad" points="754.5,-405.5 754.5,-434.5 "/>
<text text-anchor="middle" x="793" y="-416.3" font-family="Times,serif" font-size="14.00" fill="#0058ad">r 39 [3 1 2]</text>
<polyline fill="none" stroke="#0058ad" points="831.5,-405.5 831.5,-434.5 "/>
<text text-anchor="middle" x="856.5" y="-416.3" font-family="Times,serif" font-size="14.00" fill="#0058ad">r 40 []</text>
</g>
<!-- T536&#45;&gt;T489 -->
<g id="edge25" class="edge">
<title>T536:f2&#45;&gt;T489:f0</title>
<path fill="none" stroke="#5b00c0" d="M733,-486C733,-457.55 692.83,-464.72 683.1,-444.9"/>
<polygon fill="#5b00c0" stroke="#5b00c0" points="686.5,-444.05 681,-435 679.66,-445.51 686.5,-444.05"/>
<text text-anchor="middle" x="730.5" y="-456.8" font-family="Times,serif" font-size="14.00" fill="#5b00c0">rw</text>
</g>
<!-- T536&#45;&gt;T494 -->
<g id="edge26" class="edge">
<title>T536:f1&#45;&gt;T494:f0</title>
<path fill="none" stroke="#5b00c0" d="M679,-486C679,-455.48 643.95,-463.49 633,-435 628.22,-422.55 627.21,-417.01 633,-405 651.92,-365.79 666.5,-342.7 705.77,-339.41"/>
<polygon fill="#5b00c0" stroke="#5b00c0" points="706.15,-342.9 716,-339 705.87,-335.9 706.15,-342.9"/>
<text text-anchor="middle" x="640.5" y="-416.3" font-family="Times,serif" font-size="14.00" fill="#5b00c0">rw</text>
</g>
<!-- T516 -->
<g id="node14" class="node">
<title>T516</title>
<polygon fill="none" stroke="#0058ad" points="457,-243.5 457,-272.5 581,-272.5 581,-243.5 457,-243.5"/>
<text text-anchor="middle" x="485.5" y="-254.3" font-family="Times,serif" font-size="14.00" fill="#0058ad">r 34 [1]</text>
<polyline fill="none" stroke="#0058ad" points="514,-243.5 514,-272.5 "/>
<text text-anchor="middle" x="547.5" y="-254.3" font-family="Times,serif" font-size="14.00" fill="#0058ad">r 40 [3 4]</text>
</g>
<!-- T516&#45;&gt;T526 -->
<g id="edge27" class="edge">
<title>T516:f1&#45;&gt;T526:f1</title>
<path fill="none" stroke="#5b00c0" d="M548,-273C548,-335.36 275,-275.64 275,-338 275,-542.5 275,-542.5 275,-542.5 275,-658.16 278.69,-700.16 349,-792 366.23,-814.51 369.3,-821.76 391,-840 405.24,-851.96 456.14,-864.7 470.94,-881.7"/>
<polygon fill="#5b00c0" stroke="#5b00c0" points="467.79,-883.24 475,-891 474.2,-880.44 467.79,-883.24"/>
<text text-anchor="middle" x="283.5" y="-578.3" font-family="Times,serif" font-size="14.00" fill="#5b00c0">rw</text>
</g>
<!-- T489&#45;&gt;T494 -->
<g id="edge28" class="edge">
<title>T489:f3&#45;&gt;T494:f0</title>
<path fill="none" stroke="#5b00c0" d="M857,-405C857,-352.64 756.74,-402.23 742.64,-364.21"/>
<polygon fill="#5b00c0" stroke="#5b00c0" points="746.04,-363.32 741,-354 739.13,-364.43 746.04,-363.32"/>
<text text-anchor="middle" x="856.5" y="-375.8" font-family="Times,serif" font-size="14.00" fill="#5b00c0">rw</text>
</g>
<!-- T556&#45;&gt;T536 -->
<g id="edge29" class="edge">
<title>T556:f1&#45;&gt;T536:f0</title>
<path fill="none" stroke="#5b00c0" d="M615,-567C615,-547.35 624.78,-541.34 627.99,-526.17"/>
<polygon fill="#5b00c0" stroke="#5b00c0" points="631.5,-526.3 629,-516 624.53,-525.61 631.5,-526.3"/>
<text text-anchor="middle" x="632.5" y="-537.8" font-family="Times,serif" font-size="14.00" fill="#5b00c0">rw</text>
</g>
<!-- T556&#45;&gt;T532 -->
<g id="edge30" class="edge">
<title>T556:f0&#45;&gt;T532:f0</title>
<path fill="none" stroke="#5b00c0" d="M538,-567C538,-538.11 539,-530.89 539,-502 539,-502 539,-502 539,-338 539,-316.2 538.9,-307.62 553,-291 564.83,-277.06 580.3,-288.5 590,-273 597.07,-261.7 596.49,-254.65 590,-243 556.67,-183.21 522.39,-187.83 459,-162 414.3,-143.79 255.65,-160.23 233.56,-120.92"/>
<polygon fill="#5b00c0" stroke="#5b00c0" points="236.89,-119.81 231,-111 230.11,-121.56 236.89,-119.81"/>
<text text-anchor="middle" x="546.5" y="-335.3" font-family="Times,serif" font-size="14.00" fill="#5b00c0">rw</text>
</g>
<!-- T532&#45;&gt;T544 -->
<g id="edge31" class="edge">
<title>T532:f0&#45;&gt;T544:f1</title>
<path fill="none" stroke="#c02700" d="M205,-96C184.69,-96 9,-106.98 9,-176 9,-542.5 9,-542.5 9,-542.5 9,-664.93 96.98,-683.19 101.8,-799.92"/>
<polygon fill="#c02700" stroke="#c02700" points="98.3,-800.07 102,-810 105.3,-799.93 98.3,-800.07"/>
<text text-anchor="middle" x="18.5" y="-456.8" font-family="Times,serif" font-size="14.00" fill="#c02700">ww</text>
</g>
<!-- T532&#45;&gt;T512 -->
<g id="edge32" class="edge">
<title>T532:f2&#45;&gt;T512:f2</title>
<path fill="none" stroke="#5b00c0" d="M400,-81C400,50.55 683.82,-153.51 699.34,-40.31"/>
<polygon fill="#5b00c0" stroke="#5b00c0" points="702.85,-40.2 700,-30 695.87,-39.76 702.85,-40.2"/>
<text text-anchor="middle" x="703.5" y="-51.8" font-family="Times,serif" font-size="14.00" fill="#5b00c0">rw</text>
</g>
<!-- T494&#45;&gt;T517 -->
<g id="edge34" class="edge">
<title>T494:f2&#45;&gt;T517:f0</title>
<path fill="none" stroke="#c000a5" d="M840,-354C840,-384.4 877.98,-360.2 906,-372 944,-388.01 986,-377.76 986,-419 986,-542.5 986,-542.5 986,-542.5 986,-732.37 920.37,-777.18 918.06,-961.95"/>
<polygon fill="#c000a5" stroke="#c000a5" points="914.56,-961.98 918,-972 921.56,-962.02 914.56,-961.98"/>
<text text-anchor="middle" x="985.5" y="-659.3" font-family="Times,serif" font-size="14.00" fill="#c000a5">wr</text>
</g>
<!-- T494&#45;&gt;T524 -->
<g id="edge39" class="edge">
<title>T494:f2&#45;&gt;T524:f0</title>
<path fill="none" stroke="#c000a5" d="M840,-324C840,-308.91 584.04,-307.21 569,-306 560.33,-305.3 287.14,-287.04 231.74,-276.31"/>
<polygon fill="#c000a5" stroke="#c000a5" points="232.59,-272.9 222,-273 230.34,-279.53 232.59,-272.9"/>
<text text-anchor="middle" x="576.5" y="-294.8" font-family="Times,serif" font-size="14.00" fill="#c000a5">wr</text>
</g>
<!-- T494&#45;&gt;T534 -->
<g id="edge38" class="edge">
<title>T494:f2&#45;&gt;T534:f3</title>
<path fill="none" stroke="#c000a5" d="M840,-324C840,-302.86 857.09,-298.92 862.43,-283.16"/>
<polygon fill="#c000a5" stroke="#c000a5" points="865.93,-283.42 864,-273 859.01,-282.35 865.93,-283.42"/>
<text text-anchor="middle" x="865.5" y="-294.8" font-family="Times,serif" font-size="14.00" fill="#c000a5">wr</text>
</g>
<!-- T494&#45;&gt;T526 -->
<g id="edge33" class="edge">
<title>T494:f2&#45;&gt;T526:f1</title>
<path fill="none" stroke="#c02700" d="M840,-354C840,-368.79 857.35,-361.74 868,-372 880.88,-384.4 885.64,-387.94 891,-405 906.71,-455.03 867.79,-836.64 830,-873 805.21,-896.85 571.2,-904.93 510.24,-905.9"/>
<polygon fill="#c02700" stroke="#c02700" points="509.96,-902.4 500,-906 510.03,-909.4 509.96,-902.4"/>
<text text-anchor="middle" x="892.5" y="-618.8" font-family="Times,serif" font-size="14.00" fill="#c02700">ww</text>
</g>
<!-- T494&#45;&gt;T530 -->
<g id="edge37" class="edge">
<title>T494:f2&#45;&gt;T530:f0</title>
<path fill="none" stroke="#c000a5" d="M840,-324C840,-305.71 862.46,-317.09 877,-306 892.53,-294.16 894.89,-289.05 906,-273 907.41,-270.96 907.94,-268.65 908.29,-266.45"/>
<polygon fill="#c000a5" stroke="#c000a5" points="911.3,-268.25 914,-258 905.5,-264.33 911.3,-268.25"/>
<text text-anchor="middle" x="900.5" y="-294.8" font-family="Times,serif" font-size="14.00" fill="#c000a5">wr</text>
</g>
<!-- T494&#45;&gt;T516 -->
<g id="edge36" class="edge">
<title>T494:f1&#45;&gt;T516:f0</title>
<path fill="none" stroke="#c000a5" d="M790,-324C790,-306.77 652.85,-309.58 636,-306 614.14,-301.35 609.72,-296.27 588,-291 568.95,-286.38 508.72,-293.28 490.36,-281.6"/>
<polygon fill="#c000a5" stroke="#c000a5" points="493.26,-279.63 485,-273 487.32,-283.34 493.26,-279.63"/>
<text text-anchor="middle" x="643.5" y="-294.8" font-family="Times,serif" font-size="14.00" fill="#c000a5">wr</text>
</g>
<!-- T494&#45;&gt;T489 -->
<g id="edge35" class="edge">
<title>T494:f3&#45;&gt;T489:f0</title>
<path fill="none" stroke="#5b00c0" d="M893,-354C893,-372.4 884.07,-378.03 868,-387 852.12,-395.86 722.01,-387.1 688.73,-398.5"/>
<polygon fill="#5b00c0" stroke="#5b00c0" points="686.4,-395.88 681,-405 690.91,-401.24 686.4,-395.88"/>
<text text-anchor="middle" x="894.5" y="-375.8" font-family="Times,serif" font-size="14.00" fill="#5b00c0">rw</text>
</g>
</g>
</svg>
