<?xml version="1.0" encoding="UTF-8" standalone="no"?>
<!DOCTYPE svg PUBLIC "-//W3C//DTD SVG 1.1//EN"
 "http://www.w3.org/Graphics/SVG/1.1/DTD/svg11.dtd">
<!-- Generated by graphviz version 2.43.0 (0)
 -->
<!-- Title: a_graph Pages: 1 -->
<svg width="401pt" height="281pt"
 viewBox="0.00 0.00 401.00 281.00" xmlns="http://www.w3.org/2000/svg" xmlns:xlink="http://www.w3.org/1999/xlink">
<g id="graph0" class="graph" transform="scale(1 1) rotate(0) translate(4 277)">
<title>a_graph</title>
<polygon fill="white" stroke="transparent" points="-4,4 -4,-277 397,-277 397,4 -4,4"/>
<!-- T2897 -->
<g id="node1" class="node">
<title>T2897</title>
<polygon fill="none" stroke="#0058ad" points="171,-243.5 171,-272.5 227,-272.5 227,-243.5 171,-243.5"/>
<text text-anchor="middle" x="199" y="-254.3" font-family="Times,serif" font-size="14.00" fill="#0058ad">a 181 6</text>
</g>
<!-- T2915 -->
<g id="node4" class="node">
<title>T2915</title>
<polygon fill="none" stroke="#0058ad" points="18,-162.5 18,-191.5 156,-191.5 156,-162.5 18,-162.5"/>
<text text-anchor="middle" x="55" y="-173.3" font-family="Times,serif" font-size="14.00" fill="#0058ad">r 181 [3 6]</text>
<polyline fill="none" stroke="#0058ad" points="92,-162.5 92,-191.5 "/>
<text text-anchor="middle" x="124" y="-173.3" font-family="Times,serif" font-size="14.00" fill="#0058ad">r 180 [1]</text>
</g>
<!-- T2897&#45;&gt;T2915 -->
<g id="edge1" class="edge">
<title>T2897:f0&#45;&gt;T2915:f0</title>
<path fill="none" stroke="#c000a5" d="M171.9,-243.44C171.6,-243.29 171.3,-243.14 171,-243 123.73,-219.99 63.62,-244.58 55.84,-202.12"/>
<polygon fill="#c000a5" stroke="#c000a5" points="59.32,-201.68 55,-192 52.34,-202.26 59.32,-201.68"/>
<text text-anchor="middle" x="80.5" y="-213.8" font-family="Times,serif" font-size="14.00" fill="#c000a5">wr</text>
</g>
<!-- T2896 -->
<g id="node2" class="node">
<title>T2896</title>
<polygon fill="none" stroke="#0058ad" points="209,-0.5 209,-29.5 393,-29.5 393,-0.5 209,-0.5"/>
<text text-anchor="middle" x="237" y="-11.3" font-family="Times,serif" font-size="14.00" fill="#0058ad">a 181 3</text>
<polyline fill="none" stroke="#0058ad" points="265,-0.5 265,-29.5 "/>
<text text-anchor="middle" x="297" y="-11.3" font-family="Times,serif" font-size="14.00" fill="#0058ad">r 181 [3]</text>
<polyline fill="none" stroke="#0058ad" points="329,-0.5 329,-29.5 "/>
<text text-anchor="middle" x="361" y="-11.3" font-family="Times,serif" font-size="14.00" fill="#0058ad">r 182 [1]</text>
</g>
<!-- T2896&#45;&gt;T2897 -->
<g id="edge2" class="edge">
<title>T2896:f0&#45;&gt;T2897:f0</title>
<path fill="none" stroke="#c02700" d="M237,-30C237,-55.05 255.54,-56.55 261,-81 263.91,-94.01 263.64,-97.93 261,-111 251.77,-156.66 227.91,-205.76 212.62,-234.09"/>
<polygon fill="#c02700" stroke="#c02700" points="209.37,-232.75 207.61,-243.2 215.5,-236.12 209.37,-232.75"/>
<text text-anchor="middle" x="266.5" y="-132.8" font-family="Times,serif" font-size="14.00" fill="#c02700">ww</text>
</g>
<!-- T2917 -->
<g id="node3" class="node">
<title>T2917</title>
<polygon fill="none" stroke="#0058ad" points="0,-81.5 0,-110.5 252,-110.5 252,-81.5 0,-81.5"/>
<text text-anchor="middle" x="28" y="-92.3" font-family="Times,serif" font-size="14.00" fill="#0058ad">a 180 4</text>
<polyline fill="none" stroke="#0058ad" points="56,-81.5 56,-110.5 "/>
<text text-anchor="middle" x="84" y="-92.3" font-family="Times,serif" font-size="14.00" fill="#0058ad">a 180 5</text>
<polyline fill="none" stroke="#0058ad" points="112,-81.5 112,-110.5 "/>
<text text-anchor="middle" x="140.5" y="-92.3" font-family="Times,serif" font-size="14.00" fill="#0058ad">r 181 []</text>
<polyline fill="none" stroke="#0058ad" points="169,-81.5 169,-110.5 "/>
<text text-anchor="middle" x="210.5" y="-92.3" font-family="Times,serif" font-size="14.00" fill="#0058ad">r 180 [1 4 5]</text>
</g>
<!-- T2917&#45;&gt;T2896 -->
<g id="edge3" class="edge">
<title>T2917:f2&#45;&gt;T2896:f0</title>
<path fill="none" stroke="#5b00c0" d="M141,-81C141,-42.79 162.06,-19.29 197.6,-15.53"/>
<polygon fill="#5b00c0" stroke="#5b00c0" points="198.19,-19.01 208,-15 197.83,-12.02 198.19,-19.01"/>
<text text-anchor="middle" x="155.5" y="-51.8" font-family="Times,serif" font-size="14.00" fill="#5b00c0">rw</text>
</g>
<!-- T2915&#45;&gt;T2917 -->
<g id="edge4" class="edge">
<title>T2915:f1&#45;&gt;T2917:f0</title>
<path fill="none" stroke="#5b00c0" d="M124,-162C124,-117.65 43.1,-152.46 29.83,-121.1"/>
<polygon fill="#5b00c0" stroke="#5b00c0" points="33.23,-120.21 28,-111 26.34,-121.46 33.23,-120.21"/>
<text text-anchor="middle" x="123.5" y="-132.8" font-family="Times,serif" font-size="14.00" fill="#5b00c0">rw</text>
</g>
</g>
</svg>
