<?xml version="1.0" encoding="UTF-8" standalone="no"?>
<!DOCTYPE svg PUBLIC "-//W3C//DTD SVG 1.1//EN"
 "http://www.w3.org/Graphics/SVG/1.1/DTD/svg11.dtd">
<!-- Generated by graphviz version 2.43.0 (0)
 -->
<!-- Title: a_graph Pages: 1 -->
<svg width="582pt" height="539pt"
 viewBox="0.00 0.00 582.00 539.00" xmlns="http://www.w3.org/2000/svg" xmlns:xlink="http://www.w3.org/1999/xlink">
<g id="graph0" class="graph" transform="scale(1 1) rotate(0) translate(4 535)">
<title>a_graph</title>
<polygon fill="white" stroke="transparent" points="-4,4 -4,-535 578,-535 578,4 -4,4"/>
<!-- T231 -->
<g id="node1" class="node">
<title>T231</title>
<polygon fill="none" stroke="#0058ad" points="113.5,-501.5 113.5,-530.5 212.5,-530.5 212.5,-501.5 113.5,-501.5"/>
<text text-anchor="middle" x="138" y="-512.3" font-family="Times,serif" font-size="14.00" fill="#0058ad">a 23 1</text>
<polyline fill="none" stroke="#0058ad" points="162.5,-501.5 162.5,-530.5 "/>
<text text-anchor="middle" x="187.5" y="-512.3" font-family="Times,serif" font-size="14.00" fill="#0058ad">r 21 []</text>
</g>
<!-- T236 -->
<g id="node5" class="node">
<title>T236</title>
<polygon fill="none" stroke="#0058ad" points="393,-420.5 393,-449.5 447,-449.5 447,-420.5 393,-420.5"/>
<text text-anchor="middle" x="420" y="-431.3" font-family="Times,serif" font-size="14.00" fill="#0058ad">a 21 4</text>
</g>
<!-- T231&#45;&gt;T236 -->
<g id="edge2" class="edge">
<title>T231:f1&#45;&gt;T236:f0</title>
<path fill="none" stroke="#5b00c0" d="M214,-516C280.35,-516 350.91,-479.15 389.81,-455.16"/>
<polygon fill="#5b00c0" stroke="#5b00c0" points="391.94,-457.96 398.54,-449.67 388.22,-452.04 391.94,-457.96"/>
<text text-anchor="middle" x="375.5" y="-471.8" font-family="Times,serif" font-size="14.00" fill="#5b00c0">rw</text>
</g>
<!-- T230 -->
<g id="node7" class="node">
<title>T230</title>
<polygon fill="none" stroke="#0058ad" points="21,-372.5 21,-401.5 75,-401.5 75,-372.5 21,-372.5"/>
<text text-anchor="middle" x="48" y="-383.3" font-family="Times,serif" font-size="14.00" fill="#0058ad">a 23 6</text>
</g>
<!-- T231&#45;&gt;T230 -->
<g id="edge1" class="edge">
<title>T231:f0&#45;&gt;T230:f0</title>
<path fill="none" stroke="#c02700" d="M112,-516C66.04,-516 53.08,-449.47 49.43,-411.96"/>
<polygon fill="#c02700" stroke="#c02700" points="52.9,-411.48 48.6,-401.8 45.93,-412.05 52.9,-411.48"/>
<text text-anchor="middle" x="76.5" y="-471.8" font-family="Times,serif" font-size="14.00" fill="#c02700">ww</text>
</g>
<!-- T238 -->
<g id="node2" class="node">
<title>T238</title>
<polygon fill="none" stroke="#0058ad" points="28,-81.5 28,-110.5 244,-110.5 244,-81.5 28,-81.5"/>
<text text-anchor="middle" x="61.5" y="-92.3" font-family="Times,serif" font-size="14.00" fill="#0058ad">r 20 [2 1]</text>
<polyline fill="none" stroke="#0058ad" points="95,-81.5 95,-110.5 "/>
<text text-anchor="middle" x="119.5" y="-92.3" font-family="Times,serif" font-size="14.00" fill="#0058ad">a 20 6</text>
<polyline fill="none" stroke="#0058ad" points="144,-81.5 144,-110.5 "/>
<text text-anchor="middle" x="169" y="-92.3" font-family="Times,serif" font-size="14.00" fill="#0058ad">r 23 []</text>
<polyline fill="none" stroke="#0058ad" points="194,-81.5 194,-110.5 "/>
<text text-anchor="middle" x="219" y="-92.3" font-family="Times,serif" font-size="14.00" fill="#0058ad">r 23 []</text>
</g>
<!-- T238&#45;&gt;T231 -->
<g id="edge3" class="edge">
<title>T238:f2&#45;&gt;T231:f0</title>
<path fill="none" stroke="#5b00c0" d="M169,-111C169,-143.01 138,-143.99 138,-176 138,-436 138,-436 138,-436 138,-461.16 138,-469.89 138,-490.82"/>
<polygon fill="#5b00c0" stroke="#5b00c0" points="134.5,-491 138,-501 141.5,-491 134.5,-491"/>
<text text-anchor="middle" x="145.5" y="-294.8" font-family="Times,serif" font-size="14.00" fill="#5b00c0">rw</text>
</g>
<!-- T266 -->
<g id="node9" class="node">
<title>T266</title>
<polygon fill="none" stroke="#0058ad" points="296,-0.5 296,-29.5 546,-29.5 546,-0.5 296,-0.5"/>
<text text-anchor="middle" x="329.5" y="-11.3" font-family="Times,serif" font-size="14.00" fill="#0058ad">r 23 [1 6]</text>
<polyline fill="none" stroke="#0058ad" points="363,-0.5 363,-29.5 "/>
<text text-anchor="middle" x="401.5" y="-11.3" font-family="Times,serif" font-size="14.00" fill="#0058ad">r 20 [2 1 6]</text>
<polyline fill="none" stroke="#0058ad" points="440,-0.5 440,-29.5 "/>
<text text-anchor="middle" x="468.5" y="-11.3" font-family="Times,serif" font-size="14.00" fill="#0058ad">r 21 [4]</text>
<polyline fill="none" stroke="#0058ad" points="497,-0.5 497,-29.5 "/>
<text text-anchor="middle" x="521.5" y="-11.3" font-family="Times,serif" font-size="14.00" fill="#0058ad">a 16 6</text>
</g>
<!-- T238&#45;&gt;T266 -->
<g id="edge4" class="edge">
<title>T238:f1&#45;&gt;T266:f1</title>
<path fill="none" stroke="#c000a5" d="M119,-81C119,42.76 385.25,-146.09 400.33,-40.04"/>
<polygon fill="#c000a5" stroke="#c000a5" points="403.83,-40.21 401,-30 396.85,-39.75 403.83,-40.21"/>
<text text-anchor="middle" x="406.5" y="-51.8" font-family="Times,serif" font-size="14.00" fill="#c000a5">wr</text>
</g>
<!-- T259 -->
<g id="node3" class="node">
<title>T259</title>
<polygon fill="none" stroke="#0058ad" points="279.5,-243.5 279.5,-272.5 444.5,-272.5 444.5,-243.5 279.5,-243.5"/>
<text text-anchor="middle" x="313" y="-254.3" font-family="Times,serif" font-size="14.00" fill="#0058ad">r 16 [3 4]</text>
<polyline fill="none" stroke="#0058ad" points="346.5,-243.5 346.5,-272.5 "/>
<text text-anchor="middle" x="371" y="-254.3" font-family="Times,serif" font-size="14.00" fill="#0058ad">a 20 5</text>
<polyline fill="none" stroke="#0058ad" points="395.5,-243.5 395.5,-272.5 "/>
<text text-anchor="middle" x="420" y="-254.3" font-family="Times,serif" font-size="14.00" fill="#0058ad">a 21 1</text>
</g>
<!-- T242 -->
<g id="node10" class="node">
<title>T242</title>
<polygon fill="none" stroke="#0058ad" points="166.5,-162.5 166.5,-191.5 437.5,-191.5 437.5,-162.5 166.5,-162.5"/>
<text text-anchor="middle" x="219.5" y="-173.3" font-family="Times,serif" font-size="14.00" fill="#0058ad">r 22 [1 5 6 8 2 3]</text>
<polyline fill="none" stroke="#0058ad" points="272.5,-162.5 272.5,-191.5 "/>
<text text-anchor="middle" x="297" y="-173.3" font-family="Times,serif" font-size="14.00" fill="#0058ad">a 16 5</text>
<polyline fill="none" stroke="#0058ad" points="321.5,-162.5 321.5,-191.5 "/>
<text text-anchor="middle" x="346" y="-173.3" font-family="Times,serif" font-size="14.00" fill="#0058ad">a 22 7</text>
<polyline fill="none" stroke="#0058ad" points="370.5,-162.5 370.5,-191.5 "/>
<text text-anchor="middle" x="404" y="-173.3" font-family="Times,serif" font-size="14.00" fill="#0058ad">r 20 [2 1]</text>
</g>
<!-- T259&#45;&gt;T242 -->
<g id="edge5" class="edge">
<title>T259:f0&#45;&gt;T242:f1</title>
<path fill="none" stroke="#5b00c0" d="M313,-243C313,-223.14 301.82,-217.45 298.15,-202.23"/>
<polygon fill="#5b00c0" stroke="#5b00c0" points="301.6,-201.55 297,-192 294.64,-202.33 301.6,-201.55"/>
<text text-anchor="middle" x="316.5" y="-213.8" font-family="Times,serif" font-size="14.00" fill="#5b00c0">rw</text>
</g>
<!-- T272 -->
<g id="node4" class="node">
<title>T272</title>
<polygon fill="none" stroke="#0058ad" points="210.5,-324.5 210.5,-353.5 383.5,-353.5 383.5,-324.5 210.5,-324.5"/>
<text text-anchor="middle" x="239" y="-335.3" font-family="Times,serif" font-size="14.00" fill="#0058ad">r 21 [4]</text>
<polyline fill="none" stroke="#0058ad" points="267.5,-324.5 267.5,-353.5 "/>
<text text-anchor="middle" x="292" y="-335.3" font-family="Times,serif" font-size="14.00" fill="#0058ad">a 24 8</text>
<polyline fill="none" stroke="#0058ad" points="316.5,-324.5 316.5,-353.5 "/>
<text text-anchor="middle" x="350" y="-335.3" font-family="Times,serif" font-size="14.00" fill="#0058ad">r 24 [3 8]</text>
</g>
<!-- T272&#45;&gt;T259 -->
<g id="edge6" class="edge">
<title>T272:f0&#45;&gt;T259:f2</title>
<path fill="none" stroke="#5b00c0" d="M239,-324C239,-305.64 378.82,-296.3 412.68,-280.12"/>
<polygon fill="#5b00c0" stroke="#5b00c0" points="415.27,-282.48 420,-273 410.39,-277.46 415.27,-282.48"/>
<text text-anchor="middle" x="379.5" y="-294.8" font-family="Times,serif" font-size="14.00" fill="#5b00c0">rw</text>
</g>
<!-- T236&#45;&gt;T259 -->
<g id="edge8" class="edge">
<title>T236:f0&#45;&gt;T259:f2</title>
<path fill="none" stroke="#c02700" d="M420,-420.26C420,-393.57 420,-335.2 420,-283.29"/>
<polygon fill="#c02700" stroke="#c02700" points="423.5,-283 420,-273 416.5,-283 423.5,-283"/>
<text text-anchor="middle" x="429.5" y="-335.3" font-family="Times,serif" font-size="14.00" fill="#c02700">ww</text>
</g>
<!-- T236&#45;&gt;T272 -->
<g id="edge9" class="edge">
<title>T236:f0&#45;&gt;T272:f0</title>
<path fill="none" stroke="#c000a5" d="M393.87,-420.43C393.58,-420.28 393.29,-420.14 393,-420 329.41,-388.81 247.46,-424.61 239.61,-364.1"/>
<polygon fill="#c000a5" stroke="#c000a5" points="243.1,-363.77 239,-354 236.11,-364.19 243.1,-363.77"/>
<text text-anchor="middle" x="291.5" y="-383.3" font-family="Times,serif" font-size="14.00" fill="#c000a5">wr</text>
</g>
<!-- T254 -->
<g id="node6" class="node">
<title>T254</title>
<polygon fill="none" stroke="#0058ad" points="457.5,-324.5 457.5,-353.5 514.5,-353.5 514.5,-324.5 457.5,-324.5"/>
<text text-anchor="middle" x="486" y="-335.3" font-family="Times,serif" font-size="14.00" fill="#0058ad">r 21 [4]</text>
</g>
<!-- T236&#45;&gt;T254 -->
<g id="edge7" class="edge">
<title>T236:f0&#45;&gt;T254:f0</title>
<path fill="none" stroke="#c000a5" d="M430.02,-420.42C440.68,-404.91 457.7,-380.17 470.17,-362.03"/>
<polygon fill="#c000a5" stroke="#c000a5" points="473.1,-363.94 475.88,-353.72 467.33,-359.98 473.1,-363.94"/>
<text text-anchor="middle" x="470.5" y="-383.3" font-family="Times,serif" font-size="14.00" fill="#c000a5">wr</text>
</g>
<!-- T236&#45;&gt;T266 -->
<g id="edge10" class="edge">
<title>T236:f0&#45;&gt;T266:f2</title>
<path fill="none" stroke="#c000a5" d="M446.14,-420.46C446.43,-420.3 446.72,-420.15 447,-420 500.94,-391.15 559,-401.17 559,-340 559,-340 559,-340 559,-135.5 559,-110.49 561.11,-100.13 545,-81 532.45,-66.09 521.28,-73.72 505,-63 490.27,-53.3 475.71,-51.91 470.77,-40.08"/>
<polygon fill="#c000a5" stroke="#c000a5" points="474.18,-39.24 469,-30 467.28,-40.45 474.18,-39.24"/>
<text text-anchor="middle" x="566.5" y="-213.8" font-family="Times,serif" font-size="14.00" fill="#c000a5">wr</text>
</g>
<!-- T254&#45;&gt;T259 -->
<g id="edge11" class="edge">
<title>T254:f0&#45;&gt;T259:f2</title>
<path fill="none" stroke="#5b00c0" d="M485.21,-324.14C483.34,-303.68 477.06,-268.39 455.97,-259.88"/>
<polygon fill="#5b00c0" stroke="#5b00c0" points="456.48,-256.42 446,-258 455.18,-263.29 456.48,-256.42"/>
<text text-anchor="middle" x="489.5" y="-294.8" font-family="Times,serif" font-size="14.00" fill="#5b00c0">rw</text>
</g>
<!-- T230&#45;&gt;T266 -->
<g id="edge12" class="edge">
<title>T230:f0&#45;&gt;T266:f0</title>
<path fill="none" stroke="#c000a5" d="M33.86,-372.23C19.7,-355.83 0,-327.92 0,-299.5 0,-299.5 0,-299.5 0,-95 0,-39.82 225.27,-17.94 284.92,-15.28"/>
<polygon fill="#c000a5" stroke="#c000a5" points="285.1,-18.78 295,-15 284.91,-11.78 285.1,-18.78"/>
<text text-anchor="middle" x="7.5" y="-213.8" font-family="Times,serif" font-size="14.00" fill="#c000a5">wr</text>
</g>
<!-- T304 -->
<g id="node8" class="node">
<title>T304</title>
<polygon fill="none" stroke="#0058ad" points="262.5,-81.5 262.5,-110.5 437.5,-110.5 437.5,-81.5 262.5,-81.5"/>
<text text-anchor="middle" x="287" y="-92.3" font-family="Times,serif" font-size="14.00" fill="#0058ad">a 25 2</text>
<polyline fill="none" stroke="#0058ad" points="311.5,-81.5 311.5,-110.5 "/>
<text text-anchor="middle" x="350" y="-92.3" font-family="Times,serif" font-size="14.00" fill="#0058ad">r 16 [3 4 5]</text>
<polyline fill="none" stroke="#0058ad" points="388.5,-81.5 388.5,-110.5 "/>
<text text-anchor="middle" x="413" y="-92.3" font-family="Times,serif" font-size="14.00" fill="#0058ad">a 26 1</text>
</g>
<!-- T304&#45;&gt;T266 -->
<g id="edge13" class="edge">
<title>T304:f1&#45;&gt;T266:f3</title>
<path fill="none" stroke="#5b00c0" d="M350,-81C350,-5 506.25,-99.98 520.9,-40.01"/>
<polygon fill="#5b00c0" stroke="#5b00c0" points="524.39,-40.32 522,-30 517.43,-39.56 524.39,-40.32"/>
<text text-anchor="middle" x="524.5" y="-51.8" font-family="Times,serif" font-size="14.00" fill="#5b00c0">rw</text>
</g>
<!-- T266&#45;&gt;T259 -->
<g id="edge14" class="edge">
<title>T266:f2&#45;&gt;T259:f2</title>
<path fill="none" stroke="#5b00c0" d="M469,-30C469,-128.27 542.4,-249.16 456.08,-257.54"/>
<polygon fill="#5b00c0" stroke="#5b00c0" points="455.83,-254.05 446,-258 456.15,-261.04 455.83,-254.05"/>
<text text-anchor="middle" x="494.5" y="-132.8" font-family="Times,serif" font-size="14.00" fill="#5b00c0">rw</text>
</g>
<!-- T242&#45;&gt;T238 -->
<g id="edge16" class="edge">
<title>T242:f3&#45;&gt;T238:f1</title>
<path fill="none" stroke="#5b00c0" d="M404,-162C404,-133.11 375.55,-137.69 348,-129 326.42,-122.19 163.05,-133.37 126.32,-118.2"/>
<polygon fill="#5b00c0" stroke="#5b00c0" points="128.58,-115.52 119,-111 123.68,-120.51 128.58,-115.52"/>
<text text-anchor="middle" x="405.5" y="-132.8" font-family="Times,serif" font-size="14.00" fill="#5b00c0">rw</text>
</g>
<!-- T242&#45;&gt;T304 -->
<g id="edge15" class="edge">
<title>T242:f1&#45;&gt;T304:f1</title>
<path fill="none" stroke="#c000a5" d="M297,-162C297,-155.55 330,-132.61 343.92,-119.21"/>
<polygon fill="#c000a5" stroke="#c000a5" points="346.86,-121.12 350,-111 341.24,-116.95 346.86,-121.12"/>
<text text-anchor="middle" x="339.5" y="-132.8" font-family="Times,serif" font-size="14.00" fill="#c000a5">wr</text>
</g>
<!-- T242&#45;&gt;T266 -->
<g id="edge17" class="edge">
<title>T242:f1&#45;&gt;T266:f3</title>
<path fill="none" stroke="#c02700" d="M297,-162C297,-141.02 467.13,-155.01 485,-144 535.88,-112.65 602.02,-26.35 557.1,-16.02"/>
<polygon fill="#c02700" stroke="#c02700" points="557.3,-12.52 547,-15 556.6,-19.48 557.3,-12.52"/>
<text text-anchor="middle" x="558.5" y="-92.3" font-family="Times,serif" font-size="14.00" fill="#c02700">ww</text>
</g>
</g>
</svg>
