<?xml version="1.0" encoding="UTF-8" standalone="no"?>
<!DOCTYPE svg PUBLIC "-//W3C//DTD SVG 1.1//EN"
 "http://www.w3.org/Graphics/SVG/1.1/DTD/svg11.dtd">
<!-- Generated by graphviz version 2.43.0 (0)
 -->
<!-- Title: a_graph Pages: 1 -->
<svg width="312pt" height="119pt"
 viewBox="0.00 0.00 311.50 119.00" xmlns="http://www.w3.org/2000/svg" xmlns:xlink="http://www.w3.org/1999/xlink">
<g id="graph0" class="graph" transform="scale(1 1) rotate(0) translate(4 115)">
<title>a_graph</title>
<polygon fill="white" stroke="transparent" points="-4,4 -4,-115 307.5,-115 307.5,4 -4,4"/>
<!-- T935 -->
<g id="node1" class="node">
<title>T935</title>
<polygon fill="none" stroke="#0058ad" points="0,-81.5 0,-110.5 203,-110.5 203,-81.5 0,-81.5"/>
<text text-anchor="middle" x="38.5" y="-92.3" font-family="Times,serif" font-size="14.00" fill="#0058ad">r 61 [2 1 3]</text>
<polyline fill="none" stroke="#0058ad" points="77,-81.5 77,-110.5 "/>
<text text-anchor="middle" x="115.5" y="-92.3" font-family="Times,serif" font-size="14.00" fill="#0058ad">r 70 [1 2 3]</text>
<polyline fill="none" stroke="#0058ad" points="154,-81.5 154,-110.5 "/>
<text text-anchor="middle" x="178.5" y="-92.3" font-family="Times,serif" font-size="14.00" fill="#0058ad">a 69 4</text>
</g>
<!-- T933 -->
<g id="node2" class="node">
<title>T933</title>
<polygon fill="none" stroke="#0058ad" points="91.5,-0.5 91.5,-29.5 303.5,-29.5 303.5,-0.5 91.5,-0.5"/>
<text text-anchor="middle" x="116" y="-11.3" font-family="Times,serif" font-size="14.00" fill="#0058ad">a 70 4</text>
<polyline fill="none" stroke="#0058ad" points="140.5,-0.5 140.5,-29.5 "/>
<text text-anchor="middle" x="179" y="-11.3" font-family="Times,serif" font-size="14.00" fill="#0058ad">r 69 [1 2 3]</text>
<polyline fill="none" stroke="#0058ad" points="217.5,-0.5 217.5,-29.5 "/>
<text text-anchor="middle" x="260.5" y="-11.3" font-family="Times,serif" font-size="14.00" fill="#0058ad">r 70 [1 2 3 4]</text>
</g>
<!-- T935&#45;&gt;T933 -->
<g id="edge1" class="edge">
<title>T935:f1&#45;&gt;T933:f0</title>
<path fill="none" stroke="#5b00c0" d="M115.5,-81C115.5,-62.23 115.5,-55.12 115.5,-40.35"/>
<polygon fill="#5b00c0" stroke="#5b00c0" points="119,-40 115.5,-30 112,-40 119,-40"/>
<text text-anchor="middle" x="123" y="-51.8" font-family="Times,serif" font-size="14.00" fill="#5b00c0">rw</text>
</g>
<!-- T933&#45;&gt;T935 -->
<g id="edge2" class="edge">
<title>T933:f1&#45;&gt;T935:f2</title>
<path fill="none" stroke="#5b00c0" d="M178.5,-30C178.5,-48.77 178.5,-55.88 178.5,-70.65"/>
<polygon fill="#5b00c0" stroke="#5b00c0" points="175,-71 178.5,-81 182,-71 175,-71"/>
<text text-anchor="middle" x="186" y="-51.8" font-family="Times,serif" font-size="14.00" fill="#5b00c0">rw</text>
</g>
</g>
</svg>
