<?xml version="1.0" encoding="UTF-8" standalone="no"?>
<!DOCTYPE svg PUBLIC "-//W3C//DTD SVG 1.1//EN"
 "http://www.w3.org/Graphics/SVG/1.1/DTD/svg11.dtd">
<!-- Generated by graphviz version 2.43.0 (0)
 -->
<!-- Title: a_graph Pages: 1 -->
<svg width="391pt" height="281pt"
 viewBox="0.00 0.00 391.00 281.00" xmlns="http://www.w3.org/2000/svg" xmlns:xlink="http://www.w3.org/1999/xlink">
<g id="graph0" class="graph" transform="scale(1 1) rotate(0) translate(4 277)">
<title>a_graph</title>
<polygon fill="white" stroke="transparent" points="-4,4 -4,-277 387,-277 387,4 -4,4"/>
<!-- T1483 -->
<g id="node1" class="node">
<title>T1483</title>
<polygon fill="none" stroke="#0058ad" points="79,-243.5 79,-272.5 305,-272.5 305,-243.5 79,-243.5"/>
<text text-anchor="middle" x="107.5" y="-254.3" font-family="Times,serif" font-size="14.00" fill="#0058ad">r 104 []</text>
<polyline fill="none" stroke="#0058ad" points="136,-243.5 136,-272.5 "/>
<text text-anchor="middle" x="164.5" y="-254.3" font-family="Times,serif" font-size="14.00" fill="#0058ad">r 102 []</text>
<polyline fill="none" stroke="#0058ad" points="193,-243.5 193,-272.5 "/>
<text text-anchor="middle" x="221" y="-254.3" font-family="Times,serif" font-size="14.00" fill="#0058ad">a 103 3</text>
<polyline fill="none" stroke="#0058ad" points="249,-243.5 249,-272.5 "/>
<text text-anchor="middle" x="277" y="-254.3" font-family="Times,serif" font-size="14.00" fill="#0058ad">a 103 4</text>
</g>
<!-- T1479 -->
<g id="node5" class="node">
<title>T1479</title>
<polygon fill="none" stroke="#0058ad" points="0,-162.5 0,-191.5 170,-191.5 170,-162.5 0,-162.5"/>
<text text-anchor="middle" x="28.5" y="-173.3" font-family="Times,serif" font-size="14.00" fill="#0058ad">r 101 []</text>
<polyline fill="none" stroke="#0058ad" points="57,-162.5 57,-191.5 "/>
<text text-anchor="middle" x="85.5" y="-173.3" font-family="Times,serif" font-size="14.00" fill="#0058ad">r 102 []</text>
<polyline fill="none" stroke="#0058ad" points="114,-162.5 114,-191.5 "/>
<text text-anchor="middle" x="142" y="-173.3" font-family="Times,serif" font-size="14.00" fill="#0058ad">a 102 2</text>
</g>
<!-- T1483&#45;&gt;T1479 -->
<g id="edge1" class="edge">
<title>T1483:f1&#45;&gt;T1479:f2</title>
<path fill="none" stroke="#5b00c0" d="M164,-243C164,-222.17 148.34,-217.76 143.44,-202.06"/>
<polygon fill="#5b00c0" stroke="#5b00c0" points="146.89,-201.4 142,-192 139.96,-202.4 146.89,-201.4"/>
<text text-anchor="middle" x="166.5" y="-213.8" font-family="Times,serif" font-size="14.00" fill="#5b00c0">rw</text>
</g>
<!-- T1468 -->
<g id="node2" class="node">
<title>T1468</title>
<polygon fill="none" stroke="#0058ad" points="113,-81.5 113,-110.5 225,-110.5 225,-81.5 113,-81.5"/>
<text text-anchor="middle" x="141" y="-92.3" font-family="Times,serif" font-size="14.00" fill="#0058ad">a 103 2</text>
<polyline fill="none" stroke="#0058ad" points="169,-81.5 169,-110.5 "/>
<text text-anchor="middle" x="197" y="-92.3" font-family="Times,serif" font-size="14.00" fill="#0058ad">a 101 1</text>
</g>
<!-- T1468&#45;&gt;T1483 -->
<g id="edge4" class="edge">
<title>T1468:f0&#45;&gt;T1483:f2</title>
<path fill="none" stroke="#c02700" d="M141,-111C141,-135.04 175.79,-111.25 192,-129 207.63,-146.11 218.34,-201.96 220.57,-232.62"/>
<polygon fill="#c02700" stroke="#c02700" points="217.09,-233.15 221,-243 224.08,-232.86 217.09,-233.15"/>
<text text-anchor="middle" x="223.5" y="-173.3" font-family="Times,serif" font-size="14.00" fill="#c02700">ww</text>
</g>
<!-- T1494 -->
<g id="node3" class="node">
<title>T1494</title>
<polygon fill="none" stroke="#0058ad" points="45,-0.5 45,-29.5 237,-29.5 237,-0.5 45,-0.5"/>
<text text-anchor="middle" x="77" y="-11.3" font-family="Times,serif" font-size="14.00" fill="#0058ad">r 102 [2]</text>
<polyline fill="none" stroke="#0058ad" points="109,-0.5 109,-29.5 "/>
<text text-anchor="middle" x="141" y="-11.3" font-family="Times,serif" font-size="14.00" fill="#0058ad">r 103 [2]</text>
<polyline fill="none" stroke="#0058ad" points="173,-0.5 173,-29.5 "/>
<text text-anchor="middle" x="205" y="-11.3" font-family="Times,serif" font-size="14.00" fill="#0058ad">r 102 [2]</text>
</g>
<!-- T1468&#45;&gt;T1494 -->
<g id="edge3" class="edge">
<title>T1468:f0&#45;&gt;T1494:f1</title>
<path fill="none" stroke="#c000a5" d="M141,-81C141,-62.23 141,-55.12 141,-40.35"/>
<polygon fill="#c000a5" stroke="#c000a5" points="144.5,-40 141,-30 137.5,-40 144.5,-40"/>
<text text-anchor="middle" x="148.5" y="-51.8" font-family="Times,serif" font-size="14.00" fill="#c000a5">wr</text>
</g>
<!-- T1491 -->
<g id="node4" class="node">
<title>T1491</title>
<polygon fill="none" stroke="#0058ad" points="255,-0.5 255,-29.5 383,-29.5 383,-0.5 255,-0.5"/>
<text text-anchor="middle" x="287" y="-11.3" font-family="Times,serif" font-size="14.00" fill="#0058ad">r 101 [1]</text>
<polyline fill="none" stroke="#0058ad" points="319,-0.5 319,-29.5 "/>
<text text-anchor="middle" x="351" y="-11.3" font-family="Times,serif" font-size="14.00" fill="#0058ad">r 103 [2]</text>
</g>
<!-- T1468&#45;&gt;T1491 -->
<g id="edge2" class="edge">
<title>T1468:f1&#45;&gt;T1491:f0</title>
<path fill="none" stroke="#c000a5" d="M197,-81C197,-49.57 227.54,-55.44 246,-30 247.46,-27.99 248,-25.69 248.35,-23.5"/>
<polygon fill="#c000a5" stroke="#c000a5" points="251.38,-25.27 254,-15 245.55,-21.39 251.38,-25.27"/>
<text text-anchor="middle" x="230.5" y="-51.8" font-family="Times,serif" font-size="14.00" fill="#c000a5">wr</text>
</g>
<!-- T1494&#45;&gt;T1483 -->
<g id="edge5" class="edge">
<title>T1494:f1&#45;&gt;T1483:f2</title>
<path fill="none" stroke="#5b00c0" d="M141,-30C141,-74.28 210.66,-13.98 239,-48 279.97,-97.18 242.3,-128.21 237,-192 235.77,-206.78 237.08,-211.06 232,-225 230.39,-229.4 227.64,-231.56 225.3,-233.79"/>
<polygon fill="#5b00c0" stroke="#5b00c0" points="222.05,-232.46 221,-243 228.4,-235.42 222.05,-232.46"/>
<text text-anchor="middle" x="258.5" y="-132.8" font-family="Times,serif" font-size="14.00" fill="#5b00c0">rw</text>
</g>
<!-- T1491&#45;&gt;T1483 -->
<g id="edge6" class="edge">
<title>T1491:f1&#45;&gt;T1483:f2</title>
<path fill="none" stroke="#5b00c0" d="M351,-30C351,-128.22 312.33,-151.65 247,-225 240.87,-231.89 231.59,-231.43 225.93,-234.28"/>
<polygon fill="#5b00c0" stroke="#5b00c0" points="222.88,-232.57 221,-243 228.97,-236.02 222.88,-232.57"/>
<text text-anchor="middle" x="335.5" y="-132.8" font-family="Times,serif" font-size="14.00" fill="#5b00c0">rw</text>
</g>
<!-- T1479&#45;&gt;T1468 -->
<g id="edge8" class="edge">
<title>T1479:f0&#45;&gt;T1468:f1</title>
<path fill="none" stroke="#5b00c0" d="M28,-162C28,-132.02 64.26,-152.53 93,-144 112.79,-138.12 174.29,-135.91 192.11,-120.41"/>
<polygon fill="#5b00c0" stroke="#5b00c0" points="195.5,-121.49 197,-111 189.28,-118.26 195.5,-121.49"/>
<text text-anchor="middle" x="182.5" y="-132.8" font-family="Times,serif" font-size="14.00" fill="#5b00c0">rw</text>
</g>
<!-- T1479&#45;&gt;T1494 -->
<g id="edge7" class="edge">
<title>T1479:f2&#45;&gt;T1494:f0</title>
<path fill="none" stroke="#c000a5" d="M142,-162C142,-138.8 107.57,-162.05 93,-144 63.06,-106.91 75.02,-84.39 76.79,-40.11"/>
<polygon fill="#c000a5" stroke="#c000a5" points="80.3,-40.07 77,-30 73.3,-39.93 80.3,-40.07"/>
<text text-anchor="middle" x="83.5" y="-92.3" font-family="Times,serif" font-size="14.00" fill="#c000a5">wr</text>
</g>
</g>
</svg>
