<?xml version="1.0" encoding="UTF-8" standalone="no"?>
<!DOCTYPE svg PUBLIC "-//W3C//DTD SVG 1.1//EN"
 "http://www.w3.org/Graphics/SVG/1.1/DTD/svg11.dtd">
<!-- Generated by graphviz version 2.43.0 (0)
 -->
<!-- Title: a_graph Pages: 1 -->
<svg width="156pt" height="200pt"
 viewBox="0.00 0.00 156.00 200.00" xmlns="http://www.w3.org/2000/svg" xmlns:xlink="http://www.w3.org/1999/xlink">
<g id="graph0" class="graph" transform="scale(1 1) rotate(0) translate(4 196)">
<title>a_graph</title>
<polygon fill="white" stroke="transparent" points="-4,4 -4,-196 152,-196 152,4 -4,4"/>
<!-- T1096 -->
<g id="node1" class="node">
<title>T1096</title>
<polygon fill="none" stroke="#0058ad" points="0,-162.5 0,-191.5 148,-191.5 148,-162.5 0,-162.5"/>
<text text-anchor="middle" x="24.5" y="-173.3" font-family="Times,serif" font-size="14.00" fill="#0058ad">a 78 5</text>
<polyline fill="none" stroke="#0058ad" points="49,-162.5 49,-191.5 "/>
<text text-anchor="middle" x="73.5" y="-173.3" font-family="Times,serif" font-size="14.00" fill="#0058ad">a 78 6</text>
<polyline fill="none" stroke="#0058ad" points="98,-162.5 98,-191.5 "/>
<text text-anchor="middle" x="123" y="-173.3" font-family="Times,serif" font-size="14.00" fill="#0058ad">r 80 []</text>
</g>
<!-- T1087 -->
<g id="node2" class="node">
<title>T1087</title>
<polygon fill="none" stroke="#0058ad" points="72,-81.5 72,-110.5 126,-110.5 126,-81.5 72,-81.5"/>
<text text-anchor="middle" x="99" y="-92.3" font-family="Times,serif" font-size="14.00" fill="#0058ad">a 80 3</text>
</g>
<!-- T1096&#45;&gt;T1087 -->
<g id="edge1" class="edge">
<title>T1096:f2&#45;&gt;T1087:f0</title>
<path fill="none" stroke="#5b00c0" d="M123,-162C123,-147.38 117.73,-131.97 112.13,-119.72"/>
<polygon fill="#5b00c0" stroke="#5b00c0" points="115.22,-118.08 107.66,-110.65 108.94,-121.17 115.22,-118.08"/>
<text text-anchor="middle" x="127.5" y="-132.8" font-family="Times,serif" font-size="14.00" fill="#5b00c0">rw</text>
</g>
<!-- T1105 -->
<g id="node3" class="node">
<title>T1105</title>
<polygon fill="none" stroke="#0058ad" points="1,-0.5 1,-29.5 107,-29.5 107,-0.5 1,-0.5"/>
<text text-anchor="middle" x="25.5" y="-11.3" font-family="Times,serif" font-size="14.00" fill="#0058ad">a 80 6</text>
<polyline fill="none" stroke="#0058ad" points="50,-0.5 50,-29.5 "/>
<text text-anchor="middle" x="78.5" y="-11.3" font-family="Times,serif" font-size="14.00" fill="#0058ad">r 78 [1]</text>
</g>
<!-- T1087&#45;&gt;T1105 -->
<g id="edge2" class="edge">
<title>T1087:f0&#45;&gt;T1105:f0</title>
<path fill="none" stroke="#c02700" d="M81.84,-81.25C66.12,-67.69 43.64,-48.12 32.23,-37.49"/>
<polygon fill="#c02700" stroke="#c02700" points="34.46,-34.76 25,-30 29.43,-39.63 34.46,-34.76"/>
<text text-anchor="middle" x="68.5" y="-51.8" font-family="Times,serif" font-size="14.00" fill="#c02700">ww</text>
</g>
<!-- T1105&#45;&gt;T1096 -->
<g id="edge3" class="edge">
<title>T1105:f1&#45;&gt;T1096:f0</title>
<path fill="none" stroke="#5b00c0" d="M79,-30C79,-47.89 53.63,-33.61 43,-48 14.57,-86.49 22.62,-107.63 23.86,-151.87"/>
<polygon fill="#5b00c0" stroke="#5b00c0" points="20.36,-152.05 24,-162 27.36,-151.95 20.36,-152.05"/>
<text text-anchor="middle" x="32.5" y="-92.3" font-family="Times,serif" font-size="14.00" fill="#5b00c0">rw</text>
</g>
</g>
</svg>
