<?xml version="1.0" encoding="UTF-8" standalone="no"?>
<!DOCTYPE svg PUBLIC "-//W3C//DTD SVG 1.1//EN"
 "http://www.w3.org/Graphics/SVG/1.1/DTD/svg11.dtd">
<!-- Generated by graphviz version 2.43.0 (0)
 -->
<!-- Title: a_graph Pages: 1 -->
<svg width="377pt" height="200pt"
 viewBox="0.00 0.00 376.50 200.00" xmlns="http://www.w3.org/2000/svg" xmlns:xlink="http://www.w3.org/1999/xlink">
<g id="graph0" class="graph" transform="scale(1 1) rotate(0) translate(4 196)">
<title>a_graph</title>
<polygon fill="white" stroke="transparent" points="-4,4 -4,-196 372.5,-196 372.5,4 -4,4"/>
<!-- T2975 -->
<g id="node1" class="node">
<title>T2975</title>
<polygon fill="none" stroke="#0058ad" points="34,-162.5 34,-191.5 320,-191.5 320,-162.5 34,-162.5"/>
<text text-anchor="middle" x="75.5" y="-173.3" font-family="Times,serif" font-size="14.00" fill="#0058ad">r 187 [1 2 5]</text>
<polyline fill="none" stroke="#0058ad" points="117,-162.5 117,-191.5 "/>
<text text-anchor="middle" x="158.5" y="-173.3" font-family="Times,serif" font-size="14.00" fill="#0058ad">r 187 [1 2 5]</text>
<polyline fill="none" stroke="#0058ad" points="200,-162.5 200,-191.5 "/>
<text text-anchor="middle" x="228" y="-173.3" font-family="Times,serif" font-size="14.00" fill="#0058ad">a 188 1</text>
<polyline fill="none" stroke="#0058ad" points="256,-162.5 256,-191.5 "/>
<text text-anchor="middle" x="288" y="-173.3" font-family="Times,serif" font-size="14.00" fill="#0058ad">r 188 [1]</text>
</g>
<!-- T2981 -->
<g id="node3" class="node">
<title>T2981</title>
<polygon fill="none" stroke="#0058ad" points="0,-81.5 0,-110.5 270,-110.5 270,-81.5 0,-81.5"/>
<text text-anchor="middle" x="28" y="-92.3" font-family="Times,serif" font-size="14.00" fill="#0058ad">a 188 2</text>
<polyline fill="none" stroke="#0058ad" points="56,-81.5 56,-110.5 "/>
<text text-anchor="middle" x="93" y="-92.3" font-family="Times,serif" font-size="14.00" fill="#0058ad">r 188 [1 2]</text>
<polyline fill="none" stroke="#0058ad" points="130,-81.5 130,-110.5 "/>
<text text-anchor="middle" x="158.5" y="-92.3" font-family="Times,serif" font-size="14.00" fill="#0058ad">r 189 []</text>
<polyline fill="none" stroke="#0058ad" points="187,-81.5 187,-110.5 "/>
<text text-anchor="middle" x="228.5" y="-92.3" font-family="Times,serif" font-size="14.00" fill="#0058ad">r 182 [1 2 3]</text>
</g>
<!-- T2975&#45;&gt;T2981 -->
<g id="edge1" class="edge">
<title>T2975:f2&#45;&gt;T2981:f0</title>
<path fill="none" stroke="#c02700" d="M228,-162C228,-74.03 44.07,-192.24 28.98,-121.19"/>
<polygon fill="#c02700" stroke="#c02700" points="32.44,-120.62 28,-111 25.48,-121.29 32.44,-120.62"/>
<text text-anchor="middle" x="232.5" y="-132.8" font-family="Times,serif" font-size="14.00" fill="#c02700">ww</text>
</g>
<!-- T2979 -->
<g id="node2" class="node">
<title>T2979</title>
<polygon fill="none" stroke="#0058ad" points="199.5,-0.5 199.5,-29.5 368.5,-29.5 368.5,-0.5 199.5,-0.5"/>
<text text-anchor="middle" x="227.5" y="-11.3" font-family="Times,serif" font-size="14.00" fill="#0058ad">a 189 1</text>
<polyline fill="none" stroke="#0058ad" points="255.5,-0.5 255.5,-29.5 "/>
<text text-anchor="middle" x="284" y="-11.3" font-family="Times,serif" font-size="14.00" fill="#0058ad">r 188 []</text>
<polyline fill="none" stroke="#0058ad" points="312.5,-0.5 312.5,-29.5 "/>
<text text-anchor="middle" x="340.5" y="-11.3" font-family="Times,serif" font-size="14.00" fill="#0058ad">a 189 2</text>
</g>
<!-- T2979&#45;&gt;T2975 -->
<g id="edge2" class="edge">
<title>T2979:f1&#45;&gt;T2975:f2</title>
<path fill="none" stroke="#5b00c0" d="M284,-30C284,-66.07 293.82,-78.12 279,-111 278.98,-111.04 249.1,-140.88 235.09,-154.89"/>
<polygon fill="#5b00c0" stroke="#5b00c0" points="232.58,-152.45 228,-162 237.54,-157.39 232.58,-152.45"/>
<text text-anchor="middle" x="294.5" y="-92.3" font-family="Times,serif" font-size="14.00" fill="#5b00c0">rw</text>
</g>
<!-- T2981&#45;&gt;T2979 -->
<g id="edge3" class="edge">
<title>T2981:f2&#45;&gt;T2979:f0</title>
<path fill="none" stroke="#5b00c0" d="M159,-81C159,-50.65 162.91,-22.01 187.83,-16.11"/>
<polygon fill="#5b00c0" stroke="#5b00c0" points="188.44,-19.56 198,-15 187.68,-12.6 188.44,-19.56"/>
<text text-anchor="middle" x="169.5" y="-51.8" font-family="Times,serif" font-size="14.00" fill="#5b00c0">rw</text>
</g>
</g>
</svg>
