<?xml version="1.0" encoding="UTF-8" standalone="no"?>
<!DOCTYPE svg PUBLIC "-//W3C//DTD SVG 1.1//EN"
 "http://www.w3.org/Graphics/SVG/1.1/DTD/svg11.dtd">
<!-- Generated by graphviz version 2.43.0 (0)
 -->
<!-- Title: a_graph Pages: 1 -->
<svg width="278pt" height="200pt"
 viewBox="0.00 0.00 278.00 200.00" xmlns="http://www.w3.org/2000/svg" xmlns:xlink="http://www.w3.org/1999/xlink">
<g id="graph0" class="graph" transform="scale(1 1) rotate(0) translate(4 196)">
<title>a_graph</title>
<polygon fill="white" stroke="transparent" points="-4,4 -4,-196 274,-196 274,4 -4,4"/>
<!-- T2201 -->
<g id="node1" class="node">
<title>T2201</title>
<polygon fill="none" stroke="#0058ad" points="76,-162.5 76,-191.5 270,-191.5 270,-162.5 76,-162.5"/>
<text text-anchor="middle" x="108" y="-173.3" font-family="Times,serif" font-size="14.00" fill="#0058ad">r 145 [1]</text>
<polyline fill="none" stroke="#0058ad" points="140,-162.5 140,-191.5 "/>
<text text-anchor="middle" x="168" y="-173.3" font-family="Times,serif" font-size="14.00" fill="#0058ad">a 143 2</text>
<polyline fill="none" stroke="#0058ad" points="196,-162.5 196,-191.5 "/>
<text text-anchor="middle" x="233" y="-173.3" font-family="Times,serif" font-size="14.00" fill="#0058ad">r 141 [1 4]</text>
</g>
<!-- T2189 -->
<g id="node3" class="node">
<title>T2189</title>
<polygon fill="none" stroke="#0058ad" points="3.5,-81.5 3.5,-110.5 116.5,-110.5 116.5,-81.5 3.5,-81.5"/>
<text text-anchor="middle" x="32" y="-92.3" font-family="Times,serif" font-size="14.00" fill="#0058ad">r 134 []</text>
<polyline fill="none" stroke="#0058ad" points="60.5,-81.5 60.5,-110.5 "/>
<text text-anchor="middle" x="88.5" y="-92.3" font-family="Times,serif" font-size="14.00" fill="#0058ad">a 145 2</text>
</g>
<!-- T2201&#45;&gt;T2189 -->
<g id="edge1" class="edge">
<title>T2201:f0&#45;&gt;T2189:f1</title>
<path fill="none" stroke="#5b00c0" d="M108,-162C108,-141.59 94.47,-136.53 90.25,-120.92"/>
<polygon fill="#5b00c0" stroke="#5b00c0" points="93.72,-120.49 89,-111 86.77,-121.36 93.72,-120.49"/>
<text text-anchor="middle" x="111.5" y="-132.8" font-family="Times,serif" font-size="14.00" fill="#5b00c0">rw</text>
</g>
<!-- T2203 -->
<g id="node2" class="node">
<title>T2203</title>
<polygon fill="none" stroke="#0058ad" points="0,-0.5 0,-29.5 222,-29.5 222,-0.5 0,-0.5"/>
<text text-anchor="middle" x="37" y="-11.3" font-family="Times,serif" font-size="14.00" fill="#0058ad">r 145 [1 2]</text>
<polyline fill="none" stroke="#0058ad" points="74,-0.5 74,-29.5 "/>
<text text-anchor="middle" x="111" y="-11.3" font-family="Times,serif" font-size="14.00" fill="#0058ad">r 141 [1 4]</text>
<polyline fill="none" stroke="#0058ad" points="148,-0.5 148,-29.5 "/>
<text text-anchor="middle" x="185" y="-11.3" font-family="Times,serif" font-size="14.00" fill="#0058ad">r 143 [1 3]</text>
</g>
<!-- T2203&#45;&gt;T2201 -->
<g id="edge2" class="edge">
<title>T2203:f2&#45;&gt;T2201:f1</title>
<path fill="none" stroke="#5b00c0" d="M185,-30C185,-85.57 170,-101.02 168.18,-151.74"/>
<polygon fill="#5b00c0" stroke="#5b00c0" points="164.68,-151.94 168,-162 171.67,-152.06 164.68,-151.94"/>
<text text-anchor="middle" x="186.5" y="-92.3" font-family="Times,serif" font-size="14.00" fill="#5b00c0">rw</text>
</g>
<!-- T2189&#45;&gt;T2203 -->
<g id="edge3" class="edge">
<title>T2189:f1&#45;&gt;T2203:f0</title>
<path fill="none" stroke="#c000a5" d="M89,-81C89,-52.55 48.83,-59.72 39.1,-39.9"/>
<polygon fill="#c000a5" stroke="#c000a5" points="42.5,-39.05 37,-30 35.66,-40.51 42.5,-39.05"/>
<text text-anchor="middle" x="87.5" y="-51.8" font-family="Times,serif" font-size="14.00" fill="#c000a5">wr</text>
</g>
</g>
</svg>
