<?xml version="1.0" encoding="UTF-8" standalone="no"?>
<!DOCTYPE svg PUBLIC "-//W3C//DTD SVG 1.1//EN"
 "http://www.w3.org/Graphics/SVG/1.1/DTD/svg11.dtd">
<!-- Generated by graphviz version 2.43.0 (0)
 -->
<!-- Title: a_graph Pages: 1 -->
<svg width="873pt" height="605pt"
 viewBox="0.00 0.00 873.00 605.00" xmlns="http://www.w3.org/2000/svg" xmlns:xlink="http://www.w3.org/1999/xlink">
<g id="graph0" class="graph" transform="scale(1 1) rotate(0) translate(4 601)">
<title>a_graph</title>
<polygon fill="white" stroke="transparent" points="-4,4 -4,-601 869,-601 869,4 -4,4"/>
<!-- T1024 -->
<g id="node1" class="node">
<title>T1024</title>
<polygon fill="none" stroke="#0058ad" points="613,-567.5 613,-596.5 817,-596.5 817,-567.5 613,-567.5"/>
<text text-anchor="middle" x="651.5" y="-578.3" font-family="Times,serif" font-size="14.00" fill="#0058ad">r 73 [2 3 4]</text>
<polyline fill="none" stroke="#0058ad" points="690,-567.5 690,-596.5 "/>
<text text-anchor="middle" x="728.5" y="-578.3" font-family="Times,serif" font-size="14.00" fill="#0058ad">r 73 [2 3 4]</text>
<polyline fill="none" stroke="#0058ad" points="767,-567.5 767,-596.5 "/>
<text text-anchor="middle" x="792" y="-578.3" font-family="Times,serif" font-size="14.00" fill="#0058ad">r 75 []</text>
</g>
<!-- T1009 -->
<g id="node5" class="node">
<title>T1009</title>
<polygon fill="none" stroke="#0058ad" points="439,-486.5 439,-515.5 493,-515.5 493,-486.5 439,-486.5"/>
<text text-anchor="middle" x="466" y="-497.3" font-family="Times,serif" font-size="14.00" fill="#0058ad">a 73 6</text>
</g>
<!-- T1024&#45;&gt;T1009 -->
<g id="edge1" class="edge">
<title>T1024:f0&#45;&gt;T1009:f0</title>
<path fill="none" stroke="#5b00c0" d="M651,-567C651,-496.52 568.62,-540.96 501.47,-519.15"/>
<polygon fill="#5b00c0" stroke="#5b00c0" points="502.7,-515.87 492.11,-515.61 500.23,-522.42 502.7,-515.87"/>
<text text-anchor="middle" x="655.5" y="-537.8" font-family="Times,serif" font-size="14.00" fill="#5b00c0">rw</text>
</g>
<!-- T999 -->
<g id="node2" class="node">
<title>T999</title>
<polygon fill="none" stroke="#0058ad" points="334,-243.5 334,-272.5 492,-272.5 492,-243.5 334,-243.5"/>
<text text-anchor="middle" x="358.5" y="-254.3" font-family="Times,serif" font-size="14.00" fill="#0058ad">a 66 6</text>
<polyline fill="none" stroke="#0058ad" points="383,-243.5 383,-272.5 "/>
<text text-anchor="middle" x="413" y="-254.3" font-family="Times,serif" font-size="14.00" fill="#0058ad">r 3 [2 3]</text>
<polyline fill="none" stroke="#0058ad" points="443,-243.5 443,-272.5 "/>
<text text-anchor="middle" x="467.5" y="-254.3" font-family="Times,serif" font-size="14.00" fill="#0058ad">a 59 4</text>
</g>
<!-- T997 -->
<g id="node4" class="node">
<title>T997</title>
<polygon fill="none" stroke="#0058ad" points="537.5,-162.5 537.5,-191.5 780.5,-191.5 780.5,-162.5 537.5,-162.5"/>
<text text-anchor="middle" x="562" y="-173.3" font-family="Times,serif" font-size="14.00" fill="#0058ad">a 59 8</text>
<polyline fill="none" stroke="#0058ad" points="586.5,-162.5 586.5,-191.5 "/>
<text text-anchor="middle" x="611" y="-173.3" font-family="Times,serif" font-size="14.00" fill="#0058ad">a 73 3</text>
<polyline fill="none" stroke="#0058ad" points="635.5,-162.5 635.5,-191.5 "/>
<text text-anchor="middle" x="683.5" y="-173.3" font-family="Times,serif" font-size="14.00" fill="#0058ad">r 59 [1 3 5 4 8]</text>
<polyline fill="none" stroke="#0058ad" points="731.5,-162.5 731.5,-191.5 "/>
<text text-anchor="middle" x="756" y="-173.3" font-family="Times,serif" font-size="14.00" fill="#0058ad">a 74 1</text>
</g>
<!-- T999&#45;&gt;T997 -->
<g id="edge2" class="edge">
<title>T999:f2&#45;&gt;T997:f0</title>
<path fill="none" stroke="#c02700" d="M493,-258C531.96,-258 557.54,-238.14 561.47,-202.06"/>
<polygon fill="#c02700" stroke="#c02700" points="564.97,-202.17 562,-192 557.98,-201.8 564.97,-202.17"/>
<text text-anchor="middle" x="569.5" y="-213.8" font-family="Times,serif" font-size="14.00" fill="#c02700">ww</text>
</g>
<!-- T1030 -->
<g id="node10" class="node">
<title>T1030</title>
<polygon fill="none" stroke="#0058ad" points="28,-162.5 28,-191.5 414,-191.5 414,-162.5 28,-162.5"/>
<text text-anchor="middle" x="90.5" y="-173.3" font-family="Times,serif" font-size="14.00" fill="#0058ad">r 68 [2 4 5 6 1 8 7 3]</text>
<polyline fill="none" stroke="#0058ad" points="153,-162.5 153,-191.5 "/>
<text text-anchor="middle" x="206" y="-173.3" font-family="Times,serif" font-size="14.00" fill="#0058ad">r 66 [2 5 7 4 8 6]</text>
<polyline fill="none" stroke="#0058ad" points="259,-162.5 259,-191.5 "/>
<text text-anchor="middle" x="312" y="-173.3" font-family="Times,serif" font-size="14.00" fill="#0058ad">r 66 [2 5 7 4 8 6]</text>
<polyline fill="none" stroke="#0058ad" points="365,-162.5 365,-191.5 "/>
<text text-anchor="middle" x="389.5" y="-173.3" font-family="Times,serif" font-size="14.00" fill="#0058ad">a 59 5</text>
</g>
<!-- T999&#45;&gt;T1030 -->
<g id="edge3" class="edge">
<title>T999:f0&#45;&gt;T1030:f1</title>
<path fill="none" stroke="#c000a5" d="M358,-243C358,-218.91 337.1,-219.58 315,-210 295.91,-201.72 230.86,-212.18 211.49,-200.61"/>
<polygon fill="#c000a5" stroke="#c000a5" points="214.33,-198.55 206,-192 208.42,-202.31 214.33,-198.55"/>
<text text-anchor="middle" x="357.5" y="-213.8" font-family="Times,serif" font-size="14.00" fill="#c000a5">wr</text>
</g>
<!-- T1028 -->
<g id="node3" class="node">
<title>T1028</title>
<polygon fill="none" stroke="#0058ad" points="441.5,-405.5 441.5,-434.5 540.5,-434.5 540.5,-405.5 441.5,-405.5"/>
<text text-anchor="middle" x="466" y="-416.3" font-family="Times,serif" font-size="14.00" fill="#0058ad">a 73 7</text>
<polyline fill="none" stroke="#0058ad" points="490.5,-405.5 490.5,-434.5 "/>
<text text-anchor="middle" x="515.5" y="-416.3" font-family="Times,serif" font-size="14.00" fill="#0058ad">r 75 []</text>
</g>
<!-- T1089 -->
<g id="node6" class="node">
<title>T1089</title>
<polygon fill="none" stroke="#0058ad" points="326,-324.5 326,-353.5 646,-353.5 646,-324.5 326,-324.5"/>
<text text-anchor="middle" x="384" y="-335.3" font-family="Times,serif" font-size="14.00" fill="#0058ad">r 59 [1 3 5 4 8 7 5]</text>
<polyline fill="none" stroke="#0058ad" points="442,-324.5 442,-353.5 "/>
<text text-anchor="middle" x="466.5" y="-335.3" font-family="Times,serif" font-size="14.00" fill="#0058ad">a 73 5</text>
<polyline fill="none" stroke="#0058ad" points="491,-324.5 491,-353.5 "/>
<text text-anchor="middle" x="544" y="-335.3" font-family="Times,serif" font-size="14.00" fill="#0058ad">r 73 [2 3 4 6 7 5]</text>
<polyline fill="none" stroke="#0058ad" points="597,-324.5 597,-353.5 "/>
<text text-anchor="middle" x="621.5" y="-335.3" font-family="Times,serif" font-size="14.00" fill="#0058ad">a 75 1</text>
</g>
<!-- T1028&#45;&gt;T1089 -->
<g id="edge4" class="edge">
<title>T1028:f0&#45;&gt;T1089:f1</title>
<path fill="none" stroke="#c02700" d="M466,-405C466,-386.23 466,-379.12 466,-364.35"/>
<polygon fill="#c02700" stroke="#c02700" points="469.5,-364 466,-354 462.5,-364 469.5,-364"/>
<text text-anchor="middle" x="475.5" y="-375.8" font-family="Times,serif" font-size="14.00" fill="#c02700">ww</text>
</g>
<!-- T1010 -->
<g id="node8" class="node">
<title>T1010</title>
<polygon fill="none" stroke="#0058ad" points="622,-0.5 622,-29.5 748,-29.5 748,-0.5 622,-0.5"/>
<text text-anchor="middle" x="646.5" y="-11.3" font-family="Times,serif" font-size="14.00" fill="#0058ad">a 73 4</text>
<polyline fill="none" stroke="#0058ad" points="671,-0.5 671,-29.5 "/>
<text text-anchor="middle" x="709.5" y="-11.3" font-family="Times,serif" font-size="14.00" fill="#0058ad">r 73 [2 3 4]</text>
</g>
<!-- T997&#45;&gt;T1010 -->
<g id="edge5" class="edge">
<title>T997:f1&#45;&gt;T1010:f0</title>
<path fill="none" stroke="#c02700" d="M611,-162C611,-100.22 561.62,-24.18 611,-15.77"/>
<polygon fill="#c02700" stroke="#c02700" points="611.3,-19.25 621,-15 610.76,-12.28 611.3,-19.25"/>
<text text-anchor="middle" x="612.5" y="-92.3" font-family="Times,serif" font-size="14.00" fill="#c02700">ww</text>
</g>
<!-- T1017 -->
<g id="node11" class="node">
<title>T1017</title>
<polygon fill="none" stroke="#0058ad" points="648.5,-81.5 648.5,-110.5 821.5,-110.5 821.5,-81.5 648.5,-81.5"/>
<text text-anchor="middle" x="682" y="-92.3" font-family="Times,serif" font-size="14.00" fill="#0058ad">r 73 [2 3]</text>
<polyline fill="none" stroke="#0058ad" points="715.5,-81.5 715.5,-110.5 "/>
<text text-anchor="middle" x="768.5" y="-92.3" font-family="Times,serif" font-size="14.00" fill="#0058ad">r 69 [1 2 3 4 6 7]</text>
</g>
<!-- T997&#45;&gt;T1017 -->
<g id="edge6" class="edge">
<title>T997:f1&#45;&gt;T1017:f0</title>
<path fill="none" stroke="#c000a5" d="M611,-162C611,-145.76 660.61,-134.61 676.89,-120.04"/>
<polygon fill="#c000a5" stroke="#c000a5" points="680.13,-121.43 682,-111 674.03,-117.98 680.13,-121.43"/>
<text text-anchor="middle" x="668.5" y="-132.8" font-family="Times,serif" font-size="14.00" fill="#c000a5">wr</text>
</g>
<!-- T1009&#45;&gt;T1028 -->
<g id="edge7" class="edge">
<title>T1009:f0&#45;&gt;T1028:f0</title>
<path fill="none" stroke="#c02700" d="M466,-486.32C466,-475.45 466,-460.01 466,-445.14"/>
<polygon fill="#c02700" stroke="#c02700" points="469.5,-445 466,-435 462.5,-445 469.5,-445"/>
<text text-anchor="middle" x="475.5" y="-456.8" font-family="Times,serif" font-size="14.00" fill="#c02700">ww</text>
</g>
<!-- T1089&#45;&gt;T999 -->
<g id="edge8" class="edge">
<title>T1089:f0&#45;&gt;T999:f2</title>
<path fill="none" stroke="#5b00c0" d="M384,-324C384,-284.25 453.58,-310.79 466.09,-282.95"/>
<polygon fill="#5b00c0" stroke="#5b00c0" points="469.55,-283.48 468,-273 462.68,-282.16 469.55,-283.48"/>
<text text-anchor="middle" x="464.5" y="-294.8" font-family="Times,serif" font-size="14.00" fill="#5b00c0">rw</text>
</g>
<!-- T993 -->
<g id="node7" class="node">
<title>T993</title>
<polygon fill="none" stroke="#0058ad" points="199,-81.5 199,-110.5 325,-110.5 325,-81.5 199,-81.5"/>
<text text-anchor="middle" x="237.5" y="-92.3" font-family="Times,serif" font-size="14.00" fill="#0058ad">r 59 [1 3 5]</text>
<polyline fill="none" stroke="#0058ad" points="276,-81.5 276,-110.5 "/>
<text text-anchor="middle" x="300.5" y="-92.3" font-family="Times,serif" font-size="14.00" fill="#0058ad">a 68 3</text>
</g>
<!-- T993&#45;&gt;T999 -->
<g id="edge10" class="edge">
<title>T993:f0&#45;&gt;T999:f2</title>
<path fill="none" stroke="#5b00c0" d="M237,-111C237,-148.77 374.6,-108.01 406,-129 451.04,-159.12 466.17,-182.36 467.84,-232.88"/>
<polygon fill="#5b00c0" stroke="#5b00c0" points="464.34,-233.06 468,-243 471.34,-232.95 464.34,-233.06"/>
<text text-anchor="middle" x="468.5" y="-173.3" font-family="Times,serif" font-size="14.00" fill="#5b00c0">rw</text>
</g>
<!-- T993&#45;&gt;T1030 -->
<g id="edge9" class="edge">
<title>T993:f1&#45;&gt;T1030:f0</title>
<path fill="none" stroke="#c000a5" d="M301,-111C301,-132.48 133.63,-137.02 97.02,-154.8"/>
<polygon fill="#c000a5" stroke="#c000a5" points="94.47,-152.4 90,-162 99.49,-157.28 94.47,-152.4"/>
<text text-anchor="middle" x="252.5" y="-132.8" font-family="Times,serif" font-size="14.00" fill="#c000a5">wr</text>
</g>
<!-- T1010&#45;&gt;T1024 -->
<g id="edge11" class="edge">
<title>T1010:f0&#45;&gt;T1024:f0</title>
<path fill="none" stroke="#c000a5" d="M646,-30C646,-40.66 821.41,-76.34 831,-81 840.44,-85.58 850,-84.51 850,-95 850,-502 850,-502 850,-502 850,-522.63 693.53,-539.49 658.08,-559.27"/>
<polygon fill="#c000a5" stroke="#c000a5" points="655.17,-557.26 651,-567 660.33,-561.99 655.17,-557.26"/>
<text text-anchor="middle" x="857.5" y="-294.8" font-family="Times,serif" font-size="14.00" fill="#c000a5">wr</text>
</g>
<!-- T1010&#45;&gt;T1009 -->
<g id="edge12" class="edge">
<title>T1010:f0&#45;&gt;T1009:f0</title>
<path fill="none" stroke="#c02700" d="M621,-15C551.43,-15 0,-25.43 0,-95 0,-421 0,-421 0,-421 0,-516.44 323.69,-458.36 430.31,-483.62"/>
<polygon fill="#c02700" stroke="#c02700" points="429.65,-487.07 440.22,-486.43 431.56,-480.34 429.65,-487.07"/>
<text text-anchor="middle" x="9.5" y="-254.3" font-family="Times,serif" font-size="14.00" fill="#c02700">ww</text>
</g>
<!-- T1004 -->
<g id="node9" class="node">
<title>T1004</title>
<polygon fill="none" stroke="#0058ad" points="343,-81.5 343,-110.5 575,-110.5 575,-81.5 343,-81.5"/>
<text text-anchor="middle" x="381.5" y="-92.3" font-family="Times,serif" font-size="14.00" fill="#0058ad">r 59 [1 3 5]</text>
<polyline fill="none" stroke="#0058ad" points="420,-81.5 420,-110.5 "/>
<text text-anchor="middle" x="444.5" y="-92.3" font-family="Times,serif" font-size="14.00" fill="#0058ad">a 63 3</text>
<polyline fill="none" stroke="#0058ad" points="469,-81.5 469,-110.5 "/>
<text text-anchor="middle" x="522" y="-92.3" font-family="Times,serif" font-size="14.00" fill="#0058ad">r 63 [1 4 6 5 7 3]</text>
</g>
<!-- T1004&#45;&gt;T999 -->
<g id="edge13" class="edge">
<title>T1004:f0&#45;&gt;T999:f2</title>
<path fill="none" stroke="#5b00c0" d="M381,-111C381,-148.75 436.95,-102.68 464,-129 505.17,-169.06 503.48,-226.7 497.69,-248.85"/>
<polygon fill="#5b00c0" stroke="#5b00c0" points="494.44,-247.5 493,-258 500.67,-250.7 494.44,-247.5"/>
<text text-anchor="middle" x="504.5" y="-173.3" font-family="Times,serif" font-size="14.00" fill="#5b00c0">rw</text>
</g>
<!-- T1030&#45;&gt;T999 -->
<g id="edge17" class="edge">
<title>T1030:f3&#45;&gt;T999:f2</title>
<path fill="none" stroke="#c02700" d="M390,-192C390,-210.95 401.49,-214.11 417,-225 432.83,-236.12 456.21,-225.43 464.74,-233.36"/>
<polygon fill="#c02700" stroke="#c02700" points="461.48,-234.65 468,-243 468.11,-232.41 461.48,-234.65"/>
<text text-anchor="middle" x="426.5" y="-213.8" font-family="Times,serif" font-size="14.00" fill="#c02700">ww</text>
</g>
<!-- T1030&#45;&gt;T1089 -->
<g id="edge14" class="edge">
<title>T1030:f3&#45;&gt;T1089:f0</title>
<path fill="none" stroke="#c000a5" d="M390,-192C390,-226.28 338.19,-184.75 315,-210 278.54,-249.71 268.69,-328.34 314.98,-338.02"/>
<polygon fill="#c000a5" stroke="#c000a5" points="314.71,-341.51 325,-339 315.39,-334.54 314.71,-341.51"/>
<text text-anchor="middle" x="301.5" y="-254.3" font-family="Times,serif" font-size="14.00" fill="#c000a5">wr</text>
</g>
<!-- T1030&#45;&gt;T993 -->
<g id="edge16" class="edge">
<title>T1030:f3&#45;&gt;T993:f0</title>
<path fill="none" stroke="#c000a5" d="M390,-162C390,-154.34 278.03,-129.02 245.66,-116.25"/>
<polygon fill="#c000a5" stroke="#c000a5" points="247.37,-113.19 237,-111 243.74,-119.18 247.37,-113.19"/>
<text text-anchor="middle" x="347.5" y="-132.8" font-family="Times,serif" font-size="14.00" fill="#c000a5">wr</text>
</g>
<!-- T1030&#45;&gt;T1004 -->
<g id="edge15" class="edge">
<title>T1030:f3&#45;&gt;T1004:f0</title>
<path fill="none" stroke="#c000a5" d="M390,-162C390,-142.76 383.71,-136.13 381.65,-121.03"/>
<polygon fill="#c000a5" stroke="#c000a5" points="385.14,-120.75 381,-111 378.15,-121.2 385.14,-120.75"/>
<text text-anchor="middle" x="394.5" y="-132.8" font-family="Times,serif" font-size="14.00" fill="#c000a5">wr</text>
</g>
<!-- T1017&#45;&gt;T1010 -->
<g id="edge18" class="edge">
<title>T1017:f0&#45;&gt;T1010:f0</title>
<path fill="none" stroke="#5b00c0" d="M682,-81C682,-57.16 655.41,-57.12 647.94,-39.97"/>
<polygon fill="#5b00c0" stroke="#5b00c0" points="651.34,-39.15 646,-30 644.47,-40.48 651.34,-39.15"/>
<text text-anchor="middle" x="681.5" y="-51.8" font-family="Times,serif" font-size="14.00" fill="#5b00c0">rw</text>
</g>
</g>
</svg>
