<?xml version="1.0" encoding="UTF-8" standalone="no"?>
<!DOCTYPE svg PUBLIC "-//W3C//DTD SVG 1.1//EN"
 "http://www.w3.org/Graphics/SVG/1.1/DTD/svg11.dtd">
<!-- Generated by graphviz version 2.43.0 (0)
 -->
<!-- Title: a_graph Pages: 1 -->
<svg width="250pt" height="119pt"
 viewBox="0.00 0.00 250.00 119.00" xmlns="http://www.w3.org/2000/svg" xmlns:xlink="http://www.w3.org/1999/xlink">
<g id="graph0" class="graph" transform="scale(1 1) rotate(0) translate(4 115)">
<title>a_graph</title>
<polygon fill="white" stroke="transparent" points="-4,4 -4,-115 246,-115 246,4 -4,4"/>
<!-- T1629 -->
<g id="node1" class="node">
<title>T1629</title>
<polygon fill="none" stroke="#0058ad" points="6.5,-81.5 6.5,-110.5 145.5,-110.5 145.5,-81.5 6.5,-81.5"/>
<text text-anchor="middle" x="34.5" y="-92.3" font-family="Times,serif" font-size="14.00" fill="#0058ad">a 107 3</text>
<polyline fill="none" stroke="#0058ad" points="62.5,-81.5 62.5,-110.5 "/>
<text text-anchor="middle" x="104" y="-92.3" font-family="Times,serif" font-size="14.00" fill="#0058ad">r 108 [3 1 8]</text>
</g>
<!-- T1598 -->
<g id="node2" class="node">
<title>T1598</title>
<polygon fill="none" stroke="#0058ad" points="0,-0.5 0,-29.5 242,-29.5 242,-0.5 0,-0.5"/>
<text text-anchor="middle" x="28" y="-11.3" font-family="Times,serif" font-size="14.00" fill="#0058ad">a 108 5</text>
<polyline fill="none" stroke="#0058ad" points="56,-0.5 56,-29.5 "/>
<text text-anchor="middle" x="93" y="-11.3" font-family="Times,serif" font-size="14.00" fill="#0058ad">r 107 [2 7]</text>
<polyline fill="none" stroke="#0058ad" points="130,-0.5 130,-29.5 "/>
<text text-anchor="middle" x="158" y="-11.3" font-family="Times,serif" font-size="14.00" fill="#0058ad">a 108 6</text>
<polyline fill="none" stroke="#0058ad" points="186,-0.5 186,-29.5 "/>
<text text-anchor="middle" x="214" y="-11.3" font-family="Times,serif" font-size="14.00" fill="#0058ad">a 108 7</text>
</g>
<!-- T1629&#45;&gt;T1598 -->
<g id="edge1" class="edge">
<title>T1629:f1&#45;&gt;T1598:f0</title>
<path fill="none" stroke="#5b00c0" d="M104,-81C104,-56.91 81.19,-61.14 61,-48 50.94,-41.45 38.29,-43.65 31.97,-39.2"/>
<polygon fill="#5b00c0" stroke="#5b00c0" points="35.18,-37.79 28,-30 28.75,-40.57 35.18,-37.79"/>
<text text-anchor="middle" x="101.5" y="-51.8" font-family="Times,serif" font-size="14.00" fill="#5b00c0">rw</text>
</g>
<!-- T1598&#45;&gt;T1629 -->
<g id="edge2" class="edge">
<title>T1598:f1&#45;&gt;T1629:f0</title>
<path fill="none" stroke="#5b00c0" d="M93,-30C93,-54.04 58.11,-30.16 42,-48 34.49,-56.31 33.72,-62.15 33.82,-70.78"/>
<polygon fill="#5b00c0" stroke="#5b00c0" points="30.33,-71.06 34,-81 37.33,-70.94 30.33,-71.06"/>
<text text-anchor="middle" x="49.5" y="-51.8" font-family="Times,serif" font-size="14.00" fill="#5b00c0">rw</text>
</g>
</g>
</svg>
