<?xml version="1.0" encoding="UTF-8" standalone="no"?>
<!DOCTYPE svg PUBLIC "-//W3C//DTD SVG 1.1//EN"
 "http://www.w3.org/Graphics/SVG/1.1/DTD/svg11.dtd">
<!-- Generated by graphviz version 2.43.0 (0)
 -->
<!-- Title: a_graph Pages: 1 -->
<svg width="230pt" height="119pt"
 viewBox="0.00 0.00 230.00 119.00" xmlns="http://www.w3.org/2000/svg" xmlns:xlink="http://www.w3.org/1999/xlink">
<g id="graph0" class="graph" transform="scale(1 1) rotate(0) translate(4 115)">
<title>a_graph</title>
<polygon fill="white" stroke="transparent" points="-4,4 -4,-115 226,-115 226,4 -4,4"/>
<!-- T2947 -->
<g id="node1" class="node">
<title>T2947</title>
<polygon fill="none" stroke="#0058ad" points="8.5,-81.5 8.5,-110.5 147.5,-110.5 147.5,-81.5 8.5,-81.5"/>
<text text-anchor="middle" x="36.5" y="-92.3" font-family="Times,serif" font-size="14.00" fill="#0058ad">a 180 8</text>
<polyline fill="none" stroke="#0058ad" points="64.5,-81.5 64.5,-110.5 "/>
<text text-anchor="middle" x="106" y="-92.3" font-family="Times,serif" font-size="14.00" fill="#0058ad">r 185 [1 2 5]</text>
</g>
<!-- T2937 -->
<g id="node2" class="node">
<title>T2937</title>
<polygon fill="none" stroke="#0058ad" points="0,-0.5 0,-29.5 222,-29.5 222,-0.5 0,-0.5"/>
<text text-anchor="middle" x="28" y="-11.3" font-family="Times,serif" font-size="14.00" fill="#0058ad">a 185 4</text>
<polyline fill="none" stroke="#0058ad" points="56,-0.5 56,-29.5 "/>
<text text-anchor="middle" x="97.5" y="-11.3" font-family="Times,serif" font-size="14.00" fill="#0058ad">r 180 [1 4 5]</text>
<polyline fill="none" stroke="#0058ad" points="139,-0.5 139,-29.5 "/>
<text text-anchor="middle" x="180.5" y="-11.3" font-family="Times,serif" font-size="14.00" fill="#0058ad">r 180 [1 4 5]</text>
</g>
<!-- T2947&#45;&gt;T2937 -->
<g id="edge1" class="edge">
<title>T2947:f1&#45;&gt;T2937:f0</title>
<path fill="none" stroke="#5b00c0" d="M106,-81C106,-56.91 83.35,-60.89 63,-48 52.38,-41.27 38.95,-43.95 32.23,-39.5"/>
<polygon fill="#5b00c0" stroke="#5b00c0" points="35.26,-37.71 28,-30 28.87,-40.56 35.26,-37.71"/>
<text text-anchor="middle" x="103.5" y="-51.8" font-family="Times,serif" font-size="14.00" fill="#5b00c0">rw</text>
</g>
<!-- T2937&#45;&gt;T2947 -->
<g id="edge2" class="edge">
<title>T2937:f1&#45;&gt;T2947:f0</title>
<path fill="none" stroke="#5b00c0" d="M97,-30C97,-54.88 60.79,-29.64 44,-48 36.44,-56.27 35.7,-62.13 35.81,-70.77"/>
<polygon fill="#5b00c0" stroke="#5b00c0" points="32.32,-71.07 36,-81 39.32,-70.94 32.32,-71.07"/>
<text text-anchor="middle" x="51.5" y="-51.8" font-family="Times,serif" font-size="14.00" fill="#5b00c0">rw</text>
</g>
</g>
</svg>
