<?xml version="1.0" encoding="UTF-8" standalone="no"?>
<!DOCTYPE svg PUBLIC "-//W3C//DTD SVG 1.1//EN"
 "http://www.w3.org/Graphics/SVG/1.1/DTD/svg11.dtd">
<!-- Generated by graphviz version 2.43.0 (0)
 -->
<!-- Title: a_graph Pages: 1 -->
<svg width="326pt" height="119pt"
 viewBox="0.00 0.00 326.00 119.00" xmlns="http://www.w3.org/2000/svg" xmlns:xlink="http://www.w3.org/1999/xlink">
<g id="graph0" class="graph" transform="scale(1 1) rotate(0) translate(4 115)">
<title>a_graph</title>
<polygon fill="white" stroke="transparent" points="-4,4 -4,-115 322,-115 322,4 -4,4"/>
<!-- T1075 -->
<g id="node1" class="node">
<title>T1075</title>
<polygon fill="none" stroke="#0058ad" points="0,-81.5 0,-110.5 222,-110.5 222,-81.5 0,-81.5"/>
<text text-anchor="middle" x="33.5" y="-92.3" font-family="Times,serif" font-size="14.00" fill="#0058ad">r 74 [1 2]</text>
<polyline fill="none" stroke="#0058ad" points="67,-81.5 67,-110.5 "/>
<text text-anchor="middle" x="95.5" y="-92.3" font-family="Times,serif" font-size="14.00" fill="#0058ad">r 76 [2]</text>
<polyline fill="none" stroke="#0058ad" points="124,-81.5 124,-110.5 "/>
<text text-anchor="middle" x="148.5" y="-92.3" font-family="Times,serif" font-size="14.00" fill="#0058ad">a 78 1</text>
<polyline fill="none" stroke="#0058ad" points="173,-81.5 173,-110.5 "/>
<text text-anchor="middle" x="197.5" y="-92.3" font-family="Times,serif" font-size="14.00" fill="#0058ad">a 74 4</text>
</g>
<!-- T1079 -->
<g id="node2" class="node">
<title>T1079</title>
<polygon fill="none" stroke="#0058ad" points="68,-0.5 68,-29.5 318,-29.5 318,-0.5 68,-0.5"/>
<text text-anchor="middle" x="101.5" y="-11.3" font-family="Times,serif" font-size="14.00" fill="#0058ad">r 74 [1 2]</text>
<polyline fill="none" stroke="#0058ad" points="135,-0.5 135,-29.5 "/>
<text text-anchor="middle" x="159.5" y="-11.3" font-family="Times,serif" font-size="14.00" fill="#0058ad">a 76 3</text>
<polyline fill="none" stroke="#0058ad" points="184,-0.5 184,-29.5 "/>
<text text-anchor="middle" x="217.5" y="-11.3" font-family="Times,serif" font-size="14.00" fill="#0058ad">r 75 [2 3]</text>
<polyline fill="none" stroke="#0058ad" points="251,-0.5 251,-29.5 "/>
<text text-anchor="middle" x="284.5" y="-11.3" font-family="Times,serif" font-size="14.00" fill="#0058ad">r 75 [2 3]</text>
</g>
<!-- T1075&#45;&gt;T1079 -->
<g id="edge1" class="edge">
<title>T1075:f1&#45;&gt;T1079:f1</title>
<path fill="none" stroke="#5b00c0" d="M95,-81C95,-65.94 138.89,-53.32 153.98,-39.1"/>
<polygon fill="#5b00c0" stroke="#5b00c0" points="157.23,-40.45 159,-30 151.1,-37.06 157.23,-40.45"/>
<text text-anchor="middle" x="148.5" y="-51.8" font-family="Times,serif" font-size="14.00" fill="#5b00c0">rw</text>
</g>
<!-- T1079&#45;&gt;T1075 -->
<g id="edge2" class="edge">
<title>T1079:f0&#45;&gt;T1075:f3</title>
<path fill="none" stroke="#5b00c0" d="M101,-30C101,-56.99 135.33,-35.02 159,-48 175.33,-56.96 191.11,-58.15 196.26,-70.82"/>
<polygon fill="#5b00c0" stroke="#5b00c0" points="192.86,-71.73 198,-81 199.76,-70.55 192.86,-71.73"/>
<text text-anchor="middle" x="197.5" y="-51.8" font-family="Times,serif" font-size="14.00" fill="#5b00c0">rw</text>
</g>
</g>
</svg>
