<?xml version="1.0" encoding="UTF-8" standalone="no"?>
<!DOCTYPE svg PUBLIC "-//W3C//DTD SVG 1.1//EN"
 "http://www.w3.org/Graphics/SVG/1.1/DTD/svg11.dtd">
<!-- Generated by graphviz version 2.43.0 (0)
 -->
<!-- Title: a_graph Pages: 1 -->
<svg width="349pt" height="200pt"
 viewBox="0.00 0.00 348.50 200.00" xmlns="http://www.w3.org/2000/svg" xmlns:xlink="http://www.w3.org/1999/xlink">
<g id="graph0" class="graph" transform="scale(1 1) rotate(0) translate(4 196)">
<title>a_graph</title>
<polygon fill="white" stroke="transparent" points="-4,4 -4,-196 344.5,-196 344.5,4 -4,4"/>
<!-- T1719 -->
<g id="node1" class="node">
<title>T1719</title>
<polygon fill="none" stroke="#0058ad" points="112,-162.5 112,-191.5 291,-191.5 291,-162.5 112,-162.5"/>
<text text-anchor="middle" x="149" y="-173.3" font-family="Times,serif" font-size="14.00" fill="#0058ad">r 120 [2 4]</text>
<polyline fill="none" stroke="#0058ad" points="186,-162.5 186,-191.5 "/>
<text text-anchor="middle" x="214" y="-173.3" font-family="Times,serif" font-size="14.00" fill="#0058ad">a 120 7</text>
<polyline fill="none" stroke="#0058ad" points="242,-162.5 242,-191.5 "/>
<text text-anchor="middle" x="266.5" y="-173.3" font-family="Times,serif" font-size="14.00" fill="#0058ad">a 72 3</text>
</g>
<!-- T1752 -->
<g id="node3" class="node">
<title>T1752</title>
<polygon fill="none" stroke="#0058ad" points="0,-81.5 0,-110.5 213,-110.5 213,-81.5 0,-81.5"/>
<text text-anchor="middle" x="41.5" y="-92.3" font-family="Times,serif" font-size="14.00" fill="#0058ad">r 120 [2 4 7]</text>
<polyline fill="none" stroke="#0058ad" points="83,-81.5 83,-110.5 "/>
<text text-anchor="middle" x="111" y="-92.3" font-family="Times,serif" font-size="14.00" fill="#0058ad">a 120 6</text>
<polyline fill="none" stroke="#0058ad" points="139,-81.5 139,-110.5 "/>
<text text-anchor="middle" x="176" y="-92.3" font-family="Times,serif" font-size="14.00" fill="#0058ad">r 118 [1 2]</text>
</g>
<!-- T1719&#45;&gt;T1752 -->
<g id="edge1" class="edge">
<title>T1719:f1&#45;&gt;T1752:f1</title>
<path fill="none" stroke="#c02700" d="M214.5,-162C214.5,-114.91 126.97,-154.71 113.29,-121.2"/>
<polygon fill="#c02700" stroke="#c02700" points="116.67,-120.25 111.5,-111 109.78,-121.45 116.67,-120.25"/>
<text text-anchor="middle" x="216" y="-132.8" font-family="Times,serif" font-size="14.00" fill="#c02700">ww</text>
</g>
<!-- T1743 -->
<g id="node2" class="node">
<title>T1743</title>
<polygon fill="none" stroke="#0058ad" points="154.5,-0.5 154.5,-29.5 340.5,-29.5 340.5,-0.5 154.5,-0.5"/>
<text text-anchor="middle" x="182.5" y="-11.3" font-family="Times,serif" font-size="14.00" fill="#0058ad">a 118 3</text>
<polyline fill="none" stroke="#0058ad" points="210.5,-0.5 210.5,-29.5 "/>
<text text-anchor="middle" x="247.5" y="-11.3" font-family="Times,serif" font-size="14.00" fill="#0058ad">r 120 [2 4]</text>
<polyline fill="none" stroke="#0058ad" points="284.5,-0.5 284.5,-29.5 "/>
<text text-anchor="middle" x="312.5" y="-11.3" font-family="Times,serif" font-size="14.00" fill="#0058ad">a 118 4</text>
</g>
<!-- T1743&#45;&gt;T1719 -->
<g id="edge2" class="edge">
<title>T1743:f1&#45;&gt;T1719:f1</title>
<path fill="none" stroke="#5b00c0" d="M247.5,-30C247.5,-81.29 250.68,-97.28 229.5,-144 227.15,-149.19 222.88,-150.97 219.5,-153.22"/>
<polygon fill="#5b00c0" stroke="#5b00c0" points="216.41,-151.58 214.5,-162 222.49,-155.04 216.41,-151.58"/>
<text text-anchor="middle" x="255" y="-92.3" font-family="Times,serif" font-size="14.00" fill="#5b00c0">rw</text>
</g>
<!-- T1752&#45;&gt;T1743 -->
<g id="edge3" class="edge">
<title>T1752:f2&#45;&gt;T1743:f0</title>
<path fill="none" stroke="#5b00c0" d="M176.5,-81C176.5,-62.1 180.61,-55.18 182.03,-40.4"/>
<polygon fill="#5b00c0" stroke="#5b00c0" points="185.54,-40.15 182.5,-30 178.55,-39.83 185.54,-40.15"/>
<text text-anchor="middle" x="189" y="-51.8" font-family="Times,serif" font-size="14.00" fill="#5b00c0">rw</text>
</g>
</g>
</svg>
