<?xml version="1.0" encoding="UTF-8" standalone="no"?>
<!DOCTYPE svg PUBLIC "-//W3C//DTD SVG 1.1//EN"
 "http://www.w3.org/Graphics/SVG/1.1/DTD/svg11.dtd">
<!-- Generated by graphviz version 2.43.0 (0)
 -->
<!-- Title: a_graph Pages: 1 -->
<svg width="407pt" height="524pt"
 viewBox="0.00 0.00 406.50 524.00" xmlns="http://www.w3.org/2000/svg" xmlns:xlink="http://www.w3.org/1999/xlink">
<g id="graph0" class="graph" transform="scale(1 1) rotate(0) translate(4 520)">
<title>a_graph</title>
<polygon fill="white" stroke="transparent" points="-4,4 -4,-520 402.5,-520 402.5,4 -4,4"/>
<!-- T999 -->
<g id="node1" class="node">
<title>T999</title>
<polygon fill="none" stroke="#0058ad" points="0,-486.5 0,-515.5 158,-515.5 158,-486.5 0,-486.5"/>
<text text-anchor="middle" x="24.5" y="-497.3" font-family="Times,serif" font-size="14.00" fill="#0058ad">a 66 6</text>
<polyline fill="none" stroke="#0058ad" points="49,-486.5 49,-515.5 "/>
<text text-anchor="middle" x="79" y="-497.3" font-family="Times,serif" font-size="14.00" fill="#0058ad">r 3 [2 3]</text>
<polyline fill="none" stroke="#0058ad" points="109,-486.5 109,-515.5 "/>
<text text-anchor="middle" x="133.5" y="-497.3" font-family="Times,serif" font-size="14.00" fill="#0058ad">a 59 4</text>
</g>
<!-- T997 -->
<g id="node3" class="node">
<title>T997</title>
<polygon fill="none" stroke="#0058ad" points="146.5,-405.5 146.5,-434.5 389.5,-434.5 389.5,-405.5 146.5,-405.5"/>
<text text-anchor="middle" x="171" y="-416.3" font-family="Times,serif" font-size="14.00" fill="#0058ad">a 59 8</text>
<polyline fill="none" stroke="#0058ad" points="195.5,-405.5 195.5,-434.5 "/>
<text text-anchor="middle" x="220" y="-416.3" font-family="Times,serif" font-size="14.00" fill="#0058ad">a 73 3</text>
<polyline fill="none" stroke="#0058ad" points="244.5,-405.5 244.5,-434.5 "/>
<text text-anchor="middle" x="292.5" y="-416.3" font-family="Times,serif" font-size="14.00" fill="#0058ad">r 59 [1 3 5 4 8]</text>
<polyline fill="none" stroke="#0058ad" points="340.5,-405.5 340.5,-434.5 "/>
<text text-anchor="middle" x="365" y="-416.3" font-family="Times,serif" font-size="14.00" fill="#0058ad">a 74 1</text>
</g>
<!-- T999&#45;&gt;T997 -->
<g id="edge1" class="edge">
<title>T999:f2&#45;&gt;T997:f0</title>
<path fill="none" stroke="#c02700" d="M134,-486C134,-461.93 161.33,-462.25 169.01,-445.04"/>
<polygon fill="#c02700" stroke="#c02700" points="172.49,-445.49 171,-435 165.62,-444.13 172.49,-445.49"/>
<text text-anchor="middle" x="173.5" y="-456.8" font-family="Times,serif" font-size="14.00" fill="#c02700">ww</text>
</g>
<!-- T1028 -->
<g id="node2" class="node">
<title>T1028</title>
<polygon fill="none" stroke="#0058ad" points="175.5,-81.5 175.5,-110.5 274.5,-110.5 274.5,-81.5 175.5,-81.5"/>
<text text-anchor="middle" x="200" y="-92.3" font-family="Times,serif" font-size="14.00" fill="#0058ad">a 73 7</text>
<polyline fill="none" stroke="#0058ad" points="224.5,-81.5 224.5,-110.5 "/>
<text text-anchor="middle" x="249.5" y="-92.3" font-family="Times,serif" font-size="14.00" fill="#0058ad">r 75 []</text>
</g>
<!-- T1089 -->
<g id="node5" class="node">
<title>T1089</title>
<polygon fill="none" stroke="#0058ad" points="60,-0.5 60,-29.5 380,-29.5 380,-0.5 60,-0.5"/>
<text text-anchor="middle" x="118" y="-11.3" font-family="Times,serif" font-size="14.00" fill="#0058ad">r 59 [1 3 5 4 8 7 5]</text>
<polyline fill="none" stroke="#0058ad" points="176,-0.5 176,-29.5 "/>
<text text-anchor="middle" x="200.5" y="-11.3" font-family="Times,serif" font-size="14.00" fill="#0058ad">a 73 5</text>
<polyline fill="none" stroke="#0058ad" points="225,-0.5 225,-29.5 "/>
<text text-anchor="middle" x="278" y="-11.3" font-family="Times,serif" font-size="14.00" fill="#0058ad">r 73 [2 3 4 6 7 5]</text>
<polyline fill="none" stroke="#0058ad" points="331,-0.5 331,-29.5 "/>
<text text-anchor="middle" x="355.5" y="-11.3" font-family="Times,serif" font-size="14.00" fill="#0058ad">a 75 1</text>
</g>
<!-- T1028&#45;&gt;T1089 -->
<g id="edge2" class="edge">
<title>T1028:f0&#45;&gt;T1089:f1</title>
<path fill="none" stroke="#c02700" d="M200,-81C200,-62.23 200,-55.12 200,-40.35"/>
<polygon fill="#c02700" stroke="#c02700" points="203.5,-40 200,-30 196.5,-40 203.5,-40"/>
<text text-anchor="middle" x="209.5" y="-51.8" font-family="Times,serif" font-size="14.00" fill="#c02700">ww</text>
</g>
<!-- T1010 -->
<g id="node6" class="node">
<title>T1010</title>
<polygon fill="none" stroke="#0058ad" points="176,-243.5 176,-272.5 302,-272.5 302,-243.5 176,-243.5"/>
<text text-anchor="middle" x="200.5" y="-254.3" font-family="Times,serif" font-size="14.00" fill="#0058ad">a 73 4</text>
<polyline fill="none" stroke="#0058ad" points="225,-243.5 225,-272.5 "/>
<text text-anchor="middle" x="263.5" y="-254.3" font-family="Times,serif" font-size="14.00" fill="#0058ad">r 73 [2 3 4]</text>
</g>
<!-- T997&#45;&gt;T1010 -->
<g id="edge3" class="edge">
<title>T997:f1&#45;&gt;T1010:f0</title>
<path fill="none" stroke="#c02700" d="M220,-405C220,-380.13 202.23,-378.31 197,-354 194.82,-343.85 197.84,-302.49 199.3,-283.05"/>
<polygon fill="#c02700" stroke="#c02700" points="202.79,-283.22 200,-273 195.81,-282.73 202.79,-283.22"/>
<text text-anchor="middle" x="206.5" y="-335.3" font-family="Times,serif" font-size="14.00" fill="#c02700">ww</text>
</g>
<!-- T1017 -->
<g id="node7" class="node">
<title>T1017</title>
<polygon fill="none" stroke="#0058ad" points="225.5,-324.5 225.5,-353.5 398.5,-353.5 398.5,-324.5 225.5,-324.5"/>
<text text-anchor="middle" x="259" y="-335.3" font-family="Times,serif" font-size="14.00" fill="#0058ad">r 73 [2 3]</text>
<polyline fill="none" stroke="#0058ad" points="292.5,-324.5 292.5,-353.5 "/>
<text text-anchor="middle" x="345.5" y="-335.3" font-family="Times,serif" font-size="14.00" fill="#0058ad">r 69 [1 2 3 4 6 7]</text>
</g>
<!-- T997&#45;&gt;T1017 -->
<g id="edge4" class="edge">
<title>T997:f1&#45;&gt;T1017:f0</title>
<path fill="none" stroke="#c000a5" d="M220,-405C220,-380.48 248.8,-381.51 256.9,-364.18"/>
<polygon fill="#c000a5" stroke="#c000a5" points="260.41,-364.5 259,-354 253.55,-363.09 260.41,-364.5"/>
<text text-anchor="middle" x="257.5" y="-375.8" font-family="Times,serif" font-size="14.00" fill="#c000a5">wr</text>
</g>
<!-- T1009 -->
<g id="node4" class="node">
<title>T1009</title>
<polygon fill="none" stroke="#0058ad" points="173,-162.5 173,-191.5 227,-191.5 227,-162.5 173,-162.5"/>
<text text-anchor="middle" x="200" y="-173.3" font-family="Times,serif" font-size="14.00" fill="#0058ad">a 73 6</text>
</g>
<!-- T1009&#45;&gt;T1028 -->
<g id="edge5" class="edge">
<title>T1009:f0&#45;&gt;T1028:f0</title>
<path fill="none" stroke="#c02700" d="M200,-162.32C200,-151.45 200,-136.01 200,-121.14"/>
<polygon fill="#c02700" stroke="#c02700" points="203.5,-121 200,-111 196.5,-121 203.5,-121"/>
<text text-anchor="middle" x="209.5" y="-132.8" font-family="Times,serif" font-size="14.00" fill="#c02700">ww</text>
</g>
<!-- T1089&#45;&gt;T999 -->
<g id="edge6" class="edge">
<title>T1089:f0&#45;&gt;T999:f2</title>
<path fill="none" stroke="#5b00c0" d="M118,-30C118,-58.89 118,-66.11 118,-95 118,-421 118,-421 118,-421 118,-447.03 130.25,-454.5 133.31,-475.89"/>
<polygon fill="#5b00c0" stroke="#5b00c0" points="129.83,-476.26 134,-486 136.81,-475.79 129.83,-476.26"/>
<text text-anchor="middle" x="125.5" y="-254.3" font-family="Times,serif" font-size="14.00" fill="#5b00c0">rw</text>
</g>
<!-- T1010&#45;&gt;T1009 -->
<g id="edge7" class="edge">
<title>T1010:f0&#45;&gt;T1009:f0</title>
<path fill="none" stroke="#c02700" d="M200,-243C200,-229.35 200,-214.12 200,-201.73"/>
<polygon fill="#c02700" stroke="#c02700" points="203.5,-201.68 200,-191.68 196.5,-201.68 203.5,-201.68"/>
<text text-anchor="middle" x="209.5" y="-213.8" font-family="Times,serif" font-size="14.00" fill="#c02700">ww</text>
</g>
<!-- T1017&#45;&gt;T1010 -->
<g id="edge8" class="edge">
<title>T1017:f0&#45;&gt;T1010:f0</title>
<path fill="none" stroke="#5b00c0" d="M259,-324C259,-293.27 212.61,-304.19 202.1,-282.89"/>
<polygon fill="#5b00c0" stroke="#5b00c0" points="205.5,-282.06 200,-273 198.65,-283.51 205.5,-282.06"/>
<text text-anchor="middle" x="256.5" y="-294.8" font-family="Times,serif" font-size="14.00" fill="#5b00c0">rw</text>
</g>
</g>
</svg>
