<?xml version="1.0" encoding="UTF-8" standalone="no"?>
<!DOCTYPE svg PUBLIC "-//W3C//DTD SVG 1.1//EN"
 "http://www.w3.org/Graphics/SVG/1.1/DTD/svg11.dtd">
<!-- Generated by graphviz version 2.43.0 (0)
 -->
<!-- Title: a_graph Pages: 1 -->
<svg width="601pt" height="200pt"
 viewBox="0.00 0.00 601.00 200.00" xmlns="http://www.w3.org/2000/svg" xmlns:xlink="http://www.w3.org/1999/xlink">
<g id="graph0" class="graph" transform="scale(1 1) rotate(0) translate(4 196)">
<title>a_graph</title>
<polygon fill="white" stroke="transparent" points="-4,4 -4,-196 597,-196 597,4 -4,4"/>
<!-- T999 -->
<g id="node1" class="node">
<title>T999</title>
<polygon fill="none" stroke="#0058ad" points="228,-162.5 228,-191.5 386,-191.5 386,-162.5 228,-162.5"/>
<text text-anchor="middle" x="252.5" y="-173.3" font-family="Times,serif" font-size="14.00" fill="#0058ad">a 66 6</text>
<polyline fill="none" stroke="#0058ad" points="277,-162.5 277,-191.5 "/>
<text text-anchor="middle" x="307" y="-173.3" font-family="Times,serif" font-size="14.00" fill="#0058ad">r 3 [2 3]</text>
<polyline fill="none" stroke="#0058ad" points="337,-162.5 337,-191.5 "/>
<text text-anchor="middle" x="361.5" y="-173.3" font-family="Times,serif" font-size="14.00" fill="#0058ad">a 59 4</text>
</g>
<!-- T1030 -->
<g id="node3" class="node">
<title>T1030</title>
<polygon fill="none" stroke="#0058ad" points="0,-81.5 0,-110.5 386,-110.5 386,-81.5 0,-81.5"/>
<text text-anchor="middle" x="62.5" y="-92.3" font-family="Times,serif" font-size="14.00" fill="#0058ad">r 68 [2 4 5 6 1 8 7 3]</text>
<polyline fill="none" stroke="#0058ad" points="125,-81.5 125,-110.5 "/>
<text text-anchor="middle" x="178" y="-92.3" font-family="Times,serif" font-size="14.00" fill="#0058ad">r 66 [2 5 7 4 8 6]</text>
<polyline fill="none" stroke="#0058ad" points="231,-81.5 231,-110.5 "/>
<text text-anchor="middle" x="284" y="-92.3" font-family="Times,serif" font-size="14.00" fill="#0058ad">r 66 [2 5 7 4 8 6]</text>
<polyline fill="none" stroke="#0058ad" points="337,-81.5 337,-110.5 "/>
<text text-anchor="middle" x="361.5" y="-92.3" font-family="Times,serif" font-size="14.00" fill="#0058ad">a 59 5</text>
</g>
<!-- T999&#45;&gt;T1030 -->
<g id="edge1" class="edge">
<title>T999:f0&#45;&gt;T1030:f1</title>
<path fill="none" stroke="#c000a5" d="M227,-177C193.89,-177 180.55,-152.8 178.34,-121.07"/>
<polygon fill="#c000a5" stroke="#c000a5" points="181.83,-120.88 178,-111 174.84,-121.11 181.83,-120.88"/>
<text text-anchor="middle" x="190.5" y="-132.8" font-family="Times,serif" font-size="14.00" fill="#c000a5">wr</text>
</g>
<!-- T1004 -->
<g id="node2" class="node">
<title>T1004</title>
<polygon fill="none" stroke="#0058ad" points="361,-0.5 361,-29.5 593,-29.5 593,-0.5 361,-0.5"/>
<text text-anchor="middle" x="399.5" y="-11.3" font-family="Times,serif" font-size="14.00" fill="#0058ad">r 59 [1 3 5]</text>
<polyline fill="none" stroke="#0058ad" points="438,-0.5 438,-29.5 "/>
<text text-anchor="middle" x="462.5" y="-11.3" font-family="Times,serif" font-size="14.00" fill="#0058ad">a 63 3</text>
<polyline fill="none" stroke="#0058ad" points="487,-0.5 487,-29.5 "/>
<text text-anchor="middle" x="540" y="-11.3" font-family="Times,serif" font-size="14.00" fill="#0058ad">r 63 [1 4 6 5 7 3]</text>
</g>
<!-- T1004&#45;&gt;T999 -->
<g id="edge2" class="edge">
<title>T1004:f0&#45;&gt;T999:f2</title>
<path fill="none" stroke="#5b00c0" d="M399,-30C399,-38.94 405.95,-39.29 408,-48 420.49,-100.89 442.07,-167.72 397.24,-176.12"/>
<polygon fill="#5b00c0" stroke="#5b00c0" points="396.66,-172.66 387,-177 397.26,-179.63 396.66,-172.66"/>
<text text-anchor="middle" x="430.5" y="-92.3" font-family="Times,serif" font-size="14.00" fill="#5b00c0">rw</text>
</g>
<!-- T1030&#45;&gt;T999 -->
<g id="edge4" class="edge">
<title>T1030:f3&#45;&gt;T999:f2</title>
<path fill="none" stroke="#c02700" d="M362,-111C362,-129.77 362,-136.88 362,-151.65"/>
<polygon fill="#c02700" stroke="#c02700" points="358.5,-152 362,-162 365.5,-152 358.5,-152"/>
<text text-anchor="middle" x="371.5" y="-132.8" font-family="Times,serif" font-size="14.00" fill="#c02700">ww</text>
</g>
<!-- T1030&#45;&gt;T1004 -->
<g id="edge3" class="edge">
<title>T1030:f3&#45;&gt;T1004:f0</title>
<path fill="none" stroke="#c000a5" d="M362,-81C362,-56.93 389.33,-57.25 397.01,-40.04"/>
<polygon fill="#c000a5" stroke="#c000a5" points="400.49,-40.49 399,-30 393.62,-39.13 400.49,-40.49"/>
<text text-anchor="middle" x="399.5" y="-51.8" font-family="Times,serif" font-size="14.00" fill="#c000a5">wr</text>
</g>
</g>
</svg>
